<?xml version="1.0" encoding="UTF-8"?>
<svg width="1811px" height="1195px" viewBox="0 0 1811 1195" version="1.1" xmlns="http://www.w3.org/2000/svg" xmlns:xlink="http://www.w3.org/1999/xlink">
    <!-- Generator: Sketch 47.1 (45422) - http://www.bohemiancoding.com/sketch -->
    <title>Group</title>
    <desc>Created with Sketch.</desc>
    <defs></defs>
    <g id="Page-1" stroke="none" stroke-width="1" fill="none" fill-rule="evenodd" stroke-dasharray="5">
        <g id="Group" stroke="#949494" stroke-width="0.5">
            <path d="M0,43.5 L1811,43.5" id="Line-Copy"></path>
            <path d="M0,109.5 L1811,109.5" id="Line-Copy-2"></path>
            <path d="M0,176.5 L1811,176.5" id="Line-Copy-5"></path>
            <path d="M0,242.5 L1811,242.5" id="Line-Copy-4"></path>
            <path d="M0,308.5 L1811,308.5" id="Line-Copy-3"></path>
            <path d="M0,374.5 L1811,374.5" id="Line-Copy-8"></path>
            <path d="M0,440.5 L1811,440.5" id="Line-Copy-7"></path>
            <path d="M0,573.5 L1811,573.5" id="Line-Copy-11"></path>
            <path d="M0,506.5 L1811,506.5" id="Line-Copy-6"></path>
            <path d="M0,637.5 L1811,637.5" id="Line"></path>
            <path d="M0,703.5 L1811,703.5" id="Line-Copy"></path>
            <path d="M0,769.5 L1811,769.5" id="Line-Copy-2"></path>
            <path d="M0,836.5 L1811,836.5" id="Line-Copy-5"></path>
            <path d="M0,902.5 L1811,902.5" id="Line-Copy-4"></path>
            <path d="M0,968.5 L1811,968.5" id="Line-Copy-3"></path>
            <path d="M0,1034.5 L1811,1034.5" id="Line-Copy-8"></path>
            <path d="M0,1100.5 L1811,1100.5" id="Line-Copy-7"></path>
            <path d="M0,1166.5 L1811,1166.5" id="Line-Copy-6"></path>
            <path d="M568,599.5 L1767,599.5" id="Line-Copy" transform="translate(1167.500000, 599.500000) rotate(-270.000000) translate(-1167.500000, -599.500000) "></path>
            <path d="M502,599.5 L1701,599.5" id="Line-Copy-2" transform="translate(1101.500000, 599.500000) rotate(-270.000000) translate(-1101.500000, -599.500000) "></path>
            <path d="M435,599.5 L1634,599.5" id="Line-Copy-5" transform="translate(1034.500000, 599.500000) rotate(-270.000000) translate(-1034.500000, -599.500000) "></path>
            <path d="M369,599.5 L1568,599.5" id="Line-Copy-4" transform="translate(968.500000, 599.500000) rotate(-270.000000) translate(-968.500000, -599.500000) "></path>
            <path d="M303,599.5 L1502,599.5" id="Line-Copy-3" transform="translate(902.500000, 599.500000) rotate(-270.000000) translate(-902.500000, -599.500000) "></path>
            <path d="M237,599.5 L1436,599.5" id="Line-Copy-8" transform="translate(836.500000, 599.500000) rotate(-270.000000) translate(-836.500000, -599.500000) "></path>
            <path d="M171,599.5 L1370,599.5" id="Line-Copy-7" transform="translate(770.500000, 599.500000) rotate(-270.000000) translate(-770.500000, -599.500000) "></path>
            <path d="M38,599.5 L1237,599.5" id="Line-Copy-11" transform="translate(637.500000, 599.500000) rotate(-270.000000) translate(-637.500000, -599.500000) "></path>
            <path d="M105,599.5 L1304,599.5" id="Line-Copy-6" transform="translate(704.500000, 599.500000) rotate(-270.000000) translate(-704.500000, -599.500000) "></path>
            <path d="M-26,599.5 L1173,599.5" id="Line" transform="translate(573.500000, 599.500000) rotate(-270.000000) translate(-573.500000, -599.500000) "></path>
            <path d="M-92,599.5 L1107,599.5" id="Line-Copy" transform="translate(507.500000, 599.500000) rotate(-270.000000) translate(-507.500000, -599.500000) "></path>
            <path d="M-158,599.5 L1041,599.5" id="Line-Copy-2" transform="translate(441.500000, 599.500000) rotate(-270.000000) translate(-441.500000, -599.500000) "></path>
            <path d="M-225,599.5 L974,599.5" id="Line-Copy-5" transform="translate(374.500000, 599.500000) rotate(-270.000000) translate(-374.500000, -599.500000) "></path>
            <path d="M-291,599.5 L908,599.5" id="Line-Copy-4" transform="translate(308.500000, 599.500000) rotate(-270.000000) translate(-308.500000, -599.500000) "></path>
            <path d="M-357,599.5 L842,599.5" id="Line-Copy-3" transform="translate(242.500000, 599.500000) rotate(-270.000000) translate(-242.500000, -599.500000) "></path>
            <path d="M-423,599.5 L776,599.5" id="Line-Copy-8" transform="translate(176.500000, 599.500000) rotate(-270.000000) translate(-176.500000, -599.500000) "></path>
            <path d="M-489,599.5 L710,599.5" id="Line-Copy-7" transform="translate(110.500000, 599.500000) rotate(-270.000000) translate(-110.500000, -599.500000) "></path>
            <path d="M-555,599.5 L644,599.5" id="Line-Copy-6" transform="translate(44.500000, 599.500000) rotate(-270.000000) translate(-44.500000, -599.500000) "></path>
            <path d="M1164,599.5 L2363,599.5" id="Line" transform="translate(1763.500000, 599.500000) rotate(-270.000000) translate(-1763.500000, -599.500000) "></path>
            <path d="M1098,599.5 L2297,599.5" id="Line-Copy" transform="translate(1697.500000, 599.500000) rotate(-270.000000) translate(-1697.500000, -599.500000) "></path>
            <path d="M1032,599.5 L2231,599.5" id="Line-Copy-2" transform="translate(1631.500000, 599.500000) rotate(-270.000000) translate(-1631.500000, -599.500000) "></path>
            <path d="M965,599.5 L2164,599.5" id="Line-Copy-5" transform="translate(1564.500000, 599.500000) rotate(-270.000000) translate(-1564.500000, -599.500000) "></path>
            <path d="M899,599.5 L2098,599.5" id="Line-Copy-4" transform="translate(1498.500000, 599.500000) rotate(-270.000000) translate(-1498.500000, -599.500000) "></path>
            <path d="M833,599.5 L2032,599.5" id="Line-Copy-3" transform="translate(1432.500000, 599.500000) rotate(-270.000000) translate(-1432.500000, -599.500000) "></path>
            <path d="M767,599.5 L1966,599.5" id="Line-Copy-8" transform="translate(1366.500000, 599.500000) rotate(-270.000000) translate(-1366.500000, -599.500000) "></path>
            <path d="M701,599.5 L1900,599.5" id="Line-Copy-7" transform="translate(1300.500000, 599.500000) rotate(-270.000000) translate(-1300.500000, -599.500000) "></path>
            <path d="M635,599.5 L1834,599.5" id="Line-Copy-6" transform="translate(1234.500000, 599.500000) rotate(-270.000000) translate(-1234.500000, -599.500000) "></path>
        </g>
    </g>
</svg>