<?xml version="1.0" encoding="UTF-8"?>
<svg width="52px" height="52px" viewBox="0 0 52 52" version="1.1" xmlns="http://www.w3.org/2000/svg" xmlns:xlink="http://www.w3.org/1999/xlink">
    <!-- Generator: Sketch 49.2 (51160) - http://www.bohemiancoding.com/sketch -->
    <title>Group 4</title>
    <desc>Created with Sketch.</desc>
    <defs></defs>
    <g id="Page-1" stroke="none" stroke-width="1" fill="none" fill-rule="evenodd">
        <g id="Question_TinderConcept2-Copy" transform="translate(-197.000000, -520.000000)">
            <g id="Group-6" transform="translate(127.000000, 520.000000)">
                <g id="Group-4" transform="translate(70.000000, 0.000000)">
                    <circle id="Oval-2" fill="#A3D076" cx="26" cy="26" r="26"></circle>
                    <g id="heart" transform="translate(14.000000, 17.000000)" fill="#FFFFFF" fill-rule="nonzero">
                        <path d="M17.0034309,0.0268701031 C15.8844371,0.0268701031 14.8148784,0.283397938 13.8246433,0.78937732 C13.1505649,1.13374021 12.5313155,1.59127423 12,2.13411959 C11.4686351,1.59127423 10.8494351,1.13374021 10.1753567,0.78937732 C9.18507216,0.283397938 8.11556289,0.0268701031 6.99651959,0.0268701031 C3.13865567,0.0268701031 0,3.16552577 0,7.02343918 C0,9.75592577 1.44311753,12.6580454 4.28922062,15.6492866 C6.66556701,18.1468206 9.57496082,20.228734 11.5971464,21.5354722 L12,21.7958103 L12.4028536,21.5354722 C14.4250392,20.2287835 17.334433,18.1468206 19.7108289,15.6492866 C22.556932,12.6580454 24,9.75592577 24,7.02343918 C24,3.16552577 20.8613443,0.0268701031 17.0034309,0.0268701031 Z M18.635332,14.6259464 C16.5115546,16.8579959 13.9246021,18.7555299 12,20.025501 C10.0753979,18.7554804 7.48844536,16.8579959 5.36471753,14.6259464 C2.78998763,11.920033 1.48453608,9.36217732 1.48453608,7.02343918 C1.48453608,3.98409897 3.95722887,1.51140619 6.99656907,1.51140619 C8.74639175,1.51140619 10.3537979,2.31518351 11.406532,3.71658557 L12,4.50660619 L12.593468,3.71658557 C13.6462021,2.31518351 15.2536082,1.51140619 17.0034309,1.51140619 C20.0427711,1.51140619 22.5154639,3.98409897 22.5154639,7.02343918 C22.5154639,9.36217732 21.2099629,11.920033 18.635332,14.6259464 Z" id="Shape"></path>
                    </g>
                </g>
            </g>
        </g>
    </g>
</svg>