<?xml version="1.0" encoding="UTF-8"?>
<svg width="20px" height="22px" viewBox="0 0 20 22" version="1.1" xmlns="http://www.w3.org/2000/svg" xmlns:xlink="http://www.w3.org/1999/xlink">
    <!-- Generator: Sketch 50 (54983) - http://www.bohemiancoding.com/sketch -->
    <title>Group</title>
    <desc>Created with Sketch.</desc>
    <defs></defs>
    <g id="Page-1" stroke="none" stroke-width="1" fill="none" fill-rule="evenodd">
        <g id="Anonymous_FlightDetailsCollapse" transform="translate(-34.000000, -330.000000)" fill-rule="nonzero" stroke="#666666">
            <g id="Group-24" transform="translate(18.000000, -231.000000)">
                <g id="Group-17" transform="translate(0.000000, 401.000000)">
                    <g id="Group-41" transform="translate(1.000000, 67.000000)">
                        <g id="Group-51" transform="translate(0.000000, 6.000000)">
                            <g id="Group" transform="translate(16.000000, 88.000000)">
                                <path d="M6.28425,17.1169895 L4.89375,19.6875 L13.34925,19.6875 L11.95425,17.1" id="Shape" stroke-linecap="round" stroke-linejoin="round"></path>
                                <path d="M12.41325,11.10375 L7.23825,11.10375 C7.13429914,11.1075934 7.04126488,11.0396784 7.01325,10.9395 L6.61725,9.50175 C6.59778237,9.43251841 6.61258233,9.35815195 6.65707289,9.30164893 C6.70156346,9.24514591 6.77038351,9.21331496 6.84225,9.216 L12.41325,9.216 C12.6351969,9.20538322 12.8516264,9.28717863 13.0110732,9.4419359 C13.1705201,9.59669317 13.2587382,9.81058516 13.25475,10.03275 C13.257,10.48275 12.93525,11.10375 12.41325,11.10375 Z" id="Shape"></path>
                                <path d="M13.35825,15.8265 L5.10075,15.8265 C4.63562576,15.8067911 4.22091722,15.5277105 4.0275,15.10425 C3.89562974,14.9165828 3.79601079,14.7082195 3.73275,14.48775 L0.25425,3.16575 C0.126459356,2.76270435 0.261,1.854 1.125,1.575 C1.989,1.296 2.66285016,1.92848239 2.79,2.34 L6.19875,13.52925 L13.35825,13.52925 C13.7807417,13.5105463 14.179396,13.7252904 14.3962266,14.0883793 C14.6130571,14.4514681 14.6130571,14.9042819 14.3962266,15.2673707 C14.179396,15.6304596 13.7807417,15.8452037 13.35825,15.8265 Z" id="Shape"></path>
                                <path d="M15.3998997,6.90616834 C14.0775559,6.90616834 13.0055844,5.84835197 13.0055844,4.54346934 L13.0055844,2.47519899 C13.0055844,1.17031637 14.0775559,0.1125 15.3998997,0.1125 L15.4256847,0.1125 C16.7480285,0.1125 17.82,1.17031637 17.82,2.47519899 L17.82,4.54346934 C17.82,5.17009608 17.5677425,5.77105781 17.1187213,6.21414983 C16.6697,6.65724184 16.0606966,6.90616834 15.4256847,6.90616834 L15.3998997,6.90616834 Z" id="Shape"></path>
                                <path d="M13.1897625,2.65876253 L17.6358219,2.65876253" id="Shape"></path>
                            </g>
                        </g>
                    </g>
                </g>
            </g>
        </g>
    </g>
</svg>