<?xml version="1.0" encoding="UTF-8"?>
<svg width="49px" height="45px" viewBox="0 0 49 45" version="1.1" xmlns="http://www.w3.org/2000/svg" xmlns:xlink="http://www.w3.org/1999/xlink">
    <!-- Generator: Sketch 47.1 (45422) - http://www.bohemiancoding.com/sketch -->
    <title>Group 11</title>
    <desc>Created with Sketch.</desc>
    <defs></defs>
    <g id="Page-1" stroke="none" stroke-width="1" fill="none" fill-rule="evenodd">
        <g id="Companions" transform="translate(-525.000000, -722.000000)" fill-rule="nonzero" fill="#D0021B">
            <g id="Group-15" transform="translate(498.000000, 693.000000)">
                <g id="Group-11" transform="translate(27.000000, 29.000000)">
                    <g id="add-user">
                        <path d="M48.2105263,36.1157895 L42.2894737,36.1157895 L42.2894737,29.8421053 C42.2894737,29.3789474 41.9342105,29 41.5,29 C41.0657895,29 40.7105263,29.3789474 40.7105263,29.8421053 L40.7105263,36.1157895 L34.7894737,36.1157895 C34.3552632,36.1157895 34,36.4947368 34,36.9578947 C34,37.4210526 34.3552632,37.8 34.7894737,37.8 L40.7105263,37.8 L40.7105263,44.1578947 C40.7105263,44.6210526 41.0657895,45 41.5,45 C41.9342105,45 42.2894737,44.6210526 42.2894737,44.1578947 L42.2894737,37.8 L48.2105263,37.8 C48.6447368,37.8 49,37.4210526 49,36.9578947 C49,36.4947368 48.6447368,36.1157895 48.2105263,36.1157895 Z" id="Shape"></path>
                        <path d="M34.3954474,23.7653391 C35.6213544,24.1334769 36.7655342,24.7061356 37.6645327,25.5242196 C37.9914412,25.810549 38.5226676,25.7696448 38.8087125,25.4424112 C39.0947575,25.1151776 39.0538939,24.583423 38.7269854,24.2970936 C37.6236691,23.3153929 36.2751714,22.6200215 34.7632195,22.2109795 L34.2728567,22.088267 C33.4964489,21.883746 32.638314,22.1700753 32.1479512,22.7427341 C30.3499543,24.787944 28.0615946,24.9515608 25.6506442,24.9515608 C23.2805574,24.9515608 20.9921977,24.787944 19.1942008,22.7427341 C18.6629744,22.1291712 17.8457031,21.883746 17.1101589,22.088267 L16.6197961,22.2109795 C13.2281201,23.1108719 10.5311248,25.7287406 9.55039917,29.123789 L8.85571854,31.4962325 C8.81485498,31.4962325 8.77399141,31.4962325 8.73312785,31.4962325 L1.99063944,31.4962325 C1.82718517,31.4962325 1.74545804,31.4144241 1.70459447,31.3735199 C1.66373091,31.3326157 1.58200377,31.2099031 1.62286734,31.0462863 L2.97136502,26.2604952 C4.11554487,22.4564047 6.52649528,21.2292788 10.8580333,20.2066738 C10.9397604,20.2066738 10.980624,20.1657696 11.0623511,20.1248654 C11.3483961,20.3293864 11.6753046,20.5339074 11.9613496,20.6975242 C12.0839403,20.7793326 12.206531,20.7793326 12.3291217,20.7793326 C12.6151666,20.7793326 12.9012116,20.6157158 13.0646659,20.3293864 C13.2689837,19.9203445 13.1055294,19.4294941 12.7377573,19.2249731 C10.3268069,17.9978471 8.56967358,14.4391819 8.56967358,10.7987083 C8.56967358,7.48546825 11.2258054,4.82669537 14.5357542,4.82669537 C15.5164798,4.82669537 16.4154783,5.07212056 17.3144767,5.52206674 C16.8241139,6.66738428 16.538069,7.93541442 16.538069,9.24434876 C16.538069,16.2389666 20.7470163,22.1291712 25.7732349,22.1291712 C30.6768629,22.1291712 35.0084009,16.116254 35.0084009,9.24434876 C35.0084009,4.131324 30.8811807,0 25.7732349,0 C22.5858768,0 19.7662907,1.63616792 18.0908845,4.09041981 L18.0500209,4.04951561 C16.9467046,3.47685684 15.7616612,3.19052745 14.5357542,3.19052745 C10.3268069,3.19052745 6.93513094,6.58557589 6.93513094,10.7987083 C6.93513094,13.8665231 7.99758366,16.8116254 9.67298987,18.7750269 C5.95440535,19.7158235 2.84877432,21.1065662 1.41854951,25.7696448 L0.0700518276,30.5963402 C-0.0934024369,31.2099031 0.0291882615,31.8643703 0.437823923,32.3552207 C0.805596018,32.846071 1.37768594,33.1324004 1.99063944,33.1324004 L8.36535575,33.1324004 L7.79326583,35.0548977 C7.58894799,35.7502691 7.71153869,36.4865447 8.16103792,37.0592034 C8.61053715,37.6318622 9.30521777,38 10.040762,38 L27.366914,38 C27.8164132,38 28.1841853,37.6318622 28.1841853,37.181916 C28.1841853,36.7319699 27.8164132,36.3638321 27.366914,36.3638321 L10.040762,36.3638321 C9.83644413,36.3638321 9.6321263,36.2820237 9.5095356,36.0775027 C9.42780847,35.9956943 9.34608134,35.7911733 9.42780847,35.5048439 L11.1440782,29.532831 C11.9613496,26.7104413 14.2088457,24.5016146 17.0692953,23.7653391 L17.5596581,23.6426265 C17.7231124,23.6017223 17.8865667,23.6835307 18.0091574,23.8062433 C20.2566535,26.3832078 23.035376,26.5877287 25.7323714,26.5877287 C28.4293667,26.5877287 31.2080892,26.3832078 33.4555854,23.8062433 C33.4555854,23.8062433 33.4555854,23.7653391 33.4964489,23.7653391 C33.578176,23.6835307 33.7824939,23.6017223 33.9050846,23.6426265 L34.3954474,23.7653391 Z M25.6454294,2 C29.0941828,2 32.0027701,4.27125195 33,7.3684137 C31.5457064,7.65748213 30.0083102,7.07934527 29.0941828,5.84048057 C28.8033241,5.46882116 28.3047091,5.38623018 27.9307479,5.67529861 C27.7645429,5.79918508 27.6814404,5.92307155 27.6398892,6.08825351 C27.598338,6.129549 27.598338,6.17084449 27.5567867,6.21213998 C26.3933518,8.56598291 22.4875346,9.55707467 18,8.68986938 C18.498615,4.93197979 21.7396122,2 25.6454294,2 Z M21.1048387,9.88888889 C24.3306452,9.88888889 26.9919355,8.88580247 28.3629032,7 C29.3709677,7.88271605 30.6209677,8.36419753 31.9516129,8.36419753 C32.2741935,8.36419753 32.6370968,8.32407407 32.9596774,8.24382716 C33,8.4845679 33,8.68518519 33,8.92592593 C33,14.8240741 29.4919355,20 25.5,20 C21.6693548,20 18.2419355,15.2253086 18,9.60802469 C19.0887097,9.80864198 20.0967742,9.88888889 21.1048387,9.88888889 Z" id="Shape"></path>
                    </g>
                </g>
            </g>
        </g>
    </g>
</svg>