<?xml version="1.0" encoding="UTF-8"?>
<svg width="81px" height="80px" viewBox="0 0 81 80" version="1.1" xmlns="http://www.w3.org/2000/svg" xmlns:xlink="http://www.w3.org/1999/xlink">
    <!-- Generator: Sketch 49.2 (51160) - http://www.bohemiancoding.com/sketch -->
    <title>Group 13</title>
    <desc>Created with Sketch.</desc>
    <defs></defs>
    <g id="Page-1" stroke="none" stroke-width="1" fill="none" fill-rule="evenodd">
        <g id="Anonymous_ReviewItinerary_Edit" transform="translate(-272.000000, -519.000000)">
            <g id="Group-13" transform="translate(272.000000, 519.000000)">
                <circle id="Background" fill="#3D3D3D" cx="40.5" cy="40" r="40"></circle>
                <g id="binoculars" transform="translate(20.500000, 29.000000)" fill="#FFFFFF" fill-rule="nonzero">
                    <path d="M29.8986622,10.2514793 C27.9426036,10.2514793 26.3609467,11.8435458 26.3609467,13.795358 C26.3609467,14.2622621 26.7429895,14.6449704 27.2090816,14.6449704 C27.6751737,14.6449704 28.0572164,14.2622621 28.0572164,13.795358 C28.0572164,12.777354 28.8900695,11.9430499 29.9063031,11.9430499 C30.3723952,11.9430499 30.7544379,11.5603416 30.7544379,11.0934375 C30.746797,10.6265334 30.3647543,10.2514793 29.8986622,10.2514793 Z" id="XMLID_1737_"></path>
                    <path d="M35.4920852,7.39776067 C35.2812411,7.19529564 35.054779,7.00061773 34.8205078,6.81372693 L31.6188015,4.10381039 C30.3849732,3.23165334 28.9168738,2.67876807 27.3238297,2.56974844 L27.4956286,2.741065 L25.5511777,0.794285882 L25.5355596,0.794285882 C24.9967359,0.303697543 24.2704952,0 23.4817822,0 C22.1230093,0 20.9750805,0.879944163 20.5846285,2.10252145 C20.1941765,1.85333372 19.7412522,1.70537851 19.2492827,1.67423005 C19.1711923,1.66644293 19.0852929,1.66644293 19.0072025,1.66644293 C18.4527607,1.66644293 17.9373641,1.82997238 17.5000578,2.10252145 C17.1017968,0.88773128 15.953868,0.00778711649 14.6029041,0.00778711649 C13.8141911,0.00778711649 13.0957595,0.303697543 12.5491267,0.802072999 L12.5335086,0.802072999 L10.5890578,2.74885212 L10.7608566,2.57753556 C9.16781254,2.68655519 7.69190405,3.24722758 6.46588482,4.11159751 L3.26417857,6.82151405 C3.02990738,7.00061773 2.80344523,7.19529564 2.59260116,7.40554778 C0.991748035,8.94739685 0,11.1044281 0,13.4950729 C0,18.1673428 3.81081135,21.9674556 8.49623513,21.9674556 C12.8224431,21.9674556 16.4067923,18.720228 16.9221889,14.5385465 C17.5469121,14.8967538 18.2731528,15.0992189 19.0384386,15.0992189 C19.8115336,15.0992189 20.5299652,14.8967538 21.1546884,14.5385465 C21.677894,18.7124409 25.2544342,21.9596685 29.5806422,21.9596685 C34.266066,21.9596685 38.0768773,18.1595557 38.0768773,13.4872858 C38.0846863,11.096641 37.0929383,8.93960973 35.4920852,7.39776067 Z M8.49623513,19.2731133 C5.29452888,19.2731133 2.70192772,16.6877906 2.70192772,13.4950729 C2.70192772,10.3023551 5.29452888,7.71703244 8.49623513,7.71703244 C11.6979414,7.71703244 14.2905425,10.3023551 14.2905425,13.4950729 C14.2983516,16.6800035 11.6979414,19.2731133 8.49623513,19.2731133 Z M19.0462477,12.700787 C18.0076454,12.700787 17.1642691,11.8597784 17.1642691,10.8240919 C17.1642691,9.78840543 18.0076454,8.94739685 19.0462477,8.94739685 C20.08485,8.94739685 20.9282262,9.78840543 20.9282262,10.8240919 C20.9282262,11.8597784 20.08485,12.700787 19.0462477,12.700787 Z M29.5962602,19.2731133 C26.394554,19.2731133 23.8019528,16.6877906 23.8019528,13.4950729 C23.8019528,10.3023551 26.394554,7.71703244 29.5962602,7.71703244 C32.7979665,7.71703244 35.3905677,10.3023551 35.3905677,13.4950729 C35.3905677,16.6800035 32.7979665,19.2731133 29.5962602,19.2731133 Z" id="XMLID_1738_"></path>
                    <path d="M7.93120659,10.2514793 C5.97514793,10.2514793 4.39349112,11.8435458 4.39349112,13.795358 C4.39349112,14.2622621 4.77553383,14.6449704 5.24162593,14.6449704 C5.70771803,14.6449704 6.08976074,14.2622621 6.08976074,13.795358 C6.08976074,12.777354 6.92261384,11.9430499 7.93884744,11.9430499 C8.40493954,11.9430499 8.78698225,11.5603416 8.78698225,11.0934375 C8.77934139,10.6265334 8.39729869,10.2514793 7.93120659,10.2514793 Z" id="XMLID_1745_"></path>
                </g>
            </g>
        </g>
    </g>
</svg>