<?xml version="1.0" encoding="UTF-8"?>
<svg width="81px" height="80px" viewBox="0 0 81 80" version="1.1" xmlns="http://www.w3.org/2000/svg" xmlns:xlink="http://www.w3.org/1999/xlink">
    <!-- Generator: Sketch 49.2 (51160) - http://www.bohemiancoding.com/sketch -->
    <title>Icon</title>
    <desc>Created with Sketch.</desc>
    <defs></defs>
    <g id="Page-1" stroke="none" stroke-width="1" fill="none" fill-rule="evenodd">
        <g id="Anonymous_ReviewItinerary_Edit" transform="translate(-23.000000, -519.000000)">
            <g id="Icon" transform="translate(23.500000, 519.000000)">
                <circle id="Background" fill="#3D3D3D" cx="40" cy="40" r="40"></circle>
                <path d="M32,27 C30.343,27 29,25.657 29,24 C29,22.343 30.343,21 32,21 C33.657,21 35,22.343 35,24 C35,25.657 33.657,27 32,27 Z M49,60 C47.343,60 46,58.657 46,57 C46,55.343 47.343,54 49,54 C50.657,54 52,55.343 52,57 C52,58.657 50.657,60 49,60 Z M32,19 C34.757,19 37,21.243 37,24 C37,26.757 34.757,29 32,29 C29.243,29 27,26.757 27,24 C27,21.243 29.243,19 32,19 Z M49,52 C51.757,52 54,54.243 54,57 C54,59.757 51.757,62 49,62 C46.243,62 44,59.757 44,57 C44,54.243 46.243,52 49,52 Z M39.1094,48.4165 C39.7214,50.3615 41.5344,51.8075 43.3894,52.8315 C42.8944,53.4965 42.5134,54.2485 42.2784,55.0635 C39.9544,53.7865 37.5834,51.8865 36.7264,49.1725 C35.7624,46.1185 36.8854,42.7525 40.0654,39.1705 C42.4424,36.4915 43.3044,34.1695 42.6294,32.2685 C41.9724,30.4195 39.9184,29.0295 37.7074,28.0395 C38.1884,27.3605 38.5494,26.5935 38.7654,25.7665 C41.4004,26.9555 44.0354,28.7645 44.9834,31.4275 C45.9894,34.2525 44.9634,37.4165 41.9344,40.8295 C39.3814,43.7075 38.4304,46.2595 39.1094,48.4165 Z" fill="#FFFFFF"></path>
            </g>
        </g>
    </g>
</svg>