<?xml version="1.0" encoding="UTF-8"?>
<svg width="36px" height="37px" viewBox="0 0 36 37" version="1.1" xmlns="http://www.w3.org/2000/svg" xmlns:xlink="http://www.w3.org/1999/xlink">
    <!-- Generator: Sketch 49.1 (51147) - http://www.bohemiancoding.com/sketch -->
    <title>Amenities Icon</title>
    <desc>Created with Sketch.</desc>
    <defs></defs>
    <g id="Page-1" stroke="none" stroke-width="1" fill="none" fill-rule="evenodd">
        <g id="Anonymous_FlightDetails" transform="translate(-32.000000, -1132.000000)">
            <g id="Group-7" transform="translate(32.000000, 1052.000000)">
                <g id="Amenities" transform="translate(0.000000, 79.500000)">
                    <g id="Amenities-Icon" transform="translate(0.000000, 1.000000)">
                        <circle id="Oval-3" fill="#666666" cx="18" cy="18" r="18"></circle>
                        <g id="soup.2" transform="translate(11.250000, 11.250000)" fill="#FFFFFF" fill-rule="nonzero">
                            <g id="Layer_1">
                                <g id="Group">
                                    <path d="M7.10383065,13.2589286 C3.23346774,13.2589286 0,9.98035714 0,6.12321429 C0,5.97857143 0.097983871,5.88214286 0.244959677,5.88214286 C0.391935484,5.88214286 0.489919355,6.02678571 0.489919355,6.12321429 C0.489919355,9.64285714 3.57641129,12.7767857 7.10383065,12.7767857 C10.6802419,12.7767857 13.7177419,9.7875 13.7177419,6.26785714 C13.7177419,6.12321429 13.8157258,6.02678571 13.9627016,6.02678571 C14.1096774,6.02678571 14.2076613,6.12321429 14.2076613,6.26785714 C14.2076613,10.0767857 10.9741935,13.2589286 7.10383065,13.2589286 Z" id="Shape"></path>
                                    <path d="M9.55342742,6.99107143 L7.10383065,6.99107143 C6.95685484,6.99107143 6.85887097,6.89464286 6.85887097,6.75 C6.85887097,6.60535714 6.95685484,6.50892857 7.10383065,6.50892857 L9.55342742,6.50892857 C9.70040323,6.50892857 9.7983871,6.60535714 9.7983871,6.75 C9.7983871,6.89464286 9.70040323,6.99107143 9.55342742,6.99107143 Z" id="Shape"></path>
                                    <path d="M7.10383065,8.4375 C3.7233871,8.4375 0,7.47321429 0,6.12321429 C0,4.82142857 3.67439516,4.09821429 7.10383065,4.09821429 C7.98568548,4.09821429 8.76955645,4.14642857 9.70040323,4.24285714 C9.84737903,4.24285714 9.9453629,4.3875 9.89637097,4.53214286 C9.84737903,4.67678571 9.74939516,4.77321429 9.60241935,4.725 C8.72056452,4.62857143 7.93669355,4.58035714 7.05483871,4.58035714 C2.98850806,4.58035714 0.489919355,5.49642857 0.489919355,6.12321429 C0.489919355,6.84642857 3.28245968,7.95535714 7.10383065,7.95535714 C11.0721774,7.95535714 13.7177419,6.94285714 13.7177419,6.26785714 C13.7177419,5.93035714 12.7868952,5.30357143 11.0721774,4.96607143 C10.9252016,4.91785714 10.8762097,4.82142857 10.8762097,4.67678571 C10.9252016,4.53214286 11.0231855,4.48392857 11.1701613,4.48392857 C12.5419355,4.77321429 14.2076613,5.4 14.2076613,6.26785714 C14.2076613,7.61785714 10.5332661,8.4375 7.10383065,8.4375 Z" id="Shape"></path>
                                    <g transform="translate(0.979839, 5.303571)" id="Shape">
                                        <path d="M0.244959677,1.92857143 C0.097983871,1.92857143 0,1.83214286 0,1.6875 C0,0.675 3.08649194,0 5.97701613,0 C6.56491935,0 7.10383065,0 7.64274194,0.0482142857 C7.78971774,0.0482142857 7.88770161,0.192857143 7.88770161,0.289285714 C7.88770161,0.433928571 7.74072581,0.530357143 7.64274194,0.530357143 C7.10383065,0.482142857 6.56491935,0.482142857 5.97701613,0.482142857 C2.64556452,0.482142857 0.489919355,1.35 0.489919355,1.6875 C0.489919355,1.83214286 0.391935484,1.92857143 0.244959677,1.92857143 Z"></path>
                                        <path d="M12.0030242,1.92857143 C11.8560484,1.92857143 11.7580645,1.83214286 11.7580645,1.6875 C11.7090726,1.49464286 10.7292339,0.867857143 8.96552419,0.675 C8.81854839,0.675 8.72056452,0.530357143 8.76955645,0.385714286 C8.76955645,0.241071429 8.91653226,0.144642857 9.06350806,0.192857143 C10.63125,0.385714286 12.2479839,1.0125 12.2479839,1.6875 C12.2479839,1.83214286 12.15,1.92857143 12.0030242,1.92857143 Z"></path>
                                    </g>
                                    <path d="M7.59375,6.99107143 C7.54475806,6.99107143 7.49576613,6.99107143 7.44677419,6.94285714 C7.34879032,6.84642857 7.34879032,6.70178571 7.44677419,6.60535714 L12.8358871,0.626785714 C13.0318548,0.385714286 13.3258065,0.289285714 13.66875,0.289285714 C14.2566532,0.289285714 14.7465726,0.771428571 14.7465726,1.35 C14.7465726,1.63928571 14.5995968,1.92857143 14.403629,2.16964286 L9.06350806,6.99107143 C8.96552419,7.0875 8.81854839,7.0875 8.72056452,6.99107143 C8.62258065,6.89464286 8.62258065,6.75 8.72056452,6.65357143 L14.0606855,1.83214286 C14.1586694,1.63928571 14.2076613,1.49464286 14.2076613,1.30178571 C14.2076613,0.964285714 13.9137097,0.723214286 13.6197581,0.723214286 C13.4237903,0.723214286 13.2768145,0.771428571 13.1788306,0.916071429 L7.78971774,6.89464286 C7.74072581,6.94285714 7.64274194,6.99107143 7.59375,6.99107143 Z" id="Shape"></path>
                                </g>
                            </g>
                        </g>
                    </g>
                </g>
            </g>
        </g>
    </g>
</svg>