<?xml version="1.0" encoding="UTF-8"?>
<svg width="46px" height="22px" viewBox="0 0 46 22" version="1.1" xmlns="http://www.w3.org/2000/svg" xmlns:xlink="http://www.w3.org/1999/xlink">
    <!-- Generator: Sketch 49.3 (51167) - http://www.bohemiancoding.com/sketch -->
    <title>Logo</title>
    <desc>Created with Sketch.</desc>
    <defs></defs>
    <g id="Page-1" stroke="none" stroke-width="1" fill="none" fill-rule="evenodd">
        <g id="Anonymous_ApplePay_FaceID" transform="translate(-18.000000, -286.000000)" fill="#000000">
            <g id="ApplePay" transform="translate(0.000000, 266.000000)">
                <path d="M29.558356,28.7466957 C29.5822087,31.2380238 31.8145647,32.0669047 31.8392693,32.0775532 C31.8205279,32.1363331 31.4827568,33.2591132 30.6632466,34.4193761 C29.9549069,35.4220409 29.219307,36.4212982 28.0615998,36.4421693 C26.9234858,36.4626145 26.5576026,35.788776 25.2563532,35.788776 C23.9555298,35.788776 23.5487563,36.4212982 22.4715519,36.4626145 C21.353883,36.5035048 20.5024272,35.3777431 19.7881244,34.3784858 C18.3284251,32.3343956 17.2128859,28.6027277 18.71092,26.0837134 C19.4550386,24.8327251 20.7844001,24.0404751 22.2279137,24.0204558 C23.3255633,24.0000107 24.3618774,24.7356105 25.0331602,24.7356105 C25.7035911,24.7356105 26.9630983,23.8509314 28.2869225,23.9808433 C28.8410716,24.0034182 30.3966076,24.1976472 31.3954389,25.6139006 C31.3145102,25.6624579 29.5387627,26.6638448 29.558356,28.7466957 M27.419281,22.6284811 C26.8259453,23.3248944 25.8518186,23.8658393 24.898137,23.7942812 C24.768225,22.8491185 25.2495382,21.8634913 25.7998538,21.2475808 C26.4132086,20.5520194 27.447819,20.0332234 28.3035342,20 C28.412575,20.9639042 28.0126166,21.9324937 27.419281,22.6284811 Z M36.0100823,21.4371245 C36.4500792,21.3630108 36.9347999,21.296564 37.4659481,21.2373582 C37.9962445,21.1777265 38.5797835,21.1483366 39.217417,21.1483366 C40.1272267,21.1483366 40.9113838,21.2556737 41.5707403,21.4703479 C42.2305227,21.6850221 42.7723195,21.9925514 43.1965566,22.3925098 C43.560736,22.7477445 43.8452645,23.169426 44.0497161,23.6584061 C44.2541677,24.1469603 44.3555417,24.7100541 44.3555417,25.3468357 C44.3555417,26.1169368 44.216259,26.7907752 43.935564,27.368351 C43.6552949,27.9459268 43.2728,28.4306476 42.7876533,28.823365 C42.3016548,29.2156566 41.7257827,29.507852 41.0587593,29.7003773 C40.39131,29.8929025 39.663803,29.9891652 38.8749605,29.9891652 C38.1627874,29.9891652 37.5639145,29.9376263 37.0791938,29.8341227 L37.0791938,36.2317545 L36.0100823,36.2317545 L36.0100823,21.4371245 Z M37.0791938,28.9013122 L37.0787679,28.9013122 L37.0787679,22.2140406 C37.2908865,22.1697428 37.5715815,22.1288524 37.9200011,22.0917956 C38.2688467,22.0547387 38.6858428,22.0364233 39.1709894,22.0364233 C39.7775292,22.0364233 40.3308264,22.1067035 40.8317329,22.247264 C41.3322134,22.3882504 41.7645434,22.5952577 42.1278709,22.8691377 C42.4916244,23.1434436 42.7718935,23.4948448 42.9691041,23.9246191 C43.1663148,24.3539675 43.2642812,24.8582815 43.2642812,25.4358573 C43.2642812,26.6348809 42.8890272,27.5459684 42.1389454,28.167842 C41.3884376,28.7897157 40.3308264,29.1006525 38.9665378,29.1006525 C38.6027843,29.1006525 38.2620316,29.0857446 37.9434279,29.0563547 C37.6248241,29.0269648 37.3368881,28.975 37.0791938,28.9013122 Z M52.8581732,33.699962 C52.8581732,34.1293104 52.8654142,34.5590847 52.8807481,34.9884331 C52.895656,35.4177815 52.9408057,35.831796 53.0170492,36.2317545 L52.0165141,36.2317545 L51.8576381,34.7213682 L51.8116365,34.7213682 C51.6753354,34.9288014 51.5006997,35.1362346 51.2885811,35.3432419 C51.0764626,35.5502491 50.8302687,35.7393669 50.5499997,35.9097432 C50.2693046,36.0805455 49.9507009,36.2172725 49.5946143,36.3207761 C49.2381018,36.4238538 48.84794,36.4762446 48.4237029,36.4762446 C47.8929805,36.4762446 47.4261494,36.3906305 47.0240612,36.221106 C46.6223989,36.0503037 46.2927207,35.8283885 46.0350265,35.5545085 C45.7773323,35.2802026 45.584381,34.9658583 45.455321,34.6101976 C45.3266868,34.254963 45.2623698,33.8997283 45.2623698,33.5440676 C45.2623698,32.2854124 45.8041665,31.315545 46.888186,30.6336137 C47.9722055,29.9521083 49.6061147,29.6266895 51.7899135,29.6565054 L51.7899135,29.3677175 C51.7899135,29.0857446 51.7630792,28.7633074 51.7102626,28.4004058 C51.656594,28.0375041 51.5394603,27.6933439 51.3571576,27.3679251 C51.1752808,27.0425063 50.9026787,26.7682004 50.5389252,26.5467111 C50.1751717,26.32437 49.6819322,26.2131994 49.0604845,26.2131994 C48.5902457,26.2131994 48.1242664,26.2834796 47.6621206,26.4240401 C47.1995488,26.5646006 46.7791452,26.7609594 46.4000578,27.0126904 L46.0588792,26.2349224 C46.5435999,25.9095036 47.0445063,25.6765139 47.5594688,25.5359534 C48.0752832,25.3953929 48.6132465,25.3246868 49.1742107,25.3246868 C49.9323854,25.3246868 50.5504256,25.4507653 51.0279053,25.7024963 C51.505385,25.9542274 51.8806389,26.2800721 52.153667,26.6796047 C52.4262692,27.0795631 52.6124053,27.527227 52.7107977,28.023874 C52.80919,28.5200951 52.8590251,29.0124828 52.8590251,29.5010369 L52.8590251,33.699962 L52.8581732,33.699962 Z M51.7894876,30.523295 L51.7899135,30.523295 L51.7899135,32.8323205 C51.7899135,32.9660659 51.7515788,33.1807401 51.6757614,33.4771949 C51.5841841,33.7442599 51.4521424,34.002806 51.2770807,34.254963 C51.102445,34.506694 50.8869189,34.7328686 50.6287987,34.9322089 C50.3706786,35.1319752 50.0682605,35.2912771 49.719415,35.4096886 C49.3709953,35.5289521 48.9765741,35.5877319 48.5370031,35.5877319 C47.9909469,35.5877319 47.4981334,35.4096886 47.0589883,35.054454 C46.6189914,34.6992193 46.3992059,34.1433664 46.3992059,33.3885992 C46.3992059,32.7518176 46.5738417,32.2411145 46.9226872,31.856064 C47.2711069,31.4705875 47.7102519,31.1779661 48.2414002,30.9781999 C48.7716965,30.7784336 49.351828,30.6485216 49.9805167,30.5897418 C50.6100573,30.5301101 51.2127636,30.5079612 51.7894876,30.523295 Z M54.948691,25.5687509 L57.7224179,32.4996606 C57.8744788,32.8847112 58.0184468,33.2808362 58.1551738,33.6884616 C58.2919008,34.0952351 58.412868,34.4696371 58.5189273,34.8099639 L58.564503,34.8099639 C58.6709882,34.4845451 58.7919554,34.11781 58.9282565,33.7101846 C59.0649835,33.3034111 59.2166185,32.8847112 59.3831613,32.4545109 L61.9762893,25.5683249 L63.1126996,25.5683249 L59.9522183,33.3881733 C59.6336146,34.2170542 59.3341781,34.9692658 59.053909,35.6431042 C58.77364,36.3169427 58.4886855,36.9239084 58.2007495,37.4644274 C57.9123875,38.0049463 57.6214699,38.482426 57.3245891,38.8977184 C57.0294121,39.3117329 56.698882,39.6750605 56.3355544,39.9859973 C55.9117433,40.355714 55.5207296,40.6266124 55.1642171,40.7969887 C54.8081305,40.9673651 54.5696036,41.0747021 54.4482105,41.119 L54.0836051,40.2526363 C54.3566332,40.1337988 54.6599031,39.9787563 54.9938407,39.786231 C55.3273524,39.5932798 55.6536231,39.3419747 55.971375,39.0310379 C56.244829,38.7643989 56.5442655,38.4129977 56.8701102,37.9755564 C57.195955,37.538967 57.4877245,37.0095225 57.7458446,36.3872229 C57.83657,36.1503998 57.8825717,35.9945054 57.8825717,35.9203917 C57.8825717,35.817314 57.836996,35.6614197 57.7458446,35.4539865 L53.8110029,25.5683249 L54.948691,25.5683249 L54.948691,25.5687509 Z" id="Logo"></path>
            </g>
        </g>
    </g>
</svg>