<?xml version="1.0" encoding="UTF-8"?>
<svg width="9px" height="11px" viewBox="0 0 9 11" version="1.1" xmlns="http://www.w3.org/2000/svg" xmlns:xlink="http://www.w3.org/1999/xlink">
    <!-- Generator: Sketch 47.1 (45422) - http://www.bohemiancoding.com/sketch -->
    <title>back</title>
    <desc>Created with Sketch.</desc>
    <defs></defs>
    <g id="DESIGN" stroke="none" stroke-width="1" fill="none" fill-rule="evenodd">
        <g id="Calendar" transform="translate(-1025.000000, -124.000000)" fill-rule="nonzero" fill="#D71921">
            <g id="Group-5" transform="translate(931.000000, 121.000000)">
                <g id="back" transform="translate(98.666667, 8.636364) scale(-1, 1) translate(-98.666667, -8.636364) translate(93.666667, 3.636364)">
                    <path d="M1.31936475,4.99973853 L5.71888075,0.492015437 C5.82708231,0.381152642 5.82708231,0.203353819 5.71888075,0.0924910241 C5.6106792,-0.0183717713 5.43714841,-0.0183717713 5.32894685,0.0924910241 L0.733443128,4.8010222 C0.625241574,4.911885 0.625241574,5.08968382 0.733443128,5.20054661 L5.32894685,9.90698604 C5.38202686,9.96137156 5.45348072,9.99065607 5.52289303,9.99065607 C5.59230535,9.99065607 5.66375921,9.96346331 5.71683921,9.90698604 C5.82504077,9.79612324 5.82504077,9.61832442 5.71683921,9.50746162 L1.31936475,4.99973853 Z" id="Shape"></path>
                    <path d="M4.82918745,4.99973853 L9.22870345,0.492015437 C9.336905,0.381152642 9.336905,0.203353819 9.22870345,0.0924910241 C9.1205019,-0.0183717713 8.9469711,-0.0183717713 8.83876955,0.0924910241 L4.24326582,4.8010222 C4.13506427,4.911885 4.13506427,5.08968382 4.24326582,5.20054661 L8.83876955,9.90698604 C8.89184956,9.96137156 8.96330341,9.99065607 9.03271573,9.99065607 C9.10212805,9.99065607 9.1735819,9.96346331 9.22666191,9.90698604 C9.33486346,9.79612324 9.33486346,9.61832442 9.22666191,9.50746162 L4.82918745,4.99973853 Z" id="Shape"></path>
                </g>
            </g>
        </g>
    </g>
</svg>