<?xml version="1.0" encoding="UTF-8"?>
<svg width="25px" height="35px" viewBox="0 0 25 35" version="1.1" xmlns="http://www.w3.org/2000/svg" xmlns:xlink="http://www.w3.org/1999/xlink">
    <!-- Generator: Sketch 49.3 (51167) - http://www.bohemiancoding.com/sketch -->
    <title>airport</title>
    <desc>Created with Sketch.</desc>
    <defs></defs>
    <g id="Page-1" stroke="none" stroke-width="1" fill="none" fill-rule="evenodd">
        <g id="ProfileHome1" transform="translate(-350.000000, -383.000000)" fill="#b0270d" fill-rule="nonzero">
            <g id="airport" transform="translate(350.000000, 383.000000)">
                <path d="M32.2891906,2.57355641 C32.1178039,2.23192555 31.7693176,2.01631434 31.3872932,2.01631434 L26.3465074,2.01631434 L26.3465074,1.00815717 C26.3465074,0.450915097 25.8955923,0 25.3383502,0 C24.7811081,0 24.330193,0.450915097 24.330193,1.00815717 L24.330193,2.01631434 L19.2894072,2.01631434 C18.9073828,2.01631434 18.5588965,2.23192555 18.387577,2.57355641 L16.6499173,6.11615349 L34.0268503,6.11615349 L32.2891906,2.57355641 Z" id="Shape"></path>
                <rect id="Rectangle-path" x="18.28125" y="26.2792969" width="2.01631434" height="2.01631434"></rect>
                <rect id="Rectangle-path" x="10.1487822" y="26.2792969" width="2.01631434" height="8.13246783"></rect>
                <rect id="Rectangle-path" x="6.04894301" y="26.2792969" width="2.08352482" height="8.13246783"></rect>
                <path d="M31.3872932,20.2303539 L30.2735484,20.2303539 L29.8255905,16.1977252 L20.8511098,16.1977252 L20.403152,20.2303539 L16.2649357,20.2303539 L16.2649357,17.2058824 C16.2649357,16.6486403 15.7468101,16.1977252 15.189568,16.1977252 L3.02447151,16.1977252 C2.46722943,16.1977252 2.01631434,16.6486403 2.01631434,17.2058824 L2.01631434,20.4026143 C0.842752183,20.8191176 0,21.9404573 0,23.2548254 L0,33.4036075 C0,33.9608496 0.450915097,34.4117647 1.00815717,34.4117647 L4.03262868,34.4117647 L4.03262868,25.2711397 C4.03262868,24.7138976 4.48354377,24.2629825 5.04078585,24.2629825 L13.1732537,24.2629825 C13.7304957,24.2629825 14.1814108,24.7138976 14.1814108,25.2711397 L14.1814108,34.4117647 L33.4036075,34.4117647 C33.9608496,34.4117647 34.4117647,33.9608496 34.4117647,33.4036075 L34.4117647,23.2548254 C34.4117647,21.5870646 33.055054,20.2303539 31.3872932,20.2303539 Z M11.1569393,22.2466682 L7.05710018,22.2466682 C6.49985811,22.2466682 6.04894301,21.7957531 6.04894301,21.238511 C6.04894301,20.681269 6.49985811,20.2303539 7.05710018,20.2303539 L11.1569393,20.2303539 C11.7141814,20.2303539 12.1650965,20.681269 12.1650965,21.238511 C12.1650965,21.7957531 11.7141814,22.2466682 11.1569393,22.2466682 Z M22.3138787,29.3037684 C22.3138787,29.8610105 21.8629636,30.3119256 21.3057215,30.3119256 L17.2730928,30.3119256 C16.7158508,30.3119256 16.2649357,29.8610105 16.2649357,29.3037684 L16.2649357,25.2711397 C16.2649357,24.7138976 16.7158508,24.2629825 17.2730928,24.2629825 L21.3057215,24.2629825 C21.8629636,24.2629825 22.3138787,24.7138976 22.3138787,25.2711397 L22.3138787,29.3037684 Z M30.379136,29.3037684 C30.379136,29.8610105 29.9282209,30.3119256 29.3709789,30.3119256 L25.3383502,30.3119256 C24.7811081,30.3119256 24.330193,29.8610105 24.330193,29.3037684 L24.330193,25.2711397 C24.330193,24.7138976 24.7811081,24.2629825 25.3383502,24.2629825 L29.3709789,24.2629825 C29.9282209,24.2629825 30.379136,24.7138976 30.379136,25.2711397 L30.379136,29.3037684 Z" id="Shape"></path>
                <rect id="Rectangle-path" x="24.330193" y="8.13246783" width="2.01631434" height="6.04894301"></rect>
                <path d="M16.5467492,8.13246783 L18.3334053,13.4922346 C18.4703131,13.9037644 18.8552275,14.1814108 19.2894072,14.1814108 L22.3138787,14.1814108 L22.3138787,8.13246783 L16.5467492,8.13246783 Z" id="Shape"></path>
            </g>
        </g>
    </g>
</svg>