<?xml version="1.0" encoding="UTF-8"?>
<svg width="220px" height="216px" viewBox="0 0 220 216" version="1.1" xmlns="http://www.w3.org/2000/svg" xmlns:xlink="http://www.w3.org/1999/xlink">
    <!-- Generator: Sketch 49.2 (51160) - http://www.bohemiancoding.com/sketch -->
    <title>Group 12</title>
    <desc>Created with Sketch.</desc>
    <defs>
        <linearGradient x1="34.4508456%" y1="-7.75322571%" x2="95.9881533%" y2="96.9104117%" id="linearGradient-1">
            <stop stop-color="#FFFFFF" offset="0%"></stop>
            <stop stop-color="#EEEEEE" offset="100%"></stop>
        </linearGradient>
        <rect id="path-2" x="0" y="0" width="220" height="216" rx="16"></rect>
    </defs>
    <g id="Page-1" stroke="none" stroke-width="1" fill="none" fill-rule="evenodd">
        <g id="Group-12">
            <g id="Group-9">
                <g id="Rectangle-Copy">
                    <use fill="url(#linearGradient-1)" fill-rule="evenodd" xlink:href="#path-2"></use>
                    <rect stroke="#F6F6F6" stroke-width="2" x="1" y="1" width="218" height="214" rx="16"></rect>
                </g>
                <text id="Basket-Ball" font-family="HelveticaNeue, Helvetica Neue" font-size="14" font-weight="normal" line-spacing="33" letter-spacing="0.466666728" fill="#333333">
                    <tspan x="62.541333" y="189">BASKET BALL</tspan>
                </text>
            </g>
            <g id="basketball" transform="translate(35.000000, 17.000000)" fill-rule="nonzero">
                <path d="M149.925721,80.2709135 C149.925721,38.9177885 116.403245,5.39459135 75.0504808,5.39459135 C33.696274,5.39459135 0.173798077,38.9177885 0.173798077,80.2709135 C0.173798077,121.623678 33.696274,155.146875 75.0504808,155.146875 C116.403245,155.147236 149.925721,121.623678 149.925721,80.2709135 Z" id="Shape" fill="#F2AA99"></path>
                <path d="M149.925721,80.2709135 C149.925721,38.9177885 116.403245,5.39459135 75.0504808,5.39459135 C33.696274,5.39459135 0.173798077,38.9177885 0.173798077,80.2709135 C0.173798077,121.623678 33.696274,155.146875 75.0504808,155.146875 C116.403245,155.147236 149.925721,121.623678 149.925721,80.2709135 Z" id="Shape" fill="#D1BD81" opacity="0.7"></path>
                <g id="Group" transform="translate(51.201923, 0.000000)">
                    <path d="M79.5987981,18.3692308 C65.6264423,-1.28653846 38.3653846,-5.89326923 18.7092548,8.08088942 C-0.945793269,22.0532452 -5.55396635,49.3146635 8.42127404,68.9700721 C22.3929087,88.6251202 49.6554087,93.2322115 69.3108173,79.2584135 C88.966226,65.2860577 93.5725962,38.0246394 79.5987981,18.3692308 Z" id="Shape" fill="#EA7053"></path>
                    <path d="M27.8141827,20.8860577 C42.6987981,10.3045673 59.2417067,6.23870192 70.8194712,9.19903846 C68.6195913,7.4859375 66.278726,6.00829327 63.8361779,4.76574519 C52.2746394,4.48990385 38.3826923,8.95132212 25.7253606,17.9484375 C13.0694712,26.946274 4.29086538,38.6015625 0.752524038,49.6114183 C1.12319712,52.3265625 1.75024038,55.0222356 2.64375,57.6627404 C3.65336538,45.7554087 12.928125,31.4679087 27.8141827,20.8860577 Z" id="Shape" fill="#2B1F15"></path>
                    <path d="M8.409375,68.9542067 C8.76310096,69.452524 9.13161058,69.9346154 9.50084135,70.413101 L80.60625,19.8645433 C80.2828125,19.3676683 79.956851,18.8715144 79.6110577,18.3847356 C79.25625,17.8864183 78.888101,17.4043269 78.518149,16.9262019 L7.41274038,67.4747596 C7.73689904,67.9709135 8.06286058,68.4670673 8.409375,68.9542067 Z" id="Shape" fill="#2B1F15"></path>
                    <path d="M60.2069712,66.452524 C45.3209135,77.0336538 28.7776442,81.0991587 17.2020433,78.140625 C19.4019231,79.8526442 21.7413462,81.330649 24.1846154,82.5728365 C35.7465144,82.8490385 49.6377404,78.3876202 62.2939904,69.3901442 C74.9513221,60.3923077 83.7299279,48.7370192 87.2668269,37.7278846 C86.8965144,35.0120192 86.2701923,32.3167067 85.3763221,29.6758413 C84.365625,41.5835337 75.0894231,55.8721154 60.2069712,66.452524 Z" id="Shape" fill="#2B1F15"></path>
                </g>
                <path d="M137.201683,31.6763221 C137.196995,31.6615385 137.192308,31.6467548 137.187981,31.6316106 C137.001202,30.9796875 136.8,30.3310096 136.58113,29.6848558 C136.580409,29.6823317 136.579687,29.6790865 136.578245,29.6762019 L136.578245,29.6772837 C135.429808,26.2860577 133.84399,22.990024 131.808173,19.8649038 C131.484736,19.3680288 131.158774,18.871875 130.812981,18.3850962 C130.458173,17.8867788 130.090024,17.4046875 129.720072,16.9265625 L129.719351,16.9269231 C127.002404,13.4159856 123.846274,10.4296875 120.382572,7.98605769 C120.366346,7.97451923 120.350841,7.96262019 120.334615,7.95144231 C119.78113,7.56201923 119.219712,7.18810096 118.651442,6.82680288 C118.638101,6.81814904 118.624399,6.80877404 118.609976,6.80012019 C118.037019,6.43665865 117.455409,6.08798077 116.868029,5.75300481 C116.859736,5.74795673 116.851082,5.74290865 116.842788,5.73822115 C116.552524,5.57307692 116.25613,5.42199519 115.963341,5.2640625 C118.397236,7.27860577 120.646154,9.58449519 122.654207,12.1792067 L122.654928,12.1788462 C123.02488,12.6569712 123.393029,13.1387019 123.748197,13.6373798 C124.09363,14.1241587 124.419952,14.6203125 124.743389,15.1171875 C126.778846,18.2423077 128.365024,21.5387019 129.513101,24.9295673 L129.513101,24.9284856 C129.514543,24.9313702 129.515264,24.9346154 129.515986,24.9371394 C129.734856,25.5829327 129.935697,26.2319712 130.122837,26.8838942 C130.126803,26.8990385 130.13149,26.9134615 130.136178,26.9286058 C135.075721,44.2240385 128.942308,63.4957933 113.447596,74.5106971 C99.7409856,84.2552885 82.3399038,84.9540865 68.3217548,77.8254808 L68.3210337,77.8254808 C68.3174279,77.8236779 68.3149038,77.8215144 68.3116587,77.8204327 C68.0289663,77.6765625 67.7520433,77.5186298 67.4725962,77.3686298 C67.783774,77.6253606 68.0862981,77.894351 68.4036058,78.1413462 C68.4050481,78.1424279 68.4064904,78.1435096 68.4075721,78.1449519 C68.9426683,78.5614183 69.4871394,78.9623798 70.038101,79.3514423 C70.0557692,79.3637019 70.0730769,79.3770433 70.0907452,79.3896635 C70.6438702,79.7780048 71.2049279,80.1522837 71.772476,80.5128606 C71.7861779,80.5215144 71.8002404,80.53125 71.8139423,80.5399038 C72.3894231,80.9044471 72.9710337,81.2538462 73.5605769,81.5899038 C73.5667067,81.593149 73.5728365,81.5971154 73.5786058,81.6003606 C74.1713942,81.9378606 74.7710337,82.2602163 75.3764423,82.5685096 C75.3800481,82.5699519 75.3825721,82.5721154 75.3858173,82.5735577 L75.3865385,82.5735577 C89.4050481,89.7021635 106.80613,89.0033654 120.51238,79.258774 C136.007812,68.2435096 142.140865,48.9713942 137.201683,31.6763221 Z" id="Shape" fill="#921D0F" opacity="0.46"></path>
                <path d="M87.8513221,144.434856 C89.8518029,141.363101 91.3997596,138.387981 92.5254808,135.508413 L125.595433,135.508413 C129.461538,131.96899 132.955529,128.030048 136.009976,123.755409 L94.6701923,123.755409 C94.5324519,121.044231 93.9194712,118.45024 92.8114183,115.984976 C88.2919471,105.926683 76.1134615,99.3418269 56.6149038,96.415024 C50.5161058,95.4995192 44.2802885,95.0354567 38.0808894,95.0354567 C28.9640625,95.0354567 16.2288462,96.0854567 2.92608173,100.444471 C4.05540865,104.490505 5.51754808,108.397716 7.27860577,112.136538 C18.9021635,108.384014 30.0742788,107.480048 38.0808894,107.480048 C43.6644231,107.480048 49.2786058,107.897596 54.7676683,108.721514 C69.384375,110.915264 78.8635817,115.30637 81.4600962,121.084976 C81.831851,121.912139 82.0644231,122.804567 82.1729567,123.755048 L14.0891827,123.755048 C17.1439904,128.029687 20.6376202,131.96863 24.5033654,135.508053 L78.7323317,135.508053 C78.328125,136.20613 77.8965144,136.915745 77.4227163,137.643389 C73.0247596,144.397716 67.0698317,149.632212 60.1954327,153.670312 C64.9972356,154.636659 69.9634615,155.146514 75.0501202,155.146514 C76.3701923,155.146514 77.6816106,155.111538 78.9850962,155.04375 C82.2804087,151.909615 85.2706731,148.397236 87.8513221,144.434856 Z" id="Shape" fill="#FFFFFF"></path>
                <ellipse id="Oval" fill="#8B572A" opacity="0.31" cx="86.9877404" cy="110.672957" rx="35.0336538" ry="8.1046875"></ellipse>
            </g>
        </g>
    </g>
</svg>