<?xml version="1.0" encoding="UTF-8"?>
<svg width="28px" height="24px" viewBox="0 0 28 24" version="1.1" xmlns="http://www.w3.org/2000/svg" xmlns:xlink="http://www.w3.org/1999/xlink">
    <!-- Generator: Sketch 47.1 (45422) - http://www.bohemiancoding.com/sketch -->
    <title>Group 11</title>
    <desc>Created with Sketch.</desc>
    <defs></defs>
    <g id="Page-1" stroke="none" stroke-width="1" fill="none" fill-rule="evenodd">
        <g id="Group-11" fill-rule="nonzero" fill="#000000">
            <path d="M5.49997424,3 C4.12154155,3 3,4.12150159 3,5.5 C3,6.87854994 4.12149003,8 5.49997424,8 C6.87850997,8 8,6.87849841 8,5.5 C8,4.12150159 6.87850997,3 5.49997424,3 Z M5.50002576,7.22452702 C4.54912669,7.22452702 3.77546499,6.45096039 3.77546499,5.5 C3.77546499,4.54903961 4.54907517,3.77547298 5.50002576,3.77547298 C6.45097635,3.77547298 7.22458653,4.54909113 7.22458653,5.5 C7.22458653,6.45090887 6.45092483,7.22452702 5.50002576,7.22452702 Z" id="Shape"></path>
            <path d="M5.5,0 C5.22378738,0 5,0.223201272 5,0.498542467 L5,1.50145753 C5,1.77679873 5.22378738,2 5.5,2 C5.77621262,2 6,1.77679873 6,1.50145753 L6,0.498542467 C6,0.223201272 5.77621262,0 5.5,0 Z" id="Shape"></path>
            <path d="M8.82883932,2.171149 C8.60054743,1.94298916 8.2306214,1.9429115 8.00232951,2.171149 L7.17116068,3.00240255 C6.94294644,3.23064005 6.94294644,3.60068145 7.17116068,3.82884129 C7.28530662,3.94299887 7.43478345,4 7.58441558,4 C7.73389242,4 7.88352455,3.94299887 7.99767049,3.82891895 L8.82883932,2.9976654 C9.05705356,2.7694279 9.05705356,2.3993865 8.82883932,2.171149 Z" id="Shape"></path>
            <path d="M10.501441,5 L9.49855898,5 C9.22314241,5 9,5.22385382 9,5.5 C9,5.77614618 9.22314241,6 9.49855898,6 L10.501441,6 C10.7768576,6 11,5.77614618 11,5.5 C11,5.22385382 10.7768576,5 10.501441,5 Z" id="Shape"></path>
            <path d="M8.82883932,8.00233942 L7.99767049,7.17117563 C7.76930095,6.94294146 7.39937492,6.94294146 7.17116068,7.17117563 C6.94294644,7.39940981 6.94294644,7.76944582 7.17116068,7.99760234 L8.00232951,8.82884378 C8.11647545,8.94292204 8.26602993,9 8.41558442,9 C8.5651389,9 8.71469338,8.9429997 8.82883932,8.82884378 C9.05705356,8.60060961 9.05705356,8.23057359 8.82883932,8.00233942 Z" id="Shape"></path>
            <path d="M5.5,9 C5.22378738,9 5,9.22320127 5,9.49854247 L5,10.5014575 C5,10.7767987 5.22378738,11 5.5,11 C5.77621262,11 6,10.7767987 6,10.5014575 L6,9.49854247 C6,9.22320127 5.77621262,9 5.5,9 Z" id="Shape"></path>
            <path d="M3.82889175,7.17117563 C3.60066976,6.94294146 3.23073115,6.94294146 3.00243151,7.17117563 L2.17123444,8.00233942 C1.9429348,8.23057359 1.9429348,8.60060961 2.17115679,8.82884378 C2.28530661,8.94292204 2.43478852,9 2.58442573,9 C2.73390764,9 2.88354486,8.9429997 2.99769468,8.82884378 L3.82889175,7.99760234 C4.05703608,7.76936816 4.05703608,7.39933215 3.82889175,7.17117563 Z" id="Shape"></path>
            <path d="M1.50144102,5 L0.498558982,5 C0.223142412,5 0,5.22385382 0,5.5 C0,5.77614618 0.223142412,6 0.498558982,6 L1.50144102,6 C1.77685759,6 2,5.77614618 2,5.5 C2,5.22385382 1.77685759,5 1.50144102,5 Z" id="Shape"></path>
            <path d="M3.82889258,3.00241708 L2.99762189,2.17117563 C2.76932335,1.94294146 2.39938654,1.94294146 2.17116566,2.17117563 C1.94294478,2.39940981 1.94294478,2.76944582 2.17116566,2.99767999 L3.0023587,3.82892144 C3.11650796,3.9429997 3.2660668,4 3.41562564,4 C3.56510682,4 3.71474331,3.9429997 3.82889258,3.82884378 C4.05703581,3.60060961 4.05703581,3.23057359 3.82889258,3.00241708 Z" id="Shape"></path>
            <path d="M27.8001357,22.7039611 C27.0803608,22.2368557 26.245782,22.0253036 25.4217397,22.0679396 C24.661081,21.0654167 23.2261958,20.2059764 21.2492845,19.5725278 C20.022166,19.1793527 18.652695,18.8955505 17.1966271,18.7270544 L20.155354,11.6243327 C20.6017834,11.9328134 20.9914145,12.2992097 21.3098694,12.7137027 C21.4151246,12.8507469 21.5775075,12.9283002 21.7566281,12.8865569 C22.7338338,12.7170106 23.7700879,12.8256483 24.7544827,13.2010234 C25.7462859,13.5792338 26.5814135,14.1885291 27.169537,14.9630125 C27.2483961,15.0668196 27.3733525,15.1258378 27.503577,15.1258378 C27.5366134,15.1258378 27.569979,15.1220573 27.6030153,15.1141812 C27.7662213,15.0754833 27.8885984,14.9458951 27.9124153,14.7866403 C27.9280006,14.6820982 28.2855283,12.1948776 27.4337178,9.48523576 C27.3680842,9.27625651 27.1372689,9.15785244 26.9193499,9.22065123 C26.700937,9.28350253 26.5771331,9.50387587 26.6428765,9.71280262 C27.1400677,11.294534 27.1943417,12.8239156 27.1638297,13.7568662 C26.5744441,13.2111048 25.8610899,12.7722484 25.0602608,12.4668656 C24.1498411,12.119687 23.1973302,11.9720889 22.270118,12.0310546 C22.2771423,12.0106293 22.2835081,11.9906765 22.2904227,11.9703561 C22.6131031,11.0271141 22.8537414,10.0550455 22.9721125,9.0682749 C23.080386,8.165306 23.0904835,7.25320083 22.9716734,6.3507045 C22.9028569,5.82804634 22.7857481,5.31111148 22.6177128,4.80935125 C22.6165055,4.80572824 22.6152982,4.8018427 22.614036,4.79821969 C24.0958415,5.56634971 25.2348814,6.69819814 26.0079973,8.17360217 C26.1101794,8.36866697 26.358336,8.4474805 26.5622064,8.34971182 C26.7660767,8.25194313 26.848448,8.0145049 26.7462659,7.81938758 C25.7214812,5.86369883 24.113567,4.45697442 21.9658216,3.63780726 C19.011869,2.5114721 15.9374053,2.88196396 13.0753179,4.70927224 C10.9388224,6.07325567 9.68777727,7.74624485 9.63553378,7.81676222 C9.53834551,7.94803059 9.53411994,8.12256502 9.62472289,8.25803398 C9.71532584,8.39350295 9.88248307,8.46297017 10.0480488,8.43351355 C11.0318399,8.25850655 12.0760513,8.36588408 13.0677996,8.74409452 C14.04517,9.1168442 14.8704746,9.71395778 15.4572261,10.472479 C15.5713715,10.6200246 15.7378702,10.7107573 15.9332894,10.6552045 C16.4577548,10.5662571 16.9989031,10.5574358 17.5397769,10.6266405 L14.2403697,18.5476368 C14.1571204,18.5469542 14.0741454,18.5455365 13.9906217,18.5455365 C12.0872463,18.5455365 10.2682179,18.7269494 8.58407858,19.0847345 C8.36144008,19.1320436 8.22100825,19.3430706 8.27050786,19.5561455 C8.3199526,19.7691678 8.54012161,19.9035866 8.76314425,19.856225 C10.3656805,19.5157673 12.1733493,19.3358246 13.9906217,19.3358246 C14.8519808,19.3358246 15.7138887,19.3749951 16.5710771,19.4564865 C16.5741503,19.456749 16.5771685,19.4566965 16.5802966,19.4569066 C18.1743268,19.6081277 19.6682602,19.899176 20.9869146,20.3217551 C22.561134,20.8261932 23.7765086,21.4909363 24.4898079,22.2276669 C24.1299205,22.3346244 23.7818317,22.4931966 23.4571209,22.7038561 C22.4196595,23.3770528 21.0789443,23.3770528 20.0414281,22.7038561 C18.722225,21.8478287 17.0175066,21.8478813 15.6984681,22.7038561 C14.6610067,23.3770528 13.3202916,23.3770528 12.2827753,22.7038561 C10.9636271,21.8478287 9.25890867,21.8478813 7.93981532,22.7038561 C6.90235392,23.3770528 5.56163879,23.3770528 4.52412251,22.7038561 C4.19946651,22.4931966 3.85137777,22.3345719 3.49149033,22.2276669 C4.20385672,21.4919864 5.41703626,20.8279785 6.98812764,20.3238029 C7.20434546,20.2544407 7.32085065,20.0304444 7.24835731,19.8235129 C7.17586398,19.6166339 6.94186581,19.5051083 6.72553823,19.574523 C4.75208414,20.2077617 3.31939412,21.0665194 2.55961347,22.0678345 C1.73551625,22.0251986 0.900992288,22.2368557 0.181217426,22.7038561 C-0.00756158614,22.8263557 -0.0567868112,23.0720376 0.071242676,23.2526629 C0.199217286,23.4332882 0.455825036,23.4804398 0.644823559,23.3579401 C1.25780657,22.960197 1.97670339,22.7975817 2.67633817,22.8698843 C2.70147212,22.8750825 2.72682558,22.8783905 2.75228879,22.8789681 C3.21040717,22.9375663 3.6583183,23.0969261 4.06062613,23.3579926 C5.3796646,24.2139149 7.08432811,24.21402 8.40353121,23.3579926 C9.44110237,22.6847434 10.7818724,22.6847959 11.8192789,23.3579926 C13.1383723,24.2139149 14.8430358,24.21402 16.162184,23.3579926 C17.1997003,22.6847434 18.5404703,22.6847959 19.5779317,23.3579926 C20.2375058,23.78598 20.993445,24 21.7494391,24 C22.5053783,24 23.2613175,23.78598 23.9209465,23.3579926 C24.3223214,23.0975562 24.769135,22.9383014 25.2262107,22.8793881 C25.2532654,22.8789156 25.2802103,22.8753976 25.3069906,22.8697268 C26.0060766,22.7978967 26.72426,22.960512 27.3366942,23.3579401 C27.5254732,23.4804398 27.7823005,23.4333407 27.9102751,23.2526629 C28.0380851,23.0721951 27.9888598,22.8264607 27.8001357,22.7039611 Z M16.4936448,9.79886216 C16.498035,9.78993592 16.5025899,9.78111468 16.5070349,9.77218843 C16.8917271,9.00169558 17.3404614,8.25693133 17.863939,7.56477944 C17.9919136,7.39560076 17.9552553,7.14025752 17.7715251,7.01303221 C17.5918009,6.88853729 17.3246017,6.92986057 17.1948162,7.1015071 C16.7745085,7.65719238 16.4010663,8.24532721 16.0659286,8.85152456 C15.9448686,9.07058522 15.8218879,9.29227125 15.7180594,9.51947056 C15.7162484,9.52314607 15.7143277,9.52682159 15.7125168,9.5304971 C15.0816436,8.87725316 14.2843267,8.3574829 13.3736326,8.01030431 C12.572584,7.70481655 11.7388832,7.55396293 10.9186823,7.56215408 C11.4700377,6.96887353 12.375738,6.1028173 13.5547288,5.35353742 C14.7237318,4.61055842 15.9303809,4.12554803 17.1409812,3.91200064 C18.3122343,3.70543672 19.4940787,3.75390101 20.6668134,4.0553457 C20.6620939,4.05781355 20.6570452,4.06054393 20.6523257,4.06301178 C20.0178856,4.39617091 19.4296523,4.80725095 18.8955834,5.27398879 C18.6872679,5.45603177 18.4840561,5.64316796 18.2893503,5.8384428 C18.1319613,5.9963849 18.1381624,6.24652992 18.3032343,6.397121 C18.4683062,6.54771208 18.7296883,6.54177875 18.8871322,6.38383664 C19.4164817,5.85256727 20.0142088,5.36671677 20.6667037,4.97390928 C20.967433,4.79281143 21.281333,4.62919853 21.609117,4.49730007 C21.69522,4.68417373 21.8072252,4.96083495 21.9124256,5.32318817 C22.4103851,7.03960093 22.2758252,8.8918502 21.8393286,10.6058476 C21.745433,10.9744492 21.63694,11.3398479 21.5139044,11.7004683 C21.5126422,11.7041964 21.5112702,11.7080294 21.510008,11.7118099 C20.9480612,11.1429453 20.2579751,10.6784653 19.4766825,10.344151 C19.4659813,10.3395829 19.4552802,10.3350147 19.4445791,10.3304991 C18.5205497,9.94026446 17.5036674,9.7455147 16.4936448,9.79886216 Z M16.3427862,18.6419925 C16.1513182,18.6261353 15.9585331,18.6125884 15.7646505,18.6006167 C15.5503534,18.5865447 15.3356722,18.5762008 15.1210458,18.5678521 L18.3599229,10.7926163 C18.5559458,10.8463313 18.7488955,10.9102327 18.9378391,10.9833755 C18.9685157,10.9952946 19.4417254,11.2026987 19.4408474,11.204799 L16.3427862,18.6419925 Z" id="Shape"></path>
        </g>
    </g>
</svg>