<?xml version="1.0" encoding="UTF-8"?>
<svg width="18px" height="18px" viewBox="0 0 18 18" version="1.1" xmlns="http://www.w3.org/2000/svg" xmlns:xlink="http://www.w3.org/1999/xlink">
    <!-- Generator: Sketch 50 (54983) - http://www.bohemiancoding.com/sketch -->
    <title>flight (1)</title>
    <desc>Created with Sketch.</desc>
    <defs></defs>
    <g id="Page-1" stroke="none" stroke-width="1" fill="none" fill-rule="evenodd">
        <g id="Anonymous_FlightDetailsCollapse" transform="translate(-34.000000, -376.000000)" fill="#666666" fill-rule="nonzero">
            <g id="flight-(1)" transform="translate(34.000000, 376.000000)">
                <path d="M16.1403509,9.75666667 L16.1403509,8.67157895 C16.1403509,8.54217544 16.0691579,8.42329825 15.9550877,8.36224561 L9.83385965,5.0854386 L9.90333333,1.84080702 C9.91357895,1.36140351 9.73122807,0.905298246 9.38982456,0.556526316 C9.04357895,0.202842105 8.5625614,-8.2972637e-16 8.07,3.50877193e-05 C7.57757895,3.50877193e-05 7.09659649,0.202877193 6.75042105,0.556526316 C6.40901754,0.905263158 6.22666667,1.36136842 6.23691228,1.84080702 L6.28315789,3.99957895 L6.31452632,5.0954386 L0.185824561,8.36189474 C0.0714736842,8.42291228 0,8.54192982 0,8.67161404 L0,10.6081404 C0,10.7160351 0.0496491228,10.8179298 0.134596491,10.8844211 C0.219508772,10.9509123 0.330315789,10.9746667 0.435087719,10.9487719 L4.62273684,9.91322807 L4.62273684,10.3002807 C4.62273684,10.4940351 4.77982456,10.6511579 4.97361404,10.6511579 C5.16740351,10.6511579 5.32449123,10.4940351 5.32449123,10.3002807 L5.32449123,9.73964912 L6.40175439,9.47326316 L6.47954386,12.6577193 L5.05122807,13.8943509 C4.97424561,13.9609825 4.93003509,14.0577895 4.93003509,14.1596491 L4.93003509,15.7895088 C4.93003509,15.9029123 4.98484211,16.0093333 5.07715789,16.075193 C5.13740351,16.1181754 5.20880702,16.140386 5.28094737,16.140386 C5.31933333,16.140386 5.35792982,16.1340702 5.39519298,16.1212632 L8.07014035,15.1997544 L9.44880702,15.6747018 C10.2372982,17.0423158 11.7147018,17.9649123 13.4035789,17.9649123 C15.9187368,17.9649123 17.9649825,15.9187018 17.9649825,13.4035088 C17.9649825,11.914386 17.247614,10.5897193 16.1403509,9.75666667 Z M5.32449123,9.01680702 L5.32449123,8.86049123 C5.32449123,8.66670175 5.16740351,8.50961404 4.97361404,8.50961404 C4.77982456,8.50961404 4.62273684,8.66673684 4.62273684,8.86049123 L4.62273684,9.19031579 L0.701754386,10.1598947 L0.701754386,8.88217544 L6.33150877,5.88161404 L6.38575439,8.75431579 L5.32449123,9.01680702 Z M9.1277193,5.28554386 L9.04775439,9.01894737 L9.04775439,9.01905263 L8.96659649,12.3425614 C8.96505263,12.3490175 8.96378947,12.3554737 8.9622807,12.3619298 C8.95666667,12.3859298 8.9514386,12.4100702 8.94617544,12.4342105 C8.94287719,12.4494035 8.93936842,12.4645263 8.93621053,12.4797895 C8.92782456,12.5203509 8.92,12.5611579 8.91266667,12.6021404 C8.91182456,12.6070175 8.91108772,12.6118947 8.91024561,12.6167719 C8.90382456,12.6535439 8.89782456,12.6904561 8.89231579,12.7275088 C8.89077193,12.7378947 8.88940351,12.7483158 8.88792982,12.7587018 C8.8834386,12.7902807 8.87919298,12.8219649 8.87536842,12.8537544 C8.87389474,12.8659298 8.8725614,12.8780702 8.87119298,12.8902807 C8.86782456,12.9202807 8.86470175,12.9504211 8.86192982,12.9805965 C8.86073684,12.9936842 8.85954386,13.0067018 8.85842105,13.0197895 C8.85596491,13.0492982 8.85385965,13.0788772 8.85196491,13.1085263 C8.85112281,13.1218246 8.85017544,13.1351228 8.8494386,13.1484211 C8.84775439,13.1790526 8.84649123,13.2097895 8.84540351,13.2405614 C8.84498246,13.2524912 8.84438596,13.264386 8.84403509,13.2763158 C8.84287719,13.3185614 8.84217544,13.3609123 8.84217544,13.4034386 C8.84217544,13.4574386 8.84347368,13.5110877 8.84533333,13.5646667 C8.8457193,13.5751228 8.84607018,13.5855439 8.84652632,13.5959649 C8.86385965,14.010807 8.93677193,14.4115088 9.05814035,14.790807 C9.05891228,14.7934386 9.05961404,14.7961053 9.06042105,14.7986667 L8.18442105,14.4968772 C8.11038596,14.4713684 8.02992982,14.4713684 7.95585965,14.4968772 L5.63178947,15.2975088 L5.63178947,14.3199649 L7.06403509,13.0799298 C7.14329825,13.0112982 7.18768421,12.9108772 7.18515789,12.8060702 L7.09263158,9.01912281 L7.09263158,9.01908772 L7.02231579,5.29614035 C7.02231579,5.29547368 7.02221053,5.29487719 7.02217544,5.29424561 C7.02217544,5.29368421 7.02224561,5.29322807 7.02224561,5.29270175 L6.93852632,1.8257193 C6.93235088,1.5365614 7.04364912,1.26010526 7.25192982,1.04733333 C7.46694737,0.827684211 7.76512281,0.701684211 8.07021053,0.701684211 C8.37512281,0.701649123 8.67333333,0.827649123 8.88838596,1.04733333 C9.09666667,1.26010526 9.208,1.53652632 9.20182456,1.8257193 L9.1277193,5.28554386 Z M9.81701754,5.87231579 L15.4385965,8.8817193 L15.4385965,9.32031579 C15.0219298,9.11203509 14.5768772,8.97021053 14.1164561,8.898 C14.1080702,8.89666667 14.0997193,8.89526316 14.0913333,8.89396491 C14.0651228,8.89 14.038807,8.88642105 14.0124912,8.88294737 C13.9969123,8.88080702 13.9813684,8.87877193 13.9657544,8.87684211 C13.9428421,8.874 13.9198947,8.87140351 13.8969474,8.86891228 C13.8775088,8.86680702 13.858,8.86484211 13.8384912,8.86298246 C13.8179298,8.86105263 13.7973684,8.85915789 13.7767719,8.85750877 C13.7541053,8.85564912 13.7314035,8.85410526 13.7086316,8.8525614 C13.6904211,8.85140351 13.6722105,8.85010526 13.6539649,8.84908772 C13.627193,8.84764912 13.6003509,8.84659649 13.5734737,8.84561404 C13.5587719,8.84505263 13.5441053,8.84431579 13.5293684,8.84392982 C13.4875789,8.84280702 13.4456842,8.84210526 13.403614,8.84210526 L13.4035789,8.84210526 C12.7777895,8.84210526 12.172807,8.96631579 11.6034386,9.21147368 L11.5175088,9.19024561 L11.5175088,8.86042105 C11.5175088,8.66666667 11.3604211,8.50954386 11.1666316,8.50954386 C10.9728421,8.50954386 10.8157544,8.66666667 10.8157544,8.86042105 L10.8157544,9.01673684 L9.75529825,8.75445614 L9.81701754,5.87231579 Z M9.7385614,9.47326316 L10.7215439,9.71635088 C10.3326667,9.99996491 9.99021053,10.3434737 9.70778947,10.7332281 L9.7385614,9.47326316 Z M13.4035789,17.263193 C11.7461404,17.263193 10.3295088,16.2129825 9.78378947,14.743193 C9.78035088,14.7339298 9.77694737,14.7247018 9.77361404,14.7154386 C9.76659649,14.6960351 9.7597193,14.6765965 9.75301754,14.6570526 C9.74561404,14.6354386 9.73842105,14.6137544 9.73136842,14.592 C9.72817544,14.5821404 9.72491228,14.5723509 9.72178947,14.5624561 C9.64038596,14.3030526 9.5862807,14.0348421 9.56080702,13.763193 C9.56045614,13.7595439 9.56017544,13.7558596 9.55982456,13.7522105 C9.55684211,13.719614 9.55442105,13.6869825 9.5522807,13.6543158 C9.55175439,13.6462456 9.55122807,13.6382105 9.55077193,13.6301754 C9.54905263,13.6008772 9.54775439,13.5715439 9.54670175,13.5421754 C9.54638596,13.5331579 9.54592982,13.5241754 9.54568421,13.5151228 C9.54459649,13.4779298 9.54396491,13.4407719 9.54396491,13.4035439 C9.54396491,13.3668772 9.54459649,13.3302105 9.54561404,13.2935439 C9.54592982,13.2827719 9.54645614,13.2721053 9.54684211,13.2614035 C9.54778947,13.2351228 9.54891228,13.2089123 9.55042105,13.1827018 C9.55112281,13.1707368 9.55189474,13.158807 9.55270175,13.1468772 C9.55438596,13.1214035 9.55631579,13.096 9.55849123,13.0705614 C9.55947368,13.0590526 9.56049123,13.0475088 9.56157895,13.036 C9.56410526,13.0090877 9.56701754,12.9822807 9.57014035,12.9554737 C9.57126316,12.9457544 9.5722807,12.936 9.57347368,12.9263158 C9.57778947,12.8915088 9.58249123,12.8567719 9.58775439,12.8220702 C9.588,12.8205614 9.58817544,12.8190175 9.58842105,12.8174737 C9.59375439,12.7824912 9.5997193,12.747614 9.606,12.7127719 C9.60873684,12.6977193 9.61175439,12.6827719 9.61463158,12.6677544 C9.61831579,12.6487368 9.62207018,12.6297193 9.626,12.6107368 C9.63,12.5916842 9.63417544,12.5727018 9.63842105,12.5537544 C9.64150877,12.5399649 9.64473684,12.5262456 9.64796491,12.5124912 C10.0290877,10.9060351 11.4168772,9.68491228 13.1055789,9.55533333 C13.1096491,9.55501754 13.1137544,9.55480702 13.1178596,9.55452632 C13.1460702,9.55242105 13.1743509,9.55059649 13.2027719,9.54915789 C13.2150175,9.54852632 13.2272632,9.54821053 13.2395088,9.54768421 C13.2603509,9.54680702 13.2811579,9.54582456 13.3020702,9.54529825 C13.3355789,9.54445614 13.3691579,9.54396491 13.4028421,9.54396491 C13.4031228,9.54396491 13.4034035,9.54396491 13.4036491,9.54396491 C13.4471228,9.54396491 13.4904561,9.54494737 13.5337544,9.54638596 C13.5454386,9.54677193 13.5570877,9.54722807 13.5687368,9.5477193 C13.6070877,9.54933333 13.6453684,9.55140351 13.6835439,9.55417544 C13.6890175,9.55459649 13.6945263,9.55477193 13.6999649,9.55519298 C13.7404912,9.5582807 13.780807,9.56224561 13.8210877,9.56659649 C13.836386,9.56824561 13.8516491,9.57 13.8668772,9.57182456 C13.8955789,9.57526316 13.9241754,9.57908772 13.9527368,9.58315789 C13.9758947,9.58649123 13.9989825,9.58996491 14.022,9.59368421 C14.0478246,9.59782456 14.073614,9.60217544 14.0992982,9.60687719 C14.1215088,9.61091228 14.1436491,9.61519298 14.1657193,9.61961404 C14.1808772,9.62266667 14.1959298,9.62589474 14.2110526,9.62912281 C14.2607368,9.63975439 14.3101404,9.65115789 14.3590877,9.66364912 C14.362386,9.66449123 14.3656842,9.66529825 14.3689825,9.66610526 C16.0316491,10.0957895 17.2634035,11.6085263 17.2634035,13.4035789 C17.2632281,15.5317544 15.5317895,17.263193 13.4035789,17.263193 Z" id="Shape"></path>
                <path d="M13.8997193,13.4035789 L14.8650877,12.4381754 C15.0021404,12.3011579 15.0021404,12.0789825 14.8651228,11.9419649 C14.7280702,11.8049825 14.5059298,11.8049825 14.3688772,11.9419649 L13.4035088,12.9073333 L12.4381404,11.9419298 C12.3011228,11.8049123 12.0789825,11.8049474 11.9418947,11.9419298 C11.8048772,12.0789474 11.8048772,12.3011228 11.9418947,12.4381754 L12.9072632,13.4035789 L11.9418947,14.3689825 C11.8048772,14.506 11.8048772,14.7281754 11.9418947,14.8652281 C12.0104211,14.9337193 12.1002105,14.968 12.19,14.968 C12.2797895,14.968 12.369614,14.9337193 12.4381053,14.8652281 L13.4035088,13.8998246 L14.3688772,14.8652281 C14.4374035,14.9337544 14.527193,14.968 14.6169825,14.968 C14.7067719,14.968 14.7965965,14.9337193 14.8650877,14.8652281 C15.0021053,14.7282105 15.0021053,14.5060351 14.8650877,14.3689825 L13.8997193,13.4035789 Z" id="Shape"></path>
                <path d="M4.97368421,7.49319298 C4.77989474,7.49319298 4.62280702,7.65031579 4.62280702,7.84407018 L4.62280702,7.85235088 C4.62280702,8.04610526 4.77989474,8.20322807 4.97368421,8.20322807 C5.16747368,8.20322807 5.3245614,8.04610526 5.3245614,7.85235088 L5.3245614,7.84407018 C5.3245614,7.65031579 5.16747368,7.49319298 4.97368421,7.49319298 Z" id="Shape"></path>
                <path d="M11.1666667,7.49322807 C10.9728772,7.49322807 10.8157895,7.65035088 10.8157895,7.84410526 L10.8157895,7.85238596 C10.8157895,8.04614035 10.9728772,8.20326316 11.1666667,8.20326316 C11.3604561,8.20326316 11.5175439,8.04614035 11.5175439,7.85238596 L11.5175439,7.84410526 C11.5175439,7.65031579 11.3604561,7.49322807 11.1666667,7.49322807 Z" id="Shape"></path>
            </g>
        </g>
    </g>
</svg>