<?xml version="1.0" encoding="UTF-8"?>
<svg width="16px" height="16px" viewBox="0 0 16 16" version="1.1" xmlns="http://www.w3.org/2000/svg" xmlns:xlink="http://www.w3.org/1999/xlink">
    <!-- Generator: Sketch 50 (54983) - http://www.bohemiancoding.com/sketch -->
    <title>Modify booking</title>
    <desc>Created with Sketch.</desc>
    <defs></defs>
    <g id="Page-1" stroke="none" stroke-width="1" fill="none" fill-rule="evenodd">
        <g id="Anonymous_FlightDetailsCollapse" transform="translate(-34.000000, -468.000000)" fill="#666666" fill-rule="nonzero">
            <g id="Group-24" transform="translate(18.000000, -231.000000)">
                <g id="Group-17" transform="translate(0.000000, 401.000000)">
                    <g id="Group-41" transform="translate(1.000000, 67.000000)">
                        <g id="Group-51" transform="translate(0.000000, 6.000000)">
                            <g id="Modify-booking" transform="translate(15.000000, 225.000000)">
                                <path d="M0.0691891892,15.2821622 C0.0691891892,15.6404009 0.359599081,15.9308108 0.717837838,15.9308108 L13.9805405,15.9308108 C14.3387793,15.9308108 14.6291892,15.6404009 14.6291892,15.2821622 L14.6291892,8.64864865 L13.3318919,8.64864865 L13.3318919,14.6335135 L1.36648649,14.6335135 L1.36648649,2.66810811 L7.35135135,2.66810811 L7.35135135,1.37081081 L0.717837838,1.37081081 C0.359599081,1.37081081 0.0691891892,1.6612207 0.0691891892,2.01945946 L0.0691891892,15.2821622 Z" id="Shape"></path>
                                <path d="M5.44648649,10.5535135 C5.69973409,10.8064462 6.10999564,10.8064462 6.36324324,10.5535135 L15.7405405,1.17837838 C15.9786887,0.922802374 15.9716617,0.524532132 15.7246459,0.277516282 C15.47763,0.0305004316 15.0793598,0.023473418 14.8237838,0.261621622 L5.44648649,9.63675676 C5.19355384,9.89000436 5.19355384,10.3002659 5.44648649,10.5535135 Z" id="Shape"></path>
                            </g>
                        </g>
                    </g>
                </g>
            </g>
        </g>
    </g>
</svg>