<?xml version="1.0" encoding="UTF-8"?>
<svg width="52px" height="44px" viewBox="0 0 52 44" version="1.1" xmlns="http://www.w3.org/2000/svg" xmlns:xlink="http://www.w3.org/1999/xlink">
    <!-- Generator: Sketch 47.1 (45422) - http://www.bohemiancoding.com/sketch -->
    <title>speech-bubble</title>
    <desc>Created with Sketch.</desc>
    <defs></defs>
    <g id="DESIGN" stroke="none" stroke-width="1" fill="none" fill-rule="evenodd" opacity="0.2">
        <g id="Home1-Copy" transform="translate(-238.000000, -766.000000)" fill-rule="nonzero" fill="#000000">
            <g id="speech-bubble" transform="translate(238.000000, 766.000000)">
                <path d="M42,23.649635 L42,4.75094891 C42,2.13372263 39.8404255,0 37.1914894,0 L4.80851064,0 C2.15957447,0 0,2.13372263 0,4.75094891 L0,23.649635 C0,26.2668613 2.15957447,28.4005839 4.80851064,28.4005839 L6.18085106,28.4005839 L6.18085106,34.0975182 C6.18085106,35.1486131 7.04255319,36 8.11702128,36 L8.11702128,36 C8.67021277,36 9.20212766,35.7582482 9.57446809,35.3378102 L15.6489362,28.390073 L37.2021277,28.390073 C39.8404255,28.4005839 42,26.2668613 42,23.649635 Z M15.0425532,25.8254015 C14.6595745,25.8254015 14.3085106,25.9830657 14.0531915,26.2668613 L8.77659574,32.289635 L8.77659574,27.1077372 C8.77659574,26.3929927 8.19148936,25.8148905 7.46808511,25.8148905 L4.80851064,25.8148905 C3.59574468,25.8148905 2.60638298,24.8373723 2.60638298,23.6391241 L2.60638298,4.75094891 C2.60638298,3.55270073 3.59574468,2.57518248 4.80851064,2.57518248 L37.1914894,2.57518248 C38.4042553,2.57518248 39.393617,3.55270073 39.393617,4.75094891 L39.393617,23.649635 C39.393617,24.8478832 38.4042553,25.8254015 37.1914894,25.8254015 L15.0425532,25.8254015 L15.0425532,25.8254015 Z" id="Shape"></path>
                <path d="M42.4191829,43.3380035 C42.7921847,43.7688266 43.3250444,44 43.8685613,44 C44.0923623,44 44.3268206,43.9579685 44.5506217,43.8739054 C45.3179396,43.5901926 45.8081705,42.8966725 45.8081705,42.0875657 L45.8081705,36.3922942 L47.1829485,36.3922942 C49.8365897,36.3922942 52,34.2591944 52,31.642732 L52,12.7495622 C52,10.1330998 49.8365897,8 47.1829485,8 C46.4582593,8 45.8721137,8.57793345 45.8721137,9.28196147 C45.8721137,9.99649737 46.4582593,10.5744308 47.1829485,10.5744308 C48.3978686,10.5744308 49.3889876,11.5516637 49.3889876,12.7495622 L49.3889876,31.642732 C49.3889876,32.8406305 48.3978686,33.8178634 47.1829485,33.8178634 L44.5079929,33.8178634 C43.7833037,33.8178634 43.1971581,34.3957968 43.1971581,35.1103327 L43.1971581,40.290718 L37.9111901,34.2697023 C37.6660746,33.9859895 37.30373,33.8283713 36.920071,33.8283713 L17.3108348,33.8283713 C16.5861456,33.8283713 16,34.4063047 16,35.1208406 C16,35.8353765 16.5861456,36.41331 17.3108348,36.41331 L36.3232682,36.41331 L42.4191829,43.3380035 Z" id="Shape"></path>
                <circle id="Oval" cx="20.5" cy="14.5" r="1.5"></circle>
                <circle id="Oval" cx="26.5" cy="14.5" r="1.5"></circle>
                <circle id="Oval" cx="15.5" cy="14.5" r="1.5"></circle>
            </g>
        </g>
    </g>
</svg>