<?xml version="1.0" encoding="UTF-8"?>
<svg width="36px" height="30px" viewBox="0 0 36 30" version="1.1" xmlns="http://www.w3.org/2000/svg" xmlns:xlink="http://www.w3.org/1999/xlink">
    <!-- Generator: Sketch 49.3 (51167) - http://www.bohemiancoding.com/sketch -->
    <title>car-compact</title>
    <desc>Created with Sketch.</desc>
    <defs></defs>
    <g id="Page-1" stroke="none" stroke-width="1" fill="none" fill-rule="evenodd">
        <g id="ProfileHome1" transform="translate(-87.000000, -537.000000)" fill="#FFFFFF" fill-rule="nonzero">
            <g id="Group-9" transform="translate(30.000000, 493.000000)">
                <g id="Group-6">
                    <g id="car-compact" transform="translate(57.000000, 44.000000)">
                        <path d="M35.9709911,16.585875 C35.9709911,15.8783304 35.8112411,15.2025268 35.5227589,14.5842589 C35.4930268,14.4270804 35.4590357,14.2701429 35.4165268,14.1109554 L32.2919196,6.36733929 L32.2707857,6.29766964 C31.1775268,3.04248214 29.6219732,0.0297321429 25.6775625,0.0297321429 L10.5965357,0.0297321429 C6.55489286,0.0297321429 5.12670536,3.11713393 4.0095,6.27958929 L0.741133929,14.0420893 C0.268633929,14.7991339 0,15.6651429 0,16.585875 L0,18.9954643 C0,19.368 0.0440357143,19.7324196 0.127767857,20.0834196 C0.0463660714,20.2954821 0,20.5240179 0,20.7649286 L0,27.9315804 C0,28.9824911 0.851946429,29.8345982 1.90285714,29.8345982 L5.85160714,29.8345982 C6.90195536,29.8345982 7.75390179,28.9824911 7.75390179,27.9315804 L7.75390179,24.3477321 L28.4426518,24.3477321 L28.4426518,27.9315804 C28.4426518,28.9824911 29.2947589,29.8345982 30.34575,29.8345982 L34.068375,29.8345982 C35.1196875,29.8345982 35.9714732,28.9824911 35.9714732,27.9315804 L35.9714732,20.764125 C35.9714732,20.5240982 35.924625,20.2945179 35.8438661,20.0831786 C35.9272768,19.7316161 35.9714732,19.3675982 35.9714732,18.9951429 L35.9714732,16.5859554 L35.9709911,16.5859554 L35.9709911,16.585875 Z M6.32844643,7.05704464 C7.57261607,3.54680357 8.57314286,2.47524107 10.5965357,2.47524107 L25.6766786,2.47524107 C27.6852054,2.47524107 28.8036161,3.67039286 29.9401071,7.0419375 L32.2202411,11.6626339 C31.4757321,11.3869286 30.6564107,11.2339286 29.795625,11.2339286 L6.17536607,11.2339286 C5.40032143,11.2339286 4.65966964,11.3585625 3.9763125,11.584125 L6.32844643,7.05704464 Z M8.28715179,19.9105714 L4.12079464,19.9105714 C3.37066071,19.9105714 2.76227679,19.301625 2.76227679,18.5515714 C2.76227679,17.8012768 3.37066071,17.1927321 4.12079464,17.1927321 L8.28715179,17.1927321 C9.03760714,17.1927321 9.64599107,17.8012768 9.64599107,18.5515714 C9.64599107,19.301625 9.03720536,19.9105714 8.28715179,19.9105714 Z M23.0049643,19.6384018 L13.3138929,19.6384018 C12.8387411,19.6384018 12.45375,19.2531696 12.45375,18.7782589 C12.45375,18.3024643 12.8387411,17.9173929 13.3138929,17.9173929 L23.0049643,17.9173929 C23.4806786,17.9173929 23.8655893,18.3024643 23.8655893,18.7782589 C23.8655893,19.2531696 23.4806786,19.6384018 23.0049643,19.6384018 Z M31.7451696,19.9105714 L27.5789732,19.9105714 C26.8281964,19.9105714 26.2201339,19.301625 26.2201339,18.5515714 C26.2201339,17.8012768 26.8286786,17.1927321 27.5789732,17.1927321 L31.7451696,17.1927321 C32.4959464,17.1927321 33.1044911,17.8012768 33.1044911,18.5515714 C33.1044911,19.301625 32.4959464,19.9105714 31.7451696,19.9105714 Z" id="Shape"></path>
                    </g>
                </g>
            </g>
        </g>
    </g>
</svg>