<?xml version="1.0" encoding="UTF-8"?>
<svg width="220px" height="216px" viewBox="0 0 220 216" version="1.1" xmlns="http://www.w3.org/2000/svg" xmlns:xlink="http://www.w3.org/1999/xlink">
    <!-- Generator: Sketch 49.2 (51160) - http://www.bohemiancoding.com/sketch -->
    <title>Group 14</title>
    <desc>Created with Sketch.</desc>
    <defs>
        <linearGradient x1="34.4508456%" y1="-7.75322571%" x2="95.9881533%" y2="96.9104117%" id="linearGradient-1">
            <stop stop-color="#FFFFFF" offset="0%"></stop>
            <stop stop-color="#EEEEEE" offset="100%"></stop>
        </linearGradient>
        <rect id="path-2" x="0" y="0" width="220" height="216" rx="16"></rect>
        <radialGradient cx="50%" cy="50%" fx="50%" fy="50%" r="61.2413744%" gradientTransform="translate(0.500000,0.500000),scale(0.707035,1.000000),translate(-0.500000,-0.500000)" id="radialGradient-3">
            <stop stop-color="#9C56B8" offset="0%"></stop>
            <stop stop-color="#8F3FAF" offset="100%"></stop>
        </radialGradient>
    </defs>
    <g id="Page-1" stroke="none" stroke-width="1" fill="none" fill-rule="evenodd">
        <g id="Group-14">
            <g id="Group-13">
                <g id="Group-4">
                    <g id="Rectangle-Copy">
                        <use fill="url(#linearGradient-1)" fill-rule="evenodd" xlink:href="#path-2"></use>
                        <rect stroke="#F6F6F6" stroke-width="2" x="1" y="1" width="218" height="214" rx="16"></rect>
                    </g>
                    <text id="Chess" font-family="HelveticaNeue, Helvetica Neue" font-size="14" font-weight="normal" line-spacing="33" letter-spacing="0.466666728" fill="#333333">
                        <tspan x="86.3763332" y="189">CHESS</tspan>
                    </text>
                </g>
            </g>
            <g id="Group-2" transform="translate(36.000000, 20.000000)" fill-rule="nonzero">
                <g id="chess">
                    <path d="M75,0 C53.1202148,0 33.4289062,9.36914063 19.7191406,24.3143555 C17.7644531,26.4451172 9.56367187,38.0791992 7.68457031,41.8921875 C2.76416016,51.8774414 0,63.1160156 0,75 C0,86.0759766 2.40087891,96.590918 6.71074219,106.053516 L143.288672,106.055273 C147.598828,96.5923828 150,86.0765625 150,75 C150,71.0132813 149.688867,67.0992188 149.090039,63.280957 C148.679297,60.6641602 145.43877,48.9577148 144.105762,45.80625 C132.72041,18.8879883 106.06582,0 75,0 Z" id="Shape" fill="url(#radialGradient-3)"></path>
                    <path d="M20.2148261,24.5741506 C17.3795734,27.7080939 14.7692572,31.0547513 12.4154936,34.5920834 C10.2916065,37.7837967 8.37915298,41.1314559 6.68867187,44.6100161 L24.0631159,44.6100161 L24.0631159,34.5920834 L24.0631159,24.5741506 L20.2148261,24.5741506 Z" id="Shape" fill="#33495F"></path>
                    <path d="M24.0631159,34.5920834 L12.4158229,34.5920834 C10.2919358,37.7837967 8.37948232,41.1314559 6.68900121,44.6100161 L24.0631159,44.6100161 L24.0631159,34.5920834 Z" id="Shape" fill="#2B3E51"></path>
                    <g id="Group" transform="translate(6.445312, 106.054688)">
                        <path d="M136.841016,0 L0.268359375,0 C12.0767578,25.9233398 38.2101563,43.9453125 68.5546875,43.9453125 C98.8992188,43.9453125 125.032617,25.9233398 136.841016,0 Z" id="Shape" fill="#ECF0F1"></path>
                        <g fill="#2B3E51">
                            <path d="M0.268359375,0 C1.65527344,3.04482422 3.24199219,5.97861328 5.00800781,8.7890625 L9.9609375,8.7890625 L9.9609375,0 L0.268359375,0 Z" id="Shape"></path>
                            <path d="M9.9609375,8.7890625 L9.9609375,15.7582031 C10.4525391,16.3728516 10.9535156,16.9795898 11.4638672,17.578125 L24.609375,17.578125 L24.609375,8.7890625 L9.9609375,8.7890625 Z" id="Shape"></path>
                            <path d="M24.609375,29.7225586 L24.609375,26.3671875 L20.3132812,26.3671875 C21.703418,27.5361328 23.1360352,28.6555664 24.609375,29.7225586 Z" id="Shape"></path>
                            <rect id="Rectangle-path" x="24.609375" y="0" width="14.6484375" height="8.7890625"></rect>
                            <rect id="Rectangle-path" x="24.609375" y="17.578125" width="14.6484375" height="8.7890625"></rect>
                            <path d="M39.2578125,38.00625 L39.2578125,35.15625 L33.3038086,35.15625 C35.2400391,36.1892578 37.2251953,37.1425781 39.2578125,38.00625 Z" id="Shape"></path>
                            <rect id="Rectangle-path" x="39.2578125" y="8.7890625" width="14.6484375" height="8.7890625"></rect>
                            <rect id="Rectangle-path" x="39.2578125" y="26.3671875" width="14.6484375" height="8.7890625"></rect>
                            <rect id="Rectangle-path" x="53.90625" y="0" width="14.6484375" height="8.7890625"></rect>
                            <rect id="Rectangle-path" x="53.90625" y="17.578125" width="14.6484375" height="8.7890625"></rect>
                            <path d="M53.90625,42.5109375 C58.6441406,43.4493164 63.5414063,43.9453125 68.5546875,43.9453125 L68.5546875,35.15625 L53.90625,35.15625 L53.90625,42.5109375 Z" id="Shape"></path>
                            <rect id="Rectangle-path" x="68.5546875" y="8.7890625" width="14.6484375" height="8.7890625"></rect>
                            <rect id="Rectangle-path" x="68.5546875" y="26.3671875" width="14.6484375" height="8.7890625"></rect>
                            <rect id="Rectangle-path" x="83.203125" y="0" width="14.6484375" height="8.7890625"></rect>
                            <rect id="Rectangle-path" x="83.203125" y="17.578125" width="14.6484375" height="8.7890625"></rect>
                            <path d="M83.203125,42.5109375 C88.2893555,41.5037109 93.1916016,39.9852539 97.8515625,38.00625 L97.8515625,35.15625 L83.203125,35.15625 L83.203125,42.5109375 Z" id="Shape"></path>
                            <rect id="Rectangle-path" x="97.8515625" y="8.7890625" width="14.6484375" height="8.7890625"></rect>
                            <path d="M97.8515625,35.15625 L103.805566,35.15625 C106.833691,33.5405273 109.737305,31.7235352 112.5,29.7225586 L112.5,26.3671875 L97.8515625,26.3671875 L97.8515625,35.15625 Z" id="Shape"></path>
                            <rect id="Rectangle-path" x="112.5" y="0" width="14.6484375" height="8.7890625"></rect>
                            <path d="M116.796094,26.3671875 C119.983301,23.6868164 122.94375,20.746582 125.645508,17.578125 L112.5,17.578125 L112.5,26.3671875 L116.796094,26.3671875 Z" id="Shape"></path>
                            <path d="M132.101367,8.7890625 L127.148438,8.7890625 L127.148438,15.7582031 C128.927051,13.5348633 130.581152,11.2086914 132.101367,8.7890625 Z" id="Shape"></path>
                        </g>
                    </g>
                    <path d="M28.7097656,101.953125 C28.9696289,101.953125 29.296875,101.864941 29.296875,101.605078 L29.296875,101.499023 C29.296875,101.23916 28.9696289,101.074219 28.7097656,101.074219 L28.125,101.074219 L28.125,100.488281 L27.4274414,100.488281 C27.4274414,100.488281 25.6625977,98.1445312 25.2539062,92.578125 L25.63125,92.578125 C25.856543,92.578125 26.0745117,92.4685547 26.0745117,92.2435547 L26.0745117,92.2212891 C26.0745117,91.9959961 25.856543,91.6992188 25.63125,91.6992188 L25.2035156,91.6992188 C25.1941406,91.6992188 25.1865234,91.40625 25.18125,91.1132812 L25.63125,91.1132812 C25.856543,91.1132812 26.0745117,91.002832 26.0745117,90.7775391 L26.0745117,90.7552734 C26.0745117,90.5299805 25.856543,90.234375 25.63125,90.234375 L25.5196289,90.234375 C25.9253906,89.9414062 26.1729492,89.2224609 26.1729492,88.5580078 C26.1729492,87.1025391 24.9931641,85.9514648 23.5379883,85.9514648 C22.0828125,85.9514648 20.9030273,87.0887695 20.9030273,88.5439453 C20.9030273,89.2083984 21.1508789,89.9414062 21.5563477,90.234375 L21.2109375,90.234375 C20.9856445,90.234375 20.8007812,90.5299805 20.8007812,90.7552734 L20.8007812,90.7775391 C20.8007812,91.002832 20.9856445,91.1132812 21.2109375,91.1132812 L21.8947266,91.1132812 C21.8894531,91.40625 21.8818359,91.6992188 21.8724609,91.6992188 L21.2109375,91.6992188 C20.9856445,91.6992188 20.8007812,91.9959961 20.8007812,92.2212891 L20.8007812,92.2435547 C20.8007812,92.4688477 20.9856445,92.578125 21.2109375,92.578125 L21.8220703,92.578125 C21.4130859,98.1445312 19.6485352,100.488281 19.6485352,100.488281 L19.0429688,100.488281 L19.0429688,101.074219 L18.3416016,101.074219 C18.0817383,101.074219 17.8710938,101.238867 17.8710938,101.499023 L17.8710938,101.605078 C17.8710938,101.864941 18.0817383,101.953125 18.3416016,101.953125 L19.0429688,101.953125 L19.0429688,103.125 L18.8121094,103.125 C18.2923828,103.125 17.8710938,103.543945 17.8710938,104.063672 L17.8710938,104.066602 C17.8710938,104.586328 18.2923828,104.882812 18.8121094,104.882812 L18.6029297,104.882812 L20.1919922,106.054688 L26.8417969,106.054688 L28.4519531,104.882812 L28.2392578,104.882812 C28.7589844,104.882812 29.296875,104.586328 29.296875,104.066602 L29.296875,104.063672 C29.296875,103.543945 28.7589844,103.125 28.2392578,103.125 L28.125,103.125 L28.125,101.953125 L28.7097656,101.953125 Z" id="Shape" fill="#ECF0F1" opacity="0.8"></path>
                    <path d="M56.7079102,103.125 C56.8945312,103.125 57.1289062,103.046484 57.1289062,102.859863 L57.1289062,102.783691 C57.1289062,102.59707 56.8945312,102.539063 56.7079102,102.539063 L56.25,102.539063 L56.25,101.953125 L55.7871094,101.953125 C55.7871094,101.953125 54.5200195,100.488281 54.2264648,96.3867188 L54.497168,96.3867188 C54.6588867,96.3867188 54.7848633,96.3 54.7848633,96.1382813 L54.7848633,96.1224609 C54.7848633,95.9607422 54.6588867,95.8007813 54.497168,95.8007813 L54.1901367,95.8007813 C54.1833984,95.8007813 54.177832,95.5078125 54.1740234,95.2148438 L54.497168,95.2148438 C54.6588867,95.2148438 54.7848633,95.2473633 54.7848633,95.0856445 L54.7848633,95.0695313 C54.7848633,94.9078125 54.6588867,94.6289063 54.497168,94.6289063 L54.4171875,94.6289063 C54.7083984,94.6289063 54.8865234,93.9357422 54.8865234,93.4587891 C54.8865234,92.4140625 54.0392578,91.6037109 52.9945313,91.6037109 C51.9498047,91.6037109 51.1025391,92.3953125 51.1025391,93.4400391 C51.1025391,93.9169922 51.2803711,94.6289062 51.571875,94.6289062 L51.3237305,94.6289062 C51.1620117,94.6289062 50.9765625,94.9081055 50.9765625,95.0695313 L50.9765625,95.0856445 C50.9765625,95.2473633 51.1620117,95.2148438 51.3237305,95.2148438 L51.8147461,95.2148438 C51.8109375,95.5078125 51.8053711,95.8007812 51.7986328,95.8007812 L51.3234375,95.8007812 C51.1617187,95.8007812 50.9762695,95.9604492 50.9762695,96.1224609 L50.9762695,96.1382812 C50.9762695,96.3 51.1617187,96.3867188 51.3234375,96.3867188 L51.7623047,96.3867188 C51.46875,100.488281 50.2016602,101.953125 50.2016602,101.953125 L49.8046875,101.953125 L49.8046875,102.539062 L49.2635742,102.539062 C49.0769531,102.539062 48.9257812,102.59707 48.9257812,102.783691 L48.9257812,102.859863 C48.9257812,103.046484 49.0769531,103.125 49.2635742,103.125 L49.8046875,103.125 L49.8046875,104.003906 L49.6013672,104.003906 C49.228125,104.003906 48.9257812,104.252051 48.9257812,104.625293 L48.9257812,104.627344 C48.9257812,105.000586 49.228125,105.176074 49.6013672,105.176074 L49.4510742,105.176074 L50.5921875,106.05498 L55.3666992,106.05498 L56.5227539,105.176074 L56.3698242,105.176074 C56.7430664,105.176074 57.1286133,105.000586 57.1286133,104.627344 L57.1286133,104.625293 C57.1286133,104.252051 56.7430664,104.003906 56.3698242,104.003906 L56.25,104.003906 L56.25,103.125 L56.7079102,103.125 Z" id="Shape" fill="#33495F" opacity="0.5"></path>
                    <path d="M86.0047852,103.125 C86.1914062,103.125 86.4257812,103.046484 86.4257812,102.859863 L86.4257812,102.783691 C86.4257812,102.59707 86.1914062,102.539063 86.0047852,102.539063 L85.546875,102.539063 L85.546875,101.953125 L85.0839844,101.953125 C85.0839844,101.953125 83.8168945,100.488281 83.5233398,96.3867188 L83.794043,96.3867188 C83.9557617,96.3867188 84.0817383,96.3 84.0817383,96.1382813 L84.0817383,96.1224609 C84.0817383,95.9607422 83.9557617,95.8007813 83.794043,95.8007813 L83.4870117,95.8007813 C83.4802734,95.8007813 83.474707,95.5078125 83.4708984,95.2148438 L83.794043,95.2148438 C83.9557617,95.2148438 84.0817383,95.2473633 84.0817383,95.0856445 L84.0817383,95.0695313 C84.0817383,94.9078125 83.9557617,94.6289063 83.794043,94.6289063 L83.7140625,94.6289063 C84.0052734,94.6289063 84.1833984,93.9357422 84.1833984,93.4587891 C84.1833984,92.4140625 83.3361328,91.6037109 82.2914062,91.6037109 C81.2466797,91.6037109 80.3994141,92.3953125 80.3994141,93.4400391 C80.3994141,93.9169922 80.5772461,94.6289062 80.86875,94.6289062 L80.6206055,94.6289062 C80.4588867,94.6289062 80.2734375,94.9081055 80.2734375,95.0695313 L80.2734375,95.0856445 C80.2734375,95.2473633 80.4588867,95.2148438 80.6206055,95.2148438 L81.1116211,95.2148438 C81.1078125,95.5078125 81.1022461,95.8007812 81.0955078,95.8007812 L80.6203125,95.8007812 C80.4585937,95.8007812 80.2731445,95.9604492 80.2731445,96.1224609 L80.2731445,96.1382812 C80.2731445,96.3 80.4585937,96.3867188 80.6203125,96.3867188 L81.0591797,96.3867188 C80.765625,100.488281 79.4985352,101.953125 79.4985352,101.953125 L79.1015625,101.953125 L79.1015625,102.539062 L78.5604492,102.539062 C78.3738281,102.539062 78.2226562,102.59707 78.2226562,102.783691 L78.2226562,102.859863 C78.2226562,103.046484 78.3738281,103.125 78.5604492,103.125 L79.1015625,103.125 L79.1015625,104.003906 L78.8982422,104.003906 C78.525,104.003906 78.2226562,104.252051 78.2226562,104.625293 L78.2226562,104.627344 C78.2226562,105.000586 78.525,105.176074 78.8982422,105.176074 L78.7479492,105.176074 L79.8890625,106.05498 L84.6635742,106.05498 L85.8196289,105.176074 L85.6666992,105.176074 C86.0399414,105.176074 86.4254883,105.000586 86.4254883,104.627344 L86.4254883,104.625293 C86.4254883,104.252051 86.0399414,104.003906 85.6666992,104.003906 L85.546875,104.003906 L85.546875,103.125 L86.0047852,103.125 Z" id="Shape" fill="#ECF0F1" opacity="0.8"></path>
                    <g id="Group" transform="translate(59.472656, 77.929688)">
                        <polygon id="Shape" fill="#BDC3C7" points="1.23896484 26.6601562 3.46201172 28.125 12.7643555 28.125 15.0166992 26.6601562"></polygon>
                        <rect id="Rectangle-path" fill="#BDC3C7" x="1.7578125" y="20.2148438" width="12.890625" height="3.80859375"></rect>
                        <path d="M16.1132812,25.3438477 C16.1132812,26.0707031 15.5238281,26.6601562 14.7966797,26.6601562 L1.60927734,26.6601562 C0.882128906,26.6601562 0.292675781,26.0707031 0.292675781,25.3438477 L0.292675781,25.3397461 C0.292675781,24.6128906 0.882128906,24.0234375 1.60927734,24.0234375 L14.7966797,24.0234375 C15.5238281,24.0234375 16.1132812,24.6128906 16.1132812,25.3397461 L16.1132812,25.3438477 Z" id="Shape" fill="#ECF0F1"></path>
                        <path d="M16.1132812,21.900293 C16.1132812,22.2638672 15.8185547,22.5585938 15.4549805,22.5585938 L0.950976562,22.5585938 C0.587402344,22.5585938 0.292675781,22.2638672 0.292675781,21.900293 L0.292675781,21.7517578 C0.292675781,21.3881836 0.587402344,21.093457 0.950976562,21.093457 L15.4549805,21.093457 C15.8185547,21.093457 16.1132812,21.3881836 16.1132812,21.7517578 L16.1132812,21.900293 Z" id="Shape" fill="#ECF0F1"></path>
                        <path d="M10.4241211,6.15234375 L5.86054687,6.15234375 C5.86054687,16.1132812 2.70117188,20.2148438 2.70117188,20.2148438 L13.5832031,20.2148438 C13.5834961,20.2148438 10.4241211,16.1132812 10.4241211,6.15234375 Z" id="Shape" fill="#ECF0F1"></path>
                        <circle id="Oval" fill="#ECF0F1" cx="8.14248047" cy="3.72802734" r="3.68583984"></circle>
                        <path d="M11.71875,6.75380859 C11.71875,7.06875 11.4632812,7.32421875 11.1483398,7.32421875 L4.96523438,7.32421875 C4.65029297,7.32421875 4.39482422,7.06875 4.39482422,6.75380859 L4.39482422,6.72275391 C4.39482422,6.4078125 4.65029297,6.15234375 4.96523438,6.15234375 L11.1483398,6.15234375 C11.4632812,6.15234375 11.71875,6.4078125 11.71875,6.72275391 L11.71875,6.75380859 Z" id="Shape" fill="#BDC3C7"></path>
                        <path d="M11.71875,8.80458984 C11.71875,9.11982422 11.4632812,9.375 11.1483398,9.375 L4.96523438,9.375 C4.65029297,9.375 4.39482422,9.11953125 4.39482422,8.80458984 L4.39482422,8.77382812 C4.39482422,8.45859375 4.65029297,8.20341797 4.96523438,8.20341797 L11.1483398,8.20341797 C11.4632812,8.20341797 11.71875,8.45888672 11.71875,8.77382812 L11.71875,8.80458984 Z" id="Shape" fill="#BDC3C7"></path>
                    </g>
                    <g id="Group" transform="translate(103.417969, 66.867188)">
                        <path d="M10.5732422,13.4765625 L6.00996094,13.4765625 C6.00996094,23.4375 2.85058594,31.0546875 2.85058594,31.0546875 L13.7329102,31.0546875 C13.7326172,31.0546875 10.5732422,23.4375 10.5732422,13.4765625 Z" id="Shape" fill="#33495F"></path>
                        <polygon id="Shape" fill="#2B3E51" points="1.38779297 37.5 3.61113281 38.9648438 12.9134766 38.9648438 15.1661133 37.5"></polygon>
                        <rect id="Rectangle-path" fill="#2B3E51" x="1.7578125" y="31.0546875" width="12.890625" height="3.80859375"></rect>
                        <path d="M16.1132812,36.1836914 C16.1132812,36.9105469 15.5238281,37.5 14.7969727,37.5 L1.60927734,37.5 C0.882421875,37.5 0.29296875,36.9105469 0.29296875,36.1836914 L0.29296875,36.1795898 C0.29296875,35.4527344 0.882421875,34.8632812 1.60927734,34.8632812 L14.7969727,34.8632812 C15.5238281,34.8632812 16.1132812,35.4527344 16.1132812,36.1795898 L16.1132812,36.1836914 Z" id="Shape" fill="#33495F"></path>
                        <path d="M16.1132812,32.7401367 C16.1132812,33.1037109 15.8185547,33.3984375 15.4549805,33.3984375 L0.950976562,33.3984375 C0.587402344,33.3984375 0.292675781,33.1037109 0.292675781,32.7401367 L0.292675781,32.5916016 C0.292675781,32.2280273 0.587402344,31.9333008 0.950976562,31.9333008 L15.4549805,31.9333008 C15.8185547,31.9333008 16.1132812,32.2280273 16.1132812,32.5916016 L16.1132812,32.7401367 Z" id="Shape" fill="#33495F"></path>
                        <circle id="Oval" fill="#33495F" cx="8.29160156" cy="3.68583984" r="3.68583984"></circle>
                        <polygon id="Shape" fill="#33495F" points="13.2061523 7.32421875 3.37705078 7.32421875 5.13222656 13.4765625 11.4506836 13.4765625"></polygon>
                        <path d="M14.3554688,7.04677734 C14.3554688,7.36201172 14.1,7.6171875 13.7850586,7.6171875 L3.20742187,7.6171875 C2.89248047,7.6171875 2.63701172,7.36171875 2.63701172,7.04677734 L2.63701172,7.01601563 C2.63701172,6.70078125 2.89248047,6.44560547 3.20742187,6.44560547 L13.7850586,6.44560547 C14.1,6.44560547 14.3554688,6.70107422 14.3554688,7.01601563 L14.3554688,7.04677734 Z" id="Shape" fill="#2B3E51"></path>
                        <path d="M12.0117188,13.4920898 C12.0117188,13.8070312 11.75625,14.0625 11.4413086,14.0625 L5.25820312,14.0625 C4.94326172,14.0625 4.68779297,13.8070312 4.68779297,13.4920898 L4.68779297,13.4610352 C4.68779297,13.1460938 4.94326172,12.890625 5.25820312,12.890625 L11.4413086,12.890625 C11.75625,12.890625 12.0117188,13.1460938 12.0117188,13.4610352 L12.0117188,13.4920898 Z" id="Shape" fill="#2B3E51"></path>
                        <path d="M12.0117188,17.5936523 C12.0117188,17.9085937 11.75625,18.1640625 11.4413086,18.1640625 L5.25820312,18.1640625 C4.94326172,18.1640625 4.68779297,17.9085937 4.68779297,17.5936523 L4.68779297,17.5625977 C4.68779297,17.2476563 4.94326172,16.9921875 5.25820312,16.9921875 L11.4413086,16.9921875 C11.75625,16.9921875 12.0117188,17.2476563 12.0117188,17.5625977 L12.0117188,17.5936523 Z" id="Shape" fill="#2B3E51"></path>
                        <path d="M12.0117188,19.6444336 C12.0117188,19.959668 11.75625,20.2148437 11.4413086,20.2148437 L5.25820312,20.2148437 C4.94326172,20.2148437 4.68779297,19.959375 4.68779297,19.6444336 L4.68779297,19.6136719 C4.68779297,19.2984375 4.94326172,19.0432617 5.25820312,19.0432617 L11.4413086,19.0432617 C11.75625,19.0432617 12.0117188,19.2987305 12.0117188,19.6136719 L12.0117188,19.6444336 Z" id="Shape" fill="#2B3E51"></path>
                    </g>
                    <path d="M131.541797,101.953125 C131.80166,101.953125 132.128906,101.864941 132.128906,101.605078 L132.128906,101.499023 C132.128906,101.23916 131.80166,101.074219 131.541797,101.074219 L130.957031,101.074219 L130.957031,100.488281 L130.259473,100.488281 C130.259473,100.488281 128.494629,98.1445312 128.085938,92.578125 L128.463281,92.578125 C128.688574,92.578125 128.906543,92.4685547 128.906543,92.2435547 L128.906543,92.2212891 C128.906543,91.9959961 128.688574,91.6992188 128.463281,91.6992188 L128.035547,91.6992188 C128.026172,91.6992188 128.018555,91.40625 128.013281,91.1132812 L128.463281,91.1132812 C128.688574,91.1132812 128.906543,91.002832 128.906543,90.7775391 L128.906543,90.7552734 C128.906543,90.5299805 128.688574,90.234375 128.463281,90.234375 L128.35166,90.234375 C128.757422,89.9414062 129.00498,89.2224609 129.00498,88.5580078 C129.00498,87.1025391 127.825195,85.9514648 126.37002,85.9514648 C124.914844,85.9514648 123.735059,87.0887695 123.735059,88.5439453 C123.735059,89.2083984 123.98291,89.9414062 124.388379,90.234375 L124.042676,90.234375 C123.817383,90.234375 123.63252,90.5299805 123.63252,90.7552734 L123.63252,90.7775391 C123.63252,91.002832 123.817383,91.1132812 124.042676,91.1132812 L124.726465,91.1132812 C124.721191,91.40625 124.713574,91.6992188 124.704199,91.6992188 L124.042969,91.6992188 C123.817676,91.6992188 123.632812,91.9959961 123.632812,92.2212891 L123.632812,92.2435547 C123.632812,92.4688477 123.817676,92.578125 124.042969,92.578125 L124.654102,92.578125 C124.245117,98.1445312 122.480566,100.488281 122.480566,100.488281 L121.875,100.488281 L121.875,101.074219 L121.173633,101.074219 C120.91377,101.074219 120.703125,101.238867 120.703125,101.499023 L120.703125,101.605078 C120.703125,101.864941 120.91377,101.953125 121.173633,101.953125 L121.875,101.953125 L121.875,103.125 L121.644141,103.125 C121.124414,103.125 120.703125,103.543945 120.703125,104.063672 L120.703125,104.066602 C120.703125,104.586328 121.124414,104.882812 121.644141,104.882812 L121.434961,104.882812 L123.024023,106.054688 L129.673828,106.054688 L131.283984,104.882812 L131.070996,104.882812 C131.590723,104.882812 132.128613,104.586328 132.128613,104.066602 L132.128613,104.063672 C132.128613,103.543945 131.590723,103.125 131.070996,103.125 L130.957031,103.125 L130.957031,101.953125 L131.541797,101.953125 Z" id="Shape" fill="#ECF0F1" opacity="0.8"></path>
                    <path d="M101.378613,97.0353516 C101.378613,97.0353516 101.893652,94.9224609 101.152441,91.771582 C100.761621,90.1104492 99.2882812,89.4665039 97.9822266,89.2283203 L97.8758789,88.5410156 L97.5052734,88.3555664 L97.312793,89.1369141 C96.4435547,89.0551758 95.775293,89.127832 95.775293,89.127832 L95.9915039,90.4869141 L96.0079102,90.5185547 C95.9976562,90.5214844 95.9915039,90.5232422 95.9915039,90.5232422 L93.4432617,93.178418 L94.0456055,95.1287109 L95.9915039,93.6544922 C97.7519531,96.2490234 93.6287109,99.4400391 93.6287109,99.4400391 L93.5516602,101.953125 L93.1640625,101.953125 L93.1640625,102.246094 L92.6326172,102.246094 C92.4407227,102.246094 92.2851562,102.40166 92.2851562,102.593555 L92.2851562,102.777539 C92.2851562,102.969434 92.4407227,103.125 92.6326172,103.125 L93.1640625,103.125 L93.1640625,104.003906 L92.9800781,104.003906 C92.5962891,104.003906 92.2851562,104.315039 92.2851562,104.698828 L92.2851562,104.773828 C92.2851562,105.157617 92.5962891,105.46875 92.9800781,105.46875 L93.2015625,105.46875 L93.984082,106.054687 L98.8954102,106.054687 L99.6881836,105.46875 L100.086621,105.46875 C100.47041,105.46875 100.781543,105.157617 100.781543,104.773828 L100.781543,104.698828 C100.781543,104.315039 100.47041,104.003906 100.086621,104.003906 L99.9023438,104.003906 L99.9023438,103.125 L100.433789,103.125 C100.625684,103.125 100.78125,102.969434 100.78125,102.777539 L100.78125,102.593555 C100.78125,102.40166 100.625684,102.246094 100.433789,102.246094 L99.9023438,102.246094 L99.9023438,101.953125 L99.1423828,101.953125 C99.6322266,100.214941 99.9424805,98.7369141 100.112695,97.4774414 L101.378613,97.0353516 Z" id="Shape" fill="#33495F" opacity="0.5"></path>
                    <path d="M46.8986076,29.8335653 C38.5291947,29.8335653 31.7201753,36.7375906 31.7201753,45.2237815 C31.7201753,49.7512192 33.6737958,54.0292104 37.0804462,56.9607915 C37.8853431,57.6536985 38.869728,57.9923046 39.8488436,57.9923046 C41.0624464,57.9923046 42.2681451,57.4717061 43.1148676,56.4602288 C44.6449622,54.63229 44.4239778,51.8930532 42.6211931,50.3412755 C41.1349003,49.0619854 40.282579,47.1966464 40.282579,45.2234475 C40.282579,41.5244928 43.2502247,38.5154398 46.8982783,38.5154398 C46.9720495,38.5154398 47.0431861,38.524122 47.1162986,38.5267934 L47.1162986,29.8392421 C47.0438447,29.8382403 46.9717202,29.8335653 46.8986076,29.8335653 Z" id="Shape" fill="#E5BF88"></path>
                    <g id="Group" transform="translate(34.931200, 46.947534)">
                        <polygon id="Shape" fill="#BDC3C7" points="1.44743122 36.7324201 3.94643193 38.4020756 14.4038343 38.4020756 16.9357686 36.7324201"></polygon>
                        <path d="M8.22154107,4.79257904 L7.76112951,1.85832653 C7.76112951,1.85832653 17.631326,0.76436827 19.2098329,7.56621069 C20.7880105,14.368387 19.691322,18.9302197 19.691322,18.9302197 L16.1134169,20.1971543 L8.22154107,4.79257904 Z" id="Shape" fill="#BDC3C7"></path>
                        <rect id="Rectangle-path" fill="#BDC3C7" x="1.97601532" y="29.3859361" width="14.490779" height="4.3411042"></rect>
                        <path d="M18.1134738,35.2320677 C18.1134738,36.0605508 17.45085,36.7324201 16.6337676,36.7324201 L1.80904203,36.7324201 C0.991959691,36.7324201 0.329335887,36.0605508 0.329335887,35.2320677 L0.329335887,35.2273927 C0.329335887,34.3989097 0.991959691,33.7270403 1.80904203,33.7270403 L16.6337676,33.7270403 C17.45085,33.7270403 18.1134738,34.3989097 18.1134738,35.2273927 L18.1134738,35.2320677 Z" id="Shape" fill="#ECF0F1"></path>
                        <path d="M18.1134738,31.3070417 C18.1134738,31.7214502 17.7821619,32.0573849 17.373456,32.0573849 L1.06902429,32.0573849 C0.660318453,32.0573849 0.329006551,31.7214502 0.329006551,31.3070417 L0.329006551,31.1377386 C0.329006551,30.7233301 0.660318453,30.3873955 1.06902429,30.3873955 L17.373456,30.3873955 C17.7821619,30.3873955 18.1134738,30.7233301 18.1134738,31.1377386 L18.1134738,31.3070417 Z" id="Shape" fill="#ECF0F1"></path>
                        <path d="M3.02593813,29.3859361 L3.19027673,24.0410351 C3.19027673,24.0410351 11.9703715,17.1924423 8.22154107,11.5907482 L4.07816628,14.7934813 L2.79573234,10.5929621 L8.22154107,4.78489862 C8.22154107,4.78489862 23.0195905,0.333597161 14.9301131,29.3856022 L3.02593813,29.3859361 Z" id="Shape" fill="#ECF0F1"></path>
                        <polygon id="Shape" fill="#ECF0F1" points="10.3259974 4.79257904 11.4444221 0.191008585 12.2335108 0.591391964 12.9567325 5.32586699"></polygon>
                        <polygon id="Shape" fill="#BDC3C7" points="11.526756 2.19158976 11.526756 3.99214621 12.0530348 4.52843954"></polygon>
                    </g>
                    <path d="M85.0096858,38.7144627 C81.2391192,30.678077 74.2176781,25.8083599 64.7034937,24.6319207 C63.0864545,24.4318959 61.5303424,24.359099 60.0924619,24.3634401 C63.5857277,22.9993316 68.1872087,22.124766 72.1109164,24.4729695 C74.1472002,25.6911501 76.7723366,25.0055896 77.9740832,22.9408936 C79.1758299,20.8761977 78.499374,18.2144329 76.4630902,16.9959184 C68.224753,12.0664276 59.2734036,14.9729638 54.0600165,17.5786281 C53.486972,17.7218846 52.7680318,18.097891 51.8672981,18.7697603 L51.8669688,18.7697603 C50.5799242,19.5281179 49.7763446,20.1121633 49.6152994,20.2313767 C41.9826108,24.5788256 30.6498336,25.909875 30.6498336,25.909875 C30.6498336,25.909875 28.1798145,38.5992565 30.6498336,42.6064296 C33.1198528,46.6136027 33.9431925,45.4448439 33.9431925,45.4448439 C33.9431925,45.4448439 32.065978,40.6866597 38.2248884,36.1956205 L47.116628,38.5271273 C50.6632461,38.645339 53.5143069,41.5996273 53.5143069,45.2237815 C53.5143069,47.1241833 52.7532117,48.8793251 51.3716476,50.1662956 C49.6301195,51.7881989 49.5151812,54.5344482 51.1147656,56.2999419 C52.71435,58.0657695 55.4228084,58.1826454 57.1640072,56.5604081 C60.2864408,53.6525362 62.07704,49.5201389 62.07704,45.2234475 C62.07704,41.6917923 60.8943948,38.4379677 58.9140981,35.8386481 C59.2575954,36.0099548 59.6050448,36.1946187 59.9544702,36.3939755 C64.9383102,39.2394024 67.8288912,43.6659929 68.5461848,49.5505266 C68.749385,51.2175106 69.8589176,52.5462225 71.3119476,53.0915319 C71.933075,53.3246158 72.617435,53.4144433 73.3202378,53.3266194 C75.666756,53.0324261 77.3341836,50.8652133 77.044368,48.4856204 C76.5052452,44.0613673 75.0749394,40.1213144 72.8189886,36.7639712 C74.7004845,38.2309305 76.1900707,40.1269912 77.2772085,42.4438051 C78.2928804,44.6086804 80.8475388,45.5289945 82.9826234,44.4988171 C85.1177079,43.4686396 86.0253576,40.879338 85.0096858,38.7144627 Z" id="Shape" fill="#E5BF88"></path>
                    <rect id="Rectangle-path" fill="#ECF0F1" x="24.0631159" y="25.2420128" width="6.58671773" height="18.3662101"></rect>
                    <rect id="Rectangle-path" fill="#BDC3C7" x="24.0631159" y="34.5920834" width="6.58671773" height="9.01613949"></rect>
                </g>
            </g>
        </g>
    </g>
</svg>