<?xml version="1.0" encoding="UTF-8"?>
<svg width="9px" height="19px" viewBox="0 0 9 19" version="1.1" xmlns="http://www.w3.org/2000/svg" xmlns:xlink="http://www.w3.org/1999/xlink">
    <!-- Generator: Sketch 49.2 (51160) - http://www.bohemiancoding.com/sketch -->
    <title>Shape</title>
    <desc>Created with Sketch.</desc>
    <defs></defs>
    <g id="Page-1" stroke="none" stroke-width="1" fill="none" fill-rule="evenodd">
        <g id="Anonymous_SelectPassengers_SB" transform="translate(-20.000000, -469.000000)" fill="#9B9B9B" fill-rule="nonzero">
            <g id="Group-6" transform="translate(0.000000, 250.000000)">
                <path d="M21.8,238 L21.8,231.5 L20,231.5 L20,226.733333 C20,225.78 21.08,225 22.4,225 L26,225 C27.32,225 28.4,225.78 28.4,226.733333 L28.4,231.5 L26.6,231.5 L26.6,238 L21.8,238 Z M24.2,223.8 C25.532,223.8 26.6,222.732 26.6,221.4 C26.6,220.068 25.532,219 24.2,219 C22.868,219 21.8,220.068 21.8,221.4 C21.8,222.732 22.868,223.8 24.2,223.8 Z" id="Shape"></path>
            </g>
        </g>
    </g>
</svg>