<?xml version="1.0" encoding="UTF-8"?>
<svg width="12px" height="19px" viewBox="0 0 12 19" version="1.1" xmlns="http://www.w3.org/2000/svg" xmlns:xlink="http://www.w3.org/1999/xlink">
    <!-- Generator: Sketch 49.3 (51167) - http://www.bohemiancoding.com/sketch -->
    <title>smartphone-call</title>
    <desc>Created with Sketch.</desc>
    <defs></defs>
    <g id="Page-1" stroke="none" stroke-width="1" fill="none" fill-rule="evenodd">
        <g id="BookChauffeur" transform="translate(-146.000000, -547.000000)" fill="#27D9A1" fill-rule="nonzero">
            <g id="smartphone-call" transform="translate(146.000000, 547.000000)">
                <path d="M10.604761,0 L1.39523903,0 C0.627975605,0 0,0.577057143 0,1.28331429 L0,17.7161429 C-5.24205245e-16,18.4224 0.627975605,19 1.39523903,19 L10.604761,19 C11.3720244,19 12,18.4234857 12,17.7166857 L12,1.28331429 C12,0.577057143 11.3720244,0 10.604761,0 Z M4.52685422,0.925028571 L7.47314578,0.925028571 C7.5663978,0.925028571 7.64194373,0.994514286 7.64194373,1.08082857 C7.64194373,1.1666 7.5663978,1.23608571 7.47314578,1.23608571 L4.52685422,1.23608571 C4.4336022,1.23608571 4.35805627,1.1666 4.35805627,1.08082857 C4.35805627,0.994514286 4.4336022,0.925028571 4.52685422,0.925028571 Z M6,18.3583429 C5.61459768,18.3583429 5.30238048,18.0711714 5.30238048,17.7161429 C5.30238048,17.3611143 5.61459768,17.0744857 6,17.0744857 C6.38540232,17.0744857 6.69761952,17.3611143 6.69761952,17.7161429 C6.69761952,18.0711714 6.38540232,18.3583429 6,18.3583429 Z M11.0291167,16.625 L0.970883337,16.625 L0.970883337,2.03517143 L11.0291167,2.03517143 L11.0291167,16.625 Z" id="Shape"></path>
            </g>
        </g>
    </g>
</svg>