<?xml version="1.0" encoding="UTF-8"?>
<svg width="33px" height="22px" viewBox="0 0 33 22" version="1.1" xmlns="http://www.w3.org/2000/svg" xmlns:xlink="http://www.w3.org/1999/xlink">
    <!-- Generator: Sketch 47.1 (45422) - http://www.bohemiancoding.com/sketch -->
    <title>Icon/Payment/CreditCard</title>
    <desc>Created with Sketch.</desc>
    <defs>
        <polygon id="path-1" points="32.7675441 0.0791282609 32.7675441 21.7608696 0 21.7608696 0 0.0789130435 32.7675441 0.0789130435 2.42647059e-05 0.0791282609 2.42647059e-05 21.7608457 32.7675684 21.7608457 32.7675684 0.0791282609"></polygon>
    </defs>
    <g id="Page-1" stroke="none" stroke-width="1" fill="none" fill-rule="evenodd">
        <g id="ORDER-SUMMARY-MILES" transform="translate(-121.000000, -697.000000)">
            <g id="Icon/Payment/CreditCard" transform="translate(121.000000, 697.000000)">
                <g id="Page-1">
                    <g id="Group-6" transform="translate(0.000000, 0.160146)">
                        <g id="Group-3">
                            <path d="M2.07174485,21.7608457 C0.927421324,21.7608457 2.42647059e-05,20.8468891 2.42647059e-05,19.71915 L2.42647059e-05,2.12058478 C2.42647059e-05,0.993084783 0.927421324,0.0791282609 2.07174485,0.0791282609 L30.6958478,0.0791282609 C31.8399287,0.0791282609 32.7675684,0.993084783 32.7675684,2.12058478 L32.7675684,19.71915 C32.7675684,20.8468891 31.8399287,21.7608457 30.6958478,21.7608457 L2.07174485,21.7608457 Z" id="Fill-1" fill="#4A4A4A"></path>
                            <mask id="mask-2" fill="white">
                                <use xlink:href="#path-1"></use>
                            </mask>
                            <g id="Clip-2"></g>
                        </g>
                        <polygon id="Fill-4" fill="#231F20" points="0 6.15545652 32.7675441 6.15545652 32.7675441 2.19091304 0 2.19091304"></polygon>
                    </g>
                    <polygon id="Fill-7" fill="#FEFEFE" points="24.6946765 11.4169717 31.2451765 11.4169717 31.2451765 7.90892826 24.6946765 7.90892826"></polygon>
                    <polygon id="Fill-8" fill="#231F20" points="16.4437059 19.9972109 31.2451765 19.9972109 31.2451765 18.4827978 16.4437059 18.4827978"></polygon>
                    <polygon id="Fill-10" fill="#FEFEFE" points="1.52236765 11.4169717 22.9153456 11.4169717 22.9153456 7.90892826 1.52236765 7.90892826"></polygon>
                </g>
            </g>
        </g>
    </g>
</svg>