<?xml version="1.0" encoding="UTF-8"?>
<svg width="220px" height="216px" viewBox="0 0 220 216" version="1.1" xmlns="http://www.w3.org/2000/svg" xmlns:xlink="http://www.w3.org/1999/xlink">
    <!-- Generator: Sketch 49.2 (51160) - http://www.bohemiancoding.com/sketch -->
    <title>Group 5</title>
    <desc>Created with Sketch.</desc>
    <defs>
        <linearGradient x1="34.4508456%" y1="-7.75322571%" x2="95.9881533%" y2="96.9104117%" id="linearGradient-1">
            <stop stop-color="#FFFFFF" offset="0%"></stop>
            <stop stop-color="#EEEEEE" offset="100%"></stop>
        </linearGradient>
        <rect id="path-2" x="0" y="0" width="220" height="216" rx="16"></rect>
    </defs>
    <g id="Page-1" stroke="none" stroke-width="1" fill="none" fill-rule="evenodd">
        <g id="Group-5">
            <g id="Rectangle-Copy">
                <use fill="url(#linearGradient-1)" fill-rule="evenodd" xlink:href="#path-2"></use>
                <rect stroke="#F6F6F6" stroke-width="2" x="1" y="1" width="218" height="214" rx="16"></rect>
            </g>
            <g id="Group-3" transform="translate(35.000000, 20.000000)" fill-rule="nonzero">
                <g id="Group-2">
                    <path d="M150,75 C150,104.231543 133.276465,129.560156 108.872461,141.933691 C101.605078,145.616309 93.6521484,148.154004 85.2612305,149.302148 C82.2521484,149.715527 79.1876953,149.948145 76.0775391,149.990918 C75.7192383,149.99707 75.3583008,150 75,150 C73.5123047,150 72.0336914,149.957227 70.5673828,149.868457 C65.2713867,149.562305 60.1256836,148.705078 55.181543,147.352148 C52.031543,146.494922 48.9673828,145.43291 45.9978516,144.186914 C44.1213867,143.400293 42.2844727,142.536914 40.4876953,141.603223 C34.9130859,138.710449 29.7459961,135.134766 25.1018555,130.993066 C21.759082,128.011523 18.6823242,124.73584 15.9181641,121.206445 C13.9130859,118.647363 12.0703125,115.950293 10.4080078,113.140137 C6.49277344,106.52168 3.56630859,99.2513672 1.82753906,91.5310547 C0.63046875,86.2133789 0,80.681543 0,75 C0,69.318457 0.63046875,63.7866211 1.82753906,58.4695312 C3.56630859,50.7492187 6.49277344,43.4786133 10.4080078,36.8604492 C12.0703125,34.050293 13.9130859,31.3532227 15.9181641,28.7941406 C18.6823242,25.2644531 21.759082,21.9890625 25.1018555,19.0075195 C27.2416992,17.0973633 29.4916992,15.309668 31.8427734,13.6564453 C44.0449219,5.05107422 58.931543,0 75,0 C116.421387,0 150,33.5786133 150,75 Z" id="Shape" fill="#F4A14E"></path>
                    <g id="Group" transform="translate(0.000000, 58.300781)" fill="#F9AF6B">
                        <path d="M0,16.6992188 C0,11.0176758 0.63046875,5.48583984 1.82753906,0.16875 L23.2652344,0.16875 C24.7866211,0.16875 26.1641602,0.783984375 27.1623047,1.78212891 C28.1572266,2.77998047 28.7756836,4.15751953 28.7756836,5.67919922 C28.7756836,8.72197266 26.3083008,11.1893555 23.2655273,11.1893555 L5.51015625,11.1893555 C2.46738281,11.1890625 0,13.6564453 0,16.6992188 Z" id="Shape"></path>
                        <path d="M37.3470703,27.7195312 C37.3470703,30.7623047 34.8796875,33.2296875 31.8369141,33.2296875 L1.82753906,33.2296875 C0.63046875,27.9125977 0,22.3807617 0,16.6992188 C0,19.7419922 2.46738281,22.209375 5.51015625,22.209375 L31.8366211,22.209375 C33.3580078,22.209375 34.7355469,22.8246094 35.7336914,23.8227539 C36.7286133,24.8206055 37.3470703,26.1981445 37.3470703,27.7195312 Z" id="Shape"></path>
                    </g>
                    <path d="M150,75 C150,79.1387695 149.663379,83.1978516 149.020312,87.1561523 C147.018164,99.431543 142.037695,110.706152 134.843848,120.214453 C127.980469,129.284766 119.1,136.748145 108.872461,141.933691 C63.1989258,126.557227 30.3061523,83.3847656 30.3061523,32.531543 C30.3061523,26.1029297 30.8326172,19.7967773 31.8427734,13.6561523 C44.0449219,5.05107422 58.931543,0 75,0 C82.7416992,0 90.2112305,1.17246094 97.2366211,3.35214844 C117.440625,9.61552734 133.989551,24.1869141 142.885547,43.0775391 C147.45,52.7633789 150,63.5847656 150,75 Z" id="Shape" fill="#4BC999"></path>
                    <path d="M25.1021484,16.5 L25.1021484,130.992773 C21.759375,128.01123 18.6826172,124.735547 15.918457,121.206152 C13.9133789,118.64707 12.0706055,115.95 10.4083008,113.139844 L10.4083008,16.5 C10.4083008,13.8123047 12.5879883,11.6326172 15.2756836,11.6326172 L20.2347656,11.6326172 C22.9224609,11.6326172 25.1021484,13.8123047 25.1021484,16.5 Z" id="Shape" fill="#C69A6A"></path>
                    <g id="Group" transform="translate(46.875000, 3.222656)" fill="#5BD3A2">
                        <path d="M96.0108398,39.8548828 L17.4260742,39.8548828 C15.9046875,39.8548828 14.5271484,39.2396484 13.5322266,38.2415039 C12.534375,37.2436523 11.9188477,35.8661133 11.9188477,34.3444336 C11.9188477,31.3016602 14.3830078,28.8342773 17.4260742,28.8342773 L34.1771484,28.8342773 C35.6985352,28.8342773 37.0760742,28.219043 38.0742188,27.2208984 C39.0723633,26.2227539 39.6875977,24.8455078 39.6875977,23.3238281 C39.6875977,20.2810547 37.2202148,17.8136719 34.1774414,17.8136719 L29.502832,17.8136719 C27.9814453,17.8136719 26.6039063,17.1984375 25.6057617,16.200293 C24.6108398,15.2024414 23.9923828,13.8249023 23.9923828,12.3032227 C23.9923828,9.26044922 26.4597656,6.79306641 29.5025391,6.79306641 L44.9771484,6.79306641 C46.4985352,6.79306641 47.8760742,6.17783203 48.8742188,5.1796875 C49.8720703,4.18476563 50.4875977,2.80722656 50.4875977,1.28583984 C50.4875977,0.887988281 50.4448242,0.502148438 50.362207,0.128613281 C70.565918,6.39257812 87.1148437,20.9639648 96.0108398,39.8548828 Z" id="Shape"></path>
                        <path d="M102.145312,83.9334961 C100.143164,96.2088867 95.1626953,107.483496 87.9688477,116.991797 L71.8883789,116.991797 C70.3669922,116.991797 68.9894531,116.376562 67.9913086,115.378418 C66.9963867,114.380566 66.3779297,113.003027 66.3779297,111.481348 C66.3779297,108.438574 68.8453125,105.971191 71.8880859,105.971191 L73.4188477,105.971191 C74.9402344,105.971191 76.3177734,105.355957 77.315918,104.357812 C78.3108398,103.359961 78.9292969,101.982422 78.9292969,100.460742 C78.9292969,97.4179687 76.4619141,94.9505859 73.4191406,94.9505859 L58.4003906,94.9505859 C56.8790039,94.9505859 55.5014648,94.3353516 54.5033203,93.337207 C53.5083984,92.3393555 52.8899414,90.9618164 52.8899414,89.4401367 C52.8899414,86.3973633 55.3573242,83.9329102 58.4000977,83.9329102 L102.145312,83.9329102 L102.145312,83.9334961 Z" id="Shape"></path>
                        <path d="M63.4300781,57.3099609 L63.4300781,57.309375 C63.4300781,54.2666016 60.9632812,51.7998047 57.9205078,51.7998047 L5.57578125,51.7998047 C2.53300781,51.7998047 0.0662109375,54.2666016 0.0662109375,57.309375 L0.0662109375,57.3099609 C0.0662109375,60.3527344 2.53300781,62.8195313 5.57578125,62.8195313 L14.3000977,62.8195313 C17.3428711,62.8195313 19.809668,65.2863281 19.809668,68.3291016 L19.809668,68.3296875 C19.809668,71.3724609 22.2764648,73.8392578 25.3192383,73.8392578 L68.9402344,73.8392578 C71.9830078,73.8392578 74.4498047,71.3724609 74.4498047,68.3296875 L74.4498047,68.3291016 C74.4498047,65.2863281 71.9830078,62.8195312 68.9402344,62.8195312 C65.896875,62.8195313 63.4300781,60.3527344 63.4300781,57.3099609 Z" id="Shape"></path>
                    </g>
                    <path d="M20.5101563,11.6478516 C17.9510742,11.7887695 15.918457,13.9040039 15.918457,16.5 L15.918457,121.206152 C13.9133789,118.64707 12.0706055,115.95 10.4083008,113.139844 L10.4083008,16.5 C10.4083008,13.8123047 12.5879883,11.6326172 15.2756836,11.6326172 L20.2347656,11.6326172 C20.3296875,11.6326172 20.418457,11.6416992 20.5101563,11.6478516 Z" id="Shape" fill="#B58657"></path>
                    <path d="M55.181543,16.5 L55.181543,147.352148 C52.031543,146.494922 48.9673828,145.43291 45.9978516,144.186914 C44.1213867,143.400293 42.2844727,142.536914 40.4876953,141.603223 L40.4876953,16.5 C40.4876953,13.8123047 42.6673828,11.6326172 45.3550781,11.6326172 L50.3141602,11.6326172 C53.0021484,11.6326172 55.181543,13.8123047 55.181543,16.5 Z" id="Shape" fill="#C69A6A"></path>
                    <path d="M50.5898438,11.6478516 C48.0307617,11.7887695 45.9981445,13.9040039 45.9981445,16.5 L45.9981445,144.186621 C44.1216797,143.4 42.2847656,142.536621 40.4879883,141.60293 L40.4879883,16.5 C40.4879883,13.8123047 42.6676758,11.6326172 45.3553711,11.6326172 L50.3144531,11.6326172 C50.4061523,11.6326172 50.4978516,11.6416992 50.5898438,11.6478516 Z" id="Shape" fill="#B58657"></path>
                    <path d="M85.2612305,16.5 L85.2612305,149.302148 C82.2521484,149.715527 79.1876953,149.948145 76.0775391,149.990918 C75.7192383,149.99707 75.3583008,150 75,150 C73.5123047,150 72.0336914,149.957227 70.5673828,149.868457 L70.5673828,16.5 C70.5673828,13.8123047 72.7470703,11.6326172 75.4347656,11.6326172 L80.3938477,11.6326172 C83.081543,11.6326172 85.2612305,13.8123047 85.2612305,16.5 Z" id="Shape" fill="#C69A6A"></path>
                    <path d="M80.6695312,11.6478516 C78.1104492,11.7887695 76.077832,13.9040039 76.077832,16.5 L76.077832,149.990918 C75.7192383,149.99707 75.3583008,150 75,150 C73.5123047,150 72.0336914,149.957227 70.5673828,149.868457 L70.5673828,16.5 C70.5673828,13.8123047 72.7470703,11.6326172 75.4347656,11.6326172 L80.3938477,11.6326172 C80.4858398,11.6326172 80.5775391,11.6416992 80.6695312,11.6478516 Z" id="Shape" fill="#B58657"></path>
                    <g id="Group" transform="translate(19.042969, 16.699219)" fill="#D3AA81">
                        <path d="M2.58984375,34.0977539 C1.29375,34.0977539 0.242871094,33.047168 0.242871094,31.7507812 L0.242871094,2.56728516 C0.242871094,1.27119141 1.29345703,0.2203125 2.58984375,0.2203125 C3.8859375,0.2203125 4.93681641,1.27089844 4.93681641,2.56728516 L4.93681641,31.7507812 C4.93652344,33.046875 3.8859375,34.0977539 2.58984375,34.0977539 Z" id="Shape"></path>
                        <path d="M33.0383789,34.0977539 C31.7422852,34.0977539 30.6914062,33.047168 30.6914062,31.7507812 L30.6914062,2.56728516 C30.6914062,1.27119141 31.7419922,0.2203125 33.0383789,0.2203125 C34.3344727,0.2203125 35.3853516,1.27089844 35.3853516,2.56728516 L35.3853516,31.7507812 C35.3850586,33.046875 34.3344727,34.0977539 33.0383789,34.0977539 Z" id="Shape"></path>
                        <path d="M62.4260742,34.0977539 C61.1299805,34.0977539 60.0791016,33.047168 60.0791016,31.7507812 L60.0791016,2.56728516 C60.0791016,1.27119141 61.1296875,0.2203125 62.4260742,0.2203125 C63.722168,0.2203125 64.7730469,1.27089844 64.7730469,2.56728516 L64.7730469,31.7507812 C64.7727539,33.046875 63.722168,34.0977539 62.4260742,34.0977539 Z" id="Shape"></path>
                    </g>
                    <path d="M148.065234,11.2775391 L118.959082,40.3804688 C117.373242,41.9692383 116.574316,44.0478516 116.574316,46.1264648 C116.574316,48.2112305 117.373242,50.2927734 118.959082,51.8786133 L110.305078,60.5326172 L107.491699,63.3489258 L103.836621,67.0010742 L101.023242,69.8173828 L45.0858398,125.752148 C42.6216797,128.216309 38.6296875,128.216309 36.1655273,125.752148 L24.2452148,113.834766 C21.7839844,111.370605 21.7810547,107.378613 24.2452148,104.914453 L26.0024414,103.157227 L31.3107422,97.8489258 L45.3893555,83.7703125 L50.6422852,78.5173828 L80.1826172,48.9764648 L82.9989258,46.1630859 L86.6510742,42.5080078 L89.4644531,39.6946289 L98.118457,31.040625 C101.295996,34.2152344 106.441992,34.2152344 109.619531,31.040625 L138.722461,1.93154297 C140.01123,0.645996094 141.704004,0 143.390918,0 C145.083691,0 146.776758,0.645996094 148.065527,1.93154297 C150.642773,4.51230469 150.642773,8.69384766 148.065234,11.2775391 Z" id="Shape" fill="#FFD15C"></path>
                    <g id="Group" transform="translate(79.980469, 39.550781)" fill="#FF525D">
                        <polygon id="Shape" points="30.3246094 20.9818359 27.5112305 23.7981445 6.67060547 2.95751953 9.48369141 0.144140625"></polygon>
                        <polygon id="Shape" points="23.8561523 27.450293 21.0430664 30.2666016 0.202148437 9.42568359 3.01845703 6.61259766"></polygon>
                    </g>
                    <path d="M49.781543,93.8296875 C49.781543,101.406152 43.6376953,107.55 36.0612305,107.55 C32.0847656,107.55 28.5061523,105.860156 26.0021484,103.157227 L31.3104492,97.8489258 L45.3890625,83.7703125 C48.0916992,86.2746094 49.781543,89.8529297 49.781543,93.8296875 Z" id="Shape" fill="#EDBB4C"></path>
                    <path d="M53.9141602,87.2724609 L53.9141602,87.4010742 C53.9141602,94.9775391 47.7703125,101.121387 40.1938477,101.121387 C32.6141602,101.121387 26.4703125,94.9775391 26.4703125,87.4010742 C26.4703125,81.8449219 29.7703125,77.0630859 34.5181641,74.9050781 C36.2478516,74.118457 38.1703125,73.6804688 40.1935547,73.6804688 C47.7275391,73.6804688 53.8438477,79.7510742 53.9141602,87.2724609 Z" id="Shape" fill="#EF4152"></path>
                    <path d="M53.9141602,87.2724609 C52.059082,91.2061523 48.0612305,93.9275391 43.4232422,93.9275391 C37.0192383,93.9275391 31.8272461,88.7358398 31.8272461,82.331543 C31.8272461,79.5061523 32.8374023,76.9163086 34.5181641,74.9050781 C36.2478516,74.118457 38.1703125,73.6804687 40.1935547,73.6804687 C47.7275391,73.6804688 53.8438477,79.7510742 53.9141602,87.2724609 Z" id="Shape" fill="#FF525D"></path>
                    <path d="M148.065234,11.2775391 L118.959082,40.3804687 C117.373242,41.9692383 116.574316,44.0478516 116.574316,46.1264648 C116.574316,48.2112305 117.373242,50.2927734 118.959082,51.8786133 L98.1181641,31.040918 C101.295703,34.2155273 106.441699,34.2155273 109.619238,31.040918 L138.722168,1.93183594 C140.01123,0.645996094 141.704004,0 143.390918,0 C145.083691,0 146.776758,0.645996094 148.065527,1.93154297 C150.642773,4.51230469 150.642773,8.69384766 148.065234,11.2775391 Z" id="Shape" fill="#B58657"></path>
                    <path d="M92.3698242,67.6163086 C90.7558594,66.0023438 88.1396484,66.0023438 86.5256836,67.6163086 L57.6295898,96.5124023 C56.015625,98.1263672 56.015625,100.742578 57.6295898,102.356543 C59.2435547,103.970508 61.8597656,103.970508 63.4737305,102.356543 L92.3698242,73.4604492 C93.9834961,71.8464844 93.9834961,69.2302734 92.3698242,67.6163086 Z" id="Shape" fill="#FFDC8D"></path>
                    <g id="Group" transform="translate(38.671875, 76.171875)" fill="#FF6E7C">
                        <circle id="Oval" cx="7.24658203" cy="5.95166016" r="2.90830078"></circle>
                        <circle id="Oval" cx="2.33642578" cy="2.38535156" r="2.22685547"></circle>
                    </g>
                    <path d="M78.5396484,5.78642578 L69.0225586,5.78642578 C67.9681641,3.67734375 65.79375,2.22568359 63.2753906,2.22568359 C60.7570313,2.22568359 58.5826172,3.67734375 57.5279297,5.78642578 L39.2097656,5.78642578 C38.1550781,3.67734375 35.9806641,2.22568359 33.4623047,2.22568359 C30.9439453,2.22568359 28.7695313,3.67734375 27.7148438,5.78642578 L18.1983398,5.78642578 C16.5837891,5.78642578 15.2750977,7.09511719 15.2750977,8.70966797 C15.2750977,10.3242188 16.5837891,11.6329102 18.1983398,11.6329102 L27.769043,11.6329102 C28.8436523,13.6825195 30.9881836,15.0826172 33.4628906,15.0826172 C35.9375977,15.0826172 38.0824219,13.6825195 39.1567383,11.6329102 L57.581543,11.6329102 C58.6561523,13.6825195 60.8006836,15.0826172 63.2753906,15.0826172 C65.7500977,15.0826172 67.8949219,13.6825195 68.9692383,11.6329102 L78.5399414,11.6329102 C80.1544922,11.6329102 81.4631836,10.3242188 81.4631836,8.70966797 C81.4631836,7.09511719 80.1541992,5.78642578 78.5396484,5.78642578 Z" id="Shape" fill="#C69A6A"></path>
                    <path d="M78.5396484,8.16826172 L68.9692383,8.16826172 C67.8946289,10.2178711 65.7500977,11.6179687 63.2753906,11.6179687 C60.8006836,11.6179687 58.6558594,10.2178711 57.581543,8.16826172 L39.1564453,8.16826172 C38.0818359,10.2178711 35.9373047,11.6179687 33.4625977,11.6179687 C30.9878906,11.6179687 28.8430664,10.2178711 27.76875,8.16826172 L18.1983398,8.16826172 C17.2330078,8.16826172 16.3798828,7.69833984 15.8475586,6.97734375 C15.4892578,7.4625 15.2750977,8.06044922 15.2750977,8.70966797 C15.2750977,10.3242187 16.5837891,11.6329102 18.1983398,11.6329102 L27.769043,11.6329102 C28.8436523,13.6825195 30.9881836,15.0826172 33.4628906,15.0826172 C35.9375977,15.0826172 38.0824219,13.6825195 39.1567383,11.6329102 L57.581543,11.6329102 C58.6561523,13.6825195 60.8006836,15.0826172 63.2753906,15.0826172 C65.7500977,15.0826172 67.8949219,13.6825195 68.9692383,11.6329102 L78.5399414,11.6329102 C80.1544922,11.6329102 81.4631836,10.3242187 81.4631836,8.70966797 C81.4631836,8.06044922 81.2490234,7.4625 80.8907227,6.97734375 C80.3583984,7.69833984 79.5049805,8.16826172 78.5396484,8.16826172 Z" id="Shape" fill="#B58657"></path>
                    <g id="Group" transform="translate(32.226562, 4.101562)" fill="#D3AA81">
                        <circle id="Oval" cx="2.53681641" cy="2.52099609" r="2.36689453"></circle>
                        <circle id="Oval" cx="32.7723633" cy="2.52099609" r="2.36689453"></circle>
                    </g>
                </g>
            </g>
            <text id="Cricket" font-family="HelveticaNeue, Helvetica Neue" font-size="14" font-weight="normal" line-spacing="33" letter-spacing="0.466666728" fill="#333333">
                <tspan x="79.6866665" y="189">CRICKET</tspan>
            </text>
        </g>
    </g>
</svg>