<?xml version="1.0" encoding="UTF-8"?>
<svg width="31px" height="31px" viewBox="0 0 31 31" version="1.1" xmlns="http://www.w3.org/2000/svg" xmlns:xlink="http://www.w3.org/1999/xlink">
    <!-- Generator: Sketch 49 (51002) - http://www.bohemiancoding.com/sketch -->
    <title>Group 37</title>
    <desc>Created with Sketch.</desc>
    <defs></defs>
    <g id="Page-1" stroke="none" stroke-width="1" fill="none" fill-rule="evenodd">
        <g id="Anonymous_ConfirmOrigin" transform="translate(-324.000000, -31.000000)" fill-rule="nonzero">
            <g id="Group-9" transform="translate(0.000000, 20.000000)">
                <g id="Group-37" transform="translate(324.000000, 11.000000)">
                    <path d="M11.5110248,21 C11.3801588,21 11.2492928,20.9502479 11.1497802,20.8500622 C10.9500733,20.6503723 10.9500733,20.3259614 11.1497802,20.1262715 L20.127049,11.1497674 C20.326756,10.9500775 20.6505129,10.9500775 20.8502198,11.1497674 C21.0499267,11.3494573 21.0499267,11.6731867 20.8502198,11.8728766 L11.8722694,20.8500622 C11.7727567,20.9502479 11.6418907,21 11.5110248,21 Z" id="Shape" fill="#FFFFFF"></path>
                    <path d="M20.4889752,21 C20.3581093,21 20.2272433,20.9502445 20.1277306,20.850052 L11.1497802,11.8729361 C10.9500733,11.6732326 10.9500733,11.3494811 11.1497802,11.1497776 C11.3494871,10.9500741 11.673244,10.9500741 11.872951,11.1497776 L20.8502198,20.1268935 C21.0499267,20.326597 21.0499267,20.65103 20.8502198,20.8507336 C20.7507072,20.9502445 20.6198412,21 20.4889752,21 Z" id="Shape" fill="#FFFFFF"></path>
                    <path d="M15.5,31 C6.95289118,31 0,24.0467945 0,15.5007008 C0,6.95390632 6.95289118,0 15.5,0 C24.0471088,0 31,6.95320553 31,15.5007008 C31,24.048196 24.0457073,31 15.5,31 Z M15.5,1.05118003 C7.53311633,1.05118003 1.05113251,7.53345691 1.05113251,15.5007008 C1.05113251,23.4679447 7.53311633,29.9502215 15.5,29.9502215 C23.4668837,29.9502215 29.9488675,23.4679447 29.9488675,15.5007008 C29.9488675,7.53345691 23.4668837,1.05118003 15.5,1.05118003 Z" id="Shape" fill="#909090"></path>
                </g>
            </g>
        </g>
    </g>
</svg>