<?xml version="1.0" encoding="UTF-8"?>
<svg width="28px" height="17px" viewBox="0 0 28 17" version="1.1" xmlns="http://www.w3.org/2000/svg" xmlns:xlink="http://www.w3.org/1999/xlink">
    <!-- Generator: Sketch 47.1 (45422) - http://www.bohemiancoding.com/sketch -->
    <title>Shape</title>
    <desc>Created with Sketch.</desc>
    <defs></defs>
    <g id="DESIGN" stroke="none" stroke-width="1" fill="none" fill-rule="evenodd">
        <g id="Calendar" transform="translate(-115.000000, -197.000000)" fill-rule="nonzero" fill="#4ED0D3">
            <g id="Group-10" transform="translate(93.000000, 174.000000)">
                <path d="M49.5886753,24.1522819 C49.9169571,25.0612406 49.449465,26.0646739 48.5423739,26.3980815 L28.2878037,33.7710841 L22.2283821,29.5141692 L24.7936133,28.5819505 L28.0824548,30.1171778 L33.9300086,27.9887204 L26.3125431,24.2989596 L29.4123333,23.1711706 L39.5168018,25.9482697 L47.3396162,23.1059805 C48.2495309,22.7755608 49.2552805,23.243453 49.5886753,24.1522819 Z M47.3070211,39.1851235 C47.3070211,38.7350796 46.9421885,38.370247 46.4921446,38.370247 L25.4292169,38.370247 C24.9791731,38.370247 24.6143404,38.7350796 24.6143404,39.1851235 C24.6143404,39.6351674 24.9791731,40 25.4292169,40 L46.4921446,40 C46.9421885,40 47.3070211,39.6351674 47.3070211,39.1851235 L47.3070211,39.1851235 Z" id="Shape"></path>
            </g>
        </g>
    </g>
</svg>