<?xml version="1.0" encoding="UTF-8"?>
<svg width="36px" height="36px" viewBox="0 0 36 36" version="1.1" xmlns="http://www.w3.org/2000/svg" xmlns:xlink="http://www.w3.org/1999/xlink">
    <!-- Generator: Sketch 49.3 (51167) - http://www.bohemiancoding.com/sketch -->
    <title>restaurant (1)</title>
    <desc>Created with Sketch.</desc>
    <defs></defs>
    <g id="Page-1" stroke="none" stroke-width="1" fill="none" fill-rule="evenodd">
        <g id="ProfileHome1" transform="translate(-252.000000, -532.000000)" fill="#FFFFFF" fill-rule="nonzero">
            <g id="Group-9" transform="translate(30.000000, 493.000000)">
                <g id="Group-8" transform="translate(165.000000, 0.000000)">
                    <g id="restaurant-(1)" transform="translate(57.000000, 39.000000)">
                        <path d="M11.4012,22.3821551 C11.2483102,22.3950122 11.0957878,22.4016245 10.942898,22.4016245 C10.5246367,22.4016245 10.1178367,22.3409388 9.71948571,22.2487347 L0.502089796,31.4664245 C0.0496653061,31.9181878 0.0496653061,32.652 0.502089796,33.1038367 L2.88764082,35.4899755 C3.34006531,35.9418122 4.07306939,35.9418122 4.5242449,35.4899755 L15.6023265,24.413951 L13.549298,22.198849 L11.4012,22.3821551 Z" id="XMLID_98_"></path>
                        <path d="M35.658,7.61502857 C35.2254122,7.18266122 34.5253224,7.18266122 34.0928082,7.61502857 L28.1195265,13.5881633 C27.5543265,14.1527755 26.6388245,14.1527755 26.0736245,13.5881633 C25.5109224,13.0239918 25.5109224,12.1092245 26.0736245,11.5452 L32.0173714,5.60270204 C32.4664163,5.15321633 32.4664163,4.42454694 32.0173714,3.97403265 C31.5661959,3.52513469 30.8378204,3.52513469 30.3887755,3.97403265 L24.4474531,9.91594286 C23.8822531,10.4811429 22.9677796,10.4811429 22.4025796,9.91594286 C21.8385551,9.35199184 21.8385551,8.43656327 22.4025796,7.87305306 L28.3746122,1.90050612 C28.8083755,1.46747755 28.8083755,0.766065306 28.3746122,0.33244898 C27.9420245,-0.100653061 27.2406857,-0.100653061 26.8069224,0.33244898 L20.0875592,7.05217959 C18.4720408,8.66872653 17.9617224,10.9378286 18.484751,13.0025388 L22.9891592,17.5072408 C25.0537224,18.0283592 27.3239265,17.5178204 28.9376082,15.9025959 L35.6579265,9.18323265 C36.0917633,8.75020408 36.0917633,8.04805714 35.658,7.61502857 Z" id="XMLID_97_"></path>
                        <path d="M3.01907755,0.939746939 C2.78882449,0.709420408 2.47746122,0.583126531 2.15772245,0.583126531 C2.0896898,0.583126531 2.0212898,0.588930612 1.95450612,0.600097959 C1.56548571,0.665926531 1.23171429,0.91564898 1.06023673,1.27109388 C-0.908008163,5.33931429 -0.085444898,10.207249 3.10959184,13.4024327 L8.82558367,19.1176898 C9.38953469,19.682302 10.1520735,19.9948408 10.942898,19.9948408 C11.0274612,19.9948408 11.1122449,19.9913143 11.1968082,19.9843347 L14.5154939,19.7011102 L28.9868327,35.3125469 C29.211502,35.5552163 29.5262449,35.6961306 29.8578122,35.7026694 C29.8646449,35.7026694 29.8717714,35.7026694 29.8789714,35.7026694 C30.2031184,35.7026694 30.5134531,35.5746122 30.7437796,35.3459755 L33.2221959,32.8670449 C33.4512,32.6385551 33.5791837,32.3284408 33.5791837,32.005249 C33.5791837,31.6821306 33.4512,31.3717959 33.223151,31.1433061 L3.01907755,0.939746939 Z" id="XMLID_96_"></path>
                    </g>
                </g>
            </g>
        </g>
    </g>
</svg>