<?xml version="1.0" encoding="UTF-8"?>
<svg width="184px" height="188px" viewBox="0 0 184 188" version="1.1" xmlns="http://www.w3.org/2000/svg" xmlns:xlink="http://www.w3.org/1999/xlink">
    <!-- Generator: Sketch 49.2 (51160) - http://www.bohemiancoding.com/sketch -->
    <title>Group</title>
    <desc>Created with Sketch.</desc>
    <defs></defs>
    <g id="Page-1" stroke="none" stroke-width="1" fill="none" fill-rule="evenodd">
        <g id="RewardScreen" transform="translate(-96.000000, -314.000000)">
            <g id="Group" transform="translate(98.000000, 316.000000)">
                <g id="Group-7-Copy" stroke="#666666" stroke-dasharray="4" stroke-width="3">
                    <path d="M90,183.630558 C139.705627,183.630558 180,142.523457 180,91.8152789 C180,41.1071006 139.705627,0 90,0 C40.2943725,0 0,41.1071006 0,91.8152789 C0,142.523457 40.2943725,183.630558 90,183.630558 Z" id="Oval"></path>
                </g>
                <g id="gift" transform="translate(41.052632, 40.000000)" fill-rule="nonzero">
                    <path d="M91.1277632,21.4989165 L69.2858158,21.4989165 C71.4093158,19.2182936 72.7115197,16.166065 72.7115197,12.8146382 L72.7115197,12.7706743 C72.7113158,5.72913651 66.9708092,0 59.9146382,0 L59.6654145,0 C55.1620526,0 51.1975197,2.33557771 48.9161645,5.85471834 C46.6350132,2.33557771 42.6704803,0 38.1671184,0 L37.9178947,0 C30.8617237,0 25.1212171,5.72913651 25.1212171,12.7708779 L25.1212171,12.8148417 C25.1212171,16.1662685 26.4234211,19.2184971 28.5469211,21.4991201 L6.76697368,21.4991201 C3.10285526,21.4991201 0.122164474,24.4740049 0.122164474,28.1305325 L0.122164474,38.8988178 C0.122164474,40.027426 1.03890789,40.9421176 2.16959211,40.9421176 L4.53313816,40.9421176 L4.53313816,97.4714433 C4.53313816,101.187403 7.56236842,104.210526 11.2858355,104.210526 L86.6089013,104.210526 C90.3323684,104.210526 93.3615987,101.187403 93.3615987,97.4714433 L93.3615987,40.9421176 L95.7251447,40.9421176 C96.8560329,40.9421176 97.7725724,40.0272225 97.7725724,38.8988178 L97.7725724,28.1305325 C97.7725724,24.4738014 94.7918816,21.4989165 91.1277632,21.4989165 Z M50.9637961,12.7708779 C50.9637961,7.98248561 54.8673487,4.08659951 59.6654145,4.08659951 L59.9146382,4.08659951 C64.7127039,4.08659951 68.6164605,7.98228207 68.6164605,12.7708779 L68.6164605,12.8148417 C68.6164605,17.603234 64.7129079,21.4991201 59.9146382,21.4991201 L56.84625,21.4991201 L50.9637961,21.4991201 L50.9637961,12.7708779 Z M54.7988224,25.585516 L54.7988224,36.8553146 L43.0961184,36.8553146 L43.0961184,25.585516 L54.7988224,25.585516 Z M29.2160724,12.7708779 C29.2160724,7.98248561 33.119625,4.08659951 37.9178947,4.08659951 L38.1671184,4.08659951 C42.9651842,4.08659951 46.8689408,7.98228207 46.8689408,12.7708779 L46.8689408,21.4989165 L41.0484868,21.4989165 L37.9178947,21.4989165 C33.1198289,21.4989165 29.2160724,17.603234 29.2160724,12.8148417 L29.2160724,12.7708779 Z M4.21701974,36.8555181 L4.21701974,28.1305325 C4.21701974,26.727354 5.36096053,25.5857196 6.76697368,25.5857196 L39.0010592,25.5857196 L39.0010592,36.8555181 L4.21701974,36.8555181 Z M93.6777171,36.8553146 L86.6668224,36.8553146 C85.5359342,36.8553146 84.6193947,37.7702097 84.6193947,38.8986143 C84.6193947,40.0272225 85.5361382,40.9419141 86.6668224,40.9419141 L89.2667434,40.9419141 L89.2667434,97.4714433 C89.2667434,98.9340543 88.0744671,100.123723 86.6091053,100.123723 L11.2858355,100.123723 C9.82026974,100.123723 8.62819737,98.9338507 8.62819737,97.4714433 L8.62819737,40.9421176 L41.8734539,40.9421176 L41.8734539,75.1398602 C41.8734539,76.2684683 42.7901974,77.18316 43.9208816,77.18316 C45.0517697,77.18316 45.9683092,76.2682648 45.9683092,75.1398602 L45.9683092,40.9421176 L51.9264276,40.9421176 L51.9264276,82.1016118 C51.9264276,83.23022 52.8431711,84.1449116 53.9738553,84.1449116 C55.1047434,84.1449116 56.0212829,83.2300164 56.0212829,82.1016118 L56.0212829,40.9421176 L71.6895395,40.9421176 C72.8204276,40.9421176 73.7369671,40.0272225 73.7369671,38.8988178 C73.7369671,37.7702097 72.8202237,36.8555181 71.6895395,36.8555181 L58.8934737,36.8555181 L58.8934737,25.5857196 L91.1277632,25.5857196 C92.5337763,25.5857196 93.6777171,26.727354 93.6777171,28.1305325 L93.6777171,36.8553146 Z" id="Shape" fill="#666666"></path>
                    <ellipse id="Oval" fill="#C60C30" cx="43.9200658" cy="82.6641859" rx="2.05171053" ry="2.04757401"></ellipse>
                    <ellipse id="Oval" fill="#C60C30" cx="53.9746711" cy="89.7798109" rx="2.05171053" ry="2.04757401"></ellipse>
                    <ellipse id="Oval" fill="#C60C30" cx="79.55375" cy="38.8998355" rx="2.05171053" ry="2.04757401"></ellipse>
                </g>
            </g>
        </g>
    </g>
</svg>