<?xml version="1.0" encoding="UTF-8"?>
<svg width="36px" height="36px" viewBox="0 0 36 36" version="1.1" xmlns="http://www.w3.org/2000/svg" xmlns:xlink="http://www.w3.org/1999/xlink">
    <!-- Generator: Sketch 49.1 (51147) - http://www.bohemiancoding.com/sketch -->
    <title>Early morning icon</title>
    <desc>Created with Sketch.</desc>
    <defs></defs>
    <g id="Page-1" stroke="none" stroke-width="1" fill="none" fill-rule="evenodd">
        <g id="Anonymous_FlightDetails" transform="translate(-32.000000, -1346.000000)">
            <g id="Group-14" transform="translate(31.000000, 1288.000000)">
                <g id="Early-morning" transform="translate(1.000000, 56.000000)">
                    <g id="Early-morning-icon" transform="translate(0.000000, 2.000000)">
                        <circle id="Oval-3" fill="#666666" cx="18" cy="18" r="18"></circle>
                        <g id="moon" transform="translate(9.000000, 11.250000)" stroke="#FFFFFF" stroke-linecap="round" stroke-width="0.5">
                            <g id="64px-partly-sunny-weather">
                                <g id="Livello_1">
                                    <g id="Partly_Sunny_Weather">
                                        <path d="M16.9009615,11.4307337 C16.5473904,12.0174761 15.9132781,12.3757389 15.2296442,12.375 L6.43846154,12.375 C5.91506922,12.3768853 5.41270307,12.1685936 5.04346154,11.7966033 L5.00322115,11.7535598 L4.73495192,11.4361141 C4.43786073,10.9214653 4.28492547,10.3358927 4.29230769,9.74127717 C4.29230769,8.23744565 5.60950962,7.01608696 7.24326923,7.01608696 C7.65857584,7.01565995 8.06983086,7.09795878 8.45316346,7.25820652 L8.45316346,7.05375 C8.41998573,5.28708913 9.80929419,3.82194527 11.5704519,3.76630435 C13.3007885,3.76630435 14.7011538,5.24054348 14.7011538,7.05644022 C14.7011822,7.3458663 14.6651335,7.63416098 14.5938462,7.91461957 L14.7950481,7.91461957 C14.961375,7.91461957 16.077375,7.9657337 16.7373173,8.85888587 C17.0532251,9.31093239 17.205615,9.85765783 17.1692308,10.4084511 C17.1694664,10.6857819 17.1138039,10.9602995 17.0055865,11.2155163 C16.9070056,11.4469449 16.7659545,11.6577462 16.5897692,11.8369565" id="Shape"></path>
                                        <path d="M9.58794231,2.76016304 L10.8005192,1.54418478" id="Shape"></path>
                                        <path d="M1.53986538,10.8308152 L2.75244231,9.61483696" id="Shape"></path>
                                        <path d="M1.53986538,1.97461957 L2.75244231,3.19059783" id="Shape"></path>
                                        <path d="M9.38942308,4.69711957 C8.68282798,3.50499424 7.33162539,2.85478152 5.9621663,3.04788804 C4.59270722,3.24099456 3.47271416,4.23966893 3.1213608,5.58097487 C2.77000743,6.92228081 3.25598161,8.3439996 4.35400962,9.18709239" id="Shape"></path>
                                    </g>
                                </g>
                            </g>
                        </g>
                    </g>
                </g>
            </g>
        </g>
    </g>
</svg>