<?xml version="1.0" encoding="UTF-8"?>
<svg width="18px" height="18px" viewBox="0 0 18 18" version="1.1" xmlns="http://www.w3.org/2000/svg" xmlns:xlink="http://www.w3.org/1999/xlink">
    <!-- Generator: Sketch 49.1 (51147) - http://www.bohemiancoding.com/sketch -->
    <title>Group</title>
    <desc>Created with Sketch.</desc>
    <defs></defs>
    <g id="Page-1" stroke="none" stroke-width="1" fill="none" fill-rule="evenodd">
        <g id="Anonymous_FlightDetails" transform="translate(-33.000000, -757.000000)" fill="#666666" fill-rule="nonzero">
            <g id="Group-17" transform="translate(18.000000, 553.000000)">
                <g id="Group-41" transform="translate(1.000000, 67.000000)">
                    <g id="Group" transform="translate(14.000000, 137.000000)">
                        <path d="M7.43478261,12.2869565 L7.43478261,6.84782609 L12.5608696,9.58695652 L7.43478261,12.2869565 Z M8.2173913,8.13913043 L8.2173913,10.9565217 L10.9173913,9.54782609 L8.2173913,8.13913043 Z" id="Shape"></path>
                        <path d="M13.4608696,17.4130435 C13.1869565,17.4130435 12.9521739,17.3347826 12.6782609,17.2173913 L9.39130435,15.4956522 C9.15652174,15.3782609 8.84347826,15.3782609 8.56956522,15.4956522 L5.2826087,17.2173913 C4.57826087,17.5695652 3.7173913,17.4130435 3.24782609,16.826087 C2.93478261,16.4347826 2.8173913,15.9652174 2.89565217,15.4956522 L3.52173913,11.8173913 C3.56086957,11.5434783 3.4826087,11.2304348 3.28695652,11.0347826 L0.626086957,8.45217391 C0.156521739,8.02173913 1.08246745e-15,7.35652174 0.195652174,6.76956522 C0.391304348,6.1826087 0.9,5.75217391 1.52608696,5.63478261 L5.20434783,5.08695652 C5.47826087,5.04782609 5.75217391,4.85217391 5.86956522,4.6173913 L7.51304348,1.29130435 C7.78695652,0.704347826 8.37391304,0.352173913 9,0.352173913 C9.62608696,0.352173913 10.2130435,0.704347826 10.4869565,1.29130435 L12.1304348,4.6173913 C12.2478261,4.89130435 12.5217391,5.04782609 12.7956522,5.08695652 L16.473913,5.63478261 C17.1,5.71304348 17.6086957,6.14347826 17.8043478,6.76956522 C18,7.35652174 17.8434783,8.02173913 17.373913,8.45217391 L14.7130435,11.0347826 C14.5173913,11.2304348 14.4,11.5434783 14.4782609,11.8173913 L15.1043478,15.4956522 C15.1826087,16.0043478 15.0652174,16.473913 14.7521739,16.826087 C14.4391304,17.1782609 13.9695652,17.4130435 13.4608696,17.4130435 Z M9,14.5956522 C9.27391304,14.5956522 9.54782609,14.673913 9.7826087,14.7913043 L13.0695652,16.5130435 C13.4217391,16.7086957 13.8913043,16.5913043 14.1652174,16.3173913 C14.3217391,16.1217391 14.4,15.8869565 14.3608696,15.6130435 L13.6956522,11.9347826 C13.6173913,11.3869565 13.773913,10.8391304 14.1652174,10.4869565 L16.826087,7.90434783 C17.0608696,7.66956522 17.1391304,7.3173913 17.0608696,7.00434783 C16.9826087,6.69130435 16.7086957,6.45652174 16.3565217,6.4173913 L12.6782609,5.86956522 C12.1304348,5.79130435 11.6608696,5.43913043 11.426087,4.96956522 L9.7826087,1.60434783 C9.62608696,1.29130435 9.35217391,1.13478261 9,1.13478261 C8.64782609,1.13478261 8.37391304,1.33043478 8.2173913,1.60434783 L6.57391304,4.93043478 C6.33913043,5.4 5.86956522,5.75217391 5.32173913,5.83043478 L1.64347826,6.37826087 C1.29130435,6.4173913 1.05652174,6.65217391 0.939130435,6.96521739 C0.82173913,7.27826087 0.9,7.63043478 1.17391304,7.86521739 L3.83478261,10.4478261 C4.22608696,10.8391304 4.42173913,11.3869565 4.30434783,11.8956522 L3.67826087,15.573913 C3.63913043,15.8478261 3.7173913,16.0826087 3.87391304,16.2782609 C4.14782609,16.5913043 4.57826087,16.6695652 4.96956522,16.473913 L8.25652174,14.7521739 C8.45217391,14.673913 8.72608696,14.5956522 9,14.5956522 Z" id="Shape"></path>
                    </g>
                </g>
            </g>
        </g>
    </g>
</svg>