<?xml version="1.0" encoding="UTF-8"?>
<svg width="38px" height="38px" viewBox="0 0 38 38" version="1.1" xmlns="http://www.w3.org/2000/svg" xmlns:xlink="http://www.w3.org/1999/xlink">
    <!-- Generator: Sketch 49.3 (51167) - http://www.bohemiancoding.com/sketch -->
    <title>Group 16</title>
    <desc>Created with Sketch.</desc>
    <defs></defs>
    <g id="Page-1" stroke="none" stroke-width="1" fill="none" fill-rule="evenodd" stroke-linecap="round">
        <g id="CampaignOffer_PayByMiles" transform="translate(-45.000000, -430.000000)" stroke="#FFFFFF" stroke-width="2">
            <g id="Group-19" transform="translate(0.000000, 1.000000)">
                <g id="Group-17" transform="translate(24.000000, 408.000000)">
                    <g id="Group-16" transform="translate(22.000000, 22.000000)">
                        <path d="M10.5,25.5 C12.8333333,27.5 15.3333333,28.5 18,28.5 C20.6666667,28.5 22.8333333,27.5 24.5,25.5" id="Line-4"></path>
                        <path d="M25.5,13.5 L25.5,16" id="Line-5"></path>
                        <path d="M18.5,12.5 L18.5,19.5 C18.5,20.1666667 18.1666667,20.6666667 17.5,21 C16.8333333,21.3333333 16.1666667,21.3333333 15.5,21" id="Line-6" stroke-linejoin="round"></path>
                        <path d="M10.5,13.5 L10.5,16" id="Line-5"></path>
                        <path d="M0.5,12.5 C0.166666667,8.16666667 1,5 3,3 C5,1 8.16666667,0.166666667 12.5,0.5" id="Line-2"></path>
                        <path d="M23.5,12.5 C23.1666667,8.16666667 24,5 26,3 C28,1 31.1666667,0.166666667 35.5,0.5" id="Line-2" stroke-linejoin="round" transform="translate(29.464286, 6.464286) scale(-1, 1) translate(-29.464286, -6.464286) "></path>
                        <path d="M0.5,35.5 C0.166666667,31.1666667 1,28 3,26 C5,24 8.16666667,23.1666667 12.5,23.5" id="Line-2" transform="translate(6.464286, 29.464286) scale(1, -1) translate(-6.464286, -29.464286) "></path>
                        <path d="M23.5,35.5 C23.1666667,31.1666667 24,28 26,26 C28,24 31.1666667,23.1666667 35.5,23.5" id="Line-2" stroke-linejoin="round" transform="translate(29.464286, 29.464286) scale(-1, -1) translate(-29.464286, -29.464286) "></path>
                    </g>
                </g>
            </g>
        </g>
    </g>
</svg>