<?xml version="1.0" encoding="UTF-8"?>
<svg width="24px" height="23px" viewBox="0 0 24 23" version="1.1" xmlns="http://www.w3.org/2000/svg" xmlns:xlink="http://www.w3.org/1999/xlink">
    <!-- Generator: Sketch 49.2 (51160) - http://www.bohemiancoding.com/sketch -->
    <title>filter</title>
    <desc>Created with Sketch.</desc>
    <defs></defs>
    <g id="Page-1" stroke="none" stroke-width="1" fill="none" fill-rule="evenodd">
        <g id="Anonymous_RecommendedBudgetExperiences-Copy" transform="translate(-325.000000, -35.000000)" fill="#FFFFFF" fill-rule="nonzero">
            <g id="filter" transform="translate(325.000000, 35.000000)">
                <path d="M23.8784516,0.482322581 C23.7586452,0.228193548 23.502871,0.0660967742 23.2219355,0.0660967742 L0.725806452,0.0660967742 C0.444870968,0.0660967742 0.189193548,0.228193548 0.0692903226,0.482322581 C-0.050516129,0.736451613 -0.0129677419,1.03683871 0.165774194,1.2536129 L8.8136129,11.7423871 L8.8136129,21.414 C8.8136129,21.665129 8.9433871,21.8983548 9.15667742,22.0307419 C9.27358065,22.1032258 9.40625806,22.1398065 9.53941935,22.1398065 C9.64945161,22.1398065 9.75987097,22.1147419 9.86167742,22.0643226 L14.7205161,19.6560968 C14.9673871,19.5337742 15.1235806,19.2822581 15.1239677,19.0067419 L15.1334516,11.7426774 L23.7817742,1.25351613 C23.9606129,1.03683871 23.9982581,0.736354839 23.8784516,0.482322581 Z M13.8480968,11.0199677 C13.7411613,11.1496452 13.6825161,11.3125161 13.6823226,11.4807097 L13.6730323,18.5551935 L10.2653226,20.2441935 L10.2653226,11.4816774 C10.2653226,11.3131935 10.2067742,11.1499355 10.0995484,11.0199677 L2.26490323,1.5176129 L21.6827419,1.5176129 L13.8480968,11.0199677 Z" id="Shape"></path>
            </g>
        </g>
    </g>
</svg>