<?xml version="1.0" encoding="UTF-8"?>
<svg width="89px" height="27px" viewBox="0 0 89 27" version="1.1" xmlns="http://www.w3.org/2000/svg" xmlns:xlink="http://www.w3.org/1999/xlink">
    <!-- Generator: Sketch 49.1 (51147) - http://www.bohemiancoding.com/sketch -->
    <title>Indicator</title>
    <desc>Created with Sketch.</desc>
    <defs>
        <filter x="-3.5%" y="-3.0%" width="107.1%" height="106.1%" filterUnits="objectBoundingBox" id="filter-1">
            <feOffset dx="0" dy="0" in="SourceAlpha" result="shadowOffsetOuter1"></feOffset>
            <feGaussianBlur stdDeviation="4" in="shadowOffsetOuter1" result="shadowBlurOuter1"></feGaussianBlur>
            <feColorMatrix values="0 0 0 0 0   0 0 0 0 0   0 0 0 0 0  0 0 0 0.237856658 0" type="matrix" in="shadowBlurOuter1" result="shadowMatrixOuter1"></feColorMatrix>
            <feMerge>
                <feMergeNode in="shadowMatrixOuter1"></feMergeNode>
                <feMergeNode in="SourceGraphic"></feMergeNode>
            </feMerge>
        </filter>
    </defs>
    <g id="Page-1" stroke="none" stroke-width="1" fill="none" fill-rule="evenodd">
        <g id="Anonymous_FlightResults_New" transform="translate(-144.000000, -244.000000)">
            <g id="Group-9" filter="url(#filter-1)" transform="translate(17.000000, 187.000000)">
                <g id="Group-22" transform="translate(18.000000, 46.000000)">
                    <g id="Group-12" transform="translate(116.000000, 2.000000)">
                        <g id="Indicator" transform="translate(0.000000, 15.000000)">
                            <rect id="Rectangle-3-Copy-4" fill="#C0C0C0" x="6" y="7" width="65" height="1" rx="0.5"></rect>
                            <path d="M7.26760386,13.3088978 C7.29936232,13.5113976 7.31830346,13.6523904 7.32214866,13.6692879 C7.32855731,13.7036237 7.34735604,13.7355262 7.37555414,13.7482331 C7.38239004,13.8197434 7.39050767,13.8715174 7.39748599,13.8947683 C7.40503396,13.8715174 7.41243952,13.8197434 7.41998749,13.7482331 C7.44761593,13.7355262 7.46598741,13.7036237 7.4736778,13.6692879 C7.47709575,13.6523904 7.49603689,13.5113976 7.52751052,13.3088978 L9.50792808,13.8867927 L9.54737693,13.8976071 C9.53826239,13.5591161 9.4311666,13.4073089 9.3462875,13.3307969 C9.26283254,13.2552313 7.76135531,12.2657129 7.73486619,12.2482747 C7.89266158,11.6188761 8.06455601,10.2976258 8.06455601,9.54223942 L8.06455601,8.00024 L8.12308842,7.73853133 L8.8764617,7.81747651 L8.982703,7.85235297 C8.9846968,7.96347102 9.00662865,8.14055695 9.02599704,8.14163839 C9.04479577,8.14244947 9.06516106,7.99064222 9.06929108,7.88047043 L9.71243546,8.08986441 C9.71798963,8.20774146 9.73664594,8.37428334 9.75459018,8.37509442 C9.77281925,8.37617587 9.79247247,8.22855919 9.79774181,8.11784669 L10.4547004,8.33197197 C10.4575487,8.44295484 10.4759202,8.60381916 10.4948613,8.6049006 C10.5138025,8.60598204 10.5318891,8.46485401 10.5348798,8.35819691 L11.1926929,8.57272773 C11.1935474,8.68033109 11.2099251,8.83294943 11.23086,8.83389569 C11.2507981,8.83470677 11.2678878,8.69736379 11.2683151,8.59706015 L11.4631382,8.66018926 L11.6307602,8.72115548 C11.6299058,8.8283533 11.6427231,8.96339823 11.6642277,8.96434449 C11.6850202,8.96542593 11.6934227,8.85376716 11.6934227,8.74602862 L12.098165,8.90905583 L13.8287873,9.60550371 L13.8954374,9.63767657 C13.8954374,9.63767657 13.9032702,9.43085102 13.8891711,9.40286874 C13.8529978,9.32933076 13.7648432,9.19442102 13.7255367,9.1476487 C13.6889362,9.10371517 13.685091,9.03234008 13.6321127,8.96177606 C13.6134564,8.93744365 13.5956546,8.91946469 13.571729,8.90094502 C13.5284349,8.86728517 12.7142506,8.35535813 11.7243266,7.73434074 L11.8433853,7.80841944 C11.8591933,7.75461776 11.858766,7.69743658 11.8690199,7.59307754 C11.8851127,7.42464313 11.8851127,7.05181641 11.856345,6.86729557 C11.852215,6.84147617 11.8372614,6.81349389 11.8019426,6.81051993 C11.7673359,6.80673489 11.4850701,6.81051993 11.4533116,6.81673821 C11.4214108,6.82282132 11.4085935,6.82917478 11.4027545,6.85472382 C11.3645873,7.02883579 11.3765502,7.4309966 11.3987668,7.52994843 C10.6488115,7.05992722 9.83818756,6.55219076 9.20558186,6.15327428 L9.16086368,6.12299393 L9.4048199,6.27561227 L9.58682577,6.38929873 C9.60277621,6.33563223 9.60277621,6.27831587 9.61260282,6.17368647 C9.62812601,6.00552243 9.62812601,5.56713336 9.5997855,5.38288288 C9.59579789,5.35706348 9.58098677,5.32921638 9.54609519,5.32583687 C9.51091879,5.32272773 9.22865303,5.32583687 9.19703699,5.33191998 C9.1649937,5.33881416 9.15160673,5.34476209 9.14633739,5.37017595 C9.11030649,5.58714001 9.12768107,5.97483654 9.14277702,6.11136844 L8.26151542,5.51671118 C8.1141163,5.35773938 8.07096467,5.20417478 8.06455601,5.17767948 L8.06455601,2.93882664 C8.06455601,2.08340696 7.66038335,1.20311414 7.48706477,0.961682479 C7.46855088,0.93694452 7.43778932,0.89760711 7.39748599,0.89760711 C7.35775231,0.89760711 7.32684834,0.93694452 7.30833444,0.961682479 C7.13473103,1.20311414 6.73070078,2.08340696 6.73070078,2.93882664 L6.73070078,5.17808502 C6.72372247,5.20552658 6.68042843,5.35800974 6.53445345,5.51671118 L5.65276461,6.11136844 C5.66743331,5.97483654 5.68495031,5.58714001 5.654616,5.39896931 C5.64350766,5.34476209 5.6302631,5.33881416 5.59836223,5.33191998 C5.56646135,5.32583687 5.28462284,5.32272773 5.24901919,5.32583687 C5.21469727,5.32921638 5.19974374,5.35706348 5.19532888,5.38288288 C5.16713079,5.56713336 5.16713079,6.00552243 5.18293881,6.17368647 C5.19219576,6.27831587 5.19219576,6.33563223 5.20828861,6.38929873 L5.3680778,6.28980618 L5.63467795,6.12299393 L5.58953252,6.15327428 C4.95721166,6.55219076 4.14673012,7.05992722 3.39620513,7.52994843 C3.4184218,7.4309966 3.4310967,7.02883579 3.39292959,6.85472382 C3.38723301,6.82917478 3.37398845,6.82282132 3.34194516,6.81673821 C3.31089877,6.81051993 3.02820578,6.80673489 2.99345661,6.81051993 C2.95785296,6.81349389 2.94346908,6.84147617 2.93905423,6.86729557 C2.91071372,7.05181641 2.91071372,7.42464313 2.92680657,7.59307754 C2.93649077,7.69743658 2.93592111,7.75461776 2.95201396,7.80841944 L3.07263913,7.7332593 C2.08228794,8.35495259 1.26667947,8.86728517 1.22338543,8.90094502 C1.19988702,8.91878879 1.18180037,8.93744365 1.16698925,8.9567744 C1.11030823,9.0322049 1.10674787,9.10371517 1.06986248,9.1476487 C1.03041364,9.19415066 0.942686238,9.32933076 0.905943269,9.40286874 C0.892271467,9.4303103 0.899534612,9.63767657 0.899534612,9.63767657 L0.958351845,9.62294194 L2.69723422,8.90837992 L3.09271959,8.75008403 C3.10183413,8.85376716 3.11080625,8.96515557 3.13188361,8.96434449 C3.15239131,8.96339823 3.16535104,8.8283533 3.16506621,8.72115548 L3.33211855,8.66018926 L3.52708415,8.59706015 C3.52765381,8.69722861 3.54474356,8.83403087 3.56496644,8.83335497 C3.58518931,8.83294943 3.60213665,8.68006073 3.60299114,8.57191665 L4.26080422,8.35819691 C4.26336768,8.46471883 4.28131192,8.60517096 4.30025306,8.60395434 C4.31976387,8.60341362 4.33785052,8.44227893 4.3405564,8.33129607 L4.99723016,8.11784669 C5.00278433,8.22855919 5.02257996,8.3759055 5.04066662,8.37509442 C5.05861086,8.37428334 5.07726717,8.20720074 5.08282134,8.08986441 L5.7258233,7.88047043 C5.73080781,7.99064222 5.75074586,8.14244947 5.76982942,8.14163839 C5.7891978,8.14055695 5.81027517,7.96347102 5.81269621,7.85235297 L5.9187951,7.81747651 L6.67216838,7.73853133 L6.73070078,7.9995641 L6.73070078,9.54223942 C6.73070078,10.2976258 6.9024528,11.6188761 7.05654541,12.2279977 C7.03390149,12.2657129 5.53285151,13.2552313 5.4489693,13.3307969 C5.36451744,13.406633 5.25699441,13.5591161 5.24802229,13.8976071 L5.28718631,13.8858464 C5.28718631,13.887018 5.94732549,13.6947018 7.26760386,13.3088978 Z" id="Fill-1-Copy-6" fill="#999999" transform="translate(7.397607, 7.397607) rotate(-270.000000) translate(-7.397607, -7.397607) "></path>
                            <circle id="Oval" stroke="#C0C0C0" fill="#FFFFFF" cx="38.0984047" cy="7.5" r="2.5"></circle>
                            <circle id="Oval" stroke="#C0C0C0" fill="#C0C0C0" cx="71.5" cy="7.5" r="2.5"></circle>
                        </g>
                    </g>
                </g>
            </g>
        </g>
    </g>
</svg>