<?xml version="1.0" encoding="UTF-8"?>
<svg width="22px" height="18px" viewBox="0 0 22 18" version="1.1" xmlns="http://www.w3.org/2000/svg" xmlns:xlink="http://www.w3.org/1999/xlink">
    <!-- Generator: Sketch 49.1 (51147) - http://www.bohemiancoding.com/sketch -->
    <title>fly_dubai_tcm277-2317042</title>
    <desc>Created with Sketch.</desc>
    <defs>
        <linearGradient x1="0%" y1="50.0005814%" x2="100%" y2="50.0005814%" id="linearGradient-1">
            <stop stop-color="#FFFFFF" offset="0%"></stop>
            <stop stop-color="#D1D2D3" offset="40.85%"></stop>
            <stop stop-color="#F1F1F1" offset="79.69%"></stop>
            <stop stop-color="#D1D2D3" offset="100%"></stop>
        </linearGradient>
    </defs>
    <g id="Page-1" stroke="none" stroke-width="1" fill="none" fill-rule="evenodd">
        <g id="Anonymous_FlightDetails" transform="translate(-249.000000, -430.000000)" fill-rule="nonzero">
            <g id="Group-11" transform="translate(30.000000, 395.000000)">
                <g id="Group-9">
                    <g id="Group-3" transform="translate(219.000000, 33.000000)">
                        <g id="fly_dubai_tcm277-2317042" transform="translate(0.000000, 2.000000)">
                            <path d="M17.5733793,0.185793103 C16.6282759,0.185793103 16.1921379,0.823034483 16.1921379,0.823034483 C16.1921379,0.823034483 4.6017931,14.9801379 2.71158621,16.5169655 C1.06489655,17.8553793 0.197172414,17.9708276 0,17.9784828 L15.3333103,17.9784828 L21.5172414,0.185793103 C21.5172414,0.185793103 18.5184828,0.185793103 17.5733793,0.185793103 Z" id="Shape" fill="url(#linearGradient-1)"></path>
                            <path d="M15.933931,1.13793103 C15.4262069,1.75655172 14.2133793,3.23151724 12.7102759,5.04062069 C12.8623448,5.30648276 13.0268276,5.95717241 13.0609655,6.06786207 C13.2169655,6.57537931 13.3462759,7.09137931 13.4491034,7.61234483 C13.782,9.29937931 13.8031034,11.0387586 13.5405517,12.7371724 C13.4664828,13.2163448 13.3644828,13.6936552 13.2372414,14.162069 C13.0617931,14.8061379 12.8143448,15.4361379 12.4584828,16.0026207 C12.2296552,16.3671724 11.9646207,16.7195172 11.6834483,17.0451724 C11.5413103,17.210069 11.3913103,17.3677241 11.2363448,17.5204138 C11.156069,17.5992414 10.8529655,17.9786897 10.7478621,17.9786897 C10.748069,17.9786897 12.0078621,17.9786897 12.0078621,17.9786897 C13.6082069,16.8031034 15.4243448,14.916 16.584,11.9766207 C16.584,11.9766207 17.7153103,3.57206897 15.933931,1.13793103 Z" id="Shape" fill="#3DA5EE"></path>
                            <path d="M21.1471034,1.25048276 C21.2555172,0.804827586 21.4913793,0.436965517 21.5172414,0.185793103 C20.8837241,0.185793103 18.3871034,0.185793103 17.5733793,0.185793103 C16.6282759,0.185793103 16.1921379,0.823034483 16.1921379,0.823034483 C16.1921379,0.823034483 16.0818621,0.957517241 15.8830345,1.2 C16.286069,2.40993103 18.0537931,8.39606897 15.2983448,13.0595172 C15.2983448,13.0595172 13.7929655,15.9002069 11.4310345,17.9784828 L12.2197241,17.9784828 C13.9311724,16.4271724 15.5517931,14.8754483 18.3794483,9.22034483 L21.1471034,1.25048276 Z" id="Shape" fill="#60B7EC"></path>
                            <path d="M10.5151034,9.25158621 C10.6853793,9.80048276 10.8117931,10.3626207 10.9102759,10.9282759 C11.1370345,12.2255172 11.2351034,13.5726207 11.0522069,14.8814483 C10.8732414,16.1623448 10.226069,17.133931 9.34572414,17.9784828 L10.0642759,17.9784828 C11.6695862,16.2986897 12.2184828,14.1763448 12.2184828,14.1763448 C12.7164828,10.1131034 11.7126207,7.69572414 11.2342759,6.81206897 C10.8523448,7.26910345 10.4621379,7.73503448 10.0684138,8.20344828 C10.2583448,8.63503448 10.4898621,9.17089655 10.5151034,9.25158621 Z" id="Shape" fill="#60B7EC"></path>
                            <path d="M4.9737931,17.9784828 L7.93634483,17.9784828 C9.00868966,16.5827586 9.86896552,14.1453103 8.36648276,10.2190345 C7.35331034,11.4124138 6.36910345,12.558 5.50282759,13.5442759 C5.77137931,14.5038621 5.96358621,16.1646207 4.9737931,17.9784828 Z" id="Shape" fill="#99DCF9"></path>
                            <path d="M2.71137931,16.5169655 C2.33027586,16.8268966 1.99282759,17.0685517 1.69386207,17.2613793 C1.87096552,17.4626897 1.99903448,17.7006207 2.03317241,17.9786897 L3.51848276,17.9786897 C3.78,17.3410345 3.93310345,16.5134483 3.54827586,15.704069 C3.18703448,16.0824828 2.90027586,16.3634483 2.71137931,16.5169655 Z" id="Shape" fill="#DFF7F9"></path>
                            <path d="M13.0001379,17.9788966 L15.3333103,17.9784828 L17.1035172,12.8412414 C16.3175172,13.9888966 14.6553103,16.8066207 13.0001379,17.9788966 Z" id="Shape" fill="#F86C15"></path>
                            <path d="M12.0153103,10.0477241 C12.537931,14.163931 11.2456552,16.640069 10.064069,17.9784828 C14.0749655,14.2607586 12.6175862,7.80455172 11.9772414,5.92137931 C11.720069,6.23006897 11.4571034,6.54537931 11.1897931,6.86503448 C11.5566207,7.89993103 12.0153103,10.0477241 12.0153103,10.0477241 Z" id="Shape" fill="#3DA5EE"></path>
                            <path d="M7.55648276,17.9784828 L8.68986207,17.9784828 C9.54248276,17.0534483 9.95089655,16.1393793 9.95089655,16.1393793 C11.0937931,13.4811724 9.96165517,10.2395172 9.42289655,8.9702069 C9.00082759,9.47089655 8.57834483,9.97013793 8.16144828,10.4602759 C9.58986207,14.2669655 8.67372414,16.6255862 7.55648276,17.9784828 Z" id="Shape" fill="#60B7EC"></path>
                            <path d="M3.13489655,16.1261379 C3.35751724,16.7577931 3.24289655,17.4328966 3.05358621,17.9784828 L4.06055172,17.9784828 C4.87572414,16.5217241 4.85875862,15.2654483 4.69406897,14.4571034 C4.05910345,15.1657241 3.52344828,15.7423448 3.13489655,16.1261379 Z" id="Shape" fill="#60B7EC"></path>
                        </g>
                    </g>
                </g>
            </g>
        </g>
    </g>
</svg>