<?xml version="1.0" encoding="UTF-8"?>
<svg width="220px" height="216px" viewBox="0 0 220 216" version="1.1" xmlns="http://www.w3.org/2000/svg" xmlns:xlink="http://www.w3.org/1999/xlink">
    <!-- Generator: Sketch 49.2 (51160) - http://www.bohemiancoding.com/sketch -->
    <title>Group 10</title>
    <desc>Created with Sketch.</desc>
    <defs>
        <linearGradient x1="34.4508456%" y1="-7.75322571%" x2="95.9881533%" y2="96.9104117%" id="linearGradient-1">
            <stop stop-color="#FFFFFF" offset="0%"></stop>
            <stop stop-color="#EEEEEE" offset="100%"></stop>
        </linearGradient>
        <rect id="path-2" x="0" y="0" width="220" height="216" rx="16"></rect>
    </defs>
    <g id="Page-1" stroke="none" stroke-width="1" fill="none" fill-rule="evenodd">
        <g id="Group-10">
            <g id="Group-5">
                <g id="Rectangle-Copy">
                    <use fill="url(#linearGradient-1)" fill-rule="evenodd" xlink:href="#path-2"></use>
                    <rect stroke="#F6F6F6" stroke-width="2" x="1" y="1" width="218" height="214" rx="16"></rect>
                </g>
                <text id="Golf" font-family="HelveticaNeue, Helvetica Neue" font-size="14" font-weight="normal" line-spacing="33" letter-spacing="0.466666728" fill="#333333">
                    <tspan x="91.5236665" y="189">GOLF</tspan>
                </text>
            </g>
            <g id="golf" transform="translate(36.000000, 20.000000)" fill-rule="nonzero">
                <circle id="Oval" fill="#273B7A" cx="75" cy="75" r="75"></circle>
                <path d="M113.882227,41.6329102 L92.9033203,43.7677734 L78.4948242,29.3592773 L73.3119141,36.4379883 L67.7636719,30.8894531 L60.4458984,36.0243164 L74.1055664,49.6839844 L71.0106445,56.4723633 L72.3413086,57.8030273 L67.7660156,62.3783203 L80.3563477,74.9686523 L39.4081055,110.517773 L78.7945312,149.904199 C117.560742,147.972363 148.570898,116.60625 149.94668,77.6961914 L113.882227,41.6329102 Z" id="Shape" fill="#121149"></path>
                <path d="M113.882227,41.6329102 C113.534766,40.4264648 112.73877,39.4268555 111.639844,38.8198242 L105.177832,35.2456055 C103.097461,34.0959961 100.695117,33.8244141 98.4087891,34.481543 C96.1245117,35.1392578 94.2325195,36.646582 93.0826172,38.7269531 L68.7254883,82.7712891 C68.2195312,83.6853516 68.5508789,84.8370117 69.4655273,85.3423828 C69.7558594,85.5029297 70.0702148,85.5793945 70.3795898,85.5793945 C71.0458008,85.5793945 71.6917969,85.2269531 72.0366211,84.6026367 L93.3199219,46.1162109 L103.004883,51.4728516 C103.943262,51.9919922 104.959863,52.2375 105.963574,52.2375 C108.125098,52.2375 110.224805,51.0946289 111.34248,49.0734375 L113.479395,45.2088867 C114.086426,44.109082 114.229687,42.8393555 113.882227,41.6329102 Z" id="Shape" fill="#FEE187"></path>
                <path d="M79.5328125,31.0347656 C78.5126953,28.8873047 76.7170898,27.2666016 74.4773437,26.4697266 L67.5196289,23.9950195 C66.3369141,23.5743164 65.0604492,23.6393555 63.9266602,24.178418 C62.7922852,24.7171875 61.9356445,25.6652344 61.5149414,26.8485352 L60.0357422,31.0092773 C58.9019531,34.1961914 60.5727539,37.7112305 63.759375,38.8456055 L74.1861328,42.5542969 L59.4492187,83.9900391 C59.0991211,84.9744141 59.6132812,86.0566406 60.5982422,86.4067383 C60.8077148,86.4808594 61.021582,86.5163086 61.2319336,86.5163086 C62.0103516,86.5163086 62.7383789,86.0326172 63.0146484,85.2583008 L79.8802734,37.8375 C80.6762695,35.5974609 80.5535156,33.1819336 79.5328125,31.0347656 Z" id="Shape" fill="#FFEDB5"></path>
                <path d="M107.937891,58.4698242 L92.4005859,58.4698242 C91.7762695,58.4698242 91.2055664,58.8222656 90.9263672,59.3803711 L85.603125,70.0262695 L61.8117188,60.7696289 C59.4925781,59.8669922 56.8804688,61.0160156 55.977832,63.3351562 L39.1233398,106.655859 C38.2207031,108.975586 39.3697266,111.587109 41.6888672,112.489746 L65.6147461,121.798828 C67.9338867,122.701465 70.5459961,121.552441 71.4486328,119.233301 L88.303125,75.9125977 C88.7774414,74.6932617 88.6804688,73.3954102 88.1490234,72.3055664 L93.4186523,61.7657227 L107.937305,61.7657227 C108.847266,61.7657227 109.585254,61.0277344 109.585254,60.1177734 C109.585254,59.2075195 108.847559,58.4698242 107.937891,58.4698242 Z" id="Shape" fill="#E09112"></path>
                <path d="M107.937891,58.4698242 L92.4005859,58.4698242 C91.7762695,58.4698242 91.2055664,58.8222656 90.9263672,59.3803711 L85.603125,70.0262695 L73.5530273,65.3378906 L53.1322266,116.941992 L65.6141602,121.798535 C67.9333008,122.701172 70.5454102,121.552148 71.4480469,119.233008 L88.3025391,75.9123047 C88.7768555,74.6929687 88.6798828,73.3951172 88.1484375,72.3052734 L93.4180664,61.7654297 L107.936719,61.7654297 C108.84668,61.7654297 109.584668,61.0274414 109.584668,60.1174805 C109.585254,59.2075195 108.847559,58.4698242 107.937891,58.4698242 Z" id="Shape" fill="#FF5419"></path>
                <circle id="Oval" fill="#FFEDB5" cx="68.8637695" cy="120.924316" r="10.4056641"></circle>
            </g>
        </g>
    </g>
</svg>