<?xml version="1.0" encoding="UTF-8"?>
<svg width="19px" height="30px" viewBox="0 0 19 30" version="1.1" xmlns="http://www.w3.org/2000/svg" xmlns:xlink="http://www.w3.org/1999/xlink">
    <!-- Generator: Sketch 47.1 (45422) - http://www.bohemiancoding.com/sketch -->
    <title>Shape</title>
    <desc>Created with Sketch.</desc>
    <defs></defs>
    <g id="DESIGN" stroke="none" stroke-width="1" fill="none" fill-rule="evenodd">
        <g id="Bundled-Experiences3" transform="translate(-1411.000000, -784.000000)" stroke="#FFFFFF" fill-rule="nonzero" fill="#FFFFFF">
            <path d="M1415.97064,785.007253 C1415.77215,785.038286 1415.62677,785.208564 1415.62922,785.40715 L1415.64186,806.801606 C1414.93801,806.94894 1414.30053,807.17508 1413.7577,807.463934 C1412.7301,808.010753 1412,808.827121 1412,809.800829 C1412,810.774497 1412.7301,811.590905 1413.7577,812.137723 C1414.78531,812.684542 1416.1536,813 1417.66512,813 C1419.17663,813 1420.54493,812.684542 1421.57253,812.137723 C1422.60014,811.590905 1423.33024,810.774497 1423.33024,809.800829 C1423.33024,808.827121 1422.60014,808.010753 1421.57253,807.463934 C1420.54493,806.917116 1419.17663,806.601658 1417.66512,806.601658 C1417.24679,806.601658 1416.84337,806.630097 1416.45116,806.676638 L1416.43852,793.555038 L1428.70451,790.180913 C1428.8745,790.133833 1428.994,789.983289 1428.99978,789.808919 C1429.00557,789.634548 1428.89631,789.476593 1428.7298,789.41861 L1416.17297,785.01975 C1416.10769,784.998688 1416.03806,784.994388 1415.97064,785.007253 Z M1416.43852,785.969504 L1427.23765,789.756023 L1416.43852,792.717755 L1416.43852,785.969504 Z M1417.66512,807.401451 C1419.05888,807.401451 1420.31686,807.709931 1421.19317,808.17625 C1422.06948,808.642569 1422.52093,809.228497 1422.52093,809.800829 C1422.52093,810.373121 1422.06948,810.959089 1421.19317,811.425408 C1420.31686,811.891727 1419.05888,812.200207 1417.66512,812.200207 C1416.27136,812.200207 1415.01337,811.891727 1414.13706,811.425408 C1413.26076,810.959089 1412.8093,810.373121 1412.8093,809.800829 C1412.8093,809.228497 1413.26076,808.642569 1414.13706,808.17625 C1415.01337,807.709931 1416.27136,807.401451 1417.66512,807.401451 Z" id="Shape"></path>
        </g>
    </g>
</svg>