<?xml version="1.0" encoding="UTF-8"?>
<svg width="150px" height="150px" viewBox="0 0 150 150" version="1.1" xmlns="http://www.w3.org/2000/svg" xmlns:xlink="http://www.w3.org/1999/xlink">
    <!-- Generator: Sketch 47.1 (45422) - http://www.bohemiancoding.com/sketch -->
    <title>Shape</title>
    <desc>Created with Sketch.</desc>
    <defs></defs>
    <g id="Page-1" stroke="none" stroke-width="1" fill="none" fill-rule="evenodd">
        <g id="FACE-SCAN" transform="translate(-484.000000, -382.000000)" fill-rule="nonzero" fill="#509600">
            <path d="M606.383261,470.781601 C605.064555,470.311465 603.604983,471.020943 603.141653,472.357839 C596.646557,491.098322 579.045134,503.689424 559.340909,503.689424 C539.636684,503.689424 522.035261,491.098322 515.540165,472.357839 C515.078533,471.020943 513.622355,470.311465 512.298557,470.781601 C510.971364,471.246608 510.27043,472.710014 510.73376,474.04691 C517.938276,494.844025 537.472783,508.818182 559.340909,508.818182 C581.209035,508.818182 600.743542,494.844025 607.948059,474.04691 C608.411388,472.710014 607.710454,471.246608 606.383261,470.781601 Z M528.659091,450.181818 C534.486359,450.181818 539.227273,445.440905 539.227273,439.613636 C539.227273,433.786368 534.486359,429.045455 528.659091,429.045455 C522.831822,429.045455 518.090909,433.786368 518.090909,439.613636 C518.090909,445.440905 522.830154,450.181818 528.659091,450.181818 Z M529.340909,433.818182 C532.536842,433.818182 535.136364,436.417703 535.136364,439.613636 C535.136364,442.80957 532.536842,445.409091 529.340909,445.409091 C526.144976,445.409091 523.545455,442.80957 523.545455,439.613636 C523.545455,436.417703 526.144976,433.818182 529.340909,433.818182 Z M588.659091,450.181818 C594.486359,450.181818 599.227273,445.440905 599.227273,439.613636 C599.227273,433.786368 594.486359,429.045455 588.659091,429.045455 C582.831822,429.045455 578.090909,433.786368 578.090909,439.613636 C578.090909,445.440905 582.831822,450.181818 588.659091,450.181818 Z M589.340909,433.818182 C592.536842,433.818182 595.136364,436.417703 595.136364,439.613636 C595.136364,442.80957 592.536842,445.409091 589.340909,445.409091 C586.144976,445.409091 583.545455,442.80957 583.545455,439.613636 C583.545455,436.417703 586.144976,433.818182 589.340909,433.818182 Z M594.169492,382 L523.830508,382 C501.867797,382 484,399.867797 484,421.830508 L484,492.169492 C484,514.132203 501.867797,532 523.830508,532 L594.169492,532 C616.132203,532 634,514.132203 634,492.169492 L634,421.830508 C634,399.867797 616.132203,382 594.169492,382 Z M628.545455,491.81405 C628.545455,510.965455 612.965455,526.545455 593.81405,526.545455 L523.504132,526.545455 C504.352727,526.545455 488.772727,510.965455 488.772727,491.81405 L488.772727,421.504132 C488.772727,402.352727 504.352727,386.772727 523.504132,386.772727 L593.81405,386.772727 C612.965455,386.772727 628.545455,402.352727 628.545455,421.504132 L628.545455,491.81405 Z" id="Shape"></path>
        </g>
    </g>
</svg>