<?xml version="1.0" encoding="UTF-8"?>
<svg width="24px" height="30px" viewBox="0 0 24 30" version="1.1" xmlns="http://www.w3.org/2000/svg" xmlns:xlink="http://www.w3.org/1999/xlink">
    <!-- Generator: Sketch 47.1 (45422) - http://www.bohemiancoding.com/sketch -->
    <title>Shape</title>
    <desc>Created with Sketch.</desc>
    <defs></defs>
    <g id="DESIGN" stroke="none" stroke-width="1" fill="none" fill-rule="evenodd">
        <g id="Bundled-Experiences3" transform="translate(-1502.000000, -785.000000)" stroke="#FFFFFF" fill-rule="nonzero" fill="#FFFFFF">
            <path d="M1521.3582,814 C1521.27564,814 1521.19418,813.962342 1521.14011,813.891456 C1521.04805,813.76999 1521.07143,813.596098 1521.19125,813.503061 L1521.3392,813.390455 C1521.57519,813.180013 1521.71218,812.91936 1521.74251,812.60665 C1521.77173,812.297632 1521.68369,812.018888 1521.47291,811.754912 L1520.50739,810.576804 L1517.67698,807.162837 C1517.61524,807.088629 1517.59661,806.98673 1517.62803,806.8948 L1519.64198,800.988014 L1516.20515,791.499646 C1516.12222,791.27702 1516.09117,791.064732 1516.11272,790.869057 C1516.09628,790.732824 1516.08861,790.59659 1516.09007,790.461095 C1515.82924,791.018582 1515.41242,791.464942 1514.84473,791.792789 C1514.34682,792.087408 1513.80652,792.232872 1513.26806,792.222534 C1512.69964,792.982342 1511.86673,794.49162 1510.79017,796.713449 C1510.73245,796.8327 1510.59947,796.893617 1510.47235,796.858913 L1507.03844,795.91746 C1506.96136,795.900477 1506.87076,795.890139 1506.78126,795.890139 C1506.56573,795.880171 1506.37138,795.933705 1506.17339,796.053694 C1505.93082,796.186605 1505.77556,796.371942 1505.68825,796.626688 C1505.514,797.083754 1505.55053,797.428215 1505.8004,797.719881 C1505.80223,797.721727 1505.80369,797.723942 1505.80552,797.725788 C1505.94616,797.898203 1506.16571,798.056219 1506.45833,798.195776 L1507.00118,798.355269 C1507.00227,798.355269 1507.00337,798.355638 1507.00483,798.356007 L1510.83473,799.388652 C1511.10725,799.446985 1511.38051,799.416711 1511.65741,799.292661 C1511.90655,799.166395 1512.09176,798.969244 1512.21231,798.69493 L1513.49419,795.992407 C1513.54314,795.890139 1513.64798,795.826268 1513.7605,795.835867 C1513.87265,795.84362 1513.96836,795.920413 1514.00233,796.028588 C1514.45422,797.472888 1514.86848,799.140921 1515.23379,800.986537 C1515.24877,801.061484 1515.23196,801.139385 1515.18812,801.201779 C1515.14392,801.264174 1515.07634,801.305154 1515.00109,801.315492 L1510.19727,801.961218 C1509.89223,802.011798 1509.64821,802.149139 1509.45898,802.380626 C1509.27084,802.620604 1509.1828,802.899717 1509.19267,803.22941 L1509.55798,810.611877 C1509.57734,810.925326 1509.70848,811.188933 1509.95836,811.410451 C1510.20165,811.61794 1510.48221,811.706547 1510.81172,811.675165 C1511.1215,811.664459 1511.37612,811.541516 1511.60663,811.298215 C1511.76481,811.099587 1511.8587,810.876961 1511.87879,810.635875 L1511.87806,810.437616 L1511.58617,804.398289 C1511.5785,804.253563 1511.68152,804.127667 1511.82326,804.108469 L1514.80017,803.702352 C1515.17643,803.665432 1515.50156,803.622974 1515.77664,803.57461 C1515.8687,803.560211 1515.96258,803.590854 1516.02578,803.660633 C1516.08898,803.730042 1516.11236,803.82751 1516.08825,803.918701 L1515.22977,807.167268 C1515.2031,807.284672 1515.19835,807.425336 1515.21808,807.576338 L1515.21954,807.631348 C1515.22794,807.659038 1515.23379,807.687466 1515.23708,807.715895 C1515.27726,807.865419 1515.35069,808.009037 1515.4548,808.142687 L1519.30297,812.768727 C1519.40051,812.885394 1519.38553,813.060393 1519.26936,813.158969 C1519.15356,813.257175 1518.98113,813.242407 1518.88323,813.125003 L1515.02922,808.492316 C1514.86629,808.282981 1514.75706,808.061463 1514.69934,807.827392 C1514.69605,807.815209 1514.69386,807.803025 1514.69277,807.790103 C1514.67925,807.756875 1514.67231,807.721433 1514.67231,807.68599 L1514.67231,807.612519 C1514.64637,807.431982 1514.65404,807.224493 1514.69788,807.03288 L1515.45042,804.184154 C1515.26813,804.208521 1515.07196,804.231411 1514.86336,804.251717 L1512.14729,804.622391 L1512.22474,806.028294 L1512.42602,810.658765 C1512.3957,811.032762 1512.25871,811.362824 1512.01797,811.66372 C1511.67312,812.029225 1511.28406,812.213086 1510.84606,812.227853 C1510.38613,812.269204 1509.96164,812.137031 1509.60145,811.830597 C1509.23724,811.507181 1509.03997,811.107709 1509.01111,810.639198 L1508.99248,810.114938 L1508.6458,803.251562 C1508.63119,802.787481 1508.76197,802.379149 1509.03339,802.032104 C1509.31103,801.692812 1509.67451,801.486061 1510.11763,801.413329 L1514.6387,800.805261 C1514.34864,799.373884 1514.02863,798.055481 1513.68451,796.872573 L1512.71023,798.926786 C1512.54182,799.310751 1512.26528,799.604632 1511.89157,799.793292 C1511.49923,799.969768 1511.10433,800.012964 1510.70724,799.926941 L1507.14219,798.966659 L1506.3027,803.382258 L1504.98723,810.139305 C1504.91745,810.424325 1504.76329,810.632183 1504.52584,810.769525 C1504.30191,810.915357 1504.04765,810.957815 1503.80289,810.888037 C1503.56398,810.844102 1503.35356,810.715253 1503.20196,810.511087 C1503.02223,810.296952 1502.9583,810.0219 1503.02698,809.72765 L1504.35816,802.871658 C1504.35816,802.871658 1504.35816,802.871658 1504.35816,802.871289 L1505.30212,797.974257 C1505.0738,797.653425 1504.90284,797.149471 1505.17499,796.43692 C1505.30431,796.05997 1505.55017,795.766458 1505.90306,795.573368 C1506.18179,795.403907 1506.48536,795.321206 1506.79514,795.337082 C1506.79624,795.337082 1506.79733,795.337082 1506.7988,795.337082 C1506.91423,795.337082 1507.04355,795.35185 1507.17068,795.380278 L1510.39855,796.264874 C1511.34799,794.316252 1512.08884,792.959083 1512.64922,792.143157 C1512.61233,792.134665 1512.57543,792.125435 1512.53817,792.115098 C1511.72499,791.886196 1511.09885,791.395902 1510.67327,790.657877 C1510.24768,789.918375 1510.13991,789.127554 1510.35289,788.306829 C1510.5666,787.483888 1511.05355,786.854407 1511.80025,786.436845 C1512.52538,785.996762 1513.31117,785.88748 1514.12544,786.116751 C1514.93606,786.331624 1515.55855,786.823764 1515.97208,787.578403 C1516.26652,788.080511 1516.40826,788.614001 1516.39474,789.169643 C1516.3962,789.167428 1516.3973,789.164843 1516.39839,789.162628 C1516.79329,788.324181 1517.42199,787.736788 1518.26622,787.416694 C1519.11447,787.108415 1519.95833,787.142381 1520.77663,787.516009 C1520.77882,787.517116 1520.78101,787.517855 1520.78357,787.518962 C1521.59894,787.918064 1522.17942,788.551607 1522.50819,789.402975 L1524.84873,795.907122 C1525.11943,796.700158 1525.02627,797.509438 1524.57365,798.316134 C1524.11921,799.091079 1523.69655,799.597987 1523.27863,799.870454 C1523.02657,800.022194 1522.82382,800.132584 1522.66126,800.207531 L1522.67404,800.242605 C1522.80921,800.651675 1522.78729,801.04967 1522.61158,801.434004 C1522.43257,801.811324 1522.14142,802.076038 1521.74543,802.223717 C1521.33847,802.385425 1520.93408,802.376934 1520.54941,802.197504 C1520.31195,802.077515 1520.11944,801.918391 1519.97295,801.72124 L1518.19791,806.928397 L1521.89813,811.405651 C1522.2017,811.785186 1522.33211,812.206809 1522.28864,812.660922 C1522.24517,813.113927 1522.04206,813.504168 1521.68552,813.820939 L1521.52551,813.943882 C1521.47473,813.98154 1521.41592,814 1521.3582,814 Z M1504.89517,802.977987 L1503.56215,809.844316 C1503.53147,809.977597 1503.55302,810.073588 1503.63047,810.165887 C1503.70901,810.271108 1503.80034,810.32538 1503.92819,810.349378 C1504.01185,810.372268 1504.10537,810.384452 1504.24163,810.295845 C1504.35853,810.227543 1504.42173,810.141889 1504.45241,810.018577 L1505.7646,803.276298 L1506.61212,798.817504 L1506.28554,798.721882 C1506.27202,798.717821 1506.25923,798.713021 1506.24645,798.707114 C1506.06854,798.623675 1505.91,798.532484 1505.77118,798.433908 L1504.89553,802.97651 C1504.89553,802.977249 1504.89553,802.977618 1504.89517,802.977987 Z M1520.19579,800.906052 L1520.26629,801.119448 C1520.36054,801.376779 1520.53187,801.56913 1520.78649,801.697611 C1521.0265,801.809847 1521.27929,801.813539 1521.54999,801.705364 C1521.81666,801.605681 1522.00005,801.440281 1522.11585,801.197349 C1522.23056,800.945187 1522.24517,800.691918 1522.15713,800.426834 L1522.05119,800.141076 C1522.02343,800.066498 1522.02891,799.983429 1522.06617,799.912912 C1522.1038,799.842764 1522.16882,799.792184 1522.24554,799.774094 C1522.31933,799.756741 1522.51367,799.685117 1522.98967,799.399359 C1523.32101,799.18264 1523.69764,798.72262 1524.09912,798.037759 C1524.47356,797.370251 1524.55027,796.731909 1524.33182,796.091352 L1521.99493,789.598281 C1521.71693,788.878715 1521.2424,788.359993 1520.54721,788.019224 C1519.85459,787.70393 1519.16963,787.677348 1518.45472,787.936524 C1517.74127,788.207146 1517.22911,788.686364 1516.89229,789.401129 C1516.67311,789.866318 1516.5953,790.347382 1516.66069,790.832138 C1516.66434,790.858351 1516.66397,790.885302 1516.65996,790.911515 C1516.64315,791.023382 1516.66288,791.157031 1516.71877,791.307664 L1520.18921,800.888331 C1520.19177,800.894238 1520.19396,800.900145 1520.19579,800.906052 Z M1513.15737,791.663939 C1513.64835,791.694582 1514.11558,791.582716 1514.57075,791.313202 C1515.19434,790.953234 1515.58229,790.447434 1515.7591,789.765158 C1515.93628,789.082881 1515.85007,788.457461 1515.49608,787.853824 C1515.1494,787.22102 1514.6555,786.83004 1513.98187,786.651349 C1513.30422,786.460474 1512.68137,786.547973 1512.07313,786.916432 C1511.44553,787.267908 1511.05903,787.767063 1510.88222,788.447493 C1510.70505,789.130877 1510.79126,789.762943 1511.14634,790.379502 C1511.50215,790.997169 1512.00445,791.390364 1512.68174,791.58087 C1512.84357,791.624435 1513.00431,791.652863 1513.15737,791.663939 Z" id="Shape"></path>
        </g>
    </g>
</svg>