<?xml version="1.0" encoding="UTF-8"?>
<svg width="25px" height="32px" viewBox="0 0 25 32" version="1.1" xmlns="http://www.w3.org/2000/svg" xmlns:xlink="http://www.w3.org/1999/xlink">
    <!-- Generator: Sketch 49.2 (51160) - http://www.bohemiancoding.com/sketch -->
    <title>sunbed</title>
    <desc>Created with Sketch.</desc>
    <defs></defs>
    <g id="Page-1" stroke="none" stroke-width="1" fill="none" fill-rule="evenodd">
        <g id="ProfileHome1" transform="translate(-350.000000, -530.000000)" fill="gray" fill-rule="nonzero">
            <g id="Group-9" transform="translate(302.000000, 489.000000)">
                <g id="sunbed" transform="translate(48.000000, 41.000000)">
                    <path d="M2.31533824,28.4375 L18.3741618,28.4375 C19.1484265,28.4375 19.8773824,28.2204464 20.4818824,27.8095536 L30.3012794,17.8889286 C30.7325735,17.4519196 30.9705882,16.8692411 30.9705882,16.2476786 C30.9705882,15.6266964 30.7325735,15.0434375 30.3007059,14.6064286 C29.8688382,14.1694196 29.2924412,13.9285714 28.6787647,13.9285714 C28.0645147,13.9285714 27.4886912,14.1694196 27.0568235,14.6064286 L19.4764853,22.2770089 L26.7413824,7.808125 C26.7476912,7.7959375 26.7465441,7.78258929 26.7517059,7.77040179 C27.1067206,7.36995536 27.7519412,7.25852679 28.2509118,7.55102679 C28.5348088,7.71700893 28.7407059,7.97933036 28.8290294,8.28982143 C28.9144853,8.5921875 28.8789265,8.90441964 28.7275147,9.16964286 C28.6753235,9.26075893 28.6506618,9.36058036 28.6506618,9.45866071 C28.6506618,9.65946429 28.7533235,9.85504464 28.9374265,9.96241071 C29.211,10.1220089 29.562,10.0274107 29.7208676,9.75 C30.0271324,9.21375 30.7796029,9.026875 31.3451029,9.35883929 C31.9341176,9.70299107 32.1572206,10.4330804 31.8423529,10.9873214 C31.8417794,10.9879018 31.8417794,10.9884821 31.8412059,10.9890625 C31.6829118,11.2670536 31.7769706,11.6216518 32.0511176,11.7818304 C32.1411618,11.8346429 32.2398088,11.8595982 32.3373088,11.8595982 C32.53575,11.8595982 32.7284559,11.7557143 32.8345588,11.5694196 C34.9250735,7.905625 33.6168529,3.315 29.8573676,1.11776786 C28.6059265,0.386517857 27.2076618,0 25.8139853,0 C23.1470735,0 20.7583235,1.39575893 19.4242941,3.73459821 C19.266,4.01258929 19.3600588,4.3671875 19.6342059,4.52736607 C19.9089265,4.68754464 20.2587794,4.59178571 20.4176471,4.31495536 C20.4176471,4.314375 20.4182206,4.31321429 20.4187941,4.31263393 C20.7221912,3.78276786 21.4924412,3.60169643 22.0608088,3.93482143 C22.3452794,4.10080357 22.5506029,4.363125 22.6389265,4.67361607 C22.7249559,4.97598214 22.6893971,5.289375 22.5385588,5.55401786 C22.4863676,5.64513393 22.4617059,5.74495536 22.4617059,5.84361607 C22.4617059,6.04441964 22.5643676,6.23941964 22.7484706,6.34678571 C23.0220441,6.50638393 23.3730441,6.41178571 23.5319118,6.134375 C23.8381765,5.598125 24.5895,5.41183036 25.1567206,5.74321429 C25.4406176,5.90919643 25.6459412,6.17151786 25.7342647,6.48200893 C25.8202941,6.784375 25.7847353,7.0971875 25.6338971,7.36183036 C25.5926029,7.43379464 25.5731029,7.5115625 25.5650735,7.58991071 L17.4272647,23.7946429 L2.31533824,23.7946429 C1.05013235,23.7946429 0.0212205882,24.8358036 0.0212205882,26.1160714 C0.0212205882,27.3963393 1.05013235,28.4375 2.31533824,28.4375 Z" id="Shape"></path>
                    <path d="M33.4723235,30.72875 L31.7815588,29.0178571 L26.9065588,24.0848214 L34.2437206,16.6603125 C34.4679706,16.4333929 34.4679706,16.0666071 34.2437206,15.8396875 C34.0194706,15.6127679 33.657,15.6127679 33.43275,15.8396875 L20.4096176,29.0178571 L0.573529412,29.0178571 L0,29.0178571 L0,31.9196429 L32.9853971,31.9196429 C32.9980147,31.9196429 33.0094853,31.915 33.0221029,31.9138393 L33.4333235,32.3299554 C33.5445882,32.443125 33.6914118,32.5 33.8382353,32.5 C33.9850588,32.5 34.1318824,32.443125 34.2437206,32.3299554 C34.4679706,32.1030357 34.4679706,31.73625 34.2437206,31.5093304 L33.4723235,30.72875 Z M22.0315588,29.0178571 L26.0955882,24.9054464 L30.1596176,29.0178571 L22.0315588,29.0178571 Z" id="Shape"></path>
                    <path d="M4.01470588,6.96428571 L5.20133824,6.96428571 C5.30629412,7.81044643 5.63664706,8.58464286 6.12988235,9.22651786 L5.28851471,10.0773214 C5.06426471,10.3042411 5.06426471,10.6710268 5.28851471,10.8979464 C5.40035294,11.0111161 5.54717647,11.0679911 5.694,11.0679911 C5.84082353,11.0679911 5.98764706,11.0111161 6.09948529,10.8979464 L6.94085294,10.0471429 C7.57517647,10.54625 8.34026471,10.8805357 9.17589706,10.9867411 L9.17589706,12.1875 C9.17589706,12.5084375 9.43283824,12.7678571 9.74942647,12.7678571 C10.0660147,12.7678571 10.3229559,12.5084375 10.3229559,12.1875 L10.3229559,10.9867411 C11.1585882,10.8805357 11.9236765,10.54625 12.558,10.0471429 L13.3993676,10.8979464 C13.5112059,11.0111161 13.6580294,11.0679911 13.8048529,11.0679911 C13.9516765,11.0679911 14.0985,11.0111161 14.2103382,10.8979464 C14.4345882,10.6710268 14.4345882,10.3042411 14.2103382,10.0773214 L13.3689706,9.22651786 C13.8622059,8.58464286 14.1925588,7.81044643 14.2975147,6.96428571 L15.4852941,6.96428571 C15.8018824,6.96428571 16.0588235,6.70486607 16.0588235,6.38392857 C16.0588235,6.06299107 15.8018824,5.80357143 15.4852941,5.80357143 L14.2986618,5.80357143 C14.1937059,4.95741071 13.8633529,4.18321429 13.3701176,3.54133929 L14.2114853,2.69053571 C14.4357353,2.46361607 14.4357353,2.09683036 14.2114853,1.86991071 C13.9872353,1.64299107 13.6247647,1.64299107 13.4005147,1.86991071 L12.5591471,2.72071429 C11.9248235,2.22160714 11.1597353,1.88732143 10.3241029,1.78111607 L10.3241029,0.580357143 C10.3241029,0.259419643 10.0671618,0 9.75057353,0 C9.43398529,0 9.17704412,0.259419643 9.17704412,0.580357143 L9.17704412,1.78111607 C8.34141176,1.88732143 7.57632353,2.22160714 6.942,2.72071429 L6.10063235,1.86991071 C5.87638235,1.64299107 5.51391176,1.64299107 5.28966176,1.86991071 C5.06541176,2.09683036 5.06541176,2.46361607 5.28966176,2.69053571 L6.13102941,3.54133929 C5.63664706,4.18321429 5.30629412,4.95741071 5.20133824,5.80357143 L4.01470588,5.80357143 C3.69811765,5.80357143 3.44117647,6.06299107 3.44117647,6.38392857 C3.44117647,6.70486607 3.69811765,6.96428571 4.01470588,6.96428571 Z" id="Shape"></path>
                </g>
            </g>
        </g>
    </g>
</svg>