<?xml version="1.0" encoding="UTF-8"?>
<svg width="38px" height="26px" viewBox="0 0 38 26" version="1.1" xmlns="http://www.w3.org/2000/svg" xmlns:xlink="http://www.w3.org/1999/xlink">
    <!-- Generator: Sketch 49.3 (51167) - http://www.bohemiancoding.com/sketch -->
    <title>ice</title>
    <desc>Created with Sketch.</desc>
    <defs></defs>
    <g id="Page-1" stroke="none" stroke-width="1" fill="none" fill-rule="evenodd">
        <g id="ProfileHome1" transform="translate(-87.000000, -387.000000)" fill="#FFFFFF">
            <path d="M91.356,394.082 L91.356,412 L88.058,412 L88.058,394.082 L91.356,394.082 Z M89.656,391.124 C89.1119973,391.124 88.6530019,390.942668 88.279,390.58 C87.9049981,390.217332 87.718,389.775336 87.718,389.254 C87.718,388.732664 87.9049981,388.290668 88.279,387.928 C88.6530019,387.565332 89.1119973,387.384 89.656,387.384 C90.1773359,387.384 90.6249981,387.565332 90.999,387.928 C91.3730019,388.290668 91.56,388.732664 91.56,389.254 C91.56,389.775336 91.3730019,390.217332 90.999,390.58 C90.6249981,390.942668 90.1773359,391.124 89.656,391.124 Z M95.776,403.602 C95.776,400.881986 96.5183259,398.609676 98.003,396.785 C99.4876741,394.960324 101.442655,394.002667 103.868,393.912 C105.318674,393.866666 106.837325,394.16133 108.424,394.796 L108.458,397.074 C108.276666,396.620664 107.925336,396.224002 107.404,395.884 C106.746663,395.385331 105.919338,395.136 104.922,395.136 C103.131324,395.136 101.726005,396.019991 100.706,397.788 C99.8899959,399.261341 99.482,401.051989 99.482,403.16 C99.482,405.585345 100.071327,407.46666 101.25,408.804 C102.292672,410.050673 103.641325,410.674 105.296,410.674 C106.542673,410.674 107.562663,410.152672 108.356,409.11 L108.424,411.388 C107.675996,411.705335 106.746672,411.931999 105.636,412.068 C105.159998,412.136 104.672669,412.181333 104.174,412.204 C101.793988,412.204 99.8106746,411.410675 98.224,409.824 C96.5919918,408.191992 95.776,406.118013 95.776,403.602 Z M117.91,409.926 C118.726004,410.402002 119.564662,410.64 120.426,410.64 C121.899341,410.64 123.157328,409.948674 124.2,408.566 L124.166,410.81 C123.440663,411.376669 122.40934,411.773332 121.072,412 C120.527997,412.113334 119.927337,412.181333 119.27,412.204 C116.957988,412.204 115.059674,411.359675 113.575,409.671 C112.090326,407.982325 111.348,405.880013 111.348,403.364 C111.348,400.779987 111.971327,398.604009 113.218,396.836 C114.578007,394.886657 116.413988,393.912 118.726,393.912 C120.358008,393.912 121.678328,394.319996 122.687,395.136 C123.695672,395.952004 124.2,396.949327 124.2,398.128 C124.2,399.306673 123.701338,400.417328 122.704,401.46 C121.842662,402.366671 120.562008,403.250662 118.862,404.112 C117.275325,404.950671 116.16467,405.755329 115.53,406.526 C116.16467,408.226008 116.957995,409.35933 117.91,409.926 Z M118.794,395.136 C117.660661,395.136 116.697337,395.985992 115.904,397.686 C115.20133,399.227341 114.85,400.938657 114.85,402.82 C114.85,403.590671 114.929333,404.29333 115.088,404.928 C115.428002,404.542665 116.062662,404.055336 116.992,403.466 C117.989338,402.876664 118.703331,402.400668 119.134,402.038 C119.904671,401.380663 120.448665,400.632671 120.766,399.794 C121.060668,399.136663 121.208,398.502003 121.208,397.89 C121.208,397.073996 120.981336,396.411003 120.528,395.901 C120.074664,395.390997 119.49667,395.136 118.794,395.136 Z" id="ice"></path>
        </g>
    </g>
</svg>