<?xml version="1.0" encoding="UTF-8"?>
<svg width="220px" height="216px" viewBox="0 0 220 216" version="1.1" xmlns="http://www.w3.org/2000/svg" xmlns:xlink="http://www.w3.org/1999/xlink">
    <!-- Generator: Sketch 49.2 (51160) - http://www.bohemiancoding.com/sketch -->
    <title>Group 11</title>
    <desc>Created with Sketch.</desc>
    <defs>
        <linearGradient x1="34.4508456%" y1="-7.75322571%" x2="95.9881533%" y2="96.9104117%" id="linearGradient-1">
            <stop stop-color="#FFFFFF" offset="0%"></stop>
            <stop stop-color="#EEEEEE" offset="100%"></stop>
        </linearGradient>
        <rect id="path-2" x="0" y="0" width="220" height="216" rx="16"></rect>
    </defs>
    <g id="Page-1" stroke="none" stroke-width="1" fill="none" fill-rule="evenodd">
        <g id="Group-11">
            <g id="Group-8">
                <g id="Rectangle-Copy">
                    <use fill="url(#linearGradient-1)" fill-rule="evenodd" xlink:href="#path-2"></use>
                    <rect stroke="#F6F6F6" stroke-width="2" x="1" y="1" width="218" height="214" rx="16"></rect>
                </g>
                <text id="Ice-Hockey" font-family="HelveticaNeue, Helvetica Neue" font-size="14" font-weight="normal" line-spacing="33" letter-spacing="0.466666728" fill="#333333">
                    <tspan x="66.6666664" y="189">ICE HOCKEY</tspan>
                </text>
            </g>
            <g id="ice-hockey" transform="translate(35.000000, 20.000000)" fill-rule="nonzero">
                <path d="M150,75 C150,86.2286133 147.532617,96.8847656 143.109082,106.447852 C143.109082,106.450781 143.106152,106.450781 143.106152,106.450781 C142.359082,108.06709 141.554004,109.65293 140.69707,111.204785 C138.826758,114.593555 136.702148,117.82002 134.348145,120.863086 C120.630469,138.587695 99.1470703,150 75,150 C53.1583008,150 33.4959961,140.663379 19.790918,125.76123 C17.2224609,122.972461 14.8655273,119.990918 12.7438477,116.834766 C4.69599609,104.883691 0,90.4898438 0,75 C0,33.5786133 33.5786133,0 75,0 C116.421387,0 150,33.5786133 150,75 Z" id="Shape" fill="#34ABE0"></path>
                <g id="Group" transform="translate(12.597656, 36.621094)" fill="#78CAEF">
                    <path d="M73.3432617,94.650293 C73.3432617,97.6930664 70.8758789,100.160449 67.8331055,100.160449 L24.2135742,100.160449 C22.6921875,100.160449 21.3146484,99.5452148 20.3165039,98.5470703 C19.3183594,97.5489258 18.703125,96.1716797 18.703125,94.65 C18.703125,91.6072266 16.2357422,89.1398437 13.1929688,89.1398437 L7.19296875,89.1398437 C4.62451172,86.3510742 2.26757813,83.3695312 0.145898438,80.2133789 C1.15605469,78.9369141 2.71728516,78.1195312 4.46835938,78.1195312 L56.8125,78.1195312 C59.8584961,78.1195312 62.3226563,80.5869141 62.3226563,83.6296875 C62.3226563,85.1510742 62.9411133,86.5286133 63.9360352,87.5267578 C64.9338867,88.5246094 66.3114258,89.1401367 67.8331055,89.1401367 C69.3547852,89.1401367 70.7320312,89.7553711 71.7301758,90.7535156 C72.7248047,91.7513672 73.3432617,93.1289062 73.3432617,94.650293 Z" id="Shape"></path>
                    <path d="M132.914941,16.8199219 C132.914941,13.7768555 130.448145,11.3100586 127.405078,11.3100586 L125.568457,11.3100586 C122.525391,11.3100586 120.058594,8.84326172 120.058594,5.80019531 C120.058594,2.75712891 117.591797,0.290332031 114.54873,0.290332031 L30.0629883,0.290332031 C27.0199219,0.290332031 24.553125,2.75712891 24.553125,5.80019531 C24.553125,8.84326172 27.0199219,11.3100586 30.0629883,11.3100586 L64.040918,11.3100586 C67.0839844,11.3100586 69.5507813,13.7768555 69.5507813,16.8199219 C69.5507813,19.8629883 67.0839844,22.3297852 64.040918,22.3297852 L48.5654297,22.3297852 C45.5223633,22.3297852 43.0555664,24.796582 43.0555664,27.8396484 C43.0555664,30.8827148 45.5223633,33.3495117 48.5654297,33.3495117 L53.240332,33.3495117 C56.2833984,33.3495117 58.7501953,35.8163086 58.7501953,38.859375 C58.7501953,41.9024414 56.2833984,44.3692383 53.240332,44.3692383 L36.4907227,44.3692383 C33.4476563,44.3692383 30.9808594,46.8360352 30.9808594,49.8791016 C30.9808594,52.922168 33.4476563,55.3889648 36.4907227,55.3889648 L115.843359,55.3889648 C118.886426,55.3889648 121.353223,52.922168 121.353223,49.8791016 C121.353223,46.8360352 123.82002,44.3692383 126.863086,44.3692383 L127.404199,44.3692383 C130.447266,44.3692383 132.914063,41.9024414 132.914063,38.859375 C132.914063,35.8163086 130.447266,33.3495117 127.404199,33.3495117 L117.302637,33.3495117 C114.25957,33.3495117 111.792773,30.8827148 111.792773,27.8396484 C111.792773,24.796582 114.25957,22.3297852 117.302637,22.3297852 L127.404199,22.3297852 C130.448145,22.3297852 132.914941,19.8626953 132.914941,16.8199219 Z" id="Shape"></path>
                </g>
                <g id="Group" transform="translate(20.800781, 65.039062)" fill="#FFD15C">
                    <path d="M24.3644531,27.0026367 C22.7912109,27.0026367 21.2563477,26.4333984 20.0378906,25.3564453 L0.205078125,7.82255859 L3.06621094,4.58642578 L22.8993164,22.1200195 C23.4770508,22.6306641 24.2642578,22.8067383 25.0045898,22.5902344 L39.9120117,18.2326172 C40.8580078,17.9560547 41.5183594,17.0748047 41.5183594,16.0895508 L41.5183594,0.243164063 L45.8381836,0.243164063 L45.8381836,16.0895508 C45.8381836,18.9811523 43.8999023,21.5671875 41.1243164,22.378418 L26.2168945,26.7360352 C25.6042969,26.915332 24.9817383,27.0026367 24.3644531,27.0026367 Z" id="Shape"></path>
                    <path d="M36.0486328,34.0048828 C35.1363281,34.0048828 34.2887695,33.4224609 33.99375,32.5072266 L31.021582,23.2886719 C30.6553711,22.1537109 31.2793945,20.9364258 32.4143555,20.5702148 C33.5493164,20.2048828 34.7666016,20.8280273 35.1328125,21.9629883 L38.1049805,31.181543 C38.4711914,32.3165039 37.847168,33.5337891 36.712207,33.9 C36.4916016,33.9708984 36.2680664,34.0048828 36.0486328,34.0048828 Z" id="Shape"></path>
                </g>
                <path d="M94.2234375,42.7851562 C94.0839844,45.8220703 91.5820312,48.2112305 88.5416016,48.2112305 L72.6357422,48.2112305 L70.1238281,64.0341797 C69.7649414,66.3067383 67.8046875,67.978125 65.5083984,67.978125 L61.537793,67.978125 C59.540918,67.978125 57.7664063,66.7119141 57.1186523,64.8249023 L52.8424805,52.4279297 C52.2943359,50.8429687 50.8022461,49.7797852 49.1276367,49.7797852 L38.2324219,49.7797852 C36.3486328,49.7797852 34.7302734,51.1186523 34.3746094,52.9696289 L31.5169922,67.865625 C30.9556641,70.8029297 28.7358398,73.1487305 25.8351562,73.8732422 L22.5755859,74.690625 L16.2987305,76.2588867 C16.0426758,76.0461914 15.7869141,75.8302734 15.534668,75.6140625 C-0.859863281,61.5319336 -2.93320313,37.5351562 9.15498047,20.5658203 C10.2181641,19.0672852 11.3979492,17.625293 12.6870117,16.2459961 C13.1956055,15.7010742 13.7206055,15.1661133 14.2652344,14.6443359 C23.2599609,5.99589844 35.484375,0.6796875 48.9480469,0.6796875 C63.5915039,0.6796875 77.5236328,5.71025391 86.372168,16.246582 C87.5050781,17.5957031 88.5550781,19.0344727 89.5119141,20.5664062 C90.412207,22.0051758 91.2331055,23.5236328 91.9608398,25.125293 C92.0405273,25.3045898 92.4890625,26.4046875 92.5921875,26.7899414 C93.6955078,30.8138672 94.2834961,35.053418 94.2834961,39.4262695 C94.2834961,39.6287109 94.303418,41.0607422 94.2234375,42.7851562 Z" id="Shape" fill="#FF525D"></path>
                <path d="M29.3589844,20.5661133 C30.422168,19.0675781 31.6019531,17.6255859 32.8910156,16.2462891 C33.3996094,15.7013672 33.9246094,15.1664063 34.4692383,14.6446289 C41.2713867,8.10410156 49.9207031,3.47138672 59.5558594,1.60048828 C56.1058594,0.985253906 52.5486328,0.679101563 48.9477539,0.679101563 C35.4837891,0.679101563 23.259668,5.99560547 14.2649414,14.6443359 C13.7200195,15.1661133 13.1950195,15.7010742 12.6867187,16.2459961 C11.3976562,17.624707 10.2178711,19.0669922 9.1546875,20.5658203 C-2.93349609,37.5351563 -0.86015625,61.5316406 15.534375,75.6137695 C15.7869141,75.8299805 16.0429687,76.0456055 16.2984375,76.2585938 L22.575293,74.690332 L25.8348633,73.8729492 C27.8683594,73.3652344 29.5646484,72.0585938 30.5920898,70.3116211 C19.0561523,56.0323242 18.6799805,35.5576172 29.3589844,20.5661133 Z" id="Shape" fill="#EF4152"></path>
                <path d="M89.5133789,20.5652344 L9.15615234,20.5652344 C10.218457,19.0681641 11.3970703,17.6264648 12.6858398,16.2457031 L86.3724609,16.2457031 C87.5050781,17.5959961 88.5550781,19.0347656 89.5133789,20.5652344 Z" id="Shape" fill="#FFD15C"></path>
                <g id="Group" transform="translate(31.933594, 30.761719)" fill="#5C5E70">
                    <path d="M2.26933594,11.9466797 C1.07988281,11.9466797 0.113671875,10.9845703 0.109570312,9.79394531 L0.0846679688,2.27929687 C0.0805664063,1.08632812 1.04443359,0.116308594 2.23740234,0.112207031 C2.23974609,0.112207031 2.24238281,0.112207031 2.24472656,0.112207031 C3.43417969,0.112207031 4.40039063,1.07431641 4.40449219,2.26494141 L4.42939453,9.77958984 C4.43349609,10.9725586 3.46962891,11.9425781 2.27666016,11.9466797 C2.27431641,11.9466797 2.27197266,11.9466797 2.26933594,11.9466797 Z" id="Shape"></path>
                    <path d="M10.3775391,11.9200195 C9.18808594,11.9200195 8.221875,10.9579102 8.21777344,9.76728516 L8.19287109,2.25234375 C8.18876953,1.059375 9.15263672,0.0893554688 10.3456055,0.0852539062 C10.3479492,0.0852539062 10.3505859,0.0852539062 10.3529297,0.0852539062 C11.5423828,0.0852539062 12.5085938,1.04736328 12.5126953,2.23798828 L12.5375977,9.75292969 C12.5416992,10.9456055 11.577832,11.915918 10.3848633,11.9200195 C10.3822266,11.9200195 10.3798828,11.9200195 10.3775391,11.9200195 Z" id="Shape"></path>
                    <path d="M18.4857422,11.8933594 C17.2962891,11.8933594 16.3300781,10.93125 16.3259766,9.740625 L16.3010742,2.22597656 C16.2969727,1.03300781 17.2608398,0.0629882812 18.4538086,0.0588867187 C18.4561523,0.0588867187 18.4587891,0.0588867187 18.4611328,0.0588867187 C19.6505859,0.0588867187 20.6167969,1.02099609 20.6208984,2.21162109 L20.6458008,9.72626953 C20.6499023,10.9189453 19.6860352,11.8892578 18.4930664,11.8933594 C18.4907227,11.8933594 18.4880859,11.8933594 18.4857422,11.8933594 Z" id="Shape"></path>
                </g>
                <circle id="Oval" fill="#FF6E7C" cx="72.4746094" cy="20.2101563" r="5.73984375"></circle>
                <path d="M78.2141602,20.2101562 C78.2141602,20.3296875 78.2112305,20.4459961 78.2018555,20.5652344 L66.7467773,20.5652344 C66.7376953,20.4457031 66.7344727,20.3293945 66.7344727,20.2101562 C66.7344727,18.6703125 67.340625,17.2743164 68.3232422,16.2459961 L76.6253906,16.2459961 C77.6083008,17.2746094 78.2141602,18.6703125 78.2141602,20.2101562 Z" id="Shape" fill="#FFDC8D"></path>
                <circle id="Oval" fill="#FF6E7C" cx="65.8163086" cy="11.8171875" r="2.44892578"></circle>
                <path d="M143.329688,106.86416 C143.253223,106.726465 143.179688,106.58877 143.106152,106.450781 C142.359082,108.06709 141.554004,109.65293 140.69707,111.204785 C138.826758,114.593555 136.702148,117.82002 134.348145,120.863086 C131.706445,121.132617 129.058301,121.365234 126.410449,121.558008 C123.750293,121.756934 121.090137,121.913086 118.426758,122.035547 C113.195215,122.271387 107.957227,122.363086 102.722754,122.310937 C98.9329102,122.271094 95.1430664,122.154785 91.3564453,121.964941 C89.0361328,121.848633 86.7155273,121.701562 84.3981445,121.527246 C82.0959961,121.355859 79.7941406,121.156934 77.4952148,120.927246 C72.0585938,120.385547 66.6310547,119.687402 61.2249023,118.830176 C64.06875,116.329102 66.8452148,113.788477 69.5484375,111.204785 C70.5618164,110.240625 71.5625977,109.27002 72.5545898,108.293555 L90.9647461,107.457715 L96.2759766,107.216016 L96.2759766,111.896777 C96.2759766,113.298926 96.9618164,114.541699 98.0176758,115.304004 C98.709375,115.806152 99.5604492,116.10293 100.481836,116.10293 L122.681836,116.10293 C123.62168,116.10293 124.487988,115.796777 125.18584,115.276465 L125.198145,115.267383 C125.522754,115.025684 125.810449,114.737695 126.052148,114.413379 L126.06123,114.401074 C126.581543,113.703223 126.887695,112.836914 126.887695,111.89707 L126.887695,105.826758 L135.00293,105.459375 L142.398926,105.122754 C142.451074,105.220605 142.50293,105.315527 142.555078,105.413672 C142.73877,105.759668 142.922461,106.102441 143.109082,106.448437 C143.179688,106.58584 143.25293,106.726465 143.329688,106.86416 Z" id="Shape" fill="#F9EED7"></path>
                <path d="M136.670508,108.070312 L72.9175781,108.070312 C69.2074219,108.070312 66.2012695,105.06416 66.2012695,101.356934 C66.2012695,101.063086 66.2074219,100.769238 66.2226562,100.47832 C66.4461914,96.1743164 68.2828125,92.2957031 71.1389648,89.4366211 C74.1052734,86.4732422 78.1675781,84.6061523 82.6643555,84.5050781 C82.7958984,84.4989258 82.9277344,84.4989258 83.0592773,84.4989258 L87.4889648,84.4989258 C87.7523437,84.4989258 88.0154297,84.4927734 88.2755859,84.4836914 C88.5076172,84.4754883 88.7384766,84.4631836 88.96875,84.4476562 C93.9612305,84.1072266 98.605957,81.7634766 102.01377,78.0990234 L103.236328,76.7841797 C106.637988,73.1258789 108.568945,68.3405273 108.658008,63.3459961 L108.77959,56.5435547 L108.77959,56.4424805 C108.77959,48.9210937 115.973437,43.4841797 123.210352,45.5414062 L141.813281,50.8250977 L141.813281,76.5424805 L142.606055,84.7250977 L144.075586,99.9149414 C144.498047,104.286621 141.063281,108.070312 136.670508,108.070312 Z" id="Shape" fill="#5C5E70"></path>
                <g id="Group" transform="translate(77.343750, 104.882812)" fill="#FCF8F2">
                    <path d="M18.9307617,2.33349609 L18.9307617,4.7671875 L7.05322266,16.6447266 C4.75107422,16.4733398 2.44921875,16.2744141 0.150292969,16.0447266 L13.6198242,2.57548828 L18.9307617,2.33349609 Z" id="Shape"></path>
                    <path d="M65.2104492,0.530566406 L49.0655273,16.6754883 C46.4053711,16.8744141 43.7452148,17.0305664 41.0818359,17.1530273 L47.840918,10.3939453 L47.8532227,10.3848633 L48.7072266,9.53085937 L48.7163086,9.51855469 L57.6580078,0.576855469 L65.0540039,0.240234375 C65.1064453,0.3375 65.1583008,0.432421875 65.2104492,0.530566406 Z" id="Shape"></path>
                    <path d="M31.5829102,11.2201172 L25.377832,17.428418 C21.5879883,17.3885742 17.7981445,17.2722656 14.0115234,17.0824219 L20.6727539,10.4211914 C21.3644531,10.9233398 22.2155273,11.2201172 23.1369141,11.2201172 L31.5829102,11.2201172 Z" id="Shape"></path>
                </g>
                <g id="Group" transform="translate(82.617188, 59.179688)" fill="#797B89">
                    <path d="M25.9330078,48.3949219 C25.6913086,48.6366211 25.406543,48.8021484 25.1003906,48.890918 C24.9137695,48.9492188 24.7177734,48.9767578 24.525,48.9767578 C24.3322266,48.9767578 24.1362305,48.9492188 23.9496094,48.890918 C23.643457,48.8021484 23.3586914,48.6369141 23.1169922,48.3949219 L0.0477539063,25.3253906 C0.179296875,25.3192383 0.311132813,25.3192383 0.442675781,25.3192383 L4.87236328,25.3192383 C5.13574219,25.3192383 5.39882813,25.3130859 5.65898438,25.3040039 L25.9335938,45.5786133 C26.7073242,46.3561523 26.7073242,47.6173828 25.9330078,48.3949219 Z" id="Shape"></path>
                    <path d="M59.1960937,0.272460938 L59.1960937,4.25214844 L30.4939453,4.25214844 C29.3950195,4.25214844 28.5041016,3.36123047 28.5041016,2.26230469 C28.5041016,1.16337891 29.3950195,0.272460938 30.4939453,0.272460938 L59.1960937,0.272460938 Z" id="Shape"></path>
                </g>
                <path d="M143.106152,106.451074 C142.359082,108.067383 141.554004,109.653223 140.69707,111.205078 L126.887695,111.205078 L126.887695,105.826465 L135.00293,105.459082 L142.398926,105.122461 C142.451074,105.220312 142.50293,105.315234 142.555078,105.413379 C142.73584,105.759082 142.922461,106.105078 143.106152,106.451074 Z" id="Shape" fill="#E8DBC4"></path>
                <path d="M136.670508,108.070313 L72.9175781,108.070313 C69.2074219,108.070313 66.2012695,105.06416 66.2012695,101.356934 C66.2012695,101.063086 66.2074219,100.769238 66.2226563,100.47832 L67.5175781,100.643555 L98.3165039,100.643555 C107.261426,100.643555 115.955273,97.2852539 122.30127,90.9823242 C126.234961,87.0761719 131.637891,84.7250977 137.475879,84.7250977 L142.606641,84.7250977 L144.076172,99.9149414 C144.498047,104.286621 141.063281,108.070313 136.670508,108.070313 Z" id="Shape" fill="#FF525D"></path>
                <path d="M72.553125,108.293848 L96.2745117,107.216309 L96.2745117,111.205078 L69.5469727,111.205078 C70.5603516,110.240918 71.5614258,109.270313 72.553125,108.293848 Z" id="Shape" fill="#E8DBC4"></path>
                <path d="M144.019922,99.3392578 C143.468848,102.864551 140.419922,105.621387 136.670508,105.621387 L72.9175781,105.621387 C69.7564453,105.621387 67.1083008,103.43877 66.3928711,100.500293 L66.2226562,100.478613 C66.2074219,100.769531 66.2012695,101.063379 66.2012695,101.357227 C66.2012695,105.064453 69.2074219,108.070605 72.9175781,108.070605 L136.670508,108.070605 C141.063281,108.070605 144.498047,104.286914 144.075586,99.9155273 L144.019922,99.3392578 Z" id="Shape" fill="#EF4152"></path>
                <path d="M134.999121,81.2050781 C133.392773,81.2050781 132.09082,79.903125 132.09082,78.2967773 L132.09082,70.6438477 C132.09082,69.0375 133.392773,67.7355469 134.999121,67.7355469 C136.605469,67.7355469 137.907422,69.0375 137.907422,70.6438477 L137.907422,78.2967773 C137.907129,79.903125 136.605176,81.2050781 134.999121,81.2050781 Z" id="Shape" fill="#797B89"></path>
                <path d="M134.999121,102.327539 C133.392773,102.327539 132.09082,101.025586 132.09082,99.4192383 L132.09082,91.7663086 C132.09082,90.1599609 133.392773,88.8580078 134.999121,88.8580078 C136.605469,88.8580078 137.907422,90.1599609 137.907422,91.7663086 L137.907422,99.4192383 C137.907129,101.025586 136.605176,102.327539 134.999121,102.327539 Z" id="Shape" fill="#FF6E7C"></path>
                <g id="Group" transform="translate(87.597656, 54.492188)" fill="#F9EED7">
                    <path d="M27.0436523,17.6827148 C26.8749023,17.6827148 26.7035156,17.6513672 26.5371094,17.5857422 L19.1900391,14.6774414 C18.4825195,14.3973633 18.1362305,13.5972656 18.4160156,12.8897461 C18.6960938,12.1822266 19.4958984,11.8353516 20.2037109,12.1160156 L27.5507813,15.0243164 C28.2583008,15.3043945 28.6045898,16.1044922 28.3248047,16.8120117 C28.1109375,17.3525391 27.5920898,17.6827148 27.0436523,17.6827148 Z" id="Shape"></path>
                    <path d="M21.8387695,24.1110352 C21.5794922,24.1110352 21.3169922,24.037793 21.084082,23.8851562 L15.9539062,20.5177734 C15.3178711,20.100293 15.140625,19.2459961 15.5581055,18.6102539 C15.9755859,17.9742188 16.8295898,17.7972656 17.465625,18.2144531 L22.5958008,21.5818359 C23.2318359,21.9993164 23.409082,22.8536133 22.9916016,23.4893555 C22.7273438,23.8921875 22.2873047,24.1110352 21.8387695,24.1110352 Z" id="Shape"></path>
                    <path d="M16.6371094,30.5396484 C16.2166992,30.5396484 15.8021484,30.3480469 15.5317383,29.9853516 L11.5520508,24.6462891 C11.0973633,24.0363281 11.2233398,23.1732422 11.8330078,22.7185547 C12.4429687,22.2635742 13.3063477,22.3898438 13.7607422,22.9995117 L17.7404297,28.3385742 C18.1951172,28.9485352 18.0691406,29.8116211 17.4594727,30.2663086 C17.212207,30.4505859 16.9233398,30.5396484 16.6371094,30.5396484 Z" id="Shape"></path>
                    <path d="M10.2082031,33.9070313 C9.67734375,33.9070313 9.17167969,33.5988281 8.94550781,33.0814453 L6.80273437,28.1835937 C6.49775391,27.4866211 6.815625,26.6745117 7.51259766,26.3695312 C8.20986328,26.0645508 9.02167969,26.3824219 9.32666016,27.0793945 L11.4694336,31.9772461 C11.7744141,32.6742188 11.456543,33.4863281 10.7595703,33.7913086 C10.5799805,33.8698242 10.3924805,33.9070313 10.2082031,33.9070313 Z" id="Shape"></path>
                    <path d="M2.4,35.2845703 C1.76425781,35.2845703 1.19296875,34.8418945 1.05439453,34.1953125 L0.1359375,29.9094727 C-0.0234375,29.165625 0.450292969,28.4334961 1.19414063,28.2738281 C1.93886719,28.1132812 2.67070313,28.5881836 2.82978516,29.3320312 L3.74824219,33.6178711 C3.90761719,34.3617187 3.43388672,35.0941406 2.69003906,35.2535156 C2.59277344,35.2746094 2.49550781,35.2845703 2.4,35.2845703 Z" id="Shape"></path>
                    <path d="M28.4217773,8.19257812 C27.6720703,8.19257812 27.0462891,7.56416016 27.0442383,6.81503906 C27.0421875,6.08349609 27.6480469,5.46005859 28.3775391,5.44042969 C29.1073242,5.42080078 29.7407227,5.98505859 29.7958008,6.71601563 C29.8546875,7.5 29.2060547,8.19257812 28.4217773,8.19257812 Z" id="Shape"></path>
                    <path d="M28.4217773,2.83535156 C27.6720703,2.83535156 27.0462891,2.20693359 27.0442383,1.4578125 C27.0421875,0.725683594 27.6480469,0.103710937 28.3775391,0.08203125 C29.1070312,0.0603515625 29.7404297,0.629882813 29.7958008,1.35849609 C29.8549805,2.14365234 29.2066406,2.83535156 28.4217773,2.83535156 Z" id="Shape"></path>
                </g>
                <path d="M30.8115234,116.173535 C30.8115234,122.513379 35.9507812,127.652637 42.290625,127.652637 C48.6304687,127.652637 53.7697266,122.513379 53.7697266,116.173535 L53.7697266,110.20459 L30.8115234,110.20459 L30.8115234,116.173535 Z" id="Shape" fill="#494B5B"></path>
                <circle id="Oval" fill="#5C5E70" cx="42.290918" cy="110.204004" r="11.4791016"></circle>
            </g>
        </g>
    </g>
</svg>