<?xml version="1.0" encoding="UTF-8"?>
<svg width="15px" height="15px" viewBox="0 0 15 15" version="1.1" xmlns="http://www.w3.org/2000/svg" xmlns:xlink="http://www.w3.org/1999/xlink">
    <!-- Generator: Sketch 47.1 (45422) - http://www.bohemiancoding.com/sketch -->
    <title>Icon_info</title>
    <desc>Created with Sketch.</desc>
    <defs></defs>
    <g id="Page-1" stroke="none" stroke-width="1" fill="none" fill-rule="evenodd">
        <g id="ORDER-SUMMARY-MILES" transform="translate(-109.000000, -545.000000)" fill="#666666">
            <g id="Note" transform="translate(89.000000, 521.000000)">
                <g id="Icon_info" transform="translate(20.000000, 24.000000)">
                    <path d="M7.5,15 C11.6421356,15 15,11.6421356 15,7.5 C15,3.35786438 11.6421356,0 7.5,0 C3.35786438,0 0,3.35786438 0,7.5 C0.0049591745,11.6400797 3.35992027,14.9950408 7.5,15 L7.5,15 Z M7.5,1.595 C10.7612414,1.595 13.405,4.23875855 13.405,7.5 C13.405,10.7612414 10.7612414,13.405 7.5,13.405 C4.23875855,13.405 1.595,10.7612414 1.595,7.5 C1.59940685,4.24058568 4.24058568,1.59940685 7.5,1.595 L7.5,1.595 Z M6.875,6.875 L6.875,11.25 C6.85991078,11.4147155 6.91562024,11.5780708 7.02820698,11.6992447 C7.14079371,11.8204186 7.29962136,11.8879633 7.465,11.885 C7.82895324,11.8863967 8.12588242,11.5939326 8.13,11.23 L8.13,6.91 C8.1237076,6.54779611 7.82725318,6.25802863 7.465,6.26 C7.465,6.26 6.875,5.97 6.875,6.875 L6.875,6.875 Z M7.5,3.75 C7.75423247,3.74696324 7.98517082,3.89763727 8.08480584,4.13155229 C8.18444086,4.3654673 8.13307807,4.6363862 7.95473971,4.81760098 C7.77640135,4.99881577 7.50633888,5.05450641 7.27085974,4.95862654 C7.03538061,4.86274667 6.88103109,4.63424852 6.88,4.38 C6.87750415,4.03492962 7.15493385,3.75302525 7.5,3.75 L7.5,3.75 Z" id="Forma_1_copy_9"></path>
                </g>
            </g>
        </g>
    </g>
</svg>