<?xml version="1.0" encoding="UTF-8"?>
<svg width="16px" height="23px" viewBox="0 0 16 23" version="1.1" xmlns="http://www.w3.org/2000/svg" xmlns:xlink="http://www.w3.org/1999/xlink">
    <!-- Generator: Sketch 49.2 (51160) - http://www.bohemiancoding.com/sketch -->
    <title>baby-with-diaper</title>
    <desc>Created with Sketch.</desc>
    <defs></defs>
    <g id="Page-1" stroke="none" stroke-width="1" fill="none" fill-rule="evenodd">
        <g id="baby-with-diaper" fill="#010002" fill-rule="nonzero">
            <path d="M11.3215439,14.1397895 C11.3215439,14.1397895 13.4554386,16.2762105 13.4610526,16.2792982 C14.1414737,16.9650526 13.9654737,18.1701053 13.3201404,18.8258246 L10.3435789,21.9275789 C9.19382456,23.0742456 7.65754386,21.4826667 8.77361404,20.3724912 L10.6618947,18.482807 L8.81319298,16.6487018 L11.3215439,14.1397895 Z M4.68491228,14.1397895 C4.68491228,14.1397895 2.55410526,16.2762105 2.55410526,16.2792982 C1.86807018,16.9650526 2.04407018,18.1701053 2.68210526,18.8258246 L5.67185965,21.9275789 C6.81712281,23.0742456 8.35368421,21.4826667 7.24322807,20.3724912 L5.35803509,18.482807 L7.19242105,16.6487018 L4.68491228,14.1397895 Z M8.07747368,6.192 C9.78666667,6.192 11.1733333,4.80898246 11.1733333,3.09164912 C11.1733333,1.38442105 9.78694737,0 8.07747368,0 C6.36659649,0 4.97712281,1.38442105 4.97712281,3.09164912 C4.97712281,4.80757895 6.36519298,6.192 8.07747368,6.192 Z M11.4321404,12.8999298 L11.4773333,10.7879298 L14.0513684,13.1890526 C14.2607719,13.3883509 14.5296842,13.4826667 14.7985965,13.4826667 C15.0891228,13.4826667 15.3844211,13.3664561 15.5994386,13.1368421 C16.0123509,12.6922105 15.9890526,12.0002807 15.5469474,11.5873684 C15.5469474,11.5873684 12.5964912,8.38091228 12.1720702,8.00729825 C11.3872281,7.31115789 10.2360702,6.91649123 8.3682807,6.91649123 L7.78245614,6.91649123 C5.91326316,6.91649123 4.76350877,7.31115789 3.97557895,8.00589474 C3.55284211,8.37950877 0.602105263,11.5873684 0.602105263,11.5873684 C0.161684211,12 0.135578947,12.6922105 0.549614035,13.1368421 C0.764912281,13.3664561 1.05824561,13.4826667 1.35073684,13.4826667 C1.61964912,13.4826667 1.8885614,13.3883509 2.09936842,13.1890526 L4.6722807,10.7893333 L4.71719298,12.9010526 L11.4324211,12.9010526 L11.4324211,12.8999298 L11.4321404,12.8999298 Z" id="Shape"></path>
        </g>
    </g>
</svg>