<?xml version="1.0" encoding="UTF-8"?>
<svg width="36px" height="36px" viewBox="0 0 36 36" version="1.1" xmlns="http://www.w3.org/2000/svg" xmlns:xlink="http://www.w3.org/1999/xlink">
    <!-- Generator: Sketch 49.2 (51160) - http://www.bohemiancoding.com/sketch -->
    <title>favorite</title>
    <desc>Created with Sketch.</desc>
    <defs></defs>
    <g id="Page-1" stroke="none" stroke-width="1" fill="none" fill-rule="evenodd">
        <g id="ProfileHome1" transform="translate(-69.000000, -529.000000)" fill="#b0270d" fill-rule="nonzero">
            <g id="favorite" transform="translate(69.000000, 529.000000)">
                <path d="M21.6512578,11.671875 C19.8766406,11.671875 18.7189453,12.6235547 18,13.5907031 C17.2810547,12.6235547 16.1234297,11.671875 14.3487422,11.671875 C11.7099844,11.671875 9.64385156,13.8760313 9.64385156,16.6898672 C9.64385156,19.69425 12.0683672,21.7408359 15.4240312,24.5732344 C16.0162734,25.0737891 16.646625,25.6052813 17.3088984,26.1800156 C17.5076719,26.352 17.7538359,26.4375 18,26.4375 C18.2461641,26.4375 18.4923281,26.352 18.6911016,26.1800156 C19.353375,25.6052813 19.9837266,25.0738594 20.5759687,24.5732344 C23.9316328,21.7408359 26.3561484,19.69425 26.3561484,16.6898672 C26.3561484,13.8760313 24.2900156,11.671875 21.6512578,11.671875 Z" id="Shape"></path>
                <path d="M7.55894531,16.9453125 L6.20416406,16.9453125 C5.7673125,15.7203281 4.60757812,14.8359375 3.234375,14.8359375 C1.48964062,14.8359375 0,16.2552656 0,18 C0,19.7447344 1.48964062,21.1640625 3.234375,21.1640625 C4.60757812,21.1640625 5.7673125,20.2796719 6.20416406,19.0546875 L7.94946094,19.0546875 C7.72347656,18.3928359 7.58460938,17.6948438 7.55894531,16.9453125 Z" id="Shape"></path>
                <path d="M32.765625,14.8359375 C31.3924219,14.8359375 30.2326875,15.7203281 29.7958359,16.9453125 L28.4410547,16.9453125 C28.4154609,17.6954063 28.2766641,18.3934688 28.0515938,19.0546875 L29.7958359,19.0546875 C30.2326875,20.2796719 31.3924219,21.1640625 32.765625,21.1640625 C34.5103594,21.1640625 36,19.7447344 36,18 C36,16.2552656 34.5103594,14.8359375 32.765625,14.8359375 Z" id="Shape"></path>
                <path d="M30.6779063,5.32209375 C29.4439922,4.08817969 27.437625,4.08817969 26.2037109,5.32209375 C25.2341016,6.29170313 25.0548047,7.72579687 25.6089375,8.89966406 L24.3706641,10.1379375 C25.0337109,10.4324062 25.6233516,10.8506953 26.1539297,11.3374687 L27.1003359,10.3910625 C28.2742031,10.9452656 29.7082969,10.7658984 30.6779063,9.79628906 C31.9118203,8.562375 31.9118203,6.55600781 30.6779063,5.32209375 Z" id="Shape"></path>
                <path d="M30.6779062,26.2037109 C29.7082969,25.2341016 28.2742031,25.0548047 27.1003359,25.6089375 L24.976125,23.4847266 C24.4862578,23.9621484 23.9705156,24.4374609 23.4225703,24.9139688 L25.6089375,27.1003359 C25.054875,28.2742031 25.2342422,29.7084375 26.2037109,30.6779062 C27.437625,31.9118203 29.4439922,31.9118203 30.6779062,30.6779062 C31.9118203,29.4439922 31.9118203,27.437625 30.6779062,26.2037109 Z" id="Shape"></path>
                <path d="M10.3910625,8.89966406 C10.9452656,7.72579687 10.7658984,6.29170313 9.79628906,5.32209375 C8.562375,4.08817969 6.55600781,4.08817969 5.32209375,5.32209375 C4.08817969,6.55600781 4.08817969,8.562375 5.32209375,9.79628906 C6.2915625,10.7657578 7.72579687,10.945125 8.89966406,10.3910625 L9.84607031,11.3374687 C10.3766484,10.8506953 10.9662891,10.4324062 11.6293359,10.1379375 L10.3910625,8.89966406 Z" id="Shape"></path>
                <path d="M18,0 C16.2552656,0 14.8359375,1.48964063 14.8359375,3.234375 C14.8359375,4.60757813 15.7203281,5.7673125 16.9453125,6.20416406 L16.9453125,10.1039766 C17.3107266,10.2636562 17.6664375,10.4459766 18,10.6758984 C18.3335625,10.4459766 18.6892734,10.2636562 19.0546875,10.1039766 L19.0546875,6.20416406 C20.2796719,5.7673125 21.1640625,4.60757813 21.1640625,3.234375 C21.1640625,1.48964063 19.7447344,0 18,0 Z" id="Shape"></path>
                <path d="M19.0546875,29.7958359 L19.0546875,28.3566094 C18.7176094,28.4760703 18.3626719,28.546875 18,28.546875 C17.6373281,28.546875 17.28225,28.4762109 16.9453125,28.3568203 L16.9453125,29.7958359 C15.7203281,30.2326875 14.8359375,31.3924219 14.8359375,32.765625 C14.8359375,34.5103594 16.2552656,36 18,36 C19.7447344,36 21.1640625,34.5103594 21.1640625,32.765625 C21.1640625,31.3924219 20.2796719,30.2326875 19.0546875,29.7958359 Z" id="Shape"></path>
                <path d="M12.5792578,24.9121406 C12.0301875,24.4333125 11.5141641,23.9574375 11.0268281,23.4817734 L8.89966406,25.6089375 C7.72572656,25.0549453 6.29149219,25.2343125 5.32209375,26.2037109 C4.08817969,27.437625 4.08817969,29.4439922 5.32209375,30.6779062 C6.55600781,31.9118203 8.562375,31.9118203 9.79628906,30.6779062 C10.7657578,29.7084375 10.945125,28.2742031 10.3910625,27.1003359 L12.5792578,24.9121406 Z" id="Shape"></path>
            </g>
        </g>
    </g>
</svg>