<?xml version="1.0" encoding="UTF-8"?>
<svg width="16px" height="20px" viewBox="0 0 16 20" version="1.1" xmlns="http://www.w3.org/2000/svg" xmlns:xlink="http://www.w3.org/1999/xlink">
    <!-- Generator: Sketch 49.3 (51167) - http://www.bohemiancoding.com/sketch -->
    <title>placeholder (1)</title>
    <desc>Created with Sketch.</desc>
    <defs></defs>
    <g id="Page-1" stroke="none" stroke-width="1" fill="none" fill-rule="evenodd">
        <g id="BookChauffeur" transform="translate(-32.000000, -478.000000)" fill="#27D9A1" fill-rule="nonzero">
            <g id="placeholder-(1)" transform="translate(32.000000, 478.000000)">
                <path d="M8.01018182,3.93535354 C5.73139394,3.93535354 3.88088889,5.78989899 3.88088889,8.06464646 C3.88088889,10.3393939 5.73139394,12.1979798 8.01018182,12.1979798 C10.2889697,12.1979798 12.1394747,10.3434343 12.1394747,8.06868687 C12.1394747,5.79393939 10.2889697,3.93535354 8.01018182,3.93535354 Z M8.01018182,11.2080808 C6.27684848,11.2080808 4.87078788,9.7979798 4.87078788,8.06868687 C4.87078788,6.33939394 6.28088889,4.92929293 8.01018182,4.92929293 C9.73947475,4.92929293 11.1495758,6.33939394 11.1495758,8.06868687 C11.1495758,9.7979798 9.74351515,11.2080808 8.01018182,11.2080808 Z" id="Shape"></path>
                <path d="M8.01018182,0 C7.91725253,0 7.82028283,0 7.72735354,0.00404040404 C3.74351515,0.141414141 0.450585859,3.23636364 0.0707878788,7.2 C-0.00193939394,7.96767677 0.0344242424,8.73939394 0.175838384,9.47474747 C0.175838384,9.47474747 0.187959596,9.56767677 0.23240404,9.74141414 C0.353616162,10.2868687 0.535434343,10.8161616 0.765737374,11.3090909 C1.58593939,13.2525253 3.38391919,16.2464646 7.28694949,19.4868687 C7.4930101,19.6565657 7.75159596,19.7494949 8.01826263,19.7494949 C8.28492929,19.7494949 8.54351515,19.6565657 8.74957576,19.4868687 C12.6485657,16.2505051 14.4465455,13.2525253 15.2627071,11.3252525 C15.4970505,10.820202 15.6788687,10.2868687 15.8000808,9.74545455 C15.8243232,9.64848485 15.8404848,9.56767677 15.8526061,9.49090909 C15.9495758,8.99393939 15.9980606,8.48484848 15.9980606,7.97575758 C15.9899798,3.57979798 12.4101818,0 8.01018182,0 Z M14.8707879,9.32121212 C14.8707879,9.32929293 14.8586667,9.3979798 14.8303838,9.52323232 C14.7212929,10 14.5637172,10.4646465 14.3536162,10.9252525 C13.5738182,12.7676768 11.8606869,15.6161616 8.11523232,18.7232323 C8.07886869,18.7515152 8.04250505,18.759596 8.01422222,18.759596 C7.9899798,18.759596 7.94957576,18.7515152 7.91321212,18.7232323 C4.16775758,15.6121212 2.45058586,12.7636364 1.66674747,10.9090909 C1.46068687,10.4646465 1.30311111,10 1.1940202,9.51919192 C1.16977778,9.41414141 1.15765657,9.34949495 1.15361616,9.32929293 C1.15361616,9.32121212 1.14957576,9.31313131 1.14957576,9.30505051 C1.02432323,8.64646465 0.992,7.96767677 1.05664646,7.2969697 C1.392,3.82626263 4.27280808,1.11515152 7.76371717,0.993939394 C11.7273535,0.856565657 15.0000808,4.04040404 15.0000808,7.97979798 C15.0000808,8.42424242 14.9556364,8.86868687 14.8707879,9.32121212 Z" id="Shape"></path>
            </g>
        </g>
    </g>
</svg>