<?xml version="1.0" encoding="UTF-8"?>
<svg width="52px" height="52px" viewBox="0 0 52 52" version="1.1" xmlns="http://www.w3.org/2000/svg" xmlns:xlink="http://www.w3.org/1999/xlink">
    <!-- Generator: Sketch 49.3 (51167) - http://www.bohemiancoding.com/sketch -->
    <title>lounge-chair</title>
    <desc>Created with Sketch.</desc>
    <defs>
        <filter x="-8.0%" y="-8.8%" width="116.0%" height="117.6%" filterUnits="objectBoundingBox" id="filter-1">
            <feOffset dx="0" dy="0" in="SourceAlpha" result="shadowOffsetOuter1"></feOffset>
            <feGaussianBlur stdDeviation="4" in="shadowOffsetOuter1" result="shadowBlurOuter1"></feGaussianBlur>
            <feColorMatrix values="0 0 0 0 0   0 0 0 0 0   0 0 0 0 0  0 0 0 0.3 0" type="matrix" in="shadowBlurOuter1" result="shadowMatrixOuter1"></feColorMatrix>
            <feMerge>
                <feMergeNode in="shadowMatrixOuter1"></feMergeNode>
                <feMergeNode in="SourceGraphic"></feMergeNode>
            </feMerge>
        </filter>
    </defs>
    <g id="Page-1" stroke="none" stroke-width="1" fill="none" fill-rule="evenodd">
        <g id="ProfileHome1" transform="translate(-244.000000, -374.000000)" fill="#FFFFFF" fill-rule="nonzero">
            <g id="Group-13" transform="translate(30.000000, 342.000000)">
                <g id="Group-5" filter="url(#filter-1)" transform="translate(165.000000, 0.000000)">
                    <g id="lounge-chair" transform="translate(57.000000, 40.000000)">
                        <rect id="Rectangle-path" x="25.3828125" y="33.890625" width="2.109375" height="2.109375"></rect>
                        <rect id="Rectangle-path" x="0" y="33.890625" width="2.109375" height="2.109375"></rect>
                        <polygon id="Shape" points="23.2734375 15.609375 23.2734375 27.5625 4.21875 27.5625 4.21875 15.609375 0 15.609375 0 31.78125 27.4921875 31.78125 27.4921875 15.609375"></polygon>
                        <path d="M19.0546875,20.53125 L8.4375,20.53125 C7.27439062,20.53125 6.328125,21.4775156 6.328125,22.640625 L6.328125,25.453125 L21.1640625,25.453125 L21.1640625,22.640625 C21.1640625,21.4775156 20.2177969,20.53125 19.0546875,20.53125 Z" id="Shape"></path>
                        <path d="M6.328125,9.28125 L6.328125,18.9894375 C6.94919531,18.6292266 7.66933594,18.421875 8.4375,18.421875 L19.0546875,18.421875 C19.8228516,18.421875 20.5429922,18.6292266 21.1640625,18.9894375 L21.1640625,9.28125 L6.328125,9.28125 Z" id="Shape"></path>
                        <rect id="Rectangle-path" x="29.6015625" y="13.5" width="2.109375" height="22.5"></rect>
                        <polygon id="Shape" points="35.1390938 0 26.1734063 0 25.3125 11.390625 36 11.390625"></polygon>
                    </g>
                </g>
            </g>
        </g>
    </g>
</svg>