<?xml version="1.0" encoding="UTF-8"?>
<svg width="18px" height="14px" viewBox="0 0 18 14" version="1.1" xmlns="http://www.w3.org/2000/svg" xmlns:xlink="http://www.w3.org/1999/xlink">
    <!-- Generator: Sketch 49.1 (51147) - http://www.bohemiancoding.com/sketch -->
    <title>Shape</title>
    <desc>Created with Sketch.</desc>
    <defs></defs>
    <g id="Page-1" stroke="none" stroke-width="1" fill="none" fill-rule="evenodd">
        <g id="Anonymous_FlightDetails" transform="translate(-33.000000, -805.000000)" fill="#666666" fill-rule="nonzero">
            <g id="Group-17" transform="translate(18.000000, 553.000000)">
                <g id="Group-41" transform="translate(1.000000, 67.000000)">
                    <path d="M31.2212978,191.259567 L30.2628952,191.259567 L30.2628952,186.407654 C30.2628952,185.628952 29.6339434,185 28.8552413,185 L16.9351082,185 C16.156406,185 15.5274542,185.628952 15.5274542,186.407654 L15.5274542,191.259567 L14.7487521,191.259567 C14.3294509,191.259567 14,191.589018 14,192.008319 L14,197.668885 C14,197.908486 14.2096506,198.118136 14.4492512,198.118136 L17.8635607,198.118136 L28.1364393,198.118136 L31.5507488,198.118136 C31.7903494,198.118136 32,197.908486 32,197.668885 L32,192.008319 C31.9700499,191.589018 31.640599,191.259567 31.2212978,191.259567 Z M17.4143095,197.219634 L14.8985025,197.219634 L14.8985025,192.15807 L17.4143095,192.15807 L17.4143095,197.219634 Z M27.6572379,197.219634 L18.312812,197.219634 L18.312812,194.853577 L27.687188,194.853577 L27.687188,197.219634 L27.6572379,197.219634 Z M27.6572379,192.008319 L27.6572379,193.955075 L18.312812,193.955075 L18.312812,192.008319 C18.312812,191.589018 17.9833611,191.259567 17.5640599,191.259567 L16.4259567,191.259567 L16.4259567,186.407654 C16.4259567,186.108153 16.6655574,185.898502 16.9351082,185.898502 L28.8552413,185.898502 C29.1547421,185.898502 29.3643927,186.138103 29.3643927,186.407654 L29.3643927,191.259567 L28.40599,191.259567 C28.0166389,191.259567 27.6572379,191.589018 27.6572379,192.008319 Z M31.0715474,197.219634 L28.5557404,197.219634 L28.5557404,192.15807 L31.0715474,192.15807 L31.0715474,197.219634 Z" id="Shape"></path>
                </g>
            </g>
        </g>
    </g>
</svg>