<?xml version="1.0" encoding="UTF-8"?>
<svg width="20px" height="16px" viewBox="0 0 20 16" version="1.1" xmlns="http://www.w3.org/2000/svg" xmlns:xlink="http://www.w3.org/1999/xlink">
    <!-- Generator: Sketch 49.1 (51147) - http://www.bohemiancoding.com/sketch -->
    <title>Group</title>
    <desc>Created with Sketch.</desc>
    <defs></defs>
    <g id="Page-1" stroke="none" stroke-width="1" fill="none" fill-rule="evenodd">
        <g id="Anonymous_FlightDetails" transform="translate(-32.000000, -672.000000)" fill="#666666" fill-rule="nonzero">
            <g id="Group-17" transform="translate(18.000000, 553.000000)">
                <g id="Group-41" transform="translate(1.000000, 67.000000)">
                    <g id="Group-51" transform="translate(0.000000, 6.000000)">
                        <g id="Group" transform="translate(13.000000, 46.000000)">
                            <path d="M19.6179167,14.89875 C19.6179167,15.1291667 19.43,15.3154167 19.1979167,15.3154167 L0.802083333,15.3154167 C0.57,15.3154167 0.382083333,15.1291667 0.382083333,14.89875 C0.382083333,14.6683333 0.57,14.4820833 0.802083333,14.4820833 L19.1979167,14.4820833 C19.43,14.4820833 19.6179167,14.66875 19.6179167,14.89875 Z" id="Shape"></path>
                            <path d="M19.4004167,12.795 L0.599583333,12.795 C0.485833333,12.795 0.376666667,12.7483333 0.297916667,12.6658333 C0.219583333,12.5833333 0.178333333,12.4725 0.183333333,12.3583333 C0.432916667,7.11291667 4.74458333,3.00416667 10.0004167,3.00416667 C15.2554167,3.00416667 19.5675,7.11291667 19.8166667,12.3583333 C19.8220833,12.4720833 19.7804167,12.5833333 19.7020833,12.6658333 C19.6233333,12.7483333 19.5141667,12.795 19.4004167,12.795 Z M1.04708333,11.9616667 L18.9529167,11.9616667 C18.5145833,7.37166667 14.6629167,3.8375 10.0004167,3.8375 C5.3375,3.8375 1.48583333,7.37166667 1.04708333,11.9616667 Z" id="Shape"></path>
                            <path d="M10,3.78041667 C9.03166667,3.78041667 8.24375,2.9925 8.24375,2.02375 C8.24375,1.05541667 9.03166667,0.2675 10,0.2675 C10.9683333,0.2675 11.7558333,1.05541667 11.7558333,2.02375 C11.75625,2.9925 10.9683333,3.78041667 10,3.78041667 Z M10,1.10125 C9.49083333,1.10125 9.07708333,1.51541667 9.07708333,2.02416667 C9.07708333,2.53333333 9.49125,2.9475 10,2.9475 C10.50875,2.9475 10.9225,2.53333333 10.9225,2.02416667 C10.9229167,1.515 10.5091667,1.10125 10,1.10125 Z" id="Shape"></path>
                            <path d="M4.73208333,7.44833333 C4.77708333,7.38625 4.81166667,7.31625 4.8175,7.23416667 C4.83291667,7.00458333 4.65916667,6.80625 4.42958333,6.79125 C4.28208333,6.78125 4.15291667,6.85416667 4.07166667,6.96541667 C4.06875,6.96375 4.06541667,6.96166667 4.0625,6.96 C3.30333333,7.78958333 2.68916667,8.755 2.24708333,9.8175 C2.2125,9.865 2.18833333,9.91791667 2.17583333,9.97833333 C2.17166667,9.98791667 2.16666667,9.99708333 2.16291667,10.0075 C2.16458333,10.0075 2.16583333,10.0070833 2.1675,10.0070833 C2.1675,10.0070833 2.16791667,10.0070833 2.16791667,10.0070833 C2.16666667,10.0170833 2.16083333,10.025 2.16041667,10.0354167 C2.14458333,10.2695833 2.3225,10.4720833 2.55625,10.4875 C2.76083333,10.50125 2.93375,10.3645833 2.98625,10.17375 C2.98666667,10.17375 2.98708333,10.1741667 2.9875,10.1741667 C3.40291667,9.15958333 4.0025,8.25208333 4.73291667,7.47166667 C4.73208333,7.46791667 4.73333333,7.465 4.73291667,7.46166667 C4.73125,7.45666667 4.73291667,7.45333333 4.73208333,7.44833333 Z" id="Shape"></path>
                        </g>
                    </g>
                </g>
            </g>
        </g>
    </g>
</svg>