<?xml version="1.0" encoding="UTF-8"?>
<svg width="25px" height="36px" viewBox="0 0 25 36" version="1.1" xmlns="http://www.w3.org/2000/svg" xmlns:xlink="http://www.w3.org/1999/xlink">
    <!-- Generator: Sketch 47.1 (45422) - http://www.bohemiancoding.com/sketch -->
    <title>Group 2</title>
    <desc>Created with Sketch.</desc>
    <defs></defs>
    <g id="DESIGN" stroke="none" stroke-width="1" fill="none" fill-rule="evenodd">
        <g id="Home1-Copy" transform="translate(-1329.000000, -767.000000)" fill-rule="nonzero" fill="#666666">
            <g id="Group-2" transform="translate(1329.750000, 767.125000)">
                <g id="microphone">
                    <path d="M12,22.4 C15.966736,22.4 19.2,19.4031589 19.2,15.7264788 L19.2,6.67352121 C19.2,2.99684113 15.966736,0 12,0 C8.03326403,0 4.8,2.99684113 4.8,6.67352121 L4.8,15.7264788 C4.8,19.410096 8.03326403,22.4 12,22.4 Z M6.63367983,6.67352121 C6.63367983,3.93335398 9.04365904,1.6995974 12,1.6995974 C14.956341,1.6995974 17.3663202,3.93335398 17.3663202,6.67352121 L17.3663202,15.7264788 C17.3663202,18.466646 14.956341,20.7004026 12,20.7004026 C9.04365904,20.7004026 6.63367983,18.466646 6.63367983,15.7264788 L6.63367983,6.67352121 Z" id="Shape"></path>
                    <path d="M0.903581267,16 C0.404040404,16 0,16.382055 0,16.8544139 C0,22.8214182 4.89990817,27.7325615 11.1000918,28.1632417 L11.1000918,33.4911722 L6.40587695,33.4911722 C5.90633609,33.4911722 5.50229568,33.8732272 5.50229568,34.3455861 C5.50229568,34.817945 5.90633609,35.2 6.40587695,35.2 L17.594123,35.2 C18.0936639,35.2 18.4977043,34.817945 18.4977043,34.3455861 C18.4977043,33.8732272 18.0936639,33.4911722 17.594123,33.4911722 L12.8999082,33.4911722 L12.8999082,28.1632417 C19.1000918,27.7256151 24,22.8214182 24,16.8544139 C24,16.382055 23.5959596,16 23.0964187,16 C22.5968779,16 22.1928375,16.382055 22.1928375,16.8544139 C22.1928375,22.175398 17.6161616,26.5030391 11.9889807,26.5030391 C6.36179982,26.5030391 1.78512397,22.175398 1.78512397,16.8544139 C1.79981635,16.382055 1.40312213,16 0.903581267,16 Z" id="Shape"></path>
                </g>
            </g>
        </g>
    </g>
</svg>