<?xml version="1.0" encoding="UTF-8"?>
<svg width="87px" height="89px" viewBox="0 0 87 89" version="1.1" xmlns="http://www.w3.org/2000/svg" xmlns:xlink="http://www.w3.org/1999/xlink">
    <!-- Generator: Sketch 48.2 (47327) - http://www.bohemiancoding.com/sketch -->
    <title>Group 3</title>
    <desc>Created with Sketch.</desc>
    <defs></defs>
    <g id="Voice" stroke="none" stroke-width="1" fill="none" fill-rule="evenodd" transform="translate(-145.000000, -521.000000)">
        <g id="Group-4" transform="translate(-1.000000, 249.000000)">
            <g id="Group-3" transform="translate(146.000000, 272.000000)">
                <ellipse id="Oval" fill="#FFFFFF" cx="43.5" cy="44.5" rx="43.5" ry="44.5"></ellipse>
                <g id="Group-2" transform="translate(31.000000, 20.000000)" fill="#C60C30" fill-rule="nonzero">
                    <path d="M25.1875,24 C24.739,24 24.375,24.3874 24.375,24.8666667 L24.375,30.0666667 C24.375,36.7573333 19.2725,42.2 13,42.2 C6.7275,42.2 1.625,36.7573333 1.625,30.0666667 L1.625,24.8666667 C1.625,24.3874 1.261,24 0.8125,24 C0.364,24 0,24.3874 0,24.8666667 L0,30.0666667 C0,37.4203333 5.39825,43.4384667 12.1875,43.8891333 L12.1875,48.2666667 L8.125,48.2666667 C7.6765,48.2666667 7.3125,48.6540667 7.3125,49.1333333 C7.3125,49.6126 7.6765,50 8.125,50 L17.875,50 C18.3235,50 18.6875,49.6126 18.6875,49.1333333 C18.6875,48.6540667 18.3235,48.2666667 17.875,48.2666667 L13.8125,48.2666667 L13.8125,43.8891333 C20.60175,43.4384667 26,37.4194667 26,30.0666667 L26,24.8666667 C26,24.3874 25.636,24 25.1875,24 Z" id="Shape"></path>
                    <path d="M13,40 C17.9622727,40 22,35.7086957 22,30.4347826 L22,9.56521739 C22,4.29130435 17.9622727,0 13,0 C8.03772727,0 4,4.29130435 4,9.56521739 L4,30.4347826 C4,35.7086957 8.03772727,40 13,40 Z M7.19466667,3.55685714 C7.33333333,3.6482381 7.48888889,3.71428571 7.66666667,3.71428571 C8.15733333,3.71428571 8.55555556,3.30895238 8.55555556,2.80952381 C8.55555556,2.67561905 8.52355556,2.5507619 8.472,2.4367619 C9.76088889,1.53290476 11.32,1 13,1 C14.68,1 16.2391111,1.53290476 17.528,2.4367619 C17.4764444,2.5507619 17.4444444,2.67561905 17.4444444,2.80952381 C17.4444444,3.30895238 17.8426667,3.71428571 18.3333333,3.71428571 C18.5111111,3.71428571 18.6666667,3.6482381 18.8053333,3.55685714 C19.3297778,4.12052381 19.7742222,4.75928571 20.1244444,5.45685714 C20.1111111,5.81242857 20.2524444,6.05852381 20.4595556,6.22409524 C20.8035556,7.13157143 21,8.1132381 21,9.14285714 L21,10.047619 C20.5093333,10.047619 20.1111111,10.4529524 20.1111111,10.952381 C20.1111111,11.4518095 20.5093333,11.8571429 21,11.8571429 L21,15.4761905 C20.5093333,15.4761905 20.1111111,15.8815238 20.1111111,16.3809524 C20.1111111,16.880381 20.5093333,17.2857143 21,17.2857143 L21,20.9047619 C20.5093333,20.9047619 20.1111111,21.3100952 20.1111111,21.8095238 C20.1111111,22.3089524 20.5093333,22.7142857 21,22.7142857 L21,26.3333333 C20.5093333,26.3333333 20.1111111,26.7386667 20.1111111,27.2380952 C20.1111111,27.7375238 20.5093333,28.1428571 21,28.1428571 L21,30.8571429 C21,31.1674762 20.9795556,31.4714762 20.9457778,31.7727619 C20.4817778,31.802619 20.1111111,32.1862381 20.1111111,32.6666667 C20.1111111,33.0077619 20.304,33.2936667 20.5777778,33.448381 C19.8968889,35.504 18.4328889,37.191381 16.5457778,38.1459048 C16.5555556,37.5958095 16.1573333,37.1904762 15.6666667,37.1904762 C15.176,37.1904762 14.7777778,37.5958095 14.7777778,38.0952381 C14.7777778,38.3404286 14.8755556,38.5611905 15.0311111,38.7240476 C14.3813333,38.8977619 13.7031111,39 13,39 C12.2968889,39 11.6186667,38.8977619 10.9688889,38.7240476 C11.1244444,38.5611905 11.2222222,38.3404286 11.2222222,38.0952381 C11.2222222,37.5958095 10.824,37.1904762 10.3333333,37.1904762 C9.84266667,37.1904762 9.44444444,37.5958095 9.44444444,38.0952381 C7.56711111,37.1904762 6.10222222,35.504 5.42222222,33.448381 C5.696,33.2936667 5.88888889,33.0077619 5.88888889,32.6666667 C5.88888889,32.1862381 5.51822222,31.802619 5.05422222,31.7727619 C5.02044444,31.4714762 5,31.1674762 5,30.8571429 L5,28.1428571 C5.49066667,28.1428571 5.88888889,27.7375238 5.88888889,27.2380952 C5.88888889,26.7386667 5.49066667,26.3333333 5,26.3333333 L5,22.7142857 C5.49066667,22.7142857 5.88888889,22.3089524 5.88888889,21.8095238 C5.88888889,21.3100952 5.49066667,20.9047619 5,20.9047619 L5,17.2857143 C5.49066667,17.2857143 5.88888889,16.880381 5.88888889,16.3809524 C5.88888889,15.8815238 5.49066667,15.4761905 5,15.4761905 L5,11.8571429 C5.49066667,11.8571429 5.88888889,11.4518095 5.88888889,10.952381 C5.88888889,10.4529524 5.49066667,10.047619 5,10.047619 L5,9.14285714 C5,8.1132381 5.19644444,7.13157143 5.54044444,6.22409524 C5.74755556,6.05852381 5.88888889,5.81242857 5.88888889,5.52380952 C6.22577778,4.75928571 6.67022222,4.12052381 7.19466667,3.55685714 Z" id="Shape"></path>
                    <path d="M13,4 C12.4477153,4 12,3.55228475 12,3 C12,2.44771525 12.4477153,2 13,2 C13.5522847,2 14,2.44771525 14,3 C14,3.55228475 13.5522847,4 13,4 Z M10,7 C9.44771525,7 9,6.55228475 9,6 C9,5.44771525 9.44771525,5 10,5 C10.5522847,5 11,5.44771525 11,6 C11,6.55228475 10.5522847,7 10,7 Z M10,12 C9.44771525,12 9,11.5522847 9,11 C9,10.4477153 9.44771525,10 10,10 C10.5522847,10 11,10.4477153 11,11 C11,11.5522847 10.5522847,12 10,12 Z M8,9 C7.44771525,9 7,8.55228475 7,8 C7,7.44771525 7.44771525,7 8,7 C8.55228475,7 9,7.44771525 9,8 C9,8.55228475 8.55228475,9 8,9 Z M13,9 C12.4477153,9 12,8.55228475 12,8 C12,7.44771525 12.4477153,7 13,7 C13.5522847,7 14,7.44771525 14,8 C14,8.55228475 13.5522847,9 13,9 Z M8,15 C7.44771525,15 7,14.5522847 7,14 C7,13.4477153 7.44771525,13 8,13 C8.55228475,13 9,13.4477153 9,14 C9,14.5522847 8.55228475,15 8,15 Z M13,15 C12.4477153,15 12,14.5522847 12,14 C12,13.4477153 12.4477153,13 13,13 C13.5522847,13 14,13.4477153 14,14 C14,14.5522847 13.5522847,15 13,15 Z M16,7 C15.4477153,7 15,6.55228475 15,6 C15,5.44771525 15.4477153,5 16,5 C16.5522847,5 17,5.44771525 17,6 C17,6.55228475 16.5522847,7 16,7 Z M16,12 C15.4477153,12 15,11.5522847 15,11 C15,10.4477153 15.4477153,10 16,10 C16.5522847,10 17,10.4477153 17,11 C17,11.5522847 16.5522847,12 16,12 Z M18,9 C17.4477153,9 17,8.55228475 17,8 C17,7.44771525 17.4477153,7 18,7 C18.5522847,7 19,7.44771525 19,8 C19,8.55228475 18.5522847,9 18,9 Z M18,15 C17.4477153,15 17,14.5522847 17,14 C17,13.4477153 17.4477153,13 18,13 C18.5522847,13 19,13.4477153 19,14 C19,14.5522847 18.5522847,15 18,15 Z M10,17 C9.44771525,17 9,16.5522847 9,16 C9,15.4477153 9.44771525,15 10,15 C10.5522847,15 11,15.4477153 11,16 C11,16.5522847 10.5522847,17 10,17 Z M10,22 C9.44771525,22 9,21.5522847 9,21 C9,20.4477153 9.44771525,20 10,20 C10.5522847,20 11,20.4477153 11,21 C11,21.5522847 10.5522847,22 10,22 Z M8,20 C7.44771525,20 7,19.5522847 7,19 C7,18.4477153 7.44771525,18 8,18 C8.55228475,18 9,18.4477153 9,19 C9,19.5522847 8.55228475,20 8,20 Z M13,20 C12.4477153,20 12,19.5522847 12,19 C12,18.4477153 12.4477153,18 13,18 C13.5522847,18 14,18.4477153 14,19 C14,19.5522847 13.5522847,20 13,20 Z M8,25 C7.44771525,25 7,24.5522847 7,24 C7,23.4477153 7.44771525,23 8,23 C8.55228475,23 9,23.4477153 9,24 C9,24.5522847 8.55228475,25 8,25 Z M13,25 C12.4477153,25 12,24.5522847 12,24 C12,23.4477153 12.4477153,23 13,23 C13.5522847,23 14,23.4477153 14,24 C14,24.5522847 13.5522847,25 13,25 Z M16,17 C15.4477153,17 15,16.5522847 15,16 C15,15.4477153 15.4477153,15 16,15 C16.5522847,15 17,15.4477153 17,16 C17,16.5522847 16.5522847,17 16,17 Z M16,22 C15.4477153,22 15,21.5522847 15,21 C15,20.4477153 15.4477153,20 16,20 C16.5522847,20 17,20.4477153 17,21 C17,21.5522847 16.5522847,22 16,22 Z M18,20 C17.4477153,20 17,19.5522847 17,19 C17,18.4477153 17.4477153,18 18,18 C18.5522847,18 19,18.4477153 19,19 C19,19.5522847 18.5522847,20 18,20 Z M18,25 C17.4477153,25 17,24.5522847 17,24 C17,23.4477153 17.4477153,23 18,23 C18.5522847,23 19,23.4477153 19,24 C19,24.5522847 18.5522847,25 18,25 Z M10,28 C9.44771525,28 9,27.5522847 9,27 C9,26.4477153 9.44771525,26 10,26 C10.5522847,26 11,26.4477153 11,27 C11,27.5522847 10.5522847,28 10,28 Z M10,33 C9.44771525,33 9,32.5522847 9,32 C9,31.4477153 9.44771525,31 10,31 C10.5522847,31 11,31.4477153 11,32 C11,32.5522847 10.5522847,33 10,33 Z M8,30 C7.44771525,30 7,29.5522847 7,29 C7,28.4477153 7.44771525,28 8,28 C8.55228475,28 9,28.4477153 9,29 C9,29.5522847 8.55228475,30 8,30 Z M13,30 C12.4477153,30 12,29.5522847 12,29 C12,28.4477153 12.4477153,28 13,28 C13.5522847,28 14,28.4477153 14,29 C14,29.5522847 13.5522847,30 13,30 Z M8,35 C7.44771525,35 7,34.5522847 7,34 C7,33.4477153 7.44771525,33 8,33 C8.55228475,33 9,33.4477153 9,34 C9,34.5522847 8.55228475,35 8,35 Z M13,35 C12.4477153,35 12,34.5522847 12,34 C12,33.4477153 12.4477153,33 13,33 C13.5522847,33 14,33.4477153 14,34 C14,34.5522847 13.5522847,35 13,35 Z M16,28 C15.4477153,28 15,27.5522847 15,27 C15,26.4477153 15.4477153,26 16,26 C16.5522847,26 17,26.4477153 17,27 C17,27.5522847 16.5522847,28 16,28 Z M16,33 C15.4477153,33 15,32.5522847 15,32 C15,31.4477153 15.4477153,31 16,31 C16.5522847,31 17,31.4477153 17,32 C17,32.5522847 16.5522847,33 16,33 Z M18,30 C17.4477153,30 17,29.5522847 17,29 C17,28.4477153 17.4477153,28 18,28 C18.5522847,28 19,28.4477153 19,29 C19,29.5522847 18.5522847,30 18,30 Z M18,35 C17.4477153,35 17,34.5522847 17,34 C17,33.4477153 17.4477153,33 18,33 C18.5522847,33 19,33.4477153 19,34 C19,34.5522847 18.5522847,35 18,35 Z" id="Combined-Shape"></path>
                </g>
            </g>
        </g>
    </g>
</svg>