<?xml version="1.0" encoding="UTF-8"?>
<svg width="17px" height="30px" viewBox="0 0 17 30" version="1.1" xmlns="http://www.w3.org/2000/svg" xmlns:xlink="http://www.w3.org/1999/xlink">
    <!-- Generator: Sketch 48.2 (47327) - http://www.bohemiancoding.com/sketch -->
    <title>Group 7</title>
    <desc>Created with Sketch.</desc>
    <defs></defs>
    <g id="Anonymous-User" stroke="none" stroke-width="1" fill="none" fill-rule="evenodd" transform="translate(-497.000000, -365.000000)">
        <g id="Group-7" transform="translate(497.000000, 365.000000)" fill="#F3A536" fill-rule="nonzero">
            <g id="Group-2">
                <path d="M16.46875,14.5588235 C16.1755,14.5588235 15.9375,14.7888971 15.9375,15.0735294 L15.9375,18.1617647 C15.9375,22.1352941 12.60125,25.3676471 8.5,25.3676471 C4.39875,25.3676471 1.0625,22.1352941 1.0625,18.1617647 L1.0625,15.0735294 C1.0625,14.7888971 0.8245,14.5588235 0.53125,14.5588235 C0.238,14.5588235 0,14.7888971 0,15.0735294 L0,18.1617647 C0,22.5290441 3.529625,26.1031618 7.96875,26.3708088 L7.96875,28.9705882 L5.3125,28.9705882 C5.01925,28.9705882 4.78125,29.2006618 4.78125,29.4852941 C4.78125,29.7699265 5.01925,30 5.3125,30 L11.6875,30 C11.98075,30 12.21875,29.7699265 12.21875,29.4852941 C12.21875,29.2006618 11.98075,28.9705882 11.6875,28.9705882 L9.03125,28.9705882 L9.03125,26.3708088 C13.470375,26.1031618 17,22.5285294 17,18.1617647 L17,15.0735294 C17,14.7888971 16.762,14.5588235 16.46875,14.5588235 Z" id="Shape"></path>
                <path d="M8.52604167,23.8235294 C11.455161,23.8235294 13.8385417,21.267679 13.8385417,18.1265985 L13.8385417,5.69693095 C13.8385417,2.55585038 11.455161,0 8.52604167,0 C5.59692235,0 3.21354167,2.55585038 3.21354167,5.69693095 L3.21354167,18.1265985 C3.21354167,21.267679 5.59692235,23.8235294 8.52604167,23.8235294 Z M5.37186553,2.49939898 C5.44720644,2.55170716 5.53172348,2.58951407 5.62831439,2.58951407 C5.8949053,2.58951407 6.11126894,2.35749361 6.11126894,2.07161125 C6.11126894,1.99496164 6.09388258,1.92349105 6.06587121,1.85823529 C6.7661553,1.34085038 7.61325758,1.03580563 8.52604167,1.03580563 C9.43882576,1.03580563 10.285928,1.34085038 10.9862121,1.85823529 C10.9582008,1.92349105 10.9408144,1.99496164 10.9408144,2.07161125 C10.9408144,2.35749361 11.157178,2.58951407 11.4237689,2.58951407 C11.5203598,2.58951407 11.6048769,2.55170716 11.6802178,2.49939898 C11.965161,2.82205243 12.2066383,3.18769182 12.3969223,3.58699488 C12.3959564,3.60046036 12.389678,3.61185422 12.389678,3.62531969 C12.389678,3.79053069 12.4664678,3.93140026 12.5789962,4.02617647 C12.7658996,4.54563299 12.8726326,5.10755754 12.8726326,5.69693095 L12.8726326,6.21483376 C12.6060417,6.21483376 12.389678,6.44685422 12.389678,6.73273657 C12.389678,7.01861893 12.6060417,7.25063939 12.8726326,7.25063939 L12.8726326,9.32225064 C12.6060417,9.32225064 12.389678,9.5542711 12.389678,9.84015345 C12.389678,10.1260358 12.6060417,10.3580563 12.8726326,10.3580563 L12.8726326,12.4296675 C12.6060417,12.4296675 12.389678,12.661688 12.389678,12.9475703 C12.389678,13.2334527 12.6060417,13.4654731 12.8726326,13.4654731 L12.8726326,15.5370844 C12.6060417,15.5370844 12.389678,15.7691049 12.389678,16.0549872 C12.389678,16.3408696 12.6060417,16.57289 12.8726326,16.57289 L12.8726326,18.1265985 C12.8726326,18.3042391 12.8615246,18.4782545 12.8431723,18.6507161 C12.5910701,18.6678069 12.389678,18.8873977 12.389678,19.1624041 C12.389678,19.3576535 12.4944792,19.5213107 12.6432292,19.6098721 C12.273286,20.7865473 11.4778598,21.7524361 10.4525473,22.2988235 C10.4530303,22.2884655 10.4578598,22.280179 10.4578598,22.269821 C10.4578598,21.9839386 10.2414962,21.7519182 9.9749053,21.7519182 C9.70831439,21.7519182 9.49195076,21.9839386 9.49195076,22.269821 C9.49195076,22.4101726 9.54507576,22.5365409 9.6295928,22.6297634 C9.27655303,22.7292008 8.90805871,22.7877238 8.52604167,22.7877238 C8.14402462,22.7877238 7.7755303,22.7292008 7.42249053,22.6297634 C7.50700758,22.5365409 7.56013258,22.4101726 7.56013258,22.269821 C7.56013258,21.9839386 7.34376894,21.7519182 7.07717803,21.7519182 C6.81058712,21.7519182 6.59422348,21.9839386 6.59422348,22.269821 C6.59422348,22.280179 6.59905303,22.2884655 6.59953598,22.2988235 C5.57422348,21.7519182 4.77831439,20.7865473 4.40885417,19.6098721 C4.55760417,19.5213107 4.6624053,19.3576535 4.6624053,19.1624041 C4.6624053,18.8873977 4.46101326,18.6678069 4.20891098,18.6507161 C4.19055871,18.4782545 4.17945076,18.3042391 4.17945076,18.1265985 L4.17945076,16.57289 C4.44604167,16.57289 4.6624053,16.3408696 4.6624053,16.0549872 C4.6624053,15.7691049 4.44604167,15.5370844 4.17945076,15.5370844 L4.17945076,13.4654731 C4.44604167,13.4654731 4.6624053,13.2334527 4.6624053,12.9475703 C4.6624053,12.661688 4.44604167,12.4296675 4.17945076,12.4296675 L4.17945076,10.3580563 C4.44604167,10.3580563 4.6624053,10.1260358 4.6624053,9.84015345 C4.6624053,9.5542711 4.44604167,9.32225064 4.17945076,9.32225064 L4.17945076,7.25063939 C4.44604167,7.25063939 4.6624053,7.01861893 4.6624053,6.73273657 C4.6624053,6.44685422 4.44604167,6.21483376 4.17945076,6.21483376 L4.17945076,5.69693095 C4.17945076,5.10755754 4.28618371,4.54563299 4.47308712,4.02617647 C4.58561553,3.93140026 4.6624053,3.79053069 4.6624053,3.62531969 C4.6624053,3.61185422 4.65612689,3.60046036 4.65516098,3.58699488 C4.84544508,3.18769182 5.08692235,2.82205243 5.37186553,2.49939898 Z" id="Shape"></path>
                <path d="M9.19010417,2.26890756 C8.92813874,2.26890756 8.71577381,2.05727746 8.71577381,1.79621849 C8.71577381,1.53515952 8.92813874,1.32352941 9.19010417,1.32352941 C9.45206959,1.32352941 9.66443452,1.53515952 9.66443452,1.79621849 C9.66443452,2.05727746 9.45206959,2.26890756 9.19010417,2.26890756 Z M7.7671131,4.15966387 C7.50514767,4.15966387 7.29278274,3.94803376 7.29278274,3.68697479 C7.29278274,3.42591582 7.50514767,3.21428571 7.7671131,3.21428571 C8.02907852,3.21428571 8.24144345,3.42591582 8.24144345,3.68697479 C8.24144345,3.94803376 8.02907852,4.15966387 7.7671131,4.15966387 Z M7.7671131,6.99579832 C7.50514767,6.99579832 7.29278274,6.78416821 7.29278274,6.52310924 C7.29278274,6.26205028 7.50514767,6.05042017 7.7671131,6.05042017 C8.02907852,6.05042017 8.24144345,6.26205028 8.24144345,6.52310924 C8.24144345,6.78416821 8.02907852,6.99579832 7.7671131,6.99579832 Z M6.34412202,5.57773109 C6.0821566,5.57773109 5.86979167,5.36610098 5.86979167,5.10504202 C5.86979167,4.84398305 6.0821566,4.63235294 6.34412202,4.63235294 C6.60608745,4.63235294 6.81845238,4.84398305 6.81845238,5.10504202 C6.81845238,5.36610098 6.60608745,5.57773109 6.34412202,5.57773109 Z M9.19010417,5.57773109 C8.92813874,5.57773109 8.71577381,5.36610098 8.71577381,5.10504202 C8.71577381,4.84398305 8.92813874,4.63235294 9.19010417,4.63235294 C9.45206959,4.63235294 9.66443452,4.84398305 9.66443452,5.10504202 C9.66443452,5.36610098 9.45206959,5.57773109 9.19010417,5.57773109 Z M6.34412202,8.88655462 C6.0821566,8.88655462 5.86979167,8.67492451 5.86979167,8.41386555 C5.86979167,8.15280658 6.0821566,7.94117647 6.34412202,7.94117647 C6.60608745,7.94117647 6.81845238,8.15280658 6.81845238,8.41386555 C6.81845238,8.67492451 6.60608745,8.88655462 6.34412202,8.88655462 Z M9.19010417,8.88655462 C8.92813874,8.88655462 8.71577381,8.67492451 8.71577381,8.41386555 C8.71577381,8.15280658 8.92813874,7.94117647 9.19010417,7.94117647 C9.45206959,7.94117647 9.66443452,8.15280658 9.66443452,8.41386555 C9.66443452,8.67492451 9.45206959,8.88655462 9.19010417,8.88655462 Z M10.6130952,4.15966387 C10.3511298,4.15966387 10.1387649,3.94803376 10.1387649,3.68697479 C10.1387649,3.42591582 10.3511298,3.21428571 10.6130952,3.21428571 C10.8750607,3.21428571 11.0874256,3.42591582 11.0874256,3.68697479 C11.0874256,3.94803376 10.8750607,4.15966387 10.6130952,4.15966387 Z M10.6130952,6.99579832 C10.3511298,6.99579832 10.1387649,6.78416821 10.1387649,6.52310924 C10.1387649,6.26205028 10.3511298,6.05042017 10.6130952,6.05042017 C10.8750607,6.05042017 11.0874256,6.26205028 11.0874256,6.52310924 C11.0874256,6.78416821 10.8750607,6.99579832 10.6130952,6.99579832 Z M12.0360863,5.57773109 C11.7741209,5.57773109 11.561756,5.36610098 11.561756,5.10504202 C11.561756,4.84398305 11.7741209,4.63235294 12.0360863,4.63235294 C12.2980517,4.63235294 12.5104167,4.84398305 12.5104167,5.10504202 C12.5104167,5.36610098 12.2980517,5.57773109 12.0360863,5.57773109 Z M12.0360863,8.88655462 C11.7741209,8.88655462 11.561756,8.67492451 11.561756,8.41386555 C11.561756,8.15280658 11.7741209,7.94117647 12.0360863,7.94117647 C12.2980517,7.94117647 12.5104167,8.15280658 12.5104167,8.41386555 C12.5104167,8.67492451 12.2980517,8.88655462 12.0360863,8.88655462 Z M7.7671131,10.3046218 C7.50514767,10.3046218 7.29278274,10.0929917 7.29278274,9.83193277 C7.29278274,9.57087381 7.50514767,9.3592437 7.7671131,9.3592437 C8.02907852,9.3592437 8.24144345,9.57087381 8.24144345,9.83193277 C8.24144345,10.0929917 8.02907852,10.3046218 7.7671131,10.3046218 Z M7.7671131,13.1407563 C7.50514767,13.1407563 7.29278274,12.9291262 7.29278274,12.6680672 C7.29278274,12.4070083 7.50514767,12.1953782 7.7671131,12.1953782 C8.02907852,12.1953782 8.24144345,12.4070083 8.24144345,12.6680672 C8.24144345,12.9291262 8.02907852,13.1407563 7.7671131,13.1407563 Z M6.34412202,11.7226891 C6.0821566,11.7226891 5.86979167,11.511059 5.86979167,11.25 C5.86979167,10.988941 6.0821566,10.7773109 6.34412202,10.7773109 C6.60608745,10.7773109 6.81845238,10.988941 6.81845238,11.25 C6.81845238,11.511059 6.60608745,11.7226891 6.34412202,11.7226891 Z M9.19010417,11.7226891 C8.92813874,11.7226891 8.71577381,11.511059 8.71577381,11.25 C8.71577381,10.988941 8.92813874,10.7773109 9.19010417,10.7773109 C9.45206959,10.7773109 9.66443452,10.988941 9.66443452,11.25 C9.66443452,11.511059 9.45206959,11.7226891 9.19010417,11.7226891 Z M6.34412202,15.0315126 C6.0821566,15.0315126 5.86979167,14.8198825 5.86979167,14.5588235 C5.86979167,14.2977646 6.0821566,14.0861345 6.34412202,14.0861345 C6.60608745,14.0861345 6.81845238,14.2977646 6.81845238,14.5588235 C6.81845238,14.8198825 6.60608745,15.0315126 6.34412202,15.0315126 Z M9.19010417,15.0315126 C8.92813874,15.0315126 8.71577381,14.8198825 8.71577381,14.5588235 C8.71577381,14.2977646 8.92813874,14.0861345 9.19010417,14.0861345 C9.45206959,14.0861345 9.66443452,14.2977646 9.66443452,14.5588235 C9.66443452,14.8198825 9.45206959,15.0315126 9.19010417,15.0315126 Z M10.6130952,10.3046218 C10.3511298,10.3046218 10.1387649,10.0929917 10.1387649,9.83193277 C10.1387649,9.57087381 10.3511298,9.3592437 10.6130952,9.3592437 C10.8750607,9.3592437 11.0874256,9.57087381 11.0874256,9.83193277 C11.0874256,10.0929917 10.8750607,10.3046218 10.6130952,10.3046218 Z M10.6130952,13.1407563 C10.3511298,13.1407563 10.1387649,12.9291262 10.1387649,12.6680672 C10.1387649,12.4070083 10.3511298,12.1953782 10.6130952,12.1953782 C10.8750607,12.1953782 11.0874256,12.4070083 11.0874256,12.6680672 C11.0874256,12.9291262 10.8750607,13.1407563 10.6130952,13.1407563 Z M12.0360863,11.7226891 C11.7741209,11.7226891 11.561756,11.511059 11.561756,11.25 C11.561756,10.988941 11.7741209,10.7773109 12.0360863,10.7773109 C12.2980517,10.7773109 12.5104167,10.988941 12.5104167,11.25 C12.5104167,11.511059 12.2980517,11.7226891 12.0360863,11.7226891 Z M12.0360863,15.0315126 C11.7741209,15.0315126 11.561756,14.8198825 11.561756,14.5588235 C11.561756,14.2977646 11.7741209,14.0861345 12.0360863,14.0861345 C12.2980517,14.0861345 12.5104167,14.2977646 12.5104167,14.5588235 C12.5104167,14.8198825 12.2980517,15.0315126 12.0360863,15.0315126 Z M7.7671131,16.4495798 C7.50514767,16.4495798 7.29278274,16.2379497 7.29278274,15.9768908 C7.29278274,15.7158318 7.50514767,15.5042017 7.7671131,15.5042017 C8.02907852,15.5042017 8.24144345,15.7158318 8.24144345,15.9768908 C8.24144345,16.2379497 8.02907852,16.4495798 7.7671131,16.4495798 Z M7.7671131,19.7584034 C7.50514767,19.7584034 7.29278274,19.5467733 7.29278274,19.2857143 C7.29278274,19.0246553 7.50514767,18.8130252 7.7671131,18.8130252 C8.02907852,18.8130252 8.24144345,19.0246553 8.24144345,19.2857143 C8.24144345,19.5467733 8.02907852,19.7584034 7.7671131,19.7584034 Z M6.34412202,17.8676471 C6.0821566,17.8676471 5.86979167,17.656017 5.86979167,17.394958 C5.86979167,17.133899 6.0821566,16.9222689 6.34412202,16.9222689 C6.60608745,16.9222689 6.81845238,17.133899 6.81845238,17.394958 C6.81845238,17.656017 6.60608745,17.8676471 6.34412202,17.8676471 Z M9.19010417,17.8676471 C8.92813874,17.8676471 8.71577381,17.656017 8.71577381,17.394958 C8.71577381,17.133899 8.92813874,16.9222689 9.19010417,16.9222689 C9.45206959,16.9222689 9.66443452,17.133899 9.66443452,17.394958 C9.66443452,17.656017 9.45206959,17.8676471 9.19010417,17.8676471 Z M6.34412202,21.1764706 C6.0821566,21.1764706 5.86979167,20.9648405 5.86979167,20.7037815 C5.86979167,20.4427225 6.0821566,20.2310924 6.34412202,20.2310924 C6.60608745,20.2310924 6.81845238,20.4427225 6.81845238,20.7037815 C6.81845238,20.9648405 6.60608745,21.1764706 6.34412202,21.1764706 Z M9.19010417,21.1764706 C8.92813874,21.1764706 8.71577381,20.9648405 8.71577381,20.7037815 C8.71577381,20.4427225 8.92813874,20.2310924 9.19010417,20.2310924 C9.45206959,20.2310924 9.66443452,20.4427225 9.66443452,20.7037815 C9.66443452,20.9648405 9.45206959,21.1764706 9.19010417,21.1764706 Z M10.6130952,16.4495798 C10.3511298,16.4495798 10.1387649,16.2379497 10.1387649,15.9768908 C10.1387649,15.7158318 10.3511298,15.5042017 10.6130952,15.5042017 C10.8750607,15.5042017 11.0874256,15.7158318 11.0874256,15.9768908 C11.0874256,16.2379497 10.8750607,16.4495798 10.6130952,16.4495798 Z M10.6130952,19.7584034 C10.3511298,19.7584034 10.1387649,19.5467733 10.1387649,19.2857143 C10.1387649,19.0246553 10.3511298,18.8130252 10.6130952,18.8130252 C10.8750607,18.8130252 11.0874256,19.0246553 11.0874256,19.2857143 C11.0874256,19.5467733 10.8750607,19.7584034 10.6130952,19.7584034 Z M12.0360863,17.8676471 C11.7741209,17.8676471 11.561756,17.656017 11.561756,17.394958 C11.561756,17.133899 11.7741209,16.9222689 12.0360863,16.9222689 C12.2980517,16.9222689 12.5104167,17.133899 12.5104167,17.394958 C12.5104167,17.656017 12.2980517,17.8676471 12.0360863,17.8676471 Z M12.0360863,21.1764706 C11.7741209,21.1764706 11.561756,20.9648405 11.561756,20.7037815 C11.561756,20.4427225 11.7741209,20.2310924 12.0360863,20.2310924 C12.2980517,20.2310924 12.5104167,20.4427225 12.5104167,20.7037815 C12.5104167,20.9648405 12.2980517,21.1764706 12.0360863,21.1764706 Z" id="Combined-Shape"></path>
            </g>
        </g>
    </g>
</svg>