<?xml version="1.0" encoding="UTF-8"?>
<svg width="48px" height="48px" viewBox="0 0 48 48" version="1.1" xmlns="http://www.w3.org/2000/svg" xmlns:xlink="http://www.w3.org/1999/xlink">
    <!-- Generator: Sketch 48.2 (47327) - http://www.bohemiancoding.com/sketch -->
    <title>Group 10</title>
    <desc>Created with Sketch.</desc>
    <defs></defs>
    <g id="OfferDetails" stroke="none" stroke-width="1" fill="none" fill-rule="evenodd" transform="translate(-311.000000, -609.000000)">
        <g id="Group-10" transform="translate(311.000000, 609.000000)">
            <g id="Group-6" fill="#C60C30">
                <g id="Send">
                    <circle id="Oval-Copy-5" cx="24" cy="24" r="24"></circle>
                </g>
            </g>
            <g id="Group-2" transform="translate(16.000000, 13.000000)" fill="#FFFFFF" fill-rule="nonzero">
                <g id="microphone">
                    <path d="M8,14.9333333 C10.6444906,14.9333333 12.8,12.9354392 12.8,10.4843192 L12.8,4.44901414 C12.8,1.99789408 10.6444906,0 8,0 C5.35550936,0 3.2,1.99789408 3.2,4.44901414 L3.2,10.4843192 C3.2,12.940064 5.35550936,14.9333333 8,14.9333333 Z M4.42245322,4.44901414 C4.42245322,2.62223599 6.02910603,1.13306493 8,1.13306493 C9.97089397,1.13306493 11.5775468,2.62223599 11.5775468,4.44901414 L11.5775468,10.4843192 C11.5775468,12.3110973 9.97089397,13.8002684 8,13.8002684 C6.02910603,13.8002684 4.42245322,12.3110973 4.42245322,10.4843192 L4.42245322,4.44901414 Z" id="Shape"></path>
                    <path d="M0.602387511,10.6666667 C0.269360269,10.6666667 0,10.92137 0,11.2362759 C0,15.2142788 3.26660545,18.4883743 7.40006122,18.7754945 L7.40006122,22.3274481 L4.27058463,22.3274481 C3.93755739,22.3274481 3.66819712,22.5821515 3.66819712,22.8970574 C3.66819712,23.2119633 3.93755739,23.4666667 4.27058463,23.4666667 L11.7294154,23.4666667 C12.0624426,23.4666667 12.3318029,23.2119633 12.3318029,22.8970574 C12.3318029,22.5821515 12.0624426,22.3274481 11.7294154,22.3274481 L8.59993878,22.3274481 L8.59993878,18.7754945 C12.7333946,18.4837434 16,15.2142788 16,11.2362759 C16,10.92137 15.7306397,10.6666667 15.3976125,10.6666667 C15.0645852,10.6666667 14.795225,10.92137 14.795225,11.2362759 C14.795225,14.7835986 11.7441077,17.6686927 7.99265381,17.6686927 C4.24119988,17.6686927 1.19008264,14.7835986 1.19008264,11.2362759 C1.19987756,10.92137 0.935414754,10.6666667 0.602387511,10.6666667 Z" id="Shape"></path>
                </g>
            </g>
        </g>
    </g>
</svg>