<?xml version="1.0" encoding="UTF-8"?>
<svg width="14px" height="18px" viewBox="0 0 14 18" version="1.1" xmlns="http://www.w3.org/2000/svg" xmlns:xlink="http://www.w3.org/1999/xlink">
    <!-- Generator: Sketch 49.3 (51167) - http://www.bohemiancoding.com/sketch -->
    <title>microphone-icon</title>
    <desc>Created with Sketch.</desc>
    <defs></defs>
    <g id="Page-1" stroke="none" stroke-width="1" fill="none" fill-rule="evenodd">
        <g id="BookChauffeur" transform="translate(-329.000000, -480.000000)" fill="#CECECE" fill-rule="nonzero">
            <g id="Group" transform="translate(-325.000000, -205.000000)">
                <g id="where-to-go-input-cage" transform="translate(339.000000, 669.000000)">
                    <path d="M321.911242,18 C321.358957,18 320.911242,18.4477153 320.911242,19 L320.911242,23 C320.911242,23.5522847 321.358957,24 321.911242,24 C322.463526,24 322.911242,23.5522847 322.911242,23 L322.911242,19 C322.911242,18.4477153 322.463526,18 321.911242,18 Z M322.911242,29.9286913 L322.911242,34 L320.911242,34 L320.911242,29.9286911 C318.385704,29.5658378 316.243953,27.8472081 315.348638,25.4402934 L315,24.5030358 L316.874515,23.8057606 L317.223153,24.7430182 C317.945524,26.684999 319.804492,28 321.911242,28 C324.025221,28 325.889219,26.6759491 326.606252,24.7242937 L326.951112,23.7856392 L328.82842,24.4753575 L328.483561,25.414012 C327.594441,27.8340619 325.44645,29.5644468 322.911242,29.9286913 Z M321.911242,16 C323.568096,16 324.911242,17.3431458 324.911242,19 L324.911242,23 C324.911242,24.6568542 323.568096,26 321.911242,26 C320.254387,26 318.911242,24.6568542 318.911242,23 L318.911242,19 C318.911242,17.3431458 320.254387,16 321.911242,16 Z" id="microphone-icon"></path>
                </g>
            </g>
        </g>
    </g>
</svg>