<?xml version="1.0" encoding="UTF-8"?>
<svg width="36px" height="36px" viewBox="0 0 36 36" version="1.1" xmlns="http://www.w3.org/2000/svg" xmlns:xlink="http://www.w3.org/1999/xlink">
    <!-- Generator: Sketch 49.1 (51147) - http://www.bohemiancoding.com/sketch -->
    <title>Model Icon</title>
    <desc>Created with Sketch.</desc>
    <defs></defs>
    <g id="Page-1" stroke="none" stroke-width="1" fill="none" fill-rule="evenodd">
        <g id="Anonymous_FlightDetails" transform="translate(-32.000000, -1068.000000)">
            <g id="Group-7" transform="translate(32.000000, 1052.000000)">
                <g id="Model" transform="translate(0.000000, 15.000000)">
                    <g id="Model-Icon" transform="translate(0.000000, 1.000000)">
                        <circle id="Oval-3" fill="#666666" cx="18" cy="18" r="18"></circle>
                        <g id="airplane.1" transform="translate(11.250000, 11.250000)" fill="#FFFFFF" fill-rule="nonzero">
                            <g id="Layer_1">
                                <path d="M12.2130862,6.430125 C12.0625705,6.5056875 12.0010237,6.6885 12.0765862,6.83901563 C12.2246643,7.13517188 12.2246643,7.48921875 12.0765862,7.785375 C12.001633,7.93589063 12.0625705,8.11870313 12.2130862,8.19426563 C12.2569612,8.21620313 12.3032737,8.2265625 12.3489768,8.2265625 C12.4604924,8.2265625 12.5683518,8.16501563 12.6219768,8.05776563 C12.8553674,7.59098438 12.8553674,7.03340625 12.6219768,6.566625 C12.5470237,6.4155 12.3636018,6.35517188 12.2130862,6.430125 Z M14.6079299,7.14553125 C14.4257268,6.17845313 13.5049612,5.49351563 12.4726799,5.55689063 L10.475758,5.67510937 L6.57636742,0.800109375 C6.16930492,0.291890625 5.56236742,0 4.91094554,0 L3.96153929,0 C3.85611742,0 3.75800804,0.05728125 3.70255492,0.146859375 C3.64710179,0.2364375 3.64161742,0.3485625 3.68914867,0.443015625 L6.40817992,5.8816875 L2.31683617,6.08582812 L1.18705492,3.82626563 C1.11149242,3.67514062 0.92867992,3.61420312 0.778164295,3.68976562 L0.168789295,3.99445313 C0.0456955447,4.056 -0.0207263303,4.19189062 0.00608616973,4.3265625 L0.60327367,7.31371875 L0.00608616973,10.300875 C-0.0207263303,10.4355469 0.0456955447,10.5714375 0.168789295,10.6329844 L0.778164295,10.9376719 C0.92867992,11.012625 1.11149242,10.9516875 1.18705492,10.8011719 L2.31683617,8.54160938 L6.40817992,8.74575 L3.68914867,14.1844219 C3.64161742,14.278875 3.64710179,14.391 3.70255492,14.4805781 C3.75800804,14.5701563 3.85611742,14.625 3.96153929,14.625 L4.91094554,14.625 C5.56236742,14.625 6.16991429,14.3331094 6.57575804,13.8236719 L10.4751487,8.94867187 L12.4720705,9.06689062 C13.512883,9.1333125 14.4251174,8.44471875 14.6079299,7.47764062 C14.619508,7.41548438 14.6249924,7.35942188 14.6249924,7.31189063 C14.6249924,7.26435937 14.6201174,7.20829688 14.6079299,7.14553125 Z M14.0095237,7.366125 C13.8839924,8.03278125 13.2478049,8.4995625 12.508633,8.45995312 L10.3544924,8.33259375 C10.2539455,8.32710937 10.1607112,8.36976562 10.0985549,8.44654687 L6.10044554,13.4440312 C5.81038304,13.8072187 5.37650804,14.015625 4.91094554,14.015625 L4.45452367,14.015625 L7.16197679,8.5995 C7.20767992,8.50748437 7.20402367,8.39840625 7.15222679,8.3094375 C7.10042992,8.22046875 7.00658617,8.16379687 6.90421117,8.1583125 L2.14803929,7.92065625 C2.03347679,7.91760937 1.91464867,7.98098437 1.86041429,8.08884375 L0.778164295,10.2539531 L0.64958617,10.1899687 L1.21325804,7.37160937 C1.22117992,7.332 1.22117992,7.29178125 1.21325804,7.25217187 L0.64958617,4.4338125 L0.778164295,4.36982812 L1.86041429,6.5349375 C1.91403929,6.64279687 2.03286742,6.712875 2.14803929,6.703125 L6.90421117,6.46546875 C7.00719554,6.45998437 7.10042992,6.4033125 7.15222679,6.31434375 C7.20463304,6.225375 7.20828929,6.11629687 7.16197679,6.02428125 L4.45452367,0.609375 L4.91094554,0.609375 C5.37650804,0.609375 5.80977367,0.817171875 6.10044554,1.18096875 L10.0985549,6.17845312 C10.1607112,6.25584375 10.2551643,6.29545312 10.3544924,6.29240625 L12.508633,6.16504687 C13.2441487,6.12604687 13.8839924,6.59221875 14.0095237,7.258875 L14.3087268,7.20220312 L14.0095237,7.366125 Z" id="Shape"></path>
                            </g>
                        </g>
                    </g>
                </g>
            </g>
        </g>
    </g>
</svg>