<?xml version="1.0" encoding="UTF-8"?>
<svg width="82px" height="90px" viewBox="0 0 82 90" version="1.1" xmlns="http://www.w3.org/2000/svg" xmlns:xlink="http://www.w3.org/1999/xlink">
    <!-- Generator: Sketch 47.1 (45422) - http://www.bohemiancoding.com/sketch -->
    <title>Group</title>
    <desc>Created with Sketch.</desc>
    <defs></defs>
    <g id="Page-1" stroke="none" stroke-width="1" fill="none" fill-rule="evenodd">
        <g id="Group" fill-rule="nonzero" fill="#000000">
            <path d="M81.1,84.38 C79.8668058,83.4671713 78.7604465,82.3944399 77.81,81.19 C75.49,78.52 72.86,75.5 67.6,75.5 C62.34,75.5 59.71,78.5 57.39,81.19 C55.29,83.6 53.64,85.5 50.2,85.5 C46.76,85.5 45.1,83.6 43,81.19 C40.68,78.52 38.05,75.5 32.79,75.5 C27.53,75.5 24.9,78.5 22.58,81.19 C20.48,83.6 18.83,85.5 15.39,85.5 C11.95,85.5 10.3,83.6 8.2,81.19 C6.76181915,79.3007429 4.9467963,77.7309013 2.87,76.58 C1.88531456,76.1332588 0.723863359,76.5500367 0.247884013,77.5209264 C-0.228095333,78.4918161 0.153773987,79.665208 1.11,80.17 C2.69382441,81.1025279 4.07713788,82.3396928 5.18,83.81 C7.5,86.48 10.13,89.5 15.39,89.5 C20.65,89.5 23.28,86.5 25.6,83.81 C27.7,81.4 29.35,79.5 32.79,79.5 C36.23,79.5 37.88,81.4 39.98,83.81 C42.3,86.48 44.93,89.5 50.19,89.5 C55.45,89.5 58.08,86.5 60.4,83.81 C62.5,81.4 64.15,79.5 67.59,79.5 C71.03,79.5 72.69,81.4 74.78,83.81 C75.9633563,85.2935325 77.3464994,86.6060041 78.89,87.71 C79.4866447,88.1173452 80.2565934,88.1712617 80.9041864,87.8510456 C81.5517794,87.5308295 81.9763465,86.8862594 82.0148544,86.1648495 C82.0533623,85.4434397 81.6998248,84.7573354 81.09,84.37 L81.1,84.38 Z" id="Shape"></path>
            <path d="M8.21,64.19 C6.77160606,62.3009431 4.9566289,60.731141 2.88,59.58 C1.89531456,59.1332588 0.733863359,59.5500367 0.257884013,60.5209264 C-0.218095333,61.4918161 0.163773987,62.665208 1.12,63.17 C2.70382441,64.1025279 4.08713788,65.3396928 5.19,66.81 C7.51,69.48 10.14,72.5 15.4,72.5 C20.66,72.5 23.29,69.5 25.61,66.81 C27.71,64.4 29.36,62.5 32.8,62.5 C36.24,62.5 37.9,64.4 39.99,66.81 C42.31,69.48 44.94,72.5 50.2,72.5 C55.46,72.5 58.09,69.5 60.41,66.81 C62.51,64.4 64.16,62.5 67.6,62.5 C71.04,62.5 72.7,64.4 74.79,66.81 C75.9724661,68.297242 77.3556674,69.6131342 78.9,70.72 C79.4966447,71.1273452 80.2665934,71.1812617 80.9141864,70.8610456 C81.5617794,70.5408295 81.9863465,69.8962594 82.0248544,69.1748495 C82.0633623,68.4534397 81.7098248,67.7673354 81.1,67.38 C79.8668058,66.4671713 78.7604465,65.3944399 77.81,64.19 C75.49,61.52 72.86,58.5 67.6,58.5 C62.34,58.5 59.71,61.5 57.39,64.19 C55.29,66.6 53.64,68.5 50.2,68.5 C46.76,68.5 45.1,66.6 43,64.19 C40.68,61.52 38.05,58.5 32.79,58.5 C27.53,58.5 24.9,61.5 22.58,64.19 C20.48,66.6 18.83,68.5 15.39,68.5 C11.95,68.5 10.3,66.6 8.21,64.19 Z" id="Shape"></path>
            <path d="M15.91,52.7 L16.04,52.85 C16.119837,52.9340572 16.2068312,53.0110136 16.3,53.08 L16.46,53.19 C16.5680609,53.2538854 16.6818965,53.3074551 16.8,53.35 L16.95,53.41 C17.1254976,53.461222 17.3071896,53.4881393 17.49,53.49 L17.49,53.49 C36.39,53.49 48.78,48.62 54.3,39.02 C63.11,23.7 50.92,2.39 50.4,1.49 C50.0492307,0.851068029 49.3684299,0.464249383 48.64,0.49 C47.9157413,0.500899078 47.2539798,0.902546226 46.91,1.54 C46.85,1.65 40.8,12.63 24.65,20.28 C18,23.45 13.81,27.89 12.24,33.49 C9.59,43 15.56,52.21 15.82,52.6 L15.91,52.7 Z M16.1,34.56 C17.34,30.13 20.79,26.56 26.37,23.91 C38.57,18.13 45.37,10.59 48.45,6.46 C51.3,12.55 56.73,26.79 50.82,37 C46.92,43.78 38.66,47.8 26.24,49 C28.1111557,47.8291441 29.9171629,46.5572611 31.65,45.19 C40.6,38.09 45.33,29.77 45.33,21.13 C45.33,20.0254305 44.4345695,19.13 43.33,19.13 C42.2254305,19.13 41.33,20.0254305 41.33,21.13 C41.33,36.43 23.77,46.18 18.33,48.84 C16.93,46.24 14.48,40.35 16.1,34.56 Z" id="Shape"></path>
        </g>
    </g>
</svg>