<?xml version="1.0" encoding="UTF-8"?>
<svg width="42px" height="42px" viewBox="0 0 42 42" version="1.1" xmlns="http://www.w3.org/2000/svg" xmlns:xlink="http://www.w3.org/1999/xlink">
    <!-- Generator: Sketch 49.2 (51160) - http://www.bohemiancoding.com/sketch -->
    <title>Group 3</title>
    <desc>Created with Sketch.</desc>
    <defs></defs>
    <g id="Page-1" stroke="none" stroke-width="1" fill="none" fill-rule="evenodd">
        <g id="Anonymous_OrderConfirmation" transform="translate(-19.000000, -235.000000)">
            <g id="Group-3" transform="translate(20.000000, 236.000000)">
                <circle id="Background" stroke="#B89A9A" cx="20" cy="20" r="20"></circle>
                <g id="bill" transform="translate(11.000000, 8.000000)" fill="#B89A9A" fill-rule="nonzero">
                    <path d="M17.688,0.142226567 C17.493,0.00124046304 17.241,-0.0392555454 17.013,0.0402366193 L12.774,1.45309736 L9.279,0.055235141 C9.1005,-0.0167577629 8.901,-0.0167577629 8.7225,0.055235141 L5.2275,1.45309736 L0.987,0.0402366193 C0.7575,-0.0392555454 0.507,0.00124046304 0.312,0.142226567 C0.117,0.28321267 0,0.509690347 0,0.751166546 L0,23.248949 C0,23.4904252 0.1155,23.7169029 0.312,23.8563892 C0.507,23.9988751 0.759,24.0318719 0.9885,23.959879 L5.2275,22.5470182 L8.724,23.9448804 C8.9025,24.0183732 9.102,24.0183732 9.2805,23.9448804 L12.7755,22.5470182 L17.0145,23.959879 C17.091,23.9853764 17.1705,23.9988751 17.25,23.9988751 C17.406,23.9988751 17.559,23.9508798 17.688,23.8563892 C17.8845,23.7169029 18,23.4904252 18,23.248949 L18,0.751166546 C18,0.509690347 17.8845,0.28321267 17.688,0.142226567 Z M3.75,4.50079696 L9.75,4.50079696 C10.164,4.50079696 10.5,4.83676384 10.5,5.25072304 C10.5,5.66468224 10.164,6.00064912 9.75,6.00064912 L3.75,6.00064912 C3.336,6.00064912 3,5.66468224 3,5.25072304 C3,4.83676384 3.336,4.50079696 3.75,4.50079696 Z M8.25,16.4996143 L3.75,16.4996143 C3.336,16.4996143 3,16.1636474 3,15.7496882 C3,15.335729 3.336,14.9997621 3.75,14.9997621 L8.25,14.9997621 C8.664,14.9997621 9,15.335729 9,15.7496882 C9,16.1636474 8.664,16.4996143 8.25,16.4996143 Z M8.25,12.0000578 L3.75,12.0000578 C3.336,12.0000578 3,11.6640909 3,11.2501317 C3,10.8361725 3.336,10.5002056 3.75,10.5002056 L8.25,10.5002056 C8.664,10.5002056 9,10.8361725 9,11.2501317 C9,11.6640909 8.664,12.0000578 8.25,12.0000578 Z M13.5,17.8839778 L13.5,18.7493925 C13.5,19.1633517 13.164,19.4993186 12.75,19.4993186 C12.336,19.4993186 12,19.1633517 12,18.7493925 L12,17.8959766 C11.7585,17.8269834 11.532,17.7234937 11.328,17.588507 C10.9845,17.3590296 10.8915,16.8925756 11.121,16.5476096 C11.352,16.2041434 11.817,16.1126524 12.162,16.34063 C12.318,16.4441198 12.522,16.4996143 12.75,16.4996143 C13.209,16.4996143 13.5,16.2536385 13.5,16.1246512 C13.5,15.995664 13.209,15.7496882 12.75,15.7496882 C11.5095,15.7496882 10.5,14.9082711 10.5,13.874873 C10.5,13.0604533 11.1285,12.373521 12,12.1155464 L12,11.2501317 C12,10.8361725 12.336,10.5002056 12.75,10.5002056 C13.164,10.5002056 13.5,10.8361725 13.5,11.2501317 L13.5,12.1035476 C13.7415,12.1725408 13.9695,12.2760306 14.172,12.4110173 C14.5155,12.6404947 14.6085,13.1069487 14.379,13.4504148 C14.148,13.793881 13.6845,13.8883717 13.338,13.6573944 C13.1835,13.5539046 12.9795,13.49991 12.75,13.49991 C12.291,13.49991 12,13.7458857 12,13.874873 C12,14.0038603 12.291,14.249836 12.75,14.249836 C13.9905,14.249836 15,15.0912531 15,16.1246512 C15,16.939071 14.3715,17.6260033 13.5,17.8839778 Z M14.25,9.00035346 L3.75,9.00035346 C3.336,9.00035346 3,8.66438657 3,8.25042737 C3,7.83646818 3.336,7.50050129 3.75,7.50050129 L14.25,7.50050129 C14.664,7.50050129 15,7.83646818 15,8.25042737 C15,8.66438657 14.664,9.00035346 14.25,9.00035346 Z" id="Shape"></path>
                </g>
            </g>
        </g>
    </g>
</svg>