<?xml version="1.0" encoding="UTF-8"?>
<svg width="51px" height="32px" viewBox="0 0 51 32" version="1.1" xmlns="http://www.w3.org/2000/svg" xmlns:xlink="http://www.w3.org/1999/xlink">
    <!-- Generator: Sketch 49.3 (51167) - http://www.bohemiancoding.com/sketch -->
    <title>apple-pay-payment-mark</title>
    <desc>Created with Sketch.</desc>
    <defs></defs>
    <g id="Page-1" stroke="none" stroke-width="1" fill="none" fill-rule="evenodd">
        <g id="Anonymous_PaymentMethods" transform="translate(-287.000000, -563.000000)" fill-rule="nonzero">
            <g id="Group-19">
                <g id="Group-15" transform="translate(272.500000, 538.000000)">
                    <g id="apple-pay-payment-mark" transform="translate(15.000000, 25.000000)">
                        <path d="M46.6856116,1.1634479 C46.8254676,1.1641051 46.9653237,1.1660767 47.105849,1.16936271 C47.3608019,1.17593472 47.6605891,1.18973594 47.9490005,1.24099761 C48.2159985,1.28831608 48.4421772,1.36126538 48.6609951,1.47036074 C49.1034113,1.69070486 49.4627616,2.04385905 49.6868294,2.478507 C49.7979113,2.69275451 49.8715198,2.91488843 49.9196999,3.17776881 C49.9712258,3.45839362 49.9859475,3.75347685 49.99197,4.00518481 C49.995985,4.14188261 49.9979925,4.27923761 49.9986617,4.41790701 C50,4.58417885 50,4.75176509 50,4.91869413 L50,27.6394454 C50,27.8063744 50,27.9733035 49.9986617,28.1422041 C49.998109,28.2791424 49.9958783,28.4160692 49.99197,28.5529547 C49.9852783,28.8046627 49.9712258,29.0997459 49.9196999,29.3823423 C49.8779631,29.6248883 49.7994687,29.8599262 49.6868294,30.0796325 C49.4613533,30.5138891 49.1018206,30.8669921 48.6596568,31.088436 C48.4357894,31.199378 48.1962358,31.2766935 47.9490005,31.3177991 C47.6707614,31.3616098 47.3896269,31.3853326 47.1078565,31.3887768 C46.9673312,31.3920628 46.826806,31.3940344 46.6842732,31.3940344 C46.5149737,31.3953488 46.3443359,31.3953488 46.1750365,31.3953488 L4.98106255,31.3953488 C4.81310141,31.3953488 4.64514028,31.3953488 4.47517164,31.3940344 C4.33464639,31.3940344 4.19412114,31.3920628 4.05694172,31.3887768 C3.77451343,31.3851719 3.49272345,31.3614504 3.21379021,31.3177991 C2.96572889,31.27708 2.72542269,31.1995184 2.50112643,31.0877788 C2.28124381,30.9783269 2.08062945,30.8349944 1.90690537,30.663227 C1.73264289,30.4923806 1.58717556,30.2953854 1.47596126,30.0796325 C1.36279708,29.8593878 1.2840669,29.6236547 1.24242167,29.3803707 C1.19691831,29.106764 1.17253577,28.8301709 1.16948238,28.5529547 C1.16614167,28.4158407 1.16413407,28.2786986 1.16345987,28.1415469 L1.1627907,27.7406543 L1.1627907,4.81814239 L1.16345987,4.41790701 C1.16412903,4.28055201 1.16613654,4.14319701 1.16948238,4.00518481 C1.17617406,3.75479125 1.19022658,3.46036522 1.24242167,3.17645441 C1.28376187,2.93330627 1.36250847,2.69774562 1.47596126,2.4778498 C1.70048624,2.04369027 2.05973049,1.69087048 2.5017956,1.47036074 C2.72581253,1.35935214 2.96563123,1.28224544 3.21312104,1.24165481 C3.49216282,1.19699115 3.7742352,1.17304503 4.05694172,1.17001991 C4.19679781,1.1667339 4.33665389,1.1647623 4.47584081,1.1641051 L4.98708506,1.1627907 L46.1757056,1.1627907 L46.6856116,1.1634479 Z" id="Shape"></path>
                        <path d="M45.5222587,0.654042516 L46.0303806,0.654696558 C46.1697474,0.655350601 46.3091142,0.657312728 46.4491478,0.660582941 C46.7032088,0.667123366 47.0019471,0.680858259 47.2893494,0.731873575 C47.5554133,0.778964636 47.7808007,0.851563355 47.9988531,0.960134413 C48.4397214,1.17941958 48.7978145,1.53087655 49.0210984,1.96343563 C49.1317916,2.17665349 49.2051426,2.39771986 49.2531541,2.65933687 C49.3044997,2.93861302 49.3191699,3.23227811 49.3251714,3.4827764 C49.3291723,3.61881724 49.3311728,3.75551212 49.3318396,3.8935151 C49.3331733,4.05898785 49.3331733,4.22576869 49.3331733,4.39189549 L49.3331733,27.0034533 C49.3331733,27.1695801 49.3331733,27.3357069 49.3318396,27.5037959 C49.3312889,27.640076 49.329066,27.7763448 49.3251714,27.9125724 C49.3185031,28.1630707 49.3044997,28.4567358 49.2531541,28.7379741 C49.2115634,28.9793544 49.1333436,29.2132627 49.0210984,29.4319132 C48.7964111,29.8640827 48.4381363,30.2154888 47.9975194,30.4358685 C47.7744352,30.5462773 47.5357198,30.6232213 47.2893494,30.6641293 C47.0120838,30.7077295 46.7319329,30.7313382 46.4511483,30.7347659 C46.3111147,30.7380361 46.1710811,30.7399982 46.029047,30.7399982 C45.8603398,30.7413063 45.690299,30.7413063 45.5215918,30.7413063 L4.47173988,30.7413063 C4.30436638,30.7413063 4.13699288,30.7413063 3.9676189,30.7399982 C3.82758529,30.7399982 3.68755168,30.7380361 3.5508522,30.7347659 C3.26941202,30.7311783 2.98860791,30.7075708 2.71065056,30.6641293 C2.46345711,30.6236059 2.22399164,30.546417 2.00048012,30.4352144 C1.78136677,30.3262885 1.58145429,30.1836448 1.408338,30.012703 C1.2346852,29.8426776 1.08972681,29.6466292 0.978901603,29.4319132 C0.866133338,29.2127269 0.787678605,28.9781268 0.746179083,28.736012 C0.700834919,28.4637202 0.676537682,28.1884564 0.673494972,27.9125724 C0.670165951,27.7761174 0.668165379,27.6396343 0.667493532,27.5031418 L0.666826705,27.1041759 L0.666826705,4.29182699 L0.667493532,3.8935151 C0.668160358,3.75682021 0.670160839,3.62012532 0.673494972,3.4827764 C0.680163239,3.2335862 0.6941666,2.94057515 0.746179083,2.65802878 C0.787374647,2.41604919 0.865845744,2.18162061 0.978901603,1.96278159 C1.20264106,1.53070858 1.56062845,1.17958441 2.00114694,0.960134413 C2.22438012,0.849659303 2.46335979,0.772923168 2.70998373,0.732527618 C2.98804925,0.688078604 3.26913476,0.664247571 3.5508522,0.661236983 C3.69021899,0.657966771 3.82958577,0.656004643 3.96828572,0.655350601 L4.47774132,0.654042516 L45.5222587,0.654042516 Z M45.5222587,1.02112462e-17 L4.47774132,1.02112462e-17 L3.96495159,0.000654042516 C3.82091702,0.00130808503 3.67688245,0.00327021258 3.53284788,0.00719446767 C3.2178216,0.0113044415 2.90354444,0.0384131228 2.59262223,0.0882957396 C2.28160376,0.140708912 1.98024523,0.238133813 1.69840762,0.377382532 C1.13319292,0.660883146 0.673514169,1.11197795 0.384759009,1.66650033 C0.242401422,1.94277733 0.143052702,2.23841637 0.0900216052,2.54357134 C0.0386125701,2.84847552 0.0107489226,3.15675177 0.00666826705,3.46577129 C0.00333413353,3.60639043 0.00133365341,3.74766361 0.000666826705,3.8889368 L0,4.39189549 L0,27.0034533 L0.000666826705,27.5070661 C0.00133365341,27.6483393 0.00333413353,27.7896124 0.00733509376,27.9302316 C0.0160038409,28.2376316 0.0346749887,28.5476477 0.0906884319,28.8517775 C0.146701875,29.1611396 0.239390787,29.4482643 0.384759009,29.7288485 C0.672299649,30.2844594 1.1326033,30.7359383 1.69907444,31.0179663 C1.9851431,31.1612016 2.27788002,31.2514595 2.59262223,31.3070531 C2.90269665,31.3613386 3.21877251,31.3796518 3.53284788,31.3881544 C3.67688245,31.3920786 3.82025019,31.3940408 3.96495159,31.3940408 C4.13565922,31.3953488 4.30703369,31.3953488 4.47774132,31.3953488 L45.5222587,31.3953488 C45.6929663,31.3953488 45.8643408,31.3953488 46.0350484,31.3940408 C46.179083,31.3933867 46.3231175,31.3914246 46.4671521,31.3881544 C46.7805607,31.3796518 47.0966365,31.3613386 47.4073778,31.3070531 C47.7181819,31.2546338 48.0193195,31.1572076 48.3009256,31.0179663 C48.8675894,30.7361989 49.327966,30.2846484 49.615241,29.7288485 C49.761276,29.4482643 49.8532981,29.1611396 49.9093116,28.8517775 C49.965325,28.5476477 49.9833293,28.2376316 49.9919981,27.9302316 C49.995999,27.7889584 49.9979995,27.6476852 49.9986663,27.5070661 C50,27.3389772 50,27.1715423 50,27.0034533 L50,4.39189549 C50,4.22380657 50,4.05637168 49.9986663,3.88828276 C49.9981155,3.74720701 49.9958926,3.60614231 49.9919981,3.46511725 C49.98811,3.15611563 49.9604695,2.84784155 49.9093116,2.5429173 C49.8565108,2.23779273 49.7573864,1.94215236 49.615241,1.66584629 C49.3270591,1.11069187 48.8669312,0.659385455 48.3009256,0.376728489 C48.0193195,0.237487185 47.7181819,0.14006103 47.4073778,0.0876416971 C47.0964485,0.0378142171 46.7821755,0.0107058975 46.4671521,0.00654042516 C46.3224507,0.00261617006 46.1784162,0.00130808503 46.0350484,0 L45.5222587,1.02112462e-17 Z" id="Shape" fill="#FFFFFF"></path>
                        <path d="M15.3236923,9.14601736 C15.7921073,8.57133463 16.1082198,7.77266949 16.0222535,6.97674419 C15.3453531,7.00482761 14.5269806,7.43429849 14.0450275,8.00692633 C13.6084268,8.51516779 13.2307164,9.32890209 13.3349591,10.1090733 C14.0876723,10.16798 14.8552773,9.72070009 15.3236923,9.14601736 Z M17.268427,14.1969237 C17.2535352,12.4756154 18.6560727,11.6474969 18.7210552,11.6063992 C17.9297587,10.4419646 16.7025383,10.2803137 16.2652607,10.2625047 C15.2194496,10.1577055 14.2223754,10.8858197 13.6937162,10.8858197 C13.1630264,10.8858197 12.3466845,10.2789437 11.4775445,10.2974377 C10.3376443,10.3138768 9.28641804,10.968015 8.69954543,12.0002521 C7.51835432,14.08459 8.39967858,17.1628071 9.55311678,18.8484975 C10.1176517,19.6738761 10.7891368,20.601314 11.6738456,20.5677509 C12.5253862,20.5341878 12.8448832,20.0101922 13.8737717,20.0101922 C14.9006296,20.0088223 15.1910198,20.566381 16.0879128,20.5506269 C17.0030821,20.530763 17.5838626,19.7081242 18.145013,18.8786358 C18.790099,17.9231144 19.0574747,16.9949916 19.0710127,16.9484142 C19.0527364,16.9360849 17.288734,16.2552331 17.268427,14.1969237 Z M28.1638151,9.1453324 C27.8226573,8.81244109 27.3826721,8.55352563 26.8560436,8.37543564 C26.3341535,8.19940052 25.7073437,8.11035552 24.9932139,8.11035552 C24.5357851,8.10829884 24.0786048,8.13231051 23.6238444,8.18227648 C23.2447077,8.22509295 22.8668457,8.2787698 22.4907133,8.34324244 L22.3803785,8.36242137 L22.3803785,20.4636368 L23.4722188,20.4636368 L23.4722188,15.3654681 C23.8397757,15.4291695 24.2608077,15.4627326 24.7251613,15.4627326 C25.3431713,15.4627326 25.9219211,15.3825921 26.445842,15.2257359 C26.9499082,15.0806851 27.4193567,14.8329096 27.8253649,14.4976218 C28.2164208,14.1668497 28.5309158,13.7532074 28.7466263,13.2859249 C28.9700034,12.8064518 29.0837227,12.2427284 29.0837227,11.6084541 C29.0837227,11.0837735 29.0018178,10.611835 28.8420693,10.2056529 C28.6876333,9.81023539 28.4570837,9.44981517 28.1638151,9.1453324 Z M27.1606488,13.7674528 C26.6001753,14.2428161 25.8068481,14.4839226 24.8002973,14.4839226 C24.523445,14.4839226 24.2614846,14.4715933 24.021185,14.4489895 C23.8363498,14.432068 23.6530567,14.4009264 23.4728957,14.3558348 L23.4728957,9.20971878 C23.6170754,9.18300528 23.7957771,9.15766171 24.0056162,9.13505798 C24.2716381,9.10628959 24.591812,9.0919054 24.9586919,9.0919054 C25.3800254,9.08765514 25.7998939,9.14275206 26.2062193,9.2556112 C26.552501,9.35198812 26.8778478,9.5132299 27.1653871,9.73097451 C27.4273475,9.93646297 27.6331252,10.203598 27.7759512,10.5255299 C27.920131,10.8515716 27.9925593,11.2406297 27.9925593,11.68106 C27.9918824,12.5954836 27.7116457,13.2975692 27.1606488,13.7674528 Z M35.609719,19.3307104 C35.5975348,18.9882296 35.5927965,18.6443789 35.5927965,18.3018982 L35.5927965,14.9380521 C35.5927965,14.5394045 35.5528594,14.1325373 35.4750159,13.72841 C35.3999828,13.3263027 35.2462456,12.9434376 35.0228464,12.6023333 C34.8008231,12.2653322 34.4901258,11.9872378 34.101585,11.7748997 C33.7130442,11.5632466 33.2080766,11.4563926 32.5995431,11.4563926 C32.1554965,11.4563926 31.7216034,11.5146143 31.3120787,11.6303728 C30.8820435,11.7555471 30.4752323,11.9513093 30.1078729,12.2098503 L30.019199,12.2721818 L30.3881097,13.1455077 L30.5214591,13.0544079 C30.8126476,12.8566425 31.131054,12.7033906 31.466412,12.5995934 C31.8053817,12.4922859 32.1584073,12.4373274 32.5135768,12.4365726 C32.9684538,12.4365726 33.3319493,12.5201379 33.5912022,12.6845286 C33.8545164,12.8509743 34.0528482,13.0571477 34.1807824,13.2982542 C34.3141317,13.5468952 34.4014519,13.8112904 34.4400352,14.0859599 C34.4813261,14.3715889 34.5009562,14.6270795 34.5009562,14.8462672 L34.5009562,14.9435318 C32.8824875,14.9359972 31.6187145,15.2086119 30.7793581,15.7558961 C29.8987107,16.3298939 29.4519565,17.147053 29.4519565,18.1840848 C29.4519565,18.482728 29.5047547,18.7834261 29.6089974,19.0806994 C29.7145938,19.3813975 29.8750192,19.6505874 30.0848583,19.8807345 C30.2960512,20.1136214 30.5688421,20.3033558 30.8951081,20.4451428 C31.2200202,20.5882998 31.6024689,20.6602207 32.029593,20.6602207 C32.6343465,20.6704578 33.2294196,20.5057788 33.7448585,20.1855424 C33.9695895,20.0451253 34.1692751,19.8855292 34.339854,19.7136039 C34.4125782,19.6396807 34.4819203,19.5624275 34.5476624,19.4820869 L34.5896302,19.4820869 L34.6898114,20.4643217 L35.7423915,20.4643217 L35.7132848,20.3067806 C35.6554997,19.9843837 35.6208871,19.6581721 35.609719,19.3307104 Z M34.5009562,17.6073472 C34.5009562,17.7251606 34.4732033,17.8868115 34.4204051,18.0806556 C34.3497115,18.2903874 34.2508613,18.4892899 34.1266303,18.6717774 C33.8500976,19.0814981 33.4485198,19.388253 32.9833456,19.5451033 C32.7010507,19.6390358 32.4052442,19.6846412 32.1081135,19.6800408 C31.912155,19.680092 31.7176074,19.6465093 31.5327482,19.5807213 C31.3532951,19.5175428 31.1885677,19.4177625 31.0487644,19.2875578 C30.9023482,19.1474246 30.7865905,18.9777871 30.7089605,18.7895908 C30.6229941,18.588897 30.5796725,18.340256 30.5796725,18.0512022 C30.5796725,17.5778938 30.705576,17.1936304 30.9526446,16.9127962 C31.2187209,16.6135283 31.5528029,16.3843148 31.9260273,16.2449587 C32.3488516,16.0840806 32.7912936,15.9820034 33.2412447,15.9415207 C33.659895,15.9006642 34.0803811,15.8821446 34.5009562,15.8860388 L34.5009562,17.6073472 Z M43.0197472,11.6529766 L40.9822771,17.2580168 C40.8550199,17.5963878 40.7365623,17.9374986 40.6282582,18.269705 C40.57546,18.4354657 40.5253694,18.5923219 40.4759557,18.7416435 L40.4373723,18.7416435 C40.3864729,18.5780717 40.3345762,18.4148195 40.2816853,18.251896 C40.1760888,17.9231144 40.0623696,17.6004976 39.9459427,17.2929498 L37.7670005,11.6529766 L36.6020549,11.6529766 L39.7191811,19.7615512 C39.801086,19.9567652 39.8132702,20.0464952 39.8132702,20.0827982 C39.8132702,20.0937575 39.8092088,20.1601988 39.7178273,20.406785 C39.5475742,20.846797 39.3255289,21.2644392 39.0564956,21.6506751 C38.8067194,21.9945258 38.5779271,22.2739901 38.3741801,22.4801635 C38.1372649,22.7199001 37.8929039,22.916484 37.6444815,23.0651207 C37.3906439,23.2164972 37.1591439,23.3391053 36.9540431,23.4315751 L36.8362625,23.4850021 L37.2160036,24.4186047 L37.3364918,24.3733972 C37.4353193,24.3357243 37.62079,24.2501041 37.9023805,24.1110569 C38.1866787,23.9692699 38.5014373,23.7446025 38.8371799,23.4404796 C39.1346988,23.1753672 39.3988677,22.8742354 39.6237381,22.5438649 C39.8538842,22.2096037 40.0840304,21.8171208 40.3101151,21.3814852 C40.5334922,20.9465346 40.7568693,20.4519924 40.9748312,19.9101878 C41.1927931,19.3656434 41.4270007,18.7567126 41.6686541,18.1025744 L44.1860465,11.6529766 L43.0197472,11.6529766 Z" id="Shape" fill="#FFFFFF"></path>
                    </g>
                </g>
            </g>
        </g>
    </g>
</svg>