<?xml version="1.0" encoding="UTF-8"?>
<svg width="21px" height="40px" viewBox="0 0 21 40" version="1.1" xmlns="http://www.w3.org/2000/svg" xmlns:xlink="http://www.w3.org/1999/xlink">
    <!-- Generator: Sketch 49.3 (51167) - http://www.bohemiancoding.com/sketch -->
    <title>Group 2</title>
    <desc>Created with Sketch.</desc>
    <defs></defs>
    <g id="Page-1" stroke="none" stroke-width="1" fill="none" fill-rule="evenodd">
        <g id="CampaignOffer_PayByMiles" transform="translate(-177.000000, -429.000000)" fill="#FFFFFF" fill-rule="nonzero">
            <g id="Group-19" transform="translate(0.000000, 1.000000)">
                <g id="Group-4-Copy" transform="translate(147.500000, 408.000000)">
                    <g id="Group-2" transform="translate(29.500000, 20.000000)">
                        <path d="M20.15,19.2 C19.7912,19.2 19.5,19.50992 19.5,19.8933333 L19.5,24.0533333 C19.5,29.4058667 15.418,33.76 10.4,33.76 C5.382,33.76 1.3,29.4058667 1.3,24.0533333 L1.3,19.8933333 C1.3,19.50992 1.0088,19.2 0.65,19.2 C0.2912,19.2 0,19.50992 0,19.8933333 L0,24.0533333 C0,29.9362667 4.3186,34.7507733 9.75,35.1113067 L9.75,38.6133333 L6.5,38.6133333 C6.1412,38.6133333 5.85,38.9232533 5.85,39.3066667 C5.85,39.69008 6.1412,40 6.5,40 L14.3,40 C14.6588,40 14.95,39.69008 14.95,39.3066667 C14.95,38.9232533 14.6588,38.6133333 14.3,38.6133333 L11.05,38.6133333 L11.05,35.1113067 C16.4814,34.7507733 20.8,29.9355733 20.8,24.0533333 L20.8,19.8933333 C20.8,19.50992 20.5088,19.2 20.15,19.2 Z" id="Shape"></path>
                        <path d="M10.4,32 C14.3698182,32 17.6,28.5669565 17.6,24.3478261 L17.6,7.65217391 C17.6,3.43304348 14.3698182,0 10.4,0 C6.43018182,0 3.2,3.43304348 3.2,7.65217391 L3.2,24.3478261 C3.2,28.5669565 6.43018182,32 10.4,32 Z M5.75573333,2.84548571 C5.86666667,2.91859048 5.99111111,2.97142857 6.13333333,2.97142857 C6.52586667,2.97142857 6.84444444,2.6471619 6.84444444,2.24761905 C6.84444444,2.14049524 6.81884444,2.04060952 6.7776,1.94940952 C7.80871111,1.22632381 9.056,0.8 10.4,0.8 C11.744,0.8 12.9912889,1.22632381 14.0224,1.94940952 C13.9811556,2.04060952 13.9555556,2.14049524 13.9555556,2.24761905 C13.9555556,2.6471619 14.2741333,2.97142857 14.6666667,2.97142857 C14.8088889,2.97142857 14.9333333,2.91859048 15.0442667,2.84548571 C15.4638222,3.29641905 15.8193778,3.80742857 16.0995556,4.36548571 C16.0888889,4.64994286 16.2019556,4.84681905 16.3676444,4.97927619 C16.6428444,5.70525714 16.8,6.49059048 16.8,7.31428571 L16.8,8.03809524 C16.4074667,8.03809524 16.0888889,8.3623619 16.0888889,8.76190476 C16.0888889,9.16144762 16.4074667,9.48571429 16.8,9.48571429 L16.8,12.3809524 C16.4074667,12.3809524 16.0888889,12.705219 16.0888889,13.1047619 C16.0888889,13.5043048 16.4074667,13.8285714 16.8,13.8285714 L16.8,16.7238095 C16.4074667,16.7238095 16.0888889,17.0480762 16.0888889,17.447619 C16.0888889,17.8471619 16.4074667,18.1714286 16.8,18.1714286 L16.8,21.0666667 C16.4074667,21.0666667 16.0888889,21.3909333 16.0888889,21.7904762 C16.0888889,22.190019 16.4074667,22.5142857 16.8,22.5142857 L16.8,24.6857143 C16.8,24.933981 16.7836444,25.177181 16.7566222,25.4182095 C16.3854222,25.4420952 16.0888889,25.7489905 16.0888889,26.1333333 C16.0888889,26.4062095 16.2432,26.6349333 16.4622222,26.7587048 C15.9175111,28.4032 14.7463111,29.7531048 13.2366222,30.5167238 C13.2444444,30.0766476 12.9258667,29.752381 12.5333333,29.752381 C12.1408,29.752381 11.8222222,30.0766476 11.8222222,30.4761905 C11.8222222,30.6723429 11.9004444,30.8489524 12.0248889,30.9792381 C11.5050667,31.1182095 10.9624889,31.2 10.4,31.2 C9.83751111,31.2 9.29493333,31.1182095 8.77511111,30.9792381 C8.89955556,30.8489524 8.97777778,30.6723429 8.97777778,30.4761905 C8.97777778,30.0766476 8.6592,29.752381 8.26666667,29.752381 C7.87413333,29.752381 7.55555556,30.0766476 7.55555556,30.4761905 C6.05368889,29.752381 4.88177778,28.4032 4.33777778,26.7587048 C4.5568,26.6349333 4.71111111,26.4062095 4.71111111,26.1333333 C4.71111111,25.7489905 4.41457778,25.4420952 4.04337778,25.4182095 C4.01635556,25.177181 4,24.933981 4,24.6857143 L4,22.5142857 C4.39253333,22.5142857 4.71111111,22.190019 4.71111111,21.7904762 C4.71111111,21.3909333 4.39253333,21.0666667 4,21.0666667 L4,18.1714286 C4.39253333,18.1714286 4.71111111,17.8471619 4.71111111,17.447619 C4.71111111,17.0480762 4.39253333,16.7238095 4,16.7238095 L4,13.8285714 C4.39253333,13.8285714 4.71111111,13.5043048 4.71111111,13.1047619 C4.71111111,12.705219 4.39253333,12.3809524 4,12.3809524 L4,9.48571429 C4.39253333,9.48571429 4.71111111,9.16144762 4.71111111,8.76190476 C4.71111111,8.3623619 4.39253333,8.03809524 4,8.03809524 L4,7.31428571 C4,6.49059048 4.15715556,5.70525714 4.43235556,4.97927619 C4.59804444,4.84681905 4.71111111,4.64994286 4.71111111,4.41904762 C4.98062222,3.80742857 5.33617778,3.29641905 5.75573333,2.84548571 Z" id="Shape"></path>
                        <path d="M10.4,3.2 C9.9581722,3.2 9.6,2.8418278 9.6,2.4 C9.6,1.9581722 9.9581722,1.6 10.4,1.6 C10.8418278,1.6 11.2,1.9581722 11.2,2.4 C11.2,2.8418278 10.8418278,3.2 10.4,3.2 Z M8,5.6 C7.5581722,5.6 7.2,5.2418278 7.2,4.8 C7.2,4.3581722 7.5581722,4 8,4 C8.4418278,4 8.8,4.3581722 8.8,4.8 C8.8,5.2418278 8.4418278,5.6 8,5.6 Z M8,9.6 C7.5581722,9.6 7.2,9.2418278 7.2,8.8 C7.2,8.3581722 7.5581722,8 8,8 C8.4418278,8 8.8,8.3581722 8.8,8.8 C8.8,9.2418278 8.4418278,9.6 8,9.6 Z M6.4,7.2 C5.9581722,7.2 5.6,6.8418278 5.6,6.4 C5.6,5.9581722 5.9581722,5.6 6.4,5.6 C6.8418278,5.6 7.2,5.9581722 7.2,6.4 C7.2,6.8418278 6.8418278,7.2 6.4,7.2 Z M10.4,7.2 C9.9581722,7.2 9.6,6.8418278 9.6,6.4 C9.6,5.9581722 9.9581722,5.6 10.4,5.6 C10.8418278,5.6 11.2,5.9581722 11.2,6.4 C11.2,6.8418278 10.8418278,7.2 10.4,7.2 Z M6.4,12 C5.9581722,12 5.6,11.6418278 5.6,11.2 C5.6,10.7581722 5.9581722,10.4 6.4,10.4 C6.8418278,10.4 7.2,10.7581722 7.2,11.2 C7.2,11.6418278 6.8418278,12 6.4,12 Z M10.4,12 C9.9581722,12 9.6,11.6418278 9.6,11.2 C9.6,10.7581722 9.9581722,10.4 10.4,10.4 C10.8418278,10.4 11.2,10.7581722 11.2,11.2 C11.2,11.6418278 10.8418278,12 10.4,12 Z M12.8,5.6 C12.3581722,5.6 12,5.2418278 12,4.8 C12,4.3581722 12.3581722,4 12.8,4 C13.2418278,4 13.6,4.3581722 13.6,4.8 C13.6,5.2418278 13.2418278,5.6 12.8,5.6 Z M12.8,9.6 C12.3581722,9.6 12,9.2418278 12,8.8 C12,8.3581722 12.3581722,8 12.8,8 C13.2418278,8 13.6,8.3581722 13.6,8.8 C13.6,9.2418278 13.2418278,9.6 12.8,9.6 Z M14.4,7.2 C13.9581722,7.2 13.6,6.8418278 13.6,6.4 C13.6,5.9581722 13.9581722,5.6 14.4,5.6 C14.8418278,5.6 15.2,5.9581722 15.2,6.4 C15.2,6.8418278 14.8418278,7.2 14.4,7.2 Z M14.4,12 C13.9581722,12 13.6,11.6418278 13.6,11.2 C13.6,10.7581722 13.9581722,10.4 14.4,10.4 C14.8418278,10.4 15.2,10.7581722 15.2,11.2 C15.2,11.6418278 14.8418278,12 14.4,12 Z M8,13.6 C7.5581722,13.6 7.2,13.2418278 7.2,12.8 C7.2,12.3581722 7.5581722,12 8,12 C8.4418278,12 8.8,12.3581722 8.8,12.8 C8.8,13.2418278 8.4418278,13.6 8,13.6 Z M8,17.6 C7.5581722,17.6 7.2,17.2418278 7.2,16.8 C7.2,16.3581722 7.5581722,16 8,16 C8.4418278,16 8.8,16.3581722 8.8,16.8 C8.8,17.2418278 8.4418278,17.6 8,17.6 Z M6.4,16 C5.9581722,16 5.6,15.6418278 5.6,15.2 C5.6,14.7581722 5.9581722,14.4 6.4,14.4 C6.8418278,14.4 7.2,14.7581722 7.2,15.2 C7.2,15.6418278 6.8418278,16 6.4,16 Z M10.4,16 C9.9581722,16 9.6,15.6418278 9.6,15.2 C9.6,14.7581722 9.9581722,14.4 10.4,14.4 C10.8418278,14.4 11.2,14.7581722 11.2,15.2 C11.2,15.6418278 10.8418278,16 10.4,16 Z M6.4,20 C5.9581722,20 5.6,19.6418278 5.6,19.2 C5.6,18.7581722 5.9581722,18.4 6.4,18.4 C6.8418278,18.4 7.2,18.7581722 7.2,19.2 C7.2,19.6418278 6.8418278,20 6.4,20 Z M10.4,20 C9.9581722,20 9.6,19.6418278 9.6,19.2 C9.6,18.7581722 9.9581722,18.4 10.4,18.4 C10.8418278,18.4 11.2,18.7581722 11.2,19.2 C11.2,19.6418278 10.8418278,20 10.4,20 Z M12.8,13.6 C12.3581722,13.6 12,13.2418278 12,12.8 C12,12.3581722 12.3581722,12 12.8,12 C13.2418278,12 13.6,12.3581722 13.6,12.8 C13.6,13.2418278 13.2418278,13.6 12.8,13.6 Z M12.8,17.6 C12.3581722,17.6 12,17.2418278 12,16.8 C12,16.3581722 12.3581722,16 12.8,16 C13.2418278,16 13.6,16.3581722 13.6,16.8 C13.6,17.2418278 13.2418278,17.6 12.8,17.6 Z M14.4,16 C13.9581722,16 13.6,15.6418278 13.6,15.2 C13.6,14.7581722 13.9581722,14.4 14.4,14.4 C14.8418278,14.4 15.2,14.7581722 15.2,15.2 C15.2,15.6418278 14.8418278,16 14.4,16 Z M14.4,20 C13.9581722,20 13.6,19.6418278 13.6,19.2 C13.6,18.7581722 13.9581722,18.4 14.4,18.4 C14.8418278,18.4 15.2,18.7581722 15.2,19.2 C15.2,19.6418278 14.8418278,20 14.4,20 Z M8,22.4 C7.5581722,22.4 7.2,22.0418278 7.2,21.6 C7.2,21.1581722 7.5581722,20.8 8,20.8 C8.4418278,20.8 8.8,21.1581722 8.8,21.6 C8.8,22.0418278 8.4418278,22.4 8,22.4 Z M8,26.4 C7.5581722,26.4 7.2,26.0418278 7.2,25.6 C7.2,25.1581722 7.5581722,24.8 8,24.8 C8.4418278,24.8 8.8,25.1581722 8.8,25.6 C8.8,26.0418278 8.4418278,26.4 8,26.4 Z M6.4,24 C5.9581722,24 5.6,23.6418278 5.6,23.2 C5.6,22.7581722 5.9581722,22.4 6.4,22.4 C6.8418278,22.4 7.2,22.7581722 7.2,23.2 C7.2,23.6418278 6.8418278,24 6.4,24 Z M10.4,24 C9.9581722,24 9.6,23.6418278 9.6,23.2 C9.6,22.7581722 9.9581722,22.4 10.4,22.4 C10.8418278,22.4 11.2,22.7581722 11.2,23.2 C11.2,23.6418278 10.8418278,24 10.4,24 Z M6.4,28 C5.9581722,28 5.6,27.6418278 5.6,27.2 C5.6,26.7581722 5.9581722,26.4 6.4,26.4 C6.8418278,26.4 7.2,26.7581722 7.2,27.2 C7.2,27.6418278 6.8418278,28 6.4,28 Z M10.4,28 C9.9581722,28 9.6,27.6418278 9.6,27.2 C9.6,26.7581722 9.9581722,26.4 10.4,26.4 C10.8418278,26.4 11.2,26.7581722 11.2,27.2 C11.2,27.6418278 10.8418278,28 10.4,28 Z M12.8,22.4 C12.3581722,22.4 12,22.0418278 12,21.6 C12,21.1581722 12.3581722,20.8 12.8,20.8 C13.2418278,20.8 13.6,21.1581722 13.6,21.6 C13.6,22.0418278 13.2418278,22.4 12.8,22.4 Z M12.8,26.4 C12.3581722,26.4 12,26.0418278 12,25.6 C12,25.1581722 12.3581722,24.8 12.8,24.8 C13.2418278,24.8 13.6,25.1581722 13.6,25.6 C13.6,26.0418278 13.2418278,26.4 12.8,26.4 Z M14.4,24 C13.9581722,24 13.6,23.6418278 13.6,23.2 C13.6,22.7581722 13.9581722,22.4 14.4,22.4 C14.8418278,22.4 15.2,22.7581722 15.2,23.2 C15.2,23.6418278 14.8418278,24 14.4,24 Z M14.4,28 C13.9581722,28 13.6,27.6418278 13.6,27.2 C13.6,26.7581722 13.9581722,26.4 14.4,26.4 C14.8418278,26.4 15.2,26.7581722 15.2,27.2 C15.2,27.6418278 14.8418278,28 14.4,28 Z" id="Combined-Shape"></path>
                    </g>
                </g>
            </g>
        </g>
    </g>
</svg>