<?xml version="1.0" encoding="UTF-8"?>
<svg width="39px" height="36px" viewBox="0 0 39 36" version="1.1" xmlns="http://www.w3.org/2000/svg" xmlns:xlink="http://www.w3.org/1999/xlink">
    <!-- Generator: Sketch 49.3 (51167) - http://www.bohemiancoding.com/sketch -->
    <title>arc</title>
    <desc>Created with Sketch.</desc>
    <defs></defs>
    <g id="Page-1" stroke="none" stroke-width="1" fill="none" fill-rule="evenodd">
        <g id="Anonymous_PaymentMethods" transform="translate(-46.000000, -561.000000)" fill="#FFFFFF" fill-rule="nonzero">
            <g id="Group-19">
                <g id="Group-9" transform="translate(23.500000, 538.000000)">
                    <g id="arc" transform="translate(23.000000, 23.000000)">
                        <path d="M37.1628,17.1071265 L33.8348571,14.6747755 C33.1405714,14.1673224 32.2332245,14.0941469 31.4665714,14.4833878 C30.6999184,14.8726286 30.2236898,15.6486122 30.2236898,16.5084245 L30.2236898,16.8939184 L28.0237959,16.8939184 C27.7634939,13.8724163 26.4453061,10.9429714 24.244751,8.5437551 C21.9671265,6.06056327 19.102702,4.57802449 16.5824082,4.57802449 C15.9482939,4.57802449 15.4324653,4.06219592 15.4324653,3.42808163 C15.4324653,2.79396735 15.9482939,2.27813878 16.5824082,2.27813878 C17.1933796,2.27813878 17.6887837,1.78280816 17.6887837,1.17176327 C17.6887837,0.560718367 17.1934531,0.0653877551 16.5824082,0.0653877551 C14.7281878,0.0653877551 13.2197143,1.57386122 13.2197143,3.42808163 C13.2197143,5.28230204 14.7281878,6.79077551 16.5824082,6.79077551 C18.4649143,6.79077551 20.7761143,8.03556735 22.614098,10.0394449 C24.4358449,12.0256898 25.5447918,14.4249796 25.8016408,16.8939184 L5.65346939,16.8939184 L13.2590939,7.90192653 C12.6574531,7.45383673 12.15,6.88694694 11.7692082,6.2371102 L3.17439184,16.3985143 L1.8612,15.1730449 C1.41443265,14.7562531 0.714416327,14.7804245 0.297477551,15.2270449 C-0.119387755,15.6738122 -0.0952163265,16.373902 0.351477551,16.7907673 L1.64733061,18 L0.35155102,19.2093061 C-0.0951428571,19.6261714 -0.119314286,20.3263347 0.29755102,20.7730286 C0.515461224,21.0064408 0.810661224,21.1245796 1.10666939,21.1245796 C1.37696327,21.1245796 1.64806531,21.0260571 1.86127347,20.827102 L3.17446531,19.6016327 L11.7694286,29.7632571 C12.1501469,29.1133469 12.6576735,28.5463837 13.2592408,28.0983673 L5.6539102,19.1066694 L25.8014939,19.1066694 C25.5444245,21.5753878 24.435551,23.9745306 22.613951,25.9605551 C20.7759673,27.9644327 18.4647673,29.2092245 16.5822612,29.2092245 C14.7279673,29.2094449 13.2198612,30.7177714 13.2198612,32.5719184 C13.2198612,34.4261388 14.7283347,35.9346122 16.5825551,35.9346122 C17.1935265,35.9346122 17.6889306,35.4392816 17.6889306,34.8282367 C17.6889306,34.2171918 17.1936,33.7218612 16.5825551,33.7218612 C15.9484408,33.7218612 15.4326122,33.2060327 15.4326122,32.5719184 C15.4326122,31.9378041 15.9484408,31.4219755 16.5825551,31.4219755 C19.102849,31.4217551 21.9671265,29.9392898 24.2446041,27.4562449 C26.4450122,25.0571755 27.7632,22.127951 28.0235755,19.1066694 L30.2235429,19.1066694 L30.2235429,19.4921633 C30.2235429,20.3519755 30.6997714,21.1279592 31.4664245,21.5172 C31.7932898,21.6832408 32.1457224,21.7650122 32.4963918,21.7650122 C32.9681388,21.7650122 33.4365796,21.616751 33.8347837,21.3258122 L37.1628,18.8935347 C37.4478612,18.685249 37.6163265,18.3533878 37.6163265,18.0003673 C37.6163265,17.6472 37.4479347,17.3154122 37.1628,17.1071265 Z" id="Shape"></path>
                    </g>
                </g>
            </g>
        </g>
    </g>
</svg>