<?xml version="1.0" encoding="UTF-8"?>
<svg width="33px" height="33px" viewBox="0 0 33 33" version="1.1" xmlns="http://www.w3.org/2000/svg" xmlns:xlink="http://www.w3.org/1999/xlink">
    <!-- Generator: Sketch 49.3 (51167) - http://www.bohemiancoding.com/sketch -->
    <title>bank-sign</title>
    <desc>Created with Sketch.</desc>
    <defs></defs>
    <g id="Page-1" stroke="none" stroke-width="1" fill="none" fill-rule="evenodd">
        <g id="Anonymous_PaymentMethods" transform="translate(-296.000000, -431.000000)" fill="#FFFFFF" fill-rule="nonzero">
            <g id="bank-sign" transform="translate(296.000000, 431.000000)">
                <polygon id="Shape" points="3.87974392 11.956391 16.2698489 2.94916261 28.6599539 11.956391 32.5396978 11.956391 16.2698489 0.129092616 0 11.956391"></polygon>
                <g id="Group" transform="translate(0.464362, 26.004268)">
                    <rect id="Rectangle-path" x="3.6433837" y="0.0575808792" width="24.3246709" height="2.47644217"></rect>
                    <rect id="Rectangle-path" x="0.168099018" y="3.92989501" width="31.276169" height="2.47644217"></rect>
                </g>
                <g id="Group" transform="translate(7.429791, 7.894153)">
                    <path d="M10.5140828,9.71491592 C10.252647,9.53056423 9.81289629,9.35271362 9.19854545,9.18507896 L9.19854545,13.0713239 C10.0418267,13.0323175 10.6222791,12.7249099 10.9417601,12.1486368 C11.1080017,11.8519095 11.1929799,11.5059599 11.1929799,11.1214682 C11.1934443,10.5047956 10.9668357,10.0376475 10.5140828,9.71491592 Z" id="Shape"></path>
                    <path d="M7.10566624,4.78107042 C6.83029962,5.14977379 6.69238412,5.53565856 6.69238412,5.94058216 C6.69238412,6.42769782 6.8549108,6.81079641 7.17949979,7.08616304 C7.50594622,7.36385147 7.94383952,7.55609731 8.49596586,7.66197183 L8.49596586,4.18808024 C7.84632352,4.21408451 7.38196159,4.40911652 7.10566624,4.78107042 Z" id="Shape"></path>
                    <path d="M8.84005805,0.35384379 C4.14768075,0.35384379 0.34409219,4.15836108 0.34409219,8.84841656 C0.34409219,13.5407939 4.14768075,17.3457755 8.84005805,17.3457755 C13.5324353,17.3457755 17.3364883,13.5412582 17.3364883,8.84841656 C17.3364883,4.15743235 13.5328997,0.35384379 8.84005805,0.35384379 Z M11.2459172,13.553796 C10.7731968,13.8551669 10.0901204,14.0599505 9.19947418,14.1574665 L9.19947418,15.5918805 L8.4978233,15.5918805 L8.4978233,14.1574665 C7.0634093,14.0664516 6.08964234,13.5579752 5.57791549,12.6366812 C5.29697653,12.1388852 5.15673922,11.4669535 5.15673922,10.6176355 L6.46391805,10.6176355 C6.50431754,11.2932821 6.61019206,11.7873632 6.78479215,12.0980213 C7.09173538,12.6552557 7.66336492,12.9668425 8.49735894,13.0346394 L8.49735894,9.00722834 C7.42793342,8.80383781 6.63851814,8.46810414 6.12725566,7.99399061 C5.6169219,7.51987708 5.36245156,6.8646624 5.36245156,6.02881093 C5.36245156,5.28165258 5.63688946,4.60600598 6.18715834,4.00651472 C6.73603414,3.40191549 7.50594622,3.09729407 8.49735894,3.08661374 L8.49735894,2.10495262 L9.19900982,2.10495262 L9.19900982,3.07454033 C10.1783491,3.14187281 10.9329373,3.43024157 11.4572019,3.94150405 C11.9814665,4.45137345 12.2568331,5.12191208 12.2809799,5.9559061 L10.987732,5.9559061 C10.9538335,5.58116603 10.8521383,5.2570414 10.6858967,4.98724712 C10.3757029,4.48945113 9.88115749,4.22894409 9.19993854,4.20293982 L9.19993854,7.80174477 C10.3441263,8.1221545 11.1196108,8.42352539 11.5282493,8.704 C12.1913581,9.16696884 12.5243056,9.85143833 12.5243056,10.7601946 C12.5243056,12.0683022 12.097557,13.0002766 11.2459172,13.553796 Z" id="Shape"></path>
                </g>
            </g>
        </g>
    </g>
</svg>