<?xml version="1.0" encoding="UTF-8"?>
<svg width="40px" height="20px" viewBox="0 0 40 20" version="1.1" xmlns="http://www.w3.org/2000/svg" xmlns:xlink="http://www.w3.org/1999/xlink">
    <!-- Generator: Sketch 49.3 (51167) - http://www.bohemiancoding.com/sketch -->
    <title>miles</title>
    <desc>Created with Sketch.</desc>
    <defs></defs>
    <g id="Page-1" stroke="none" stroke-width="1" fill="none" fill-rule="evenodd">
        <g id="CampaignOffer_PayByMiles" transform="translate(-168.000000, -569.000000)" fill="#FFFFFF" fill-rule="nonzero">
            <g id="Group-19" transform="translate(0.000000, 1.000000)">
                <g id="Group-13" transform="translate(147.500000, 538.000000)">
                    <g id="miles" transform="translate(20.500000, 30.000000)">
                        <path d="M38.9830508,0.0153220339 L1.01694915,0.0153220339 C0.455186441,0.0153220339 0,0.470644068 0,1.03227119 L0,18.3575593 C0,18.9191864 0.455186441,19.3745085 1.01694915,19.3745085 L38.9830508,19.3745085 C39.5448136,19.3745085 40,18.9191864 40,18.3575593 L40,1.03227119 C40,0.470644068 39.5448136,0.0153220339 38.9830508,0.0153220339 Z M37.9661017,17.3406102 L2.03389831,17.3406102 L2.03389831,2.04922034 L37.9661017,2.04922034 L37.9661017,17.3406102 Z" id="Shape"></path>
                        <polygon id="Shape" points="7.5380339 7.34101695 7.56067797 7.34101695 9.23227119 13.7998644 10.4149153 13.7998644 12.0865085 7.34101695 12.1092881 7.34101695 12.1092881 13.7998644 13.4511186 13.7998644 13.4511186 5.5899661 11.2564068 5.5899661 9.83498305 10.9797966 9.81233898 10.9797966 8.39091525 5.5899661 6.19620339 5.5899661 6.19620339 13.7998644 7.5380339 13.7998644"></polygon>
                        <rect id="Rectangle-path" x="15.0424407" y="5.5899661" width="1.56935593" height="8.2100339"></rect>
                        <polygon id="Shape" points="22.2061017 12.4126102 19.6816271 12.4126102 19.6816271 5.5899661 18.1124068 5.5899661 18.1124068 13.7998644 22.2061017 13.7998644"></polygon>
                        <polygon id="Shape" points="27.5728814 12.4126102 24.7300339 12.4126102 24.7300339 10.2520678 26.8109831 10.2520678 26.8109831 8.86481356 24.7300339 8.86481356 24.7300339 6.97722034 27.4591186 6.97722034 27.4591186 5.5899661 23.1608136 5.5899661 23.1608136 13.7998644 27.5728814 13.7998644"></polygon>
                        <path d="M31.2682034,12.6173559 C30.8018983,12.6173559 30.2333559,12.2648136 30.0513898,11.2755254 L28.5049492,11.6052881 C28.9256949,13.2200678 29.9149831,13.9136271 31.1886102,13.9136271 C32.8374237,13.9136271 33.8039322,12.9812881 33.8039322,11.5711186 C33.8039322,9.00122034 30.3015593,8.91023729 30.3015593,7.67077966 C30.3015593,7.11362712 30.6085424,6.77247458 31.1658305,6.77247458 C31.7117288,6.77247458 32.0528814,7.10223729 32.3143051,7.87552542 L33.724339,7.46616949 C33.4515254,6.30630508 32.5986441,5.47620339 31.2,5.47620339 C29.5739661,5.47620339 28.7324746,6.36325424 28.7324746,7.77315254 C28.7324746,10.0702373 32.2348475,10.0928814 32.2348475,11.6394576 C32.2345763,12.2534237 31.8138305,12.6173559 31.2682034,12.6173559 Z" id="Shape"></path>
                    </g>
                </g>
            </g>
        </g>
    </g>
</svg>