<?xml version="1.0" encoding="UTF-8"?>
<svg width="24px" height="19px" viewBox="0 0 24 19" version="1.1" xmlns="http://www.w3.org/2000/svg" xmlns:xlink="http://www.w3.org/1999/xlink">
    <!-- Generator: Sketch 49.3 (51167) - http://www.bohemiancoding.com/sketch -->
    <title>photo-camera</title>
    <desc>Created with Sketch.</desc>
    <defs></defs>
    <g id="Page-1" stroke="none" stroke-width="1" fill="none" fill-rule="evenodd">
        <g id="ProfileHome1" transform="translate(-331.000000, -38.000000)" fill="#FFFFFF" fill-rule="nonzero">
            <g id="photo-camera" transform="translate(331.000000, 38.000000)">
                <path d="M21.2048623,18.9448383 L2.7708503,18.9448383 C1.24275449,18.9448383 0,17.7020838 0,16.173988 L0,4.93674251 C0,3.40864671 1.24275449,2.16589222 2.7708503,2.16589222 L6.53231138,2.16589222 L6.86155689,1.05520958 C6.99592814,0.447449102 7.55152096,0.00136526946 8.20498204,0.00136526946 L15.7712335,0.00136526946 C16.4062275,0.00136526946 16.9682156,0.445149701 17.1169581,1.06074251 L17.1257246,1.09861078 L17.4258683,2.16582036 L21.2052934,2.16582036 C22.7333892,2.16582036 23.9761437,3.40857485 23.9761437,4.93667066 L23.9761437,16.1738443 C23.9757126,17.7020838 22.7325269,18.9448383 21.2048623,18.9448383 Z M2.7708503,3.08953293 C1.75207186,3.08953293 0.923640719,3.91803593 0.923640719,4.93674251 L0.923640719,16.1739162 C0.923640719,17.1926946 1.75214371,18.0211257 2.7708503,18.0211257 L21.2048623,18.0211257 C22.2236407,18.0211257 23.0520719,17.1926228 23.0520719,16.1739162 L23.0520719,4.93674251 C23.0520719,3.91796407 22.2235689,3.08953293 21.2048623,3.08953293 L16.7262754,3.08953293 L16.2206228,1.28615569 C16.173988,1.07647904 15.9850778,0.92457485 15.7708024,0.92457485 L8.20447904,0.92457485 C7.98697006,0.92457485 7.80222754,1.07324551 7.75465868,1.28665868 L7.22083832,3.08953293 L2.7708503,3.08953293 Z M11.9885749,16.1531497 C8.75640719,16.1531497 6.12682635,13.5240719 6.12682635,10.2923353 C6.12682635,7.06016766 8.75633533,4.43108982 11.9885749,4.43108982 C15.2198802,4.43108982 17.8489581,7.0605988 17.8489581,10.2923353 C17.8488862,13.5236407 15.2198084,16.1531497 11.9885749,16.1531497 Z M11.9885749,5.35422754 C9.26572455,5.35422754 7.05046707,7.56905389 7.05046707,10.2919042 C7.05046707,13.0147545 9.26579641,15.2290778 11.9885749,15.2290778 C14.7109222,15.2290778 16.9253174,13.0142515 16.9253174,10.2919042 C16.9252455,7.56905389 14.7104192,5.35422754 11.9885749,5.35422754 Z M20.6086707,4.80373653 C20.1376527,4.80373653 19.7565988,5.18565269 19.7565988,5.65580838 C19.7565988,6.12639521 20.1375808,6.50780838 20.6086707,6.50780838 C21.0792575,6.50780838 21.4602395,6.12632335 21.4602395,5.65580838 C21.4598084,5.18565269 21.0787545,4.80373653 20.6086707,4.80373653 Z" id="Shape"></path>
            </g>
        </g>
    </g>
</svg>