<?xml version="1.0" encoding="UTF-8"?>
<svg width="35px" height="35px" viewBox="0 0 35 35" version="1.1" xmlns="http://www.w3.org/2000/svg" xmlns:xlink="http://www.w3.org/1999/xlink">
    <!-- Generator: Sketch 49.2 (51160) - http://www.bohemiancoding.com/sketch -->
    <title>map</title>
    <desc>Created with Sketch.</desc>
    <defs></defs>
    <g id="Page-1" stroke="none" stroke-width="1" fill="none" fill-rule="evenodd">
        <g id="ProfileHome1" transform="translate(-70.000000, -383.000000)" fill="gray" fill-rule="nonzero">
            <g id="Group-3" transform="translate(22.000000, 342.000000)">
                <g id="map" transform="translate(48.000000, 41.000000)">
                    <path d="M33.7354257,17.5460346 L23.6435036,13.6762569 L23.6435036,30.7606899 L32.9811897,34.3413953 C33.1032439,34.3881738 33.2311455,34.411227 33.3582405,34.411227 C33.5684748,34.411227 33.777029,34.3482508 33.9551367,34.2258605 C34.2409829,34.0293371 34.4117647,33.7047105 34.4117647,33.3578372 L34.4117647,18.5296599 C34.4117647,18.0933967 34.1427212,17.7022317 33.7354257,17.5460346 Z" id="Shape"></path>
                    <path d="M1.43057502,13.4168244 C1.10668773,13.2925523 0.742406939,13.3357686 0.456627987,13.5324265 C0.170781824,13.7288827 0,14.0535093 0,14.4004498 L0,29.2285599 C0,29.6648903 0.268976333,30.0559208 0.676271829,30.212118 L10.7682611,34.0820301 L10.7682611,16.9974627 L1.43057502,13.4168244 Z" id="Shape"></path>
                    <path d="M19.315552,22.1576143 C18.7347863,22.6783611 17.9855911,22.9649466 17.2058824,22.9649466 C16.4262408,22.9649466 15.6770456,22.6783611 15.0964815,22.1578832 C14.9275144,22.0063907 14.0120404,21.1702924 12.8750408,19.851354 L12.8750408,34.0820301 L21.5366567,30.7606227 L21.5366567,19.8510179 C20.4000603,21.1694859 19.4846536,22.0059875 19.315552,22.1576143 Z" id="Shape"></path>
                    <path d="M22.7209053,2.66509708 C21.3467199,0.971863511 19.3365217,0.000537683824 17.2058824,0.000537683824 C15.0753102,0.000537683824 13.0651792,0.971863511 11.6909938,2.66496266 C9.03376034,5.93912109 9.06723116,10.122234 11.7877097,14.7623782 C13.7429969,18.0971605 16.3910897,20.4889126 16.5028608,20.5891234 C16.7030136,20.7685082 16.9543807,20.8580997 17.2059496,20.8580997 C17.4575184,20.8580997 17.70902,20.7685082 17.9090384,20.5891234 C18.0208094,20.4889126 20.668835,18.0971605 22.624055,14.7621766 C25.3443319,10.1223685 25.3780044,5.93912109 22.7209053,2.66509708 Z M19.9594956,11.5740476 C19.2244146,12.3088597 18.2465694,12.7133996 17.2057479,12.7133996 C16.1649937,12.7133996 15.1873501,12.3089269 14.4529412,11.5744508 C13.7181962,10.8398403 13.3135219,9.86192785 13.3135219,8.82090476 C13.3135219,7.77988166 13.7182634,6.801902 14.4529412,6.0674259 C15.187014,5.33294979 16.1647248,4.9282083 17.2056135,4.9282083 C18.2462333,4.9282083 19.224213,5.33274816 19.9592268,6.06729148 C21.4771754,7.58564338 21.4771754,10.0557629 19.9594956,11.5740476 Z" id="Shape"></path>
                </g>
            </g>
        </g>
    </g>
</svg>