<?xml version="1.0" encoding="UTF-8"?>
<svg width="53px" height="53px" viewBox="0 0 53 53" version="1.1" xmlns="http://www.w3.org/2000/svg" xmlns:xlink="http://www.w3.org/1999/xlink">
    <!-- Generator: Sketch 47.1 (45422) - http://www.bohemiancoding.com/sketch -->
    <title>Combined Shape</title>
    <desc>Created with Sketch.</desc>
    <defs></defs>
    <g id="DESIGN" stroke="none" stroke-width="1" fill="none" fill-rule="evenodd">
        <g id="Bundled-Experiences2" transform="translate(-785.000000, -1109.000000)" fill="#FFFFFF">
            <g id="Group-17" transform="translate(595.000000, 1006.000000)">
                <path d="M216.5,156 C201.864454,156 190,144.135546 190,129.5 C190,114.864454 201.864454,103 216.5,103 C231.135546,103 243,114.864454 243,129.5 C243,144.135546 231.135546,156 216.5,156 Z M216.176343,124.310068 L216.176343,124.310068 C215.834503,124.061457 215.422685,123.92754 215,123.92754 C213.895431,123.92754 213,124.822971 213,125.92754 L213,125.92754 L213,134.07246 C213,134.495145 213.133916,134.906963 213.382528,135.248803 C214.032204,136.142109 215.283038,136.339609 216.176343,135.689932 L216.176343,135.689932 L221.775976,131.617472 C221.945188,131.494409 222.094041,131.345555 222.217105,131.176343 C222.866781,130.283038 222.669281,129.032204 221.775976,128.382528 L216.176343,124.310068 Z" id="Combined-Shape"></path>
            </g>
        </g>
    </g>
</svg>