<?xml version="1.0" encoding="UTF-8"?>
<svg width="106px" height="106px" viewBox="0 0 106 106" version="1.1" xmlns="http://www.w3.org/2000/svg" xmlns:xlink="http://www.w3.org/1999/xlink">
    <!-- Generator: Sketch 50 (54983) - http://www.bohemiancoding.com/sketch -->
    <title>Group 4</title>
    <desc>Created with Sketch.</desc>
    <defs>
        <linearGradient x1="50%" y1="0%" x2="50%" y2="100%" id="linearGradient-1">
            <stop stop-color="#C50027" offset="0%"></stop>
            <stop stop-color="#C60C30" offset="100%"></stop>
        </linearGradient>
        <path d="M37.5,75 C58.2106781,75 75,58.2106781 75,37.5 C75,16.7893219 58.2106781,0 37.5,0 C16.7893219,0 0,16.7893219 0,37.5 C0,58.2106781 16.7893219,75 37.5,75 Z" id="path-2"></path>
        <filter x="-32.0%" y="-32.0%" width="164.0%" height="164.0%" filterUnits="objectBoundingBox" id="filter-3">
            <feOffset dx="0" dy="0" in="SourceAlpha" result="shadowOffsetOuter1"></feOffset>
            <feGaussianBlur stdDeviation="8" in="shadowOffsetOuter1" result="shadowBlurOuter1"></feGaussianBlur>
            <feColorMatrix values="0 0 0 0 0   0 0 0 0 0   0 0 0 0 0  0 0 0 0.5 0" type="matrix" in="shadowBlurOuter1"></feColorMatrix>
        </filter>
    </defs>
    <g id="Page-1" stroke="none" stroke-width="1" fill="none" fill-rule="evenodd">
        <g id="Anonymous_Destination-Copy-4" transform="translate(-135.000000, -523.000000)">
            <g id="Group-4" transform="translate(150.000000, 538.000000)">
                <g id="Group-3" transform="translate(0.500000, 0.500000)">
                    <g id="Oval">
                        <use fill="black" fill-opacity="1" filter="url(#filter-3)" xlink:href="#path-2"></use>
                        <use fill="url(#linearGradient-1)" fill-rule="evenodd" xlink:href="#path-2"></use>
                    </g>
                </g>
                <g id="Group-2" transform="translate(28.250000, 19.250000)" fill="#FFFFFF" fill-rule="nonzero">
                    <path d="M18.890625,18 C18.55425,18 18.28125,18.29055 18.28125,18.65 L18.28125,22.55 C18.28125,27.568 14.454375,31.65 9.75,31.65 C5.045625,31.65 1.21875,27.568 1.21875,22.55 L1.21875,18.65 C1.21875,18.29055 0.94575,18 0.609375,18 C0.273,18 0,18.29055 0,18.65 L0,22.55 C0,28.06525 4.0486875,32.57885 9.140625,32.91685 L9.140625,36.2 L6.09375,36.2 C5.757375,36.2 5.484375,36.49055 5.484375,36.85 C5.484375,37.20945 5.757375,37.5 6.09375,37.5 L13.40625,37.5 C13.742625,37.5 14.015625,37.20945 14.015625,36.85 C14.015625,36.49055 13.742625,36.2 13.40625,36.2 L10.359375,36.2 L10.359375,32.91685 C15.4513125,32.57885 19.5,28.0646 19.5,22.55 L19.5,18.65 C19.5,18.29055 19.227,18 18.890625,18 Z" id="Shape"></path>
                    <path d="M9.75,30 C13.4717045,30 16.5,26.7815217 16.5,22.826087 L16.5,7.17391304 C16.5,3.21847826 13.4717045,0 9.75,0 C6.02829545,0 3,3.21847826 3,7.17391304 L3,22.826087 C3,26.7815217 6.02829545,30 9.75,30 Z M5.396,2.66764286 C5.5,2.73617857 5.61666667,2.78571429 5.75,2.78571429 C6.118,2.78571429 6.41666667,2.48171429 6.41666667,2.10714286 C6.41666667,2.00671429 6.39266667,1.91307143 6.354,1.82757143 C7.32066667,1.14967857 8.49,0.75 9.75,0.75 C11.01,0.75 12.1793333,1.14967857 13.146,1.82757143 C13.1073333,1.91307143 13.0833333,2.00671429 13.0833333,2.10714286 C13.0833333,2.48171429 13.382,2.78571429 13.75,2.78571429 C13.8833333,2.78571429 14,2.73617857 14.104,2.66764286 C14.4973333,3.09039286 14.8306667,3.56946429 15.0933333,4.09264286 C15.0833333,4.35932143 15.1893333,4.54389286 15.3446667,4.66807143 C15.6026667,5.34867857 15.75,6.08492857 15.75,6.85714286 L15.75,7.53571429 C15.382,7.53571429 15.0833333,7.83971429 15.0833333,8.21428571 C15.0833333,8.58885714 15.382,8.89285714 15.75,8.89285714 L15.75,11.6071429 C15.382,11.6071429 15.0833333,11.9111429 15.0833333,12.2857143 C15.0833333,12.6602857 15.382,12.9642857 15.75,12.9642857 L15.75,15.6785714 C15.382,15.6785714 15.0833333,15.9825714 15.0833333,16.3571429 C15.0833333,16.7317143 15.382,17.0357143 15.75,17.0357143 L15.75,19.75 C15.382,19.75 15.0833333,20.054 15.0833333,20.4285714 C15.0833333,20.8031429 15.382,21.1071429 15.75,21.1071429 L15.75,23.1428571 C15.75,23.3756071 15.7346667,23.6036071 15.7093333,23.8295714 C15.3613333,23.8519643 15.0833333,24.1396786 15.0833333,24.5 C15.0833333,24.7558214 15.228,24.97025 15.4333333,25.0862857 C14.9226667,26.628 13.8246667,27.8935357 12.4093333,28.6094286 C12.4166667,28.1968571 12.118,27.8928571 11.75,27.8928571 C11.382,27.8928571 11.0833333,28.1968571 11.0833333,28.5714286 C11.0833333,28.7553214 11.1566667,28.9208929 11.2733333,29.0430357 C10.786,29.1733214 10.2773333,29.25 9.75,29.25 C9.22266667,29.25 8.714,29.1733214 8.22666667,29.0430357 C8.34333333,28.9208929 8.41666667,28.7553214 8.41666667,28.5714286 C8.41666667,28.1968571 8.118,27.8928571 7.75,27.8928571 C7.382,27.8928571 7.08333333,28.1968571 7.08333333,28.5714286 C5.67533333,27.8928571 4.57666667,26.628 4.06666667,25.0862857 C4.272,24.97025 4.41666667,24.7558214 4.41666667,24.5 C4.41666667,24.1396786 4.13866667,23.8519643 3.79066667,23.8295714 C3.76533333,23.6036071 3.75,23.3756071 3.75,23.1428571 L3.75,21.1071429 C4.118,21.1071429 4.41666667,20.8031429 4.41666667,20.4285714 C4.41666667,20.054 4.118,19.75 3.75,19.75 L3.75,17.0357143 C4.118,17.0357143 4.41666667,16.7317143 4.41666667,16.3571429 C4.41666667,15.9825714 4.118,15.6785714 3.75,15.6785714 L3.75,12.9642857 C4.118,12.9642857 4.41666667,12.6602857 4.41666667,12.2857143 C4.41666667,11.9111429 4.118,11.6071429 3.75,11.6071429 L3.75,8.89285714 C4.118,8.89285714 4.41666667,8.58885714 4.41666667,8.21428571 C4.41666667,7.83971429 4.118,7.53571429 3.75,7.53571429 L3.75,6.85714286 C3.75,6.08492857 3.89733333,5.34867857 4.15533333,4.66807143 C4.31066667,4.54389286 4.41666667,4.35932143 4.41666667,4.14285714 C4.66933333,3.56946429 5.00266667,3.09039286 5.396,2.66764286 Z" id="Shape"></path>
                    <path d="M9.75,3 C9.33578644,3 9,2.66421356 9,2.25 C9,1.83578644 9.33578644,1.5 9.75,1.5 C10.1642136,1.5 10.5,1.83578644 10.5,2.25 C10.5,2.66421356 10.1642136,3 9.75,3 Z M7.5,5.25 C7.08578644,5.25 6.75,4.91421356 6.75,4.5 C6.75,4.08578644 7.08578644,3.75 7.5,3.75 C7.91421356,3.75 8.25,4.08578644 8.25,4.5 C8.25,4.91421356 7.91421356,5.25 7.5,5.25 Z M7.5,9 C7.08578644,9 6.75,8.66421356 6.75,8.25 C6.75,7.83578644 7.08578644,7.5 7.5,7.5 C7.91421356,7.5 8.25,7.83578644 8.25,8.25 C8.25,8.66421356 7.91421356,9 7.5,9 Z M6,6.75 C5.58578644,6.75 5.25,6.41421356 5.25,6 C5.25,5.58578644 5.58578644,5.25 6,5.25 C6.41421356,5.25 6.75,5.58578644 6.75,6 C6.75,6.41421356 6.41421356,6.75 6,6.75 Z M9.75,6.75 C9.33578644,6.75 9,6.41421356 9,6 C9,5.58578644 9.33578644,5.25 9.75,5.25 C10.1642136,5.25 10.5,5.58578644 10.5,6 C10.5,6.41421356 10.1642136,6.75 9.75,6.75 Z M6,11.25 C5.58578644,11.25 5.25,10.9142136 5.25,10.5 C5.25,10.0857864 5.58578644,9.75 6,9.75 C6.41421356,9.75 6.75,10.0857864 6.75,10.5 C6.75,10.9142136 6.41421356,11.25 6,11.25 Z M9.75,11.25 C9.33578644,11.25 9,10.9142136 9,10.5 C9,10.0857864 9.33578644,9.75 9.75,9.75 C10.1642136,9.75 10.5,10.0857864 10.5,10.5 C10.5,10.9142136 10.1642136,11.25 9.75,11.25 Z M12,5.25 C11.5857864,5.25 11.25,4.91421356 11.25,4.5 C11.25,4.08578644 11.5857864,3.75 12,3.75 C12.4142136,3.75 12.75,4.08578644 12.75,4.5 C12.75,4.91421356 12.4142136,5.25 12,5.25 Z M12,9 C11.5857864,9 11.25,8.66421356 11.25,8.25 C11.25,7.83578644 11.5857864,7.5 12,7.5 C12.4142136,7.5 12.75,7.83578644 12.75,8.25 C12.75,8.66421356 12.4142136,9 12,9 Z M13.5,6.75 C13.0857864,6.75 12.75,6.41421356 12.75,6 C12.75,5.58578644 13.0857864,5.25 13.5,5.25 C13.9142136,5.25 14.25,5.58578644 14.25,6 C14.25,6.41421356 13.9142136,6.75 13.5,6.75 Z M13.5,11.25 C13.0857864,11.25 12.75,10.9142136 12.75,10.5 C12.75,10.0857864 13.0857864,9.75 13.5,9.75 C13.9142136,9.75 14.25,10.0857864 14.25,10.5 C14.25,10.9142136 13.9142136,11.25 13.5,11.25 Z M7.5,12.75 C7.08578644,12.75 6.75,12.4142136 6.75,12 C6.75,11.5857864 7.08578644,11.25 7.5,11.25 C7.91421356,11.25 8.25,11.5857864 8.25,12 C8.25,12.4142136 7.91421356,12.75 7.5,12.75 Z M7.5,16.5 C7.08578644,16.5 6.75,16.1642136 6.75,15.75 C6.75,15.3357864 7.08578644,15 7.5,15 C7.91421356,15 8.25,15.3357864 8.25,15.75 C8.25,16.1642136 7.91421356,16.5 7.5,16.5 Z M6,15 C5.58578644,15 5.25,14.6642136 5.25,14.25 C5.25,13.8357864 5.58578644,13.5 6,13.5 C6.41421356,13.5 6.75,13.8357864 6.75,14.25 C6.75,14.6642136 6.41421356,15 6,15 Z M9.75,15 C9.33578644,15 9,14.6642136 9,14.25 C9,13.8357864 9.33578644,13.5 9.75,13.5 C10.1642136,13.5 10.5,13.8357864 10.5,14.25 C10.5,14.6642136 10.1642136,15 9.75,15 Z M6,18.75 C5.58578644,18.75 5.25,18.4142136 5.25,18 C5.25,17.5857864 5.58578644,17.25 6,17.25 C6.41421356,17.25 6.75,17.5857864 6.75,18 C6.75,18.4142136 6.41421356,18.75 6,18.75 Z M9.75,18.75 C9.33578644,18.75 9,18.4142136 9,18 C9,17.5857864 9.33578644,17.25 9.75,17.25 C10.1642136,17.25 10.5,17.5857864 10.5,18 C10.5,18.4142136 10.1642136,18.75 9.75,18.75 Z M12,12.75 C11.5857864,12.75 11.25,12.4142136 11.25,12 C11.25,11.5857864 11.5857864,11.25 12,11.25 C12.4142136,11.25 12.75,11.5857864 12.75,12 C12.75,12.4142136 12.4142136,12.75 12,12.75 Z M12,16.5 C11.5857864,16.5 11.25,16.1642136 11.25,15.75 C11.25,15.3357864 11.5857864,15 12,15 C12.4142136,15 12.75,15.3357864 12.75,15.75 C12.75,16.1642136 12.4142136,16.5 12,16.5 Z M13.5,15 C13.0857864,15 12.75,14.6642136 12.75,14.25 C12.75,13.8357864 13.0857864,13.5 13.5,13.5 C13.9142136,13.5 14.25,13.8357864 14.25,14.25 C14.25,14.6642136 13.9142136,15 13.5,15 Z M13.5,18.75 C13.0857864,18.75 12.75,18.4142136 12.75,18 C12.75,17.5857864 13.0857864,17.25 13.5,17.25 C13.9142136,17.25 14.25,17.5857864 14.25,18 C14.25,18.4142136 13.9142136,18.75 13.5,18.75 Z M7.5,21 C7.08578644,21 6.75,20.6642136 6.75,20.25 C6.75,19.8357864 7.08578644,19.5 7.5,19.5 C7.91421356,19.5 8.25,19.8357864 8.25,20.25 C8.25,20.6642136 7.91421356,21 7.5,21 Z M7.5,24.75 C7.08578644,24.75 6.75,24.4142136 6.75,24 C6.75,23.5857864 7.08578644,23.25 7.5,23.25 C7.91421356,23.25 8.25,23.5857864 8.25,24 C8.25,24.4142136 7.91421356,24.75 7.5,24.75 Z M6,22.5 C5.58578644,22.5 5.25,22.1642136 5.25,21.75 C5.25,21.3357864 5.58578644,21 6,21 C6.41421356,21 6.75,21.3357864 6.75,21.75 C6.75,22.1642136 6.41421356,22.5 6,22.5 Z M9.75,22.5 C9.33578644,22.5 9,22.1642136 9,21.75 C9,21.3357864 9.33578644,21 9.75,21 C10.1642136,21 10.5,21.3357864 10.5,21.75 C10.5,22.1642136 10.1642136,22.5 9.75,22.5 Z M6,26.25 C5.58578644,26.25 5.25,25.9142136 5.25,25.5 C5.25,25.0857864 5.58578644,24.75 6,24.75 C6.41421356,24.75 6.75,25.0857864 6.75,25.5 C6.75,25.9142136 6.41421356,26.25 6,26.25 Z M9.75,26.25 C9.33578644,26.25 9,25.9142136 9,25.5 C9,25.0857864 9.33578644,24.75 9.75,24.75 C10.1642136,24.75 10.5,25.0857864 10.5,25.5 C10.5,25.9142136 10.1642136,26.25 9.75,26.25 Z M12,21 C11.5857864,21 11.25,20.6642136 11.25,20.25 C11.25,19.8357864 11.5857864,19.5 12,19.5 C12.4142136,19.5 12.75,19.8357864 12.75,20.25 C12.75,20.6642136 12.4142136,21 12,21 Z M12,24.75 C11.5857864,24.75 11.25,24.4142136 11.25,24 C11.25,23.5857864 11.5857864,23.25 12,23.25 C12.4142136,23.25 12.75,23.5857864 12.75,24 C12.75,24.4142136 12.4142136,24.75 12,24.75 Z M13.5,22.5 C13.0857864,22.5 12.75,22.1642136 12.75,21.75 C12.75,21.3357864 13.0857864,21 13.5,21 C13.9142136,21 14.25,21.3357864 14.25,21.75 C14.25,22.1642136 13.9142136,22.5 13.5,22.5 Z M13.5,26.25 C13.0857864,26.25 12.75,25.9142136 12.75,25.5 C12.75,25.0857864 13.0857864,24.75 13.5,24.75 C13.9142136,24.75 14.25,25.0857864 14.25,25.5 C14.25,25.9142136 13.9142136,26.25 13.5,26.25 Z" id="Combined-Shape"></path>
                </g>
            </g>
        </g>
    </g>
</svg>