<?xml version="1.0" encoding="UTF-8"?>
<svg width="52px" height="52px" viewBox="0 0 52 52" version="1.1" xmlns="http://www.w3.org/2000/svg" xmlns:xlink="http://www.w3.org/1999/xlink">
    <!-- Generator: Sketch 49.2 (51160) - http://www.bohemiancoding.com/sketch -->
    <title>Group 3</title>
    <desc>Created with Sketch.</desc>
    <defs></defs>
    <g id="Page-1" stroke="none" stroke-width="1" fill="none" fill-rule="evenodd">
        <g id="Question_TinderConcept2-Copy" transform="translate(-127.000000, -520.000000)">
            <g id="Group-6" transform="translate(127.000000, 520.000000)">
                <g id="Group-3">
                    <circle id="Oval-2" fill="#A0A0A0" cx="26" cy="26" r="26"></circle>
                    <g id="close" transform="translate(16.000000, 16.000000)" fill="#FFFFFF" fill-rule="nonzero">
                        <path d="M19.7634081,0.236640741 C19.4479001,-0.078867226 18.9363764,-0.078867226 18.6208685,0.236640741 L0.236640741,18.6208294 C-0.078867226,18.9363374 -0.078867226,19.4478611 0.236640741,19.763369 C0.394375193,19.9211816 0.601172169,20.0000098 0.807930082,20.0000098 C1.014688,20.0000098 1.22144591,19.9211425 1.37921942,19.76333 L19.7634081,1.3791413 C20.078877,1.06367239 20.078877,0.552148707 19.7634081,0.236640741 Z" id="Shape"></path>
                        <path d="M19.7633594,18.6208594 L1.37914062,0.236679688 C1.06367187,-0.078828125 0.552109375,-0.078828125 0.236640625,0.236679688 C-0.0788671875,0.552148438 -0.0788671875,1.06367188 0.236640625,1.37917969 L18.6208594,19.7633984 C18.7785937,19.9211719 18.9853906,20.0000391 19.1921484,20.0000391 C19.3989062,20.0000391 19.6057031,19.9211719 19.7633984,19.7634375 C20.0788281,19.4478906 20.0788281,18.9363672 19.7633594,18.6208594 Z" id="Shape"></path>
                    </g>
                </g>
            </g>
        </g>
    </g>
</svg>