<?xml version="1.0" encoding="UTF-8"?>
<svg width="25px" height="22px" viewBox="0 0 25 22" version="1.1" xmlns="http://www.w3.org/2000/svg" xmlns:xlink="http://www.w3.org/1999/xlink">
    <!-- Generator: Sketch 47.1 (45422) - http://www.bohemiancoding.com/sketch -->
    <title>Shape</title>
    <desc>Created with Sketch.</desc>
    <defs></defs>
    <g id="DESIGN" stroke="none" stroke-width="1" fill="none" fill-rule="evenodd">
        <g id="Calendar" transform="translate(-117.000000, -240.000000)" fill-rule="nonzero" fill="#95D974">
            <g id="Group-10" transform="translate(93.000000, 174.000000)">
                <path d="M48.5905874,83.0283996 C48.1799868,83.9032607 47.1398855,84.2822283 46.2627204,83.8765729 L26.7270764,74.7679291 L25.4525116,67.4731776 L27.9255821,68.6278918 L29.1655747,72.0390236 L34.8054662,74.6688218 L32.0281596,66.6734055 L35.0175096,68.0678208 L40.1987422,77.1764647 L47.7401093,80.6982278 C48.6171581,81.1079927 48.9974807,82.1500148 48.5905874,83.0283996 Z M47.3070211,87.1851235 C47.3070211,86.7350796 46.9421885,86.370247 46.4921446,86.370247 L25.4292169,86.370247 C24.9791731,86.370247 24.6143404,86.7350796 24.6143404,87.1851235 C24.6143404,87.6351674 24.9791731,88 25.4292169,88 L46.4921446,88 C46.9421885,88 47.3070211,87.6351674 47.3070211,87.1851235 L47.3070211,87.1851235 Z" id="Shape"></path>
            </g>
        </g>
    </g>
</svg>