<?xml version="1.0" encoding="UTF-8"?>
<svg width="20px" height="20px" viewBox="0 0 20 20" version="1.1" xmlns="http://www.w3.org/2000/svg" xmlns:xlink="http://www.w3.org/1999/xlink">
    <!-- Generator: Sketch 49.1 (51147) - http://www.bohemiancoding.com/sketch -->
    <title>exchange</title>
    <desc>Created with Sketch.</desc>
    <defs></defs>
    <g id="Page-1" stroke="none" stroke-width="1" fill="none" fill-rule="evenodd">
        <g id="Anonymous_FlightResults_New" transform="translate(-176.000000, -38.000000)" fill="#FFFFFF" fill-rule="nonzero">
            <g id="Group-27" transform="translate(101.000000, 35.000000)">
                <g id="Group-19">
                    <g id="exchange" transform="translate(75.000000, 3.000000)">
                        <path d="M18.7500317,12.4075276 C18.7500317,14.2245295 17.7000584,14.3543154 17.5000635,14.3543154 L2.13170369,14.3543154 L5.43786974,10.9214796 L4.55664212,10 L0.181753198,14.5425049 C-0.0605843992,14.7956278 -0.0605843992,15.2043722 0.181753198,15.4574951 L4.55664212,20 L5.43786974,19.0850097 L2.13170369,15.6521739 L17.5000635,15.6521739 C18.3625416,15.6521739 20,15.0032446 20,12.4075276 L20,10.4607398 L18.7500317,10.4607398 L18.7500317,12.4075276 Z" id="Shape"></path>
                        <path d="M1.24996826,7.59896171 C1.24996826,5.78195977 2.2999416,5.65217391 2.49993653,5.65217391 L17.8682963,5.65217391 L14.5621303,9.08500973 L15.4433579,10 L19.8182468,5.45749513 C20.0605844,5.20437216 20.0605844,4.79562784 19.8182468,4.54250487 L15.4433579,0 L14.5558804,0.921479559 L17.8682963,4.35431538 L2.49993653,4.35431538 C1.63745842,4.35431538 0,5.00324465 0,7.59896171 L0,9.54574951 L1.24996826,9.54574951 L1.24996826,7.59896171 Z" id="Shape"></path>
                    </g>
                </g>
            </g>
        </g>
    </g>
</svg>