<?xml version="1.0" encoding="UTF-8"?>
<svg width="220px" height="216px" viewBox="0 0 220 216" version="1.1" xmlns="http://www.w3.org/2000/svg" xmlns:xlink="http://www.w3.org/1999/xlink">
    <!-- Generator: Sketch 49.2 (51160) - http://www.bohemiancoding.com/sketch -->
    <title>Group 9</title>
    <desc>Created with Sketch.</desc>
    <defs>
        <linearGradient x1="34.4508456%" y1="-7.75322571%" x2="95.9881533%" y2="96.9104117%" id="linearGradient-1">
            <stop stop-color="#FFFFFF" offset="0%"></stop>
            <stop stop-color="#EEEEEE" offset="100%"></stop>
        </linearGradient>
        <rect id="path-2" x="0" y="0" width="220" height="216" rx="16"></rect>
        <linearGradient x1="50%" y1="0%" x2="80.3064224%" y2="107.082958%" id="linearGradient-3">
            <stop stop-color="#E08B44" offset="0%"></stop>
            <stop stop-color="#DFB774" offset="100%"></stop>
        </linearGradient>
    </defs>
    <g id="Page-1" stroke="none" stroke-width="1" fill="none" fill-rule="evenodd">
        <g id="Group-9">
            <g id="Rectangle-Copy">
                <use fill="url(#linearGradient-1)" fill-rule="evenodd" xlink:href="#path-2"></use>
                <rect stroke="#F6F6F6" stroke-width="2" x="1" y="1" width="218" height="214" rx="16"></rect>
            </g>
            <g id="Group-7" transform="translate(35.000000, 20.000000)" fill-rule="nonzero">
                <circle id="Oval" fill="url(#linearGradient-3)" cx="74.8952941" cy="74.8952941" r="74.8952941"></circle>
                <path d="M128.448824,15.2582353 C98.5305882,11.5682353 67.2161765,21.1420588 44.1791176,44.1791176 C21.1420588,67.2161765 11.5682353,98.4308824 15.2582353,128.448824 C15.6570588,131.64 18.1502941,134.133235 21.3414706,134.532059 C51.2597059,138.222059 82.5741176,128.648235 105.611176,105.611176 C128.648235,82.5741176 138.222059,51.3594118 134.532059,21.3414706 C134.133235,18.1502941 131.64,15.6570588 128.448824,15.2582353 Z" id="Shape" fill="#833925"></path>
                <path d="M42.085,134.931176 C45.6752941,134.632059 49.2652941,134.133235 52.7558824,133.535 L16.2555882,97.0347059 C15.5573529,100.525294 15.1585294,104.115294 14.8594118,107.705588 L42.085,134.931176 Z" id="Shape" fill="#FCFCFD"></path>
                <path d="M133.535,52.7558824 C134.233235,49.2652941 134.632059,45.6752941 134.931176,42.085 L107.705588,14.8594118 C104.115294,15.1585294 100.525294,15.6573529 97.0347059,16.2555882 L133.535,52.7558824 Z" id="Shape" fill="#FCFCFD"></path>
                <path d="M92.2476471,53.4538235 L86.3638235,59.3376471 L81.6767647,54.4508824 C80.5797059,53.3538235 78.685,53.3538235 77.5879412,54.4508824 C76.4908824,55.5479412 76.4908824,57.4426471 77.5879412,58.5397059 L82.375,63.3264706 L74.9952941,70.7061765 L70.2082353,65.9191176 C69.1111765,64.8220588 67.2164706,64.8220588 66.1194118,65.9191176 C65.0223529,67.0161765 65.0223529,68.9108824 66.1194118,70.0079412 L70.9061765,74.795 L63.5264706,82.1747059 L58.7397059,77.3876471 C57.6426471,76.2905882 55.7479412,76.2905882 54.6508824,77.3876471 C53.5538235,78.4847059 53.5538235,80.3794118 54.6508824,81.4764706 L59.4376471,86.2632353 L53.4541176,92.2467647 C52.3570588,93.3438235 52.3570588,95.2385294 53.4541176,96.3355882 C54.5511765,97.4326471 56.4458824,97.4326471 57.5429412,96.3355882 L63.4267647,90.4517647 L68.2135294,95.2388235 C69.3105882,96.3358824 71.2052941,96.3358824 72.3023529,95.2388235 C73.3994118,94.1417647 73.3994118,92.2470588 72.3023529,91.15 L67.5152941,86.3629412 L74.895,78.9832353 L79.6820588,83.7702941 C80.7791176,84.8673529 82.6738235,84.8673529 83.7708824,83.7702941 C84.8679412,82.6732353 84.8679412,80.7785294 83.7708824,79.6814706 L78.9838235,74.8944118 L86.3635294,67.5147059 L91.1505882,72.3017647 C92.2476471,73.3988235 94.1423529,73.3988235 95.2394118,72.3017647 C96.3364706,71.2047059 96.3364706,69.31 95.2394118,68.2129412 L90.4523529,63.4261765 L96.3361765,57.5423529 C97.4332353,56.4452941 97.4332353,54.5505882 96.3361765,53.4535294 C95.2397059,52.2570588 93.4444118,52.2570588 92.2476471,53.4538235 Z" id="Shape" fill="#FCFCFD"></path>
            </g>
            <text id="Rugby" font-family="HelveticaNeue, Helvetica Neue" font-size="14" font-weight="normal" line-spacing="33" letter-spacing="0.466666728" fill="#333333">
                <tspan x="85.3403332" y="189">RUGBY</tspan>
            </text>
        </g>
    </g>
</svg>