<?xml version="1.0" encoding="UTF-8"?>
<svg width="24px" height="24px" viewBox="0 0 24 24" version="1.1" xmlns="http://www.w3.org/2000/svg" xmlns:xlink="http://www.w3.org/1999/xlink">
    <!-- Generator: Sketch 49.3 (51167) - http://www.bohemiancoding.com/sketch -->
    <title>rugby (3)</title>
    <desc>Created with Sketch.</desc>
    <defs></defs>
    <g id="Page-1" stroke="none" stroke-width="1" fill="none" fill-rule="evenodd">
        <g id="CampaignOfferDetails" transform="translate(-23.000000, -460.000000)" fill-rule="nonzero">
            <g id="rugby-(3)" transform="translate(23.000000, 460.000000)">
                <path d="M13.5753918,22.4922573 C15.5380117,21.6303158 17.3337076,20.4056608 18.8697076,18.8697076 C21.1716491,16.5676725 22.7744094,13.6824327 23.5047018,10.5257544 C24.2148304,7.456 24.0797193,4.2508538 23.1138713,1.25646784 C23.0499181,1.05843275 22.8947836,0.903298246 22.6967953,0.839438596 C19.7024561,-0.126409357 16.4972164,-0.261567251 13.4276023,0.448608187 C10.270924,1.17880702 7.38568421,2.78156725 5.08364912,5.08360234 C2.78161404,7.38568421 1.17880702,10.2708772 0.448608187,13.4276023 C-0.261707602,16.4973099 -0.126409357,19.7025497 0.839438596,22.6967018 C0.903204678,22.8947836 1.05847953,23.0499181 1.25651462,23.1138713 C4.25076023,24.0797661 7.45604678,24.2147836 10.5257076,23.504655 C11.1458713,23.3611696 11.7556491,23.1840468 12.3525146,22.9745029" id="Shape" fill="#9D6636"></path>
                <path d="M11.1112515,15.4899649 C11.1112515,18.1151813 11.7780117,20.5845614 12.9510175,22.7384795 L13.5753918,22.4922573 C15.5380117,21.6303158 17.3337076,20.4056608 18.8697076,18.8697076 C21.1716491,16.5676725 22.7744094,13.6824327 23.5047018,10.5257544 C24.2148304,7.456 24.0797193,4.2508538 23.1138713,1.25646784 C23.0499181,1.05843275 22.8947836,0.903298246 22.6967953,0.839438596 C22.6382222,0.820584795 22.579462,0.802573099 22.5207018,0.784280702 C15.9613099,2.46002339 11.1112515,8.40846784 11.1112515,15.4899649 Z" id="Shape" fill="#8B572A"></path>
                <g id="Group" fill="#FFFFFF">
                    <path d="M9.22994152,23.752655 C8.61300585,21.6811228 7.48860819,19.7299181 5.85590643,18.0973099 C4.22339181,16.464655 2.27209357,15.3402105 0.200701754,14.7233216 C0.0962807018,15.4065497 0.032748538,16.0940351 0.0100584795,16.7819883 C1.62559064,17.3266901 3.14278363,18.2406082 4.42769591,19.5255205 C5.71270175,20.8104795 6.62661988,22.3276725 7.17132164,23.9431579 C7.85927485,23.9204211 8.54666667,23.8569825 9.22994152,23.752655 Z" id="Shape"></path>
                    <path d="M20.6353684,7.84902924 C19.7309942,7.30077193 18.8777544,6.63644444 18.0973099,5.856 C16.4647953,4.2234386 15.3402573,2.27209357 14.7234152,0.200748538 C15.4065965,0.0962339181 16.0940819,0.0327953216 16.7819883,0.0100584795 C17.3267368,1.62554386 18.240655,3.14273684 19.5255673,4.42769591 C20.8105731,5.71265497 22.3277661,6.62671345 23.9432047,7.17136842 C23.9204678,7.85922807 23.8570292,8.54666667 23.752655,9.22994152 C23.0655906,9.02530994 22.3918596,8.76491228 21.7384795,8.44865497" id="Shape"></path>
                </g>
                <path d="M19.5255205,4.42764912 C18.9883977,3.89052632 18.5171462,3.31242105 18.1095673,2.704 C17.5401637,3.06891228 16.9963509,3.47040936 16.4823392,3.90596491 C16.9499883,4.59340351 17.4881871,5.24687719 18.0972632,5.85590643 C18.8777544,6.63630409 19.7309942,7.30063158 20.6353216,7.84893567 L21.7384327,8.44860819 C22.3918129,8.76491228 23.0655439,9.02530994 23.7525614,9.22989474 C23.7530292,9.22694737 23.7534503,9.22404678 23.7538246,9.22105263 C23.8572632,8.54180117 23.9203275,7.85847953 23.9430643,7.17469006 C23.9430643,7.17361404 23.9431111,7.17244444 23.9431579,7.17136842 C22.3277193,6.62671345 20.8105731,5.71265497 19.5255205,4.42764912 Z" id="Shape" fill="#D8BCA4"></path>
                <path d="M16.9145731,8.26493567 L15.6882339,8.26493567 L15.6882339,7.03859649 C15.6882339,6.82339181 15.5138246,6.64902924 15.2986667,6.64902924 C15.0835088,6.64902924 14.9090994,6.8234386 14.9090994,7.03859649 L14.9090994,8.26493567 L13.6827135,8.26493567 C13.5630877,8.26493567 13.4561871,8.31897076 13.3847018,8.40383626 C13.2996491,8.47532164 13.2455205,8.58231579 13.2455205,8.70208187 L13.2455205,9.92846784 L12.0191813,9.92846784 C11.9023626,9.92846784 11.797848,9.98016374 11.7264094,10.061614 C11.6451462,10.1330058 11.5936374,10.2373801 11.5936374,10.3540585 L11.5936374,11.5803041 L10.3673918,11.5803041 C10.2443509,11.5803041 10.1347836,11.6374737 10.0633918,11.7265965 C9.97422222,11.7979883 9.91691228,11.9075556 9.91691228,12.0307368 L9.91691228,13.2571228 L8.69052632,13.2571228 C8.57389474,13.2571228 8.46956725,13.3085848 8.39812865,13.3898012 C8.31663158,13.4612398 8.26488889,13.5658012 8.26488889,13.6826667 L8.26488889,14.9089123 L7.03864327,14.9089123 C6.8234386,14.9089123 6.64907602,15.0832749 6.64907602,15.2984795 C6.64907602,15.5136842 6.8234386,15.6880468 7.03864327,15.6880468 L8.26488889,15.6880468 L8.26488889,16.914386 C8.26488889,17.1295906 8.43925146,17.3039532 8.65445614,17.3039532 C8.86966082,17.3039532 9.04402339,17.1295906 9.04402339,16.914386 L9.04402339,15.6880468 L10.2704094,15.6880468 C10.3868538,15.6880468 10.4911345,15.6366784 10.5625263,15.5556491 C10.6441637,15.4842105 10.6960468,15.3795556 10.6960468,15.2625029 L10.6960468,14.0362105 L11.9222924,14.0362105 C12.0454737,14.0362105 12.1550409,13.9789006 12.2264795,13.889731 C12.3155556,13.8183392 12.3727719,13.7088187 12.3727719,13.5856842 L12.3727719,12.3594386 L13.5990643,12.3594386 C13.7155556,12.3594386 13.819883,12.3080234 13.8913216,12.2268538 C13.9728655,12.1554152 14.024655,12.050807 14.024655,11.9338947 L14.024655,10.7075088 L15.2510409,10.7075088 C15.3709474,10.7075088 15.4780819,10.6532865 15.5495673,10.5680936 C15.6342924,10.4966082 15.6881871,10.3898012 15.6881871,10.2703158 L15.6881871,9.04397661 L16.9144795,9.04397661 C17.1296842,9.04397661 17.3040468,8.86956725 17.3040468,8.65440936 C17.3042339,8.43925146 17.129731,8.26493567 16.9145731,8.26493567 Z M9.91691228,14.9090058 L9.04407018,14.9090058 L9.04407018,14.0363509 L9.91691228,14.0363509 L9.91691228,14.9090058 Z M11.5936842,13.2571696 L10.6961404,13.2571696 L10.6961404,12.3595789 L11.5936842,12.3595789 L11.5936842,13.2571696 Z M13.2455673,11.5803977 L12.3728187,11.5803977 L12.3728187,10.7076491 L13.2455673,10.7076491 L13.2455673,11.5803977 Z M14.9090994,9.92846784 L14.0247485,9.92846784 L14.0247485,9.04411696 L14.9090994,9.04411696 L14.9090994,9.92846784 Z" id="Shape" fill="#FFFFFF"></path>
            </g>
        </g>
    </g>
</svg>