<?xml version="1.0" encoding="UTF-8"?>
<svg width="150px" height="150px" viewBox="0 0 150 150" version="1.1" xmlns="http://www.w3.org/2000/svg" xmlns:xlink="http://www.w3.org/1999/xlink">
    <!-- Generator: Sketch 47.1 (45422) - http://www.bohemiancoding.com/sketch -->
    <title>Group 4</title>
    <desc>Created with Sketch.</desc>
    <defs></defs>
    <g id="Page-1" stroke="none" stroke-width="1" fill="none" fill-rule="evenodd">
        <g id="FACE-SCAN" transform="translate(-484.000000, -382.000000)">
            <g id="Group-4" transform="translate(484.000000, 382.000000)">
                <path d="M75,91.1016949 C60.0322034,91.1016949 46.0305085,99.1610169 38.459322,112.135593 C37.7525424,113.349153 38.1610169,114.905085 39.3745763,115.613559 C40.5847458,116.318644 42.1423729,115.910169 42.8525424,114.698305 C49.5152542,103.279661 61.8322034,96.1864407 75,96.1864407 C88.1677966,96.1864407 100.484746,103.279661 107.147458,114.698305 C107.620339,115.508475 108.471186,115.959322 109.345763,115.959322 C109.781356,115.959322 110.223729,115.849153 110.625424,115.613559 C111.838983,114.905085 112.247458,113.349153 111.540678,112.135593 C103.969492,99.1610169 89.9677966,91.1016949 75,91.1016949 L75,91.1016949 Z M110.169492,0 L39.8305085,0 C17.8677966,0 0,17.8677966 0,39.8305085 L0,110.169492 C0,132.132203 17.8677966,150 39.8305085,150 L110.169492,150 C132.132203,150 150,132.132203 150,110.169492 L150,39.8305085 C150,17.8677966 132.132203,0 110.169492,0 L110.169492,0 Z M144.915254,110.169492 C144.915254,129.328814 129.328814,144.915254 110.169492,144.915254 L39.8305085,144.915254 C20.6711864,144.915254 5.08474576,129.328814 5.08474576,110.169492 L5.08474576,39.8305085 C5.08474576,20.6711864 20.6711864,5.08474576 39.8305085,5.08474576 L110.169492,5.08474576 C129.328814,5.08474576 144.915254,20.6711864 144.915254,39.8305085 L144.915254,110.169492 Z" id="Page-1" fill="#CB0000"></path>
                <g id="Group-3" transform="translate(36.440678, 50.000000)" stroke="#CB0000" stroke-width="4">
                    <path d="M7.87729634,15.6880052 C12.2208174,15.6880052 15.7545927,12.1691656 15.7545927,7.84400261 C15.7545927,3.51883963 12.2208174,0 7.87729634,0 C3.53377529,0 0,3.51883963 0,7.84400261 C0,12.1691656 3.53253144,15.6880052 7.87729634,15.6880052 Z" id="Path"></path>
                    <path d="M68.8259021,15.6880052 C73.1694232,15.6880052 76.7031985,12.1691656 76.7031985,7.84400261 C76.7031985,3.51883963 73.1694232,0 68.8259021,0 C64.4823811,0 60.9486058,3.51883963 60.9486058,7.84400261 C60.9486058,12.1691656 64.4823811,15.6880052 68.8259021,15.6880052 Z" id="Path"></path>
                </g>
            </g>
        </g>
    </g>
</svg>