<?xml version="1.0" encoding="UTF-8"?>
<svg width="35px" height="25px" viewBox="0 0 35 25" version="1.1" xmlns="http://www.w3.org/2000/svg" xmlns:xlink="http://www.w3.org/1999/xlink">
    <!-- Generator: Sketch 47.1 (45422) - http://www.bohemiancoding.com/sketch -->
    <title>Shape</title>
    <desc>Created with Sketch.</desc>
    <defs></defs>
    <g id="DESIGN" stroke="none" stroke-width="1" fill="none" fill-rule="evenodd">
        <g id="Bundled-Experiences3" transform="translate(-1191.000000, -788.000000)" stroke="#FFFFFF" fill-rule="nonzero">
            <path d="M1223.01497,797.743771 C1224.35307,796.426792 1224.37075,794.092247 1224.37075,793.98655 C1224.37075,793.746061 1224.19612,793.542032 1223.95886,793.503363 C1223.72049,793.463956 1223.4906,793.605009 1223.41471,793.832976 C1223.40918,793.849548 1222.87534,795.401492 1221.61241,795.697223 C1220.8332,794.719433 1219.89484,793.75048 1218.74464,792.816147 C1218.57664,792.654471 1214.55352,788.895039 1206.86021,789.863992 C1206.25969,789.518911 1205.54312,789.240857 1204.6766,789.092071 C1204.32144,789.030936 1203.96592,789 1203.62034,789 C1200.50168,789 1198.74359,791.420355 1198.25286,792.209585 C1196.56624,792.364632 1195.13052,793.075418 1194.08826,794.274915 C1192.40975,796.20619 1191.73812,799.324809 1192.09144,803.544594 C1192.63338,810.012746 1196.31903,810.71101 1197.87855,810.71101 C1198.35012,810.71101 1198.65628,810.648402 1198.68944,810.641405 C1198.91564,810.59316 1199.07738,810.393182 1199.07738,810.1619 L1199.07738,809.059262 C1199.07738,808.848235 1198.94217,808.661148 1198.74212,808.59412 C1197.57571,808.205582 1196.83335,807.605281 1196.53493,806.810158 C1196.17977,805.864408 1196.51282,804.825482 1196.74456,804.287052 C1197.16529,804.42479 1197.85534,804.589413 1198.74875,804.589413 C1199.37838,804.589413 1200.02385,804.507654 1200.66747,804.347083 C1200.93863,804.279319 1201.1862,804.191667 1201.41278,804.089285 C1203.38529,806.68752 1203.4494,811.423637 1203.45013,811.472987 C1203.45271,811.741834 1203.67118,811.959121 1203.9405,811.959121 L1207.82215,811.959121 C1208.08741,811.959121 1208.30478,811.748095 1208.31215,811.482931 C1208.31251,811.469673 1208.35783,810.138699 1209.04014,808.807724 C1209.93282,807.065746 1211.46286,806.174134 1213.58716,806.159034 C1218.63706,806.158666 1218.92701,811.310943 1218.93695,811.531176 C1218.94874,811.793025 1219.16464,812 1219.42695,812 L1223.22718,812 C1223.41471,812 1223.58602,811.89283 1223.66818,811.724156 C1223.72123,811.614776 1224.97348,808.998863 1224.99964,805.345497 C1225.01401,803.233027 1224.60064,800.517309 1223.01497,797.743771 Z M1222.92803,796.143214 C1222.8094,796.408009 1222.65834,796.655864 1222.47745,796.873887 C1222.40119,796.758615 1222.31498,796.643342 1222.23466,796.528438 C1222.49108,796.42716 1222.72319,796.296051 1222.92803,796.143214 Z M1200.42911,803.395808 C1199.86322,803.537229 1199.29769,803.609044 1198.74838,803.609044 C1197.49723,803.609044 1196.73203,803.233764 1196.7265,803.231186 C1196.49587,803.113335 1196.2133,803.194357 1196.08104,803.4168 C1196.03425,803.495244 1194.94705,805.359124 1195.61351,807.147505 C1195.98746,808.151444 1196.82192,808.909002 1198.09628,809.403606 L1198.09628,809.725117 C1198.03034,809.728431 1197.95739,809.731009 1197.87818,809.731009 C1196.27814,809.731009 1193.52569,808.916368 1193.06848,803.463204 C1192.73801,799.517421 1193.33006,796.642606 1194.82841,794.918305 C1195.63267,793.993179 1196.68193,793.430074 1197.95186,793.235989 C1197.6166,794.334209 1197.64497,795.255652 1197.64718,795.313841 C1197.65787,795.577532 1197.87523,795.784138 1198.13681,795.784138 C1198.42786,795.772721 1198.63823,795.544754 1198.62717,795.274066 C1198.62644,795.255652 1198.56528,793.433021 1199.63038,792.037597 C1199.65322,792.007766 1199.66243,791.973516 1199.67753,791.940738 C1200.41658,791.087795 1201.73699,789.981105 1203.62034,789.981105 C1203.91066,789.981105 1204.21018,790.007254 1204.51044,790.058813 C1208.14931,790.683421 1208.74504,793.815666 1208.77525,793.979552 C1208.78114,794.004596 1209.36361,796.510392 1207.98131,798.344441 C1207.07905,799.541728 1205.52175,800.201691 1203.35729,800.312176 C1202.06709,800.316227 1201.18584,799.826779 1201.1652,799.814994 C1200.93384,799.677624 1200.63284,799.754596 1200.49468,799.986982 C1200.35653,800.219737 1200.43316,800.520624 1200.666,800.65873 C1200.70505,800.681932 1201.47947,801.128659 1202.67425,801.260136 C1202.4554,801.920099 1201.87957,803.033418 1200.42911,803.395808 Z" id="Shape"></path>
        </g>
    </g>
</svg>