<?xml version="1.0" encoding="UTF-8"?>
<svg width="36px" height="36px" viewBox="0 0 36 36" version="1.1" xmlns="http://www.w3.org/2000/svg" xmlns:xlink="http://www.w3.org/1999/xlink">
    <!-- Generator: Sketch 49.1 (51147) - http://www.bohemiancoding.com/sketch -->
    <title>Seats Icon</title>
    <desc>Created with Sketch.</desc>
    <defs></defs>
    <g id="Page-1" stroke="none" stroke-width="1" fill="none" fill-rule="evenodd">
        <g id="Anonymous_FlightDetails" transform="translate(-32.000000, -1197.000000)">
            <g id="Group-7" transform="translate(32.000000, 1052.000000)">
                <g id="Seats" transform="translate(0.000000, 144.000000)">
                    <g id="Seats-Icon" transform="translate(0.000000, 1.000000)">
                        <circle id="Oval-3" fill="#666666" cx="18" cy="18" r="18"></circle>
                        <g id="noun_91605_cc" transform="translate(12.937500, 11.812500)" fill-rule="nonzero" stroke="#FFFFFF" stroke-width="0.5">
                            <g id="Group">
                                <path d="M10.135512,7.70900948 L10.1287152,7.70724909 C10.1287152,7.70724909 10.0717047,7.69248891 9.98847776,7.68883272 C9.95726766,7.68531194 9.93132859,7.67705165 9.89637327,7.67705165 L6.68520015,7.67705165 C6.68520015,7.67705165 6.64858029,7.67759331 6.59531504,7.68571818 C6.5636888,7.68463487 6.53109158,7.6849057 6.49613626,7.68802023 L3.812622,7.91714162 L3.34280587,6.65683857 L7.50290492,6.65683857 C7.50290492,6.65683857 8.12738447,6.65683857 8.12738447,6.04720234 L8.12738447,6.04016078 C8.12738447,6.04016078 8.12738447,5.43038914 7.50290492,5.43038914 L2.88561249,5.43038914 L2.09010157,3.29679777 C2.09010157,3.29679777 2.08871445,3.29327699 2.08718863,3.28975621 L2.08718863,1.12325911 C2.08718863,1.12325911 2.08718863,0.208669355 1.15046931,0.208669355 C1.15046931,0.208669355 0.21375,0.208669355 0.21375,1.12325911 L0.21375,3.40594188 C0.21375,3.40594188 0.214859693,3.55936655 0.278805732,3.74014495 C0.290180082,3.7983732 0.305577067,3.85849725 0.329574171,3.92268374 L2.50429435,9.75580014 C2.50429435,9.75580014 2.55922414,9.89974579 2.68309358,10.0485664 C2.8150083,10.2376051 3.04249529,10.4018629 3.43921042,10.4018629 L5.43180229,10.4018629 L5.43180229,11.9687444 L2.86716385,11.9687444 C2.86716385,11.9687444 2.39873484,11.9687444 2.39873484,12.4260393 L2.39873484,12.4803405 C2.39873484,12.4803405 2.39873484,12.9375 2.86716385,12.9375 L9.23305449,12.9375 C9.23305449,12.9375 9.70134479,12.9375 9.70134479,12.4803405 L9.70134479,12.4260393 C9.70134479,12.4260393 9.70134479,11.9687444 9.23305449,11.9687444 L6.66841605,11.9687444 L6.66841605,10.4018629 L9.1913023,10.4018629 C9.1913023,10.4018629 9.19615721,10.4017275 9.20406377,10.4014566 L9.53919095,10.4014566 C9.72714514,10.4102586 10.0538109,10.3627281 10.166306,9.95242204 L10.5773084,8.4555498 C10.5773084,8.4555498 10.7387687,7.86676741 10.135512,7.70900948" id="Shape"></path>
                            </g>
                        </g>
                    </g>
                </g>
            </g>
        </g>
    </g>
</svg>