<?xml version="1.0" encoding="UTF-8"?>
<svg width="27px" height="10px" viewBox="0 0 27 10" version="1.1" xmlns="http://www.w3.org/2000/svg" xmlns:xlink="http://www.w3.org/1999/xlink">
    <!-- Generator: Sketch 49.3 (51167) - http://www.bohemiancoding.com/sketch -->
    <title>sedan-car-model</title>
    <desc>Created with Sketch.</desc>
    <defs></defs>
    <g id="Page-1" stroke="none" stroke-width="1" fill="none" fill-rule="evenodd">
        <g id="BookChauffeur" transform="translate(-78.000000, -91.000000)" fill="#777777" fill-rule="nonzero">
            <g id="sedan-car-model" transform="translate(91.000000, 96.000000) scale(-1, 1) translate(-91.000000, -96.000000) translate(77.000000, 91.000000)">
                <path d="M4.93918919,5.71783784 C3.82459459,5.71783784 2.92081081,6.62135135 2.92081081,7.73621622 C2.92081081,7.82216216 2.92783784,7.90675676 2.93864865,7.98972973 C3.06378378,8.98459459 3.91054054,9.75405405 4.93891892,9.75405405 C5.99513514,9.75405405 6.86108108,8.94216216 6.94891892,7.90810811 C6.95351351,7.85162162 6.9572973,7.79405405 6.9572973,7.73594595 C6.95756757,6.62135135 6.05405405,5.71783784 4.93918919,5.71783784 Z M3.92891892,6.97567568 L4.34027027,7.3872973 C4.30837838,7.44216216 4.28324324,7.50135135 4.26702703,7.56459459 L3.68702703,7.56459459 C3.71675676,7.34513514 3.80081081,7.14459459 3.92891892,6.97567568 Z M3.68432432,7.91405405 L4.26891892,7.91405405 C4.28540541,7.97621622 4.30972973,8.03513514 4.34216216,8.08918919 L3.92972973,8.50135135 C3.80189189,8.33378378 3.71594595,8.13324324 3.68432432,7.91405405 Z M4.76459459,8.99 C4.54594595,8.95945946 4.3472973,8.87378378 4.17918919,8.74702703 L4.58945946,8.33648649 C4.64351351,8.36810811 4.7027027,8.39135135 4.76459459,8.40756757 L4.76459459,8.99 Z M4.76459459,7.06486486 C4.70108108,7.08162162 4.64162162,7.10648649 4.58621622,7.13918919 L4.17513514,6.72810811 C4.34405405,6.59972973 4.54459459,6.51486486 4.76459459,6.48432432 L4.76459459,7.06486486 Z M5.11405405,6.48378378 C5.33405405,6.51432432 5.53486486,6.59972973 5.70351351,6.72783784 L5.2927027,7.13891892 C5.23756757,7.10621622 5.17756757,7.08135135 5.11432432,7.06459459 L5.11405405,6.48378378 Z M5.11405405,8.98945946 L5.11405405,8.40783784 C5.17621622,8.39135135 5.23486486,8.36837838 5.28891892,8.33648649 L5.69945946,8.74702703 C5.53135135,8.87378378 5.33243243,8.95891892 5.11405405,8.98945946 Z M5.94972973,8.50324324 L5.53594595,8.08891892 C5.56837838,8.03459459 5.59459459,7.97648649 5.61108108,7.91432432 L6.19108108,7.91432432 C6.16027027,8.1327027 6.07783784,8.33486486 5.94972973,8.50324324 Z M5.61189189,7.56459459 C5.59540541,7.50135135 5.57054054,7.44216216 5.53864865,7.3872973 L5.95054054,6.97567568 C6.07783784,7.14459459 6.16189189,7.34513514 6.19216216,7.56486486 L5.61189189,7.56486486 L5.61189189,7.56459459 Z" id="Shape"></path>
                <path d="M21.6983784,5.71783784 C20.5837838,5.71783784 19.68,6.62135135 19.68,7.73621622 C19.68,7.82216216 19.687027,7.90675676 19.6978378,7.98972973 C19.822973,8.98459459 20.6697297,9.75405405 21.6978378,9.75405405 C22.7540541,9.75405405 23.62,8.94216216 23.7081081,7.90810811 C23.7127027,7.85162162 23.7164865,7.79405405 23.7164865,7.73594595 C23.717027,6.62135135 22.8132432,5.71783784 21.6983784,5.71783784 Z M20.6881081,6.97567568 L21.0991892,7.3872973 C21.0672973,7.44216216 21.0421622,7.50135135 21.0259459,7.56459459 L20.4459459,7.56459459 C20.4759459,7.34513514 20.56,7.14459459 20.6881081,6.97567568 Z M20.4437838,7.91405405 L21.0283784,7.91405405 C21.0448649,7.97621622 21.0691892,8.03513514 21.1016216,8.08918919 L20.6894595,8.50135135 C20.5610811,8.33378378 20.4748649,8.13324324 20.4437838,7.91405405 Z M21.5237838,8.99 C21.3051351,8.95945946 21.1064865,8.87378378 20.9383784,8.74702703 L21.3486486,8.33648649 C21.4027027,8.36810811 21.4618919,8.39135135 21.5237838,8.40756757 L21.5237838,8.99 Z M21.5237838,7.06486486 C21.4602703,7.08162162 21.4008108,7.10648649 21.3454054,7.13918919 L20.9343243,6.72810811 C21.1032432,6.59972973 21.3035135,6.51486486 21.5237838,6.48432432 L21.5237838,7.06486486 Z M21.8735135,6.48378378 C22.0935135,6.51432432 22.2943243,6.59972973 22.462973,6.72783784 L22.0518919,7.13891892 C21.9967568,7.10621622 21.9367568,7.08081081 21.8735135,7.06459459 L21.8735135,6.48378378 Z M21.8735135,8.98945946 L21.8735135,8.40783784 C21.9356757,8.39135135 21.9943243,8.36837838 22.0483784,8.33648649 L22.4589189,8.74702703 C22.2908108,8.87378378 22.0916216,8.95891892 21.8735135,8.98945946 Z M22.7089189,8.50324324 L22.2951351,8.08945946 C22.3275676,8.03486486 22.3540541,7.97702703 22.3702703,7.91459459 L22.9502703,7.91459459 C22.9194595,8.1327027 22.8372973,8.33486486 22.7089189,8.50324324 Z M22.3710811,7.56459459 C22.3545946,7.50135135 22.33,7.44216216 22.2978378,7.3872973 L22.7094595,6.97567568 C22.837027,7.14459459 22.9208108,7.34513514 22.9513514,7.56486486 L22.3710811,7.56486486 L22.3710811,7.56459459 Z" id="Shape"></path>
                <path d="M26.5448649,4.67297297 L26.5448649,3.17945946 C26.5448649,2.93918919 26.3702703,2.73567568 26.132973,2.69864865 C25.5635135,2.60945946 24.5540541,2.44108108 24.1005405,2.30135135 C23.4502703,2.10081081 20.9378378,1.03702703 20.0678378,0.837297297 C19.1975676,0.637567568 15.2737838,-0.428918919 11.5156757,0.873783784 C10.8797297,1.09405405 8.01891892,2.46162162 6.33675676,3.1727027 C5.84135135,3.18351351 0.937837838,4.20567568 0.676756757,4.90621622 C0.415675676,5.60702703 0.333783784,5.94702703 0.285675676,6.12486486 C0.237567568,6.3027027 0.285675676,7.15378378 0.65,7.74648649 C1.02135135,7.95648649 1.73621622,8.09756757 2.5627027,8.19216216 C2.55324324,8.14162162 2.54297297,8.09189189 2.53648649,8.04081081 C2.52216216,7.93162162 2.51540541,7.83189189 2.51540541,7.73675676 C2.51540541,6.40027027 3.60243243,5.3127027 4.93918919,5.3127027 C6.27594595,5.3127027 7.36297297,6.4 7.36297297,7.73675676 C7.36297297,7.80540541 7.35837838,7.87351351 7.35324324,7.94054054 C7.34054054,8.09054054 7.31351351,8.23621622 7.27432432,8.37648649 C7.27621622,8.37648649 7.28081081,8.37648649 7.28081081,8.37648649 L19.3121622,8.13432432 C19.3067568,8.10324324 19.2997297,8.07243243 19.2956757,8.04081081 C19.2813514,7.93216216 19.2745946,7.83216216 19.2745946,7.73675676 C19.2745946,6.40027027 20.3616216,5.31297297 21.6983784,5.31297297 C23.0351351,5.31297297 24.1224324,6.4 24.1224324,7.73675676 C24.1224324,7.74189189 24.1218919,7.74621622 24.1216216,7.75108108 L24.172973,7.74675676 L26.23,7.35945946 C26.23,7.35945946 27.0178378,6.94 27.0178378,5.78594595 C27.0181081,5.01621622 26.5448649,4.67297297 26.5448649,4.67297297 Z M14.61,3.25702703 L10.1167568,3.39459459 C10.1994595,2.72135135 9.80081081,2.57027027 9.80081081,2.57027027 C11.587027,0.948918919 15.187027,0.894054054 15.187027,0.894054054 L14.61,3.25702703 Z M19.6527027,3.05135135 L15.5581081,3.18891892 L15.9291892,0.894324324 C18.0454054,0.866756757 19.2543243,1.33378378 19.2543243,1.33378378 L19.8589189,2.30945946 L19.6527027,3.05135135 Z M21.9610811,3.0372973 L20.8202703,3.0372973 L19.6797297,1.47108108 C20.5354054,1.81162162 21.2202703,2.1472973 21.6281081,2.35945946 C21.8756757,2.48810811 22.0108108,2.76297297 21.9610811,3.0372973 Z" id="Shape"></path>
            </g>
        </g>
    </g>
</svg>