<?xml version="1.0" encoding="UTF-8"?>
<svg width="36px" height="37px" viewBox="0 0 36 37" version="1.1" xmlns="http://www.w3.org/2000/svg" xmlns:xlink="http://www.w3.org/1999/xlink">
    <!-- Generator: Sketch 49.1 (51147) - http://www.bohemiancoding.com/sketch -->
    <title>Shopping bag icon</title>
    <desc>Created with Sketch.</desc>
    <defs></defs>
    <g id="Page-1" stroke="none" stroke-width="1" fill="none" fill-rule="evenodd">
        <g id="Anonymous_FlightDetails" transform="translate(-32.000000, -1409.000000)">
            <g id="Group-14" transform="translate(31.000000, 1288.000000)">
                <g id="Buy-stuff" transform="translate(1.000000, 120.500000)">
                    <g id="Shopping-bag-icon" transform="translate(0.000000, 1.000000)">
                        <circle id="Oval-3" fill="#666666" cx="18" cy="18" r="18"></circle>
                        <g id="ecommerce-shopping-bag-3.1" transform="translate(12.937500, 11.250000)" fill="#FFFFFF" fill-rule="nonzero">
                            <g id="Group">
                                <g id="icons">
                                    <path d="M10.6322981,1.40625 C10.6322981,1.33425 10.6054658,1.267875 10.5607453,1.218375 L10.0330435,0.15525 C9.98496894,0.0601875 9.88826087,0 9.7826087,0 L1.39751553,0 C1.29186335,0 1.19515528,0.0601875 1.14763975,0.15525 L0.58863354,1.28025 C0.587515528,1.2825 0.588074534,1.2853125 0.586956522,1.2875625 C0.570186335,1.324125 0.559006211,1.3635 0.559006211,1.40625 L0.559006211,10.933875 L0.00838509317,13.1506875 C-0.0122981366,13.2345 0.00614906832,13.3239375 0.0592546584,13.392 C0.111801242,13.4600625 0.193416149,13.5 0.279503106,13.5 L10.9006211,13.5 L10.9118012,13.5 C11.066087,13.5 11.1913043,13.374 11.1913043,13.21875 C11.1913043,13.1675625 11.1778882,13.1191875 11.1544099,13.078125 L10.621118,10.933875 L10.621118,1.4608125 C10.6250311,1.4428125 10.6322981,1.425375 10.6322981,1.40625 Z M1.11801242,1.6875 L10.0621118,1.6875 L10.0621118,10.6875 L1.11801242,10.6875 L1.11801242,1.6875 Z M1.57024845,0.5625 L9.61043478,0.5625 L9.88993789,1.125 L1.29074534,1.125 L1.57024845,0.5625 Z M0.637826087,12.9375 L1.05708075,11.25 L10.1236025,11.25 L10.5428571,12.9375 L0.637826087,12.9375 Z" id="Shape"></path>
                                    <path d="M8.10559006,2.8125 C7.95130435,2.8125 7.82608696,2.9385 7.82608696,3.09375 C7.82608696,4.179375 6.82322981,5.0625 5.59006211,5.0625 C4.35689441,5.0625 3.35403727,4.179375 3.35403727,3.09375 C3.35403727,2.9385 3.22881988,2.8125 3.07453416,2.8125 C2.92024845,2.8125 2.79503106,2.9385 2.79503106,3.09375 C2.79503106,4.4893125 4.04888199,5.625 5.59006211,5.625 C7.13124224,5.625 8.38509317,4.4893125 8.38509317,3.09375 C8.38509317,2.9385 8.25987578,2.8125 8.10559006,2.8125 Z" id="Shape"></path>
                                </g>
                            </g>
                        </g>
                    </g>
                </g>
            </g>
        </g>
    </g>
</svg>