<?xml version="1.0" encoding="UTF-8"?>
<svg width="36px" height="36px" viewBox="0 0 36 36" version="1.1" xmlns="http://www.w3.org/2000/svg" xmlns:xlink="http://www.w3.org/1999/xlink">
    <!-- Generator: Sketch 49.1 (51147) - http://www.bohemiancoding.com/sketch -->
    <title>Shortest icon</title>
    <desc>Created with Sketch.</desc>
    <defs></defs>
    <g id="Page-1" stroke="none" stroke-width="1" fill="none" fill-rule="evenodd">
        <g id="Anonymous_FlightDetails" transform="translate(-32.000000, -1472.000000)">
            <g id="Group-14" transform="translate(31.000000, 1288.000000)">
                <g id="Shoertest-and-cheapest" transform="translate(1.000000, 184.000000)">
                    <g id="Shortest-icon">
                        <g id="Group-8">
                            <circle id="Oval-3" fill="#666666" cx="18" cy="18" r="18"></circle>
                            <g id="timer" transform="translate(11.812500, 10.125000)" fill="#FFFFFF" fill-rule="nonzero">
                                <g id="Layer_1">
                                    <path d="M6.75,1.87519133 L6.75,0.619897959 L8.28409091,0.619897959 L8.28409091,0 L4.60227273,0 L4.60227273,0.619897959 L6.13636364,0.619897959 L6.13636364,1.87519133 C2.64164748,2.04349542 -0.0814980687,4.99837091 0.00182759439,8.53175443 C0.0851532574,12.065138 2.94449665,14.8856645 6.44318182,14.8856645 C9.94186699,14.8856645 12.8012104,12.065138 12.884536,8.53175443 C12.9678617,4.99837091 10.2447162,2.04349542 6.75,1.87519133 L6.75,1.87519133 Z M6.44318182,14.2576531 C3.22361277,14.2576531 0.613636364,11.6210442 0.613636364,8.36862245 C0.613636364,5.11620065 3.22361277,2.47959184 6.44318182,2.47959184 C9.66275087,2.47959184 12.2727273,5.11620065 12.2727273,8.36862245 C12.2727273,11.6210442 9.66275087,14.2576531 6.44318182,14.2576531 Z" id="Shape"></path>
                                    <path d="M13.5,2.47959184 L12.1285227,1.09102041 L10.26,2.35251276 L12.2420455,4.35478316 L13.5,2.47959184 Z M11.2172727,2.44239796 L12.0548864,1.89688776 L12.7053409,2.55397959 L12.1561364,3.39394133 L11.2172727,2.44239796 Z" id="Shape"></path>
                                    <path d="M5.74977273,8.17645408 C5.59192628,8.33591119 5.53028023,8.568325 5.58805603,8.78614747 C5.64583183,9.00396994 5.81425198,9.17410866 6.02987422,9.23247401 C6.24549647,9.29083936 6.47556266,9.22856426 6.63340909,9.06910714 L9.33954545,5.77125 L9.01431818,5.44270408 L5.74977273,8.17645408 Z" id="Shape"></path>
                                </g>
                            </g>
                        </g>
                    </g>
                </g>
            </g>
        </g>
    </g>
</svg>