<?xml version="1.0" encoding="UTF-8"?>
<svg width="220px" height="216px" viewBox="0 0 220 216" version="1.1" xmlns="http://www.w3.org/2000/svg" xmlns:xlink="http://www.w3.org/1999/xlink">
    <!-- Generator: Sketch 49.2 (51160) - http://www.bohemiancoding.com/sketch -->
    <title>Group 13</title>
    <desc>Created with Sketch.</desc>
    <defs>
        <linearGradient x1="34.4508456%" y1="-7.75322571%" x2="95.9881533%" y2="96.9104117%" id="linearGradient-1">
            <stop stop-color="#FFFFFF" offset="0%"></stop>
            <stop stop-color="#EEEEEE" offset="100%"></stop>
        </linearGradient>
        <rect id="path-2" x="0" y="0" width="220" height="216" rx="16"></rect>
    </defs>
    <g id="Page-1" stroke="none" stroke-width="1" fill="none" fill-rule="evenodd">
        <g id="Group-13">
            <g id="Group-4">
                <g id="Rectangle-Copy">
                    <use fill="url(#linearGradient-1)" fill-rule="evenodd" xlink:href="#path-2"></use>
                    <rect stroke="#F6F6F6" stroke-width="2" x="1" y="1" width="218" height="214" rx="16"></rect>
                </g>
                <text id="Soccer" font-family="HelveticaNeue, Helvetica Neue" font-size="14" font-weight="normal" line-spacing="33" letter-spacing="0.466666728" fill="#333333">
                    <tspan x="80.5639998" y="189">SOCCER</tspan>
                </text>
            </g>
            <g id="football-(2)" transform="translate(36.000000, 20.000000)" fill-rule="nonzero">
                <path d="M75,0 C116.421387,0 150,33.5786133 150,75 C150,116.421387 116.421387,150 75,150 C33.5786133,150 0,116.421387 0,75 C0,33.5786133 33.5786133,0 75,0 Z" id="Shape" fill="#5F8335"></path>
                <path d="M50.6771484,82.7926758 L25.603125,73.7305664 L29.0941406,15.6925781 C36.3647461,10.0567383 44.6973633,5.72666016 53.7433594,3.05830078 L66.6618164,3.60644531 L50.6771484,82.7926758 Z" id="Shape" fill="#CC9945"></path>
                <path d="M66.6606445,3.6046875 L65.8420898,7.66289062 L44.0575195,6.66416016 C47.1779297,5.24882813 50.4120117,4.04033203 53.7433594,3.05654297 L66.6618164,3.6046875 L66.6606445,3.6046875 Z" id="Shape" fill="#FFFFFF"></path>
                <path d="M63.2411133,7.54394531 C63.1057617,8.53037109 62.971875,9.515625 62.840625,10.5005859 C62.3777344,13.959375 61.9353516,17.4287109 61.5008789,20.8942383 L60.1611328,20.8359375 C60.5900391,17.2974609 61.0286133,13.7589844 61.4859375,10.2246094 C61.6048828,9.30996094 61.7241211,8.39384766 61.8445312,7.47919922 L63.2411133,7.54277344 L63.2411133,7.54394531 Z M30.6219727,14.5397461 C31.0901367,14.1960937 31.5609375,13.856543 32.0373047,13.5234375 C31.9614258,15.5545898 31.8911133,17.5869141 31.8234375,19.6195312 L30.4702148,19.5612305 C30.5203125,17.8860352 30.5704102,16.2134766 30.6231445,14.540918 L30.6219727,14.5397461 Z M34.1009766,12.1283203 C34.5732422,11.8212891 35.0496094,11.5180664 35.5297852,11.221582 C35.390332,14.0671875 35.2617188,16.9130859 35.1375,19.7613281 L33.7842773,19.7030273 C33.8844727,17.1782227 33.9884766,14.6519531 34.1009766,12.1283203 Z M37.6136719,9.96855469 C38.0912109,9.69257813 38.5743164,9.42451172 39.0588867,9.159375 C38.8397461,12.7371094 38.6393555,16.3174805 38.447168,19.903418 L37.0939453,19.8451172 C37.2603516,16.5515625 37.4282227,13.2580078 37.6136719,9.96972656 L37.6136719,9.96855469 Z M41.165625,8.05136719 C41.6472656,7.80791016 42.1318359,7.56679687 42.619043,7.33271484 L42.4810547,9.23525391 C42.2226562,12.834668 41.9859375,16.4381836 41.7530273,20.0443359 L40.406543,19.9860352 C40.6271484,16.3081055 40.8556641,12.6331055 41.1035156,8.96044922 L41.165625,8.04990234 L41.165625,8.05136719 Z M46.1100586,6.75761719 C46.0341797,7.6546875 45.9585937,8.55175781 45.8853516,9.44765625 C45.5929688,13.0253906 45.318457,16.6045898 45.0530273,20.1864258 L43.7053711,20.128125 C43.9625977,16.4745117 44.2289063,12.8223633 44.5130859,9.17285156 C44.5766602,8.34609375 44.6416992,7.51933594 44.709375,6.69257812 L46.1112305,6.75615234 L46.1100586,6.75761719 Z M49.5445312,6.91464844 C49.4578125,7.82929688 49.3725586,8.74277344 49.2873047,9.65742188 C48.9612305,13.2123047 48.6527344,16.7695312 48.3509766,20.3285156 L47.0074219,20.2702148 C47.2983398,16.6397461 47.6000977,13.0104492 47.9167969,9.38818359 C47.9912109,8.54238281 48.065625,7.696875 48.1426758,6.85107422 L49.5430664,6.91464844 L49.5445312,6.91464844 Z M52.9734375,7.07167969 C52.8758789,8.00273437 52.7786133,8.93496094 52.6825195,9.86601562 C52.3224609,13.3951172 51.9776367,16.930957 51.6433594,20.4679687 L50.3024414,20.4111328 C50.6285156,16.8064453 50.9642578,13.1973633 51.3172852,9.5953125 C51.4010742,8.73339844 51.487793,7.87001953 51.5745117,7.00810547 L52.9734375,7.07167969 Z M56.3994141,7.22841797 C56.2898438,8.17705078 56.1814453,9.12421875 56.0745117,10.0728516 C55.6792969,13.5814453 55.3019531,17.0956055 54.9325195,20.6097656 L53.5942383,20.5514648 C53.9554687,16.9643555 54.3249023,13.3825195 54.7133789,9.80068359 C54.8080078,8.92119141 54.9055664,8.04169922 55.002832,7.16337891 L56.4005859,7.22695312 L56.3994141,7.22841797 Z M59.8204102,7.38544922 C59.6985352,8.35166016 59.578125,9.31787109 59.4591797,10.2837891 C59.0314453,13.7695312 58.621582,17.259375 58.2169922,20.7518555 L56.8772461,20.6935547 C57.2724609,17.1319336 57.6782227,13.5679687 58.1003906,10.0116211 C58.2073242,9.11455078 58.3142578,8.21748047 58.4238281,7.32158203 L59.8204102,7.38544922 Z" id="Shape" fill="#886225"></path>
                <polygon id="Shape" fill="#FFFFFF" points="63.1640625 20.9279297 62.8177734 22.6464844 28.7856445 20.8086914 28.8899414 19.0766602"></polygon>
                <path d="M112.274121,9.31376953 C133.108594,9.31376953 150,26.2037109 150,47.0384766 C150,67.8732422 133.109766,84.7631836 112.274121,84.7631836 C91.4396484,84.7631836 74.5494141,67.8729492 74.5494141,47.0384766 C74.5494141,26.2040039 91.4393555,9.31376953 112.274121,9.31376953 Z" id="Shape" fill="#C8CACC"></path>
                <path d="M112.072266,9.50039062 C132.691699,9.50039062 149.407031,26.2160156 149.407031,46.8354492 C149.407031,67.4548828 132.691699,84.1702148 112.072266,84.1702148 C91.452832,84.1702148 74.737207,67.4545898 74.737207,46.8354492 C74.737207,26.2163086 91.453125,9.50039062 112.072266,9.50039062 Z" id="Shape" fill="#ECF0F1"></path>
                <path d="M112.072266,9.50039062 C123.065332,9.50039062 132.947461,14.2526367 139.779492,21.8126953 C143.694141,27.8194336 145.970215,34.9924805 145.970215,42.6958008 C145.970215,63.8510742 128.821582,80.999707 107.666309,80.999707 C100.820801,80.999707 94.3945312,79.2014648 88.8331055,76.0552734 C80.2447266,69.2150391 74.737207,58.668457 74.737207,46.8351563 C74.7375,26.2160156 91.453125,9.50039062 112.072266,9.50039062 Z" id="Shape" fill="#FFFFFF"></path>
                <path d="M112.334766,15.197168 C111.260449,15.0427734 109.019531,13.6708008 105.282129,13.3623047 L112.334766,15.197168 Z" id="Shape" fill="#4D4D4D"></path>
                <g id="Group" transform="translate(79.101562, 13.769531)" fill="#ECF0F1">
                    <polygon id="Shape" points="33.2874023 3.18544922 33.4579102 16.0579102 32.5810547 16.0646484 32.4120117 3.1921875"></polygon>
                    <path d="M21.8953125,0.993457031 C21.8724609,1.00019531 11.9604492,4.02451172 6.96328125,11.5710937 L6.23115234,11.0865234 C11.4137695,3.25839844 21.6436523,0.151757813 21.6679687,0.145019531 L21.8938477,0.993457031 L21.8953125,0.993457031 Z" id="Shape"></path>
                    <path d="M7.18388672,20.8848633 C7.20292969,20.8863281 15.4042969,21.8279297 21.0117188,24.665625 L20.6165039,25.4490234 C15.1699219,22.6939453 7.14462891,21.7628906 7.12558594,21.7617188 L7.18388672,20.8863281 L7.18388672,20.8848633 Z" id="Shape"></path>
                    <path d="M0.983496094,31.1824219 C0.979394531,31.2082031 0.465234375,42.2323242 5.61679688,49.3376953 L4.90517578,49.8533203 C-0.465527344,42.4461914 0.113671875,31.0620117 0.117773438,31.0350586 L0.983496094,31.1824219 Z" id="Shape"></path>
                    <path d="M22.0508789,61.4443359 C22.1551758,61.4484375 22.3541016,61.4970703 22.6705078,61.5741211 C24.7746094,62.0897461 35.4240234,63.9328125 43.0151367,60.9137695 L43.3371094,61.7285156 C35.4875977,64.8500977 24.6243164,62.9557617 22.4645508,62.4266602 C22.2020508,62.3616211 22.0368164,62.3211914 22.0233398,62.3211914 L22.050293,61.4458008 L22.050293,61.4443359 L22.0508789,61.4443359 Z" id="Shape"></path>
                    <path d="M65.7741211,30.8021484 C65.7767578,30.8305664 65.8201172,43.1563477 60.5537109,49.5418945 L59.8772461,48.984375 C64.9136719,42.8774414 64.9001953,30.8967773 64.8975586,30.8698242 L65.7744141,30.8006836 L65.7744141,30.8021484 L65.7741211,30.8021484 Z" id="Shape"></path>
                    <path d="M58.0476563,21.6005859 C58.0300781,21.6032227 51.318457,22.3948242 45.8639648,25.1554688 L45.6041016,24.3829102 C51.2021484,21.5507812 57.7933594,20.8294922 57.8124023,20.8280273 L58.0476563,21.6005859 Z" id="Shape"></path>
                    <polygon id="Shape" points="25.8477539 39.4772461 15.9413086 52.5474609 15.2472656 52.0075195 25.1537109 38.9373047"></polygon>
                    <polygon id="Shape" points="40.4645508 38.7287109 50.0285156 51.440332 49.3207031 51.9585937 39.7567383 39.2469727 40.4645508 38.7272461"></polygon>
                    <path d="M45.0626953,0.590039063 C45.0870117,0.596777344 53.9244141,2.81601563 59.1070313,10.6426758 L58.3749023,11.1272461 C53.3791992,3.58212891 44.8081055,1.28583984 44.7852539,1.27910156 L45.0612305,0.590332031 L45.0626953,0.590332031 L45.0626953,0.590039063 Z" id="Shape"></path>
                </g>
                <g id="Group" transform="translate(95.214844, 77.050781)" fill="#C8CACC">
                    <path d="M0.974121094,0.309082031 C0.983496094,0.321386719 2.60478516,2.55263672 4.81435547,5.13457031 C4.25830078,4.94501953 3.70751953,4.74345703 3.16347656,4.52841797 C1.453125,2.4609375 0.290625,0.862792969 0.282714844,0.851953125 L0.972949219,0.309375 L0.974121094,0.309375 L0.974121094,0.309082031 Z" id="Shape"></path>
                    <path d="M33.3038086,0.563378906 C32.6381836,1.94619141 31.8436523,3.20888672 30.9805664,4.35351563 C30.4432617,4.57412109 29.8980469,4.78125 29.3487305,4.97724609 C30.5422852,3.58476563 31.6464844,1.98544922 32.5136719,0.181640625 L33.3038086,0.563378906 Z" id="Shape"></path>
                </g>
                <path d="M77.1272461,42.3266602 C77.1219727,42.3319336 76.0230469,43.349707 74.7902344,44.8461914 C74.8160156,44.3537109 74.8538086,43.8638672 74.8986328,43.3766602 C75.890625,42.2548828 76.6643555,41.530957 76.668457,41.5268555 L77.1272461,42.3251953 L77.1272461,42.3266602 Z" id="Shape" fill="#ECF0F1"></path>
                <path d="M84.8563477,69.9202148 C84.8496094,69.9202148 83.9484375,69.91875 82.5046875,69.6307617 C82.2313477,69.2762695 81.9621094,68.9176758 81.7022461,68.5535156 C83.6074219,69.0433594 84.8551758,69.0448242 84.8630859,69.0448242 L84.8563477,69.9202148 Z" id="Shape" fill="#C8CACC"></path>
                <g id="Group" transform="translate(81.152344, 10.253906)" fill="#ECF0F1">
                    <path d="M23.634668,1.79472656 L21.2572266,0.511816406 C21.675293,0.40078125 22.0948242,0.293847656 22.5169922,0.196582031 L24.0082031,1.00166016 L23.634668,1.79472656 Z" id="Shape"></path>
                    <path d="M37.9104492,1.18828125 L39.796875,0.312890625 C40.2433594,0.421289062 40.6886719,0.536132812 41.128418,0.660644531 L38.221875,2.00976563 L37.9092773,1.18828125 L37.9104492,1.18828125 Z" id="Shape"></path>
                    <path d="M0.294140625,17.3112305 L0.0260742187,15.6143555 C0.261621094,15.2680664 0.503613281,14.9270508 0.75,14.5901367 L1.16689453,17.222168 L0.294140625,17.3112305 Z" id="Shape"></path>
                </g>
                <g id="Group" transform="translate(138.867188, 24.316406)" fill="#C8CACC">
                    <path d="M2.60654297,2.67773438 L3.13974609,0.205664062 C3.37382812,0.519726563 3.60117187,0.837597656 3.82587891,1.15839844 L3.48339844,2.74980469 L2.60800781,2.67802734 L2.60654297,2.67802734 L2.60654297,2.67773438 Z" id="Shape"></path>
                    <path d="M8.50634766,17.1389648 L10.3195313,18.450293 C10.3614258,18.8358398 10.3992188,19.2228516 10.4291016,19.612793 L7.98925781,17.8470703 L8.50751953,17.1392578 L8.50634766,17.1392578 L8.50634766,17.1389648 Z" id="Shape"></path>
                    <path d="M0.0720703125,44.3211914 L4.06933594,43.5310547 C3.8296875,43.8829102 3.58359375,44.2291992 3.33193359,44.5716797 L0.270996094,45.1766602 L0.0720703125,44.3211914 Z" id="Shape"></path>
                </g>
                <g id="Group" transform="translate(76.464844, 9.960938)" fill="#777777">
                    <polygon id="Shape" points="35.6074219 19.012793 42.130957 23.7515625 48.6544922 28.4917969 46.1633789 36.1602539 43.6708008 43.8287109 35.6074219 43.8287109 27.544043 43.8287109 25.0529297 36.1602539 22.5618164 28.4917969 29.0853516 23.7515625 35.6088867 19.012793"></polygon>
                    <path d="M35.4870117,7.55712891 C39.6237305,6.03486328 43.9280273,5.05927734 48.534082,5.07275391 L43.5503906,1.05263672 C38.1744141,0.0254882812 32.7996094,0.026953125 27.4233398,1.05263672 L22.4396484,5.07275391 C26.9853516,4.95087891 31.3587891,5.66132812 35.4870117,7.55712891 Z" id="Shape"></path>
                    <path d="M7.17246094,51.9972656 C7.17246094,51.9972656 12.3172852,55.6901367 18.6919922,55.2287109 C18.6919922,55.2287109 20.5227539,61.1367188 26.2790039,65.8007812 C26.2790039,65.8007812 24.2208984,67.8237305 19.5984375,68.681543 C19.5984375,68.681543 12.0574219,66.3418945 7.62451172,59.6302734 C7.62451172,59.6302734 6.53378906,56.3056641 7.17128906,51.9958008 L7.17246094,51.9972656 Z M51.7397461,54.7833984 C51.7397461,54.7833984 57.6732422,54.8578125 63.5988281,51.7089844 C63.5988281,51.7089844 64.790918,55.5099609 63.4526367,59.3449219 C63.4526367,59.3449219 60.2103516,65.1041016 51.3351562,68.5611328 C51.3351562,68.5611328 46.818457,68.0496094 44.6478516,65.3258789 C44.6478516,65.3258789 51.7546875,59.3056641 51.7397461,54.7822266 L51.7397461,54.7833984 Z" id="Shape"></path>
                    <path d="M5.02617187,16.996582 C5.02617187,16.996582 7.36435547,15.1535156 10.1789062,14.1035156 C10.1789062,14.1035156 8.29658203,18.5797852 10.4941406,25.2629883 C10.4941406,25.2629883 5.46445313,28.7865234 3.49423828,35.9501953 C3.49423828,35.9501953 1.82578125,35.212793 0.0922851562,32.2385742 C-0.133300781,26.6296875 3.30498047,18.9978516 5.02617187,16.996582 Z M60.7303711,13.8492188 C62.6654297,14.2212891 64.4868164,15.0263672 66.1078125,16.6083984 C69.2173828,21.6814453 70.8304687,26.8368164 71.1333984,32.0642578 L67.9291992,35.9871094 C66.2241211,31.9669922 63.9591797,28.190332 60.2162109,25.0576172 C60.9632812,22.0333008 61.237793,18.4256836 60.7303711,13.8506836 L60.7303711,13.8492188 Z" id="Shape"></path>
                </g>
                <path d="M5.53857422,103.324219 L144.460254,103.324219 C133.284375,130.703906 106.397168,150 75,150 C43.6013672,150 16.715625,130.703906 5.53857422,103.324219 Z" id="Shape" fill="#8AB063"></path>
                <path d="M94.0875,120.965332 L89.7925781,120.146777 C89.419043,120.076465 89.0036133,120.395801 89.0712891,120.8625 L89.4650391,123.521484 C89.5341797,123.987012 89.7249023,124.461914 90.1022461,124.495898 L93.0290039,124.756934 C93.4066406,124.790625 93.5633789,124.446973 93.750293,124.041211 L94.7217773,121.938281 C94.9098633,121.531055 94.4578125,121.034473 94.0845703,120.963867 L94.0875,120.965332 Z M21.1998047,91.5436523 L16.4557617,88.7100586 C16.0444336,88.4636719 15.2932617,88.5870117 15.112207,89.109375 L13.949707,92.4571289 C13.7683594,92.9794922 13.677832,93.5422852 14.1052734,93.7520508 L17.8901367,95.6167969 C18.3205078,95.8280273 18.8537109,95.64375 19.2351563,95.2163086 L21.3568359,92.8400391 C21.7371094,92.4137695 21.6125977,91.7912109 21.1998047,91.5451172 L21.1998047,91.5436523 Z M32.4594727,96.9996094 L27.4959961,94.5219727 C27.0644531,94.3069336 26.380957,94.5029297 26.2280273,95.0375977 L25.36875,98.0917969 C25.2172852,98.6276367 25.2389648,99.1769531 25.6705078,99.3922852 L29.4295898,101.269043 C29.8611328,101.485547 30.3348633,101.183789 30.6960938,100.752246 L32.7609375,98.3003906 C33.1239258,97.8682617 32.8910156,97.2146484 32.4594727,96.9996094 Z M61.3535156,109.908691 L56.2939453,107.628516 C55.8527344,107.431055 55.1882813,107.658398 55.0708008,108.205078 L54.4051758,111.321387 C54.2888672,111.869531 54.3442383,112.421484 54.7828125,112.618945 L58.6163086,114.346875 C59.0545898,114.544336 59.5054688,114.220898 59.8382812,113.770312 L61.7326172,111.207422 C62.0654297,110.756836 61.7947266,110.107324 61.3549805,109.909863 L61.3535156,109.908691 Z M72.646875,114.208887 L67.4399414,112.319824 C66.9867188,112.156055 66.3626953,112.441699 66.3114258,113.005957 L66.019043,116.219824 C65.9663086,116.784082 66.0852539,117.338965 66.5373047,117.502734 L70.4818359,118.933008 C70.9350586,119.097949 71.3370117,118.731445 71.6103516,118.246875 L73.1666016,115.491797 C73.4399414,115.007227 73.1015625,114.372656 72.6483398,114.208887 L72.646875,114.208887 Z M84.6439453,118.383398 L79.3895508,116.656641 C78.9322266,116.507812 78.3272461,116.816309 78.3017578,117.386133 L78.1611328,120.62959 C78.1368164,121.199121 78.2789063,121.754004 78.7347656,121.904297 L82.7144531,123.211523 C83.1706055,123.361816 83.5535156,122.980078 83.8010742,122.482031 L85.2152344,119.656641 C85.4642578,119.158594 85.0989258,118.532227 84.6427734,118.383398 L84.6439453,118.383398 Z" id="Shape" fill="#666666"></path>
                <path d="M101.627344,119.283398 C103.145508,112.930371 98.3012695,110.864063 85.8928711,98.5394531 C73.4830078,86.2136719 61.6212891,73.3125 60.1083984,70.9444336 C58.5943359,68.5763672 53.4087891,66.0392578 50.4793945,68.4720703 C47.549707,70.9063477 42.3916992,78.0928711 36.6489258,76.2931641 C23.6953125,72.2364258 28.1173828,60.1892578 26.3947266,60.1526367 C22.2568359,60.0647461 13.9444336,78.7895508 12.9363281,82.8978516 C13.2055664,83.3469727 13.2354492,86.9545898 13.3693359,87.0697266 C25.312207,97.2919922 79.8632812,120.978809 99.6342773,121.897559 C100.018652,121.915137 101.293359,119.436035 101.628809,119.281934 L101.627344,119.283398 Z" id="Shape" fill="#FFFFFF"></path>
                <path d="M42.3700195,75.4816406 C40.5796875,76.4560547 38.6487305,76.9212891 36.6474609,76.2949219 C24.9547852,72.6333984 27.4189453,62.4629883 26.7436523,60.4901367 L26.3944336,60.1546875 C22.256543,60.0667969 13.9441406,78.7916016 12.9345703,82.8999023 C13.2052734,83.3490234 13.2348633,86.9566406 13.369043,87.0729492 C23.6733398,95.8927734 65.6604492,115.165723 89.6882812,120.878906 L42.3714844,75.4816406 L42.3700195,75.4816406 Z" id="Shape" fill="#ECF0F1"></path>
                <path d="M101.627344,119.283398 C103.145508,112.931543 98.3027344,110.864062 85.8928711,98.5394531 C84.3123047,96.9711914 82.7425781,95.3920898 81.2000977,93.8276367 C75.4195313,93.0644531 67.5143555,92.784375 64.3113281,96.2024414 C58.9948242,101.876367 41.6824219,95.784375 32.6771484,90.5894531 C23.671875,85.3948242 27.5323242,71.6507812 23.7477539,69.4614258 C22.5609375,68.775293 21.2510742,67.9743164 20.0088867,67.1976562 C16.6787109,72.9363281 13.5313477,80.4708984 12.9345703,82.8984375 C13.2052734,83.3463867 13.2348633,86.9566406 13.369043,87.0703125 C25.3107422,97.293457 84.0213867,123.522949 99.2551758,121.830176 C99.6380859,121.788281 101.291602,119.436328 101.627344,119.282227 L101.627344,119.283398 Z" id="Shape" fill="#FF5B61"></path>
                <path d="M64.14375,96.3703125 C58.6432617,101.751855 41.5921875,95.7331055 32.6774414,90.5897461 C23.672168,85.3951172 27.5326172,71.6510742 23.7480469,69.4617188 C22.5626953,68.7755859 21.2501953,67.9746094 20.0080078,67.1979492 C16.6792969,72.9366211 13.5304687,80.4697266 12.9351563,82.8987305 C13.2058594,83.3478516 13.2354492,86.9554687 13.3696289,87.0717773 C23.6739258,95.8916016 65.6610352,115.164551 89.6888672,120.877734 L64.144043,96.3694336 L64.144043,96.3703125 L64.14375,96.3703125 Z" id="Shape" fill="#EC4B53"></path>
                <path d="M86.9226563,99.5569336 C86.5842773,99.2267578 86.240625,98.887207 85.8914063,98.5394531 C73.481543,86.2136719 61.6198242,73.3125 60.1069336,70.9444336 C60.009375,70.7900391 59.8945313,70.6374023 59.7685547,70.4844727 L58.3719727,71.5939453 C56.8130859,72.8334961 56.5344727,75.0539063 57.8320313,76.4516602 L80.1632813,100.504102 C81.459668,101.900684 83.7357422,102.092578 85.2931641,100.851855 L86.9223633,99.5554688 L86.9223633,99.5569336 L86.9226563,99.5569336 Z" id="Shape" fill="#666666"></path>
                <path d="M100.536621,120.30498 C90.16875,125.735156 22.0089844,95.0036133 13.6341797,85.6898438 C13.4868164,85.5275391 13.0658203,82.1405273 12.7438477,82.9429688 C11.9455078,84.9240234 11.2201172,86.6112305 12.3055664,87.6316406 C16.7859375,91.8398438 47.9666016,108.018164 72.8958984,116.694727 C83.4357422,120.362988 99.5748047,123.869238 100.892578,121.430859 C102.236133,118.943848 101.939941,118.734082 101.792285,118.337402 C101.655762,117.967969 100.908691,120.111328 100.536621,120.306152 L100.536621,120.30498 Z" id="Shape" fill="#C8CACC"></path>
                <g id="Group" transform="translate(33.398438, 75.292969)" fill="#FFFFFF">
                    <path d="M47.1723633,18.0029297 L45.1426758,19.4750977 C44.5092773,19.9338867 44.4228516,20.7864258 44.9478516,21.3708984 C45.4728516,21.9553711 46.4200195,22.0582031 47.053418,21.5982422 L49.0831055,20.1260742 C49.7165039,19.6672852 49.8029297,18.8147461 49.2779297,18.2302734 C48.7529297,17.6458008 47.8057617,17.5429688 47.1723633,18.0014648 L47.1723633,18.0029297 Z" id="Shape"></path>
                    <path d="M41.5716797,12.1845703 L39.5419922,13.6567383 C38.9085937,14.1155273 38.822168,14.9680664 39.347168,15.5525391 C39.872168,16.1370117 40.8193359,16.2398437 41.4527344,15.7813477 L43.4824219,14.3091797 C44.1158203,13.8503906 44.2022461,12.9978516 43.6772461,12.4133789 C43.1522461,11.8289063 42.2050781,11.7260742 41.5716797,12.1860352 L41.5716797,12.1845703 Z" id="Shape"></path>
                    <path d="M35.9709961,6.36445312 L33.9398438,7.83662109 C33.3064453,8.29541016 33.2200195,9.14794922 33.7450195,9.73242187 C34.2700195,10.3168945 35.2171875,10.4197266 35.8505859,9.95976562 L37.8802734,8.48759766 C38.5136719,8.02880859 38.6000977,7.17626953 38.0750977,6.59179687 C37.5500977,6.00732422 36.6029297,5.90566406 35.9709961,6.36298828 L35.9709961,6.36445312 Z" id="Shape"></path>
                    <path d="M30.3703125,0.544628906 L28.340625,2.01679687 C27.7072266,2.47558594 27.6208008,3.328125 28.1458008,3.91259766 C28.6722656,4.49707031 29.6179688,4.59990234 30.2513672,4.14140625 L32.2810547,2.66923828 C32.9144531,2.21044922 33.0008789,1.35791016 32.4758789,0.7734375 C31.9508789,0.188964844 31.0037109,0.0861328125 30.3717773,0.544628906 L30.3703125,0.544628906 Z" id="Shape"></path>
                    <path d="M22.8076172,7.27119141 L0.0111328125,9.48779297 L24.6779297,10.790918 L22.8079102,7.27001953 L22.8079102,7.27119141 L22.8076172,7.27119141 Z M25.7953125,14.1952148 L2.90390625,13.4414062 L27.1945312,17.9285156 L25.7953125,14.1952148 Z" id="Shape"></path>
                </g>
                <g id="Group" transform="translate(91.992188, 88.476562)" fill="#C8CACC">
                    <path d="M23.3264648,1.85332031 C20.194043,5.64228516 12.8759766,8.98183594 7.53105469,9.43652344 C17.850293,6.85195313 22.2196289,1.03066406 22.2331055,1.01308594 L23.3264648,1.85214844 L23.3264648,1.85332031 Z" id="Shape"></path>
                    <path d="M16.0775391,1.06992187 C14.1208008,3.64775391 6.94775391,7.93857422 0.282128906,8.653125 C10.6013672,6.06738281 14.9707031,0.247265625 14.9841797,0.2296875 L16.0775391,1.06875 L16.0775391,1.06992187 Z" id="Shape"></path>
                </g>
                <path d="M53.7418945,3.05683594 L66.6603516,3.60498047 L67.3098633,0.391113281 C62.6481445,0.866015625 58.1124023,1.7671875 53.7430664,3.05830078 L53.7418945,3.05683594 Z" id="Shape" fill="#FED198"></path>
            </g>
        </g>
    </g>
</svg>