<?xml version="1.0" encoding="UTF-8"?>
<svg width="30px" height="26px" viewBox="0 0 30 26" version="1.1" xmlns="http://www.w3.org/2000/svg" xmlns:xlink="http://www.w3.org/1999/xlink">
    <!-- Generator: Sketch 50 (54983) - http://www.bohemiancoding.com/sketch -->
    <title>speech-bubble</title>
    <desc>Created with Sketch.</desc>
    <defs></defs>
    <g id="Page-1" stroke="none" stroke-width="1" fill="none" fill-rule="evenodd">
        <g id="Anonymous_Home2" transform="translate(-23.000000, -614.000000)" fill-rule="nonzero">
            <g id="speech-bubble" transform="translate(23.000000, 614.000000)">
                <path d="M24.1148325,13.5787378 L24.1148325,2.72781755 C24.1148325,1.2251039 22.8748855,0 21.3539652,0 L2.76086735,0 C1.23994706,0 0,1.2251039 0,2.72781755 L0,13.5787378 C0,15.0814515 1.23994706,16.3065554 2.76086735,16.3065554 L3.54881401,16.3065554 L3.54881401,19.5775224 C3.54881401,20.1810219 4.04357121,20.6698565 4.66049069,20.6698565 C4.97811259,20.6698565 5.28351827,20.5310516 5.49730225,20.2896518 L8.98503512,16.3005204 L21.3600733,16.3005204 C22.8748855,16.3065554 24.1148325,15.0814515 24.1148325,13.5787378 Z M8.63687265,14.8279817 C8.41698056,14.8279817 8.21541281,14.9185066 8.06881808,15.0814515 L5.03919373,18.5395034 L5.03919373,15.564251 C5.03919373,15.1538714 4.70324748,14.8219467 4.28789575,14.8219467 L2.76086735,14.8219467 C2.0645424,14.8219467 1.49648783,14.2606922 1.49648783,13.5727028 L1.49648783,2.72781755 C1.49648783,2.03982817 2.0645424,1.47857367 2.76086735,1.47857367 L21.3539652,1.47857367 C22.0502901,1.47857367 22.6183447,2.03982817 22.6183447,2.72781755 L22.6183447,13.5787378 C22.6183447,14.2667272 22.0502901,14.8279817 21.3539652,14.8279817 L8.63687265,14.8279817 Z" id="Shape" fill="#A9A9A9"></path>
                <path d="M24.3555117,24.8830642 C24.5696754,25.1304268 24.8756236,25.2631579 25.1876907,25.2631579 C25.3161889,25.2631579 25.4508061,25.239025 25.5793043,25.1907591 C26.0198696,25.0278618 26.3013419,24.6296684 26.3013419,24.1651095 L26.3013419,20.8950972 L27.0906881,20.8950972 C28.6143099,20.8950972 29.8564593,19.6703508 29.8564593,18.1680758 L29.8564593,7.32032278 C29.8564593,5.81804775 28.6143099,4.59330144 27.0906881,4.59330144 C26.6745987,4.59330144 26.3380557,4.92512925 26.3380557,5.32935587 C26.3380557,5.73961572 26.6745987,6.07144353 27.0906881,6.07144353 C27.7882499,6.07144353 28.3573134,6.63253421 28.3573134,7.32032278 L28.3573134,18.1680758 C28.3573134,18.8558644 27.7882499,19.4169551 27.0906881,19.4169551 L25.5548285,19.4169551 C25.138739,19.4169551 24.802196,19.7487829 24.802196,20.1590427 L24.802196,23.1334266 L21.7671905,19.6763841 C21.6264543,19.5134868 21.4184096,19.4229883 21.1981269,19.4229883 L9.9392353,19.4229883 C9.52314583,19.4229883 9.18660287,19.7548161 9.18660287,20.165076 C9.18660287,20.5753358 9.52314583,20.9071636 9.9392353,20.9071636 L20.855465,20.9071636 L24.3555117,24.8830642 Z" id="Shape" fill="#A9A9A9"></path>
                <circle id="Oval" fill="#000000" cx="11.7703349" cy="8.32535885" r="1"></circle>
                <circle id="Oval" fill="#000000" cx="15.215311" cy="8.32535885" r="1"></circle>
                <circle id="Oval" fill="#000000" cx="8.89952153" cy="8.32535885" r="1"></circle>
            </g>
        </g>
    </g>
</svg>