<?xml version="1.0" encoding="UTF-8"?>
<svg width="32px" height="32px" viewBox="0 0 32 32" version="1.1" xmlns="http://www.w3.org/2000/svg" xmlns:xlink="http://www.w3.org/1999/xlink">
    <!-- Generator: Sketch 47.1 (45422) - http://www.bohemiancoding.com/sketch -->
    <title>Shape</title>
    <desc>Created with Sketch.</desc>
    <defs></defs>
    <g id="DESIGN" stroke="none" stroke-width="1" fill="none" fill-rule="evenodd">
        <g id="Bundled-Experiences3" transform="translate(-1298.000000, -783.000000)" stroke="#FFFFFF" fill-rule="nonzero" fill="#000000">
            <path d="M1328.99227,813.265719 C1328.71151,812.123923 1327.95327,811.821382 1327.39929,811.601206 C1327.31576,811.567829 1327.23438,811.53553 1327.16001,811.501077 C1327.04253,811.447782 1326.9396,811.381568 1326.8356,811.315353 C1326.80165,811.29382 1326.76338,811.275517 1326.72889,811.253984 C1326.92667,809.557171 1327.03499,807.796296 1327.03499,805.993971 C1327.03499,797.18637 1323.81291,786.760013 1321.09147,786.760013 C1318.37002,786.760013 1315.1474,797.186908 1315.1474,805.994509 C1315.1474,807.615956 1315.23686,809.205642 1315.39799,810.746878 C1315.34572,810.744186 1315.29291,810.740418 1315.24063,810.739341 C1314.80736,810.737188 1314.45815,810.894918 1314.13427,811.037037 C1313.87506,811.151163 1313.62879,811.258829 1313.40191,811.263674 C1313.30006,811.266365 1313.20467,811.265827 1313.11414,811.263135 C1313.5846,808.812123 1313.83626,806.066645 1313.83626,803.233958 C1313.83626,794.425818 1310.61418,784 1307.89274,784 C1305.1713,784 1301.94868,794.425818 1301.94868,803.233958 C1301.94868,806.217916 1302.22837,809.106589 1302.75056,811.655577 C1301.29337,812.072782 1299.91541,812.899655 1299.1049,813.521425 C1298.98742,813.611326 1298.96533,813.779285 1299.05532,813.895564 C1299.10814,813.96447 1299.18736,814 1299.26765,814 C1299.32424,814 1299.3819,813.982235 1299.4304,813.944552 C1300.67741,812.98848 1303.3261,811.505383 1305.35883,812.028639 C1305.85139,812.154608 1306.73734,811.88006 1307.931,811.476852 C1308.41332,811.313738 1308.86815,811.160314 1309.09987,811.126938 C1310.35874,810.943368 1310.88417,811.163006 1311.43978,811.396102 C1311.91185,811.594208 1312.44806,811.819767 1313.4143,811.797158 C1313.74734,811.789621 1314.05398,811.655039 1314.34983,811.525301 C1314.64569,811.395564 1314.92484,811.272825 1315.21908,811.272825 C1315.22393,811.272825 1315.22878,811.272825 1315.23363,811.272825 C1315.35219,811.27444 1315.4702,811.282515 1315.58876,811.289513 C1315.80917,811.30351 1316.03659,811.319121 1316.26778,811.29705 C1317.1575,811.213609 1317.73251,810.657515 1318.23961,810.166559 C1318.76558,809.657838 1319.21987,809.217485 1319.95924,809.215332 C1319.96085,809.215332 1319.96247,809.215332 1319.96355,809.215332 C1320.55849,809.215332 1321.11733,809.528101 1321.62498,810.145564 L1321.75,810.299526 C1322.13262,810.772717 1322.56643,811.308893 1323.33221,811.540913 C1324.07266,811.764858 1324.54258,811.636197 1324.95538,811.522071 C1325.35632,811.410637 1325.67481,811.321813 1326.23742,811.586133 C1326.34951,811.638351 1326.44867,811.702412 1326.54782,811.765396 C1326.67231,811.844531 1326.79733,811.923127 1326.93907,811.987188 C1327.02044,812.023794 1327.10882,812.059324 1327.20097,812.09593 C1327.72047,812.303187 1328.25775,812.516904 1328.47277,813.391688 C1328.5078,813.534884 1328.65384,813.621555 1328.79611,813.587102 C1328.94,813.553187 1329.0273,813.408376 1328.99227,813.265719 Z M1307.11511,805.369509 L1307.11511,811.185078 C1306.46627,811.392873 1305.76894,811.585594 1305.4914,811.512382 C1304.78868,811.331503 1304.02506,811.364341 1303.2679,811.524763 C1302.75649,809.016688 1302.48326,806.172696 1302.48326,803.233958 C1302.48326,794.070521 1305.69457,785.113264 1307.70143,784.560939 L1307.71167,804.615848 C1307.37054,804.697674 1307.11511,805.003445 1307.11511,805.369509 Z M1308.28775,810.796404 C1308.12285,810.849699 1307.94825,810.907838 1307.75963,810.971361 C1307.67664,810.999354 1307.58772,811.0295 1307.49719,811.059647 L1307.49719,805.369509 C1307.49719,805.151486 1307.67448,804.974376 1307.8922,804.974376 C1308.11045,804.974376 1308.28775,805.151486 1308.28775,805.369509 L1308.28775,810.796404 Z M1311.64617,810.904608 C1311.04853,810.653208 1310.42772,810.393734 1309.02281,810.598837 C1308.92689,810.612834 1308.80348,810.644057 1308.67037,810.680663 L1308.67037,805.369509 C1308.67037,805.010982 1308.42463,804.711133 1308.09375,804.622308 L1308.08351,784.560939 C1310.09037,785.114341 1313.30113,794.071059 1313.30113,803.233958 C1313.30113,806.051572 1313.04947,808.778747 1312.57901,811.208226 C1312.2104,811.140935 1311.93179,811.024117 1311.64617,810.904608 Z M1320.85651,808.871339 C1320.57035,808.748062 1320.27288,808.682924 1319.96463,808.682924 C1319.96247,808.682386 1319.96032,808.682386 1319.95816,808.682386 C1319.75015,808.682924 1319.56261,808.714147 1319.38639,808.76152 L1319.26621,808.599483 C1319.24089,808.56503 1319.19454,808.557494 1319.15951,808.581718 C1319.12556,808.605943 1319.11694,808.653316 1319.14119,808.687769 L1319.23118,808.809432 C1319.03233,808.879414 1318.8518,808.974699 1318.68366,809.087209 L1318.33823,808.614556 C1318.3129,808.580103 1318.26602,808.573105 1318.23153,808.596253 C1318.19758,808.621016 1318.18895,808.668389 1318.2132,808.702842 L1318.55756,809.174419 C1318.37703,809.308463 1318.20889,809.458118 1318.04614,809.612618 L1317.2669,808.511197 C1317.24157,808.476744 1317.19468,808.468669 1317.16019,808.492894 C1317.12624,808.517657 1317.11762,808.56503 1317.14187,808.599483 L1317.93459,809.720284 C1317.9125,809.741817 1317.88986,809.762812 1317.86777,809.784345 C1317.71257,809.934539 1317.56006,810.079888 1317.40162,810.213394 L1316.36855,808.752907 C1316.34322,808.718454 1316.29634,808.710379 1316.26185,808.734604 C1316.2279,808.759367 1316.21928,808.80674 1316.24353,808.841193 L1317.28306,810.310293 C1316.97697,810.548234 1316.64231,810.72696 1316.21928,810.766258 C1316.12712,810.775409 1316.03335,810.776486 1315.93743,810.773794 C1315.77953,809.285853 1315.69223,807.750538 1315.68576,806.185616 L1320.86136,806.185616 L1320.85651,808.871339 Z M1320.86136,805.803402 L1315.68415,805.803402 C1315.68738,805.196167 1315.70409,804.590009 1315.73373,803.98708 L1320.86459,803.98708 L1320.86136,805.803402 Z M1320.86513,803.605943 L1315.75421,803.605943 C1316.2349,795.342054 1319.06197,787.844208 1320.89369,787.32472 L1320.86513,803.605943 Z M1321.27577,787.320952 C1323.10749,787.809755 1325.94641,795.323213 1326.42765,803.605405 L1321.24721,803.605405 L1321.27577,787.320952 Z M1326.26005,810.616602 L1325.29434,809.27078 C1325.27009,809.237403 1325.22267,809.229328 1325.18764,809.253553 C1325.15369,809.278316 1325.14561,809.325689 1325.1704,809.360142 L1326.23634,810.84593 C1326.23095,810.898148 1326.2261,810.950904 1326.22017,811.003122 C1325.92809,810.898686 1325.68289,810.87177 1325.46194,810.883613 L1324.31624,809.286929 C1324.29199,809.252476 1324.24457,809.245478 1324.20954,809.269165 C1324.17559,809.293928 1324.1675,809.341301 1324.19229,809.375215 L1325.28626,810.900301 C1325.12028,810.925065 1324.96508,810.965978 1324.81311,811.007967 C1324.72149,811.033269 1324.63042,811.058032 1324.53719,811.078488 L1323.18078,809.17711 C1323.15761,809.144811 1323.1118,809.137274 1323.07839,809.160422 C1323.04552,809.184109 1323.03797,809.229866 1323.06168,809.263243 L1324.37444,811.10379 C1324.12817,811.140935 1323.85494,811.141473 1323.48741,811.030577 C1323.43945,811.016042 1323.40281,810.991279 1323.35808,810.973514 L1322.23286,809.427433 C1322.20968,809.395134 1322.16442,809.389212 1322.131,809.411283 C1322.09867,809.434432 1322.09112,809.479113 1322.1143,809.511413 L1323.09402,810.857773 C1322.71409,810.638135 1322.44518,810.309755 1322.16657,809.964686 L1322.03777,809.806955 C1321.78503,809.499569 1321.5172,809.258398 1321.23751,809.076443 L1321.24236,806.185078 L1326.49663,806.185078 C1326.49016,807.697244 1326.40771,809.178725 1326.26005,810.616602 Z M1321.24344,805.803402 L1321.24667,803.98708 L1326.44867,803.98708 C1326.47831,804.590009 1326.49555,805.195629 1326.49825,805.803402 L1321.24344,805.803402 Z" id="Shape"></path>
        </g>
    </g>
</svg>