<?xml version="1.0" encoding="UTF-8"?>
<svg width="220px" height="216px" viewBox="0 0 220 216" version="1.1" xmlns="http://www.w3.org/2000/svg" xmlns:xlink="http://www.w3.org/1999/xlink">
    <!-- Generator: Sketch 49.2 (51160) - http://www.bohemiancoding.com/sketch -->
    <title>Group 8</title>
    <desc>Created with Sketch.</desc>
    <defs>
        <linearGradient x1="34.4508456%" y1="-7.75322571%" x2="95.9881533%" y2="96.9104117%" id="linearGradient-1">
            <stop stop-color="#FFFFFF" offset="0%"></stop>
            <stop stop-color="#EEEEEE" offset="100%"></stop>
        </linearGradient>
        <rect id="path-2" x="0" y="0" width="220" height="216" rx="16"></rect>
    </defs>
    <g id="Page-1" stroke="none" stroke-width="1" fill="none" fill-rule="evenodd">
        <g id="Group-8">
            <g id="Rectangle-Copy">
                <use fill="url(#linearGradient-1)" fill-rule="evenodd" xlink:href="#path-2"></use>
                <rect stroke="#F6F6F6" stroke-width="2" x="1" y="1" width="218" height="214" rx="16"></rect>
            </g>
            <text id="Tennis" font-family="HelveticaNeue, Helvetica Neue" font-size="14" font-weight="normal" line-spacing="33" letter-spacing="0.466666728" fill="#333333">
                <tspan x="84.8479998" y="189">TENNIS</tspan>
            </text>
            <g id="Group-6" transform="translate(35.000000, 20.000000)" fill-rule="nonzero">
                <g id="Group" opacity="0.3" transform="translate(39.084507, 0.000000)" fill="#FFFFF4">
                    <path d="M5.62116535,6.22875 C2.06434497,12.4426849 0,19.6259947 0,27.306338 C0,50.7296567 18.9174223,69.7183099 42.2535211,69.7183099 C65.5896199,69.7183099 84.5070423,50.7296567 84.5070423,27.306338 C84.5070423,24.0438116 84.1053444,20.8812148 83.4104766,17.8301673 C70.4652711,6.72229754 53.6732587,0 35.3077368,0 C24.7478294,0 14.7120394,2.23243838 5.62116535,6.22875 Z" id="Shape"></path>
                </g>
                <path d="M150,75.8800781 C150,76.3611328 149.993848,76.8451172 149.984766,77.3232422 C149.936426,79.8462891 149.763867,82.3420898 149.470605,84.7957031 C148.862402,89.8599609 147.743262,94.7668945 146.17002,99.4623047 C143.256738,108.144727 138.782227,116.110254 133.07666,123.023145 C132.359766,123.894434 131.621484,124.747559 130.865332,125.58252 C130.193848,126.32666 129.507129,127.055859 128.805176,127.769824 C128.221289,128.368945 127.625391,128.955762 127.017187,129.533496 C125.731348,130.761621 124.397168,131.941699 123.02373,133.076074 C115.439355,139.335352 106.587305,144.115137 96.909668,146.974219 C90.2449219,148.943555 83.1870117,149.999414 75.880957,149.999414 C55.8779297,149.999414 37.7293945,142.076367 24.3969727,129.200684 C20.7878906,125.712598 17.5327148,121.867383 14.6888672,117.713672 C10.1540039,111.094336 6.66591797,103.700684 4.46337891,95.7714844 C2.70263672,89.4424805 1.76191406,82.771875 1.76191406,75.8803711 C1.76191406,71.6540039 2.11582031,67.5125977 2.79960937,63.4798828 C3.16259766,61.3045898 3.62548828,59.1597656 4.17597656,57.0512695 C5.25908203,52.912793 6.68994141,48.9164063 8.43867187,45.0922852 C8.48115234,45.0046875 8.52041016,44.9138672 8.56259766,44.8259766 C8.62617187,44.6838867 8.69267578,44.5415039 8.75917969,44.4023438 C9.13740234,43.5975586 9.52763672,42.8018555 9.93603516,42.0123047 C11.0220703,39.8976563 12.2080078,37.8433594 13.490625,35.8529297 C13.9019531,35.2054688 14.3285156,34.5703125 14.7612305,33.937793 C15.3298828,33.1119141 15.9108398,32.3009766 16.5099609,31.4994141 C18.3433594,29.0548828 20.3217773,26.7254883 22.4364258,24.5291016 C23.1169922,23.8180664 23.8160156,23.1193359 24.5267578,22.4355469 C26.7260742,20.3208984 29.0554687,18.3424805 31.5,16.509082 C32.3015625,15.9099609 33.1154297,15.3260742 33.9413086,14.7635742 C34.5676758,14.3279297 35.202832,13.9042969 35.8473633,13.4929688 C37.8380859,12.2103516 39.8953125,11.0244141 42.0099609,9.93515625 C42.7995117,9.5296875 43.5981445,9.13652344 44.4029297,8.75830078 C44.5420898,8.69179688 44.68125,8.62529297 44.8233398,8.56171875 C44.9109375,8.52246094 44.9988281,8.47998047 45.0864258,8.44072266 C48.9102539,6.69199219 52.9098633,5.25820313 57.0512695,4.17509766 C63.0624023,2.59892578 69.3732422,1.76103516 75.8806641,1.76103516 C96.0439453,1.76103516 114.322852,9.81123047 127.685449,22.8714844 C131.085937,26.1931641 134.165625,29.8385742 136.876172,33.759375 C139.181543,37.0901367 141.217383,40.6177734 142.959961,44.3115234 C147.476953,53.8895508 150,64.5896484 150,75.8800781 Z" id="Shape" fill="#59A85B"></path>
                <g id="Group" transform="translate(1.757812, 22.851562)" fill="#67BB68">
                    <path d="M135.118652,10.9078125 L105.725098,10.9078125 C104.221582,10.9078125 102.860156,10.2996094 101.876953,9.31347656 C100.89082,8.33027344 100.282617,6.96884766 100.282617,5.46240234 C100.282617,2.45537109 102.718066,0.019921875 105.725098,0.019921875 L125.92793,0.019921875 C129.328125,3.34160156 132.407813,6.98701172 135.118652,10.9078125 Z" id="Shape"></path>
                    <path d="M148.242188,53.0285156 C148.242188,53.5095703 148.236035,53.9935547 148.226953,54.4716797 L112.078125,54.4716797 C110.574609,54.4716797 109.213184,53.8605469 108.227051,52.8773437 C107.243848,51.8912109 106.632715,50.5297852 106.632715,49.0262695 C106.632715,46.0192383 109.071094,43.5808594 112.078125,43.5808594 L128.632324,43.5808594 C130.13584,43.5808594 131.497266,42.9697266 132.483398,41.9865234 C133.466602,41.0003906 134.077734,39.6389648 134.077734,38.1354492 C134.077734,35.128418 131.639355,32.6900391 128.632324,32.6900391 L124.012793,32.6900391 C122.509277,32.6900391 121.147852,32.0789062 120.161719,31.0957031 C119.175586,30.1095703 118.567383,28.7481445 118.567383,27.2446289 C118.567383,24.2375977 121.005762,21.7992187 124.012793,21.7992187 L139.305469,21.7992187 C139.971094,21.7992187 140.612402,21.6782227 141.202441,21.4602539 C145.719141,31.0379883 148.242188,41.7380859 148.242188,53.0285156 Z" id="Shape"></path>
                    <path d="M61.8738281,67.8524414 C61.8738281,70.8626953 59.4354492,73.2978516 56.428418,73.2978516 L4.69921875,73.2978516 C3.99433594,73.2978516 3.32285156,73.1648438 2.70556641,72.9196289 C0.944824219,66.590625 0.0041015625,59.9200195 0.0041015625,53.0285156 C0.0041015625,48.8021484 0.358007812,44.6607422 1.04179688,40.6280273 L47.9575195,40.6280273 C49.4610352,40.6280273 50.8224609,41.2391602 51.8085938,42.2223633 C52.7947266,43.2084961 53.4029297,44.5699219 53.4029297,46.0734375 C53.4029297,49.0804688 50.9645508,51.5188477 47.9575195,51.5188477 L30.4110352,51.5188477 C27.4040039,51.5188477 24.965625,53.9572266 24.965625,56.9642578 C24.965625,59.9712891 27.4040039,62.409668 30.4110352,62.409668 L56.428418,62.409668 C57.9319336,62.409668 59.2933594,63.0178711 60.2794922,64.0040039 C61.265625,64.9875 61.8738281,66.3489258 61.8738281,67.8524414 Z" id="Shape"></path>
                    <path d="M129.107227,102.730664 C128.435742,103.474805 127.749023,104.204004 127.04707,104.917969 C126.463184,105.51709 125.867285,106.103906 125.259082,106.681641 C123.973242,107.909766 122.639062,109.089844 121.265625,110.224219 C113.68125,116.483496 104.829199,121.263281 95.1515625,124.122363 L94.8641602,124.122363 C93.3606445,124.122363 91.9992187,123.51416 91.0130859,122.528027 C90.0298828,121.541895 89.41875,120.180469 89.41875,118.676953 C89.41875,115.666699 86.9803711,113.231543 83.9733398,113.231543 L75.3512695,113.231543 C73.8477539,113.231543 72.4863281,112.62334 71.503125,111.637207 C70.5169922,110.651074 69.9087891,109.289648 69.9087891,107.786133 C69.9087891,104.779102 72.3442383,102.340723 75.3512695,102.340723 L127.083398,102.340723 C127.800293,102.34043 128.484082,102.47959 129.107227,102.730664 Z" id="Shape"></path>
                </g>
                <path d="M149.470605,84.7957031 C148.862402,89.8599609 147.743262,94.7668945 146.17002,99.4623047 L24.3969727,129.200684 C20.7878906,125.712598 17.5327148,121.867383 14.6888672,117.713672 L149.470605,84.7957031 Z" id="Shape" fill="#FCF8F2"></path>
                <g id="Group" transform="translate(2.929688, 2.929688)" fill="#F9EED7">
                    <path d="M75.2167969,92.3012695 C74.6387695,92.8792969 73.7015625,92.8792969 73.1232422,92.3012695 L3.51386719,22.6918945 C2.93583984,22.1138672 2.93583984,21.1766602 3.51386719,20.5983398 C4.09189453,20.0203125 5.02910156,20.0203125 5.60742188,20.5983398 L75.2167969,90.2077148 C75.7945312,90.7860352 75.7951172,91.7232422 75.2167969,92.3012695 Z" id="Shape"></path>
                    <path d="M95.2435547,61.0751953 C94.6655273,61.6532227 93.7283203,61.6532227 93.15,61.0751953 L34.7402344,2.66542969 C34.162207,2.08740234 34.162207,1.15019531 34.7402344,0.571875 C35.3182617,-0.00615234375 36.2554687,-0.00615234375 36.8337891,0.571875 L95.2435547,58.9816406 C95.8212891,59.559668 95.821582,60.496875 95.2435547,61.0751953 Z" id="Shape"></path>
                    <path d="M61.0746094,95.2438477 C60.496582,95.821875 59.559375,95.821875 58.9810547,95.2438477 L0.571582031,36.834375 C-0.0064453125,36.2563477 -0.0064453125,35.3191406 0.571582031,34.7408203 C1.14960938,34.1625 2.08681641,34.162793 2.66513672,34.7408203 L61.0749023,93.1505859 C61.6526367,93.7283203 61.6526367,94.6655273 61.0746094,95.2438477 Z" id="Shape"></path>
                    <path d="M92.3012695,75.2170898 C91.7232422,75.7951172 90.7860352,75.7951172 90.2077148,75.2170898 L20.5983398,5.60771484 C20.0203125,5.0296875 20.0203125,4.09248047 20.5983398,3.51416016 C21.1763672,2.93613281 22.1135742,2.93613281 22.6918945,3.51416016 L92.3012695,73.1235352 C92.8792969,73.7015625 92.8792969,74.6390625 92.3012695,75.2170898 Z" id="Shape"></path>
                    <path d="M86.7418945,86.7424805 C86.1638672,87.3205078 85.2266602,87.3205078 84.6483398,86.7424805 L9.07294922,11.1670898 C8.49492187,10.5890625 8.49492187,9.65185547 9.07294922,9.07353516 C9.65097656,8.49550781 10.5881836,8.49550781 11.1665039,9.07353516 L86.7421875,84.6492187 C87.3199219,85.2269531 87.3199219,86.1641602 86.7418945,86.7424805 Z" id="Shape"></path>
                    <path d="M67.8143555,13.0098633 L13.0098633,67.8146484 C12.4318359,68.3926758 11.4946289,68.3926758 10.9163086,67.8146484 C10.3382812,67.2366211 10.3382812,66.2994141 10.9163086,65.7210938 L65.7208008,10.9166016 C66.2988281,10.3385742 67.2360352,10.3385742 67.8143555,10.9166016 C68.3923828,11.4946289 68.3923828,12.4318359 67.8143555,13.0098633 Z" id="Shape"></path>
                    <path d="M90.3404297,41.7369141 L41.7369141,90.3404297 C41.1588867,90.918457 40.2216797,90.918457 39.6433594,90.3404297 C39.0650391,89.7624023 39.065332,88.8251953 39.6433594,88.246875 L88.246875,39.6433594 C88.8249023,39.065332 89.7621094,39.065332 90.3404297,39.6433594 C90.91875,40.2213867 90.918457,41.1588867 90.3404297,41.7369141 Z" id="Shape"></path>
                    <path d="M56.1717773,7.56855469 L7.56826172,56.1720703 C6.99023438,56.7500977 6.05302734,56.7500977 5.47470703,56.1720703 C4.89638672,55.594043 4.89667969,54.6568359 5.47470703,54.0785156 L54.0782227,5.475 C54.65625,4.89697266 55.593457,4.89697266 56.1717773,5.475 C56.7500977,6.05302734 56.7500977,6.99023437 56.1717773,7.56855469 Z" id="Shape"></path>
                    <path d="M43.1929687,4.4765625 L4.4765625,43.1929687 C3.89853516,43.7709961 2.96132812,43.7709961 2.38300781,43.1929687 C1.8046875,42.6149414 1.80498047,41.6777344 2.38300781,41.0994141 L41.0994141,2.38330078 C41.6774414,1.80527344 42.6146484,1.80527344 43.1929687,2.38330078 C43.7709961,2.96132813 43.7709961,3.89853516 43.1929687,4.4765625 Z" id="Shape"></path>
                    <path d="M93.4324219,54.7160156 L54.7157227,93.4324219 C54.1376953,94.0104492 53.2004883,94.0104492 52.622168,93.4324219 C52.0438477,92.8543945 52.0441406,91.9171875 52.622168,91.3388672 L91.3388672,52.6224609 C91.9168945,52.0444336 92.8541016,52.0444336 93.4324219,52.6224609 C94.0104492,53.2007812 94.0104492,54.1379883 93.4324219,54.7160156 Z" id="Shape"></path>
                    <path d="M84.8988281,30.0943359 L30.094043,84.8991211 C29.5160156,85.4771484 28.5788086,85.4771484 28.0004883,84.8991211 C27.4224609,84.3210937 27.4224609,83.3838867 28.0004883,82.8055664 L82.8049805,28.0010742 C83.3830078,27.4230469 84.3202148,27.4230469 84.8985352,28.0010742 C85.4768555,28.5788086 85.4771484,29.5160156 84.8988281,30.0943359 Z" id="Shape"></path>
                    <path d="M76.2673828,21.6413086 L21.6410156,76.2679687 C21.0629883,76.8459961 20.1257812,76.8459961 19.5474609,76.2679687 C18.9694336,75.6899414 18.9694336,74.7527344 19.5474609,74.1744141 L74.1741211,19.5477539 C74.7521484,18.9697266 75.6893555,18.9697266 76.2676758,19.5477539 C76.8457031,20.1260742 76.8457031,21.0632812 76.2673828,21.6413086 Z" id="Shape"></path>
                </g>
                <path d="M120.264258,117.77168 L117.772266,120.263672 C116.748047,121.287891 115.093359,121.306055 114.046582,120.305566 L111.754688,118.113867 C101.923535,108.727148 89.0765625,102.647168 75.5821289,100.994824 L67.6227539,100.019824 L68.2708008,94.7302734 L76.2298828,95.7052734 C87.6023437,97.0977539 98.55,101.391504 107.868164,108.016699 C100.637695,98.0874023 96.1541016,86.3449219 94.9836914,73.9417969 L94.5808594,69.6955078 C94.5714844,69.5956055 94.5676758,69.4954102 94.5694336,69.3955078 L97.2585938,69.4415039 L99.8859375,69.1921875 L100.28877,73.4396484 C101.751855,88.9385742 108.82207,103.321289 120.19834,113.939941 C120.726563,114.433008 121.031836,115.119434 121.044141,115.841895 C121.056738,116.564355 120.774902,117.261035 120.264258,117.77168 Z" id="Shape" fill="#FF525D"></path>
                <path d="M133.07666,123.022852 C131.721387,124.665527 130.296387,126.250781 128.804883,127.769531 C128.220996,128.368652 127.625098,128.955469 127.016895,129.533203 C125.731055,130.761328 124.396875,131.941406 123.023437,133.075781 L113.366895,123.419238 C112.090137,122.139551 111.754395,120.275977 112.356445,118.690723 C112.571191,118.12207 112.910156,117.592676 113.366895,117.135645 L117.13623,113.366016 C117.568945,112.936523 118.067871,112.60957 118.600488,112.394824 C120.203906,111.741504 122.11582,112.064941 123.419824,113.366016 L129.125391,119.074805 C129.158789,119.10498 129.188965,119.135449 129.22207,119.168555 L133.07666,123.022852 Z" id="Shape" fill="#279FC9"></path>
                <path d="M133.07666,123.022852 C131.721387,124.665527 130.296387,126.250781 128.804883,127.769531 C128.220996,128.368652 127.625098,128.955469 127.016895,129.533203 L117.759668,120.275977 L117.136523,119.652832 C115.400098,117.916406 115.400098,115.102734 117.136523,113.366309 C117.569238,112.936816 118.068164,112.609863 118.600781,112.395117 C120.204199,111.741797 122.116113,112.065234 123.420117,113.366309 L129.125684,119.075098 C129.159082,119.105273 129.189258,119.135742 129.222363,119.168848 L133.07666,123.022852 Z" id="Shape" fill="#34ABE0"></path>
                <path d="M100.878809,57.2991211 C98.8368164,44.1301758 91.8333984,31.0004883 81.1631836,20.3302734 C73.9901367,13.1572266 65.7070313,7.64238281 57.0518555,4.17539062 C52.8254883,2.48408203 48.5112305,1.28320313 44.1943359,0.611425781 C30.5654297,-1.5 18.4916016,1.90341797 10.1961914,10.1956055 C1.90107422,18.4910156 -1.50234375,30.5648437 0.612304688,44.193457 C1.28378906,48.5135742 2.48496094,52.8275391 4.17597656,57.0509766 C7.64003906,65.709375 13.1548828,73.9895508 20.3279297,81.1623047 C31.0010742,91.8325195 44.127832,98.8359375 57.2967773,100.87793 C62.9358398,101.752148 68.3118164,101.682715 73.2612305,100.708594 C76.9731445,99.9855469 80.4462891,98.7512695 83.6135742,97.0297852 C86.4301758,95.4990234 89.0077148,93.580957 91.2946289,91.29375 C93.4365234,89.1518555 95.2517578,86.7588867 96.7250977,84.1541016 C98.3859375,81.2317383 99.6202148,78.0430664 100.415918,74.6396484 C101.662207,69.3152344 101.834766,63.4675781 100.878809,57.2991211 Z M86.6569336,84.562793 C86.3302734,84.9319336 85.9913086,85.2919922 85.640332,85.6426758 C85.2893555,85.9936523 84.9325195,86.3293945 84.5633789,86.6560547 C82.2219727,88.7373047 79.5111328,90.3588867 76.5070312,91.4964844 C75.478418,91.8867187 74.4134766,92.2224609 73.3183594,92.4949219 C69.618457,93.4327148 65.5526367,93.7171875 61.2383789,93.3146484 C61.0719727,93.3026367 60.9055664,93.2844727 60.7391602,93.2663086 C60.0070312,93.1907227 59.26875,93.09375 58.5216797,92.9789062 C58.0435547,92.9033203 57.5657227,92.821582 57.0875977,92.7307617 C56.8303711,92.6853516 56.5763672,92.6370117 56.3191406,92.5825195 C53.484375,92.0047852 50.6557617,91.1636719 47.8605469,90.074707 C46.8744141,89.690625 45.8941406,89.2760742 44.9170898,88.8313477 C42.0946289,87.5425781 39.3202148,86.0027344 36.6307617,84.2238281 C35.7958008,83.6791992 34.9728516,83.1076172 34.1560547,82.5114258 C31.7267578,80.7445312 29.3762695,78.7813477 27.1344727,76.6333008 C26.747168,76.2673828 26.3630859,75.8920898 25.9819336,75.5109375 C25.6643555,75.1933594 25.3464844,74.8696289 25.0350586,74.5458984 C22.884082,72.3131836 20.9115234,69.9685547 19.1358398,67.5454102 C18.5367187,66.7347656 17.9651367,65.9147461 17.4114258,65.0859375 C17.4114258,65.0830078 17.4114258,65.0830078 17.4114258,65.0830078 C15.6266602,62.4026367 14.0774414,59.6405273 12.7766602,56.8239258 C12.3257812,55.8527344 11.9083008,54.8756836 11.5180664,53.8954102 C10.3804687,51.0152344 9.50332031,48.0960937 8.90712891,45.1705078 C8.87373047,45.0193359 8.84355469,44.8649414 8.81630859,44.7137695 C8.79521484,44.6109375 8.77382812,44.5048828 8.75888672,44.4020508 C8.66806641,43.9239258 8.58339844,43.4460937 8.51074219,42.9679687 C8.41083984,42.3357422 8.32910156,41.7064453 8.25966797,41.0833008 C8.22626953,40.8049805 8.19902344,40.5266602 8.175,40.2512695 C7.77568359,35.9373047 8.05693359,31.8711914 8.99472656,28.1712891 C9.27011719,27.0732422 9.60292969,26.0112305 9.99316406,24.9826172 C11.1336914,21.9785156 12.7523437,19.2679687 14.8335937,16.9262695 C15.1602539,16.5571289 15.4959961,16.200293 15.8469727,15.8493164 C16.1979492,15.4983398 16.5547852,15.1625977 16.9239258,14.8327148 C19.265625,12.7543945 21.9761719,11.1328125 24.9832031,9.99228516 C26.0118164,9.60205078 27.0767578,9.26923828 28.171875,8.99384766 C31.8717773,8.05605469 35.9317383,7.77480469 40.2457031,8.17089844 C40.5240234,8.19521484 40.8023438,8.22539062 41.0835937,8.25849609 C41.7067383,8.32822266 42.3360352,8.40966797 42.9682617,8.50957031 C43.4463867,8.58515625 43.9242188,8.66689453 44.4023438,8.75771484 C44.5051758,8.77294922 44.6080078,8.79404297 44.7108398,8.81513672 C44.8620117,8.84238281 45.0164063,8.87255859 45.1675781,8.90595703 C48.0928711,9.49892578 51.0123047,10.3763672 53.8924805,11.5198242 C54.8727539,11.9071289 55.8527344,12.3246094 56.8239258,12.7751953 C59.6373047,14.0759766 62.4026367,15.628125 65.0830078,17.4128906 C65.9118164,17.9633789 66.7347656,18.5381836 67.5457031,19.1373047 C69.9688477,20.9132812 72.3105469,22.8855469 74.5432617,25.0365234 C74.8669922,25.3450195 75.1907227,25.6628906 75.5083008,25.9804687 C75.8894531,26.3616211 76.2647461,26.7459961 76.6335938,27.1330078 C78.7754883,29.3748047 80.7389648,31.7223633 82.5087891,34.1545898 C83.1017578,34.9713867 83.6736328,35.7972656 84.2211914,36.6292969 C86.0000977,39.31875 87.5399414,42.0928711 88.8287109,44.9185547 C89.2763672,45.8926758 89.690918,46.8758789 90.0720703,47.8620117 C91.1642578,50.6542969 92.0053711,53.4858398 92.5831055,56.3206055 C92.6375977,56.577832 92.6859375,56.8318359 92.7313477,57.0890625 C92.822168,57.5671875 92.9068359,58.0450195 92.9794922,58.5231445 C93.0943359,59.2705078 93.1913086,60.0084961 93.2668945,60.740625 C93.2850586,60.9070312 93.3032227,61.0734375 93.3152344,61.2398437 C93.7145508,65.5538086 93.4333008,69.6166992 92.4955078,73.3166016 C92.2233398,74.4146484 91.8873047,75.4766602 91.4970703,76.5052734 C90.3597656,79.5105469 88.7381836,82.2210937 86.6569336,84.562793 Z" id="Shape" fill="#FF525D"></path>
                <path d="M133.07666,123.022852 C131.721387,124.665527 130.296387,126.250781 128.804883,127.769531 L124.711816,123.676465 C123.683203,122.647852 123.683203,120.97793 124.711816,119.946387 L125.489355,119.168848 C126.487793,118.17041 128.087988,118.137305 129.125684,119.075098 C129.159082,119.105273 129.189258,119.135742 129.222363,119.168848 L133.07666,123.022852 Z" id="Shape" fill="#78CAEF"></path>
                <path d="M100.391602,28.1583984 C100.304004,28.6368164 100.199414,29.1084961 100.078418,29.5716797 C98.174707,36.8595703 92.2306641,42.1801758 85.1411133,43.5375 C84.2030273,43.7191406 83.2432617,43.8292969 82.2703125,43.865625 C80.8948242,43.9186523 79.4935547,43.8216797 78.0829102,43.5629883 C75.1168945,43.0195313 72.4353516,41.8212891 70.1625,40.1428711 C69.5223633,39.6720703 68.9138672,39.1608398 68.3422852,38.615918 C63.8071289,34.3075195 61.4677734,27.8671875 62.6780273,21.2542969 C63.1125,18.8830078 63.965918,16.6948242 65.1474609,14.7503906 C65.8268555,13.6321289 66.6137695,12.5956055 67.4944336,11.6513672 C70.6675781,8.24326172 75.0333984,6.04453125 79.7806641,5.61210938 C81.4798828,5.45625 83.2265625,5.52744141 84.9861328,5.84970703 C90.3594727,6.83320313 94.7964844,9.96884766 97.5703125,14.2045898 C98.3375977,15.3744141 98.9777344,16.6271484 99.4725586,17.94375 C100.667285,21.0958008 101.042285,24.6023438 100.391602,28.1583984 Z" id="Shape" fill="#EDBB4C"></path>
                <path d="M100.391602,28.1583984 C100.304004,28.6368164 100.199414,29.1084961 100.078418,29.5716797 C97.6634766,33.8768555 93.4426758,36.9064453 88.6139648,37.8310547 C87.7939453,37.9883789 86.9554687,38.0850586 86.1049805,38.1169922 C84.9032227,38.1638672 83.6791992,38.0791992 82.4458008,37.8521484 C79.8533203,37.378418 77.5110352,36.3313477 75.5241211,34.8635742 C74.9657227,34.453418 74.4331055,34.0054688 73.9338867,33.5302734 C69.9708984,29.765332 67.9262695,24.1359375 68.9838867,18.3568359 C69.3638672,16.2852539 70.1097656,14.3724609 71.1418945,12.6729492 C71.7366211,11.6970703 72.4236328,10.790332 73.1938477,9.965625 C75.009668,8.01650391 77.2708008,6.51826172 79.780957,5.61210938 C81.4801758,5.45625 83.2268555,5.52744141 84.9864258,5.84970703 C90.3597656,6.83320313 94.7967773,9.96884766 97.5706055,14.2045898 C98.3378906,15.3744141 98.9780273,16.6271484 99.4728516,17.94375 C100.667285,21.0958008 101.042285,24.6023438 100.391602,28.1583984 Z" id="Shape" fill="#FFD15C"></path>
                <g id="Group" transform="translate(65.039062, 11.425781)" fill="#F9EED7">
                    <path d="M6.86835937,20.7351563 C6.73066406,23.3926758 6.19482422,25.9725586 5.27636719,28.4056641 C5.25966797,28.4481445 5.24150391,28.490332 5.22041016,28.5313477 L5.12373047,28.7173828 C4.48359375,28.246582 3.87509766,27.7353516 3.30351562,27.1904297 C4.04794922,25.0989258 4.48388672,22.8896484 4.60195312,20.6182617 C4.74404297,17.8957031 3.69873047,15.421875 2.5921875,12.8021484 C1.44052734,10.069043 0.152929687,7.02451172 0.108984375,3.32460938 C0.788378906,2.20634766 1.57529297,1.16982422 2.45595703,0.225585938 L2.45595703,1.55742188 C2.45595703,1.59667969 2.45449219,1.63447266 2.4515625,1.67226563 C2.04433594,5.66572266 3.38671875,8.8453125 4.68369141,11.9185547 C5.84121094,14.6595703 7.03623047,17.49375 6.86835937,20.7351563 Z" id="Shape"></path>
                    <path d="M34.434082,6.51826172 C34.1405273,7.27792969 33.65625,8.03291016 33.0041016,8.72900391 C31.7208984,10.097168 29.9036133,11.1515625 27.7517578,11.7796875 C20.4017578,13.9239258 16.5808594,18.1974609 16.3959961,24.4833984 C16.3157227,27.1951172 17.9197266,30.1083984 19.4692383,31.471875 C19.490332,31.4900391 19.5117187,31.509668 19.5313477,31.5292969 L20.1020508,32.1120117 C19.1639648,32.2936523 18.2041992,32.4038086 17.23125,32.4401367 C15.5258789,30.5378906 14.0384766,27.4297852 14.1260742,24.4168945 C14.2757813,19.3429687 16.650293,12.6527344 27.1160156,9.60058594 C30.9641602,8.47939453 32.5954102,6.04599609 32.4878906,4.75341797 C32.4849609,4.72324219 32.4832031,4.69130859 32.4832031,4.65966797 L32.4832031,4.62802734 L32.531543,2.77880859 C33.2991211,3.94863281 33.9392578,5.20166016 34.434082,6.51826172 Z" id="Shape"></path>
                </g>
                <g id="Group" transform="translate(80.566406, 8.496094)" fill="#FFDC8D">
                    <circle id="Oval" cx="9.44443359" cy="6.04013672" r="3.85869141"></circle>
                    <circle id="Oval" cx="2.34404297" cy="2.37158203" r="2.08066406"></circle>
                </g>
            </g>
        </g>
    </g>
</svg>