<?xml version="1.0" encoding="UTF-8"?>
<svg width="18px" height="18px" viewBox="0 0 18 18" version="1.1" xmlns="http://www.w3.org/2000/svg" xmlns:xlink="http://www.w3.org/1999/xlink">
    <!-- Generator: Sketch 49.3 (51167) - http://www.bohemiancoding.com/sketch -->
    <title>Combined Shape</title>
    <desc>Created with Sketch.</desc>
    <defs></defs>
    <g id="Page-1" stroke="none" stroke-width="1" fill="none" fill-rule="evenodd">
        <g id="BookChauffeur" transform="translate(-31.000000, -547.000000)" fill="#27D9A1" fill-rule="nonzero">
            <g id="Group" transform="translate(-325.000000, -205.000000)">
                <g id="additional-info" transform="translate(320.000000, 731.000000)">
                    <g id="Group-5" transform="translate(36.000000, 20.000000)">
                        <path d="M9,19 C4.02943725,19 0,14.9705627 0,10 C0,5.02943725 4.02943725,1 9,1 C13.9705627,1 18,5.02943725 18,10 C18,14.9705627 13.9705627,19 9,19 Z M9,17.9411765 C13.3857907,17.9411765 16.9411765,14.3857907 16.9411765,10 C16.9411765,5.61420934 13.3857907,2.05882353 9,2.05882353 C4.61420934,2.05882353 1.05882353,5.61420934 1.05882353,10 C1.05882353,14.3857907 4.61420934,17.9411765 9,17.9411765 Z M9,4.70588235 L9,10.3101222 L11.4919977,12.8021199 L10.7432964,13.5508212 L7.94117647,10.7487013 L7.94117647,4.70588235 L9,4.70588235 Z" id="Combined-Shape"></path>
                    </g>
                </g>
            </g>
        </g>
    </g>
</svg>