<?xml version="1.0" encoding="UTF-8"?>
<svg width="30px" height="30px" viewBox="0 0 30 30" version="1.1" xmlns="http://www.w3.org/2000/svg" xmlns:xlink="http://www.w3.org/1999/xlink">
    <!-- Generator: Sketch 49.1 (51147) - http://www.bohemiancoding.com/sketch -->
    <title>down-arrow</title>
    <desc>Created with Sketch.</desc>
    <defs></defs>
    <g id="Page-1" stroke="none" stroke-width="1" fill="none" fill-rule="evenodd">
        <g id="Anonymous_Passenger_Flight-Copy" transform="translate(-327.000000, -351.000000)" fill-rule="nonzero">
            <g id="down-arrow" transform="translate(342.000000, 366.000000) scale(1, -1) translate(-342.000000, -366.000000) translate(327.000000, 351.000000)">
                <g id="Group">
                    <path d="M0.555555556,15 C0.555555556,7.02277778 7.02277778,0.555555556 15,0.555555556 C22.9772222,0.555555556 29.4444444,7.02277778 29.4444444,15 C29.4444444,22.9772222 22.9772222,29.4444444 15,29.4444444 C7.02277778,29.4444444 0.555555556,22.9772222 0.555555556,15 Z" id="Shape" fill="#989898"></path>
                    <path d="M15,30 C6.72888889,30 0,23.2711111 0,15 C0,6.72888889 6.72888889,0 15,0 C23.2711111,0 30,6.72888889 30,15 C30,23.2711111 23.2711111,30 15,30 Z M15,1.11111111 C7.34166667,1.11111111 1.11111111,7.34166667 1.11111111,15 C1.11111111,22.6583333 7.34166667,28.8888889 15,28.8888889 C22.6583333,28.8888889 28.8888889,22.6583333 28.8888889,15 C28.8888889,7.34166667 22.6583333,1.11111111 15,1.11111111 Z" id="Shape"></path>
                </g>
                <path d="M15,20 C14.7641584,20 14.5288552,19.9025191 14.3490125,19.708141 L8.15790081,12.9965524 C7.9473664,12.7683187 7.9473664,12.399409 8.15790081,12.1711753 C8.36843522,11.9429416 8.70873637,11.9429416 8.91927078,12.1711753 L15,18.7631017 L21.0807292,12.1711753 C21.2912636,11.9429416 21.6315648,11.9429416 21.8420992,12.1711753 C22.0526336,12.399409 22.0526336,12.7683187 21.8420992,12.9965524 L15.6509875,19.708141 C15.4716832,19.9025191 15.2358416,20 15,20 Z" id="Shape" fill="#FFFFFF"></path>
            </g>
        </g>
    </g>
</svg>