<?xml version="1.0" encoding="UTF-8"?>
<svg width="52px" height="52px" viewBox="0 0 52 52" version="1.1" xmlns="http://www.w3.org/2000/svg" xmlns:xlink="http://www.w3.org/1999/xlink">
    <!-- Generator: Sketch 49.2 (51160) - http://www.bohemiancoding.com/sketch -->
    <title>event-calendar-symbol</title>
    <desc>Created with Sketch.</desc>
    <defs>
        <filter x="-9.2%" y="-8.8%" width="118.5%" height="117.6%" filterUnits="objectBoundingBox" id="filter-1">
            <feOffset dx="0" dy="0" in="SourceAlpha" result="shadowOffsetOuter1"></feOffset>
            <feGaussianBlur stdDeviation="4" in="shadowOffsetOuter1" result="shadowBlurOuter1"></feGaussianBlur>
            <feColorMatrix values="0 0 0 0 0   0 0 0 0 0   0 0 0 0 0  0 0 0 0.3 0" type="matrix" in="shadowBlurOuter1" result="shadowMatrixOuter1"></feColorMatrix>
            <feMerge>
                <feMergeNode in="shadowMatrixOuter1"></feMergeNode>
                <feMergeNode in="SourceGraphic"></feMergeNode>
            </feMerge>
        </filter>
    </defs>
    <g id="Page-1" stroke="none" stroke-width="1" fill="none" fill-rule="evenodd">
        <g id="ProfileHome1" transform="translate(-201.000000, -374.000000)" fill="#FFFFFF" fill-rule="nonzero">
            <g id="Group-5" filter="url(#filter-1)" transform="translate(162.000000, 342.000000)">
                <g id="event-calendar-symbol" transform="translate(47.000000, 40.000000)">
                    <polygon id="Shape" points="13.7451176 3.42858824 13.7365294 5.14288235 22.1485294 5.14288235 22.1588235 3.42858824"></polygon>
                    <path d="M27.4285882,5.14458824 L27.4285882,1.71258824 C27.4285882,0.766294118 26.6588235,0 25.7142941,0 C24.768,0 24,0.766294118 24,1.71258824 L24,5.14458824 C24,6.09088235 24.7697059,6.85717647 25.7142941,6.85717647 C26.6605294,6.85711765 27.4285882,6.09082353 27.4285882,5.14458824 Z" id="Shape"></path>
                    <path d="M10.7142941,6.85711765 C11.424,6.85711765 12,6.28458824 12,5.568 L12,1.28917647 C12,0.577705882 11.4257059,0 10.7142941,0 L9.85711765,0 C9.14741176,0 8.57141176,0.572588235 8.57141176,1.28917647 L8.57141176,5.56629412 C8.57141176,6.27947059 9.14570588,6.85711765 9.85711765,6.85711765 L10.7142941,6.85711765 Z" id="Shape"></path>
                    <path d="M6.80570588,5.14288235 L6.81429412,3.42858824 L1.07829412,3.42858824 C0.481705882,3.42858824 0,3.92741176 0,4.54111765 L0,34.8891176 C0,35.5028824 0.481705882,36 1.07658824,36 L34.9217059,36 C35.5182941,36 36,35.5011765 36,34.8891176 L36,4.54111765 C36,3.92570588 35.5165294,3.42852941 34.9217059,3.42852941 L29.1548824,3.42852941 L29.1462941,5.14282353 L34.2857059,5.14282353 L34.2857059,13.7142353 L1.71429412,13.7142353 L1.71429412,5.14288235 L6.80570588,5.14288235 Z M6.85711765,34.2857059 L2.45141176,34.2857059 C2.04341176,34.2857059 1.71429412,33.9994118 1.71429412,33.6445882 L1.71429412,29.1428824 L6.85711765,29.1428824 L6.85711765,34.2857059 Z M6.85711765,27.4285882 L1.71429412,27.4285882 L1.71429412,22.2857059 L6.85711765,22.2857059 L6.85711765,27.4285882 Z M29.1428824,15.4285882 L34.2857647,15.4285882 L34.2857647,20.5714118 L29.1428824,20.5714118 L29.1428824,15.4285882 Z M29.1428824,22.2857059 L34.2857647,22.2857059 L34.2857647,27.4285882 L29.1428824,27.4285882 L29.1428824,22.2857059 Z M29.1428824,29.1428824 L34.2857647,29.1428824 L34.2857647,33.6445882 C34.2857647,33.9977059 33.9548824,34.2857059 33.5486471,34.2857059 L29.1429412,34.2857059 L29.1429412,29.1428824 L29.1428824,29.1428824 Z M22.2857059,15.4285882 L27.4285882,15.4285882 L27.4285882,20.5714118 L22.2857059,20.5714118 L22.2857059,15.4285882 Z M22.2857059,22.2857059 L27.4285882,22.2857059 L27.4285882,27.4285882 L22.2857059,27.4285882 L22.2857059,22.2857059 Z M22.2857059,29.1428824 L27.4285882,29.1428824 L27.4285882,34.2857647 L22.2857059,34.2857647 L22.2857059,29.1428824 Z M15.4285882,15.4285882 L20.5714118,15.4285882 L20.5714118,20.5714118 L15.4285882,20.5714118 L15.4285882,15.4285882 Z M15.4285882,29.1428824 L20.5714118,29.1428824 L20.5714118,34.2857647 L15.4285882,34.2857647 L15.4285882,29.1428824 Z M8.57141176,15.4285882 L13.7142941,15.4285882 L13.7142941,20.5714118 L8.57141176,20.5714118 L8.57141176,15.4285882 Z M8.57141176,22.2857059 L13.7142941,22.2857059 L13.7142941,27.4285882 L8.57141176,27.4285882 L8.57141176,22.2857059 Z M8.57141176,29.1428824 L13.7142941,29.1428824 L13.7142941,34.2857647 L8.57141176,34.2857647 L8.57141176,29.1428824 Z M6.85711765,15.4285882 L6.85711765,20.5714118 L1.71429412,20.5714118 L1.71429412,15.4285882 L6.85711765,15.4285882 Z" id="Shape"></path>
                </g>
            </g>
        </g>
    </g>
</svg>