<?xml version="1.0" encoding="UTF-8"?>
<svg width="40px" height="40px" viewBox="0 0 40 40" version="1.1" xmlns="http://www.w3.org/2000/svg" xmlns:xlink="http://www.w3.org/1999/xlink">
    <!-- Generator: Sketch 49.1 (51147) - http://www.bohemiancoding.com/sketch -->
    <title>user (2)</title>
    <desc>Created with Sketch.</desc>
    <defs></defs>
    <g id="Page-1" stroke="none" stroke-width="1" fill="none" fill-rule="evenodd">
        <g id="Anonymous_Passenger_Flight-Copy" transform="translate(-19.000000, -236.000000)" fill="#B89A9A" fill-rule="nonzero">
            <g id="user-(2)" transform="translate(19.000000, 236.000000)">
                <path d="M40,20 C40,8.97236364 31.0276364,0 20,0 C8.97236364,0 0,8.97236364 0,20 C0,25.8247273 2.50472727,31.0749091 6.49163636,34.7330909 L6.47272727,34.7498182 L7.12145455,35.2967273 C7.16363636,35.3323636 7.20945455,35.3614545 7.25163636,35.3963636 C7.59636364,35.6821818 7.95345455,35.9534545 8.31709091,36.216 C8.43490909,36.3010909 8.55272727,36.3861818 8.67272727,36.4690909 C9.06109091,36.7367273 9.45963636,36.9905455 9.86690909,37.2312727 C9.95563636,37.2836364 10.0450909,37.3345455 10.1345455,37.3854545 C10.5803636,37.6392727 11.0356364,37.8785455 11.5018182,38.0981818 C11.536,38.1141818 11.5709091,38.1287273 11.6050909,38.1447273 C13.1243636,38.8509091 14.7461818,39.3694545 16.4421818,39.6756364 C16.4865455,39.6836364 16.5309091,39.6916364 16.576,39.6996364 C17.1025455,39.7905455 17.6349091,39.8632727 18.1738182,39.912 C18.2392727,39.9178182 18.3047273,39.9214545 18.3709091,39.9272727 C18.9076364,39.9716364 19.4501818,40 20,40 C20.5447273,40 21.0821818,39.9716364 21.616,39.9287273 C21.6836364,39.9229091 21.7512727,39.9192727 21.8189091,39.9134545 C22.3534545,39.8647273 22.8814545,39.7941818 23.4029091,39.7047273 C23.448,39.6967273 23.4938182,39.6887273 23.5389091,39.68 C25.2094545,39.3803636 26.808,38.8734545 28.3076364,38.1854545 C28.3629091,38.16 28.4189091,38.136 28.4741818,38.1098182 C28.9229091,37.8989091 29.3614545,37.6712727 29.7912727,37.4290909 C29.8981818,37.3687273 30.0043636,37.3076364 30.1105455,37.2450909 C30.5018182,37.0145455 30.8865455,36.7738182 31.2603636,36.5178182 C31.3949091,36.4261818 31.5265455,36.3294545 31.6596364,36.2334545 C31.9789091,36.0036364 32.2923636,35.7665455 32.5970909,35.5185455 C32.6647273,35.464 32.7374545,35.4167273 32.8036364,35.3607273 L33.4690909,34.8050909 L33.4494545,34.7883636 C37.4712727,31.1287273 40,25.8545455 40,20 Z M1.45454545,20 C1.45454545,9.77381818 9.77381818,1.45454545 20,1.45454545 C30.2261818,1.45454545 38.5454545,9.77381818 38.5454545,20 C38.5454545,25.5105455 36.1272727,30.4647273 32.2989091,33.864 C32.0850909,33.7163636 31.8698182,33.584 31.6494545,33.4734545 L25.4916364,30.3949091 C24.9389091,30.1185455 24.5956364,29.5629091 24.5956364,28.9454545 L24.5956364,26.7949091 C24.7381818,26.6189091 24.8887273,26.4196364 25.0443636,26.2007273 C25.8414545,25.0749091 26.4807273,23.8225455 26.9469091,22.4749091 C27.8683636,22.0370909 28.4632727,21.1192727 28.4632727,20.0829091 L28.4632727,17.5047273 C28.4632727,16.8741818 28.232,16.2625455 27.8181818,15.7818182 L27.8181818,12.3876364 C27.856,12.0094545 27.9898182,9.88 26.4487273,8.12290909 C25.1083636,6.59272727 22.9389091,5.81818182 20,5.81818182 C17.0610909,5.81818182 14.8916364,6.59272727 13.5512727,8.12218182 C12.0101818,9.87927273 12.144,12.0101818 12.1818182,12.3869091 L12.1818182,15.7810909 C11.7687273,16.2618182 11.5367273,16.8734545 11.5367273,17.504 L11.5367273,20.0821818 C11.5367273,20.8829091 11.896,21.6298182 12.5112727,22.1338182 C13.1003636,24.4414545 14.3127273,26.1883636 14.7607273,26.7803636 L14.7607273,28.8850909 C14.7607273,29.4785455 14.4370909,30.024 13.9156364,30.3090909 L8.16509091,33.4458182 C7.98181818,33.5454545 7.8,33.6618182 7.61818182,33.792 C3.83709091,30.3941818 1.45454545,25.4705455 1.45454545,20 Z" id="Shape"></path>
            </g>
        </g>
    </g>
</svg>