<?xml version="1.0" encoding="UTF-8"?>
<svg width="122px" height="122px" viewBox="0 0 122 122" version="1.1" xmlns="http://www.w3.org/2000/svg" xmlns:xlink="http://www.w3.org/1999/xlink">
    <!-- Generator: Sketch 47 (45396) - http://www.bohemiancoding.com/sketch -->
    <title>Group 7</title>
    <desc>Created with Sketch.</desc>
    <defs></defs>
    <g id="DESIGN" stroke="none" stroke-width="1" fill="none" fill-rule="evenodd">
        <g id="Login" transform="translate(-740.000000, -436.000000)">
            <g id="Group-4" transform="translate(580.000000, 279.000000)">
                <g id="Group-7" transform="translate(161.000000, 158.000000)">
                    <g id="Group-2" transform="translate(42.000000, 26.000000)" fill-rule="nonzero" fill="#F3A536">
                        <path d="M34.875,33 C34.254,33 33.75,33.5215 33.75,34.1666667 L33.75,41.1666667 C33.75,50.1733333 26.685,57.5 18,57.5 C9.315,57.5 2.25,50.1733333 2.25,41.1666667 L2.25,34.1666667 C2.25,33.5215 1.746,33 1.125,33 C0.504,33 0,33.5215 0,34.1666667 L0,41.1666667 C0,51.0658333 7.4745,59.1671667 16.875,59.7738333 L16.875,65.6666667 L11.25,65.6666667 C10.629,65.6666667 10.125,66.1881667 10.125,66.8333333 C10.125,67.4785 10.629,68 11.25,68 L24.75,68 C25.371,68 25.875,67.4785 25.875,66.8333333 C25.875,66.1881667 25.371,65.6666667 24.75,65.6666667 L19.125,65.6666667 L19.125,59.7738333 C28.5255,59.1671667 36,51.0646667 36,41.1666667 L36,34.1666667 C36,33.5215 35.496,33 34.875,33 Z" id="Shape"></path>
                        <path d="M17,54 C23.6163636,54 29,48.2067391 29,41.0869565 L29,12.9130435 C29,5.79326087 23.6163636,0 17,0 C10.3836364,0 5,5.79326087 5,12.9130435 L5,41.0869565 C5,48.2067391 10.3836364,54 17,54 Z M9.87527273,5.66530435 C10.0454545,5.78386957 10.2363636,5.86956522 10.4545455,5.86956522 C11.0567273,5.86956522 11.5454545,5.34365217 11.5454545,4.69565217 C11.5454545,4.52191304 11.5061818,4.35991304 11.4429091,4.212 C13.0247273,3.03926087 14.9381818,2.34782609 17,2.34782609 C19.0618182,2.34782609 20.9752727,3.03926087 22.5570909,4.212 C22.4938182,4.35991304 22.4545455,4.52191304 22.4545455,4.69565217 C22.4545455,5.34365217 22.9432727,5.86956522 23.5454545,5.86956522 C23.7636364,5.86956522 23.9545455,5.78386957 24.1247273,5.66530435 C24.7683636,6.39665217 25.3138182,7.22543478 25.7436364,8.13052174 C25.7414545,8.16104348 25.7272727,8.18686957 25.7272727,8.2173913 C25.7272727,8.59186957 25.9007273,8.91117391 26.1549091,9.126 C26.5770909,10.3034348 26.8181818,11.5771304 26.8181818,12.9130435 L26.8181818,14.0869565 C26.216,14.0869565 25.7272727,14.6128696 25.7272727,15.2608696 C25.7272727,15.9088696 26.216,16.4347826 26.8181818,16.4347826 L26.8181818,21.1304348 C26.216,21.1304348 25.7272727,21.6563478 25.7272727,22.3043478 C25.7272727,22.9523478 26.216,23.4782609 26.8181818,23.4782609 L26.8181818,28.173913 C26.216,28.173913 25.7272727,28.6998261 25.7272727,29.3478261 C25.7272727,29.9958261 26.216,30.5217391 26.8181818,30.5217391 L26.8181818,35.2173913 C26.216,35.2173913 25.7272727,35.7433043 25.7272727,36.3913043 C25.7272727,37.0393043 26.216,37.5652174 26.8181818,37.5652174 L26.8181818,41.0869565 C26.8181818,41.4896087 26.7930909,41.8840435 26.7516364,42.2749565 C26.1821818,42.3136957 25.7272727,42.8114348 25.7272727,43.4347826 C25.7272727,43.8773478 25.964,44.2483043 26.3,44.4490435 C25.4643636,47.1161739 23.6676364,49.3055217 21.3516364,50.544 C21.3527273,50.5205217 21.3636364,50.5017391 21.3636364,50.4782609 C21.3636364,49.8302609 20.8749091,49.3043478 20.2727273,49.3043478 C19.6705455,49.3043478 19.1818182,49.8302609 19.1818182,50.4782609 C19.1818182,50.7963913 19.3018182,51.0828261 19.4927273,51.2941304 C18.6952727,51.5195217 17.8629091,51.6521739 17,51.6521739 C16.1370909,51.6521739 15.3047273,51.5195217 14.5072727,51.2941304 C14.6981818,51.0828261 14.8181818,50.7963913 14.8181818,50.4782609 C14.8181818,49.8302609 14.3294545,49.3043478 13.7272727,49.3043478 C13.1250909,49.3043478 12.6363636,49.8302609 12.6363636,50.4782609 C12.6363636,50.5017391 12.6472727,50.5205217 12.6483636,50.544 C10.3323636,49.3043478 8.53454545,47.1161739 7.7,44.4490435 C8.036,44.2483043 8.27272727,43.8773478 8.27272727,43.4347826 C8.27272727,42.8114348 7.81781818,42.3136957 7.24836364,42.2749565 C7.20690909,41.8840435 7.18181818,41.4896087 7.18181818,41.0869565 L7.18181818,37.5652174 C7.784,37.5652174 8.27272727,37.0393043 8.27272727,36.3913043 C8.27272727,35.7433043 7.784,35.2173913 7.18181818,35.2173913 L7.18181818,30.5217391 C7.784,30.5217391 8.27272727,29.9958261 8.27272727,29.3478261 C8.27272727,28.6998261 7.784,28.173913 7.18181818,28.173913 L7.18181818,23.4782609 C7.784,23.4782609 8.27272727,22.9523478 8.27272727,22.3043478 C8.27272727,21.6563478 7.784,21.1304348 7.18181818,21.1304348 L7.18181818,16.4347826 C7.784,16.4347826 8.27272727,15.9088696 8.27272727,15.2608696 C8.27272727,14.6128696 7.784,14.0869565 7.18181818,14.0869565 L7.18181818,12.9130435 C7.18181818,11.5771304 7.42290909,10.3034348 7.84509091,9.126 C8.09927273,8.91117391 8.27272727,8.59186957 8.27272727,8.2173913 C8.27272727,8.18686957 8.25854545,8.16104348 8.25636364,8.13052174 C8.68618182,7.22543478 9.23163636,6.39665217 9.87527273,5.66530435 Z" id="Shape"></path>
                        <path d="M18.5,5.14285714 C17.9082663,5.14285714 17.4285714,4.66316223 17.4285714,4.07142857 C17.4285714,3.47969491 17.9082663,3 18.5,3 C19.0917337,3 19.5714286,3.47969491 19.5714286,4.07142857 C19.5714286,4.66316223 19.0917337,5.14285714 18.5,5.14285714 Z M15.2857143,9.42857143 C14.6939806,9.42857143 14.2142857,8.94887652 14.2142857,8.35714286 C14.2142857,7.7654092 14.6939806,7.28571429 15.2857143,7.28571429 C15.8774479,7.28571429 16.3571429,7.7654092 16.3571429,8.35714286 C16.3571429,8.94887652 15.8774479,9.42857143 15.2857143,9.42857143 Z M15.2857143,15.8571429 C14.6939806,15.8571429 14.2142857,15.3774479 14.2142857,14.7857143 C14.2142857,14.1939806 14.6939806,13.7142857 15.2857143,13.7142857 C15.8774479,13.7142857 16.3571429,14.1939806 16.3571429,14.7857143 C16.3571429,15.3774479 15.8774479,15.8571429 15.2857143,15.8571429 Z M12.0714286,12.6428571 C11.4796949,12.6428571 11,12.1631622 11,11.5714286 C11,10.9796949 11.4796949,10.5 12.0714286,10.5 C12.6631622,10.5 13.1428571,10.9796949 13.1428571,11.5714286 C13.1428571,12.1631622 12.6631622,12.6428571 12.0714286,12.6428571 Z M18.5,12.6428571 C17.9082663,12.6428571 17.4285714,12.1631622 17.4285714,11.5714286 C17.4285714,10.9796949 17.9082663,10.5 18.5,10.5 C19.0917337,10.5 19.5714286,10.9796949 19.5714286,11.5714286 C19.5714286,12.1631622 19.0917337,12.6428571 18.5,12.6428571 Z M12.0714286,20.1428571 C11.4796949,20.1428571 11,19.6631622 11,19.0714286 C11,18.4796949 11.4796949,18 12.0714286,18 C12.6631622,18 13.1428571,18.4796949 13.1428571,19.0714286 C13.1428571,19.6631622 12.6631622,20.1428571 12.0714286,20.1428571 Z M18.5,20.1428571 C17.9082663,20.1428571 17.4285714,19.6631622 17.4285714,19.0714286 C17.4285714,18.4796949 17.9082663,18 18.5,18 C19.0917337,18 19.5714286,18.4796949 19.5714286,19.0714286 C19.5714286,19.6631622 19.0917337,20.1428571 18.5,20.1428571 Z M21.7142857,9.42857143 C21.1225521,9.42857143 20.6428571,8.94887652 20.6428571,8.35714286 C20.6428571,7.7654092 21.1225521,7.28571429 21.7142857,7.28571429 C22.3060194,7.28571429 22.7857143,7.7654092 22.7857143,8.35714286 C22.7857143,8.94887652 22.3060194,9.42857143 21.7142857,9.42857143 Z M21.7142857,15.8571429 C21.1225521,15.8571429 20.6428571,15.3774479 20.6428571,14.7857143 C20.6428571,14.1939806 21.1225521,13.7142857 21.7142857,13.7142857 C22.3060194,13.7142857 22.7857143,14.1939806 22.7857143,14.7857143 C22.7857143,15.3774479 22.3060194,15.8571429 21.7142857,15.8571429 Z M24.9285714,12.6428571 C24.3368378,12.6428571 23.8571429,12.1631622 23.8571429,11.5714286 C23.8571429,10.9796949 24.3368378,10.5 24.9285714,10.5 C25.5203051,10.5 26,10.9796949 26,11.5714286 C26,12.1631622 25.5203051,12.6428571 24.9285714,12.6428571 Z M24.9285714,20.1428571 C24.3368378,20.1428571 23.8571429,19.6631622 23.8571429,19.0714286 C23.8571429,18.4796949 24.3368378,18 24.9285714,18 C25.5203051,18 26,18.4796949 26,19.0714286 C26,19.6631622 25.5203051,20.1428571 24.9285714,20.1428571 Z M15.2857143,23.3571429 C14.6939806,23.3571429 14.2142857,22.8774479 14.2142857,22.2857143 C14.2142857,21.6939806 14.6939806,21.2142857 15.2857143,21.2142857 C15.8774479,21.2142857 16.3571429,21.6939806 16.3571429,22.2857143 C16.3571429,22.8774479 15.8774479,23.3571429 15.2857143,23.3571429 Z M15.2857143,29.7857143 C14.6939806,29.7857143 14.2142857,29.3060194 14.2142857,28.7142857 C14.2142857,28.1225521 14.6939806,27.6428571 15.2857143,27.6428571 C15.8774479,27.6428571 16.3571429,28.1225521 16.3571429,28.7142857 C16.3571429,29.3060194 15.8774479,29.7857143 15.2857143,29.7857143 Z M12.0714286,26.5714286 C11.4796949,26.5714286 11,26.0917337 11,25.5 C11,24.9082663 11.4796949,24.4285714 12.0714286,24.4285714 C12.6631622,24.4285714 13.1428571,24.9082663 13.1428571,25.5 C13.1428571,26.0917337 12.6631622,26.5714286 12.0714286,26.5714286 Z M18.5,26.5714286 C17.9082663,26.5714286 17.4285714,26.0917337 17.4285714,25.5 C17.4285714,24.9082663 17.9082663,24.4285714 18.5,24.4285714 C19.0917337,24.4285714 19.5714286,24.9082663 19.5714286,25.5 C19.5714286,26.0917337 19.0917337,26.5714286 18.5,26.5714286 Z M12.0714286,34.0714286 C11.4796949,34.0714286 11,33.5917337 11,33 C11,32.4082663 11.4796949,31.9285714 12.0714286,31.9285714 C12.6631622,31.9285714 13.1428571,32.4082663 13.1428571,33 C13.1428571,33.5917337 12.6631622,34.0714286 12.0714286,34.0714286 Z M18.5,34.0714286 C17.9082663,34.0714286 17.4285714,33.5917337 17.4285714,33 C17.4285714,32.4082663 17.9082663,31.9285714 18.5,31.9285714 C19.0917337,31.9285714 19.5714286,32.4082663 19.5714286,33 C19.5714286,33.5917337 19.0917337,34.0714286 18.5,34.0714286 Z M21.7142857,23.3571429 C21.1225521,23.3571429 20.6428571,22.8774479 20.6428571,22.2857143 C20.6428571,21.6939806 21.1225521,21.2142857 21.7142857,21.2142857 C22.3060194,21.2142857 22.7857143,21.6939806 22.7857143,22.2857143 C22.7857143,22.8774479 22.3060194,23.3571429 21.7142857,23.3571429 Z M21.7142857,29.7857143 C21.1225521,29.7857143 20.6428571,29.3060194 20.6428571,28.7142857 C20.6428571,28.1225521 21.1225521,27.6428571 21.7142857,27.6428571 C22.3060194,27.6428571 22.7857143,28.1225521 22.7857143,28.7142857 C22.7857143,29.3060194 22.3060194,29.7857143 21.7142857,29.7857143 Z M24.9285714,26.5714286 C24.3368378,26.5714286 23.8571429,26.0917337 23.8571429,25.5 C23.8571429,24.9082663 24.3368378,24.4285714 24.9285714,24.4285714 C25.5203051,24.4285714 26,24.9082663 26,25.5 C26,26.0917337 25.5203051,26.5714286 24.9285714,26.5714286 Z M24.9285714,34.0714286 C24.3368378,34.0714286 23.8571429,33.5917337 23.8571429,33 C23.8571429,32.4082663 24.3368378,31.9285714 24.9285714,31.9285714 C25.5203051,31.9285714 26,32.4082663 26,33 C26,33.5917337 25.5203051,34.0714286 24.9285714,34.0714286 Z M15.2857143,37.2857143 C14.6939806,37.2857143 14.2142857,36.8060194 14.2142857,36.2142857 C14.2142857,35.6225521 14.6939806,35.1428571 15.2857143,35.1428571 C15.8774479,35.1428571 16.3571429,35.6225521 16.3571429,36.2142857 C16.3571429,36.8060194 15.8774479,37.2857143 15.2857143,37.2857143 Z M15.2857143,44.7857143 C14.6939806,44.7857143 14.2142857,44.3060194 14.2142857,43.7142857 C14.2142857,43.1225521 14.6939806,42.6428571 15.2857143,42.6428571 C15.8774479,42.6428571 16.3571429,43.1225521 16.3571429,43.7142857 C16.3571429,44.3060194 15.8774479,44.7857143 15.2857143,44.7857143 Z M12.0714286,40.5 C11.4796949,40.5 11,40.0203051 11,39.4285714 C11,38.8368378 11.4796949,38.3571429 12.0714286,38.3571429 C12.6631622,38.3571429 13.1428571,38.8368378 13.1428571,39.4285714 C13.1428571,40.0203051 12.6631622,40.5 12.0714286,40.5 Z M18.5,40.5 C17.9082663,40.5 17.4285714,40.0203051 17.4285714,39.4285714 C17.4285714,38.8368378 17.9082663,38.3571429 18.5,38.3571429 C19.0917337,38.3571429 19.5714286,38.8368378 19.5714286,39.4285714 C19.5714286,40.0203051 19.0917337,40.5 18.5,40.5 Z M12.0714286,48 C11.4796949,48 11,47.5203051 11,46.9285714 C11,46.3368378 11.4796949,45.8571429 12.0714286,45.8571429 C12.6631622,45.8571429 13.1428571,46.3368378 13.1428571,46.9285714 C13.1428571,47.5203051 12.6631622,48 12.0714286,48 Z M18.5,48 C17.9082663,48 17.4285714,47.5203051 17.4285714,46.9285714 C17.4285714,46.3368378 17.9082663,45.8571429 18.5,45.8571429 C19.0917337,45.8571429 19.5714286,46.3368378 19.5714286,46.9285714 C19.5714286,47.5203051 19.0917337,48 18.5,48 Z M21.7142857,37.2857143 C21.1225521,37.2857143 20.6428571,36.8060194 20.6428571,36.2142857 C20.6428571,35.6225521 21.1225521,35.1428571 21.7142857,35.1428571 C22.3060194,35.1428571 22.7857143,35.6225521 22.7857143,36.2142857 C22.7857143,36.8060194 22.3060194,37.2857143 21.7142857,37.2857143 Z M21.7142857,44.7857143 C21.1225521,44.7857143 20.6428571,44.3060194 20.6428571,43.7142857 C20.6428571,43.1225521 21.1225521,42.6428571 21.7142857,42.6428571 C22.3060194,42.6428571 22.7857143,43.1225521 22.7857143,43.7142857 C22.7857143,44.3060194 22.3060194,44.7857143 21.7142857,44.7857143 Z M24.9285714,40.5 C24.3368378,40.5 23.8571429,40.0203051 23.8571429,39.4285714 C23.8571429,38.8368378 24.3368378,38.3571429 24.9285714,38.3571429 C25.5203051,38.3571429 26,38.8368378 26,39.4285714 C26,40.0203051 25.5203051,40.5 24.9285714,40.5 Z M24.9285714,48 C24.3368378,48 23.8571429,47.5203051 23.8571429,46.9285714 C23.8571429,46.3368378 24.3368378,45.8571429 24.9285714,45.8571429 C25.5203051,45.8571429 26,46.3368378 26,46.9285714 C26,47.5203051 25.5203051,48 24.9285714,48 Z" id="Combined-Shape"></path>
                    </g>
                    <circle id="Oval" stroke="#F3A536" stroke-width="2" stroke-dasharray="4" cx="60" cy="60" r="60"></circle>
                </g>
            </g>
        </g>
    </g>
</svg>