<?xml version="1.0" encoding="UTF-8"?>
<svg width="105px" height="104px" viewBox="0 0 105 104" version="1.1" xmlns="http://www.w3.org/2000/svg" xmlns:xlink="http://www.w3.org/1999/xlink">
    <!-- Generator: Sketch 49.1 (51147) - http://www.bohemiancoding.com/sketch -->
    <title>Group 15</title>
    <desc>Created with Sketch.</desc>
    <defs>
        <filter x="-5.3%" y="-4.6%" width="110.7%" height="111.6%" filterUnits="objectBoundingBox" id="filter-1">
            <feOffset dx="0" dy="4" in="SourceAlpha" result="shadowOffsetOuter1"></feOffset>
            <feGaussianBlur stdDeviation="6" in="shadowOffsetOuter1" result="shadowBlurOuter1"></feGaussianBlur>
            <feColorMatrix values="0 0 0 0 0   0 0 0 0 0   0 0 0 0 0  0 0 0 0.766700634 0" type="matrix" in="shadowBlurOuter1" result="shadowMatrixOuter1"></feColorMatrix>
            <feMerge>
                <feMergeNode in="shadowMatrixOuter1"></feMergeNode>
                <feMergeNode in="SourceGraphic"></feMergeNode>
            </feMerge>
        </filter>
    </defs>
    <g id="Page-1" stroke="none" stroke-width="1" fill="none" fill-rule="evenodd">
        <g id="Anonymous_PaymentMethods_Flight" transform="translate(-260.000000, -530.000000)">
            <g id="Group-33" transform="translate(0.000000, 321.000000)">
                <g id="Group-32">
                    <g id="Popover" filter="url(#filter-1)">
                        <g id="Audio" transform="translate(261.500000, 217.000000)">
                            <g id="Group-15" transform="translate(11.000000, 0.000000)">
                                <circle id="Background" fill="#3D3D3D" cx="40" cy="40" r="40"></circle>
                                <g id="western-union" transform="translate(20.500000, 32.000000)" fill="#FFFFFF" fill-rule="nonzero">
                                    <path d="M7.35533633,17.25 C7.41657014,17.25 7.47868819,17.2439179 7.54091677,17.2314391 C8.02382385,17.1346497 8.3325351,16.6848882 8.23051559,16.2268425 L4.76793149,0.672793263 C4.66591198,0.214642695 4.1917368,-0.0784520263 3.70905078,0.0185471212 C3.22614371,0.115231677 2.91754299,0.565097993 3.01945196,1.0231437 L6.48203607,16.5771929 C6.57079194,16.9763051 6.94195284,17.25 7.35533633,17.25 Z" id="Shape"></path>
                                    <path d="M0.709098155,0.0185165753 C0.226180912,0.115201302 -0.0825368407,0.565068416 0.0194848154,1.02311493 L3.48203129,16.5771917 C3.57078903,16.9761998 3.94195774,17.25 4.35534993,17.25 C4.41658503,17.25 4.47870439,17.2439179 4.54093429,17.231439 C5.02385153,17.1346495 5.33245875,16.6848872 5.23054763,16.2268407 L1.76789062,0.672659013 C1.66609003,0.214612497 1.19146273,-0.07837788 0.709098155,0.0185165753 Z" id="Shape"></path>
                                    <path d="M10.7820246,17.6943292 L16.5706428,17.6943292 L17.0633051,17.6943292 C17.5543303,17.6943292 18.0032271,17.4938005 18.3257386,17.1663425 C18.6480319,17.4938005 19.0973652,17.6943292 19.588063,17.6943292 L19.6496185,17.6943292 L25.7461234,17.6943292 L25.8076789,17.6943292 C26.2033148,17.6943292 26.5725387,17.5625222 26.870821,17.3386888 C27.0359512,17.3983054 27.2031552,17.452936 27.3737425,17.497811 C28.3784942,17.8402274 29.6013095,18 31.211357,18 L31.4579064,18 C31.506365,18 31.5541687,17.9980489 31.6017542,17.9941467 C34.104029,17.9370231 36.0719496,17.3294753 37.4521462,16.1873288 C37.466662,16.175297 37.4810686,16.1630485 37.4950386,16.1504748 C38.9913612,14.8292615 39.75,12.8864092 39.75,10.3757896 L39.75,1.75251263 C39.75,0.784663467 38.9598194,0 37.985409,0 L34.4752174,0 L32.4429036,0 C31.9321239,0 31.4720947,0.215595474 31.1498015,0.559962905 C30.8277265,0.21548708 30.3674791,0 29.8566994,0 L28.8097101,0 C28.800324,0 28.7909379,0.00108393903 28.7814426,0.00130072684 C28.7826432,0.00130072684 28.7838437,0.00108393903 28.7849351,0.00108393903 C28.777841,0.00108393903 28.7709651,0 28.7638709,0 L24.8223543,0 L23.8368114,0 C23.3152268,0 22.8404636,0.22632647 22.5152235,0.591288743 C22.3616622,0.434876341 22.1793968,0.307296716 21.9773769,0.216571019 C21.7241698,0.0781520044 21.433964,3.08074003e-15 21.1273871,3.08074003e-15 L15.4003243,3.08074003e-15 C14.9230509,3.08074003e-15 14.4847408,0.189472543 14.1644121,0.501646985 C13.8440833,0.189580937 13.4059915,6.16148006e-15 12.9284998,6.16148006e-15 L12.7527829,6.16148006e-15 L7.76471357,6.16148006e-15 C7.23265139,6.16148006e-15 6.729075,0.238358194 6.39390311,0.648845906 C6.05884036,1.05933362 5.92819863,1.59783453 6.03810358,2.11476506 L9.05552371,16.3037438 C9.22785729,17.1144218 9.94796934,17.6943292 10.7820246,17.6943292 Z M29.6730151,1.93298848 C29.6857846,1.87250468 29.6917874,1.81234607 29.6917874,1.75283781 L29.8564811,1.75283781 L29.8564811,10.5598425 C29.8564811,11.1711841 29.9182549,11.660691 30.1643677,11.9663618 C30.4106989,12.272141 30.7188038,12.4556518 31.1493649,12.4556518 C31.5191345,12.4556518 31.8272394,12.272141 32.0732431,11.9663618 C32.3195743,11.660691 32.4427944,11.1711841 32.4427944,10.621085 L32.4427944,1.75283781 L34.4751082,1.75283781 L37.9852998,1.75283781 L37.9852998,10.3761148 C37.9852998,12.3944093 37.4308637,13.8622795 36.3224281,14.8410765 C35.2549204,15.7244868 33.6139861,16.2096579 31.458343,16.2442356 L31.457579,16.2474874 L31.2110295,16.2474874 C29.8562628,16.2474874 28.7480455,16.1250023 27.8857228,15.8192231 C27.4976175,15.7230777 27.1444374,15.5752284 26.8244361,15.3954029 L29.6730151,1.93298848 Z M12.7527829,1.75294621 L12.7527829,1.75283781 L12.9284998,1.75283781 L14.135708,9.91880092 L15.4003243,1.75283781 L21.1273871,1.75283781 L21.1367732,1.81408037 L21.2507163,1.81408037 L22.5136955,10.5344783 L23.8367023,1.75283781 L24.8222451,1.75283781 L25.503503,1.75283781 L27.0062649,1.75283781 L27.9077692,1.75283781 L25.0140058,15.4303057 C25.0140058,15.4304141 25.0140058,15.4304141 25.0140058,15.4305225 C24.9378254,15.7902819 24.7268559,15.9081061 24.5533218,15.941925 L19.6494002,15.941925 L19.5878447,15.941925 L18.3256295,6.98674583 L17.0630868,15.941925 L16.5704245,15.941925 L10.7818063,15.941925 L7.76471357,1.75283781 L12.7527829,1.75294621 Z" id="Shape"></path>
                                </g>
                            </g>
                        </g>
                    </g>
                </g>
            </g>
        </g>
    </g>
</svg>