<?xml version="1.0" encoding="UTF-8"?>
<svg width="90px" height="66px" viewBox="0 0 90 66" version="1.1" xmlns="http://www.w3.org/2000/svg" xmlns:xlink="http://www.w3.org/1999/xlink">
    <!-- Generator: Sketch 47.1 (45422) - http://www.bohemiancoding.com/sketch -->
    <title>WhaleWatching</title>
    <desc>Created with Sketch.</desc>
    <defs></defs>
    <g id="Page-1" stroke="none" stroke-width="1" fill="none" fill-rule="evenodd">
        <g id="WhaleWatching" fill-rule="nonzero" fill="#000000">
            <g id="Group">
                <path d="M89.894,22.477 C89.661,21.362 89.05,20.449 88.176,19.905 C86.005,18.554 83.302,19.752 81.458,20.77 C79.274,21.975 77.115,23.282 75.031,24.661 C74.733,23.843 74.535,22.984 74.327,22.086 C74.186,21.473 74.039,20.839 73.858,20.219 C73.192,17.941 72.108,16.381 70.635,15.584 C69.618,15.033 68.296,14.952 67.189,15.372 C66.275,15.719 65.606,16.367 65.303,17.198 C65.025,17.963 65.042,18.861 65.357,19.944 C66.149,22.671 68.056,24.791 69.901,26.841 C71.11,28.185 72.36,29.575 73.262,31.107 C73.98,32.328 74.531,33.729 74.898,35.272 C74.967,35.563 75.034,35.892 74.948,36.117 C74.872,36.315 74.656,36.495 74.454,36.644 C70.888,39.289 65.629,38.016 61.999,35.58 C60.029,34.257 58.247,32.589 56.524,30.974 C54.885,29.439 53.191,27.852 51.31,26.531 C46.454,23.122 40.256,21.273 31.806,20.711 C27.667,20.435 21.525,20.327 15.997,22.549 C10.9,24.597 6.41,28.58 3.353,33.764 C-0.202,39.793 -0.983,46.476 1.265,51.64 C1.312,51.748 1.391,51.839 1.492,51.899 C6.566,54.96 12.629,55.534 18.618,55.865 C14.1,56.129 9.538,56.206 5.14,55.513 C4.897,55.473 4.655,55.599 4.545,55.819 C4.434,56.04 4.479,56.307 4.657,56.479 C6.724,58.49 9.42,60.102 12.453,61.141 C16.991,62.695 21.818,62.944 26.357,62.982 C26.763,62.986 27.169,62.987 27.575,62.987 C30.819,62.987 34.045,62.878 37.182,62.663 C37.203,62.662 37.221,62.651 37.241,62.647 C38.351,63.69 39.64,64.487 40.946,64.919 C42.583,65.461 44.291,65.69 45.943,65.911 C45.968,65.914 45.993,65.916 46.018,65.916 C46.188,65.916 46.351,65.84 46.459,65.706 C46.583,65.552 46.619,65.344 46.552,65.158 L45.367,61.852 C47.166,61.632 48.952,61.443 50.683,61.264 C52.404,61.086 54.184,60.902 55.98,60.683 C57.777,60.465 59.467,60.04 61.103,59.629 C62.367,59.312 63.674,58.983 65.003,58.759 C71.631,57.643 76.505,54.849 79.49,50.455 C79.745,50.081 79.99,49.687 80.219,49.285 C82.356,45.527 81.356,40.743 80.149,36.166 C79.644,34.254 79.157,31.579 80.747,30.445 C81.32,30.036 82.073,29.907 82.869,29.77 L83.243,29.705 C85.13,29.363 87.68,28.518 89.115,26.429 C89.886,25.309 90.177,23.831 89.894,22.477 Z M41.302,63.844 C39.951,63.397 38.553,62.459 37.468,61.27 L37.468,61.27 C35.85,59.498 35.121,57.459 35.427,55.612 C38.354,55.545 41.545,57.656 43.155,59.802 C43.677,60.498 43.988,61.367 44.289,62.207 L45.169,64.662 C43.863,64.479 42.544,64.255 41.302,63.844 Z M88.18,25.788 C86.966,27.555 84.715,28.287 83.041,28.59 L82.677,28.653 C81.789,28.805 80.872,28.962 80.087,29.522 C77.925,31.064 78.46,34.218 79.051,36.456 C80.199,40.807 81.158,45.338 79.232,48.725 C79.018,49.101 78.789,49.469 78.551,49.819 C75.746,53.948 71.124,56.58 64.813,57.642 C63.439,57.874 62.11,58.207 60.824,58.53 C59.223,58.932 57.567,59.348 55.841,59.558 C54.055,59.776 52.28,59.959 50.564,60.137 C48.739,60.326 46.853,60.524 44.949,60.76 C44.717,60.196 44.442,59.629 44.061,59.122 C42.142,56.564 38.379,54.152 34.902,54.51 C34.664,54.534 34.468,54.704 34.409,54.935 C33.863,57.102 34.53,59.497 36.239,61.584 C33.008,61.785 29.693,61.878 26.365,61.85 C21.921,61.813 17.205,61.572 12.819,60.07 C10.589,59.307 8.555,58.22 6.847,56.887 C12.276,57.488 17.854,57.082 23.268,56.687 C24.55,56.594 25.825,56.5 27.089,56.422 C27.383,56.403 27.614,56.163 27.621,55.869 C27.628,55.575 27.408,55.324 27.115,55.292 C24.98,55.06 22.717,54.944 20.529,54.832 C14.153,54.505 7.561,54.167 2.233,51.023 C0.219,46.212 0.997,39.992 4.33,34.34 C7.261,29.37 11.554,25.556 16.42,23.601 C21.733,21.466 27.702,21.574 31.731,21.842 C39.965,22.389 45.98,24.174 50.659,27.459 C52.474,28.733 54.139,30.293 55.749,31.801 C57.505,33.446 59.321,35.146 61.367,36.521 C65.327,39.179 71.119,40.53 75.13,37.554 C75.463,37.307 75.827,36.991 76.007,36.521 C76.208,35.995 76.11,35.465 76.001,35.009 C75.608,33.357 75.016,31.85 74.24,30.531 C73.281,28.9 71.991,27.467 70.745,26.082 C68.905,24.037 67.167,22.105 66.447,19.627 C66.202,18.784 66.177,18.116 66.37,17.586 C66.558,17.07 66.992,16.66 67.592,16.432 C68.388,16.13 69.37,16.188 70.096,16.581 C71.292,17.228 72.192,18.559 72.769,20.536 C72.941,21.125 73.084,21.743 73.222,22.34 C73.484,23.474 73.754,24.647 74.248,25.75 C74.316,25.902 74.448,26.017 74.609,26.063 C74.77,26.11 74.943,26.082 75.082,25.989 C77.317,24.486 79.647,23.064 82.006,21.762 C83.601,20.882 85.913,19.832 87.577,20.867 C88.358,21.353 88.664,22.137 88.784,22.708 C89.001,23.75 88.77,24.93 88.18,25.788 Z" id="Shape"></path>
                <path d="M16.22,4.917 C16.92,6.725 18.823,8.741 20.212,10.213 C20.631,10.657 20.994,11.041 21.262,11.354 C21.371,11.481 21.529,11.552 21.692,11.552 C21.745,11.552 21.799,11.544 21.852,11.529 C22.066,11.466 22.223,11.284 22.254,11.063 C22.308,10.679 22.396,10.2 22.497,9.645 C23.005,6.87 23.772,2.677 21.966,0.987 C21.01,0.092 19.609,-0.161 18.311,0.326 C16.987,0.823 16.082,1.958 15.949,3.288 C15.9,3.777 15.991,4.325 16.22,4.917 C16.22,4.916 16.22,4.916 16.22,4.917 Z M17.077,3.4 C17.167,2.503 17.792,1.732 18.709,1.387 C19.613,1.047 20.541,1.207 21.19,1.815 C22.544,3.082 21.815,7.063 21.38,9.441 C21.361,9.544 21.343,9.644 21.325,9.741 C21.232,9.642 21.135,9.539 21.035,9.434 C19.71,8.03 17.896,6.107 17.276,4.506 C17.114,4.083 17.046,3.711 17.077,3.4 Z" id="Shape"></path>
                <path d="M23.002,17.075 C23.065,17.246 23.206,17.376 23.382,17.425 C23.432,17.439 23.483,17.446 23.534,17.446 C23.661,17.446 23.786,17.403 23.888,17.322 C24.341,16.96 24.738,16.538 25.121,16.13 C25.597,15.624 26.046,15.145 26.573,14.802 C26.802,14.652 27.081,14.554 27.376,14.451 C27.903,14.266 28.5,14.056 28.916,13.495 C29.507,12.698 29.549,11.659 29.028,10.784 C28.47,9.847 27.451,9.336 26.425,9.482 L26.425,9.482 C25.44,9.622 24.556,10.306 23.87,11.457 C22.851,13.163 22.47,15.632 23.002,17.075 Z M24.844,12.037 C25.196,11.446 25.784,10.718 26.585,10.604 C27.232,10.512 27.788,10.919 28.053,11.364 C28.191,11.596 28.463,12.201 28.004,12.82 C27.796,13.101 27.427,13.231 27,13.381 C26.67,13.497 26.296,13.628 25.953,13.852 C25.313,14.27 24.795,14.82 24.294,15.353 C24.159,15.497 24.027,15.637 23.895,15.773 C23.832,14.626 24.189,13.134 24.844,12.037 Z" id="Shape"></path>
                <path d="M16.181,17.148 C16.719,17.472 17.269,17.441 17.756,17.413 C18.015,17.398 18.26,17.384 18.478,17.425 C18.995,17.523 19.505,17.755 20.044,18.001 C20.485,18.202 20.942,18.41 21.424,18.551 C21.476,18.566 21.53,18.574 21.583,18.574 C21.71,18.574 21.836,18.531 21.937,18.45 C22.081,18.334 22.16,18.156 22.149,17.971 C22.06,16.58 20.867,14.68 19.431,13.647 C18.507,12.982 17.587,12.745 16.771,12.961 C16.771,12.961 16.771,12.961 16.771,12.961 C15.913,13.189 15.272,13.946 15.137,14.888 C15.005,15.814 15.405,16.68 16.181,17.148 Z M16.26,15.049 C16.33,14.558 16.645,14.169 17.063,14.058 C17.664,13.898 18.323,14.247 18.769,14.568 C19.605,15.17 20.377,16.174 20.763,17.082 C20.681,17.045 20.598,17.007 20.514,16.969 C19.937,16.706 19.341,16.435 18.69,16.311 C18.501,16.275 18.315,16.264 18.137,16.264 C17.981,16.264 17.832,16.273 17.691,16.281 C17.265,16.305 16.993,16.314 16.767,16.177 C16.212,15.842 16.228,15.276 16.26,15.049 Z" id="Shape"></path>
                <path d="M23.326,22.914 C22.524,22.914 18.525,22.993 18.525,24.552 C18.525,26.111 22.524,26.19 23.326,26.19 C24.128,26.19 28.127,26.111 28.127,24.552 C28.127,22.993 24.128,22.914 23.326,22.914 Z M23.326,25.056 C21.535,25.056 20.331,24.775 19.842,24.552 C20.331,24.329 21.535,24.048 23.326,24.048 C25.117,24.048 26.321,24.329 26.81,24.552 C26.321,24.775 25.117,25.056 23.326,25.056 Z" id="Shape"></path>
                <path d="M11.268,41.394 C10.221,41.394 9.373,42.242 9.373,43.289 C9.373,44.336 10.221,45.184 11.268,45.184 C12.315,45.184 13.163,44.336 13.163,43.289 C13.164,42.242 12.315,41.394 11.268,41.394 Z M10.601,43.339 C10.205,43.339 9.883,43.018 9.883,42.621 C9.883,42.225 10.204,41.903 10.601,41.903 C10.998,41.903 11.319,42.224 11.319,42.621 C11.319,43.018 10.997,43.339 10.601,43.339 Z" id="Shape"></path>
            </g>
        </g>
    </g>
</svg>