<?xml version="1.0" encoding="UTF-8"?>
<svg width="89px" height="91px" viewBox="0 0 89 91" version="1.1" xmlns="http://www.w3.org/2000/svg" xmlns:xlink="http://www.w3.org/1999/xlink">
    <!-- Generator: Sketch 48.2 (47327) - http://www.bohemiancoding.com/sketch -->
    <title>Group</title>
    <desc>Created with Sketch.</desc>
    <defs></defs>
    <g id="Page-1" stroke="none" stroke-width="1" fill="none" fill-rule="evenodd">
        <g id="Group" transform="translate(1.000000, 1.000000)">
            <path d="M56.1875,44 C55.739,44 55.375,44.3874 55.375,44.8666667 L55.375,50.0666667 C55.375,56.7573333 50.2725,62.2 44,62.2 C37.7275,62.2 32.625,56.7573333 32.625,50.0666667 L32.625,44.8666667 C32.625,44.3874 32.261,44 31.8125,44 C31.364,44 31,44.3874 31,44.8666667 L31,50.0666667 C31,57.4203333 36.39825,63.4384667 43.1875,63.8891333 L43.1875,68.2666667 L39.125,68.2666667 C38.6765,68.2666667 38.3125,68.6540667 38.3125,69.1333333 C38.3125,69.6126 38.6765,70 39.125,70 L48.875,70 C49.3235,70 49.6875,69.6126 49.6875,69.1333333 C49.6875,68.6540667 49.3235,68.2666667 48.875,68.2666667 L44.8125,68.2666667 L44.8125,63.8891333 C51.60175,63.4384667 57,57.4194667 57,50.0666667 L57,44.8666667 C57,44.3874 56.636,44 56.1875,44 Z" id="Shape" fill="#FFFFFF" fill-rule="nonzero"></path>
            <path d="M44,60 C48.9622727,60 53,55.7086957 53,50.4347826 L53,29.5652174 C53,24.2913043 48.9622727,20 44,20 C39.0377273,20 35,24.2913043 35,29.5652174 L35,50.4347826 C35,55.7086957 39.0377273,60 44,60 Z M38.1946667,23.5568571 C38.3333333,23.6482381 38.4888889,23.7142857 38.6666667,23.7142857 C39.1573333,23.7142857 39.5555556,23.3089524 39.5555556,22.8095238 C39.5555556,22.675619 39.5235556,22.5507619 39.472,22.4367619 C40.7608889,21.5329048 42.32,21 44,21 C45.68,21 47.2391111,21.5329048 48.528,22.4367619 C48.4764444,22.5507619 48.4444444,22.675619 48.4444444,22.8095238 C48.4444444,23.3089524 48.8426667,23.7142857 49.3333333,23.7142857 C49.5111111,23.7142857 49.6666667,23.6482381 49.8053333,23.5568571 C50.3297778,24.1205238 50.7742222,24.7592857 51.1244444,25.4568571 C51.1111111,25.8124286 51.2524444,26.0585238 51.4595556,26.2240952 C51.8035556,27.1315714 52,28.1132381 52,29.1428571 L52,30.047619 C51.5093333,30.047619 51.1111111,30.4529524 51.1111111,30.952381 C51.1111111,31.4518095 51.5093333,31.8571429 52,31.8571429 L52,35.4761905 C51.5093333,35.4761905 51.1111111,35.8815238 51.1111111,36.3809524 C51.1111111,36.880381 51.5093333,37.2857143 52,37.2857143 L52,40.9047619 C51.5093333,40.9047619 51.1111111,41.3100952 51.1111111,41.8095238 C51.1111111,42.3089524 51.5093333,42.7142857 52,42.7142857 L52,46.3333333 C51.5093333,46.3333333 51.1111111,46.7386667 51.1111111,47.2380952 C51.1111111,47.7375238 51.5093333,48.1428571 52,48.1428571 L52,50.8571429 C52,51.1674762 51.9795556,51.4714762 51.9457778,51.7727619 C51.4817778,51.802619 51.1111111,52.1862381 51.1111111,52.6666667 C51.1111111,53.0077619 51.304,53.2936667 51.5777778,53.448381 C50.8968889,55.504 49.4328889,57.191381 47.5457778,58.1459048 C47.5555556,57.5958095 47.1573333,57.1904762 46.6666667,57.1904762 C46.176,57.1904762 45.7777778,57.5958095 45.7777778,58.0952381 C45.7777778,58.3404286 45.8755556,58.5611905 46.0311111,58.7240476 C45.3813333,58.8977619 44.7031111,59 44,59 C43.2968889,59 42.6186667,58.8977619 41.9688889,58.7240476 C42.1244444,58.5611905 42.2222222,58.3404286 42.2222222,58.0952381 C42.2222222,57.5958095 41.824,57.1904762 41.3333333,57.1904762 C40.8426667,57.1904762 40.4444444,57.5958095 40.4444444,58.0952381 C38.5671111,57.1904762 37.1022222,55.504 36.4222222,53.448381 C36.696,53.2936667 36.8888889,53.0077619 36.8888889,52.6666667 C36.8888889,52.1862381 36.5182222,51.802619 36.0542222,51.7727619 C36.0204444,51.4714762 36,51.1674762 36,50.8571429 L36,48.1428571 C36.4906667,48.1428571 36.8888889,47.7375238 36.8888889,47.2380952 C36.8888889,46.7386667 36.4906667,46.3333333 36,46.3333333 L36,42.7142857 C36.4906667,42.7142857 36.8888889,42.3089524 36.8888889,41.8095238 C36.8888889,41.3100952 36.4906667,40.9047619 36,40.9047619 L36,37.2857143 C36.4906667,37.2857143 36.8888889,36.880381 36.8888889,36.3809524 C36.8888889,35.8815238 36.4906667,35.4761905 36,35.4761905 L36,31.8571429 C36.4906667,31.8571429 36.8888889,31.4518095 36.8888889,30.952381 C36.8888889,30.4529524 36.4906667,30.047619 36,30.047619 L36,29.1428571 C36,28.1132381 36.1964444,27.1315714 36.5404444,26.2240952 C36.7475556,26.0585238 36.8888889,25.8124286 36.8888889,25.5238095 C37.2257778,24.7592857 37.6702222,24.1205238 38.1946667,23.5568571 Z" id="Shape" fill="#FFFFFF" fill-rule="nonzero"></path>
            <path d="M44,24 C43.4477153,24 43,23.5522847 43,23 C43,22.4477153 43.4477153,22 44,22 C44.5522847,22 45,22.4477153 45,23 C45,23.5522847 44.5522847,24 44,24 Z M41,27 C40.4477153,27 40,26.5522847 40,26 C40,25.4477153 40.4477153,25 41,25 C41.5522847,25 42,25.4477153 42,26 C42,26.5522847 41.5522847,27 41,27 Z M41,32 C40.4477153,32 40,31.5522847 40,31 C40,30.4477153 40.4477153,30 41,30 C41.5522847,30 42,30.4477153 42,31 C42,31.5522847 41.5522847,32 41,32 Z M39,29 C38.4477153,29 38,28.5522847 38,28 C38,27.4477153 38.4477153,27 39,27 C39.5522847,27 40,27.4477153 40,28 C40,28.5522847 39.5522847,29 39,29 Z M44,29 C43.4477153,29 43,28.5522847 43,28 C43,27.4477153 43.4477153,27 44,27 C44.5522847,27 45,27.4477153 45,28 C45,28.5522847 44.5522847,29 44,29 Z M39,35 C38.4477153,35 38,34.5522847 38,34 C38,33.4477153 38.4477153,33 39,33 C39.5522847,33 40,33.4477153 40,34 C40,34.5522847 39.5522847,35 39,35 Z M44,35 C43.4477153,35 43,34.5522847 43,34 C43,33.4477153 43.4477153,33 44,33 C44.5522847,33 45,33.4477153 45,34 C45,34.5522847 44.5522847,35 44,35 Z M47,27 C46.4477153,27 46,26.5522847 46,26 C46,25.4477153 46.4477153,25 47,25 C47.5522847,25 48,25.4477153 48,26 C48,26.5522847 47.5522847,27 47,27 Z M47,32 C46.4477153,32 46,31.5522847 46,31 C46,30.4477153 46.4477153,30 47,30 C47.5522847,30 48,30.4477153 48,31 C48,31.5522847 47.5522847,32 47,32 Z M49,29 C48.4477153,29 48,28.5522847 48,28 C48,27.4477153 48.4477153,27 49,27 C49.5522847,27 50,27.4477153 50,28 C50,28.5522847 49.5522847,29 49,29 Z M49,35 C48.4477153,35 48,34.5522847 48,34 C48,33.4477153 48.4477153,33 49,33 C49.5522847,33 50,33.4477153 50,34 C50,34.5522847 49.5522847,35 49,35 Z M41,37 C40.4477153,37 40,36.5522847 40,36 C40,35.4477153 40.4477153,35 41,35 C41.5522847,35 42,35.4477153 42,36 C42,36.5522847 41.5522847,37 41,37 Z M41,42 C40.4477153,42 40,41.5522847 40,41 C40,40.4477153 40.4477153,40 41,40 C41.5522847,40 42,40.4477153 42,41 C42,41.5522847 41.5522847,42 41,42 Z M39,40 C38.4477153,40 38,39.5522847 38,39 C38,38.4477153 38.4477153,38 39,38 C39.5522847,38 40,38.4477153 40,39 C40,39.5522847 39.5522847,40 39,40 Z M44,40 C43.4477153,40 43,39.5522847 43,39 C43,38.4477153 43.4477153,38 44,38 C44.5522847,38 45,38.4477153 45,39 C45,39.5522847 44.5522847,40 44,40 Z M39,45 C38.4477153,45 38,44.5522847 38,44 C38,43.4477153 38.4477153,43 39,43 C39.5522847,43 40,43.4477153 40,44 C40,44.5522847 39.5522847,45 39,45 Z M44,45 C43.4477153,45 43,44.5522847 43,44 C43,43.4477153 43.4477153,43 44,43 C44.5522847,43 45,43.4477153 45,44 C45,44.5522847 44.5522847,45 44,45 Z M47,37 C46.4477153,37 46,36.5522847 46,36 C46,35.4477153 46.4477153,35 47,35 C47.5522847,35 48,35.4477153 48,36 C48,36.5522847 47.5522847,37 47,37 Z M47,42 C46.4477153,42 46,41.5522847 46,41 C46,40.4477153 46.4477153,40 47,40 C47.5522847,40 48,40.4477153 48,41 C48,41.5522847 47.5522847,42 47,42 Z M49,40 C48.4477153,40 48,39.5522847 48,39 C48,38.4477153 48.4477153,38 49,38 C49.5522847,38 50,38.4477153 50,39 C50,39.5522847 49.5522847,40 49,40 Z M49,45 C48.4477153,45 48,44.5522847 48,44 C48,43.4477153 48.4477153,43 49,43 C49.5522847,43 50,43.4477153 50,44 C50,44.5522847 49.5522847,45 49,45 Z M41,48 C40.4477153,48 40,47.5522847 40,47 C40,46.4477153 40.4477153,46 41,46 C41.5522847,46 42,46.4477153 42,47 C42,47.5522847 41.5522847,48 41,48 Z M41,53 C40.4477153,53 40,52.5522847 40,52 C40,51.4477153 40.4477153,51 41,51 C41.5522847,51 42,51.4477153 42,52 C42,52.5522847 41.5522847,53 41,53 Z M39,50 C38.4477153,50 38,49.5522847 38,49 C38,48.4477153 38.4477153,48 39,48 C39.5522847,48 40,48.4477153 40,49 C40,49.5522847 39.5522847,50 39,50 Z M44,50 C43.4477153,50 43,49.5522847 43,49 C43,48.4477153 43.4477153,48 44,48 C44.5522847,48 45,48.4477153 45,49 C45,49.5522847 44.5522847,50 44,50 Z M39,55 C38.4477153,55 38,54.5522847 38,54 C38,53.4477153 38.4477153,53 39,53 C39.5522847,53 40,53.4477153 40,54 C40,54.5522847 39.5522847,55 39,55 Z M44,55 C43.4477153,55 43,54.5522847 43,54 C43,53.4477153 43.4477153,53 44,53 C44.5522847,53 45,53.4477153 45,54 C45,54.5522847 44.5522847,55 44,55 Z M47,48 C46.4477153,48 46,47.5522847 46,47 C46,46.4477153 46.4477153,46 47,46 C47.5522847,46 48,46.4477153 48,47 C48,47.5522847 47.5522847,48 47,48 Z M47,53 C46.4477153,53 46,52.5522847 46,52 C46,51.4477153 46.4477153,51 47,51 C47.5522847,51 48,51.4477153 48,52 C48,52.5522847 47.5522847,53 47,53 Z M49,50 C48.4477153,50 48,49.5522847 48,49 C48,48.4477153 48.4477153,48 49,48 C49.5522847,48 50,48.4477153 50,49 C50,49.5522847 49.5522847,50 49,50 Z M49,55 C48.4477153,55 48,54.5522847 48,54 C48,53.4477153 48.4477153,53 49,53 C49.5522847,53 50,53.4477153 50,54 C50,54.5522847 49.5522847,55 49,55 Z" id="Combined-Shape" fill="#FFFFFF" fill-rule="nonzero"></path>
            <ellipse id="Oval" stroke="#FFFFFF" stroke-width="2" stroke-dasharray="4" cx="43.5" cy="44.5" rx="43.5" ry="44.5"></ellipse>
        </g>
    </g>
</svg>