<?xml version="1.0" encoding="UTF-8"?>
<svg width="22px" height="13px" viewBox="0 0 22 13" version="1.1" xmlns="http://www.w3.org/2000/svg" xmlns:xlink="http://www.w3.org/1999/xlink">
    <!-- Generator: Sketch 49.1 (51147) - http://www.bohemiancoding.com/sketch -->
    <title>Group 14</title>
    <desc>Created with Sketch.</desc>
    <defs></defs>
    <g id="Page-1" stroke="none" stroke-width="1" fill="none" fill-rule="evenodd" stroke-linecap="round" stroke-linejoin="round">
        <g id="Anonymous_FlightDetails" transform="translate(-30.000000, -718.000000)" stroke="#666666" stroke-width="1.08">
            <g id="Group-17" transform="translate(18.000000, 553.000000)">
                <g id="Group-41" transform="translate(1.000000, 67.000000)">
                    <g id="Group-51" transform="translate(0.000000, 6.000000)">
                        <g id="Group-14" transform="translate(12.000000, 90.000000)">
                            <path d="M13.6202709,13.6564048 L12.9399124,13.6564048 M10.262257,13.6564048 L2.20909696,13.6564048 C1.18166786,13.6563966 0.348772011,12.8235007 0.348772011,11.7960716 C0.348772011,11.5456201 0.399343482,11.2977472 0.497454746,11.0673125 C1.09026227,9.67498085 1.92416299,9.46408482 2.63175378,7.77697 C3.26073697,6.27727998 4.7281895,5.30145023 6.35443979,5.30145023 L6.29700103,5.30144129" id="Rectangle-8"></path>
                            <path d="M3.66159167,8.72403984 L4.60876821,8.72403984" id="Path-3"></path>
                            <path d="M6.0138541,8.72403984 L6.96103064,8.72403984" id="Path-3-Copy"></path>
                            <circle id="Oval-6" transform="translate(14.609268, 10.859748) rotate(-315.000000) translate(-14.609268, -10.859748) " cx="14.6092684" cy="10.8597481" r="1.08"></circle>
                            <path d="M16.4092684,6.0050468 C14.4210433,6.0050468 12.8092684,7.6168217 12.8092684,9.6050468" id="Oval-4" transform="translate(14.609268, 7.805047) rotate(-315.000000) translate(-14.609268, -7.805047) "></path>
                            <path d="M18.5692684,1.80857927 C14.1951732,1.80857927 10.6492684,5.35448405 10.6492684,9.72857927" id="Oval-4-Copy" transform="translate(14.609268, 5.768579) rotate(-315.000000) translate(-14.609268, -5.768579) "></path>
                        </g>
                    </g>
                </g>
            </g>
        </g>
    </g>
</svg>