<svg version="1" xmlns="http://www.w3.org/2000/svg" width="5270.667" height="5270.667" viewBox="0 0 3953.000000 3953.000000"><path d="M4.8 1184.8l-4.7.3 2.2 3.5c1.2 1.9 2.7 4.3 3.2 5.2.6.9 3.9 6.6 7.5 12.5l8.1 13.5c.9 1.5 19.8 32.8 41.9 69.7 22.2 36.8 41 68.2 41.9 69.7.9 1.5 5 8.2 9.1 15 4.1 6.8 8 13.2 8.6 14.3.6 1.1 2.6 4.5 4.5 7.5s4.1 6.7 4.9 8.2c1.4 2.4 30.9 51.2 33.1 54.8.5.8 4 6.6 7.7 12.8 3.7 6.2 26.1 43.5 49.7 82.7 23.7 39.3 43.7 72.7 44.6 74.3 1.3 2.1 37.2 61.8 44.8 74.4 2.5 4.2 14.5 24.1 15.6 26 .5 1 7.1 11.8 14.5 24 7.4 12.3 14.7 24.3 16.1 26.8 1.4 2.5 17.1 28.6 34.9 58 17.7 29.4 33 54.9 34 56.6 1 1.7 7.1 11.8 13.5 22.5 6.5 10.7 12.5 20.6 13.4 22.1.9 1.5 5.4 9.1 10.1 16.8 9 15 9.9 16.4 13.3 22.3 1.2 2.1 6.1 10.2 10.8 18 4.8 7.8 34 56.3 64.9 107.7 30.9 51.4 64.2 106.6 73.9 122.7 9.7 16.1 18.2 30.2 18.9 31.5.7 1.3 2.3 3.9 3.5 6 1.2 2 16.6 27.5 34.2 56.7 17.6 29.2 32.9 54.6 34 56.4 7.5 12.6 23.2 38.8 31.6 52.6 5.4 9.1 9.9 16.8 9.9 17.3 0 .4.5.8 1 .8.6 0 1 .4 1 1 0 .5 2.5 5.1 5.6 10.2 8 13 8.4 13.8 12.9 21.3 2.2 3.7 4.7 7.9 5.6 9.4 1.6 2.5 11.4 18.9 94.6 157.1 22.6 37.7 48 79.8 56.3 93.6 8.2 13.9 15.6 25.6 16.3 26.2.7.5 10.6.9 24.5.9h23.2v-548.4l-2.9-4.4c-1.5-2.4-9.2-15.4-17.1-28.9-7.9-13.5-16.3-27.9-18.8-32-2.5-4.1-8.9-14.9-14.2-24-5.3-9.1-13.4-22.8-17.9-30.5-4.6-7.7-9.5-16-10.9-18.5-1.4-2.5-4-6.9-5.9-9.8-1.8-2.9-3.3-5.4-3.3-5.7 0-.3-20.2-34.8-25.3-43-1.3-2.2-6.3-10.5-10.9-18.5-4.7-8-18.3-31.2-30.3-51.5-12-20.4-29.2-49.6-38.3-65-9.1-15.4-17.2-29.2-18.1-30.7-.9-1.5-5.2-8.9-9.7-16.5-4.4-7.6-11.8-20.1-16.3-27.8-4.6-7.7-9.2-15.6-10.3-17.5-1.1-1.9-4.2-7.1-6.8-11.5-2.6-4.4-11.7-19.7-20.1-34-21.5-36.6-36.5-62.1-44.4-75.5-10.7-18.1-25.9-44-36.5-62-5.3-9.1-10.9-18.4-12.3-20.7-1.5-2.4-2.7-4.5-2.7-4.8 0-.4-1.4-2.6-3-5-1.7-2.4-3-4.6-3-4.9 0-.3-1.9-3.6-4.2-7.3-2.2-3.8-4.9-8.2-5.8-9.8-1-1.7-4-6.8-6.7-11.5-2.8-4.7-10.5-18-17.3-29.5-6.7-11.6-13.3-22.6-14.5-24.5-2.5-3.9-31.3-52.9-35.3-60-1.3-2.5-2.8-5-3.2-5.5-.9-1.1-25.7-43.2-29.8-50.5-2.3-4-4.2-7.4-7.9-13.5-1-1.8-11.4-19.3-36.9-62.5-5-8.5-13.7-23.3-19.3-32.8-30.8-52.4-49.2-83.5-49.7-84.1-.3-.4-379-.7-385.6-.3zM1153 1184.8l-2.5.3V1529h3c4.6.1 1057.5.1 1061.8.1l3.7-.1v-172c0-136.9-.3-172-1.2-172.1-5.5-.2-1062.9-.3-1064.8-.1zM3122.9 1185.4c-.2.2-5.6.7-11.9 1-6.3.4-13.1.8-15 1-1.9.2-6.9.7-11 1-4.1.4-8.6.9-10 1.1-1.4.2-5.4.7-9 1.1-3.6.3-7.3.8-8.4 1-1 .2-4.4.6-7.5.9-3.1.4-6.3.8-7.1 1-.8.2-3.3.7-5.5 1-2.3.3-5.2.7-6.5 1-1.3.3-4.2.7-6.5 1.1-2.2.3-5.8.9-8 1.4-2.2.5-5.3 1.1-7 1.4-8.4 1.5-27.7 5.7-29.9 6.6-1.4.5-2.6.8-2.6.6 0-.2-5.1.9-11.2 2.6-6.2 1.6-13.1 3.4-15.3 3.9-16.2 4-69.5 22-83.9 28.3-1.7.8-8.6 3.7-15.4 6.5-19.3 8.2-56 25.8-68.7 33.1-2.2 1.3-6.9 4-10.5 6-9.6 5.4-12.6 7.1-23 13.5-10.9 6.6-32.8 20.9-41.2 26.9-3.1 2.3-6.6 4.8-7.8 5.6-7.1 4.8-32.4 24.4-44.1 34.2-20.1 16.8-28.6 24.5-47.9 43.3-24.9 24.3-36.6 37.1-67.9 75-11.7 14.2-37.7 51.3-51.8 74-37.2 60.2-67.4 127.4-85.9 191.5-2.4 8.5-4.8 16.8-5.3 18.5-1 3-3 10.6-3.6 13.5-.2.8-2 8.3-3.9 16.6s-3.7 16.3-4 17.8c-.3 1.4-1 5.2-1.6 8.4-.5 3.1-1.2 6.8-1.5 8.2-.9 4.3-3.7 21.3-4.1 25-.3 1.9-.9 6.2-1.4 9.5-.5 3.3-1.2 9.1-1.5 13-.4 3.8-.8 7.7-1 8.5-.4 1.5-2.1 19.8-3 33-2.7 39-1.9 95.7 2 131 .8 7.3 1.6 14.6 2.1 18 .2 1.9.6 5.5.9 8 .3 2.5.7 5.6 1 7 .2 1.4.7 4.5 1 7 .9 6.6 4.5 27.8 5.6 32.8.5 2.3 1.1 5.7 1.4 7.5.5 2.8 5.8 26.5 6.9 30.7.3.8 1.1 4.2 1.9 7.5 6.9 27.5 22 74.6 29.1 90.8.7 1.8 1.9 4.8 2.6 6.7 3.6 9.8 18.4 42.7 26.6 59 31.5 63.1 68.3 117.6 116.8 173 10.3 11.7 45.3 47.3 56.2 57 3.3 3 8 7.3 10.5 9.5 2.4 2.2 7.3 6.4 10.9 9.4 3.6 3 7 6 7.5 6.5 2.8 3 32.9 26.1 49 37.7 16.8 12 66.9 43.9 68.9 43.9.2 0 3.5 1.7 7.3 3.9 19 10.7 58.8 30 77.3 37.3 4.1 1.6 8.9 3.6 10.5 4.3 16.9 7.5 80.5 28.3 97.9 32 3.9.8 6.1 1.3 12.1 2.9 3.3.8 7.5 1.8 9.4 2.1 1.9.3 3.7.7 4 .9.3.2 2.2.7 4.1 1 1.9.3 4.6.8 6 1.1 8.9 1.9 34.8 6.5 41.6 7.5 4.4.6 8.9 1.2 10 1.4 1 .2 4.6.7 7.9 1 3.3.4 7.4.9 9 1.1 7.7 1 12.6 1.5 20.2 2 4.6.4 9.2.8 10.3 1 12.7 2.4 95.4 2.5 121 0 1.9-.1 7.1-.6 11.5-.9 4.4-.4 9.6-.9 11.5-1.1 1.9-.2 6-.6 9.1-1 3.1-.3 6.5-.7 7.5-.9 1.1-.2 4.4-.7 7.5-1 3.1-.4 6.5-.8 7.5-1 1.1-.2 4.1-.7 6.7-1 2.7-.4 5.8-.9 7-1.2 1.2-.2 3.7-.6 5.7-.9 3.5-.5 6.1-1 11-2 1.4-.2 3.9-.7 5.5-1 3.6-.6 4.9-.8 17.9-3.5 5.5-1.2 10.2-2.3 10.6-2.5.4-.2 2-.7 3.6-1 1.6-.3 6.5-1.4 10.9-2.5 4.4-1.2 8.7-2.2 9.5-2.4 2.1-.5 11-3 20-5.6 9.1-2.6 24.6-7.5 32-10.2 3-1.1 7-2.4 8.9-3 3.7-1.1 20.4-7.3 23.6-8.7 1.1-.5 5.2-2.2 9-3.7 6.6-2.5 17.6-7.2 31-13.2 11.2-5 44.9-22 55.5-28 5.8-3.2 12.8-7.2 15.5-8.7 13.6-7.6 47.5-29.6 61-39.4 5.8-4.3 24.3-18.1 26.5-19.8 4.2-3.3 24.9-20.1 27.4-22.3 36.6-31.6 69.2-64.9 99.5-101.5 7.3-8.8 21.4-27.2 28.8-37.5 9-12.5 26.3-37.9 26.3-38.5 0-.2 1.3-2.3 2.9-4.7 19.8-29.4 56.8-103.5 69.1-138.3 1-2.8 4-11.3 6.8-19 4.3-12.1 10.5-30.9 11.7-35.5.2-.8 2-7.1 4-14 3.4-12 10.9-42.5 11.9-48.3.3-1.5.7-3.5 1-4.5.3-.9.7-3.4 1.1-5.6.3-2.1.7-4.1.9-4.5.2-.3.7-3.1 1.1-6.1.4-3 .8-5.7 1-6 .2-.3.6-2.6 1-5 .3-2.5 1-7 1.5-10s1.2-7.3 1.5-9.5c.4-2.2.8-5.1 1.1-6.5.2-1.4.6-5 .9-8 .3-3 .8-7.3 1.1-9.5.6-4.2.9-6.6 1.8-18.5.4-4.1.9-9.5 1.1-12 2.4-22.3 2.4-94.5 0-120-.2-1.9-.6-7.3-1-11.9-.4-4.7-.8-9.2-1-10-.1-.9-.6-5-1-9.1s-.8-8.2-1-9c-.1-.8-.6-4-1-7-.3-3-1.5-10.7-2.5-17-1.1-6.3-2.2-13.3-2.6-15.4-1-6.7-4-21.5-7.4-36.1-1.7-7.7-3.3-14.9-3.6-16.1-.5-2.6-7.8-28.8-10.5-37.9-5.8-19.1-18.6-55.5-23-65.2-1-2.3-1.9-4.5-1.9-4.8 0-.3-.9-2.7-2.1-5.3-1.2-2.6-2.8-6.3-3.6-8.2-.8-1.9-2.8-6.3-4.4-9.8-1.6-3.5-2.9-6.5-2.9-6.8 0-1-22.9-46.2-25.4-50.3-1.4-2.2-2.6-4.3-2.6-4.5 0-1.8-21.8-37.5-35.3-57.6-17.3-25.9-46.8-63.9-64.8-83.5-2-2.2-6.3-6.9-9.5-10.5-6.8-7.4-38.5-39.3-45.9-46-6.8-6.1-20.9-18.5-27.4-24-2.9-2.5-6.3-5.3-7.5-6.4-1.1-1-4.6-3.7-7.6-6-3-2.2-5.7-4.4-6-4.7-1.6-1.9-34-25.3-48.6-35.1-73.8-49.5-159-87.4-244.4-108.9-9.6-2.4-28.4-6.8-31.9-7.4-1.4-.3-3.7-.7-5.1-1-8.4-1.7-38-6.8-47-8-1.4-.2-4.3-.6-6.5-.9-2.2-.3-6-.8-8.5-1-5.9-.6-14.7-1.6-18.5-2.1-1.6-.3-7.5-.7-13-1-5.5-.4-11.3-.9-13-1.1-3.4-.7-89-1.6-89.6-1zm78.1 340.1c2.5.2 6.5.7 9 1.1 2.5.3 5.6.7 7 .9 6.2.6 13.9 1.7 18.5 2.5 2.8.5 6.6 1.2 8.5 1.5 3 .5 14.4 2.9 19 4 .8.2 2.9.6 4.5 1 47.9 11.4 99 33.4 140 60.4 27.8 18.2 49.5 36 73.6 60 41.1 41.2 69.7 82.9 94.4 137.6 13.9 30.9 26.2 71.9 32 107.2.3 1.8.7 4.6 1 6.1.7 4 2.2 16.4 3 24.7 2.6 25.7 2.5 63.9-.1 89-8 76-32.9 144.5-75.7 208.4-6.1 9.1-19.5 27.2-25.5 34.2-11.8 14-16.5 19.1-29.7 32.4-63.2 63.4-147 107.8-234 124-4.9 1-9.9 1.9-11 2.1-1.1.2-3.8.6-6 .9-2.2.3-5.8.8-8 1.1-2.2.3-5.1.7-6.5.9-24.7 3.4-67.4 3.9-97 1.1-11.1-1.1-17.7-1.8-19-2.1-.8-.2-3.5-.7-6-1-2.5-.3-9.2-1.5-15-2.6-5.8-1.2-11.6-2.3-13-2.5-13.1-2.5-45-11.8-61.5-18.1-22.9-8.6-57.4-25-70.7-33.6-3.1-2-6-3.7-6.3-3.7-.9 0-24.1-15.7-34.5-23.3-38.3-28.2-85.5-77.6-106.5-111.6-.5-.9-1.3-1.8-1.6-2.1-.3-.3-4.7-7.3-9.7-15.7-15.4-25.5-27.9-51.8-38.1-79.4-4.6-12.7-11.7-35.3-12.7-40.9-.3-1.4-.9-3.9-1.4-5.5-2.6-8.8-8.2-39.1-9.5-51.1-.3-2.7-.8-6-1-7.4-2.7-15.7-2.7-76.8 0-98 .1-1.4.6-5.4 1-9 .3-3.6.8-7.2 1-8 .2-.8.7-3.5 1-6 .4-2.5 1.3-7.7 2-11.5.8-3.9 1.7-8.5 2-10.3 2.6-15.3 15.3-57.1 23.2-76.2 8.2-20 21.2-46.3 30.7-62 52.1-86.2 129.1-152 221.1-188.8 14.3-5.7 38.2-13.9 43.4-14.9 1.4-.2 2.8-.6 3.3-.9.4-.3 1.6-.7 2.5-.9 1-.2 7.4-1.7 14.3-3.4 6.9-1.6 14.1-3.3 16-3.6 1.9-.3 7.1-1.2 11.5-2 8.9-1.5 12.6-2.1 20-3 2.8-.3 6.4-.8 8-1 1.7-.2 7.3-.7 12.5-1.1 5.2-.3 9.7-.8 9.9-1 .5-.4 60.4.5 66.1 1.1zM1150.5 1976.2v163.3l316.6.1 316.6.1-.1-163.1-.1-163.1-316.5-.3-316.5-.2v163.2zM.4 2374.2l.1 393.3h390v-218l-27.7-46c-15.2-25.3-32.8-54.6-39.1-65-6.3-10.5-17.4-28.9-24.7-41-7.3-12.1-14.1-23.4-15-25-1-1.7-4.8-8-8.5-14-3.7-6.1-7.7-12.6-8.9-14.7-1.2-2-13.8-23-28.1-46.7-14.3-23.7-26.7-44.3-27.6-45.8-2-3.4-23.4-38.6-26-42.8-1-1.7-2.2-3.6-2.6-4.4-.3-.8-3.6-6.2-7.1-12-3.6-5.8-7.3-12-8.2-13.6-1.6-2.7-19.2-31.9-88.3-146.5-12.1-20.1-23.9-39.7-26.2-43.5l-4.2-7-24-.3-24-.2.1 393.2zM1150.8 2424.3c-.2.7-.4 78.1-.4 172.2l.1 171 534.3.1 534.2.1v-344.6l-533.9.1c-403.6 0-534 .3-534.3 1.1z"/></svg>