<?xml version="1.0" encoding="UTF-8"?>
<svg width="48px" height="48px" viewBox="0 0 48 48" version="1.1" xmlns="http://www.w3.org/2000/svg" xmlns:xlink="http://www.w3.org/1999/xlink">
    <!-- Generator: Sketch 47.1 (45422) - http://www.bohemiancoding.com/sketch -->
    <title>Group 55</title>
    <desc>Created with Sketch.</desc>
    <defs></defs>
    <g id="Page-1" stroke="none" stroke-width="1" fill="none" fill-rule="evenodd">
        <g id="Group-55" transform="translate(1.000000, 1.000000)">
            <circle id="Oval-3" stroke="#E3E3E3" fill="#FFFFFF" cx="23" cy="23" r="23"></circle>
            <path d="M18.1672187,16.8378086 C17.9439102,16.7576289 17.6977422,16.8733867 17.6174766,17.0966953 L17.6021797,17.1393633 C17.522043,17.3628438 17.6381875,17.6088398 17.8615391,17.6889336 C17.9094922,17.7061211 17.9584336,17.7142852 18.0065586,17.7142852 C18.1828164,17.7142852 18.3481172,17.6049727 18.4110664,17.4295313 L18.4261055,17.3875938 C18.506457,17.1642852 18.3905273,16.9181602 18.1672187,16.8378086 Z" id="Shape" fill="#878787" fill-rule="nonzero"></path>
            <path d="M33.4790469,22.7368594 C33.4790469,19.8689531 32.3622031,17.172707 30.334293,15.1447969 C28.3063828,13.1168008 25.6100938,12 22.7421875,12 C19.8742813,12 17.1779922,13.1168008 15.150082,15.1447969 C13.1221719,17.172707 12.0053281,19.8689531 12.0053281,22.7368594 C12.0053281,22.9263086 12.0106563,23.1216875 12.0210977,23.3175391 C12.0268555,23.4252617 12.0733477,23.5244336 12.1475117,23.5983828 C12.147168,23.5985117 12.1469102,23.5986406 12.1466094,23.5987266 L22.4386133,33.8744023 C22.5191797,33.9547969 22.6283633,34 22.7421875,34 L22.748332,34 C22.8621563,34 22.9713398,33.9547969 23.0519063,33.8743594 L33.3439102,23.5986836 C33.3421484,23.5978242 33.3407734,23.5969648 33.3390547,23.5961055 C33.4119297,23.5223711 33.4576055,23.4241445 33.4632773,23.3174961 C33.4737188,23.1216875 33.4790469,22.9263086 33.4790469,22.7368594 Z M13.1601563,23.3962578 C13.5148203,23.2448359 13.8977148,23.1661172 14.2897188,23.1661172 C15.2950586,23.1661172 16.2114102,23.6776172 16.7411719,24.5343711 L20.519457,30.7438711 L13.1601563,23.3962578 Z M22.3125,32.0374883 L17.6179492,24.3220625 C18.1608594,23.5939141 19.0054961,23.1661172 19.9246836,23.1661172 C20.8910078,23.1661172 21.774918,23.6388594 22.3125,24.4363164 L22.3125,32.0374883 Z M22.3125,23.1655586 C21.6522852,22.6158594 20.8154688,22.3067422 19.9246836,22.3067422 C18.9681133,22.3067422 18.0737617,22.6632969 17.3935664,23.2914141 C17.4261367,21.9486406 17.5782891,20.6477187 17.8474023,19.4170508 C17.8981055,19.1851914 17.7512813,18.956168 17.5194219,18.9054648 C17.2876484,18.8548906 17.058582,19.0016289 17.0078789,19.2334453 C16.7413867,20.452125 16.5851523,21.7353008 16.5408945,23.0574492 C15.903625,22.5756406 15.1201328,22.3068281 14.2897188,22.3068281 C13.7965664,22.3068281 13.3143711,22.4027344 12.8658203,22.5876719 C12.9313047,18.1907656 15.884375,14.4814023 19.9087422,13.2741094 C19.4072969,13.7566055 18.9404414,14.3698125 18.5221406,15.104793 C18.40475,15.311043 18.4768086,15.5733672 18.6830586,15.6908008 C18.8893516,15.8081055 19.1516758,15.7360898 19.2690234,15.5298828 C20.137293,14.0042344 21.2044648,13.0864219 22.3125,12.8967578 L22.3125,23.1655586 Z M23.171875,12.8961563 C24.3896094,13.1010313 25.5402695,14.172457 26.4496172,15.9660586 C27.4468359,17.9330391 28.0236055,20.51675 28.0908945,23.2915 C27.4106563,22.6633398 26.5163047,22.3067852 25.5596914,22.3067852 C24.6689063,22.3067852 23.8320898,22.6159023 23.171875,23.1656016 L23.171875,12.8961563 Z M24.9710625,30.7439141 L26.920082,27.5407227 C27.0434453,27.3379531 26.9790781,27.0736523 26.7763516,26.9502891 C26.573668,26.8269687 26.3092813,26.8913359 26.185918,27.0940195 L23.171875,32.047543 L23.171875,24.4363164 C23.709457,23.6388164 24.5933672,23.1661172 25.5596914,23.1661172 C26.565332,23.1661172 27.4819414,23.677918 28.0116172,24.5351445 C28.0899063,24.6618594 28.2282227,24.7389883 28.3771523,24.7389883 C28.526082,24.7389883 28.6643984,24.6618594 28.7426875,24.5351445 C29.2723633,23.677918 30.1889727,23.1661172 31.1946133,23.1661172 C31.588207,23.1661172 31.9726484,23.2453945 32.3285156,23.3980195 L24.9710625,30.7439141 Z M31.1946563,22.3067422 C30.3641992,22.3067422 29.58075,22.5755547 28.9434805,23.0573633 C28.8488203,20.2368516 28.2441211,17.6051016 27.2160938,15.5774063 C26.7357891,14.6300742 26.1847148,13.8579258 25.5832813,13.2763438 C29.6037383,14.486043 32.5531133,18.1935586 32.6185547,22.5875859 C32.1700039,22.4026484 31.6878086,22.3067422 31.1946563,22.3067422 Z" id="Shape" fill="#878787" fill-rule="nonzero"></path>
            <path d="M27.7059375,25.6180859 C27.6260156,25.5381641 27.5151563,25.4921875 27.4021484,25.4921875 C27.2891406,25.4921875 27.1782813,25.5381211 27.0983594,25.6180859 C27.0184375,25.6980508 26.9724609,25.8088672 26.9724609,25.921875 C26.9724609,26.0348828 27.0184375,26.1457422 27.0983594,26.2256211 C27.1782813,26.3055859 27.2887109,26.3515625 27.4021484,26.3515625 C27.5151563,26.3515625 27.6260156,26.3055859 27.7059375,26.2256211 C27.7858594,26.1457422 27.8318359,26.0348828 27.8318359,25.921875 C27.8318359,25.8088672 27.7858594,25.6980078 27.7059375,25.6180859 Z" id="Shape" fill="#878787" fill-rule="nonzero"></path>
        </g>
    </g>
</svg>