<?xml version="1.0" encoding="UTF-8"?>
<svg width="48px" height="48px" viewBox="0 0 48 48" version="1.1" xmlns="http://www.w3.org/2000/svg" xmlns:xlink="http://www.w3.org/1999/xlink">
    <!-- Generator: Sketch 47.1 (45422) - http://www.bohemiancoding.com/sketch -->
    <title>Group 26</title>
    <desc>Created with Sketch.</desc>
    <defs></defs>
    <g id="Page-1" stroke="none" stroke-width="1" fill="none" fill-rule="evenodd">
        <g id="Group-26" transform="translate(1.000000, 1.000000)">
            <circle id="Oval-3" stroke="#E3E3E3" cx="23" cy="23" r="23"></circle>
            <g id="parachute" transform="translate(12.000000, 12.000000)" fill-rule="nonzero" fill="#FFFFFF">
                <path d="M6.16721875,4.83780859 C5.94391016,4.75762891 5.69774219,4.87338672 5.61747656,5.09669531 L5.60217969,5.13936328 C5.52204297,5.36284375 5.6381875,5.60883984 5.86153906,5.68893359 C5.90949219,5.70612109 5.95843359,5.71428516 6.00655859,5.71428516 C6.18281641,5.71428516 6.34811719,5.60497266 6.41106641,5.42953125 L6.42610547,5.38759375 C6.50645703,5.16428516 6.39052734,4.91816016 6.16721875,4.83780859 Z" id="Shape"></path>
                <path d="M21.4790469,10.7368594 C21.4790469,7.86895312 20.3622031,5.17270703 18.334293,3.14479688 C16.3063828,1.11680078 13.6100938,0 10.7421875,0 C7.87428125,0 5.17799219,1.11680078 3.15008203,3.14479687 C1.12217188,5.17270703 0.005328125,7.86895312 0.005328125,10.7368594 C0.005328125,10.9263086 0.01065625,11.1216875 0.0210976562,11.3175391 C0.0268554687,11.4252617 0.0733476562,11.5244336 0.147511719,11.5983828 C0.147167969,11.5985117 0.146910156,11.5986406 0.146609375,11.5987266 L10.4386133,21.8744023 C10.5191797,21.9547969 10.6283633,22 10.7421875,22 L10.748332,22 C10.8621562,22 10.9713398,21.9547969 11.0519062,21.8743594 L21.3439102,11.5986836 C21.3421484,11.5978242 21.3407734,11.5969648 21.3390547,11.5961055 C21.4119297,11.5223711 21.4576055,11.4241445 21.4632773,11.3174961 C21.4737187,11.1216875 21.4790469,10.9263086 21.4790469,10.7368594 Z M1.16015625,11.3962578 C1.51482031,11.2448359 1.89771484,11.1661172 2.28971875,11.1661172 C3.29505859,11.1661172 4.21141016,11.6776172 4.74117188,12.5343711 L8.51945703,18.7438711 L1.16015625,11.3962578 Z M10.3125,20.0374883 L5.61794922,12.3220625 C6.16085938,11.5939141 7.00549609,11.1661172 7.92468359,11.1661172 C8.89100781,11.1661172 9.77491797,11.6388594 10.3125,12.4363164 L10.3125,20.0374883 Z M10.3125,11.1655586 C9.65228516,10.6158594 8.81546875,10.3067422 7.92468359,10.3067422 C6.96811328,10.3067422 6.07376172,10.6632969 5.39356641,11.2914141 C5.42613672,9.94864063 5.57828906,8.64771875 5.84740234,7.41705078 C5.89810547,7.18519141 5.75128125,6.95616797 5.51942187,6.90546484 C5.28764844,6.85489063 5.05858203,7.00162891 5.00787891,7.23344531 C4.74138672,8.452125 4.58515234,9.73530078 4.54089453,11.0574492 C3.903625,10.5756406 3.12013281,10.3068281 2.28971875,10.3068281 C1.79656641,10.3068281 1.31437109,10.4027344 0.865820313,10.5876719 C0.931304687,6.19076563 3.884375,2.48140234 7.90874219,1.27410938 C7.40729688,1.75660547 6.94044141,2.3698125 6.52214062,3.10479297 C6.40475,3.31104297 6.47680859,3.57336719 6.68305859,3.69080078 C6.88935156,3.80810547 7.15167578,3.73608984 7.26902344,3.52988281 C8.13729297,2.00423438 9.20446484,1.08642188 10.3125,0.896757813 L10.3125,11.1655586 Z M11.171875,0.89615625 C12.3896094,1.10103125 13.5402695,2.17245703 14.4496172,3.96605859 C15.4468359,5.93303906 16.0236055,8.51675 16.0908945,11.2915 C15.4106562,10.6633398 14.5163047,10.3067852 13.5596914,10.3067852 C12.6689062,10.3067852 11.8320898,10.6159023 11.171875,11.1656016 L11.171875,0.89615625 Z M12.9710625,18.7439141 L14.920082,15.5407227 C15.0434453,15.3379531 14.9790781,15.0736523 14.7763516,14.9502891 C14.573668,14.8269687 14.3092812,14.8913359 14.185918,15.0940195 L11.171875,20.047543 L11.171875,12.4363164 C11.709457,11.6388164 12.5933672,11.1661172 13.5596914,11.1661172 C14.565332,11.1661172 15.4819414,11.677918 16.0116172,12.5351445 C16.0899062,12.6618594 16.2282227,12.7389883 16.3771523,12.7389883 C16.526082,12.7389883 16.6643984,12.6618594 16.7426875,12.5351445 C17.2723633,11.677918 18.1889727,11.1661172 19.1946133,11.1661172 C19.588207,11.1661172 19.9726484,11.2453945 20.3285156,11.3980195 L12.9710625,18.7439141 Z M19.1946563,10.3067422 C18.3641992,10.3067422 17.58075,10.5755547 16.9434805,11.0573633 C16.8488203,8.23685156 16.2441211,5.60510156 15.2160938,3.57740625 C14.7357891,2.63007422 14.1847148,1.85792578 13.5832813,1.27634375 C17.6037383,2.48604297 20.5531133,6.19355859 20.6185547,10.5875859 C20.1700039,10.4026484 19.6878086,10.3067422 19.1946563,10.3067422 Z" id="Shape"></path>
                <path d="M15.7059375,13.6180859 C15.6260156,13.5381641 15.5151562,13.4921875 15.4021484,13.4921875 C15.2891406,13.4921875 15.1782812,13.5381211 15.0983594,13.6180859 C15.0184375,13.6980508 14.9724609,13.8088672 14.9724609,13.921875 C14.9724609,14.0348828 15.0184375,14.1457422 15.0983594,14.2256211 C15.1782812,14.3055859 15.2887109,14.3515625 15.4021484,14.3515625 C15.5151562,14.3515625 15.6260156,14.3055859 15.7059375,14.2256211 C15.7858594,14.1457422 15.8318359,14.0348828 15.8318359,13.921875 C15.8318359,13.8088672 15.7858594,13.6980078 15.7059375,13.6180859 Z" id="Shape"></path>
            </g>
        </g>
    </g>
</svg>