<?xml version="1.0" encoding="UTF-8"?>
<svg width="48px" height="48px" viewBox="0 0 48 48" version="1.1" xmlns="http://www.w3.org/2000/svg" xmlns:xlink="http://www.w3.org/1999/xlink">
    <!-- Generator: Sketch 47.1 (45422) - http://www.bohemiancoding.com/sketch -->
    <title>Group 44</title>
    <desc>Created with Sketch.</desc>
    <defs></defs>
    <g id="Page-1" stroke="none" stroke-width="1" fill="none" fill-rule="evenodd">
        <g id="Group-44" transform="translate(1.000000, 1.000000)">
            <circle id="Oval-3" stroke="#E3E3E3" fill="#FFFFFF" cx="23" cy="23" r="23"></circle>
            <path d="M12.1493839,17.8880446 C12.1493839,17.4196116 12.5227946,16.9961116 13.2908795,16.5932857 C13.8926875,16.2777232 14.7582009,15.9660402 15.7938705,15.6919732 C16.0299286,15.6296071 16.2717813,15.77025 16.3341964,16.0061116 C16.3966116,16.2421205 16.2559688,16.4839732 16.0200089,16.5464375 C13.763683,17.1435313 13.1087411,17.7037455 13.0379777,17.8787143 C13.094058,17.9462857 13.465308,18.2930313 15.2361607,18.4549375 C16.6759821,18.5865446 18.5473571,18.5432813 20.5057009,18.3330045 C22.5345625,18.1151161 24.456125,17.7409688 25.916375,17.2796071 C27.5325893,16.768942 28.0118259,16.323933 28.0682991,16.1855 C27.9728839,16.0497188 27.321625,15.6902054 25.3616607,15.5729375 C25.1179911,15.5583527 24.932317,15.3489598 24.9468527,15.1053884 C24.9614375,14.8617188 25.1707321,14.6755536 25.4144018,14.6905804 C27.7977188,14.8331875 28.9563036,15.3197411 28.9563036,16.1780357 C28.9563036,16.8787455 28.0937857,17.5003929 26.3194464,18.0785804 C24.7874018,18.5778527 22.756183,18.9803348 20.6000848,19.211875 C19.4285848,19.3377366 18.1943259,19.4109063 17.0433527,19.4109063 C14.9592455,19.4109063 13.1482232,19.1708705 12.4774688,18.5682768 C12.2062991,18.3246563 12.1493839,18.0638973 12.1493839,17.8880446 Z M17.2687545,16.238192 C17.5738571,16.9758304 18.2602277,17.4724509 19.0600848,17.5343259 C19.0716741,17.5352098 19.0832143,17.5356027 19.0946563,17.5356027 C19.32325,17.5356027 19.5169286,17.3594554 19.5348036,17.1276696 C19.5536116,16.8843438 19.3715714,16.671808 19.1281964,16.6529509 C18.6622188,16.6169554 18.262683,16.3285982 18.0856027,15.9003348 L17.6839063,14.9292411 C17.5594688,14.628558 17.5602545,14.295808 17.6861161,13.9922768 C17.8119777,13.6887455 18.0469554,13.4530804 18.3476384,13.3286429 C18.5096429,13.2616116 18.6807321,13.2308214 18.8552589,13.2369598 C19.0991741,13.2451116 19.3039509,13.0548214 19.3125938,12.8109063 C19.3212366,12.566942 19.1305045,12.3622143 18.8865402,12.3535714 C18.5843839,12.3424732 18.2895446,12.3961473 18.0097813,12.5117946 C17.4908661,12.7264911 17.0859286,13.1320179 16.8696607,13.6536339 C16.6532946,14.17525 16.6524107,14.7483304 16.8671071,15.2671473 L17.2687545,16.238192 Z M20.0472366,16.3647902 C19.7204777,15.9042143 19.5923571,15.3456696 19.6864955,14.7920357 L19.8624464,13.7560714 C20.0574509,12.6093705 21.148808,11.8352946 22.2954107,12.0300045 C22.8490446,12.1240938 23.3338795,12.4295893 23.6606875,12.8902143 C23.9873973,13.3507411 24.115567,13.9092857 24.0214777,14.4629196 L23.8453795,15.498933 C23.6707054,16.5264018 22.7761205,17.2549554 21.7670179,17.2550045 C21.6500446,17.2550045 21.5316473,17.2452321 21.4125134,17.225 C20.8588795,17.1308616 20.3739955,16.8253661 20.0472366,16.3647902 Z M20.7681295,15.8533393 C20.9582723,16.121317 21.2397054,16.2989375 21.5605714,16.3534955 C22.2265625,16.4667366 22.860683,16.0169152 22.973875,15.3508259 L23.1499732,14.3148125 C23.2044821,13.9939464 23.1298393,13.6695938 22.9397455,13.401567 C22.7496027,13.1335893 22.4681696,12.9559688 22.1473036,12.9014107 C22.0781607,12.8896741 22.0092634,12.8839777 21.9413482,12.8839777 C21.3551071,12.8839777 20.8354063,13.307183 20.7338527,13.9041295 L20.5579018,14.9400938 C20.5033438,15.2610089 20.5780357,15.5853125 20.7681295,15.8533393 Z M28.5310357,29.1271964 C25.3493839,31.1647991 19.9665045,33.2769955 15.6646205,33.1019777 C15.4196741,33.0908304 15.2148973,33.2816116 15.2049777,33.5255268 C15.1950089,33.7693929 15.3846607,33.9751518 15.6285268,33.9851205 C15.8062455,33.9923884 15.9852411,33.9959732 16.1661518,33.9959732 C20.5593259,33.9959732 25.8433527,31.8980179 29.0077188,29.8715625 C29.2132813,29.7399063 29.273192,29.4665759 29.1415848,29.2610134 C29.0099286,29.0554509 28.7365982,28.9956384 28.5310357,29.1271964 Z M22.9339509,20.3713929 C22.8452634,20.1439286 22.5889732,20.0316205 22.3616071,20.1202589 C22.1342411,20.2089464 22.0217857,20.4651875 22.1104732,20.6926027 C22.5918705,21.9268125 23.4696116,23.1308705 24.5820848,24.0829598 C25.7857009,25.1130804 27.1216116,25.7359063 28.4453438,25.8842589 C28.4620402,25.886125 28.4786875,25.887058 28.4950893,25.887058 C28.7171518,25.887058 28.9084732,25.7201429 28.9338125,25.49425 C28.9609688,25.2517098 28.7863438,25.0329866 28.5438036,25.0058304 C25.9612098,24.716442 23.726,22.4020714 22.9339509,20.3713929 Z M32.24,23.4415714 C31.8078571,22.7385536 30.6495179,22.6420089 29.6578973,23.2266786 C29.4476205,23.3505759 29.3776429,23.6215491 29.5015893,23.8318259 C29.6254866,24.0421027 29.8965089,24.1121786 30.1067366,23.9881339 C30.7063839,23.6347098 31.3573973,23.6936875 31.4868929,23.9044554 C31.6217902,24.1239152 31.36825,25.1592902 28.5310357,26.9763036 C25.6925446,28.7941518 21.1012723,30.6720089 17.0892188,30.9308036 C18.129308,30.0617545 19.0310625,28.8893705 19.7385491,27.4757232 C20.2619821,26.4298393 20.6558214,25.2933036 20.9117679,24.10275 C21.0640491,25.2916339 21.1695804,26.4664732 21.2273304,27.6179375 C21.239558,27.8617545 21.4472813,28.0490491 21.6908527,28.0372143 C21.9346205,28.0250357 22.1223571,27.8174598 22.1101295,27.5737411 C21.9982143,25.3406429 21.7100045,23.0230313 21.2534063,20.6852366 C21.2097991,20.4618482 21.0040893,20.3085357 20.777067,20.3300446 C20.5505357,20.3519464 20.3776786,20.5423348 20.3776786,20.7699464 C20.3776786,25.2455223 18.3899688,29.3591786 15.431558,31.0062813 C15.2586027,31.1025804 15.17075,31.3021027 15.2166161,31.4947009 C15.2624821,31.6872991 15.4307232,31.8259286 15.6285268,31.8339821 C15.8062455,31.84125 15.9853884,31.8448348 16.1662991,31.8448348 C20.5598661,31.8447366 25.8436964,29.7470268 29.0077679,27.7207188 C32.6678214,25.3767366 32.6038839,24.0336071 32.24,23.4415714 Z M18.1129554,21.2293929 C18.1950625,22.4723929 18.1534688,23.6949152 17.9888125,24.8696071 C17.9549286,25.1113616 18.1234643,25.33475 18.3651696,25.3686339 C18.385942,25.3715804 18.4066161,25.3729554 18.4270446,25.3729554 C18.6439509,25.3729554 18.8332098,25.2132098 18.8641964,24.9922768 C19.0566473,23.6190938 19.0892054,22.1854107 18.9610357,20.7311518 C18.9401652,20.4947991 18.7358304,20.315558 18.4995268,20.3285223 C15.3478304,20.4801652 13.3194107,20.139067 12.7075357,19.7335893 C12.5040357,19.5987411 12.2297723,19.6544777 12.0949732,19.8579286 C11.960125,20.0614286 12.0158125,20.3356429 12.2192634,20.4704911 C13.0963661,21.0514777 15.2822723,21.3305045 18.1129554,21.2293929 Z" id="XMLID_75_" fill="#888888" fill-rule="nonzero"></path>
        </g>
    </g>
</svg>