<?xml version="1.0" encoding="UTF-8"?>
<svg width="48px" height="48px" viewBox="0 0 48 48" version="1.1" xmlns="http://www.w3.org/2000/svg" xmlns:xlink="http://www.w3.org/1999/xlink">
    <!-- Generator: Sketch 47.1 (45422) - http://www.bohemiancoding.com/sketch -->
    <title>Group 15</title>
    <desc>Created with Sketch.</desc>
    <defs></defs>
    <g id="Page-1" stroke="none" stroke-width="1" fill="none" fill-rule="evenodd">
        <g id="Group-15" transform="translate(1.000000, 1.000000)">
            <circle id="Oval-3" stroke="#E3E3E3" cx="23" cy="23" r="23"></circle>
            <g id="dance" transform="translate(12.000000, 12.000000)" fill-rule="nonzero" fill="#FFFFFF">
                <path d="M0.149383929,5.88804464 C0.149383929,5.41961161 0.522794643,4.99611161 1.29087946,4.59328571 C1.8926875,4.27772321 2.75820089,3.96604018 3.79387054,3.69197321 C4.02992857,3.62960714 4.27178125,3.77025 4.33419643,4.00611161 C4.39661161,4.24212054 4.25596875,4.48397321 4.02000893,4.5464375 C1.76368304,5.14353125 1.10874107,5.70374554 1.03797768,5.87871429 C1.09405804,5.94628571 1.46530804,6.29303125 3.23616071,6.4549375 C4.67598214,6.58654464 6.54735714,6.54328125 8.50570089,6.33300446 C10.5345625,6.11511607 12.456125,5.74096875 13.916375,5.27960714 C15.5325893,4.76894196 16.0118259,4.32393304 16.0682991,4.1855 C15.9728839,4.04971875 15.321625,3.69020536 13.3616607,3.5729375 C13.1179911,3.55835268 12.932317,3.34895982 12.9468527,3.10538839 C12.9614375,2.86171875 13.1707321,2.67555357 13.4144018,2.69058036 C15.7977187,2.8331875 16.9563036,3.31974107 16.9563036,4.17803571 C16.9563036,4.87874554 16.0937857,5.50039286 14.3194464,6.07858036 C12.7874018,6.57785268 10.756183,6.98033482 8.60008482,7.211875 C7.42858482,7.33773661 6.19432589,7.41090625 5.04335268,7.41090625 C2.95924554,7.41090625 1.14822321,7.17087054 0.47746875,6.56827679 C0.206299107,6.32465625 0.149383929,6.06389732 0.149383929,5.88804464 Z M5.26875446,4.23819196 C5.57385714,4.97583036 6.26022768,5.47245089 7.06008482,5.53432589 C7.07167411,5.53520982 7.08321429,5.53560268 7.09465625,5.53560268 C7.32325,5.53560268 7.51692857,5.35945536 7.53480357,5.12766964 C7.55361161,4.88434375 7.37157143,4.67180804 7.12819643,4.65295089 C6.66221875,4.61695536 6.26268304,4.32859821 6.08560268,3.90033482 L5.68390625,2.92924107 C5.55946875,2.62855804 5.56025446,2.29580804 5.68611607,1.99227679 C5.81197768,1.68874554 6.04695536,1.45308036 6.34763839,1.32864286 C6.50964286,1.26161161 6.68073214,1.23082143 6.85525893,1.23695982 C7.09917411,1.24511161 7.30395089,1.05482143 7.31259375,0.81090625 C7.32123661,0.566941964 7.13050446,0.362214286 6.88654018,0.353571429 C6.58438393,0.342473214 6.28954464,0.396147321 6.00978125,0.511794643 C5.49086607,0.726491071 5.08592857,1.13201786 4.86966071,1.65363393 C4.65329464,2.17525 4.65241071,2.74833036 4.86710714,3.26714732 L5.26875446,4.23819196 Z M8.04723661,4.36479018 C7.72047768,3.90421429 7.59235714,3.34566964 7.68649554,2.79203571 L7.86244643,1.75607143 C8.05745089,0.609370536 9.14880804,-0.164705357 10.2954107,0.0300044643 C10.8490446,0.12409375 11.3338795,0.429589286 11.6606875,0.890214286 C11.9873973,1.35074107 12.115567,1.90928571 12.0214777,2.46291964 L11.8453795,3.49893304 C11.6707054,4.52640179 10.7761205,5.25495536 9.76701786,5.25500446 C9.65004464,5.25500446 9.53164732,5.24523214 9.41251339,5.225 C8.85887946,5.13086161 8.37399554,4.82536607 8.04723661,4.36479018 Z M8.76812946,3.85333929 C8.95827232,4.12131696 9.23970536,4.2989375 9.56057143,4.35349554 C10.2265625,4.46673661 10.860683,4.01691518 10.973875,3.35082589 L11.1499732,2.3148125 C11.2044821,1.99394643 11.1298393,1.66959375 10.9397455,1.40156696 C10.7496027,1.13358929 10.4681696,0.95596875 10.1473036,0.901410714 C10.0781607,0.889674107 10.0092634,0.883977679 9.94134821,0.883977679 C9.35510714,0.883977679 8.83540625,1.30718304 8.73385268,1.90412946 L8.55790179,2.94009375 C8.50334375,3.26100893 8.57803571,3.5853125 8.76812946,3.85333929 Z M16.5310357,17.1271964 C13.3493839,19.1647991 7.96650446,21.2769955 3.66462054,21.1019777 C3.41967411,21.0908304 3.21489732,21.2816116 3.20497768,21.5255268 C3.19500893,21.7693929 3.38466071,21.9751518 3.62852679,21.9851205 C3.80624554,21.9923884 3.98524107,21.9959732 4.16615179,21.9959732 C8.55932589,21.9959732 13.8433527,19.8980179 17.0077188,17.8715625 C17.2132813,17.7399063 17.273192,17.4665759 17.1415848,17.2610134 C17.0099286,17.0554509 16.7365982,16.9956384 16.5310357,17.1271964 Z M10.9339509,8.37139286 C10.8452634,8.14392857 10.5889732,8.03162054 10.3616071,8.12025893 C10.1342411,8.20894643 10.0217857,8.4651875 10.1104732,8.69260268 C10.5918705,9.9268125 11.4696116,11.1308705 12.5820848,12.0829598 C13.7857009,13.1130804 15.1216116,13.7359062 16.4453437,13.8842589 C16.4620402,13.886125 16.4786875,13.887058 16.4950893,13.887058 C16.7171518,13.887058 16.9084732,13.7201429 16.9338125,13.49425 C16.9609687,13.2517098 16.7863437,13.0329866 16.5438036,13.0058304 C13.9612098,12.716442 11.726,10.4020714 10.9339509,8.37139286 Z M20.24,11.4415714 C19.8078571,10.7385536 18.6495179,10.6420089 17.6578973,11.2266786 C17.4476205,11.3505759 17.3776429,11.6215491 17.5015893,11.8318259 C17.6254866,12.0421027 17.8965089,12.1121786 18.1067366,11.9881339 C18.7063839,11.6347098 19.3573973,11.6936875 19.4868929,11.9044554 C19.6217902,12.1239152 19.36825,13.1592902 16.5310357,14.9763036 C13.6925446,16.7941518 9.10127232,18.6720089 5.08921875,18.9308036 C6.12930804,18.0617545 7.0310625,16.8893705 7.73854911,15.4757232 C8.26198214,14.4298393 8.65582143,13.2933036 8.91176786,12.10275 C9.06404911,13.2916339 9.16958036,14.4664732 9.22733036,15.6179375 C9.23955804,15.8617545 9.44728125,16.0490491 9.69085268,16.0372143 C9.93462054,16.0250357 10.1223571,15.8174598 10.1101295,15.5737411 C9.99821429,13.3406429 9.71000446,11.0230312 9.25340625,8.68523661 C9.20979911,8.46184821 9.00408929,8.30853571 8.77706696,8.33004464 C8.55053571,8.35194643 8.37767857,8.54233482 8.37767857,8.76994643 C8.37767857,13.2455223 6.38996875,17.3591786 3.43155804,19.0062812 C3.25860268,19.1025804 3.17075,19.3021027 3.21661607,19.4947009 C3.26248214,19.6872991 3.43072321,19.8259286 3.62852679,19.8339821 C3.80624554,19.84125 3.98538839,19.8448348 4.16629911,19.8448348 C8.55986607,19.8447366 13.8436964,17.7470268 17.0077679,15.7207187 C20.6678214,13.3767366 20.6038839,12.0336071 20.24,11.4415714 Z M6.11295536,9.22939286 C6.1950625,10.4723929 6.15346875,11.6949152 5.9888125,12.8696071 C5.95492857,13.1113616 6.12346429,13.33475 6.36516964,13.3686339 C6.38594196,13.3715804 6.40661607,13.3729554 6.42704464,13.3729554 C6.64395089,13.3729554 6.83320982,13.2132098 6.86419643,12.9922768 C7.05664732,11.6190937 7.08920536,10.1854107 6.96103571,8.73115179 C6.94016518,8.49479911 6.73583036,8.31555804 6.49952679,8.32852232 C3.34783036,8.48016518 1.31941071,8.13906696 0.707535714,7.73358929 C0.504035714,7.59874107 0.229772321,7.65447768 0.0949732143,7.85792857 C-0.039875,8.06142857 0.0158125,8.33564286 0.219263393,8.47049107 C1.09636607,9.05147768 3.28227232,9.33050446 6.11295536,9.22939286 Z" id="XMLID_75_"></path>
            </g>
        </g>
    </g>
</svg>