<?xml version="1.0" encoding="UTF-8"?>
<svg width="48px" height="48px" viewBox="0 0 48 48" version="1.1" xmlns="http://www.w3.org/2000/svg" xmlns:xlink="http://www.w3.org/1999/xlink">
    <!-- Generator: Sketch 47.1 (45422) - http://www.bohemiancoding.com/sketch -->
    <title>Group 4</title>
    <desc>Created with Sketch.</desc>
    <defs></defs>
    <g id="Page-1" stroke="none" stroke-width="1" fill="none" fill-rule="evenodd">
        <g id="Group-4" transform="translate(1.000000, 1.000000)">
            <circle id="Oval-3" stroke="#E3E3E3" cx="23" cy="23" r="23"></circle>
            <g id="Group-2" transform="translate(11.000000, 13.000000)" fill-rule="nonzero" fill="#FFFFFF">
                <path d="M4.61997836,2.52 C3.4620949,2.52 2.52,3.46206133 2.52,4.62 C2.52,5.77798195 3.46205163,6.72 4.61997836,6.72 C5.77794837,6.72 6.72,5.77793867 6.72,4.62 C6.72,3.46206133 5.77794837,2.52 4.61997836,2.52 Z M4.62002164,6.0686027 C3.82126642,6.0686027 3.17139059,5.41880673 3.17139059,4.62 C3.17139059,3.82119327 3.82122314,3.1713973 4.62002164,3.1713973 C5.41882013,3.1713973 6.06865269,3.82123655 6.06865269,4.62 C6.06865269,5.41876345 5.41877686,6.0686027 4.62002164,6.0686027 Z" id="Shape"></path>
                <path d="M4.62,0 C4.3879814,0 4.2,0.187489069 4.2,0.418775672 L4.2,1.26122433 C4.2,1.49251093 4.3879814,1.68 4.62,1.68 C4.8520186,1.68 5.04,1.49251093 5.04,1.26122433 L5.04,0.418775672 C5.04,0.187489069 4.8520186,0 4.62,0 Z" id="Shape"></path>
                <path d="M7.41622503,1.82376516 C7.22445985,1.6321109 6.91372197,1.63204566 6.72195679,1.82376516 L6.02377497,2.52201814 C5.83207501,2.71373764 5.83207501,3.02457242 6.02377497,3.21622668 C6.11965756,3.31211905 6.2452181,3.36 6.37090909,3.36 C6.49646963,3.36 6.62216062,3.31211905 6.71804321,3.21629192 L7.41622503,2.51803894 C7.60792499,2.32631944 7.60792499,2.01548466 7.41622503,1.82376516 Z" id="Shape"></path>
                <path d="M8.82121045,4.2 L7.97878955,4.2 C7.74743963,4.2 7.56,4.38803721 7.56,4.62 C7.56,4.85196279 7.74743963,5.04 7.97878955,5.04 L8.82121045,5.04 C9.05256037,5.04 9.24,4.85196279 9.24,4.62 C9.24,4.38803721 9.05256037,4.2 8.82121045,4.2 Z" id="Shape"></path>
                <path d="M7.41622503,6.72196511 L6.71804321,6.02378753 C6.5262128,5.83207082 6.21547493,5.83207082 6.02377497,6.02378753 C5.83207501,6.21550424 5.83207501,6.52633449 6.02377497,6.71798596 L6.72195679,7.41622878 C6.81783938,7.51205452 6.94346514,7.56 7.06909091,7.56 C7.19471667,7.56 7.32034244,7.51211975 7.41622503,7.41622878 C7.60792499,7.22451207 7.60792499,6.91368182 7.41622503,6.72196511 Z" id="Shape"></path>
                <path d="M4.62,7.56 C4.3879814,7.56 4.2,7.74748907 4.2,7.97877567 L4.2,8.82122433 C4.2,9.05251093 4.3879814,9.24 4.62,9.24 C4.8520186,9.24 5.04,9.05251093 5.04,8.82122433 L5.04,7.97877567 C5.04,7.74748907 4.8520186,7.56 4.62,7.56 Z" id="Shape"></path>
                <path d="M3.21626907,6.02378753 C3.0245626,5.83207082 2.71381417,5.83207082 2.52204247,6.02378753 L1.82383693,6.72196511 C1.63206523,6.91368182 1.63206523,7.22451207 1.8237717,7.41622878 C1.91965755,7.51205452 2.04522236,7.56 2.17091762,7.56 C2.29648242,7.56 2.42217768,7.51211975 2.51806353,7.41622878 L3.21626907,6.71798596 C3.40791031,6.52626926 3.40791031,6.21543901 3.21626907,6.02378753 Z" id="Shape"></path>
                <path d="M1.26121045,4.2 L0.418789545,4.2 C0.187439626,4.2 0,4.38803721 0,4.62 C0,4.85196279 0.187439626,5.04 0.418789545,5.04 L1.26121045,5.04 C1.49256037,5.04 1.68,4.85196279 1.68,4.62 C1.68,4.38803721 1.49256037,4.2 1.26121045,4.2 Z" id="Shape"></path>
                <path d="M3.21626977,2.52203034 L2.51800239,1.82378753 C2.32623162,1.63207082 2.0154847,1.63207082 1.82377916,1.82378753 C1.63207361,2.01550424 1.63207361,2.32633449 1.82377916,2.5180512 L2.52198131,3.21629401 C2.61786669,3.31211975 2.74349611,3.36 2.86912554,3.36 C2.99468973,3.36 3.12038438,3.31211975 3.21626977,3.21622878 C3.40791008,3.02451207 3.40791008,2.71368182 3.21626977,2.52203034 Z" id="Shape"></path>
                <path d="M23.352114,19.0713273 C22.7475031,18.6789588 22.0464569,18.501255 21.3542613,18.5370692 C20.715308,17.69495 19.5100045,16.9730202 17.849399,16.4409233 C16.8186194,16.1106563 15.6682638,15.8722624 14.4451668,15.7307257 L16.9304974,9.76443946 C17.3054981,10.0235632 17.6327882,10.3313361 17.9002903,10.6795102 C17.9887047,10.7946274 18.1251063,10.8597722 18.2755676,10.8247078 C19.0964204,10.6822889 19.9668739,10.7735446 20.7937655,11.0888596 C21.6268802,11.4065564 22.3283874,11.9183645 22.8224111,12.5689305 C22.8886527,12.6561284 22.9936161,12.7057038 23.1030047,12.7057038 C23.1307552,12.7057038 23.1587823,12.7025281 23.1865328,12.6959122 C23.3236259,12.6634059 23.4264227,12.5545519 23.4464289,12.4207779 C23.4595205,12.3329625 23.7598437,10.2436971 23.044323,7.96759804 C22.9891907,7.79205547 22.7953059,7.69259605 22.6122539,7.74534703 C22.4287871,7.79814212 22.3247918,7.98325573 22.3800162,8.1587542 C22.7976569,9.48740858 22.843247,10.7720891 22.817617,11.5557676 C22.322533,11.097328 21.7233155,10.7286886 21.0506191,10.4721671 C20.2858665,10.1805371 19.4857574,10.0565546 18.7068991,10.1060859 C18.9950066,9.26277584 19.1971428,8.44623824 19.2965745,7.61735092 C19.3875242,6.85885704 19.3960061,6.0926887 19.2962057,5.33459178 C19.2383998,4.89555893 19.1400284,4.46133365 18.9988788,4.03985505 C20.2405069,4.67573376 21.1973003,5.62648644 21.8467177,6.86582582 C21.9325507,7.02968025 22.1410022,7.09588362 22.3122533,7.01375793 C22.4835044,6.93163223 22.5526963,6.73218411 22.4668634,6.56828557 C21.6060442,4.92550702 20.2553962,3.74385851 18.4512901,3.0557581 C15.96997,2.10963656 13.3874204,2.42084972 10.983267,3.95578868 C9.18861079,5.10153476 8.13773291,6.50684567 8.09384837,6.56608026 C8.01221023,6.6763457 8.00866075,6.82295462 8.08476722,6.93674855 C8.1608737,7.05054248 8.30128578,7.10889494 8.44036103,7.08415138 C9.26674555,6.9371455 10.1438831,7.02734263 10.9769517,7.3450394 C11.7979428,7.65814913 12.4911986,8.15972454 12.9840699,8.79688232 C13.0799521,8.92082067 13.219811,8.99703614 13.3839631,8.95037181 C13.8245141,8.87565595 14.2790786,8.86824611 14.7334126,8.92637805 L11.9619106,15.5800149 C11.8919811,15.5794415 11.8222822,15.5782507 11.7521222,15.5782507 C10.1532869,15.5782507 8.625303,15.7306375 7.21062601,16.031177 C7.02360966,16.0709166 6.90564693,16.2481793 6.9472266,16.4271622 C6.98876018,16.6061009 7.17370215,16.7190127 7.36104117,16.679229 C8.70717163,16.3932445 10.2256134,16.2420927 11.7521222,16.2420927 C12.4756639,16.2420927 13.1996665,16.2749959 13.9197048,16.3434487 C15.2664345,16.4708273 16.5213386,16.7153078 17.6290082,17.0702743 C18.9513525,17.4940023 19.9722672,18.0523865 20.5714387,18.6712402 C20.2691332,18.7610845 19.9767387,18.8942851 19.7039815,19.0712391 C18.832514,19.6367244 17.7063132,19.6367244 16.8347996,19.0712391 C15.726669,18.3521761 14.2947055,18.3522203 13.1867132,19.0712391 C12.3152456,19.6367244 11.1890449,19.6367244 10.3175312,19.0712391 C9.20944673,18.3521761 7.77748328,18.3522203 6.66944487,19.0712391 C5.79797729,19.6367244 4.67177658,19.6367244 3.80026291,19.0712391 C3.52755187,18.8942851 3.23515732,18.7610404 2.93285188,18.6712402 C3.53123964,18.0532686 4.55031046,17.4955019 5.87002722,17.0719944 C6.05165019,17.0137302 6.14951454,16.8255733 6.08862014,16.6517508 C6.02772574,16.4779725 5.83116728,16.384291 5.64945211,16.4425993 C3.99175068,16.9745198 2.78829106,17.6958763 2.15007532,18.536981 C1.45783365,18.5011668 0.756833522,18.6789588 0.152222638,19.0712391 C-0.00635173236,19.1741388 -0.0477009214,19.3805116 0.0598438478,19.5322368 C0.16734252,19.6839621 0.38289303,19.7235694 0.541651789,19.6206697 C1.05655752,19.2865654 1.66043085,19.1499686 2.24812406,19.2107028 C2.69674202,19.2675557 3.07298737,19.4014179 3.41092595,19.6207138 C4.51891826,20.3396886 5.95083561,20.3397768 7.05896622,19.6207138 C7.93052599,19.0551845 9.0567728,19.0552286 9.92819428,19.6207138 C11.0362327,20.3396886 12.46815,20.3397768 13.5762345,19.6207138 C14.4477482,19.0551845 15.573995,19.0552286 16.4454626,19.6207138 C16.9995049,19.9802232 17.6344938,20.16 18.2695288,20.16 C18.9045178,20.16 19.5395067,19.9802232 20.0935951,19.6207138 C20.43075,19.4019472 20.8060734,19.2681732 21.190017,19.218686 C21.8451043,19.1502333 22.4483784,19.2868301 22.9628231,19.6206697 C23.1213975,19.7235694 23.3371324,19.6840062 23.4446311,19.5322368 C23.5519915,19.3806439 23.5106423,19.174227 23.352114,19.0713273 Z M13.8546616,8.23104422 C13.8583494,8.22354617 13.8621755,8.21613633 13.8659094,8.20863828 C14.1890507,7.56142429 14.5659875,6.93582232 15.0057087,6.35441473 C15.1132074,6.21230464 15.0824145,5.99781632 14.9280811,5.89094706 C14.7771127,5.78637132 14.5526655,5.82108288 14.4436456,5.96526596 C14.0905871,6.4320416 13.7768957,6.92607485 13.4953801,7.43528063 C13.3936896,7.61929159 13.2903858,7.80550785 13.2031699,7.99635527 C13.2016487,7.9994427 13.2000353,8.00253013 13.1985141,8.00561756 C12.6685807,7.45689265 11.9988344,7.02028564 11.2338514,6.72865562 C10.5609706,6.4720459 9.86066188,6.34532886 9.17169312,6.35220942 C9.63483169,5.85385377 10.3956199,5.12636653 11.3859722,4.49697143 C12.3679347,3.87286907 13.38152,3.46546035 14.3984242,3.28608054 C15.3822768,3.11256685 16.3750261,3.15327685 17.3601233,3.40649039 C17.3561589,3.40856338 17.351918,3.4108569 17.3479536,3.41292989 C16.8150239,3.69278357 16.320908,4.0380908 15.87229,4.43015058 C15.697305,4.58306668 15.5266071,4.74026109 15.3630542,4.90429195 C15.2308475,5.03696332 15.2360565,5.24708513 15.3747168,5.37358164 C15.5133772,5.50007815 15.7329382,5.49509415 15.865191,5.36242278 C16.3098446,4.91615651 16.8119354,4.50804208 17.3600311,4.1780838 C17.6126437,4.0259616 17.8763197,3.88852677 18.1516583,3.77773206 C18.2239848,3.93470593 18.3180692,4.16710136 18.4064375,4.47147807 C18.8247235,5.91326478 18.7116932,7.46915417 18.3450361,8.908912 C18.2661637,9.21853734 18.1750296,9.52547221 18.0716797,9.82839341 C18.0706194,9.83152495 18.069467,9.8347447 18.0684068,9.83792034 C17.5963714,9.36007406 17.0166991,8.96991084 16.3604133,8.68908683 C16.3514243,8.6852496 16.3424354,8.68141236 16.3334464,8.67761923 C15.5572617,8.34982214 14.7030806,8.18623235 13.8546616,8.23104422 Z M13.7279404,15.6592737 C13.5671073,15.6459536 13.4051678,15.6345742 13.2423064,15.624518 C13.0622969,15.6126976 12.8819646,15.6040087 12.7016785,15.5969958 L15.4223352,9.06579766 C15.5869944,9.11091828 15.7490722,9.16459549 15.9077849,9.22603539 C15.9335532,9.2360475 16.3310494,9.41026688 16.3303118,9.41203113 L13.7279404,15.6592737 Z" id="Shape"></path>
            </g>
        </g>
    </g>
</svg>