<?xml version="1.0" encoding="UTF-8"?>
<svg width="48px" height="48px" viewBox="0 0 48 48" version="1.1" xmlns="http://www.w3.org/2000/svg" xmlns:xlink="http://www.w3.org/1999/xlink">
    <!-- Generator: Sketch 47.1 (45422) - http://www.bohemiancoding.com/sketch -->
    <title>Group 33</title>
    <desc>Created with Sketch.</desc>
    <defs></defs>
    <g id="Page-1" stroke="none" stroke-width="1" fill="none" fill-rule="evenodd">
        <g id="Group-33" transform="translate(1.000000, 1.000000)">
            <circle id="Oval-3" stroke="#E3E3E3" fill="#FFFFFF" cx="23" cy="23" r="23"></circle>
            <path d="M15.6199784,15.52 C14.4620949,15.52 13.52,16.4620613 13.52,17.62 C13.52,18.7779819 14.4620516,19.72 15.6199784,19.72 C16.7779484,19.72 17.72,18.7779387 17.72,17.62 C17.72,16.4620613 16.7779484,15.52 15.6199784,15.52 Z M15.6200216,19.0686027 C14.8212664,19.0686027 14.1713906,18.4188067 14.1713906,17.62 C14.1713906,16.8211933 14.8212231,16.1713973 15.6200216,16.1713973 C16.4188201,16.1713973 17.0686527,16.8212366 17.0686527,17.62 C17.0686527,18.4187634 16.4187769,19.0686027 15.6200216,19.0686027 Z" id="Shape" fill="#878787" fill-rule="nonzero"></path>
            <path d="M15.62,13 C15.3879814,13 15.2,13.1874891 15.2,13.4187757 L15.2,14.2612243 C15.2,14.4925109 15.3879814,14.68 15.62,14.68 C15.8520186,14.68 16.04,14.4925109 16.04,14.2612243 L16.04,13.4187757 C16.04,13.1874891 15.8520186,13 15.62,13 Z" id="Shape" fill="#878787" fill-rule="nonzero"></path>
            <path d="M18.416225,14.8237652 C18.2244598,14.6321109 17.913722,14.6320457 17.7219568,14.8237652 L17.023775,15.5220181 C16.832075,15.7137376 16.832075,16.0245724 17.023775,16.2162267 C17.1196576,16.3121191 17.2452181,16.36 17.3709091,16.36 C17.4964696,16.36 17.6221606,16.3121191 17.7180432,16.2162919 L18.416225,15.5180389 C18.607925,15.3263194 18.607925,15.0154847 18.416225,14.8237652 Z" id="Shape" fill="#878787" fill-rule="nonzero"></path>
            <path d="M19.8212105,17.2 L18.9787895,17.2 C18.7474396,17.2 18.56,17.3880372 18.56,17.62 C18.56,17.8519628 18.7474396,18.04 18.9787895,18.04 L19.8212105,18.04 C20.0525604,18.04 20.24,17.8519628 20.24,17.62 C20.24,17.3880372 20.0525604,17.2 19.8212105,17.2 Z" id="Shape" fill="#878787" fill-rule="nonzero"></path>
            <path d="M18.416225,19.7219651 L17.7180432,19.0237875 C17.5262128,18.8320708 17.2154749,18.8320708 17.023775,19.0237875 C16.832075,19.2155042 16.832075,19.5263345 17.023775,19.717986 L17.7219568,20.4162288 C17.8178394,20.5120545 17.9434651,20.56 18.0690909,20.56 C18.1947167,20.56 18.3203424,20.5121197 18.416225,20.4162288 C18.607925,20.2245121 18.607925,19.9136818 18.416225,19.7219651 Z" id="Shape" fill="#878787" fill-rule="nonzero"></path>
            <path d="M15.62,20.56 C15.3879814,20.56 15.2,20.7474891 15.2,20.9787757 L15.2,21.8212243 C15.2,22.0525109 15.3879814,22.24 15.62,22.24 C15.8520186,22.24 16.04,22.0525109 16.04,21.8212243 L16.04,20.9787757 C16.04,20.7474891 15.8520186,20.56 15.62,20.56 Z" id="Shape" fill="#878787" fill-rule="nonzero"></path>
            <path d="M14.2162691,19.0237875 C14.0245626,18.8320708 13.7138142,18.8320708 13.5220425,19.0237875 L12.8238369,19.7219651 C12.6320652,19.9136818 12.6320652,20.2245121 12.8237717,20.4162288 C12.9196576,20.5120545 13.0452224,20.56 13.1709176,20.56 C13.2964824,20.56 13.4221777,20.5121197 13.5180635,20.4162288 L14.2162691,19.717986 C14.4079103,19.5262693 14.4079103,19.215439 14.2162691,19.0237875 Z" id="Shape" fill="#878787" fill-rule="nonzero"></path>
            <path d="M12.2612105,17.2 L11.4187895,17.2 C11.1874396,17.2 11,17.3880372 11,17.62 C11,17.8519628 11.1874396,18.04 11.4187895,18.04 L12.2612105,18.04 C12.4925604,18.04 12.68,17.8519628 12.68,17.62 C12.68,17.3880372 12.4925604,17.2 12.2612105,17.2 Z" id="Shape" fill="#878787" fill-rule="nonzero"></path>
            <path d="M14.2162698,15.5220303 L13.5180024,14.8237875 C13.3262316,14.6320708 13.0154847,14.6320708 12.8237792,14.8237875 C12.6320736,15.0155042 12.6320736,15.3263345 12.8237792,15.5180512 L13.5219813,16.216294 C13.6178667,16.3121197 13.7434961,16.36 13.8691255,16.36 C13.9946897,16.36 14.1203844,16.3121197 14.2162698,16.2162288 C14.4079101,16.0245121 14.4079101,15.7136818 14.2162698,15.5220303 Z" id="Shape" fill="#878787" fill-rule="nonzero"></path>
            <path d="M34.352114,32.0713273 C33.7475031,31.6789588 33.0464569,31.501255 32.3542613,31.5370692 C31.715308,30.69495 30.5100045,29.9730202 28.849399,29.4409233 C27.8186194,29.1106563 26.6682638,28.8722624 25.4451668,28.7307257 L27.9304974,22.7644395 C28.3054981,23.0235632 28.6327882,23.3313361 28.9002903,23.6795102 C28.9887047,23.7946274 29.1251063,23.8597722 29.2755676,23.8247078 C30.0964204,23.6822889 30.9668739,23.7735446 31.7937655,24.0888596 C32.6268802,24.4065564 33.3283874,24.9183645 33.8224111,25.5689305 C33.8886527,25.6561284 33.9936161,25.7057038 34.1030047,25.7057038 C34.1307552,25.7057038 34.1587823,25.7025281 34.1865328,25.6959122 C34.3236259,25.6634059 34.4264227,25.5545519 34.4464289,25.4207779 C34.4595205,25.3329625 34.7598437,23.2436971 34.044323,20.967598 C33.9891907,20.7920555 33.7953059,20.692596 33.6122539,20.745347 C33.4287871,20.7981421 33.3247918,20.9832557 33.3800162,21.1587542 C33.7976569,22.4874086 33.843247,23.7720891 33.817617,24.5557676 C33.322533,24.097328 32.7233155,23.7286886 32.0506191,23.4721671 C31.2858665,23.1805371 30.4857574,23.0565546 29.7068991,23.1060859 C29.9950066,22.2627758 30.1971428,21.4462382 30.2965745,20.6173509 C30.3875242,19.858857 30.3960061,19.0926887 30.2962057,18.3345918 C30.2383998,17.8955589 30.1400284,17.4613336 29.9988788,17.039855 C31.2405069,17.6757338 32.1973003,18.6264864 32.8467177,19.8658258 C32.9325507,20.0296803 33.1410022,20.0958836 33.3122533,20.0137579 C33.4835044,19.9316322 33.5526963,19.7321841 33.4668634,19.5682856 C32.6060442,17.925507 31.2553962,16.7438585 29.4512901,16.0557581 C26.96997,15.1096366 24.3874204,15.4208497 21.983267,16.9557887 C20.1886108,18.1015348 19.1377329,19.5068457 19.0938484,19.5660803 C19.0122102,19.6763457 19.0086607,19.8229546 19.0847672,19.9367485 C19.1608737,20.0505425 19.3012858,20.1088949 19.440361,20.0841514 C20.2667455,19.9371455 21.1438831,20.0273426 21.9769517,20.3450394 C22.7979428,20.6581491 23.4911986,21.1597245 23.9840699,21.7968823 C24.0799521,21.9208207 24.219811,21.9970361 24.3839631,21.9503718 C24.8245141,21.8756559 25.2790786,21.8682461 25.7334126,21.926378 L22.9619106,28.5800149 C22.8919811,28.5794415 22.8222822,28.5782507 22.7521222,28.5782507 C21.1532869,28.5782507 19.625303,28.7306375 18.210626,29.031177 C18.0236097,29.0709166 17.9056469,29.2481793 17.9472266,29.4271622 C17.9887602,29.6061009 18.1737021,29.7190127 18.3610412,29.679229 C19.7071716,29.3932445 21.2256134,29.2420927 22.7521222,29.2420927 C23.4756639,29.2420927 24.1996665,29.2749959 24.9197048,29.3434487 C26.2664345,29.4708273 27.5213386,29.7153078 28.6290082,30.0702743 C29.9513525,30.4940023 30.9722672,31.0523865 31.5714387,31.6712402 C31.2691332,31.7610845 30.9767387,31.8942851 30.7039815,32.0712391 C29.832514,32.6367244 28.7063132,32.6367244 27.8347996,32.0712391 C26.726669,31.3521761 25.2947055,31.3522203 24.1867132,32.0712391 C23.3152456,32.6367244 22.1890449,32.6367244 21.3175312,32.0712391 C20.2094467,31.3521761 18.7774833,31.3522203 17.6694449,32.0712391 C16.7979773,32.6367244 15.6717766,32.6367244 14.8002629,32.0712391 C14.5275519,31.8942851 14.2351573,31.7610404 13.9328519,31.6712402 C14.5312396,31.0532686 15.5503105,30.4955019 16.8700272,30.0719944 C17.0516502,30.0137302 17.1495145,29.8255733 17.0886201,29.6517508 C17.0277257,29.4779725 16.8311673,29.384291 16.6494521,29.4425993 C14.9917507,29.9745198 13.7882911,30.6958763 13.1500753,31.536981 C12.4578337,31.5011668 11.7568335,31.6789588 11.1522226,32.0712391 C10.9936483,32.1741388 10.9522991,32.3805116 11.0598438,32.5322368 C11.1673425,32.6839621 11.382893,32.7235694 11.5416518,32.6206697 C12.0565575,32.2865654 12.6604309,32.1499686 13.2481241,32.2107028 C13.696742,32.2675557 14.0729874,32.4014179 14.4109259,32.6207138 C15.5189183,33.3396886 16.9508356,33.3397768 18.0589662,32.6207138 C18.930526,32.0551845 20.0567728,32.0552286 20.9281943,32.6207138 C22.0362327,33.3396886 23.46815,33.3397768 24.5762345,32.6207138 C25.4477482,32.0551845 26.573995,32.0552286 27.4454626,32.6207138 C27.9995049,32.9802232 28.6344938,33.16 29.2695288,33.16 C29.9045178,33.16 30.5395067,32.9802232 31.0935951,32.6207138 C31.43075,32.4019472 31.8060734,32.2681732 32.190017,32.218686 C32.8451043,32.1502333 33.4483784,32.2868301 33.9628231,32.6206697 C34.1213975,32.7235694 34.3371324,32.6840062 34.4446311,32.5322368 C34.5519915,32.3806439 34.5106423,32.174227 34.352114,32.0713273 Z M24.8546616,21.2310442 C24.8583494,21.2235462 24.8621755,21.2161363 24.8659094,21.2086383 C25.1890507,20.5614243 25.5659875,19.9358223 26.0057087,19.3544147 C26.1132074,19.2123046 26.0824145,18.9978163 25.9280811,18.8909471 C25.7771127,18.7863713 25.5526655,18.8210829 25.4436456,18.965266 C25.0905871,19.4320416 24.7768957,19.9260749 24.4953801,20.4352806 C24.3936896,20.6192916 24.2903858,20.8055079 24.2031699,20.9963553 C24.2016487,20.9994427 24.2000353,21.0025301 24.1985141,21.0056176 C23.6685807,20.4568927 22.9988344,20.0202856 22.2338514,19.7286556 C21.5609706,19.4720459 20.8606619,19.3453289 20.1716931,19.3522094 C20.6348317,18.8538538 21.3956199,18.1263665 22.3859722,17.4969714 C23.3679347,16.8728691 24.38152,16.4654603 25.3984242,16.2860805 C26.3822768,16.1125668 27.3750261,16.1532768 28.3601233,16.4064904 C28.3561589,16.4085634 28.351918,16.4108569 28.3479536,16.4129299 C27.8150239,16.6927836 27.320908,17.0380908 26.87229,17.4301506 C26.697305,17.5830667 26.5266071,17.7402611 26.3630542,17.9042919 C26.2308475,18.0369633 26.2360565,18.2470851 26.3747168,18.3735816 C26.5133772,18.5000781 26.7329382,18.4950941 26.865191,18.3624228 C27.3098446,17.9161565 27.8119354,17.5080421 28.3600311,17.1780838 C28.6126437,17.0259616 28.8763197,16.8885268 29.1516583,16.7777321 C29.2239848,16.9347059 29.3180692,17.1671014 29.4064375,17.4714781 C29.8247235,18.9132648 29.7116932,20.4691542 29.3450361,21.908912 C29.2661637,22.2185373 29.1750296,22.5254722 29.0716797,22.8283934 C29.0706194,22.8315249 29.069467,22.8347447 29.0684068,22.8379203 C28.5963714,22.3600741 28.0166991,21.9699108 27.3604133,21.6890868 C27.3514243,21.6852496 27.3424354,21.6814124 27.3334464,21.6776192 C26.5572617,21.3498221 25.7030806,21.1862323 24.8546616,21.2310442 Z M24.7279404,28.6592737 C24.5671073,28.6459536 24.4051678,28.6345742 24.2423064,28.624518 C24.0622969,28.6126976 23.8819646,28.6040087 23.7016785,28.5969958 L26.4223352,22.0657977 C26.5869944,22.1109183 26.7490722,22.1645955 26.9077849,22.2260354 C26.9335532,22.2360475 27.3310494,22.4102669 27.3303118,22.4120311 L24.7279404,28.6592737 Z" id="Shape" fill="#878787" fill-rule="nonzero"></path>
        </g>
    </g>
</svg>