<?xml version="1.0" encoding="UTF-8"?>
<svg width="48px" height="48px" viewBox="0 0 48 48" version="1.1" xmlns="http://www.w3.org/2000/svg" xmlns:xlink="http://www.w3.org/1999/xlink">
    <!-- Generator: Sketch 47.1 (45422) - http://www.bohemiancoding.com/sketch -->
    <title>Group 37</title>
    <desc>Created with Sketch.</desc>
    <defs></defs>
    <g id="Page-1" stroke="none" stroke-width="1" fill="none" fill-rule="evenodd">
        <g id="Group-37" transform="translate(1.000000, 1.000000)">
            <circle id="Oval-3" stroke="#E3E3E3" fill="#FFFFFF" cx="23" cy="23" r="23"></circle>
            <path d="M30.5936094,21.1092812 C29.9417656,21.1092812 29.3225937,21.2517344 28.7653906,21.506875 L26.2810625,17.0537031 L26.2810625,16.7597031 L29.3280312,16.7597031 C29.8293125,16.7597031 30.2371719,17.1675625 30.2371719,17.6688437 C30.2371719,18.170125 29.8293125,18.5779844 29.3280312,18.5779844 L28.5686094,18.5779844 L28.5686094,19.2908594 L29.3280312,19.2908594 C30.2224062,19.2908594 30.9500469,18.5632187 30.9500469,17.6688437 C30.9500469,16.7744687 30.2224062,16.0468281 29.3280312,16.0468281 L25.5681875,16.0468281 L25.5681875,17.2390937 L26.5975625,19.0842812 L20.3149062,19.0842812 L19.9864531,18.2784062 L20.768375,18.2784062 C21.3580156,18.2784062 21.8376875,17.7987344 21.8376875,17.2090937 L21.8376875,17.1160937 C21.8376875,16.5264531 21.3580156,16.0467812 20.768375,16.0467812 L18.1442188,16.0467812 C17.5545781,16.0467812 17.0749062,16.5264531 17.0749062,17.1160937 L17.0749062,17.2090937 C17.0749062,17.7987344 17.5545781,18.2784062 18.1442188,18.2784062 L19.2166719,18.2784062 L19.6293125,19.2909062 L17.7554844,21.7893437 C17.0750938,21.3588437 16.2693594,21.1092812 15.4063437,21.1092812 C12.9767187,21.1092812 11,23.0859062 11,25.515625 C11,27.9453437 12.9767187,29.9219687 15.4063437,29.9219687 C17.7160625,29.9219687 19.6161875,28.1356562 19.79825,25.8720625 L20.7079531,25.8720625 C20.9707813,26.7494219 21.7850938,27.3908125 22.746875,27.3908125 C23.9203906,27.3908125 24.8751406,26.4361094 24.8751406,25.2625 C24.8751406,24.7904219 24.7204531,24.3539219 24.4594063,24.0005781 L27.5067031,20.7137969 L28.1434063,21.8551094 C26.9645938,22.6467344 26.1872656,23.9920469 26.1872656,25.515625 C26.1872656,27.9453437 28.1639844,29.9219687 30.5936094,29.9219687 C33.0233281,29.9219687 35,27.94525 35,25.515625 C35,23.086 33.0233281,21.1092812 30.5936094,21.1092812 Z M18.1442188,17.5655312 C17.9476719,17.5655312 17.7877812,17.4056406 17.7877812,17.2090937 L17.7877812,17.1160937 C17.7877812,16.9195469 17.9476719,16.7596562 18.1442188,16.7596562 L20.768375,16.7596562 C20.9649219,16.7596562 21.1248125,16.9195469 21.1248125,17.1160937 L21.1248125,17.2090937 C21.1248125,17.4056406 20.9649219,17.5655312 20.768375,17.5655312 L18.1442188,17.5655312 Z M15.4063437,29.2090937 C13.3697656,29.2090937 11.712875,27.55225 11.712875,25.515625 C11.712875,23.479 13.3697656,21.8221562 15.4063437,21.8221562 C16.1090469,21.8221562 16.7665156,22.0195937 17.3263437,22.3615937 L14.6934687,25.8720625 L19.0822812,25.8720625 C18.902375,27.742 17.3226875,29.2090937 15.4063437,29.2090937 Z M16.1192656,25.1591875 L17.8961094,22.7900312 C18.552875,23.3904531 18.992375,24.2244531 19.0823281,25.1591875 L16.1192656,25.1591875 Z M21.2607969,23.7409844 C21.2485156,23.7529375 21.2364219,23.765125 21.2244219,23.7774062 C21.2129844,23.789125 21.2016406,23.8009844 21.1904844,23.8129844 C21.1787656,23.8255937 21.1671875,23.83825 21.1557969,23.8510937 C21.1449687,23.8633281 21.1342813,23.8756562 21.1237344,23.888125 C21.1125781,23.9012969 21.1015156,23.9145625 21.0906875,23.9279687 C21.0804219,23.9406719 21.0703906,23.9534687 21.0604531,23.9664062 C21.0499062,23.9800937 21.0394531,23.993875 21.0291875,24.0078437 C21.0195781,24.0209687 21.0101562,24.0342812 21.000875,24.0476406 C20.9909375,24.0618906 20.9810469,24.0761406 20.9714844,24.0906719 C20.9624844,24.1042656 20.9537656,24.1180469 20.9450469,24.131875 C20.9357656,24.1465469 20.9265781,24.1613125 20.9176719,24.1762187 C20.9092812,24.1902812 20.9011719,24.2045781 20.8931094,24.218875 C20.8845781,24.2339687 20.8760469,24.2490625 20.8679375,24.2643437 C20.8601562,24.2789219 20.85275,24.2937344 20.84525,24.3085 C20.8374687,24.3239219 20.8296406,24.3393906 20.8222344,24.3550937 C20.8151094,24.3700937 20.8084062,24.385375 20.8016094,24.4006094 C20.7945781,24.4164531 20.7875,24.4321562 20.7808437,24.4481875 C20.774375,24.4637031 20.768375,24.4794062 20.7623281,24.4951562 C20.7560469,24.5112812 20.7497187,24.5273125 20.7438594,24.543625 C20.7380937,24.5596094 20.7328437,24.5757812 20.7274531,24.5919531 C20.7219687,24.6083125 20.7164375,24.624625 20.711375,24.641125 C20.7063594,24.6576719 20.7018125,24.6744062 20.6971719,24.6910937 C20.6925781,24.7075937 20.68775,24.7240469 20.6835781,24.7406406 C20.6792656,24.7577969 20.6755156,24.7751406 20.671625,24.7924375 C20.667875,24.8089375 20.6639375,24.8253906 20.6605625,24.8419844 C20.6569531,24.8599375 20.654,24.8781719 20.6508125,24.8963125 C20.6479531,24.9125781 20.6448594,24.9287031 20.6424219,24.9451094 C20.6395625,24.9640937 20.6375,24.9832187 20.6351094,25.0023437 C20.6331406,25.0182344 20.6308906,25.0339844 20.62925,25.0499687 C20.6271875,25.0704062 20.6260156,25.0910781 20.6245625,25.1116562 C20.6235312,25.1265156 20.6220312,25.1413281 20.6213281,25.1562344 C20.6212812,25.1572187 20.6211406,25.1582031 20.6210937,25.1591875 L19.7982969,25.1591875 C19.7044062,23.9919062 19.1535781,22.9517031 18.3252969,22.2177812 L19.9430937,20.0607344 L21.3940156,23.6207031 C21.3864219,23.6269844 21.3792031,23.6336875 21.3716562,23.6400625 C21.3590937,23.6507031 21.3466719,23.6614375 21.3343437,23.6724062 C21.3215469,23.68375 21.3089844,23.6953281 21.2964219,23.707 C21.2844219,23.71825 21.2725156,23.7295 21.2607969,23.7409844 Z M22.746875,26.6779375 C22.0413125,26.6779375 21.4548125,26.1590312 21.3486875,25.4827656 L21.3462969,25.4661719 C21.3462031,25.4655625 21.3461562,25.4649062 21.3460625,25.4642031 C21.3416562,25.4333125 21.3385156,25.4024219 21.3360781,25.3717187 C21.3357031,25.3664687 21.3352344,25.3612656 21.3349062,25.3560156 C21.33275,25.3245625 21.3314844,25.29325 21.3314844,25.2624531 C21.3314844,24.4819844 21.9664062,23.8470156 22.7469219,23.8470156 C22.7707812,23.8470156 22.7945,23.847625 22.8180781,23.8488437 C22.8248281,23.8491719 22.8314844,23.849875 22.8381875,23.8502969 C22.8551094,23.851375 22.8720312,23.8525 22.8888125,23.8541406 C22.89575,23.8548437 22.9026406,23.8558281 22.9095313,23.8566719 C22.926125,23.8585937 22.9427187,23.8605156 22.9590781,23.863 C22.965125,23.8638906 22.9710312,23.8651094 22.9770312,23.8660469 C22.994375,23.8689062 23.0117188,23.8718594 23.0288281,23.8753281 C23.0334687,23.8762656 23.0380625,23.8773906 23.0426563,23.878375 C23.0611719,23.8823125 23.0796875,23.8864844 23.0979687,23.8911719 C23.1009687,23.8919219 23.1039687,23.8928594 23.1069688,23.8936094 C23.1268437,23.8988594 23.1465781,23.9043437 23.1660312,23.9104375 C23.1675781,23.9109062 23.169125,23.9114687 23.1706719,23.9119375 C23.1915781,23.9185 23.2123438,23.9254844 23.2328281,23.9329844 C23.2330156,23.9330781 23.23325,23.933125 23.2334375,23.9332187 C23.3628125,23.98075 23.483375,24.0466562 23.5919844,24.12775 C23.5932031,24.1286406 23.5944219,24.129625 23.5955937,24.1305156 C23.6121406,24.1429844 23.6284062,24.1556875 23.6443438,24.1688594 C23.6467813,24.170875 23.649125,24.1728906 23.6515156,24.1749062 C23.6662344,24.1871875 23.6808125,24.1997031 23.6950156,24.2125937 C23.69825,24.2155469 23.7014375,24.2185469 23.704625,24.2215 C23.9857344,24.4803906 24.1622188,24.851125 24.1622188,25.2625 C24.1622656,26.0429687 23.5273438,26.6779375 22.746875,26.6779375 Z M23.9469687,23.5047344 C23.715125,23.3458281 23.4553906,23.2356719 23.1809844,23.1788125 C23.1777031,23.1781562 23.174375,23.1774531 23.1710937,23.1767031 C23.1055156,23.1634375 23.0391406,23.1531719 22.9720625,23.1461406 C22.9644687,23.1453437 22.9568281,23.1447344 22.9491875,23.1439844 C22.9237812,23.1415937 22.8982812,23.1396719 22.8726875,23.138125 C22.8636406,23.1376094 22.8546406,23.1370469 22.8455469,23.136625 C22.8127344,23.1351719 22.779875,23.1340937 22.746875,23.1340937 C22.7106875,23.1340937 22.6747812,23.1350312 22.6391094,23.1368594 C22.6273437,23.1374219 22.6156719,23.1386875 22.6039531,23.1394844 C22.5801406,23.1410312 22.5563281,23.1425312 22.53275,23.1449219 C22.5185469,23.1463281 22.5045781,23.1484375 22.4904687,23.1501719 C22.4695625,23.1527031 22.4486094,23.155 22.4278906,23.1581406 C22.4128437,23.1604375 22.3980312,23.1633437 22.3830781,23.1659219 C22.3635781,23.1692969 22.3440312,23.1724844 22.3247187,23.176375 C22.3091562,23.1795156 22.2939219,23.1832656 22.2785469,23.1867344 C22.260125,23.1909062 22.2416094,23.1948437 22.223375,23.1995312 C22.2076719,23.2035156 22.19225,23.2080625 22.1766875,23.2124219 C22.1590156,23.2173437 22.1412969,23.222125 22.1238125,23.2274687 C22.1081562,23.23225 22.0927812,23.2375937 22.0772656,23.24275 C22.06025,23.2484219 22.0431406,23.2539531 22.0263125,23.2600469 C22.0235937,23.2610312 22.0207812,23.261875 22.0181094,23.2628594 L20.605625,19.7971562 L26.9954844,19.7971562 L27.1416875,20.0591875 L23.9469687,23.5047344 Z M30.5936094,29.2090937 C28.5569844,29.2090937 26.9001406,27.5522031 26.9001406,25.515625 C26.9001406,24.2593281 27.531125,23.1481094 28.4922969,22.4806094 L30.2823125,25.6892969 L30.9049063,25.342 L29.1143281,22.1323281 C29.5675625,21.9333906 30.0677656,21.8221562 30.5936563,21.8221562 C32.6302813,21.8221562 34.2871719,23.4790469 34.2871719,25.515625 C34.287125,27.5521562 32.6302344,29.2090937 30.5936094,29.2090937 Z" id="Shape" fill="#878787" fill-rule="nonzero"></path>
            <rect id="Rectangle-path" fill="#878787" fill-rule="nonzero" x="22.3926406" y="24.8554375" width="1" height="1"></rect>
        </g>
    </g>
</svg>