<?xml version="1.0" encoding="UTF-8"?>
<svg width="48px" height="48px" viewBox="0 0 48 48" version="1.1" xmlns="http://www.w3.org/2000/svg" xmlns:xlink="http://www.w3.org/1999/xlink">
    <!-- Generator: Sketch 47.1 (45422) - http://www.bohemiancoding.com/sketch -->
    <title>Group 8</title>
    <desc>Created with Sketch.</desc>
    <defs></defs>
    <g id="Page-1" stroke="none" stroke-width="1" fill="none" fill-rule="evenodd">
        <g id="Group-8" transform="translate(1.000000, 1.000000)">
            <circle id="Oval-3" stroke="#E3E3E3" cx="23" cy="23" r="23"></circle>
            <g id="bicycle-(1)" transform="translate(11.000000, 16.000000)" fill-rule="nonzero" fill="#FFFFFF">
                <path d="M19.5936094,5.10928125 C18.9417656,5.10928125 18.3225937,5.25173437 17.7653906,5.506875 L15.2810625,1.05370312 L15.2810625,0.759703125 L18.3280312,0.759703125 C18.8293125,0.759703125 19.2371719,1.1675625 19.2371719,1.66884375 C19.2371719,2.170125 18.8293125,2.57798437 18.3280312,2.57798437 L17.5686094,2.57798437 L17.5686094,3.29085937 L18.3280312,3.29085937 C19.2224062,3.29085937 19.9500469,2.56321875 19.9500469,1.66884375 C19.9500469,0.77446875 19.2224062,0.046828125 18.3280312,0.046828125 L14.5681875,0.046828125 L14.5681875,1.23909375 L15.5975625,3.08428125 L9.31490625,3.08428125 L8.98645312,2.27840625 L9.768375,2.27840625 C10.3580156,2.27840625 10.8376875,1.79873437 10.8376875,1.20909375 L10.8376875,1.11609375 C10.8376875,0.526453125 10.3580156,0.04678125 9.768375,0.04678125 L7.14421875,0.04678125 C6.55457812,0.04678125 6.07490625,0.526453125 6.07490625,1.11609375 L6.07490625,1.20909375 C6.07490625,1.79873437 6.55457812,2.27840625 7.14421875,2.27840625 L8.21667187,2.27840625 L8.6293125,3.29090625 L6.75548437,5.78934375 C6.07509375,5.35884375 5.26935937,5.10928125 4.40634375,5.10928125 C1.97671875,5.10928125 0,7.08590625 0,9.515625 C0,11.9453438 1.97671875,13.9219688 4.40634375,13.9219688 C6.7160625,13.9219688 8.6161875,12.1356563 8.79825,9.8720625 L9.70795312,9.8720625 C9.97078125,10.7494219 10.7850937,11.3908125 11.746875,11.3908125 C12.9203906,11.3908125 13.8751406,10.4361094 13.8751406,9.2625 C13.8751406,8.79042187 13.7204531,8.35392188 13.4594063,8.00057813 L16.5067031,4.71379688 L17.1434063,5.85510938 C15.9645938,6.64673438 15.1872656,7.99204688 15.1872656,9.515625 C15.1872656,11.9453438 17.1639844,13.9219688 19.5936094,13.9219688 C22.0233281,13.9219688 24,11.94525 24,9.515625 C24,7.086 22.0233281,5.10928125 19.5936094,5.10928125 Z M7.14421875,1.56553125 C6.94767187,1.56553125 6.78778125,1.40564062 6.78778125,1.20909375 L6.78778125,1.11609375 C6.78778125,0.919546875 6.94767187,0.75965625 7.14421875,0.75965625 L9.768375,0.75965625 C9.96492187,0.75965625 10.1248125,0.919546875 10.1248125,1.11609375 L10.1248125,1.20909375 C10.1248125,1.40564062 9.96492187,1.56553125 9.768375,1.56553125 L7.14421875,1.56553125 Z M4.40634375,13.2090937 C2.36976562,13.2090937 0.712875,11.55225 0.712875,9.515625 C0.712875,7.479 2.36976563,5.82215625 4.40634375,5.82215625 C5.10904687,5.82215625 5.76651562,6.01959375 6.32634375,6.36159375 L3.69346875,9.8720625 L8.08228125,9.8720625 C7.902375,11.742 6.3226875,13.2090937 4.40634375,13.2090937 Z M5.11926562,9.1591875 L6.89610937,6.79003125 C7.552875,7.39045313 7.992375,8.22445313 8.08232812,9.1591875 L5.11926562,9.1591875 Z M10.2607969,7.74098437 C10.2485156,7.7529375 10.2364219,7.765125 10.2244219,7.77740625 C10.2129844,7.789125 10.2016406,7.80098437 10.1904844,7.81298437 C10.1787656,7.82559375 10.1671875,7.83825 10.1557969,7.85109375 C10.1449687,7.86332812 10.1342812,7.87565625 10.1237344,7.888125 C10.1125781,7.90129687 10.1015156,7.9145625 10.0906875,7.92796875 C10.0804219,7.94067188 10.0703906,7.95346875 10.0604531,7.96640625 C10.0499062,7.98009375 10.0394531,7.993875 10.0291875,8.00784375 C10.0195781,8.02096875 10.0101562,8.03428125 10.000875,8.04764063 C9.9909375,8.06189062 9.98104687,8.07614063 9.97148437,8.09067187 C9.96248437,8.10426563 9.95376562,8.11804688 9.94504687,8.131875 C9.93576562,8.14654688 9.92657812,8.1613125 9.91767187,8.17621875 C9.90928125,8.19028125 9.90117187,8.20457813 9.89310937,8.218875 C9.88457812,8.23396875 9.87604687,8.2490625 9.8679375,8.26434375 C9.86015625,8.27892188 9.85275,8.29373438 9.84525,8.3085 C9.83746875,8.32392188 9.82964062,8.33939063 9.82223437,8.35509375 C9.81510937,8.37009375 9.80840625,8.385375 9.80160937,8.40060938 C9.79457812,8.41645313 9.7875,8.43215625 9.78084375,8.4481875 C9.774375,8.46370313 9.768375,8.47940625 9.76232812,8.49515625 C9.75604687,8.51128125 9.74971875,8.5273125 9.74385937,8.543625 C9.73809375,8.55960938 9.73284375,8.57578125 9.72745312,8.59195313 C9.72196875,8.6083125 9.7164375,8.624625 9.711375,8.641125 C9.70635937,8.65767188 9.7018125,8.67440625 9.69717187,8.69109375 C9.69257812,8.70759375 9.68775,8.72404688 9.68357812,8.74064063 C9.67926562,8.75779688 9.67551562,8.77514063 9.671625,8.7924375 C9.667875,8.8089375 9.6639375,8.82539063 9.6605625,8.84198438 C9.65695312,8.8599375 9.654,8.87817188 9.6508125,8.8963125 C9.64795312,8.91257813 9.64485937,8.92870313 9.64242187,8.94510938 C9.6395625,8.96409375 9.6375,8.98321875 9.63510937,9.00234375 C9.63314062,9.01823438 9.63089062,9.03398438 9.62925,9.04996875 C9.6271875,9.07040625 9.62601562,9.09107813 9.6245625,9.11165625 C9.62353125,9.12651563 9.62203125,9.14132813 9.62132812,9.15623438 C9.62128125,9.15721875 9.62114062,9.15820313 9.62109375,9.1591875 L8.79829687,9.1591875 C8.70440625,7.99190625 8.15357812,6.95170313 7.32529687,6.21778125 L8.94309375,4.06073438 L10.3940156,7.62070313 C10.3864219,7.62698438 10.3792031,7.6336875 10.3716562,7.6400625 C10.3590937,7.65070313 10.3466719,7.6614375 10.3343437,7.67240625 C10.3215469,7.68375 10.3089844,7.69532813 10.2964219,7.707 C10.2844219,7.71825 10.2725156,7.7295 10.2607969,7.74098437 Z M11.746875,10.6779375 C11.0413125,10.6779375 10.4548125,10.1590312 10.3486875,9.48276562 L10.3462969,9.46617187 C10.3462031,9.4655625 10.3461562,9.46490625 10.3460625,9.46420312 C10.3416562,9.4333125 10.3385156,9.40242187 10.3360781,9.37171875 C10.3357031,9.36646875 10.3352344,9.36126562 10.3349062,9.35601562 C10.33275,9.3245625 10.3314844,9.29325 10.3314844,9.26245313 C10.3314844,8.48198438 10.9664062,7.84701562 11.7469219,7.84701562 C11.7707812,7.84701562 11.7945,7.847625 11.8180781,7.84884375 C11.8248281,7.84917187 11.8314844,7.849875 11.8381875,7.85029687 C11.8551094,7.851375 11.8720312,7.8525 11.8888125,7.85414062 C11.89575,7.85484375 11.9026406,7.85582812 11.9095313,7.85667187 C11.926125,7.85859375 11.9427187,7.86051562 11.9590781,7.863 C11.965125,7.86389062 11.9710312,7.86510937 11.9770312,7.86604687 C11.994375,7.86890625 12.0117187,7.87185937 12.0288281,7.87532812 C12.0334687,7.87626562 12.0380625,7.87739062 12.0426563,7.878375 C12.0611719,7.8823125 12.0796875,7.88648437 12.0979687,7.89117187 C12.1009688,7.89192187 12.1039687,7.89285937 12.1069688,7.89360937 C12.1268437,7.89885937 12.1465781,7.90434375 12.1660312,7.9104375 C12.1675781,7.91090625 12.169125,7.91146875 12.1706719,7.9119375 C12.1915781,7.9185 12.2123438,7.92548437 12.2328281,7.93298437 C12.2330156,7.93307812 12.23325,7.933125 12.2334375,7.93321875 C12.3628125,7.98075 12.483375,8.04665625 12.5919844,8.12775 C12.5932031,8.12864062 12.5944219,8.129625 12.5955937,8.13051562 C12.6121406,8.14298437 12.6284062,8.1556875 12.6443438,8.16885937 C12.6467813,8.170875 12.649125,8.17289062 12.6515156,8.17490625 C12.6662344,8.1871875 12.6808125,8.19970312 12.6950156,8.21259375 C12.69825,8.21554687 12.7014375,8.21854687 12.704625,8.2215 C12.9857344,8.48039062 13.1622188,8.851125 13.1622188,9.2625 C13.1622656,10.0429687 12.5273437,10.6779375 11.746875,10.6779375 Z M12.9469687,7.50473437 C12.715125,7.34582812 12.4553906,7.23567187 12.1809844,7.1788125 C12.1777031,7.17815625 12.174375,7.17745313 12.1710937,7.17670312 C12.1055156,7.1634375 12.0391406,7.15317187 11.9720625,7.14614063 C11.9644687,7.14534375 11.9568281,7.14473438 11.9491875,7.14398438 C11.9237812,7.14159375 11.8982812,7.13967188 11.8726875,7.138125 C11.8636406,7.13760937 11.8546406,7.13704687 11.8455469,7.136625 C11.8127344,7.13517188 11.779875,7.13409375 11.746875,7.13409375 C11.7106875,7.13409375 11.6747812,7.13503125 11.6391094,7.13685938 C11.6273437,7.13742188 11.6156719,7.1386875 11.6039531,7.13948438 C11.5801406,7.14103125 11.5563281,7.14253125 11.53275,7.14492188 C11.5185469,7.14632813 11.5045781,7.1484375 11.4904687,7.15017188 C11.4695625,7.15270313 11.4486094,7.155 11.4278906,7.15814063 C11.4128437,7.1604375 11.3980312,7.16334375 11.3830781,7.16592188 C11.3635781,7.16929688 11.3440312,7.17248438 11.3247187,7.176375 C11.3091562,7.17951563 11.2939219,7.18326563 11.2785469,7.18673438 C11.260125,7.19090625 11.2416094,7.19484375 11.223375,7.19953125 C11.2076719,7.20351563 11.19225,7.2080625 11.1766875,7.21242188 C11.1590156,7.21734375 11.1412969,7.222125 11.1238125,7.22746875 C11.1081562,7.23225 11.0927812,7.23759375 11.0772656,7.24275 C11.06025,7.24842188 11.0431406,7.25395313 11.0263125,7.26004688 C11.0235937,7.26103125 11.0207812,7.261875 11.0181094,7.26285938 L9.605625,3.79715625 L15.9954844,3.79715625 L16.1416875,4.0591875 L12.9469687,7.50473437 Z M19.5936094,13.2090937 C17.5569844,13.2090937 15.9001406,11.5522031 15.9001406,9.515625 C15.9001406,8.25932812 16.531125,7.14810937 17.4922969,6.48060937 L19.2823125,9.68929687 L19.9049063,9.342 L18.1143281,6.13232812 C18.5675625,5.93339062 19.0677656,5.82215625 19.5936563,5.82215625 C21.6302813,5.82215625 23.2871719,7.47904687 23.2871719,9.515625 C23.287125,11.5521562 21.6302344,13.2090937 19.5936094,13.2090937 Z" id="Shape"></path>
                <rect id="Rectangle-path" x="11.3926406" y="8.8554375" width="1" height="1"></rect>
            </g>
        </g>
    </g>
</svg>