<?xml version="1.0" encoding="UTF-8"?>
<svg width="48px" height="48px" viewBox="0 0 48 48" version="1.1" xmlns="http://www.w3.org/2000/svg" xmlns:xlink="http://www.w3.org/1999/xlink">
    <!-- Generator: Sketch 47.1 (45422) - http://www.bohemiancoding.com/sketch -->
    <title>Group 67</title>
    <desc>Created with Sketch.</desc>
    <defs></defs>
    <g id="Page-1" stroke="none" stroke-width="1" fill="none" fill-rule="evenodd">
        <g id="Group-67" transform="translate(1.000000, 1.000000)">
            <g id="Group-57" stroke="#E3E3E3" fill="#FFFFFF">
                <circle id="Oval-3" cx="23" cy="23" r="23"></circle>
            </g>
            <g id="Group" transform="translate(11.000000, 12.000000)" fill-rule="nonzero" fill="#878787">
                <path d="M3.23306667,12.1626667 C4.5296,12.1626667 5.58426667,11.108 5.58426667,9.81146667 C5.58426667,8.51493333 4.5296,7.46026667 3.23306667,7.46026667 C1.93653333,7.46026667 0.881866667,8.51493333 0.881866667,9.81146667 C0.881866667,11.108 1.93653333,12.1626667 3.23306667,12.1626667 Z M3.23306667,8.26053333 C4.08853333,8.26053333 4.78426667,8.95626667 4.78426667,9.81173333 C4.78426667,10.6672 4.08853333,11.3629333 3.23306667,11.3629333 C2.3776,11.3629333 1.68186667,10.6672 1.68186667,9.81173333 C1.68186667,8.95626667 2.3776,8.26053333 3.23306667,8.26053333 Z" id="Shape"></path>
                <path d="M0.4,16.1050667 C0.621066667,16.1050667 0.8,15.9261333 0.8,15.7050667 L0.8,14.4709333 C0.8,13.8666667 1.29146667,13.3752 1.89573333,13.3752 L4.57013333,13.3752 C5.1744,13.3752 5.66586667,13.8666667 5.66586667,14.4709333 C5.66586667,14.692 5.8448,14.8709333 6.06586667,14.8709333 C6.28693333,14.8709333 6.46586667,14.692 6.46586667,14.4709333 C6.46586667,13.4256 5.61546667,12.5752 4.57013333,12.5752 L1.89573333,12.5752 C0.8504,12.5752 0,13.4256 0,14.4709333 L0,15.7050667 C0,15.9258667 0.178933333,16.1050667 0.4,16.1050667 Z" id="Shape"></path>
                <path d="M20.7669333,12.1626667 C22.0634667,12.1626667 23.1181333,11.108 23.1181333,9.81146667 C23.1181333,8.51493333 22.0634667,7.46026667 20.7669333,7.46026667 C19.4704,7.46026667 18.4157333,8.51493333 18.4157333,9.81146667 C18.4157333,11.108 19.4706667,12.1626667 20.7669333,12.1626667 Z M20.7669333,8.26053333 C21.6224,8.26053333 22.3181333,8.95626667 22.3181333,9.81173333 C22.3181333,10.6672 21.6224,11.3629333 20.7669333,11.3629333 C19.9114667,11.3629333 19.2157333,10.6672 19.2157333,9.81173333 C19.2157333,8.95626667 19.9117333,8.26053333 20.7669333,8.26053333 Z" id="Shape"></path>
                <path d="M22.1042667,12.5752 L19.4298667,12.5752 C18.3845333,12.5752 17.5341333,13.4256 17.5341333,14.4709333 C17.5341333,14.692 17.7130667,14.8709333 17.9341333,14.8709333 C18.1552,14.8709333 18.3341333,14.692 18.3341333,14.4709333 C18.3341333,13.8666667 18.8256,13.3752 19.4298667,13.3752 L22.1042667,13.3752 C22.7085333,13.3752 23.2,13.8666667 23.2,14.4709333 L23.2,15.7050667 C23.2,15.9261333 23.3789333,16.1050667 23.6,16.1050667 C23.8210667,16.1050667 24,15.9261333 24,15.7050667 L24,14.4709333 C24,13.4256 23.1496,12.5752 22.1042667,12.5752 Z" id="Shape"></path>
                <path d="M14.3512,15.9069333 C14.3512,14.6104 13.2965333,13.5557333 12,13.5557333 C10.7034667,13.5557333 9.6488,14.6104 9.6488,15.9069333 C9.6488,17.2034667 10.7034667,18.2581333 12,18.2581333 C13.2965333,18.2581333 14.3512,17.2034667 14.3512,15.9069333 Z M10.4488,15.9069333 C10.4488,15.0514667 11.1445333,14.3557333 12,14.3557333 C12.8554667,14.3557333 13.5512,15.0514667 13.5512,15.9069333 C13.5512,16.7624 12.8554667,17.4581333 12,17.4581333 C11.1445333,17.4581333 10.4488,16.7624 10.4488,15.9069333 Z" id="Shape"></path>
                <path d="M14.8330667,22.2002667 C15.0541333,22.2002667 15.2330667,22.0213333 15.2330667,21.8002667 L15.2330667,20.5664 C15.2330667,19.5210667 14.3826667,18.6706667 13.3373333,18.6706667 L10.6626667,18.6706667 C9.61733333,18.6706667 8.76693333,19.5210667 8.76693333,20.5664 L8.76693333,21.8002667 C8.76693333,22.0213333 8.94586667,22.2002667 9.16693333,22.2002667 C9.388,22.2002667 9.56693333,22.0213333 9.56693333,21.8002667 L9.56693333,20.5664 C9.56693333,19.9621333 10.0584,19.4706667 10.6626667,19.4706667 L13.3370667,19.4706667 C13.9413333,19.4706667 14.4328,19.9621333 14.4328,20.5664 L14.4328,21.8002667 C14.4330667,22.0213333 14.612,22.2002667 14.8330667,22.2002667 Z" id="Shape"></path>
                <path d="M12,4.90186667 C13.2965333,4.90186667 14.3512,3.8472 14.3512,2.55066667 C14.3512,1.25413333 13.2965333,0.199733333 12,0.199733333 C10.7034667,0.199733333 9.6488,1.2544 9.6488,2.55093333 C9.6488,3.84746667 10.7034667,4.90186667 12,4.90186667 Z M12,0.999733333 C12.8554667,0.999733333 13.5512,1.69546667 13.5512,2.55093333 C13.5512,3.4064 12.8554667,4.10186667 12,4.10186667 C11.1445333,4.10186667 10.4488,3.40613333 10.4488,2.55066667 C10.4488,1.6952 11.1445333,0.999733333 12,0.999733333 Z" id="Shape"></path>
                <path d="M9.16693333,8.84426667 C9.388,8.84426667 9.56693333,8.66533333 9.56693333,8.44426667 L9.56693333,7.21013333 C9.56693333,6.60586667 10.0584,6.1144 10.6626667,6.1144 L13.3370667,6.1144 C13.9413333,6.1144 14.4328,6.60586667 14.4328,7.21013333 L14.4328,8.44426667 C14.4328,8.66533333 14.6117333,8.84426667 14.8328,8.84426667 C15.0538667,8.84426667 15.2328,8.66533333 15.2328,8.44426667 L15.2328,7.21013333 C15.2328,6.1648 14.3824,5.3144 13.3370667,5.3144 L10.6626667,5.3144 C9.61733333,5.3144 8.76693333,6.1648 8.76693333,7.21013333 L8.76693333,8.44426667 C8.76693333,8.66506667 8.94613333,8.84426667 9.16693333,8.84426667 Z" id="Shape"></path>
                <path d="M7.6784,16.18 C7.89786667,16.1976 8.0912,16.0328 8.10853333,15.8125333 L8.5488,10.2114667 L15.4512,10.2114667 L15.8914667,15.8125333 C15.908,16.0221333 16.0832,16.1810667 16.2898667,16.1810667 C16.3002667,16.1810667 16.3109333,16.1808 16.3216,16.18 C16.5418667,16.1626667 16.7064,15.9701333 16.6890667,15.7498667 L16.2197333,9.78026667 C16.2032,9.57226667 16.0296,9.41173333 15.8208,9.41173333 L8.17893333,9.41173333 C7.97013333,9.41173333 7.79653333,9.57226667 7.78,9.78026667 L7.31066667,15.7498667 C7.2936,15.9701333 7.45813333,16.1626667 7.6784,16.18 Z" id="Shape"></path>
            </g>
        </g>
    </g>
</svg>