<?xml version="1.0" encoding="UTF-8"?>
<svg width="48px" height="48px" viewBox="0 0 48 48" version="1.1" xmlns="http://www.w3.org/2000/svg" xmlns:xlink="http://www.w3.org/1999/xlink">
    <!-- Generator: Sketch 47.1 (45422) - http://www.bohemiancoding.com/sketch -->
    <title>Group 49</title>
    <desc>Created with Sketch.</desc>
    <defs></defs>
    <g id="Page-1" stroke="none" stroke-width="1" fill="none" fill-rule="evenodd">
        <g id="Group-49" transform="translate(1.000000, 1.000000)">
            <circle id="Oval-3" stroke="#E3E3E3" fill="#FFFFFF" cx="23" cy="23" r="23"></circle>
            <path d="M29.7913043,23.755894 L25.6136209,23.755894 L24.5970326,20.7046046 C24.517447,20.4658478 24.2863573,20.2776223 24.0399783,20.3124158 C23.7878601,20.3181549 23.5693696,20.4861141 23.5009035,20.7283234 L21.8262432,26.5883791 L20.021466,18.4663438 C19.9663614,18.2207269 19.7582283,18.0393614 19.5068723,18.0190951 C19.2570408,18.0022813 19.0213329,18.143428 18.9283859,18.3776114 L16.776212,23.7559389 L12.573913,23.7559389 C12.2567364,23.7559389 12,24.0126753 12,24.3298519 C12,24.6470285 12.2567364,24.9037649 12.573913,24.9037649 L17.1652174,24.9037649 C17.399356,24.9041236 17.6113451,24.7614524 17.6977908,24.542962 L19.3039851,20.5290231 L21.1959701,29.0458927 C21.2529579,29.3026291 21.4771875,29.4874022 21.739663,29.4954728 C21.7454022,29.4954728 21.7507378,29.4954728 21.7564769,29.4954728 C22.0120476,29.4954728 22.2373981,29.3263478 22.307837,29.0795652 L24.0946345,22.8281277 L24.6551413,24.5116209 C24.7335611,24.7457595 24.9531726,24.9038098 25.1999552,24.9038098 L29.7912595,24.9038098 C30.1084361,24.9038098 30.3651726,24.6470734 30.3651726,24.3298967 C30.3652174,24.0125856 30.108481,23.755894 29.7913043,23.755894 Z" id="Shape" fill="#878787" fill-rule="nonzero"></path>
            <path d="M32.9393967,16.0344321 C31.5945571,14.6895924 29.8318818,14.0173519 28.0695652,14.0173519 C26.4205068,14.0173519 24.7848546,14.6299144 23.4782609,15.8071984 C22.1712636,14.6299144 20.5360149,14.0173519 18.8869565,14.0173519 C17.1242812,14.0173519 15.3619647,14.6895924 14.017125,16.0344769 C12.2337799,17.8181807 11.6594633,20.3303954 12.241447,22.6091889 L13.4351861,22.6091889 C12.8230272,20.6376182 13.2702758,18.4046929 14.8286291,16.8463397 C15.9125625,15.7624063 17.3538465,15.1655367 18.8869565,15.1655367 C20.2861386,15.1655367 21.5950639,15.6839864 22.6395856,16.5953424 L23.4782609,17.3793166 L24.3173397,16.5949837 C25.3618614,15.6839864 26.6707867,15.165178 28.0695652,15.165178 C29.6026753,15.165178 31.0436005,15.7620476 32.1278927,16.845981 C34.36575,19.0834796 34.3653913,22.7247785 32.1278927,24.9622772 L23.4782609,33.6118641 L15.9190639,26.0526671 L14.2956522,26.0526671 L23.4782609,35.2352758 L32.9393967,25.7741399 C35.6287622,23.0844158 35.6287622,18.7242011 32.9393967,16.0344321 Z" id="Shape" fill="#878787" fill-rule="nonzero"></path>
        </g>
    </g>
</svg>