<?xml version="1.0" encoding="UTF-8"?>
<svg width="48px" height="48px" viewBox="0 0 48 48" version="1.1" xmlns="http://www.w3.org/2000/svg" xmlns:xlink="http://www.w3.org/1999/xlink">
    <!-- Generator: Sketch 47.1 (45422) - http://www.bohemiancoding.com/sketch -->
    <title>Group 39</title>
    <desc>Created with Sketch.</desc>
    <defs></defs>
    <g id="Page-1" stroke="none" stroke-width="1" fill="none" fill-rule="evenodd">
        <g id="Group-39" transform="translate(1.000000, 1.000000)">
            <circle id="Oval-3" stroke="#E3E3E3" fill="#FFFFFF" cx="23" cy="23" r="23"></circle>
            <path d="M34.6112311,30.587473 L34.1965443,30.587473 C33.7951274,30.587473 32.6687862,29.7221253 31.6825054,28.9443283 L31.6825054,27.4384449 L32.688121,26.6842333 C33.0971058,26.3775205 33.3412527,25.8892268 33.3412527,25.3779698 L33.3412527,25.1706263 C33.3412527,24.9559222 33.1672397,24.7818575 32.9524838,24.7818575 C32.7377279,24.7818575 32.5637149,24.9559222 32.5637149,25.1706263 L32.5637149,25.3779698 C32.5637149,25.6457538 32.4358359,25.9015637 32.2215983,26.062203 L31.6825054,26.4665227 L31.6825054,23.9265659 C31.6825054,23.7118618 31.5084924,23.537797 31.2937365,23.537797 C31.0789806,23.537797 30.9049676,23.7118618 30.9049676,23.9265659 L30.9049676,28.3307473 C30.0696328,27.6750238 29.2005529,27.0150497 28.3650108,26.5094428 L28.3650108,23.2915767 L29.3706263,22.537365 C29.7796112,22.2306004 30.0237581,21.7423067 30.0237581,21.2311015 L30.0237581,20.6090713 C30.0237581,20.3943672 29.8497451,20.2203024 29.6349892,20.2203024 C29.4202333,20.2203024 29.2462203,20.3943672 29.2462203,20.6090713 L29.2462203,21.2311015 C29.2462203,21.4988855 29.1183413,21.7546955 28.9041037,21.9153348 L28.3650108,22.3196544 L28.3650108,19.7796976 C28.3650108,19.5649935 28.1909978,19.3909287 27.9762419,19.3909287 C27.761486,19.3909287 27.587473,19.5649935 27.587473,19.7796976 L27.587473,23.9784017 L27.0483801,23.5740821 C26.8341425,23.4133909 26.7062635,23.1576328 26.7062635,22.8898488 L26.7062635,20.6090713 C26.7062635,20.3943672 26.5322505,20.2203024 26.3174946,20.2203024 C26.1027387,20.2203024 25.9287257,20.3943672 25.9287257,20.6090713 L25.9287257,22.8898488 C25.9287257,23.401054 26.1728726,23.8893477 26.5818575,24.1961123 L27.587473,24.950324 L27.587473,26.0831447 C26.9863844,25.7911015 26.4154644,25.611594 25.9028078,25.611594 C25.2340734,25.611594 24.409054,25.8934773 23.3822894,26.4720691 C22.2000173,25.5122765 21.0371836,24.7822203 20.0712743,24.7822203 C18.9908078,24.7822203 17.6639654,25.695257 16.3390929,26.8221166 L16.3390929,23.0971922 C16.3390929,22.8824881 16.1650799,22.7084233 15.950324,22.7084233 C15.735568,22.7084233 15.5615551,22.8824881 15.5615551,23.0971922 L15.5615551,25.637149 L15.0224622,25.2328294 C14.8082246,25.0721382 14.6803456,24.8163801 14.6803456,24.5485961 L14.6803456,24.3412527 C14.6803456,24.1265486 14.5063326,23.9524838 14.2915767,23.9524838 C14.0768207,23.9524838 13.9028078,24.1265486 13.9028078,24.3412527 L13.9028078,24.5485961 C13.9028078,25.0598013 14.1469546,25.548095 14.5559395,25.8548596 L15.5615551,26.6090713 L15.5615551,27.5045875 C15.2151879,27.8165356 14.8722937,28.1337192 14.537486,28.4434903 C13.896432,29.0367516 13.2908855,29.5970972 12.7861598,29.9996544 C12.1024968,30.5450713 11.8610972,30.587473 11.8034557,30.587473 L11.3887689,30.587473 C11.174013,30.587473 11,30.7615378 11,30.9762419 C11,31.190946 11.174013,31.3650108 11.3887689,31.3650108 L34.6112311,31.3650108 C34.825987,31.3650108 35,31.190946 35,30.9762419 C35,30.7615378 34.825987,30.587473 34.6112311,30.587473 Z M30.9049676,29.3209676 L30.9049676,30.587473 L28.3650108,30.587473 L28.3650108,27.4296847 C29.2161555,27.9880086 30.1056069,28.6889849 30.9049676,29.3209676 Z M25.9028078,26.3890799 C26.3780389,26.3890799 26.9594816,26.6113521 27.587473,26.95746 L27.587473,30.1777624 C27.5167171,30.1253045 27.4398963,30.0663153 27.3563888,29.9997063 C26.8516631,29.5970972 26.2461166,29.0367516 25.6050626,28.4435421 C25.0905918,27.9674816 24.5570454,27.4739006 24.0210108,27.0089849 C24.7973564,26.5978229 25.4297019,26.3890799 25.9028078,26.3890799 L25.9028078,26.3890799 Z M20.0712743,25.5597063 C21.3438445,25.5597063 23.4137019,27.4751447 25.0769071,29.014203 C25.7829633,29.6675421 26.3618143,30.1973045 26.8473607,30.587473 L16.3390929,30.587473 L16.3390929,27.8530799 C17.6920605,26.6541166 19.1094082,25.5597063 20.0712743,25.5597063 Z M15.0656415,29.014203 C15.2274212,28.8645011 15.3931922,28.7111188 15.5615551,28.5563888 L15.5615551,30.587473 L13.2951879,30.587473 C13.7806825,30.1973045 14.3595853,29.667594 15.0656415,29.014203 L15.0656415,29.014203 Z M31.6825054,30.587473 L31.6825054,29.9316458 C32.0039395,30.1810799 32.2939093,30.4001901 32.5573391,30.587473 L31.6825054,30.587473 Z" id="Shape" fill="#878787" fill-rule="nonzero"></path>
            <path d="M18.8790497,17.7062635 C18.8790497,18.8352484 19.797581,19.7537797 20.9265659,19.7537797 C22.0555508,19.7537797 22.9740821,18.8352484 22.9740821,17.7062635 C22.9740821,16.5772786 22.0555508,15.6587473 20.9265659,15.6587473 C19.797581,15.6587473 18.8790497,16.5772786 18.8790497,17.7062635 Z M22.1965443,17.7062635 C22.1965443,18.406514 21.6268683,18.9762419 20.9265659,18.9762419 C20.2262635,18.9762419 19.6565875,18.406514 19.6565875,17.7062635 C19.6565875,17.006013 20.2262635,16.4362851 20.9265659,16.4362851 C21.6268683,16.4362851 22.1965443,17.006013 22.1965443,17.7062635 Z" id="Shape" fill="#878787" fill-rule="nonzero"></path>
            <path d="M20.9265659,21.412527 C22.6175032,21.412527 24.0933218,20.2703758 24.5153693,18.6350065 C24.5690194,18.4270929 24.4439914,18.2150324 24.2360778,18.1613823 C24.028216,18.107784 23.8161555,18.2328121 23.7625054,18.4406739 C23.4290454,19.7326307 22.2628423,20.6349892 20.9265659,20.6349892 C19.5893045,20.6349892 18.4228942,19.7318531 18.090108,18.4387559 C18.0365616,18.2308423 17.8248121,18.1055032 17.6166911,18.1591533 C17.4087257,18.2126479 17.2835421,18.4246048 17.3370367,18.6325702 C17.7584104,20.2693391 19.2343844,21.412527 20.9265659,21.412527 Z" id="Shape" fill="#878787" fill-rule="nonzero"></path>
            <path d="M17.6168467,17.2523888 C17.8246566,17.3058834 18.0367171,17.1808035 18.0903153,16.9729417 C18.4234125,15.680311 19.5897192,14.7775378 20.9265659,14.7775378 C22.2638272,14.7775378 23.4302376,15.6806739 23.7630238,16.9737711 C23.8081728,17.1491836 23.9661166,17.2657106 24.1393002,17.2657106 C24.1713348,17.2657106 24.2039395,17.2617192 24.2364406,17.2533218 C24.444406,17.1998272 24.5695896,16.9878704 24.516095,16.779905 C24.0947214,15.1431879 22.6187473,14 20.9265659,14 C19.2349028,14 17.7590324,15.1427214 17.3373996,16.7789201 C17.2838531,16.9868337 17.408933,17.1987905 17.6168467,17.2523888 Z" id="Shape" fill="#878787" fill-rule="nonzero"></path>
        </g>
    </g>
</svg>