<?xml version="1.0" encoding="UTF-8"?>
<svg width="48px" height="48px" viewBox="0 0 48 48" version="1.1" xmlns="http://www.w3.org/2000/svg" xmlns:xlink="http://www.w3.org/1999/xlink">
    <!-- Generator: Sketch 47.1 (45422) - http://www.bohemiancoding.com/sketch -->
    <title>Group 10</title>
    <desc>Created with Sketch.</desc>
    <defs></defs>
    <g id="Page-1" stroke="none" stroke-width="1" fill="none" fill-rule="evenodd">
        <g id="Group-10" transform="translate(1.000000, 1.000000)">
            <circle id="Oval-3" stroke="#E3E3E3" cx="23" cy="23" r="23"></circle>
            <g id="desert" transform="translate(11.000000, 14.000000)" fill-rule="nonzero" fill="#FFFFFF">
                <path d="M23.6112311,16.587473 L23.1965443,16.587473 C22.7951274,16.587473 21.6687862,15.7221253 20.6825054,14.9443283 L20.6825054,13.4384449 L21.688121,12.6842333 C22.0971058,12.3775205 22.3412527,11.8892268 22.3412527,11.3779698 L22.3412527,11.1706263 C22.3412527,10.9559222 22.1672397,10.7818575 21.9524838,10.7818575 C21.7377279,10.7818575 21.5637149,10.9559222 21.5637149,11.1706263 L21.5637149,11.3779698 C21.5637149,11.6457538 21.4358359,11.9015637 21.2215983,12.062203 L20.6825054,12.4665227 L20.6825054,9.92656587 C20.6825054,9.71186177 20.5084924,9.53779698 20.2937365,9.53779698 C20.0789806,9.53779698 19.9049676,9.71186177 19.9049676,9.92656587 L19.9049676,14.3307473 C19.0696328,13.6750238 18.2005529,13.0150497 17.3650108,12.5094428 L17.3650108,9.29157667 L18.3706263,8.53736501 C18.7796112,8.23060043 19.0237581,7.7423067 19.0237581,7.23110151 L19.0237581,6.60907127 C19.0237581,6.39436717 18.8497451,6.22030238 18.6349892,6.22030238 C18.4202333,6.22030238 18.2462203,6.39436717 18.2462203,6.60907127 L18.2462203,7.23110151 C18.2462203,7.49888553 18.1183413,7.75469546 17.9041037,7.91533477 L17.3650108,8.31965443 L17.3650108,5.77969762 C17.3650108,5.56499352 17.1909978,5.39092873 16.9762419,5.39092873 C16.761486,5.39092873 16.587473,5.56499352 16.587473,5.77969762 L16.587473,9.97840173 L16.0483801,9.57408207 C15.8341425,9.41339093 15.7062635,9.15763283 15.7062635,8.88984881 L15.7062635,6.60907127 C15.7062635,6.39436717 15.5322505,6.22030238 15.3174946,6.22030238 C15.1027387,6.22030238 14.9287257,6.39436717 14.9287257,6.60907127 L14.9287257,8.88984881 C14.9287257,9.401054 15.1728726,9.88934773 15.5818575,10.1961123 L16.587473,10.950324 L16.587473,12.0831447 C15.9863844,11.7911015 15.4154644,11.611594 14.9028078,11.611594 C14.2340734,11.611594 13.409054,11.8934773 12.3822894,12.4720691 C11.2000173,11.5122765 10.0371836,10.7822203 9.0712743,10.7822203 C7.99080778,10.7822203 6.66396544,11.695257 5.33909287,12.8221166 L5.33909287,9.09719222 C5.33909287,8.88248812 5.16507991,8.70842333 4.95032397,8.70842333 C4.73556803,8.70842333 4.56155508,8.88248812 4.56155508,9.09719222 L4.56155508,11.637149 L4.0224622,11.2328294 C3.80822462,11.0721382 3.68034557,10.8163801 3.68034557,10.5485961 L3.68034557,10.3412527 C3.68034557,10.1265486 3.50633261,9.9524838 3.29157667,9.9524838 C3.07682073,9.9524838 2.90280778,10.1265486 2.90280778,10.3412527 L2.90280778,10.5485961 C2.90280778,11.0598013 3.14695464,11.548095 3.55593952,11.8548596 L4.56155508,12.6090713 L4.56155508,13.5045875 C4.2151879,13.8165356 3.87229374,14.1337192 3.53748596,14.4434903 C2.89643197,15.0367516 2.29088553,15.5970972 1.78615983,15.9996544 C1.10249676,16.5450713 0.861097192,16.587473 0.803455724,16.587473 L0.388768898,16.587473 C0.174012959,16.587473 0,16.7615378 0,16.9762419 C0,17.190946 0.174012959,17.3650108 0.388768898,17.3650108 L23.6112311,17.3650108 C23.825987,17.3650108 24,17.190946 24,16.9762419 C24,16.7615378 23.825987,16.587473 23.6112311,16.587473 Z M19.9049676,15.3209676 L19.9049676,16.587473 L17.3650108,16.587473 L17.3650108,13.4296847 C18.2161555,13.9880086 19.1056069,14.6889849 19.9049676,15.3209676 Z M14.9028078,12.3890799 C15.3780389,12.3890799 15.9594816,12.6113521 16.587473,12.95746 L16.587473,16.1777624 C16.5167171,16.1253045 16.4398963,16.0663153 16.3563888,15.9997063 C15.8516631,15.5970972 15.2461166,15.0367516 14.6050626,14.4435421 C14.0905918,13.9674816 13.5570454,13.4739006 13.0210108,13.0089849 C13.7973564,12.5978229 14.4297019,12.3890799 14.9028078,12.3890799 L14.9028078,12.3890799 Z M9.0712743,11.5597063 C10.3438445,11.5597063 12.4137019,13.4751447 14.0769071,15.014203 C14.7829633,15.6675421 15.3618143,16.1973045 15.8473607,16.587473 L5.33909287,16.587473 L5.33909287,13.8530799 C6.69206048,12.6541166 8.10940821,11.5597063 9.0712743,11.5597063 Z M4.06564147,15.014203 C4.22742117,14.8645011 4.39319222,14.7111188 4.56155508,14.5563888 L4.56155508,16.587473 L2.2951879,16.587473 C2.78068251,16.1973045 3.35958531,15.667594 4.06564147,15.014203 L4.06564147,15.014203 Z M20.6825054,16.587473 L20.6825054,15.9316458 C21.0039395,16.1810799 21.2939093,16.4001901 21.5573391,16.587473 L20.6825054,16.587473 Z" id="Shape"></path>
                <path d="M7.87904968,3.7062635 C7.87904968,4.83524838 8.79758099,5.7537797 9.92656587,5.7537797 C11.0555508,5.7537797 11.9740821,4.83524838 11.9740821,3.7062635 C11.9740821,2.57727862 11.0555508,1.6587473 9.92656587,1.6587473 C8.79758099,1.6587473 7.87904968,2.57727862 7.87904968,3.7062635 Z M11.1965443,3.7062635 C11.1965443,4.40651404 10.6268683,4.9762419 9.92656587,4.9762419 C9.2262635,4.9762419 8.65658747,4.40651404 8.65658747,3.7062635 C8.65658747,3.00601296 9.2262635,2.4362851 9.92656587,2.4362851 C10.6268683,2.4362851 11.1965443,3.00601296 11.1965443,3.7062635 Z" id="Shape"></path>
                <path d="M9.92656587,7.412527 C11.6175032,7.412527 13.0933218,6.27037581 13.5153693,4.63500648 C13.5690194,4.42709287 13.4439914,4.2150324 13.2360778,4.16138229 C13.028216,4.10778402 12.8161555,4.2328121 12.7625054,4.44067387 C12.4290454,5.73263067 11.2628423,6.6349892 9.92656587,6.6349892 C8.58930454,6.6349892 7.42289417,5.73185313 7.09010799,4.43875594 C7.03656156,4.23084233 6.8248121,4.10550324 6.61669114,4.15915335 C6.4087257,4.21264795 6.28354212,4.42460475 6.33703672,4.63257019 C6.75841037,6.26933909 8.23438445,7.412527 9.92656587,7.412527 Z" id="Shape"></path>
                <path d="M6.61684665,3.25238877 C6.82465659,3.30588337 7.03671706,3.18080346 7.09031533,2.97294168 C7.42341253,1.68031102 8.58971922,0.777537797 9.92656587,0.777537797 C11.2638272,0.777537797 12.4302376,1.68067387 12.7630238,2.97377106 C12.8081728,3.14918359 12.9661166,3.26571058 13.1393002,3.26571058 C13.1713348,3.26571058 13.2039395,3.26171922 13.2364406,3.25332181 C13.444406,3.19982721 13.5695896,2.98787041 13.516095,2.77990497 C13.0947214,1.1431879 11.6187473,0 9.92656587,0 C8.23490281,0 6.7590324,1.14272138 6.33739957,2.77892009 C6.28385313,2.98683369 6.40893305,3.1987905 6.61684665,3.25238877 Z" id="Shape"></path>
            </g>
        </g>
    </g>
</svg>