<?xml version="1.0" encoding="UTF-8"?>
<svg width="48px" height="48px" viewBox="0 0 48 48" version="1.1" xmlns="http://www.w3.org/2000/svg" xmlns:xlink="http://www.w3.org/1999/xlink">
    <!-- Generator: Sketch 47.1 (45422) - http://www.bohemiancoding.com/sketch -->
    <title>Group 58</title>
    <desc>Created with Sketch.</desc>
    <defs></defs>
    <g id="Page-1" stroke="none" stroke-width="1" fill="none" fill-rule="evenodd">
        <g id="Group-58" transform="translate(1.000000, 1.000000)">
            <circle id="Oval-3" stroke="#E3E3E3" fill="#FFFFFF" cx="23" cy="23" r="23"></circle>
            <path d="M23.2355049,15.0145909 C22.0157991,15.0145909 21.0234917,16.0068983 21.0234917,17.2266041 C21.0234917,18.4463098 22.0157991,19.4386172 23.2355049,19.4386172 C24.4552536,19.4386172 25.447561,18.4463098 25.447518,17.2266041 C25.447561,16.0068983 24.4552536,15.0145909 23.2355049,15.0145909 Z M23.2355049,18.5796997 C22.4894062,18.5796997 21.8824092,17.9727028 21.8824092,17.2266041 C21.8824092,16.4805054 22.4894062,15.8735084 23.2355049,15.8735084 C23.9816035,15.8735084 24.5886005,16.4805054 24.5886005,17.2266041 C24.5886005,17.9727028 23.9816035,18.5796997 23.2355049,18.5796997 Z" id="Shape" fill="#878787" fill-rule="nonzero"></path>
            <path d="M16.9502903,22.1324831 C17.2911517,22.329304 17.669376,22.4297973 18.0527109,22.4297973 C18.2448078,22.4297973 18.438279,22.4045452 18.6288298,22.3534396 C19.1995375,22.2005093 19.6765374,21.8344816 19.971962,21.3227815 C20.2673867,20.8110815 20.3458917,20.2149927 20.1929615,19.644285 C20.0400312,19.0735773 19.6740035,18.5965775 19.1623035,18.3011528 C18.6506034,18.0057281 18.0544717,17.927266 17.4838069,18.0801533 C16.9130563,18.2330836 16.4360564,18.5991113 16.1406318,19.1108114 C15.8452071,19.6225114 15.766702,20.2186002 15.9196323,20.7893508 C16.0725196,21.3600586 16.4385473,21.8370584 16.9502903,22.1324831 Z M16.8844543,19.5402701 C17.0651705,19.2272806 17.3569448,19.0033608 17.7060518,18.9098247 C17.8226499,18.878603 17.9409228,18.8631425 18.0584657,18.8631425 C18.2929501,18.8631425 18.5243425,18.924641 18.7328447,19.0450183 C19.0458343,19.2257345 19.269754,19.5175088 19.3632902,19.8666158 C19.4568692,20.2157228 19.4088557,20.5803762 19.2281395,20.8933657 C19.0474232,21.2063553 18.755606,21.4302751 18.406499,21.5238112 C18.057392,21.6173902 17.6927386,21.5693768 17.3797491,21.3886605 C17.0667595,21.2079443 16.8428398,20.9161271 16.7493036,20.5670201 C16.6557246,20.217913 16.7037381,19.8533026 16.8844543,19.5402701 Z" id="Shape" fill="#878787" fill-rule="nonzero"></path>
            <path d="M18.6287869,24.060624 C18.0579933,23.9076937 17.4619475,23.9862417 16.9502474,24.2816234 C15.8939507,24.8914548 15.5307145,26.2469984 16.1405888,27.3032951 C16.4360135,27.8150382 16.9130133,28.1810229 17.483764,28.3339531 C17.6743578,28.3850158 17.8677001,28.410268 18.0598829,28.410268 C18.4431748,28.410268 18.821485,28.3097317 19.1622605,28.1129107 C19.6740035,27.8174861 20.0399883,27.3404862 20.1929185,26.7697785 C20.3458488,26.1990708 20.2673437,25.6029821 19.9719191,25.091282 C19.6764944,24.5795819 19.1994946,24.2135542 18.6287869,24.060624 Z M19.3632472,26.5475766 C19.2697111,26.8966836 19.0458343,27.1884579 18.7328018,27.3691741 C18.4198122,27.5498903 18.0552018,27.5979038 17.7060089,27.5043248 C17.3569019,27.4107457 17.0651276,27.1868689 16.8844114,26.8738793 C16.5113835,26.2277157 16.7335854,25.3985597 17.3797061,25.0254889 C17.5882083,24.9051116 17.8196007,24.8436131 18.0540852,24.8436131 C18.1715851,24.8436131 18.2899439,24.8590736 18.4064561,24.8903812 C18.755606,24.9839173 19.0473803,25.2077941 19.2280965,25.5208266 C19.4088557,25.8338161 19.4567833,26.1984696 19.3632472,26.5475766 Z" id="Shape" fill="#878787" fill-rule="nonzero"></path>
            <path d="M23.2355049,26.9755322 C22.0157991,26.9755322 21.0234917,27.9678396 21.0234917,29.1875453 C21.0234917,30.4072511 22.0157991,31.3995585 23.2355049,31.3995585 C24.4552536,31.3995585 25.447518,30.4072511 25.447518,29.1875453 C25.447518,27.9678396 24.4552536,26.9755322 23.2355049,26.9755322 Z M23.2355049,30.540598 C22.4894062,30.540598 21.8824092,29.9336011 21.8824092,29.1875024 C21.8824092,28.4414037 22.4894062,27.8344067 23.2355049,27.8344067 C23.9816035,27.8344067 24.5886005,28.4414037 24.5886005,29.1875024 C24.5886005,29.9336011 23.9816035,30.540598 23.2355049,30.540598 Z" id="Shape" fill="#878787" fill-rule="nonzero"></path>
            <path d="M30.3304639,27.3033381 C30.6258886,26.791638 30.7043936,26.1955492 30.5514634,25.6247986 C30.3985331,25.0540909 30.0325054,24.577091 29.5208053,24.2816664 C29.0090623,23.9862417 28.4130165,23.9077796 27.8422658,24.0606669 C27.2715581,24.2135972 26.7945583,24.5796248 26.4991336,25.0913249 C26.203709,25.603025 26.1252039,26.1991138 26.2781342,26.7698215 C26.4310644,27.3405292 26.7970921,27.817529 27.3087922,28.1129537 C27.6496536,28.3097746 28.0279209,28.410268 28.4112128,28.410268 C28.6033526,28.410268 28.7967808,28.3850158 28.9873317,28.3339961 C29.5579965,28.1810658 30.0349963,27.8150382 30.3304639,27.3033381 Z M29.5865984,26.8737934 C29.4058822,27.186783 29.1141079,27.4107028 28.7650009,27.5042389 C28.4158939,27.5978609 28.0512405,27.5498044 27.7382509,27.3690882 C27.4252614,27.188372 27.2013416,26.8965977 27.1078055,26.5474907 C27.0142264,26.1983837 27.0622399,25.8337303 27.2429562,25.5207407 C27.4236724,25.2077512 27.7154896,24.9838314 28.0645966,24.8902953 C28.1811947,24.8590736 28.2994676,24.8436131 28.4170105,24.8436131 C28.651452,24.8436131 28.8828873,24.9051116 29.0913466,25.025403 C29.4043361,25.2061193 29.6282559,25.4978935 29.721792,25.8470005 C29.8153281,26.1961505 29.7673146,26.560761 29.5865984,26.8737934 Z" id="Shape" fill="#878787" fill-rule="nonzero"></path>
            <path d="M27.8422658,22.3534825 C28.0328596,22.4045452 28.2262449,22.4297973 28.4183847,22.4297973 C28.8016767,22.4297973 29.1799439,22.329261 29.5207624,22.132526 C30.0325054,21.8371013 30.3984902,21.3601015 30.5514204,20.7893938 C30.7043507,20.2186431 30.6258456,19.6225544 30.3304209,19.1108543 C30.0349963,18.5991113 29.5579965,18.2331265 28.9872887,18.0801963 C28.416581,17.927266 27.8205352,18.0057711 27.3087922,18.3011957 C26.7970492,18.5966204 26.4310644,19.0736202 26.2781342,19.644328 C26.1252039,20.2150357 26.203709,20.8110815 26.4991336,21.3228245 C26.7945583,21.8345675 27.2715581,22.2005523 27.8422658,22.3534825 Z M27.1078055,19.8666158 C27.2013416,19.5175088 27.4252185,19.2257345 27.7382509,19.0450183 C27.9467531,18.924641 28.1781455,18.8631425 28.41263,18.8631425 C28.5301299,18.8631425 28.6484458,18.878603 28.7650009,18.9098247 C29.1141079,19.0034037 29.4058822,19.2272806 29.5865984,19.5402701 C29.7673146,19.8532596 29.8153281,20.217913 29.721792,20.5670201 C29.6282559,20.91617 29.4043791,21.2079443 29.0913466,21.3886605 C28.7784,21.5693338 28.4137466,21.6173902 28.0645966,21.5238112 C27.7154467,21.4302751 27.4236724,21.2063982 27.2429562,20.8933657 C27.0622399,20.5803762 27.0142694,20.2157228 27.1078055,19.8666158 Z" id="Shape" fill="#878787" fill-rule="nonzero"></path>
            <path d="M21.6614098,23.2070747 C21.6614098,24.0750538 22.3675688,24.7812128 23.2355478,24.7812128 C24.1035698,24.7812128 24.8096859,24.0750538 24.8096859,23.2070747 C24.8096859,22.3390957 24.1035269,21.6329366 23.2355478,21.6329366 C22.3675688,21.6329366 21.6614098,22.3390957 21.6614098,23.2070747 Z M23.2355049,22.4918541 C23.6299198,22.4918541 23.9507255,22.8127028 23.9507255,23.2070747 C23.9507255,23.6014467 23.6298768,23.9222953 23.2355049,23.9222953 C22.8411329,23.9222953 22.5202843,23.6014467 22.5202843,23.2070747 C22.5203272,22.8127028 22.8411759,22.4918541 23.2355049,22.4918541 Z" id="Shape" fill="#878787" fill-rule="nonzero"></path>
            <path d="M31.7094988,31.5059354 L29.1809746,31.5059354 C29.6292007,31.1833689 30.0548802,30.8227524 30.4530744,30.4245583 C32.3809576,28.4966751 33.4426655,25.9334935 33.4426655,23.2070747 C33.4426655,20.4806559 32.3809576,17.9174744 30.4530744,15.9895911 C28.5251482,14.0617079 25.9619666,13 23.2355049,13 C20.5090861,13 17.9459045,14.0617079 16.0180213,15.9895911 C14.0901381,17.9174744 13.0284731,20.4806559 13.0284731,23.2070747 C13.0284731,25.9334935 14.090181,28.4966751 16.0180642,30.4245583 C17.9459475,32.3524415 20.509129,33.4141494 23.2355478,33.4141494 C24.8292692,33.4141494 26.3669892,33.0507844 27.754871,32.3642516 C27.758822,32.3643805 27.7626442,32.3648529 27.7665952,32.3648529 L31.7094559,32.3648529 C32.5070896,32.3648529 33.1560447,33.013765 33.1560447,33.8114417 L33.1560447,34.12937 C33.1560447,34.3665601 33.3483134,34.5588287 33.5855035,34.5588287 C33.8226935,34.5588287 34.0149622,34.3665601 34.0149622,34.12937 L34.0149622,33.8113988 C34.0149622,32.5401579 32.9807397,31.5059354 31.7094988,31.5059354 Z M23.2355049,32.5552319 C18.0808834,32.5552319 13.8873906,28.3616532 13.8873906,23.2070747 C13.8873906,18.0524532 18.0809264,13.8589175 23.2355049,13.8589175 C28.3900834,13.8589175 32.5836621,18.0524532 32.5836621,23.2070747 C32.5836621,28.3616962 28.3901693,32.5552319 23.2355049,32.5552319 Z" id="Shape" fill="#878787" fill-rule="nonzero"></path>
        </g>
    </g>
</svg>