<?xml version="1.0" encoding="UTF-8"?>
<svg width="48px" height="48px" viewBox="0 0 48 48" version="1.1" xmlns="http://www.w3.org/2000/svg" xmlns:xlink="http://www.w3.org/1999/xlink">
    <!-- Generator: Sketch 47.1 (45422) - http://www.bohemiancoding.com/sketch -->
    <title>Group 29</title>
    <desc>Created with Sketch.</desc>
    <defs></defs>
    <g id="Page-1" stroke="none" stroke-width="1" fill="none" fill-rule="evenodd">
        <g id="Group-29" transform="translate(1.000000, 1.000000)">
            <circle id="Oval-3" stroke="#E3E3E3" cx="23" cy="23" r="23"></circle>
            <g id="film" transform="translate(13.000000, 13.000000)" fill-rule="nonzero" fill="#FFFFFF">
                <path d="M10.2355049,2.01459095 C9.01579911,2.01459095 8.02349175,3.00689831 8.02349175,4.22660408 C8.02349175,5.44630985 9.01579911,6.43861721 10.2355049,6.43861721 C11.4552536,6.43861721 12.447561,5.44630985 12.447518,4.22660408 C12.447561,3.00689831 11.4552536,2.01459095 10.2355049,2.01459095 Z M10.2355049,5.57969973 C9.48940621,5.57969973 8.88240923,4.97270275 8.88240923,4.22660408 C8.88240923,3.48050541 9.48940621,2.87350843 10.2355049,2.87350843 C10.9816035,2.87350843 11.5886005,3.48050541 11.5886005,4.22660408 C11.5886005,4.97270275 10.9816035,5.57969973 10.2355049,5.57969973 Z" id="Shape"></path>
                <path d="M3.95029033,9.13248305 C4.29115173,9.32930399 4.66937604,9.42979734 5.05271091,9.42979734 C5.24480781,9.42979734 5.43827897,9.40454516 5.62882981,9.35343957 C6.19953753,9.20050932 6.67653736,8.83448163 6.97196202,8.32278154 C7.26738669,7.81108146 7.34589175,7.21499272 7.19296149,6.644285 C7.04003123,6.07357728 6.67400355,5.59657746 6.16230346,5.3011528 C5.65060337,5.00572813 5.05447169,4.92726602 4.48380692,5.08015333 C3.91305626,5.23308358 3.43605643,5.59911127 3.14063177,6.11081136 C2.8452071,6.62251145 2.76670204,7.21860018 2.9196323,7.78935084 C3.07251961,8.36005856 3.43854729,8.83705839 3.95029033,9.13248305 Z M3.8844543,6.5402701 C4.06517054,6.22728057 4.35694481,6.00336078 4.70605182,5.90982467 C4.82264987,5.87860302 4.9409228,5.8631425 5.05846566,5.8631425 C5.29295013,5.8631425 5.5243425,5.92464099 5.73284472,6.04501828 C6.04583425,6.22573452 6.26975404,6.51750878 6.36329015,6.86661579 C6.45686921,7.2157228 6.40885572,7.58037622 6.22813949,7.89336575 C6.04742325,8.20635528 5.75560603,8.43027507 5.40649902,8.52381118 C5.05739201,8.61739024 4.6927386,8.56937675 4.37974907,8.38866051 C4.06675954,8.20794428 3.84283975,7.91612706 3.74930364,7.56702005 C3.65572458,7.21791304 3.70373807,6.85330257 3.8844543,6.5402701 Z" id="Shape"></path>
                <path d="M5.62878687,11.060624 C5.05799326,10.9076937 4.46194747,10.9862417 3.95024738,11.2816234 C2.89395067,11.8914548 2.53071446,13.2469984 3.14058882,14.3032951 C3.43601349,14.8150382 3.91301331,15.1810229 4.48376398,15.3339531 C4.67435776,15.3850158 4.86770009,15.410268 5.05988287,15.410268 C5.4431748,15.410268 5.821485,15.3097317 6.16226051,15.1129107 C6.67400355,14.8174861 7.03998829,14.3404862 7.19291854,13.7697785 C7.3458488,13.1990708 7.26734374,12.6029821 6.97191908,12.091282 C6.67649441,11.5795819 6.19949459,11.2135542 5.62878687,11.060624 Z M6.3632472,13.5475766 C6.26971109,13.8966836 6.04583425,14.1884579 5.73280177,14.3691741 C5.41981224,14.5498903 5.05520177,14.5979038 4.70600887,14.5043248 C4.35690186,14.4107457 4.0651276,14.1868689 3.88441136,13.8738793 C3.5113835,13.2277157 3.73358545,12.3985597 4.37970612,12.0254889 C4.58820834,11.9051116 4.81960071,11.8436131 5.05408518,11.8436131 C5.17158509,11.8436131 5.28994392,11.8590736 5.40645608,11.8903812 C5.75560603,11.9839173 6.0473803,12.2077941 6.22809654,12.5208266 C6.40885572,12.8338161 6.45678332,13.1984696 6.3632472,13.5475766 Z" id="Shape"></path>
                <path d="M10.2355049,13.9755322 C9.01579911,13.9755322 8.02349175,14.9678396 8.02349175,16.1875453 C8.02349175,17.4072511 9.01579911,18.3995585 10.2355049,18.3995585 C11.4552536,18.3995585 12.447518,17.4072511 12.447518,16.1875453 C12.447518,14.9678396 11.4552536,13.9755322 10.2355049,13.9755322 Z M10.2355049,17.540598 C9.48940621,17.540598 8.88240923,16.9336011 8.88240923,16.1875024 C8.88240923,15.4414037 9.48940621,14.8344067 10.2355049,14.8344067 C10.9816035,14.8344067 11.5886005,15.4414037 11.5886005,16.1875024 C11.5886005,16.9336011 10.9816035,17.540598 10.2355049,17.540598 Z" id="Shape"></path>
                <path d="M17.3304639,14.3033381 C17.6258886,13.791638 17.7043936,13.1955492 17.5514634,12.6247986 C17.3985331,12.0540909 17.0325054,11.577091 16.5208053,11.2816664 C16.0090623,10.9862417 15.4130165,10.9077796 14.8422658,11.0606669 C14.2715581,11.2135972 13.7945583,11.5796248 13.4991336,12.0913249 C13.203709,12.603025 13.1252039,13.1991138 13.2781342,13.7698215 C13.4310644,14.3405292 13.7970921,14.817529 14.3087922,15.1129537 C14.6496536,15.3097746 15.0279209,15.410268 15.4112128,15.410268 C15.6033526,15.410268 15.7967808,15.3850158 15.9873317,15.3339961 C16.5579965,15.1810658 17.0349963,14.8150382 17.3304639,14.3033381 Z M16.5865984,13.8737934 C16.4058822,14.186783 16.1141079,14.4107028 15.7650009,14.5042389 C15.4158939,14.5978609 15.0512405,14.5498044 14.7382509,14.3690882 C14.4252614,14.188372 14.2013416,13.8965977 14.1078055,13.5474907 C14.0142264,13.1983837 14.0622399,12.8337303 14.2429562,12.5207407 C14.4236724,12.2077512 14.7154896,11.9838314 15.0645966,11.8902953 C15.1811947,11.8590736 15.2994676,11.8436131 15.4170105,11.8436131 C15.651452,11.8436131 15.8828873,11.9051116 16.0913466,12.025403 C16.4043361,12.2061193 16.6282559,12.4978935 16.721792,12.8470005 C16.8153281,13.1961505 16.7673146,13.560761 16.5865984,13.8737934 Z" id="Shape"></path>
                <path d="M14.8422658,9.35348252 C15.0328596,9.40454516 15.2262449,9.42979734 15.4183847,9.42979734 C15.8016767,9.42979734 16.1799439,9.32926105 16.5207624,9.132526 C17.0325054,8.83710133 17.3984902,8.36010151 17.5514204,7.78939379 C17.7043507,7.21864312 17.6258456,6.62255439 17.3304209,6.1108543 C17.0349963,5.59911127 16.5579965,5.23312653 15.9872887,5.08019627 C15.416581,4.92726602 14.8205352,5.00577107 14.3087922,5.30119574 C13.7970492,5.59662041 13.4310644,6.07362023 13.2781342,6.64432795 C13.1252039,7.21503567 13.203709,7.81108146 13.4991336,8.32282449 C13.7945583,8.83456752 14.2715581,9.20055226 14.8422658,9.35348252 Z M14.1078055,6.86661579 C14.2013416,6.51750878 14.4252185,6.22573452 14.7382509,6.04501828 C14.9467531,5.92464099 15.1781455,5.8631425 15.41263,5.8631425 C15.5301299,5.8631425 15.6484458,5.87860302 15.7650009,5.90982467 C16.1141079,6.00340373 16.4058822,6.22728057 16.5865984,6.5402701 C16.7673146,6.85325963 16.8153281,7.21791304 16.721792,7.56702005 C16.6282559,7.91617001 16.4043791,8.20794428 16.0913466,8.38866051 C15.7784,8.56933381 15.4137466,8.61739024 15.0645966,8.52381118 C14.7154467,8.43027507 14.4236724,8.20639823 14.2429562,7.89336575 C14.0622399,7.58037622 14.0142694,7.2157228 14.1078055,6.86661579 Z" id="Shape"></path>
                <path d="M8.66140976,10.2070747 C8.66140976,11.0750538 9.36756877,11.7812128 10.2355478,11.7812128 C11.1035698,11.7812128 11.8096859,11.0750538 11.8096859,10.2070747 C11.8096859,9.33909565 11.1035269,8.63293665 10.2355478,8.63293665 C9.36756877,8.63293665 8.66140976,9.33909565 8.66140976,10.2070747 Z M10.2355049,9.49185413 C10.6299198,9.49185413 10.9507255,9.81270275 10.9507255,10.2070747 C10.9507255,10.6014467 10.6298768,10.9222953 10.2355049,10.9222953 C9.84113292,10.9222953 9.52028429,10.6014467 9.52028429,10.2070747 C9.52032724,9.81270275 9.84117587,9.49185413 10.2355049,9.49185413 Z" id="Shape"></path>
                <path d="M18.7094988,18.5059354 L16.1809746,18.5059354 C16.6292007,18.1833689 17.0548802,17.8227524 17.4530744,17.4245583 C19.3809576,15.4966751 20.4426655,12.9334935 20.4426655,10.2070747 C20.4426655,7.4806559 19.3809576,4.91747436 17.4530744,2.98959113 C15.5251482,1.0617079 12.9619666,0 10.2355049,0 C7.50908607,0 4.94590453,1.0617079 3.0180213,2.98959113 C1.09013807,4.91747436 0.0284731145,7.4806559 0.0284731145,10.2070747 C0.0284731145,12.9334935 1.09018101,15.4966751 3.01806424,17.4245583 C4.94594747,19.3524415 7.50912902,20.4141494 10.2355478,20.4141494 C11.8292692,20.4141494 13.3669892,20.0507844 14.754871,19.3642516 C14.758822,19.3643805 14.7626442,19.3648529 14.7665952,19.3648529 L18.7094559,19.3648529 C19.5070896,19.3648529 20.1560447,20.013765 20.1560447,20.8114417 L20.1560447,21.12937 C20.1560447,21.3665601 20.3483134,21.5588287 20.5855035,21.5588287 C20.8226935,21.5588287 21.0149622,21.3665601 21.0149622,21.12937 L21.0149622,20.8113988 C21.0149622,19.5401579 19.9807397,18.5059354 18.7094988,18.5059354 Z M10.2355049,19.5552319 C5.08088341,19.5552319 0.887390594,15.3616532 0.887390594,10.2070747 C0.887390594,5.05245324 5.08092635,0.85891748 10.2355049,0.85891748 C15.3900834,0.85891748 19.5836621,5.05245324 19.5836621,10.2070747 C19.5836621,15.3616962 15.3901693,19.5552319 10.2355049,19.5552319 Z" id="Shape"></path>
            </g>
        </g>
    </g>
</svg>