<?xml version="1.0" encoding="UTF-8"?>
<svg width="48px" height="48px" viewBox="0 0 48 48" version="1.1" xmlns="http://www.w3.org/2000/svg" xmlns:xlink="http://www.w3.org/1999/xlink">
    <!-- Generator: Sketch 47.1 (45422) - http://www.bohemiancoding.com/sketch -->
    <title>Group 48</title>
    <desc>Created with Sketch.</desc>
    <defs></defs>
    <g id="Page-1" stroke="none" stroke-width="1" fill="none" fill-rule="evenodd">
        <g id="Group-48" transform="translate(1.000000, 1.000000)">
            <circle id="Oval-3" stroke="#E3E3E3" fill="#FFFFFF" cx="23" cy="23" r="23"></circle>
            <path d="M34.5852,28.6476 C34.5388,28.5008 34.4116,28.394 34.2596,28.3724 L31.1488,27.9368 L29.76,25.2248 C29.6232,24.9576 29.1848,24.9576 29.0484,25.2248 L27.6596,27.9368 L24.5488,28.3724 C24.3964,28.394 24.2696,28.5004 24.2232,28.6476 C24.1768,28.7948 24.2184,28.9548 24.3308,29.06 L26.5728,31.1668 L26.0444,34.1376 C26.018,34.2868 26.078,34.4384 26.1996,34.5288 C26.3216,34.6196 26.484,34.6336 26.6192,34.5644 L29.4048,33.1532 L32.1904,34.5644 C32.2476,34.5936 32.3096,34.6076 32.3712,34.6076 C32.4556,34.6076 32.5396,34.5812 32.61,34.5288 C32.7316,34.4384 32.7916,34.2872 32.7652,34.1376 L32.2368,31.1668 L34.4788,29.06 C34.5896,28.9548 34.6316,28.7944 34.5852,28.6476 Z M31.53,30.732 C31.4316,30.8244 31.3864,30.9604 31.41,31.0932 L31.8356,33.488 L29.5844,32.3472 C29.5272,32.3184 29.4656,32.304 29.4036,32.304 C29.3416,32.304 29.2796,32.3184 29.2228,32.3472 L26.9716,33.488 L27.3972,31.0932 C27.4212,30.9604 27.3756,30.8244 27.2772,30.732 L25.4856,29.0492 L27.9756,28.7004 C28.1044,28.6824 28.2168,28.6028 28.276,28.4868 L29.4032,26.2852 L30.5304,28.4868 C30.5896,28.6028 30.702,28.6824 30.8308,28.7004 L33.3208,29.0492 L31.53,30.732 Z" id="Shape" fill="#878787" fill-rule="nonzero"></path>
            <path d="M25.404,23.8 L29.004,23.8 L29.004,19.4 L25.404,19.4 L24.604,19.4 L21.804,19.4 L21.004,19.4 L18.204,19.4 L17.404,19.4 L13.804,19.4 L13.804,23 L13.804,23.8 L13.804,26.6 L13.804,27.4 L13.804,31 L17.404,31 L18.204,31 L21.804,31 L21.804,27.4 L25.404,27.4 L25.404,23.8 Z M25.404,20.2 L28.204,20.2 L28.204,23 L25.404,23 L25.404,20.2 Z M21.804,20.2 L24.604,20.2 L24.604,23 L21.804,23 L21.804,20.2 L21.804,20.2 Z M18.204,20.2 L21.004,20.2 L21.004,23 L18.204,23 L18.204,20.2 Z M21.004,26.6 L18.204,26.6 L18.204,23.8 L21.004,23.8 L21.004,26.6 Z M14.604,20.2 L17.404,20.2 L17.404,23 L14.604,23 L14.604,20.2 L14.604,20.2 Z M14.604,23.8 L17.404,23.8 L17.404,26.6 L14.604,26.6 L14.604,23.8 L14.604,23.8 Z M17.404,30.2 L14.604,30.2 L14.604,27.4 L17.404,27.4 L17.404,30.2 Z M21.004,30.2 L18.204,30.2 L18.204,27.4 L21.004,27.4 L21.004,30.2 Z M24.604,26.6 L21.804,26.6 L21.804,23.8 L24.604,23.8 L24.604,26.6 Z" id="Shape" fill="#878787" fill-rule="nonzero"></path>
            <path d="M21.404,33 L11.804,33 L11.804,17.4 L31.004,17.4 L31.004,24.2 C31.004,24.4212 31.1828,24.6 31.404,24.6 C31.6252,24.6 31.804,24.4212 31.804,24.2 L31.804,17 L31.804,13 C31.804,12.7788 31.6252,12.6 31.404,12.6 L29.404,12.6 L29.404,11.4 C29.404,11.1788 29.2252,11 29.004,11 L26.204,11 C25.9828,11 25.804,11.1788 25.804,11.4 L25.804,12.6 L17.004,12.6 L17.004,11.4 C17.004,11.1788 16.8252,11 16.604,11 L13.804,11 C13.5828,11 13.404,11.1788 13.404,11.4 L13.404,12.6 L11.404,12.6 C11.1828,12.6 11.004,12.7788 11.004,13 L11.004,17 L11.004,33.4 C11.004,33.6212 11.1828,33.8 11.404,33.8 L21.404,33.8 C21.6252,33.8 21.804,33.6212 21.804,33.4 C21.804,33.1788 21.6248,33 21.404,33 Z M26.604,11.8 L28.604,11.8 L28.604,13 L28.604,14.2 L26.604,14.2 L26.604,13 L26.604,11.8 Z M14.204,11.8 L16.204,11.8 L16.204,13 L16.204,14.2 L14.204,14.2 L14.204,13 L14.204,11.8 Z M11.804,13.4 L13.404,13.4 L13.404,14.6 C13.404,14.8212 13.5828,15 13.804,15 L16.604,15 C16.8252,15 17.004,14.8212 17.004,14.6 L17.004,13.4 L25.804,13.4 L25.804,14.6 C25.804,14.8212 25.9828,15 26.204,15 L29.004,15 C29.2252,15 29.404,14.8212 29.404,14.6 L29.404,13.4 L31.004,13.4 L31.004,16.6 L11.804,16.6 L11.804,13.4 Z" id="Shape" fill="#878787" fill-rule="nonzero"></path>
        </g>
    </g>
</svg>