<?xml version="1.0" encoding="UTF-8"?>
<svg width="48px" height="48px" viewBox="0 0 48 48" version="1.1" xmlns="http://www.w3.org/2000/svg" xmlns:xlink="http://www.w3.org/1999/xlink">
    <!-- Generator: Sketch 47.1 (45422) - http://www.bohemiancoding.com/sketch -->
    <title>Group 70</title>
    <desc>Created with Sketch.</desc>
    <defs></defs>
    <g id="Page-1" stroke="none" stroke-width="1" fill="none" fill-rule="evenodd">
        <g id="Group-70" transform="translate(1.000000, 1.000000)">
            <g id="Group-60" stroke="#E3E3E3" fill="#FFFFFF">
                <circle id="Oval-3" cx="23" cy="23" r="23"></circle>
            </g>
            <path d="M15.7878285,18.9741379 L13.4468218,20.204878 L13.8939143,17.5981287 L12,15.7520185 L14.6173251,15.3716989 L15.7878285,13 L16.9583319,15.3716989 L19.5756571,15.7520185 L17.6817428,17.5981287 L18.1288353,20.204878 L15.7878285,18.9741379 Z M29.8223113,18.9741379 L27.4813045,20.204878 L27.928397,17.5981287 L26.0344828,15.7520185 L28.6518079,15.3716989 L29.8223113,13 L30.9928147,15.3716989 L33.6101398,15.7520185 L31.7162256,17.5981287 L32.1633181,20.204878 L29.8223113,18.9741379 Z M12.1843803,26.6551724 L33.4257596,26.6551724 C29.8855297,31.7126437 26.3452998,34.2413793 22.8050699,34.2413793 C19.26484,34.2413793 15.7246101,31.7126437 12.1843803,26.6551724 Z" id="Combined-Shape" stroke="#878787" fill-rule="nonzero"></path>
        </g>
    </g>
</svg>