<?xml version="1.0" encoding="UTF-8"?>
<svg width="48px" height="48px" viewBox="0 0 48 48" version="1.1" xmlns="http://www.w3.org/2000/svg" xmlns:xlink="http://www.w3.org/1999/xlink">
    <!-- Generator: Sketch 47.1 (45422) - http://www.bohemiancoding.com/sketch -->
    <title>Group 9</title>
    <desc>Created with Sketch.</desc>
    <defs></defs>
    <g id="Page-1" stroke="none" stroke-width="1" fill="none" fill-rule="evenodd">
        <g id="Group-9" transform="translate(1.000000, 1.000000)">
            <circle id="Oval-3" stroke="#E3E3E3" cx="23" cy="23" r="23"></circle>
            <g id="family-board-games" transform="translate(12.000000, 12.000000)" fill-rule="nonzero" fill="#FFFFFF">
                <path d="M11.6883867,16.2343761 C11.9439578,16.2343761 12.1510985,16.4433891 12.1510985,16.7012703 L12.1510985,18.7405601 C12.1510985,18.9984413 11.9439578,19.2074543 11.6883867,19.2074543 C11.4328155,19.2074543 11.2256748,18.9984413 11.2256748,18.7405601 L11.2256748,16.7012703 C11.2256748,16.443441 11.4328669,16.2343761 11.6883867,16.2343761 Z M14.1114544,16.2840226 C14.1114544,16.5419037 14.3185951,16.7509167 14.5741663,16.7509167 C14.8297374,16.7509167 15.0368781,16.5419037 15.0368781,16.2840226 C15.0368781,14.4209593 13.5347098,12.9052653 11.6883352,12.9052653 C9.84201212,12.9052653 8.33994662,14.4209593 8.33994662,16.2840226 C8.33994662,16.5419037 8.5470873,16.7509167 8.80265848,16.7509167 C9.05822966,16.7509167 9.26537033,16.5419037 9.26537033,16.2840226 C9.26537033,14.9358398 10.3523319,13.8390536 11.6883352,13.8390536 C13.0244928,13.8390017 14.1114544,14.9358398 14.1114544,16.2840226 Z M14.0619956,4.02903704 C14.0619956,3.4011163 14.1847685,2.80639692 14.4036826,2.27605706 C14.4128855,2.24685023 14.4247617,2.21904409 14.439003,2.19300178 C15.0079843,0.892027193 16.1617306,0 17.4894052,0 C18.8175424,0 19.9717,0.892597841 20.5405785,2.19414307 C20.5543571,2.21951099 20.565822,2.24643522 20.5748706,2.274812 C20.7940932,2.80541126 20.9171232,3.40070128 20.9171232,4.02903704 C20.9171232,6.25062312 19.3794803,8.05802221 17.4894052,8.05802221 C15.5995871,8.05802221 14.0619956,6.25062312 14.0619956,4.02903704 Z M15.5441645,2.08447483 C16.1693911,2.19269051 16.8212493,2.247369 17.4895594,2.247369 C18.1578181,2.247369 18.8097277,2.19269051 19.4349029,2.08447483 C18.9757899,1.38299232 18.2742159,0.93378828 17.4894052,0.93378828 C16.7047487,0.93378828 16.0032261,1.38299232 15.5441645,2.08447483 Z M14.9874193,4.02903704 C14.9874193,5.73569076 16.1098041,7.12423393 17.4894052,7.12423393 C18.8691605,7.12423393 19.9916995,5.73574263 19.9916995,4.02903704 C19.9916995,3.65318726 19.9372537,3.29290062 19.8376678,2.95933069 C19.0859667,3.10660985 18.2980712,3.18110541 17.4895594,3.18110541 C16.681099,3.18110541 15.8931007,3.10655798 15.1413996,2.95938257 C15.0418651,3.29284874 14.9874193,3.65329101 14.9874193,4.02903704 Z M8.60703419,18.1222885 C8.41022741,17.9579937 8.11846188,17.9856961 7.9555359,18.1843855 C7.79266133,18.3830749 7.82021839,18.6773738 8.01707657,18.8417724 L9.07365339,19.7237873 C9.15997485,19.7958446 9.26444491,19.8309136 9.36834942,19.8309136 C9.5014562,19.8309136 9.63363755,19.7732262 9.72510026,19.6616385 C9.88797484,19.4629491 9.86041777,19.1686502 9.66355959,19.0042516 L8.60703419,18.1222885 Z M3.30235126,17.4215323 L3.30235126,12.9063028 C3.30235126,11.1995972 4.59470547,9.81110595 6.18319526,9.81110595 C6.6210235,9.81110595 7.04234835,9.91553461 7.43539636,10.1214868 C7.66243364,10.2403373 7.94160313,10.1510049 8.05928618,9.92222675 C8.17707205,9.69339675 8.08864267,9.41154832 7.86186245,9.2927497 C7.33570766,9.01712653 6.77089073,8.87731767 6.18319526,8.87731767 C4.08443712,8.87731767 2.37692755,10.6847168 2.37692755,12.9063028 L2.37692755,17.4215323 C2.37692755,18.5651636 2.84262133,19.6607047 3.65457781,20.4271893 C3.74377837,20.5114377 3.85729701,20.5531469 3.97055859,20.5531469 C4.09415407,20.5531469 4.21744107,20.5034486 4.30854389,20.4051934 C4.4831405,20.2169313 4.47337214,19.9214392 4.28674502,19.7452644 C3.66121001,19.1546952 3.30235126,18.3076974 3.30235126,17.4215323 Z M18.2451164,21.0662117 L14.2109374,21.0662117 C14.2114002,21.0575482 14.2116572,21.0488848 14.2116572,21.0401175 C14.2116572,20.7822363 14.0045165,20.5732234 13.7489454,20.5732234 L9.62793077,20.5732234 C9.37235959,20.5732234 9.16521892,20.7822363 9.16521892,21.0401175 C9.16521892,21.0488329 9.16547598,21.0575482 9.16593869,21.0662117 L5.13170828,21.0662117 C4.8761371,21.0662117 4.66899643,21.2752247 4.66899643,21.5331059 C4.66899643,21.7909871 4.8761371,22 5.13170828,22 L18.2451164,22 C18.5006876,22 18.7078283,21.7909871 18.7078283,21.5331059 C18.7078283,21.2752247 18.5006362,21.0662117 18.2451164,21.0662117 Z M17.1937323,8.87731767 C16.6057798,8.87731767 16.0409628,9.01712653 15.5149109,9.29285345 C15.2881306,9.41170395 15.1997527,9.69360426 15.31759,9.92238239 C15.4353758,10.1512124 15.714751,10.2402854 15.9414798,10.1214868 C16.3344764,9.91553461 16.7558012,9.81110595 17.1937323,9.81110595 C18.7822221,9.81110595 20.0745763,11.1995972 20.0745763,12.9063028 L20.0745763,17.4215323 C20.0745763,18.3077493 19.715769,19.1546952 19.0900797,19.7452126 C18.9034526,19.9213873 18.8937356,20.2168275 19.0682808,20.4051415 C19.1593322,20.5034486 19.2826707,20.5530951 19.4062661,20.5530951 C19.5194763,20.5530951 19.6330464,20.5113859 19.7222469,20.4271893 C20.5342548,19.6607566 21,18.5652154 21,17.4215323 L21,12.9063028 C21.0000514,10.6847168 19.2925418,8.87731767 17.1937323,8.87731767 Z M9.04753587,9.0781859 C9.04753587,7.32868168 10.2322325,5.90538084 11.6883867,5.90538084 C13.1445409,5.90538084 14.329186,7.32873356 14.329186,9.0781859 C14.329186,10.8276382 13.1445409,12.250991 11.6883867,12.250991 C10.2322325,12.250991 9.04753587,10.8276382 9.04753587,9.0781859 Z M9.97295958,9.0781859 C9.97295958,10.3128096 10.7425008,11.3172027 11.6883867,11.3172027 C12.6342211,11.3172027 13.4037623,10.3128096 13.4037623,9.0781859 C13.4037623,7.84356217 12.6342211,6.83916912 11.6883867,6.83916912 C10.7425008,6.83911724 9.97295958,7.84356217 9.97295958,9.0781859 Z M0.314003873,5.9898368 C0.0524174381,5.58140818 -0.148656569,4.98331679 0.145525346,4.64180966 C0.304441161,4.45743835 0.554305562,4.40716942 0.782371093,4.51377691 C1.07747843,4.65187383 1.2539773,4.6129141 1.36091515,4.57156803 C1.88249423,4.37018103 2.28356258,3.42809241 2.6058671,2.6710495 C2.75897331,2.31143726 2.90354506,1.97174583 3.05814223,1.7130346 C3.69894673,0.640371252 4.74812015,0 5.86464386,0 C7.15982575,0 8.28966527,0.848969178 8.87242514,2.09827414 C8.88841441,2.12556151 8.9016274,2.15466458 8.91185847,2.18527208 C9.15498785,2.73807475 9.29225903,3.36500982 9.29225903,4.02903704 C9.29225903,6.25062312 7.75466754,8.05802221 5.86464386,8.05802221 C4.96981054,8.05802221 4.10978345,7.64513216 3.47298911,6.91739982 C3.45689702,6.92253566 3.44075352,6.92756774 3.42440437,6.93254795 C1.47726147,7.52384343 0.551375054,6.36044699 0.314003873,5.9898368 Z M5.39386025,4.82161578 C5.16934218,5.39397612 4.92353936,6.02054806 4.33455858,6.47634049 C4.77094727,6.89685648 5.30239754,7.12418205 5.86464386,7.12418205 C7.24434778,7.12418205 8.36683532,5.73569076 8.36683532,4.02898517 C8.36683532,3.60094699 8.29624606,3.19298527 8.16869182,2.82180443 C6.11106362,2.99315458 5.77739697,3.84393945 5.39386025,4.82161578 Z M3.15783092,6.03829004 C4.02443881,5.77516925 4.24911113,5.20270516 4.53342185,4.47787794 C4.92677834,3.47514496 5.40743313,2.24949597 7.70536302,1.93444618 C7.247741,1.31959847 6.59197548,0.93378828 5.86464386,0.93378828 C5.07541167,0.93378828 4.32252807,1.40529948 3.85066481,2.19512874 C3.72881735,2.3991096 3.59632752,2.71021673 3.45607442,3.03963648 C3.0650829,3.95817289 2.57841286,5.10128537 1.6916513,5.44372629 C1.51052531,5.51365665 1.32451515,5.54732491 1.13192419,5.54390102 C1.21017391,5.6539324 1.31423266,5.76811396 1.44980724,5.86937811 C1.88393378,6.19376578 2.45846766,6.25062312 3.15783092,6.03829004 Z M14.0085781,19.8308617 C14.1124826,19.8308617 14.2170041,19.7957409 14.3032742,19.7237354 L15.3597996,18.8417205 C15.5566578,18.6773219 15.5842148,18.383023 15.4213402,18.1843336 C15.2584143,17.9856961 14.9668544,17.957838 14.769842,18.1222367 L13.7133166,19.0041997 C13.516407,19.1685983 13.4889013,19.4628972 13.6517759,19.6615866 C13.7433414,19.7731743 13.8754199,19.8308617 14.0085781,19.8308617 Z" id="XMLID_1093_"></path>
            </g>
        </g>
    </g>
</svg>