<?xml version="1.0" encoding="UTF-8"?>
<svg width="48px" height="48px" viewBox="0 0 48 48" version="1.1" xmlns="http://www.w3.org/2000/svg" xmlns:xlink="http://www.w3.org/1999/xlink">
    <!-- Generator: Sketch 47.1 (45422) - http://www.bohemiancoding.com/sketch -->
    <title>Group 38</title>
    <desc>Created with Sketch.</desc>
    <defs></defs>
    <g id="Page-1" stroke="none" stroke-width="1" fill="none" fill-rule="evenodd">
        <g id="Group-38" transform="translate(1.000000, 1.000000)">
            <circle id="Oval-3" stroke="#E3E3E3" fill="#FFFFFF" cx="23" cy="23" r="23"></circle>
            <path d="M23.6883867,28.2343761 C23.9439578,28.2343761 24.1510985,28.4433891 24.1510985,28.7012703 L24.1510985,30.7405601 C24.1510985,30.9984413 23.9439578,31.2074543 23.6883867,31.2074543 C23.4328155,31.2074543 23.2256748,30.9984413 23.2256748,30.7405601 L23.2256748,28.7012703 C23.2256748,28.443441 23.4328669,28.2343761 23.6883867,28.2343761 Z M26.1114544,28.2840226 C26.1114544,28.5419037 26.3185951,28.7509167 26.5741663,28.7509167 C26.8297374,28.7509167 27.0368781,28.5419037 27.0368781,28.2840226 C27.0368781,26.4209593 25.5347098,24.9052653 23.6883352,24.9052653 C21.8420121,24.9052653 20.3399466,26.4209593 20.3399466,28.2840226 C20.3399466,28.5419037 20.5470873,28.7509167 20.8026585,28.7509167 C21.0582297,28.7509167 21.2653703,28.5419037 21.2653703,28.2840226 C21.2653703,26.9358398 22.3523319,25.8390536 23.6883352,25.8390536 C25.0244928,25.8390017 26.1114544,26.9358398 26.1114544,28.2840226 Z M26.0619956,16.029037 C26.0619956,15.4011163 26.1847685,14.8063969 26.4036826,14.2760571 C26.4128855,14.2468502 26.4247617,14.2190441 26.439003,14.1930018 C27.0079843,12.8920272 28.1617306,12 29.4894052,12 C30.8175424,12 31.9717,12.8925978 32.5405785,14.1941431 C32.5543571,14.219511 32.565822,14.2464352 32.5748706,14.274812 C32.7940932,14.8054113 32.9171232,15.4007013 32.9171232,16.029037 C32.9171232,18.2506231 31.3794803,20.0580222 29.4894052,20.0580222 C27.5995871,20.0580222 26.0619956,18.2506231 26.0619956,16.029037 Z M27.5441645,14.0844748 C28.1693911,14.1926905 28.8212493,14.247369 29.4895594,14.247369 C30.1578181,14.247369 30.8097277,14.1926905 31.4349029,14.0844748 C30.9757899,13.3829923 30.2742159,12.9337883 29.4894052,12.9337883 C28.7047487,12.9337883 28.0032261,13.3829923 27.5441645,14.0844748 Z M26.9874193,16.029037 C26.9874193,17.7356908 28.1098041,19.1242339 29.4894052,19.1242339 C30.8691605,19.1242339 31.9916995,17.7357426 31.9916995,16.029037 C31.9916995,15.6531873 31.9372537,15.2929006 31.8376678,14.9593307 C31.0859667,15.1066099 30.2980712,15.1811054 29.4895594,15.1811054 C28.681099,15.1811054 27.8931007,15.106558 27.1413996,14.9593826 C27.0418651,15.2928487 26.9874193,15.653291 26.9874193,16.029037 Z M20.6070342,30.1222885 C20.4102274,29.9579937 20.1184619,29.9856961 19.9555359,30.1843855 C19.7926613,30.3830749 19.8202184,30.6773738 20.0170766,30.8417724 L21.0736534,31.7237873 C21.1599749,31.7958446 21.2644449,31.8309136 21.3683494,31.8309136 C21.5014562,31.8309136 21.6336376,31.7732262 21.7251003,31.6616385 C21.8879748,31.4629491 21.8604178,31.1686502 21.6635596,31.0042516 L20.6070342,30.1222885 Z M15.3023513,29.4215323 L15.3023513,24.9063028 C15.3023513,23.1995972 16.5947055,21.8111059 18.1831953,21.8111059 C18.6210235,21.8111059 19.0423483,21.9155346 19.4353964,22.1214868 C19.6624336,22.2403373 19.9416031,22.1510049 20.0592862,21.9222268 C20.1770721,21.6933967 20.0886427,21.4115483 19.8618625,21.2927497 C19.3357077,21.0171265 18.7708907,20.8773177 18.1831953,20.8773177 C16.0844371,20.8773177 14.3769276,22.6847168 14.3769276,24.9063028 L14.3769276,29.4215323 C14.3769276,30.5651636 14.8426213,31.6607047 15.6545778,32.4271893 C15.7437784,32.5114377 15.857297,32.5531469 15.9705586,32.5531469 C16.0941541,32.5531469 16.2174411,32.5034486 16.3085439,32.4051934 C16.4831405,32.2169313 16.4733721,31.9214392 16.286745,31.7452644 C15.66121,31.1546952 15.3023513,30.3076974 15.3023513,29.4215323 Z M30.2451164,33.0662117 L26.2109374,33.0662117 C26.2114002,33.0575482 26.2116572,33.0488848 26.2116572,33.0401175 C26.2116572,32.7822363 26.0045165,32.5732234 25.7489454,32.5732234 L21.6279308,32.5732234 C21.3723596,32.5732234 21.1652189,32.7822363 21.1652189,33.0401175 C21.1652189,33.0488329 21.165476,33.0575482 21.1659387,33.0662117 L17.1317083,33.0662117 C16.8761371,33.0662117 16.6689964,33.2752247 16.6689964,33.5331059 C16.6689964,33.7909871 16.8761371,34 17.1317083,34 L30.2451164,34 C30.5006876,34 30.7078283,33.7909871 30.7078283,33.5331059 C30.7078283,33.2752247 30.5006362,33.0662117 30.2451164,33.0662117 Z M29.1937323,20.8773177 C28.6057798,20.8773177 28.0409628,21.0171265 27.5149109,21.2928535 C27.2881306,21.411704 27.1997527,21.6936043 27.31759,21.9223824 C27.4353758,22.1512124 27.714751,22.2402854 27.9414798,22.1214868 C28.3344764,21.9155346 28.7558012,21.8111059 29.1937323,21.8111059 C30.7822221,21.8111059 32.0745763,23.1995972 32.0745763,24.9063028 L32.0745763,29.4215323 C32.0745763,30.3077493 31.715769,31.1546952 31.0900797,31.7452126 C30.9034526,31.9213873 30.8937356,32.2168275 31.0682808,32.4051415 C31.1593322,32.5034486 31.2826707,32.5530951 31.4062661,32.5530951 C31.5194763,32.5530951 31.6330464,32.5113859 31.7222469,32.4271893 C32.5342548,31.6607566 33,30.5652154 33,29.4215323 L33,24.9063028 C33.0000514,22.6847168 31.2925418,20.8773177 29.1937323,20.8773177 Z M21.0475359,21.0781859 C21.0475359,19.3286817 22.2322325,17.9053808 23.6883867,17.9053808 C25.1445409,17.9053808 26.329186,19.3287336 26.329186,21.0781859 C26.329186,22.8276382 25.1445409,24.250991 23.6883867,24.250991 C22.2322325,24.250991 21.0475359,22.8276382 21.0475359,21.0781859 Z M21.9729596,21.0781859 C21.9729596,22.3128096 22.7425008,23.3172027 23.6883867,23.3172027 C24.6342211,23.3172027 25.4037623,22.3128096 25.4037623,21.0781859 C25.4037623,19.8435622 24.6342211,18.8391691 23.6883867,18.8391691 C22.7425008,18.8391172 21.9729596,19.8435622 21.9729596,21.0781859 Z M12.3140039,17.9898368 C12.0524174,17.5814082 11.8513434,16.9833168 12.1455253,16.6418097 C12.3044412,16.4574384 12.5543056,16.4071694 12.7823711,16.5137769 C13.0774784,16.6518738 13.2539773,16.6129141 13.3609151,16.571568 C13.8824942,16.370181 14.2835626,15.4280924 14.6058671,14.6710495 C14.7589733,14.3114373 14.9035451,13.9717458 15.0581422,13.7130346 C15.6989467,12.6403713 16.7481202,12 17.8646439,12 C19.1598257,12 20.2896653,12.8489692 20.8724251,14.0982741 C20.8884144,14.1255615 20.9016274,14.1546646 20.9118585,14.1852721 C21.1549878,14.7380747 21.292259,15.3650098 21.292259,16.029037 C21.292259,18.2506231 19.7546675,20.0580222 17.8646439,20.0580222 C16.9698105,20.0580222 16.1097834,19.6451322 15.4729891,18.9173998 C15.456897,18.9225357 15.4407535,18.9275677 15.4244044,18.9325479 C13.4772615,19.5238434 12.5513751,18.360447 12.3140039,17.9898368 Z M17.3938603,16.8216158 C17.1693422,17.3939761 16.9235394,18.0205481 16.3345586,18.4763405 C16.7709473,18.8968565 17.3023975,19.1241821 17.8646439,19.1241821 C19.2443478,19.1241821 20.3668353,17.7356908 20.3668353,16.0289852 C20.3668353,15.600947 20.2962461,15.1929853 20.1686918,14.8218044 C18.1110636,14.9931546 17.777397,15.8439395 17.3938603,16.8216158 Z M15.1578309,18.03829 C16.0244388,17.7751692 16.2491111,17.2027052 16.5334219,16.4778779 C16.9267783,15.475145 17.4074331,14.249496 19.705363,13.9344462 C19.247741,13.3195985 18.5919755,12.9337883 17.8646439,12.9337883 C17.0754117,12.9337883 16.3225281,13.4052995 15.8506648,14.1951287 C15.7288174,14.3991096 15.5963275,14.7102167 15.4560744,15.0396365 C15.0650829,15.9581729 14.5784129,17.1012854 13.6916513,17.4437263 C13.5105253,17.5136567 13.3245151,17.5473249 13.1319242,17.543901 C13.2101739,17.6539324 13.3142327,17.768114 13.4498072,17.8693781 C13.8839338,18.1937658 14.4584677,18.2506231 15.1578309,18.03829 Z M26.0085781,31.8308617 C26.1124826,31.8308617 26.2170041,31.7957409 26.3032742,31.7237354 L27.3597996,30.8417205 C27.5566578,30.6773219 27.5842148,30.383023 27.4213402,30.1843336 C27.2584143,29.9856961 26.9668544,29.957838 26.769842,30.1222367 L25.7133166,31.0041997 C25.516407,31.1685983 25.4889013,31.4628972 25.6517759,31.6615866 C25.7433414,31.7731743 25.8754199,31.8308617 26.0085781,31.8308617 Z" id="XMLID_1093_" fill="#878787" fill-rule="nonzero"></path>
        </g>
    </g>
</svg>