<?xml version="1.0" encoding="UTF-8"?>
<svg width="48px" height="48px" viewBox="0 0 48 48" version="1.1" xmlns="http://www.w3.org/2000/svg" xmlns:xlink="http://www.w3.org/1999/xlink">
    <!-- Generator: Sketch 47.1 (45422) - http://www.bohemiancoding.com/sketch -->
    <title>Group 36</title>
    <desc>Created with Sketch.</desc>
    <defs></defs>
    <g id="Page-1" stroke="none" stroke-width="1" fill="none" fill-rule="evenodd">
        <g id="Group-36" transform="translate(1.000000, 1.000000)">
            <circle id="Oval-3" stroke="#E3E3E3" fill="#FFFFFF" cx="23" cy="23" r="23"></circle>
            <path d="M30.6386337,13 C30.6386337,13 30.6386337,13 30.6386337,13 C30.0036444,13 29.421571,13.238121 28.9717869,13.687905 L25.3999723,17.2597196 L14.3141182,14.9843414 C14.1818288,14.9578835 14.0495393,15.0107993 13.9437078,15.090173 L12.4620662,16.5982725 C12.3826925,16.6776461 12.3297768,16.8099355 12.3562347,16.942225 C12.3826925,17.0745144 12.4620662,17.1803459 12.5678977,17.2332617 L21.1137948,21.5458971 L16.9599068,25.6733273 L13.0441397,25.0118801 C12.9118503,24.9854222 12.7795608,25.038338 12.7001872,25.1177117 L11.112714,26.7051848 C11.0333404,26.7845585 10.9804246,26.9168479 11.0068825,27.0491373 C11.0333404,27.1814268 11.112714,27.2872583 11.2185456,27.3401741 L16.2984596,29.7213838 L18.759043,34.6954663 C18.8119588,34.8012978 18.9177903,34.8806715 19.0500797,34.9071294 C19.0765376,34.9071294 19.1029955,34.9071294 19.1029955,34.9071294 C19.2088271,34.9071294 19.3146586,34.8542136 19.3940323,34.8012978 L20.9021317,33.2931984 C20.9815054,33.2138247 21.0344212,33.0815353 21.0079633,32.9492458 L20.3200583,29.0070209 L24.4739463,24.8531328 L28.7865817,33.3990299 C28.8394975,33.5048614 28.945329,33.5842351 29.0776184,33.610693 C29.2099079,33.6371509 29.3421973,33.5842351 29.421571,33.5048614 L30.9296704,31.996762 C31.035502,31.8909304 31.0619599,31.758641 31.035502,31.6263516 L28.7601238,20.5404974 L32.3054805,17.0215986 C33.2315065,16.0955726 33.2315065,14.613931 32.3054805,13.687905 C31.8556964,13.238121 31.273623,13 30.6386337,13 Z M31.7498649,16.465983 L28.019303,20.1965449 C27.9134715,20.3023765 27.8870136,20.4346659 27.9134715,20.5669553 L30.1888496,31.6263516 L29.2363658,32.5788354 L24.9237304,24.0329384 C24.8708146,23.9271068 24.7649831,23.8477332 24.6326936,23.8212753 C24.5004042,23.7948174 24.3681148,23.8477332 24.2887411,23.9271068 L19.6056953,28.6101526 C19.5263217,28.6895262 19.4734059,28.8218157 19.4998638,28.9541051 L20.1877688,32.8963301 L19.2352849,33.848814 L16.9334489,29.2451418 C16.8805331,29.1657682 16.8276173,29.1128524 16.7482437,29.0599366 L12.0651979,26.8639321 L13.1235133,25.8056167 L17.0657383,26.4935217 C17.1980277,26.5199796 17.3303172,26.4670638 17.4096908,26.3876902 L22.0927366,21.7046444 C22.1721103,21.6252708 22.225026,21.4929813 22.1985681,21.3606919 C22.1721103,21.2284025 22.0927366,21.1225709 21.9869051,21.0696552 L13.4145501,16.7834777 L14.367034,15.8309938 L25.4528881,18.1063719 C25.5851775,18.1328298 25.717467,18.0799141 25.8232985,18.0005404 L29.5538604,14.2699785 C29.8448971,13.9789418 30.2417654,13.8201945 30.6650916,13.8201945 C31.0884178,13.8201945 31.485286,13.9789418 31.7763228,14.2699785 C32.3583963,14.852052 32.3583963,15.8574517 31.7498649,16.465983 Z" id="Shape" fill="#878787" fill-rule="nonzero"></path>
        </g>
    </g>
</svg>