<?xml version="1.0" encoding="UTF-8"?>
<svg width="48px" height="48px" viewBox="0 0 48 48" version="1.1" xmlns="http://www.w3.org/2000/svg" xmlns:xlink="http://www.w3.org/1999/xlink">
    <!-- Generator: Sketch 47.1 (45422) - http://www.bohemiancoding.com/sketch -->
    <title>Group 56</title>
    <desc>Created with Sketch.</desc>
    <defs></defs>
    <g id="Page-1" stroke="none" stroke-width="1" fill="none" fill-rule="evenodd">
        <g id="Group-56" transform="translate(1.000000, 1.000000)">
            <circle id="Oval-3" stroke="#E3E3E3" cx="23" cy="23" r="23"></circle>
            <path d="M25.0634921,26.4349206 C24.9809524,23.0920635 22.215873,20.4507937 18.8730159,20.4507937 L17.2222222,20.4507937 C13.8793651,20.4507937 11.1555556,23.1333333 11.031746,26.4349206 C10.5365079,26.7238095 10.2063492,27.2603175 10.2063492,27.8793651 C10.2063492,28.6634921 10.7428571,29.2825397 11.4444444,29.4888889 L11.4444444,30.6857143 C11.4444444,31.8412698 12.352381,32.7492063 13.5079365,32.7492063 L22.5873016,32.7492063 C23.7428571,32.7492063 24.6507937,31.8412698 24.6507937,30.6857143 L24.6507937,29.4888889 C25.352381,29.3238095 25.8888889,28.6634921 25.8888889,27.8793651 C25.8888889,27.2190476 25.5587302,26.7238095 25.0634921,26.4349206 Z M17.2222222,21.2349206 L18.8730159,21.2349206 C21.6793651,21.2349206 23.9904762,23.4222222 24.2380952,26.1873016 L11.8571429,26.1873016 C12.1047619,23.4222222 14.415873,21.2349206 17.2222222,21.2349206 Z M23.8253968,30.6444444 C23.8253968,31.3460317 23.2888889,31.8825397 22.5873016,31.8825397 L13.5079365,31.8825397 C12.8063492,31.8825397 12.2698413,31.3460317 12.2698413,30.6444444 L12.2698413,29.5301587 L23.8253968,29.5301587 L23.8253968,30.6444444 Z M24.2380952,28.6634921 L11.8571429,28.6634921 C11.4031746,28.6634921 11.031746,28.2920635 11.031746,27.8380952 C11.031746,27.384127 11.4031746,27.0126984 11.8571429,27.0126984 L24.2380952,27.0126984 C24.6920635,27.0126984 25.0634921,27.384127 25.0634921,27.8380952 C25.0634921,28.2920635 24.6920635,28.6634921 24.2380952,28.6634921 Z" id="Shape" fill="#878787" fill-rule="nonzero"></path>
            <rect id="Rectangle-path" fill="#878787" fill-rule="nonzero" transform="translate(14.323565, 24.540812) rotate(-45.000000) translate(-14.323565, -24.540812) " x="13.7457925" y="24.1281179" width="1.15554447" height="1"></rect>
            <rect id="Rectangle-path" fill="#878787" fill-rule="nonzero" transform="translate(16.387181, 22.890060) rotate(-45.000000) translate(-16.387181, -22.890060) " x="15.8094084" y="22.4773655" width="1.15554447" height="1"></rect>
            <rect id="Rectangle-path" fill="#878787" fill-rule="nonzero" transform="translate(18.037933, 24.540936) rotate(-45.000000) translate(-18.037933, -24.540936) " x="17.4601608" y="24.1282417" width="1.15554447" height="1"></rect>
            <rect id="Rectangle-path" fill="#878787" fill-rule="nonzero" transform="translate(21.752301, 24.541060) rotate(-45.000000) translate(-21.752301, -24.541060) " x="21.174529" y="24.1283655" width="1.15554447" height="1"></rect>
            <rect id="Rectangle-path" fill="#878787" fill-rule="nonzero" transform="translate(20.101508, 22.890184) rotate(-45.000000) translate(-20.101508, -22.890184) " x="19.5237354" y="22.4774894" width="1.15554447" height="1"></rect>
            <path d="M34.5555556,17.9333333 L31.2539683,17.9333333 L31.2539683,14.8793651 L27.8285714,11.0412698 L27.2095238,11.5777778 L30.3873016,15.168254 L30.3873016,17.8920635 L26.6730159,17.8920635 C25.9714286,17.8920635 25.4349206,18.4285714 25.4349206,19.1301587 C25.4349206,19.6666667 25.8063492,20.1206349 26.3015873,20.2857143 L27.5396825,32.7492063 L33.647619,32.7492063 L34.8857143,20.2857143 C35.3809524,20.1206349 35.752381,19.6666667 35.752381,19.1301587 C35.7936508,18.5111111 35.2571429,17.9333333 34.5555556,17.9333333 Z M32.9460317,31.9650794 L28.3238095,31.9650794 L27.168254,20.4095238 L34.1015873,20.4095238 L32.9460317,31.9650794 Z M34.5555556,19.584127 L26.7142857,19.584127 C26.4666667,19.584127 26.3015873,19.4190476 26.3015873,19.1714286 C26.3015873,18.9238095 26.4666667,18.7587302 26.7142857,18.7587302 L34.5555556,18.7587302 C34.8031746,18.7587302 34.968254,18.9238095 34.968254,19.1714286 C34.968254,19.4190476 34.8031746,19.584127 34.5555556,19.584127 Z" id="Shape" fill="#878787" fill-rule="nonzero"></path>
        </g>
    </g>
</svg>