<?xml version="1.0" encoding="UTF-8"?>
<svg width="48px" height="48px" viewBox="0 0 48 48" version="1.1" xmlns="http://www.w3.org/2000/svg" xmlns:xlink="http://www.w3.org/1999/xlink">
    <!-- Generator: Sketch 47.1 (45422) - http://www.bohemiancoding.com/sketch -->
    <title>Group 27</title>
    <desc>Created with Sketch.</desc>
    <defs></defs>
    <g id="Page-1" stroke="none" stroke-width="1" fill="none" fill-rule="evenodd">
        <g id="Group-27" transform="translate(1.000000, 1.000000)">
            <circle id="Oval-3" stroke="#E3E3E3" cx="23" cy="23" r="23"></circle>
            <g id="Group" transform="translate(10.000000, 11.000000)" fill-rule="nonzero" fill="#FFFFFF">
                <path d="M15.0634921,15.4349206 C14.9809524,12.0920635 12.215873,9.45079365 8.87301587,9.45079365 L7.22222222,9.45079365 C3.87936508,9.45079365 1.15555556,12.1333333 1.03174603,15.4349206 C0.536507937,15.7238095 0.206349206,16.2603175 0.206349206,16.8793651 C0.206349206,17.6634921 0.742857143,18.2825397 1.44444444,18.4888889 L1.44444444,19.6857143 C1.44444444,20.8412698 2.35238095,21.7492063 3.50793651,21.7492063 L12.5873016,21.7492063 C13.7428571,21.7492063 14.6507937,20.8412698 14.6507937,19.6857143 L14.6507937,18.4888889 C15.352381,18.3238095 15.8888889,17.6634921 15.8888889,16.8793651 C15.8888889,16.2190476 15.5587302,15.7238095 15.0634921,15.4349206 Z M7.22222222,10.2349206 L8.87301587,10.2349206 C11.6793651,10.2349206 13.9904762,12.4222222 14.2380952,15.1873016 L1.85714286,15.1873016 C2.1047619,12.4222222 4.41587302,10.2349206 7.22222222,10.2349206 Z M13.8253968,19.6444444 C13.8253968,20.3460317 13.2888889,20.8825397 12.5873016,20.8825397 L3.50793651,20.8825397 C2.80634921,20.8825397 2.26984127,20.3460317 2.26984127,19.6444444 L2.26984127,18.5301587 L13.8253968,18.5301587 L13.8253968,19.6444444 Z M14.2380952,17.6634921 L1.85714286,17.6634921 C1.4031746,17.6634921 1.03174603,17.2920635 1.03174603,16.8380952 C1.03174603,16.384127 1.4031746,16.0126984 1.85714286,16.0126984 L14.2380952,16.0126984 C14.6920635,16.0126984 15.0634921,16.384127 15.0634921,16.8380952 C15.0634921,17.2920635 14.6920635,17.6634921 14.2380952,17.6634921 Z" id="Shape"></path>
                <rect id="Rectangle-path" transform="translate(4.323565, 13.540812) rotate(-45.000000) translate(-4.323565, -13.540812) " x="3.74579253" y="13.1281179" width="1.15554447" height="1"></rect>
                <rect id="Rectangle-path" transform="translate(6.387181, 11.890060) rotate(-45.000000) translate(-6.387181, -11.890060) " x="5.8094084" y="11.4773655" width="1.15554447" height="1"></rect>
                <rect id="Rectangle-path" transform="translate(8.037933, 13.540936) rotate(-45.000000) translate(-8.037933, -13.540936) " x="7.46016078" y="13.1282417" width="1.15554447" height="1"></rect>
                <rect id="Rectangle-path" transform="translate(11.752301, 13.541060) rotate(-45.000000) translate(-11.752301, -13.541060) " x="11.174529" y="13.1283655" width="1.15554447" height="1"></rect>
                <rect id="Rectangle-path" transform="translate(10.101508, 11.890184) rotate(-45.000000) translate(-10.101508, -11.890184) " x="9.52373538" y="11.4774894" width="1.15554447" height="1"></rect>
                <path d="M24.5555556,6.93333333 L21.2539683,6.93333333 L21.2539683,3.87936508 L17.8285714,0.0412698413 L17.2095238,0.577777778 L20.3873016,4.16825397 L20.3873016,6.89206349 L16.6730159,6.89206349 C15.9714286,6.89206349 15.4349206,7.42857143 15.4349206,8.13015873 C15.4349206,8.66666667 15.8063492,9.12063492 16.3015873,9.28571429 L17.5396825,21.7492063 L23.647619,21.7492063 L24.8857143,9.28571429 C25.3809524,9.12063492 25.752381,8.66666667 25.752381,8.13015873 C25.7936508,7.51111111 25.2571429,6.93333333 24.5555556,6.93333333 Z M22.9460317,20.9650794 L18.3238095,20.9650794 L17.168254,9.40952381 L24.1015873,9.40952381 L22.9460317,20.9650794 Z M24.5555556,8.58412698 L16.7142857,8.58412698 C16.4666667,8.58412698 16.3015873,8.41904762 16.3015873,8.17142857 C16.3015873,7.92380952 16.4666667,7.75873016 16.7142857,7.75873016 L24.5555556,7.75873016 C24.8031746,7.75873016 24.968254,7.92380952 24.968254,8.17142857 C24.968254,8.41904762 24.8031746,8.58412698 24.5555556,8.58412698 Z" id="Shape"></path>
            </g>
        </g>
    </g>
</svg>