<?xml version="1.0" encoding="UTF-8"?>
<svg width="48px" height="48px" viewBox="0 0 48 48" version="1.1" xmlns="http://www.w3.org/2000/svg" xmlns:xlink="http://www.w3.org/1999/xlink">
    <!-- Generator: Sketch 47.1 (45422) - http://www.bohemiancoding.com/sketch -->
    <title>Group 20</title>
    <desc>Created with Sketch.</desc>
    <defs></defs>
    <g id="Page-1" stroke="none" stroke-width="1" fill="none" fill-rule="evenodd">
        <g id="Group-20" transform="translate(1.000000, 1.000000)">
            <circle id="Oval-3" stroke="#E3E3E3" cx="23" cy="23" r="23"></circle>
            <g id="cardiogram" transform="translate(12.000000, 14.000000)" fill-rule="nonzero" fill="#FFFFFF">
                <path d="M17.7913043,9.75589402 L13.6136209,9.75589402 L12.5970326,6.70460462 C12.517447,6.46584783 12.2863573,6.27762228 12.0399783,6.31241576 C11.7878601,6.31815489 11.5693696,6.48611413 11.5009035,6.72832337 L9.82624321,12.5883791 L8.02146603,4.46634375 C7.96636141,4.2207269 7.75822826,4.03936141 7.50687228,4.01909511 C7.25704076,4.00228125 7.02133288,4.14342799 6.92838587,4.37761141 L4.77621196,9.75593886 L0.573913043,9.75593886 C0.256736413,9.75593886 0,10.0126753 0,10.3298519 C0,10.6470285 0.256736413,10.9037649 0.573913043,10.9037649 L5.16521739,10.9037649 C5.39935598,10.9041236 5.61134511,10.7614524 5.69779076,10.542962 L7.30398505,6.5290231 L9.19597011,15.0458927 C9.25295788,15.3026291 9.4771875,15.4874022 9.73966304,15.4954728 C9.74540217,15.4954728 9.75073777,15.4954728 9.7564769,15.4954728 C10.0120476,15.4954728 10.2373981,15.3263478 10.307837,15.0795652 L12.0946345,8.82812772 L12.6551413,10.5116209 C12.7335611,10.7457595 12.9531726,10.9038098 13.1999552,10.9038098 L17.7912595,10.9038098 C18.1084361,10.9038098 18.3651726,10.6470734 18.3651726,10.3298967 C18.3652174,10.0125856 18.108481,9.75589402 17.7913043,9.75589402 Z" id="Shape"></path>
                <path d="M20.9393967,2.03443207 C19.5945571,0.689592391 17.8318818,0.0173519022 16.0695652,0.0173519022 C14.4205068,0.0173519022 12.7848546,0.629914402 11.4782609,1.80719837 C10.1712636,0.629914402 8.53601495,0.0173519022 6.88695652,0.0173519022 C5.12428125,0.0173519022 3.36196467,0.689592391 2.017125,2.0344769 C0.233779891,3.81818071 -0.340536685,6.33039538 0.241447011,8.60918886 L1.43518614,8.60918886 C0.823027174,6.63761821 1.27027582,4.40469293 2.82862908,2.84633967 C3.9125625,1.76240625 5.35384647,1.16553668 6.88695652,1.16553668 C8.28613859,1.16553668 9.59506386,1.68398641 10.6395856,2.59534239 L11.4782609,3.37931658 L12.3173397,2.5949837 C13.3618614,1.68398641 14.6707867,1.16517799 16.0695652,1.16517799 C17.6026753,1.16517799 19.0436005,1.76204755 20.1278927,2.84598098 C22.36575,5.08347962 22.3653913,8.72477853 20.1278927,10.9622772 L11.4782609,19.6118641 L3.91906386,12.0526671 L2.29565217,12.0526671 L11.4782609,21.2352758 L20.9393967,11.7741399 C23.6287622,9.08441576 23.6287622,4.72420109 20.9393967,2.03443207 Z" id="Shape"></path>
            </g>
        </g>
    </g>
</svg>