<?xml version="1.0" encoding="UTF-8"?>
<svg width="48px" height="48px" viewBox="0 0 48 48" version="1.1" xmlns="http://www.w3.org/2000/svg" xmlns:xlink="http://www.w3.org/1999/xlink">
    <!-- Generator: Sketch 47.1 (45422) - http://www.bohemiancoding.com/sketch -->
    <title>Group 25</title>
    <desc>Created with Sketch.</desc>
    <defs></defs>
    <g id="Page-1" stroke="none" stroke-width="1" fill="none" fill-rule="evenodd">
        <g id="Group-25" transform="translate(1.000000, 1.000000)">
            <circle id="Oval-3" stroke="#E3E3E3" cx="23" cy="23" r="23"></circle>
            <g id="pyramids" transform="translate(8.000000, 15.000000)" fill-rule="nonzero" fill="#FFFFFF">
                <path d="M29.0388633,14.8578462 L28.8178895,14.8578462 L19.4213899,2.1595171 C19.4178833,2.15470299 19.4139607,2.15018604 19.4103352,2.14549079 C19.4059372,2.13984461 19.4014796,2.13431729 19.3968438,2.1288494 C19.3940505,2.12558056 19.3914354,2.12225228 19.3885231,2.11904287 C19.3859675,2.1162495 19.3831741,2.11369386 19.380559,2.11095991 C19.3749129,2.10501656 19.3691478,2.09925151 19.3632045,2.09360532 C19.3605894,2.09116855 19.3582715,2.08861291 19.355597,2.08617613 C19.3525659,2.08344219 19.3493564,2.08094598 19.3462659,2.07827148 C19.3399065,2.07280359 19.3333688,2.06751401 19.3266528,2.06234329 C19.3243944,2.06056028 19.3222548,2.05859898 19.3199369,2.05687541 C19.3196397,2.05669711 19.319402,2.05645937 19.3191642,2.05628107 L19.3191048,2.05628107 C19.3158359,2.0538443 19.3123888,2.05170469 19.3090605,2.04938678 C19.3025228,2.0448104 19.2958068,2.04041232 19.288972,2.03613311 C19.2824343,2.03203219 19.2758372,2.02805015 19.2691212,2.0242464 C19.2625241,2.02056152 19.2557486,2.01705495 19.2489138,2.0136078 C19.2449317,2.01158706 19.2410686,2.00926915 19.2370271,2.00742671 C19.2334016,2.00570314 19.2296573,2.00445504 19.2259725,2.00285033 C19.2195536,2.00005696 19.2130754,1.99744188 19.2064783,1.99494567 C19.2025556,1.99345984 19.1986925,1.9916174 19.1947104,1.99019099 C19.1897774,1.98846742 19.1847256,1.98715988 19.1797926,1.98555518 C19.1767615,1.98460424 19.1739681,1.98335614 19.170937,1.98246463 C19.1678465,1.98157313 19.1647559,1.98109766 19.1616059,1.98020616 C19.1608927,1.98002786 19.1601201,1.97973069 19.1594069,1.97955239 C19.1565541,1.97877976 19.1537607,1.97776939 19.1508485,1.97705618 C19.1452617,1.97568921 19.1395561,1.97473828 19.1339099,1.97354961 C19.1274911,1.97218263 19.1210723,1.97093453 19.1146535,1.96986473 C19.1116223,1.96932983 19.1086507,1.96861662 19.1056196,1.96814115 C19.1001517,1.96736852 19.0946838,1.96695248 19.0891565,1.96635815 C19.0820245,1.96558551 19.0749519,1.96481288 19.0678793,1.96433741 C19.0650265,1.96415911 19.0622331,1.96380251 19.0593803,1.96368364 C19.0544473,1.96344591 19.0495143,1.96362421 19.0445813,1.96356477 C19.0369738,1.96344591 19.0293664,1.96326761 19.0218183,1.96350534 C19.0187872,1.96356477 19.0157561,1.96356477 19.012725,1.96374307 C19.0085646,1.96392137 19.0044637,1.96457514 19.0003034,1.96487231 C18.9999468,1.96487231 18.9995902,1.96493174 18.9992336,1.96493174 C18.9916855,1.96552608 18.984078,1.96606098 18.9765299,1.96701192 C18.9732017,1.96742795 18.969814,1.96772512 18.9664857,1.96826002 C18.9647027,1.96849776 18.9630385,1.96897322 18.9612555,1.96927039 C18.9579273,1.96980529 18.9546584,1.97057793 18.9513301,1.97117226 C18.9449113,1.97236093 18.9384331,1.9733713 18.9321331,1.97485714 C18.9229209,1.97693732 18.9137681,1.97949296 18.9046748,1.98216747 C18.8992069,1.98377217 18.893739,1.98519858 18.88839,1.98698158 C18.8791184,1.99001269 18.8700251,1.99351927 18.8609317,1.99714471 C18.8556422,1.99922489 18.850412,2.00124563 18.8451819,2.0035041 C18.841913,2.00498994 18.8385253,2.00611918 18.8352565,2.00766445 C18.8297886,2.01022009 18.8246179,2.01331063 18.8192688,2.01604458 C18.8139793,2.01871908 18.8087491,2.02139359 18.8035784,2.02430584 C18.795436,2.02888222 18.7874719,2.0338152 18.7795672,2.03892648 C18.774456,2.04219533 18.7694041,2.04540474 18.7644117,2.04885188 C18.7608457,2.05134809 18.7571014,2.053666 18.7535948,2.05628107 C18.7535354,2.0563405 18.7535354,2.0563405 18.7534759,2.05639994 C18.7526439,2.05699427 18.7519307,2.05770748 18.7510986,2.05836124 C18.7483646,2.06038198 18.745809,2.06269989 18.7431345,2.0648395 C18.7376666,2.06911871 18.7322582,2.07345736 18.7269686,2.07797431 C18.7236997,2.08076768 18.7203715,2.08332332 18.717162,2.08623557 C18.7140121,2.08908838 18.7112187,2.09217892 18.7081282,2.09509116 C18.7025414,2.10044018 18.6970735,2.10584863 18.6917245,2.11149482 C18.6892283,2.11410989 18.6866132,2.11648723 18.6841764,2.11916174 C18.6811453,2.12249002 18.6784114,2.12599659 18.6754991,2.12944374 C18.6705067,2.13526822 18.6656332,2.14127101 18.6609379,2.14739266 C18.6577285,2.15149358 18.6543408,2.15547562 18.6512503,2.1596954 L16.3727473,5.23882743 L12.6678397,0.232028479 C12.6643331,0.227214363 12.6604105,0.222697415 12.656785,0.218002167 C12.6523869,0.212355982 12.6479294,0.206828664 12.6432936,0.20136078 C12.6405002,0.19815137 12.6379446,0.194763659 12.6350323,0.191613682 C12.6324173,0.188701439 12.629505,0.186086364 12.6268305,0.183292989 C12.6212438,0.17740907 12.6155382,0.171703451 12.6096542,0.1661167 C12.6070986,0.163739359 12.6047807,0.161183718 12.602225,0.158806377 C12.5990751,0.155894134 12.5956874,0.153338492 12.5924779,0.150545117 C12.5862969,0.145255533 12.5799969,0.14014425 12.5735781,0.135151834 C12.5675159,0.130456586 12.5614536,0.125939638 12.5552726,0.121600991 C12.5489726,0.11720291 12.5425538,0.11298313 12.5360161,0.108882216 C12.5291812,0.104543569 12.522287,0.100383222 12.5152738,0.0964606098 C12.5089738,0.0929540319 12.502555,0.089566321 12.4960173,0.0862974772 C12.4917381,0.0841578703 12.4875778,0.0817210958 12.4832391,0.079700356 C12.4797325,0.0780956508 12.4761071,0.0769069803 12.4726005,0.0753617087 C12.46636,0.0726277666 12.4600006,0.0700721251 12.4536412,0.0676353506 C12.449362,0.0659712119 12.4452017,0.0640099056 12.4409225,0.0625240675 C12.4361678,0.0608004953 12.4312942,0.0596118248 12.4264801,0.0581259867 C12.423449,0.0571750503 12.4205962,0.0558675128 12.4175056,0.0549760099 C12.414534,0.054084507 12.4115029,0.0536684724 12.4085312,0.052836403 C12.4047274,0.0517665996 12.4009831,0.0504590621 12.39712,0.0495081257 C12.3916521,0.0481411546 12.3861247,0.0473090853 12.3806569,0.0461204148 C12.3742975,0.0447534437 12.3679381,0.0435053397 12.3615787,0.0424355363 C12.3583099,0.0419006346 12.3551004,0.0411279988 12.3518316,0.0406525306 C12.3466015,0.0398798948 12.3413119,0.0395827271 12.3360817,0.0389883919 C12.3288903,0.0381563226 12.3217582,0.0373836867 12.3146262,0.0369082185 C12.3116545,0.036729918 12.3086829,0.0363733168 12.3057112,0.0361950163 C12.3010754,0.0360167157 12.2964396,0.0361950163 12.2918632,0.0360761492 C12.284018,0.0358978486 12.2761133,0.0357195481 12.2683275,0.0360167157 C12.2652964,0.0361355827 12.2623247,0.0361355827 12.2592936,0.0362544498 C12.2557276,0.0364327503 12.2521616,0.0369676521 12.2485956,0.0372053862 C12.2480012,0.0372648197 12.2473475,0.0373242532 12.2467531,0.0373836867 C12.238789,0.037978022 12.2308249,0.0385723572 12.2229203,0.0395827271 C12.2197109,0.0399987618 12.216442,0.0402959294 12.2132326,0.0408308311 C12.2119251,0.0410091317 12.2105581,0.0413657329 12.2092506,0.041603467 C12.2060412,0.0420789351 12.2028318,0.042851571 12.1996223,0.0434459062 C12.1924903,0.0446940102 12.1853583,0.0459421142 12.1782857,0.0474873859 C12.169965,0.0493892586 12.1617632,0.0517071661 12.1535019,0.0540250735 C12.1470831,0.0558675128 12.1406049,0.057591085 12.1343049,0.0596712583 C12.1310361,0.0607410618 12.1277078,0.0616919981 12.1244389,0.0628212351 C12.1241418,0.0629401022 12.1238446,0.0630589692 12.1235474,0.0631778362 C12.1189116,0.0648419749 12.1144541,0.0669221483 12.1098777,0.0687645875 C12.1035778,0.0712607955 12.0972184,0.07369757 12.0909779,0.0764315121 C12.0880656,0.0776796162 12.0850939,0.0787494196 12.0822411,0.0801163907 C12.0773082,0.0824342981 12.0726129,0.0852276737 12.0677394,0.0877238818 C12.0615583,0.090814425 12.0554366,0.0939644018 12.0494338,0.0973521127 C12.0420641,0.101512459 12.0349321,0.105969974 12.0277406,0.110546355 C12.0218567,0.114290667 12.0160322,0.118034979 12.0103266,0.122017025 C12.0069983,0.124334933 12.0036106,0.12647454 12.0004012,0.128851881 C12.0004012,0.128851881 12.0003417,0.128911314 12.0002823,0.128911314 C11.999688,0.129327349 11.9992125,0.129802817 11.9986776,0.130218852 C11.9960625,0.132180158 11.9936258,0.134379198 11.9910107,0.136399938 C11.984889,0.14115462 11.9788268,0.146028169 11.9729429,0.151080019 C11.9699712,0.15363566 11.9668212,0.156072435 11.963909,0.158746943 C11.9610562,0.161302585 11.9585005,0.164155394 11.9557072,0.166770469 C11.9496449,0.172535521 11.9437016,0.178478873 11.9378771,0.184600526 C11.9356186,0.186977867 11.9331819,0.189176908 11.9309828,0.191613682 C11.92813,0.194763659 11.9255149,0.198032503 11.922781,0.201241913 C11.9173725,0.207482433 11.9122613,0.213901254 11.90715,0.220498375 C11.9041189,0.224361554 11.9009095,0.228105866 11.8980566,0.232087912 L1.07485529,14.8578462 L0.475468194,14.8578462 C0.212890884,14.8578462 0,15.070737 0,15.3333143 C0,15.5958917 0.212890884,15.8087825 0.475468194,15.8087825 L1.31377805,15.8087825 C1.31389692,15.8087825 1.31401579,15.8087825 1.31413465,15.8087825 C1.31431295,15.8087825 1.31449126,15.8087825 1.31466956,15.8087825 L7.90929454,15.8087825 C7.90982944,15.8087825 7.91036434,15.8089014 7.91089924,15.8089014 C7.91137471,15.8089014 7.91185018,15.8087825 7.91232565,15.8087825 L23.2509296,15.8087825 C23.2511079,15.8087825 23.2512862,15.8087825 23.2514645,15.8087825 C23.2515833,15.8087825 23.2517022,15.8087825 23.2518211,15.8087825 L28.5781347,15.8087825 C28.578313,15.8087825 28.5784913,15.8087825 28.5786696,15.8087825 C28.5787884,15.8087825 28.5789073,15.8087825 28.5790262,15.8087825 L29.0388633,15.8087825 C29.3014406,15.8087825 29.5143315,15.5958917 29.5143315,15.3333143 C29.5143315,15.070737 29.3014406,14.8578462 29.0388633,14.8578462 Z M23.4907438,14.8578462 L18.0410463,7.49320043 L19.2221687,3.48898561 L27.6349246,14.8579056 L23.4907438,14.8579056 L23.4907438,14.8578462 Z M15.9876774,6.31689212 C15.9886878,6.31831853 15.9898171,6.31974493 15.9908274,6.32117134 L22.307779,14.8578462 L8.54665965,14.8578462 L12.4686779,1.56131868 L15.9876774,6.31689212 Z M17.820013,4.88151308 L17.3322421,6.53525089 L16.9642891,6.03797059 L17.820013,4.88151308 Z M11.0665222,2.95390559 L7.55524903,14.8579056 L2.25782015,14.8579056 L11.0665222,2.95390559 Z" id="Shape"></path>
            </g>
        </g>
    </g>
</svg>