<?xml version="1.0" encoding="UTF-8"?>
<svg width="48px" height="48px" viewBox="0 0 48 48" version="1.1" xmlns="http://www.w3.org/2000/svg" xmlns:xlink="http://www.w3.org/1999/xlink">
    <!-- Generator: Sketch 47.1 (45422) - http://www.bohemiancoding.com/sketch -->
    <title>Group 54</title>
    <desc>Created with Sketch.</desc>
    <defs></defs>
    <g id="Page-1" stroke="none" stroke-width="1" fill="none" fill-rule="evenodd">
        <g id="Group-54" transform="translate(1.000000, 1.000000)">
            <circle id="Oval-3" stroke="#E3E3E3" fill="#FFFFFF" cx="23" cy="23" r="23"></circle>
            <path d="M37.0388633,29.8578462 L36.8178895,29.8578462 L27.4213899,17.1595171 C27.4178833,17.154703 27.4139607,17.150186 27.4103352,17.1454908 C27.4059372,17.1398446 27.4014796,17.1343173 27.3968438,17.1288494 C27.3940505,17.1255806 27.3914354,17.1222523 27.3885231,17.1190429 C27.3859675,17.1162495 27.3831741,17.1136939 27.380559,17.1109599 C27.3749129,17.1050166 27.3691478,17.0992515 27.3632045,17.0936053 C27.3605894,17.0911685 27.3582715,17.0886129 27.355597,17.0861761 C27.3525659,17.0834422 27.3493564,17.080946 27.3462659,17.0782715 C27.3399065,17.0728036 27.3333688,17.067514 27.3266528,17.0623433 C27.3243944,17.0605603 27.3222548,17.058599 27.3199369,17.0568754 C27.3196397,17.0566971 27.319402,17.0564594 27.3191642,17.0562811 L27.3191048,17.0562811 C27.3158359,17.0538443 27.3123888,17.0517047 27.3090605,17.0493868 C27.3025228,17.0448104 27.2958068,17.0404123 27.288972,17.0361331 C27.2824343,17.0320322 27.2758372,17.0280501 27.2691212,17.0242464 C27.2625241,17.0205615 27.2557486,17.0170549 27.2489138,17.0136078 C27.2449317,17.0115871 27.2410686,17.0092692 27.2370271,17.0074267 C27.2334016,17.0057031 27.2296573,17.004455 27.2259725,17.0028503 C27.2195536,17.000057 27.2130754,16.9974419 27.2064783,16.9949457 C27.2025556,16.9934598 27.1986925,16.9916174 27.1947104,16.990191 C27.1897774,16.9884674 27.1847256,16.9871599 27.1797926,16.9855552 C27.1767615,16.9846042 27.1739681,16.9833561 27.170937,16.9824646 C27.1678465,16.9815731 27.1647559,16.9810977 27.1616059,16.9802062 C27.1608927,16.9800279 27.1601201,16.9797307 27.1594069,16.9795524 C27.1565541,16.9787798 27.1537607,16.9777694 27.1508485,16.9770562 C27.1452617,16.9756892 27.1395561,16.9747383 27.1339099,16.9735496 C27.1274911,16.9721826 27.1210723,16.9709345 27.1146535,16.9698647 C27.1116223,16.9693298 27.1086507,16.9686166 27.1056196,16.9681412 C27.1001517,16.9673685 27.0946838,16.9669525 27.0891565,16.9663581 C27.0820245,16.9655855 27.0749519,16.9648129 27.0678793,16.9643374 C27.0650265,16.9641591 27.0622331,16.9638025 27.0593803,16.9636836 C27.0544473,16.9634459 27.0495143,16.9636242 27.0445813,16.9635648 C27.0369738,16.9634459 27.0293664,16.9632676 27.0218183,16.9635053 C27.0187872,16.9635648 27.0157561,16.9635648 27.012725,16.9637431 C27.0085646,16.9639214 27.0044637,16.9645751 27.0003034,16.9648723 C26.9999468,16.9648723 26.9995902,16.9649317 26.9992336,16.9649317 C26.9916855,16.9655261 26.984078,16.966061 26.9765299,16.9670119 C26.9732017,16.967428 26.969814,16.9677251 26.9664857,16.96826 C26.9647027,16.9684978 26.9630385,16.9689732 26.9612555,16.9692704 C26.9579273,16.9698053 26.9546584,16.9705779 26.9513301,16.9711723 C26.9449113,16.9723609 26.9384331,16.9733713 26.9321331,16.9748571 C26.9229209,16.9769373 26.9137681,16.979493 26.9046748,16.9821675 C26.8992069,16.9837722 26.893739,16.9851986 26.88839,16.9869816 C26.8791184,16.9900127 26.8700251,16.9935193 26.8609317,16.9971447 C26.8556422,16.9992249 26.850412,17.0012456 26.8451819,17.0035041 C26.841913,17.0049899 26.8385253,17.0061192 26.8352565,17.0076644 C26.8297886,17.0102201 26.8246179,17.0133106 26.8192688,17.0160446 C26.8139793,17.0187191 26.8087491,17.0213936 26.8035784,17.0243058 C26.795436,17.0288822 26.7874719,17.0338152 26.7795672,17.0389265 C26.774456,17.0421953 26.7694041,17.0454047 26.7644117,17.0488519 C26.7608457,17.0513481 26.7571014,17.053666 26.7535948,17.0562811 C26.7535354,17.0563405 26.7535354,17.0563405 26.7534759,17.0563999 C26.7526439,17.0569943 26.7519307,17.0577075 26.7510986,17.0583612 C26.7483646,17.060382 26.745809,17.0626999 26.7431345,17.0648395 C26.7376666,17.0691187 26.7322582,17.0734574 26.7269686,17.0779743 C26.7236997,17.0807677 26.7203715,17.0833233 26.717162,17.0862356 C26.7140121,17.0890884 26.7112187,17.0921789 26.7081282,17.0950912 C26.7025414,17.1004402 26.6970735,17.1058486 26.6917245,17.1114948 C26.6892283,17.1141099 26.6866132,17.1164872 26.6841764,17.1191617 C26.6811453,17.12249 26.6784114,17.1259966 26.6754991,17.1294437 C26.6705067,17.1352682 26.6656332,17.141271 26.6609379,17.1473927 C26.6577285,17.1514936 26.6543408,17.1554756 26.6512503,17.1596954 L24.3727473,20.2388274 L20.6678397,15.2320285 C20.6643331,15.2272144 20.6604105,15.2226974 20.656785,15.2180022 C20.6523869,15.212356 20.6479294,15.2068287 20.6432936,15.2013608 C20.6405002,15.1981514 20.6379446,15.1947637 20.6350323,15.1916137 C20.6324173,15.1887014 20.629505,15.1860864 20.6268305,15.183293 C20.6212438,15.1774091 20.6155382,15.1717035 20.6096542,15.1661167 C20.6070986,15.1637394 20.6047807,15.1611837 20.602225,15.1588064 C20.5990751,15.1558941 20.5956874,15.1533385 20.5924779,15.1505451 C20.5862969,15.1452555 20.5799969,15.1401443 20.5735781,15.1351518 C20.5675159,15.1304566 20.5614536,15.1259396 20.5552726,15.121601 C20.5489726,15.1172029 20.5425538,15.1129831 20.5360161,15.1088822 C20.5291812,15.1045436 20.522287,15.1003832 20.5152738,15.0964606 C20.5089738,15.092954 20.502555,15.0895663 20.4960173,15.0862975 C20.4917381,15.0841579 20.4875778,15.0817211 20.4832391,15.0797004 C20.4797325,15.0780957 20.4761071,15.076907 20.4726005,15.0753617 C20.46636,15.0726278 20.4600006,15.0700721 20.4536412,15.0676354 C20.449362,15.0659712 20.4452017,15.0640099 20.4409225,15.0625241 C20.4361678,15.0608005 20.4312942,15.0596118 20.4264801,15.058126 C20.423449,15.0571751 20.4205962,15.0558675 20.4175056,15.054976 C20.414534,15.0540845 20.4115029,15.0536685 20.4085312,15.0528364 C20.4047274,15.0517666 20.4009831,15.0504591 20.39712,15.0495081 C20.3916521,15.0481412 20.3861247,15.0473091 20.3806569,15.0461204 C20.3742975,15.0447534 20.3679381,15.0435053 20.3615787,15.0424355 C20.3583099,15.0419006 20.3551004,15.041128 20.3518316,15.0406525 C20.3466015,15.0398799 20.3413119,15.0395827 20.3360817,15.0389884 C20.3288903,15.0381563 20.3217582,15.0373837 20.3146262,15.0369082 C20.3116545,15.0367299 20.3086829,15.0363733 20.3057112,15.036195 C20.3010754,15.0360167 20.2964396,15.036195 20.2918632,15.0360761 C20.284018,15.0358978 20.2761133,15.0357195 20.2683275,15.0360167 C20.2652964,15.0361356 20.2623247,15.0361356 20.2592936,15.0362544 C20.2557276,15.0364328 20.2521616,15.0369677 20.2485956,15.0372054 C20.2480012,15.0372648 20.2473475,15.0373243 20.2467531,15.0373837 C20.238789,15.037978 20.2308249,15.0385724 20.2229203,15.0395827 C20.2197109,15.0399988 20.216442,15.0402959 20.2132326,15.0408308 C20.2119251,15.0410091 20.2105581,15.0413657 20.2092506,15.0416035 C20.2060412,15.0420789 20.2028318,15.0428516 20.1996223,15.0434459 C20.1924903,15.044694 20.1853583,15.0459421 20.1782857,15.0474874 C20.169965,15.0493893 20.1617632,15.0517072 20.1535019,15.0540251 C20.1470831,15.0558675 20.1406049,15.0575911 20.1343049,15.0596713 C20.1310361,15.0607411 20.1277078,15.061692 20.1244389,15.0628212 C20.1241418,15.0629401 20.1238446,15.063059 20.1235474,15.0631778 C20.1189116,15.064842 20.1144541,15.0669221 20.1098777,15.0687646 C20.1035778,15.0712608 20.0972184,15.0736976 20.0909779,15.0764315 C20.0880656,15.0776796 20.0850939,15.0787494 20.0822411,15.0801164 C20.0773082,15.0824343 20.0726129,15.0852277 20.0677394,15.0877239 C20.0615583,15.0908144 20.0554366,15.0939644 20.0494338,15.0973521 C20.0420641,15.1015125 20.0349321,15.10597 20.0277406,15.1105464 C20.0218567,15.1142907 20.0160322,15.118035 20.0103266,15.122017 C20.0069983,15.1243349 20.0036106,15.1264745 20.0004012,15.1288519 C20.0004012,15.1288519 20.0003417,15.1289113 20.0002823,15.1289113 C19.999688,15.1293273 19.9992125,15.1298028 19.9986776,15.1302189 C19.9960625,15.1321802 19.9936258,15.1343792 19.9910107,15.1363999 C19.984889,15.1411546 19.9788268,15.1460282 19.9729429,15.15108 C19.9699712,15.1536357 19.9668212,15.1560724 19.963909,15.1587469 C19.9610562,15.1613026 19.9585005,15.1641554 19.9557072,15.1667705 C19.9496449,15.1725355 19.9437016,15.1784789 19.9378771,15.1846005 C19.9356186,15.1869779 19.9331819,15.1891769 19.9309828,15.1916137 C19.92813,15.1947637 19.9255149,15.1980325 19.922781,15.2012419 C19.9173725,15.2074824 19.9122613,15.2139013 19.90715,15.2204984 C19.9041189,15.2243616 19.9009095,15.2281059 19.8980566,15.2320879 L9.07485529,29.8578462 L8.47546819,29.8578462 C8.21289088,29.8578462 8,30.070737 8,30.3333143 C8,30.5958917 8.21289088,30.8087825 8.47546819,30.8087825 L9.31377805,30.8087825 C9.31389692,30.8087825 9.31401579,30.8087825 9.31413465,30.8087825 C9.31431295,30.8087825 9.31449126,30.8087825 9.31466956,30.8087825 L15.9092945,30.8087825 C15.9098294,30.8087825 15.9103643,30.8089014 15.9108992,30.8089014 C15.9113747,30.8089014 15.9118502,30.8087825 15.9123256,30.8087825 L31.2509296,30.8087825 C31.2511079,30.8087825 31.2512862,30.8087825 31.2514645,30.8087825 C31.2515833,30.8087825 31.2517022,30.8087825 31.2518211,30.8087825 L36.5781347,30.8087825 C36.578313,30.8087825 36.5784913,30.8087825 36.5786696,30.8087825 C36.5787884,30.8087825 36.5789073,30.8087825 36.5790262,30.8087825 L37.0388633,30.8087825 C37.3014406,30.8087825 37.5143315,30.5958917 37.5143315,30.3333143 C37.5143315,30.070737 37.3014406,29.8578462 37.0388633,29.8578462 Z M31.4907438,29.8578462 L26.0410463,22.4932004 L27.2221687,18.4889856 L35.6349246,29.8579056 L31.4907438,29.8579056 L31.4907438,29.8578462 Z M23.9876774,21.3168921 C23.9886878,21.3183185 23.9898171,21.3197449 23.9908274,21.3211713 L30.307779,29.8578462 L16.5466597,29.8578462 L20.4686779,16.5613187 L23.9876774,21.3168921 Z M25.820013,19.8815131 L25.3322421,21.5352509 L24.9642891,21.0379706 L25.820013,19.8815131 Z M19.0665222,17.9539056 L15.555249,29.8579056 L10.2578202,29.8579056 L19.0665222,17.9539056 Z" id="Shape" fill="#878787" fill-rule="nonzero"></path>
        </g>
    </g>
</svg>