<?xml version="1.0" encoding="UTF-8"?>
<svg width="48px" height="48px" viewBox="0 0 48 48" version="1.1" xmlns="http://www.w3.org/2000/svg" xmlns:xlink="http://www.w3.org/1999/xlink">
    <!-- Generator: Sketch 47.1 (45422) - http://www.bohemiancoding.com/sketch -->
    <title>Group 34</title>
    <desc>Created with Sketch.</desc>
    <defs></defs>
    <g id="Page-1" stroke="none" stroke-width="1" fill="none" fill-rule="evenodd">
        <g id="Group-34" transform="translate(1.000000, 1.000000)">
            <circle id="Oval-3" stroke="#E3E3E3" fill="#FFFFFF" cx="23" cy="23" r="23"></circle>
            <path d="M33.0833477,23.2643516 L33.0833477,21.4310039 C33.0833477,20.0376563 32.185,19.1393516 30.7916953,19.1393516 L20.25,19.1393516 C18.8566523,19.1393516 17.9583477,20.0376992 17.9583477,21.4310039 L17.9583477,23.25 L13.49875,23.2597539 L12.9166523,23.2597539 L12.9166523,15.4864063 C12.9166523,15.2572539 12.7516523,15.0510039 12.5270547,15.0189063 C12.2429023,14.9776563 12,15.1976563 12,15.4726563 L12,30.5839063 C12,30.8130586 12.165,31.0193086 12.3895977,31.0514063 C12.67375,31.0926563 12.9166953,30.8726563 12.9166953,30.5976563 L12.9166953,27.8476563 L33.0833477,27.8476563 L33.0833477,30.5839063 C33.0833477,30.8130586 33.2483477,31.0193086 33.4729453,31.0514063 C33.7570977,31.0926563 34,30.8726563 34,30.5976563 L34,24.1810039 C34,23.5576563 33.7066523,23.2689063 33.0833477,23.2643516 Z M18.875,21.4310039 C18.875,20.2347539 19.7366523,20.0560039 20.25,20.0560039 L30.7916523,20.0560039 C31.305,20.0560039 32.1666523,20.2347539 32.1666523,21.4310039 L32.1666523,23.2643516 L18.875,23.2643516 L18.875,21.4310039 Z M33.0833047,26.9310039 L12.9166523,26.9310039 L12.9166523,24.1810039 L33.0833047,24.1810039 L33.0833047,26.9310039 L33.0833047,26.9310039 Z" id="Shape" fill="#878787" fill-rule="nonzero"></path>
            <path d="M15.4589844,18.1582031 C14.052918,18.1582031 12.9130859,19.2980352 12.9130859,20.7041016 C12.9130859,22.110168 14.052918,23.25 15.4589844,23.25 C16.8650508,23.25 18.0048828,22.110168 18.0048828,20.7041016 C18.0048828,19.2980352 16.8650508,18.1582031 15.4589844,18.1582031 Z M15.4589844,22.4335938 C14.503832,22.4335938 13.7294922,21.6592539 13.7294922,20.7041016 C13.7294922,19.7489492 14.503832,18.9746094 15.4589844,18.9746094 C16.4141367,18.9746094 17.1884766,19.7489492 17.1884766,20.7041016 C17.1884766,21.6592539 16.4141797,22.4335938 15.4589844,22.4335938 Z" id="Shape" fill="#878787" fill-rule="nonzero"></path>
        </g>
    </g>
</svg>