<?xml version="1.0" encoding="UTF-8"?>
<svg width="48px" height="48px" viewBox="0 0 48 48" version="1.1" xmlns="http://www.w3.org/2000/svg" xmlns:xlink="http://www.w3.org/1999/xlink">
    <!-- Generator: Sketch 47.1 (45422) - http://www.bohemiancoding.com/sketch -->
    <title>Group 5</title>
    <desc>Created with Sketch.</desc>
    <defs></defs>
    <g id="Page-1" stroke="none" stroke-width="1" fill="none" fill-rule="evenodd">
        <g id="Group-5" transform="translate(1.000000, 1.000000)">
            <circle id="Oval-3" stroke="#E3E3E3" cx="23" cy="23" r="23"></circle>
            <g id="bed-(2)" transform="translate(12.000000, 15.000000)" fill-rule="nonzero" fill="#FFFFFF">
                <path d="M21.0833477,8.26435156 L21.0833477,6.43100391 C21.0833477,5.03765625 20.185,4.13935156 18.7916953,4.13935156 L8.25,4.13935156 C6.85665234,4.13935156 5.95834766,5.03769922 5.95834766,6.43100391 L5.95834766,8.25 L1.49875,8.25975391 L0.916652344,8.25975391 L0.916652344,0.48640625 C0.916652344,0.257253906 0.751652344,0.0510039062 0.527054687,0.01890625 C0.242902344,-0.02234375 0,0.19765625 0,0.47265625 L0,15.5839062 C0,15.8130586 0.165,16.0193086 0.389597656,16.0514062 C0.67375,16.0926562 0.916695313,15.8726562 0.916695313,15.5976562 L0.916695313,12.8476562 L21.0833477,12.8476562 L21.0833477,15.5839062 C21.0833477,15.8130586 21.2483477,16.0193086 21.4729453,16.0514062 C21.7570977,16.0926562 22,15.8726562 22,15.5976562 L22,9.18100391 C22,8.55765625 21.7066523,8.26890625 21.0833477,8.26435156 Z M6.875,6.43100391 C6.875,5.23475391 7.73665234,5.05600391 8.25,5.05600391 L18.7916523,5.05600391 C19.305,5.05600391 20.1666523,5.23475391 20.1666523,6.43100391 L20.1666523,8.26435156 L6.875,8.26435156 L6.875,6.43100391 Z M21.0833047,11.9310039 L0.916652344,11.9310039 L0.916652344,9.18100391 L21.0833047,9.18100391 L21.0833047,11.9310039 L21.0833047,11.9310039 Z" id="Shape"></path>
                <path d="M3.45898438,3.15820312 C2.05291797,3.15820312 0.913085938,4.29803516 0.913085938,5.70410156 C0.913085938,7.11016797 2.05291797,8.25 3.45898438,8.25 C4.86505078,8.25 6.00488281,7.11016797 6.00488281,5.70410156 C6.00488281,4.29803516 4.86505078,3.15820312 3.45898438,3.15820312 Z M3.45898438,7.43359375 C2.50383203,7.43359375 1.72949219,6.65925391 1.72949219,5.70410156 C1.72949219,4.74894922 2.50383203,3.97460938 3.45898438,3.97460938 C4.41413672,3.97460938 5.18847656,4.74894922 5.18847656,5.70410156 C5.18847656,6.65925391 4.41417969,7.43359375 3.45898438,7.43359375 Z" id="Shape"></path>
            </g>
        </g>
    </g>
</svg>