<?xml version="1.0" encoding="UTF-8"?>
<svg width="48px" height="48px" viewBox="0 0 48 48" version="1.1" xmlns="http://www.w3.org/2000/svg" xmlns:xlink="http://www.w3.org/1999/xlink">
    <!-- Generator: Sketch 47.1 (45422) - http://www.bohemiancoding.com/sketch -->
    <title>Group 64</title>
    <desc>Created with Sketch.</desc>
    <defs></defs>
    <g id="Page-1" stroke="none" stroke-width="1" fill="none" fill-rule="evenodd">
        <g id="Group-64" transform="translate(1.000000, 1.000000)">
            <g id="Group-57" stroke="#FFFFFF">
                <circle id="Oval-3" cx="23" cy="23" r="23"></circle>
            </g>
            <g id="books" transform="translate(12.000000, 12.000000)" fill-rule="nonzero" fill="#FFFFFF">
                <path d="M21.7980203,15.4406463 C21.9191098,15.3031911 21.9878821,14.7116951 21.4478537,14.6666667 L3.34118293,14.6666667 C1.4989065,14.6666667 0,16.165439 0,18.0078943 C0,19.8498577 1.4989065,21.3485407 3.34118293,21.3485407 L21.4478537,21.3485407 C22.086435,21.2765488 21.9172764,20.7062033 21.7934593,20.5695976 C20.2348577,18.846935 20.2366463,17.2175488 21.7980203,15.4406463 Z M20.4866504,20.4161341 L3.34118293,20.4161341 C2.013,20.4161341 0.932495935,19.3358089 0.932495935,18.0078943 C0.932495935,16.6798902 2.013,15.5990732 3.34118293,15.5990732 L20.4993943,15.5990732 C19.4198293,17.2171016 19.4152683,18.8314187 20.4866504,20.4161341 Z" id="Shape"></path>
                <path d="M0.462715447,14.2961992 L18.5693415,14.2961992 C20.4116179,14.2961992 21.9105691,12.7974268 21.9105691,10.9554634 C21.9105691,9.11309756 20.4116626,7.61428049 18.5693415,7.61428049 L8.43999593,7.61428049 L8.43999593,6.6819187 L21.4478537,6.6819187 C22.086435,6.60992683 21.9172764,6.0395813 21.7934593,5.90297561 C20.2348577,4.18026829 20.2366911,2.55088211 21.7980203,0.77402439 C21.9191098,0.636569106 21.9878821,0.0449837398 21.4478537,0 L3.34118293,0 C1.4989065,4.47154472e-05 0,1.49886179 0,3.34122764 C0,5.18323577 1.4989065,6.68196341 3.34118293,6.68196341 L3.93679268,6.68196341 L3.93679268,7.6143252 L0.462715447,7.6143252 C-0.0773130081,7.65930894 -0.00854065041,8.25080488 0.11254878,8.38830488 C1.67392276,10.1652073 1.67571138,11.7945935 0.117109756,13.5173008 C-0.00670731707,13.6538618 -0.175865854,14.2242073 0.462715447,14.2961992 Z M3.34118293,5.74955691 C2.013,5.74955691 0.932495935,4.66923171 0.932495935,3.34122764 C0.932495935,2.01326829 2.013,0.932495935 3.34118293,0.932495935 L20.4993943,0.932495935 C19.4198293,2.55047967 19.4152683,4.16479675 20.4866504,5.74960163 L8.43999593,5.74960163 L8.43999593,3.34100407 C8.43999593,3.08335366 8.23144309,2.87480081 7.97374797,2.87480081 L4.40304065,2.87480081 C4.14530081,2.87480081 3.93679268,3.08335366 3.93679268,3.34100407 L3.93679268,5.74955691 L3.34118293,5.74955691 L3.34118293,5.74955691 Z M7.5075,3.80720732 L7.5075,9.63273577 L6.47613821,8.82463821 C6.39144715,8.7585935 6.28989837,8.72541463 6.18839431,8.72541463 C6.08684553,8.72541463 5.98529675,8.7585935 5.90060569,8.82463821 L4.86928862,9.63273577 L4.86928862,3.80720732 L7.5075,3.80720732 Z M3.93679268,8.54668699 L3.93679268,10.5901382 C3.90978455,10.9958862 4.21841057,11.3931829 4.69078455,10.9570732 L6.18839431,9.78387398 L7.68595935,10.9570732 C8.17657724,11.3546382 8.4775122,10.9804593 8.43999593,10.5901382 L8.43999593,8.54668699 L18.5693415,8.54668699 C19.8975244,8.54668699 20.9780285,9.62750407 20.9780285,10.9554634 C20.9780285,12.2834228 19.8975244,13.3637927 18.5693415,13.3637927 L1.4239187,13.3637927 C2.49534553,11.7790325 2.49073984,10.1646707 1.4111748,8.54664228 L3.93679268,8.54664228 L3.93679268,8.54668699 Z" id="Shape"></path>
            </g>
        </g>
    </g>
</svg>