<?xml version="1.0" encoding="UTF-8"?>
<svg width="48px" height="48px" viewBox="0 0 48 48" version="1.1" xmlns="http://www.w3.org/2000/svg" xmlns:xlink="http://www.w3.org/1999/xlink">
    <!-- Generator: Sketch 47.1 (45422) - http://www.bohemiancoding.com/sketch -->
    <title>Group 61</title>
    <desc>Created with Sketch.</desc>
    <defs></defs>
    <g id="Page-1" stroke="none" stroke-width="1" fill="none" fill-rule="evenodd">
        <g id="Group-61" transform="translate(1.000000, 1.000000)">
            <circle id="Oval-3" stroke="#E3E3E3" cx="23" cy="23" r="23"></circle>
            <path d="M34.7830755,34.9437925 L25.7687547,19.330434 L25.7687547,11 L19.2016415,11 L19.2016415,15.8113208 L24.9196981,15.8113208 L24.9196981,19.330434 L21.2668868,25.6573208 L19.3286604,22.3004906 L12.0287547,34.9439623 L25.892717,34.9439623 L25.892717,34.9437925 L34.7830755,34.9437925 Z M20.0506981,14.9622642 L20.0506981,11.8490566 L24.9196981,11.8490566 L24.9196981,14.9622642 L20.0506981,14.9622642 Z M17.3759434,34.0947358 L22.4822264,25.2503396 L23.613283,27.5160755 L25.3442264,25.9183208 L27.0751698,27.5160755 L28.2061698,25.2503962 L33.3124528,34.0947358 L17.3759434,34.0947358 Z M22.9911509,24.3688491 L25.3442264,20.2932075 L27.6973585,24.3689057 L26.8205094,26.1253774 L25.344283,24.7627547 L23.8680566,26.1253774 L22.9911509,24.3688491 Z M19.3286038,23.9985472 L20.7766415,26.5063774 L16.3954528,34.0949057 L13.4993774,34.0949057 L19.3286038,23.9985472 Z" id="Shape" fill="#878787" fill-rule="nonzero"></path>
        </g>
    </g>
</svg>