<?xml version="1.0" encoding="UTF-8"?>
<svg width="48px" height="48px" viewBox="0 0 48 48" version="1.1" xmlns="http://www.w3.org/2000/svg" xmlns:xlink="http://www.w3.org/1999/xlink">
    <!-- Generator: Sketch 47.1 (45422) - http://www.bohemiancoding.com/sketch -->
    <title>Group 32</title>
    <desc>Created with Sketch.</desc>
    <defs></defs>
    <g id="Page-1" stroke="none" stroke-width="1" fill="none" fill-rule="evenodd">
        <g id="Group-32" transform="translate(1.000000, 1.000000)">
            <circle id="Oval-3" stroke="#E3E3E3" cx="23" cy="23" r="23"></circle>
            <g id="vertex" transform="translate(12.000000, 11.000000)" fill-rule="nonzero" fill="#FFFFFF">
                <path d="M22.7830755,23.9437925 L13.7687547,8.33043396 L13.7687547,0 L7.20164151,0 L7.20164151,4.81132075 L12.9196981,4.81132075 L12.9196981,8.33043396 L9.26688679,14.6573208 L7.32866038,11.3004906 L0.028754717,23.9439623 L13.892717,23.9439623 L13.892717,23.9437925 L22.7830755,23.9437925 Z M8.05069811,3.96226415 L8.05069811,0.849056604 L12.9196981,0.849056604 L12.9196981,3.96226415 L8.05069811,3.96226415 Z M5.3759434,23.0947358 L10.4822264,14.2503396 L11.613283,16.5160755 L13.3442264,14.9183208 L15.0751698,16.5160755 L16.2061698,14.2503962 L21.3124528,23.0947358 L5.3759434,23.0947358 Z M10.9911509,13.3688491 L13.3442264,9.29320755 L15.6973585,13.3689057 L14.8205094,15.1253774 L13.344283,13.7627547 L11.8680566,15.1253774 L10.9911509,13.3688491 Z M7.32860377,12.9985472 L8.77664151,15.5063774 L4.39545283,23.0949057 L1.49937736,23.0949057 L7.32860377,12.9985472 Z" id="Shape"></path>
            </g>
        </g>
    </g>
</svg>