<?xml version="1.0" encoding="UTF-8"?>
<svg width="48px" height="48px" viewBox="0 0 48 48" version="1.1" xmlns="http://www.w3.org/2000/svg" xmlns:xlink="http://www.w3.org/1999/xlink">
    <!-- Generator: Sketch 47.1 (45422) - http://www.bohemiancoding.com/sketch -->
    <title>Group 18</title>
    <desc>Created with Sketch.</desc>
    <defs></defs>
    <g id="Page-1" stroke="none" stroke-width="1" fill="none" fill-rule="evenodd">
        <g id="Group-18" transform="translate(1.000000, 1.000000)">
            <circle id="Oval-3" stroke="#E3E3E3" cx="23" cy="23" r="23"></circle>
            <g id="music-player" transform="translate(12.000000, 12.000000)" fill-rule="nonzero" fill="#FFFFFF">
                <path d="M20.264,0.0996 C20.1776,0.024 20.0636,-0.0104 19.9484,0.0032 L7.5484,1.6076 C7.3492,1.6336 7.2,1.8028 7.2,2.004 L7.2,4.4108 L7.2,6.0956 L7.2,16.2492 C6.4696,15.3712 5.3092,14.8 4,14.8 C1.7944,14.8 0,16.4148 0,18.4 C0,20.3852 1.7944,22 4,22 C6.2056,22 8,20.3852 8,18.4 C8,18.3072 7.9924,18.216 7.9844,18.1252 C7.9896,18.0992 8,18.0756 8,18.0484 L8,6.4472 L19.6,4.946 L19.6,12.2488 C18.8696,11.3712 17.7092,10.8 16.4,10.8 C14.1944,10.8 12.4,12.4148 12.4,14.4 C12.4,16.3852 14.1944,18 16.4,18 C18.5856,18 20.3652,16.4136 20.3972,14.4532 C20.3972,14.448 20.4,14.4436 20.4,14.4384 L20.4,4.4908 L20.4,2.8064 L20.4,0.4 C20.4,0.2848 20.3504,0.1752 20.264,0.0996 Z M4,21.2 C2.2356,21.2 0.8,19.9436 0.8,18.4 C0.8,16.8564 2.2356,15.6 4,15.6 C5.7644,15.6 7.2,16.8564 7.2,18.4 C7.2,19.9436 5.7644,21.2 4,21.2 Z M16.4,17.2 C14.6356,17.2 13.2,15.9436 13.2,14.4 C13.2,12.8564 14.6356,11.6 16.4,11.6 C18.1644,11.6 19.6,12.8564 19.6,14.4 C19.6,15.9436 18.1644,17.2 16.4,17.2 Z M8,5.6404 L8,4.4108 L8,2.3556 L19.6,0.8548 L19.6,2.8064 L19.6,4.1392 L8,5.6404 Z" id="Shape"></path>
            </g>
        </g>
    </g>
</svg>