<?xml version="1.0" encoding="UTF-8"?>
<svg width="48px" height="48px" viewBox="0 0 48 48" version="1.1" xmlns="http://www.w3.org/2000/svg" xmlns:xlink="http://www.w3.org/1999/xlink">
    <!-- Generator: Sketch 47.1 (45422) - http://www.bohemiancoding.com/sketch -->
    <title>Group 47</title>
    <desc>Created with Sketch.</desc>
    <defs></defs>
    <g id="Page-1" stroke="none" stroke-width="1" fill="none" fill-rule="evenodd">
        <g id="Group-47" transform="translate(1.000000, 1.000000)">
            <circle id="Oval-3" stroke="#E3E3E3" fill="#FFFFFF" cx="23" cy="23" r="23"></circle>
            <path d="M32.264,12.0996 C32.1776,12.024 32.0636,11.9896 31.9484,12.0032 L19.5484,13.6076 C19.3492,13.6336 19.2,13.8028 19.2,14.004 L19.2,16.4108 L19.2,18.0956 L19.2,28.2492 C18.4696,27.3712 17.3092,26.8 16,26.8 C13.7944,26.8 12,28.4148 12,30.4 C12,32.3852 13.7944,34 16,34 C18.2056,34 20,32.3852 20,30.4 C20,30.3072 19.9924,30.216 19.9844,30.1252 C19.9896,30.0992 20,30.0756 20,30.0484 L20,18.4472 L31.6,16.946 L31.6,24.2488 C30.8696,23.3712 29.7092,22.8 28.4,22.8 C26.1944,22.8 24.4,24.4148 24.4,26.4 C24.4,28.3852 26.1944,30 28.4,30 C30.5856,30 32.3652,28.4136 32.3972,26.4532 C32.3972,26.448 32.4,26.4436 32.4,26.4384 L32.4,16.4908 L32.4,14.8064 L32.4,12.4 C32.4,12.2848 32.3504,12.1752 32.264,12.0996 Z M16,33.2 C14.2356,33.2 12.8,31.9436 12.8,30.4 C12.8,28.8564 14.2356,27.6 16,27.6 C17.7644,27.6 19.2,28.8564 19.2,30.4 C19.2,31.9436 17.7644,33.2 16,33.2 Z M28.4,29.2 C26.6356,29.2 25.2,27.9436 25.2,26.4 C25.2,24.8564 26.6356,23.6 28.4,23.6 C30.1644,23.6 31.6,24.8564 31.6,26.4 C31.6,27.9436 30.1644,29.2 28.4,29.2 Z M20,17.6404 L20,16.4108 L20,14.3556 L31.6,12.8548 L31.6,14.8064 L31.6,16.1392 L20,17.6404 Z" id="Shape" fill="#878787" fill-rule="nonzero"></path>
        </g>
    </g>
</svg>