<?xml version="1.0" encoding="UTF-8"?>
<svg width="48px" height="48px" viewBox="0 0 48 48" version="1.1" xmlns="http://www.w3.org/2000/svg" xmlns:xlink="http://www.w3.org/1999/xlink">
    <!-- Generator: Sketch 47.1 (45422) - http://www.bohemiancoding.com/sketch -->
    <title>Group 51</title>
    <desc>Created with Sketch.</desc>
    <defs></defs>
    <g id="Page-1" stroke="none" stroke-width="1" fill="none" fill-rule="evenodd">
        <g id="Group-51" transform="translate(1.000000, 1.000000)">
            <circle id="Oval-3" stroke="#E3E3E3" cx="23" cy="23" r="23"></circle>
            <path d="M34.5473216,32.1066199 L29.4374737,32.1066199 L29.4374737,29.6836023 C30.5533099,29.5335205 31.542269,28.8366316 32.1173333,27.780117 C32.8813567,27.6054737 33.5754386,27.1631345 34.0888889,26.5194386 C34.646269,25.8206316 34.9532632,24.9275322 34.9532632,24.0046316 C34.9532632,22.6007018 34.234386,21.3012865 33.1032982,20.6263392 C32.9854503,18.2851462 31.1806784,16.418386 28.9826433,16.418386 C28.2907602,16.418386 27.6061754,16.6066901 27.0029474,16.9629474 C26.8152515,17.0737778 26.7529357,17.3157427 26.8637661,17.5033918 C26.9746433,17.6911345 27.216655,17.7534035 27.4042573,17.6425731 C27.8860351,17.3580351 28.4318129,17.2076725 28.9826433,17.2076725 C30.8195088,17.2076725 32.3166784,18.8475789 32.3201404,20.8632982 C32.3204211,21.0118363 32.4040234,21.1476491 32.5365614,21.2147368 C33.525193,21.7150877 34.1639298,22.810152 34.1639298,24.0045848 C34.1639298,25.5120468 33.1430643,26.8172164 31.7892398,27.0405146 C31.6624561,27.0614737 31.5538246,27.1427368 31.4980117,27.2585263 C31.0746199,28.1365614 30.309614,28.7301053 29.4374737,28.8846316 L29.4374737,25.3924678 L31.3797427,23.6064094 C31.5401637,23.4588538 31.5506433,23.2092164 31.4030877,23.0487953 C31.2554854,22.8883743 31.0058947,22.877848 30.8454737,23.0254503 L29.4374737,24.3201871 L29.4374737,21.6857076 C29.4374737,21.4677427 29.2607719,21.2910409 29.042807,21.2910409 C28.8248421,21.2910409 28.6481404,21.4677427 28.6481404,21.6857076 L28.6481404,26.4623158 L27.2401404,25.1675789 C27.0797193,25.0199766 26.8300351,25.0305029 26.6825263,25.190924 C26.5349708,25.351345 26.5454503,25.6009825 26.7058713,25.748538 L28.6481871,27.5345965 L28.6481871,28.9031111 C27.7175673,28.7832047 26.8968421,28.1674386 26.4564678,27.2356959 C26.4038363,27.1243041 26.3021754,27.043883 26.1817076,27.0183392 C24.8721404,26.740117 23.9216842,25.4727018 23.9216842,24.0045848 C23.9216842,22.8469708 24.5054503,21.7992515 25.4451462,21.2704561 C25.5709006,21.1996725 25.648,21.0659181 25.6462222,20.9216842 C25.6461287,20.9107368 25.6457544,20.899883 25.6453801,20.889076 C25.6451462,20.882807 25.6449123,20.8765848 25.6449123,20.8703626 C25.6449123,20.0482339 25.8875322,19.2714386 26.3465263,18.6240468 C26.4726082,18.4462222 26.4306433,18.1998596 26.2528655,18.0738713 C26.0750409,17.9477427 25.8286784,17.9898012 25.7026901,18.1675322 C25.1797895,18.9050292 24.8895439,19.7787135 24.8584795,20.7037661 C23.7881637,21.401731 23.1324444,22.6449123 23.1324444,24.0046316 C23.1324444,25.7732398 24.2552515,27.3138246 25.8289591,27.7446082 C26.4212865,28.8601637 27.4689591,29.5820819 28.6482807,29.6976374 L28.6482807,32.1066199 L28.3983158,32.1066199 C28.3401637,31.0737778 27.634152,30.1752515 26.6509942,29.8718596 C26.3425029,29.2155322 25.7432982,28.7396491 25.0386901,28.5853567 C24.8076725,27.5352982 23.8624094,26.7522807 22.7608889,26.7522807 C21.9114854,26.7522807 21.1412865,27.2087953 20.7307135,27.9354386 C19.922152,27.9661754 19.1951813,28.3981287 18.7775906,29.0673216 C18.5173333,28.351345 17.8506667,27.8300351 17.0701287,27.7739883 L17.0701287,26.7363743 C18.1355322,26.5882573 19.078924,25.9218713 19.6301287,24.9137778 C20.3623392,24.7446082 21.0273216,24.3198129 21.5196257,23.7026433 C22.0556725,23.0306901 22.3508772,22.171883 22.3508772,21.2844912 C22.3508772,19.9376842 21.6627368,18.6907602 20.5792749,18.0403275 C20.4617076,15.7941988 18.7283275,14.0047251 16.617731,14.0047251 C15.8081404,14.0047251 15.0294269,14.2658246 14.3657076,14.7599064 C14.190924,14.8900117 14.1546667,15.1373099 14.2847719,15.3121404 C14.4148772,15.486924 14.6621287,15.5231813 14.8370058,15.393076 C15.3634152,15.0011228 15.9791813,14.7940117 16.617731,14.7940117 C18.3670175,14.7940117 19.7928889,16.3564912 19.7962105,18.2770526 C19.7964912,18.4255906 19.8800936,18.5614035 20.0126316,18.6284912 C20.9535439,19.1047018 21.5614503,20.1472749 21.5614503,21.2844912 C21.5614503,22.7195789 20.5901287,23.9620117 19.3020351,24.1744561 C19.1752982,24.1954152 19.0666199,24.2766784 19.010807,24.3924678 C18.6110409,25.2214737 17.8915556,25.7841871 17.0700351,25.9367018 L17.0700351,22.6206784 L18.9241637,20.9157427 C19.0845848,20.7681871 19.0950175,20.5185497 18.9475088,20.3581287 C18.8,20.1976608 18.5503158,20.1871813 18.3898947,20.3347836 L17.0700351,21.5484444 L17.0700351,19.0645146 C17.0700351,18.8465497 16.8933333,18.669848 16.6753684,18.669848 C16.4574035,18.669848 16.2807018,18.8465497 16.2807018,19.0645146 L16.2807018,23.5992982 L14.9608889,22.3856374 C14.8004211,22.2380351 14.5507836,22.2485614 14.4032749,22.4089825 C14.2557193,22.5694035 14.2661988,22.8190877 14.4266199,22.9665965 L16.280655,24.6715322 L16.280655,25.9551813 C15.4031813,25.8351345 14.6305029,25.2512281 14.2143626,24.3708538 C14.161731,24.259462 14.0600702,24.1790409 13.9396023,24.1534971 C12.693614,23.888655 11.7892398,22.682152 11.7892398,21.2844912 C11.7892398,20.1822222 12.3447953,19.1847953 13.2391579,18.6814971 C13.3648187,18.6107602 13.4419181,18.4772398 13.4402339,18.3330526 C13.4401404,18.322386 13.4398129,18.3117193 13.4394386,18.3010994 C13.4392982,18.295345 13.4390175,18.2896374 13.4390175,18.2837895 C13.4390175,17.7956491 13.5289825,17.3236023 13.706386,16.8807953 C13.7591579,16.7492398 13.8199298,16.6200234 13.8871579,16.4966082 C13.9913918,16.3051696 13.9207485,16.0655439 13.7293099,15.9613099 C13.5378713,15.8569825 13.2981988,15.9276725 13.1940117,16.1191111 C13.1120936,16.2695673 13.0379883,16.4270409 12.9738012,16.5872281 C12.7793684,17.0724211 12.6716257,17.5855439 12.6527719,18.1149474 C11.6276959,18.7870877 11,19.9800702 11,21.2844912 C11,22.9825965 12.0768655,24.4623158 13.5869474,24.879345 C14.154807,25.9439064 15.1545263,26.6346199 16.2807018,26.7502222 L16.2807018,27.8790643 C15.8487953,28.0299883 15.4791579,28.3283743 15.2413567,28.7291696 C14.2829474,28.7836725 13.508538,29.4915088 13.3584561,30.4250292 C12.6516023,30.7389474 12.1260819,31.3615439 11.9325848,32.1065263 L11.3946667,32.1065263 C11.1767018,32.1065263 11,32.2832281 11,32.501193 C11,32.7191579 11.1767018,32.8958596 11.3946667,32.8958596 L12.2592281,32.8958596 L21.1684211,32.8958596 L27.9915789,32.8958596 L34.5473216,32.8958596 C34.7652865,32.8958596 34.9419883,32.7191579 34.9419883,32.501193 C34.9419883,32.2832281 34.7652398,32.1066199 34.5473216,32.1066199 Z M12.7603275,32.1066199 C12.9485848,31.6268538 13.3446082,31.2446784 13.8491228,31.0812632 C14.0078596,31.029848 14.1170994,30.8842105 14.1220117,30.7174737 C14.1418947,30.0432749 14.6859415,29.5151345 15.3606082,29.5151345 C15.3876491,29.5151345 15.4172164,29.5163977 15.4535673,29.5190643 C15.6226433,29.5312749 15.7808187,29.4347135 15.8464561,29.2783626 C16.0304094,28.8407485 16.4559064,28.5579415 16.9304795,28.5579415 C17.539883,28.5579415 18.0543158,29.0333567 18.1016608,29.6402807 C18.1168187,29.8340117 18.2706901,29.9879298 18.4644678,30.0030877 C18.5720702,30.011462 18.676117,30.0350877 18.7746433,30.0711111 C18.7750643,30.0712515 18.7754386,30.0714854 18.7758596,30.0716257 C18.794152,30.0783626 18.8121637,30.085614 18.8300351,30.093193 C18.8338713,30.0948304 18.8377544,30.0964678 18.8415906,30.098152 C18.8582924,30.1054035 18.874807,30.1130292 18.8910409,30.1210292 C18.8965614,30.1237895 18.9019883,30.1266433 18.907462,30.1294503 C18.9299649,30.1409591 18.952,30.1532164 18.973614,30.1660819 C18.9854035,30.1731462 18.9972865,30.1799766 19.0087953,30.187462 C19.0175439,30.193076 19.0259649,30.1991111 19.0344795,30.2048655 C19.0474386,30.2137076 19.0603041,30.2226901 19.0729357,30.2320468 C19.0800936,30.2373801 19.0871579,30.2427135 19.0941287,30.2481871 C19.1093801,30.2600702 19.1244444,30.2723275 19.1390877,30.2850058 C19.1431579,30.2884678 19.1472281,30.2917895 19.1512515,30.2952982 C19.1901287,30.329731 19.2267602,30.3668304 19.2608655,30.4062222 C19.264,30.4098713 19.2670877,30.4135205 19.2701754,30.4172164 C19.284538,30.4341988 19.298386,30.4516491 19.3118129,30.4694737 C19.314386,30.4728889 19.3170526,30.4762573 19.3195789,30.4797193 C19.3502222,30.5214503 19.378152,30.5654269 19.4032281,30.6113216 C19.4065497,30.6174035 19.4096842,30.6236257 19.4129591,30.6298012 C19.421848,30.6467836 19.4303158,30.6640936 19.4384094,30.6816374 C19.4416374,30.6885614 19.4448655,30.6954854 19.4479532,30.7024561 C19.4579181,30.725193 19.4673684,30.7482573 19.4759298,30.7716959 C19.4762573,30.772538 19.476538,30.7732865 19.4768655,30.7741287 C19.5231345,30.9019415 19.6319532,30.9969591 19.7648187,31.0255906 C19.8000936,31.0331696 19.8346667,31.0424327 19.8686784,31.0528655 C19.8797661,31.0562807 19.8905263,31.0604444 19.9015205,31.0641404 C19.9241637,31.0717193 19.9467135,31.0794386 19.9687485,31.0882339 C19.9814737,31.0933333 19.9938713,31.0990877 20.0063626,31.1045614 C20.0260585,31.1131696 20.0456608,31.1219181 20.0648421,31.131462 C20.0777544,31.1378713 20.0902924,31.1447953 20.102924,31.1516257 C20.121076,31.1614035 20.1390409,31.1715088 20.1565848,31.1821287 C20.169076,31.1896608 20.1813801,31.1974737 20.1935906,31.2054269 C20.2106199,31.2165146 20.2274152,31.2280702 20.243883,31.2399532 C20.2556257,31.2484211 20.2672281,31.2568889 20.2786433,31.265731 C20.2949708,31.2783626 20.3107836,31.2915088 20.3264561,31.3048421 C20.337076,31.3138713 20.3478363,31.3228538 20.3581754,31.3322105 C20.3742222,31.346807 20.3895673,31.3620117 20.4048655,31.3773099 C20.4138947,31.3863392 20.4232515,31.3951813 20.432,31.404538 C20.4492164,31.4228304 20.4654971,31.4419181 20.4816374,31.4610994 C20.4876257,31.4682573 20.4939883,31.4749942 20.4998363,31.4822456 C20.5213567,31.5090994 20.5418947,31.5367018 20.5612632,31.565193 C20.5653333,31.5711345 20.5688421,31.5774971 20.5727719,31.5834854 C20.5876959,31.6062222 20.6022456,31.629193 20.6157661,31.6528187 C20.621848,31.6635322 20.6273216,31.6746667 20.6331228,31.6855673 C20.6436023,31.7051228 20.6538947,31.7247251 20.6633918,31.7447953 C20.6692865,31.7572865 20.6745263,31.7700585 20.68,31.7826901 C20.6883275,31.8019181 20.6963743,31.8211462 20.7037661,31.8407953 C20.7088187,31.854269 20.7134503,31.867883 20.7180819,31.8815439 C20.7246784,31.9010058 20.7308538,31.9206082 20.7365614,31.9404444 C20.7405848,31.9544795 20.7443275,31.9686082 20.7479298,31.9827836 C20.7529357,32.0029006 20.7573333,32.0231579 20.7614035,32.0435556 C20.7642573,32.0577778 20.7670175,32.072 20.7694035,32.0864094 C20.7705263,32.0930994 20.7710877,32.099883 20.7720702,32.1066199 L12.7603275,32.1066199 L12.7603275,32.1066199 Z M21.5678596,32.1066667 L21.5678596,32.1066199 C21.5675322,32.1028772 21.5667368,32.0991813 21.5664561,32.0954854 C21.5619181,32.0483743 21.5560702,32.0015439 21.5483509,31.9552749 C21.547883,31.9525614 21.5472749,31.949848 21.546807,31.9471345 C21.5387602,31.8999298 21.5291696,31.853193 21.5179415,31.8069708 C21.5174737,31.8049591 21.5170994,31.8029474 21.5165848,31.8010292 C21.5053099,31.7552281 21.4922573,31.7100819 21.4780351,31.6654503 C21.4764912,31.6606784 21.4750877,31.6557661 21.4734971,31.6509942 C21.459462,31.6080468 21.4438363,31.5657544 21.4270409,31.5239298 C21.4246082,31.5178947 21.422269,31.5118129 21.4197895,31.5058246 C21.4029474,31.4648889 21.3847485,31.424655 21.3653801,31.3850292 C21.3623392,31.3787602 21.3592982,31.372538 21.3561637,31.3663158 C21.3364211,31.326924 21.3155556,31.2881871 21.2934737,31.2501988 C21.2901053,31.2444444 21.2867368,31.2387836 21.2833216,31.2330292 C21.2605848,31.1947135 21.2367719,31.1570994 21.2116491,31.1203743 C21.2086082,31.115883 21.2054269,31.1115322 21.2023392,31.1071345 C21.1761404,31.0694269 21.1489591,31.0324211 21.1204211,30.996538 C21.1186433,30.9942924 21.1167251,30.9921404 21.1149474,30.989848 C21.0850994,30.9526082 21.0541287,30.9163041 21.0218012,30.8811696 C21.0214269,30.8807953 21.0210994,30.8803743 21.0207719,30.88 C20.9887719,30.8452865 20.9554152,30.8117427 20.9211228,30.7791813 C20.9181287,30.7763275 20.9152281,30.7733801 20.9122339,30.7705731 C20.8792515,30.7396491 20.8450994,30.7098947 20.8101053,30.681076 C20.8054269,30.6772398 20.8007953,30.6733099 20.7960702,30.6694269 C20.7616374,30.6415906 20.726269,30.6148772 20.6900117,30.589193 C20.6843977,30.5852164 20.6787836,30.5812398 20.6731696,30.5773099 C20.6369591,30.5521404 20.5998596,30.5280936 20.5619649,30.5052164 C20.5560234,30.5016608 20.5500351,30.4981053 20.5440936,30.4945965 C20.5056842,30.4719064 20.4665731,30.4503392 20.4266667,30.4300819 C20.421193,30.4272749 20.4156257,30.4247018 20.4101053,30.4219883 C20.3689357,30.4016374 20.3271111,30.3823158 20.2843977,30.3646316 C20.2806082,30.3630409 20.2767719,30.3616842 20.2729825,30.3601404 C20.2282105,30.3419415 20.1827836,30.3249591 20.1364678,30.309848 C20.1363275,30.3098012 20.1361404,30.3097076 20.1359532,30.309614 C20.1339415,30.3055439 20.1316491,30.3017544 20.1296374,30.297731 C20.1136842,30.2657778 20.0969825,30.234386 20.0793918,30.2035088 C20.0704094,30.1877427 20.0608187,30.1723509 20.051462,30.1568187 C20.0400936,30.138152 20.0286316,30.1195322 20.0167018,30.1012398 C20.0052398,30.0836023 19.9934503,30.0662924 19.9813801,30.049076 C19.9709006,30.034152 19.9601404,30.019462 19.9492865,30.0048187 C19.9356257,29.9863392 19.9219181,29.9679532 19.9076023,29.9499883 C19.8991813,29.939462 19.8903392,29.9293567 19.881731,29.9190643 C19.8484678,29.8790643 19.8137076,29.8404678 19.7773567,29.8032281 C19.7710877,29.7968187 19.7650994,29.7901754 19.7587836,29.7838596 C19.7407251,29.7658947 19.7220585,29.7486784 19.703345,29.7314152 C19.692538,29.7214503 19.6817778,29.7115322 19.6707368,29.7018012 C19.6528655,29.6860819 19.6347135,29.6706433 19.6161871,29.6554854 C19.6027135,29.6444444 19.5890058,29.6338246 19.5752515,29.6231111 C19.5580819,29.6098713 19.5410526,29.5964912 19.5234152,29.5837661 C19.4986199,29.5658012 19.4732632,29.5486784 19.4476257,29.531883 C19.4407953,29.5273918 19.4342924,29.5224327 19.4273684,29.5180351 C19.7149942,29.0321404 20.2414971,28.7232281 20.8232047,28.7232281 C20.858807,28.7232281 20.8974503,28.7248655 20.9447953,28.7283275 C21.1136374,28.7409123 21.272,28.6439298 21.3376374,28.4876257 C21.5790877,27.9130292 22.1377778,27.5417544 22.7608889,27.5417544 C23.5610292,27.5417544 24.2364444,28.1660351 24.2985731,28.9629474 C24.3136842,29.1566784 24.4676023,29.3105965 24.6613801,29.3257076 C25.263345,29.3726316 25.7851696,29.7700585 25.9908304,30.3382456 C26.0370994,30.4660585 26.1459181,30.561076 26.2787836,30.5897076 C27.006924,30.7466199 27.5470877,31.3727719 27.6077661,32.106807 L21.5678596,32.106807 L21.5678596,32.1066667 Z" id="Shape" fill="#878787" fill-rule="nonzero"></path>
        </g>
    </g>
</svg>