<?xml version="1.0" encoding="UTF-8"?>
<svg width="48px" height="48px" viewBox="0 0 48 48" version="1.1" xmlns="http://www.w3.org/2000/svg" xmlns:xlink="http://www.w3.org/1999/xlink">
    <!-- Generator: Sketch 47.1 (45422) - http://www.bohemiancoding.com/sketch -->
    <title>Group 22</title>
    <desc>Created with Sketch.</desc>
    <defs></defs>
    <g id="Page-1" stroke="none" stroke-width="1" fill="none" fill-rule="evenodd">
        <g id="Group-22" transform="translate(1.000000, 1.000000)">
            <circle id="Oval-3" stroke="#E3E3E3" cx="23" cy="23" r="23"></circle>
            <g id="garden" transform="translate(11.000000, 14.000000)" fill-rule="nonzero" fill="#FFFFFF">
                <path d="M23.5473216,18.1066199 L18.4374737,18.1066199 L18.4374737,15.6836023 C19.5533099,15.5335205 20.542269,14.8366316 21.1173333,13.780117 C21.8813567,13.6054737 22.5754386,13.1631345 23.0888889,12.5194386 C23.646269,11.8206316 23.9532632,10.9275322 23.9532632,10.0046316 C23.9532632,8.60070175 23.234386,7.30128655 22.1032982,6.62633918 C21.9854503,4.2851462 20.1806784,2.41838596 17.9826433,2.41838596 C17.2907602,2.41838596 16.6061754,2.60669006 16.0029474,2.96294737 C15.8152515,3.07377778 15.7529357,3.31574269 15.8637661,3.50339181 C15.9746433,3.6911345 16.216655,3.75340351 16.4042573,3.6425731 C16.8860351,3.35803509 17.4318129,3.20767251 17.9826433,3.20767251 C19.8195088,3.20767251 21.3166784,4.84757895 21.3201404,6.86329825 C21.3204211,7.01183626 21.4040234,7.14764912 21.5365614,7.21473684 C22.525193,7.71508772 23.1639298,8.81015205 23.1639298,10.0045848 C23.1639298,11.5120468 22.1430643,12.8172164 20.7892398,13.0405146 C20.6624561,13.0614737 20.5538246,13.1427368 20.4980117,13.2585263 C20.0746199,14.1365614 19.309614,14.7301053 18.4374737,14.8846316 L18.4374737,11.3924678 L20.3797427,9.60640936 C20.5401637,9.4588538 20.5506433,9.20921637 20.4030877,9.04879532 C20.2554854,8.88837427 20.0058947,8.87784795 19.8454737,9.02545029 L18.4374737,10.3201871 L18.4374737,7.6857076 C18.4374737,7.46774269 18.2607719,7.29104094 18.042807,7.29104094 C17.8248421,7.29104094 17.6481404,7.46774269 17.6481404,7.6857076 L17.6481404,12.4623158 L16.2401404,11.1675789 C16.0797193,11.0199766 15.8300351,11.0305029 15.6825263,11.190924 C15.5349708,11.351345 15.5454503,11.6009825 15.7058713,11.748538 L17.6481871,13.5345965 L17.6481871,14.9031111 C16.7175673,14.7832047 15.8968421,14.1674386 15.4564678,13.2356959 C15.4038363,13.1243041 15.3021754,13.043883 15.1817076,13.0183392 C13.8721404,12.740117 12.9216842,11.4727018 12.9216842,10.0045848 C12.9216842,8.84697076 13.5054503,7.79925146 14.4451462,7.27045614 C14.5709006,7.19967251 14.648,7.06591813 14.6462222,6.92168421 C14.6461287,6.91073684 14.6457544,6.89988304 14.6453801,6.88907602 C14.6451462,6.88280702 14.6449123,6.8765848 14.6449123,6.87036257 C14.6449123,6.04823392 14.8875322,5.2714386 15.3465263,4.62404678 C15.4726082,4.44622222 15.4306433,4.19985965 15.2528655,4.07387135 C15.0750409,3.94774269 14.8286784,3.98980117 14.7026901,4.16753216 C14.1797895,4.90502924 13.8895439,5.77871345 13.8584795,6.70376608 C12.7881637,7.40173099 12.1324444,8.64491228 12.1324444,10.0046316 C12.1324444,11.7732398 13.2552515,13.3138246 14.8289591,13.7446082 C15.4212865,14.8601637 16.4689591,15.5820819 17.6482807,15.6976374 L17.6482807,18.1066199 L17.3983158,18.1066199 C17.3401637,17.0737778 16.634152,16.1752515 15.6509942,15.8718596 C15.3425029,15.2155322 14.7432982,14.7396491 14.0386901,14.5853567 C13.8076725,13.5352982 12.8624094,12.7522807 11.7608889,12.7522807 C10.9114854,12.7522807 10.1412865,13.2087953 9.73071345,13.9354386 C8.92215205,13.9661754 8.19518129,14.3981287 7.77759064,15.0673216 C7.51733333,14.351345 6.85066667,13.8300351 6.07012865,13.7739883 L6.07012865,12.7363743 C7.13553216,12.5882573 8.07892398,11.9218713 8.63012865,10.9137778 C9.36233918,10.7446082 10.0273216,10.3198129 10.5196257,9.70264327 C11.0556725,9.03069006 11.3508772,8.17188304 11.3508772,7.28449123 C11.3508772,5.93768421 10.6627368,4.69076023 9.57927485,4.04032749 C9.4617076,1.79419883 7.72832749,0.0047251462 5.61773099,0.0047251462 C4.80814035,0.0047251462 4.0294269,0.265824561 3.3657076,0.759906433 C3.19092398,0.890011696 3.15466667,1.13730994 3.28477193,1.31214035 C3.41487719,1.48692398 3.66212865,1.52318129 3.83700585,1.39307602 C4.3634152,1.00112281 4.97918129,0.794011696 5.61773099,0.794011696 C7.36701754,0.794011696 8.79288889,2.35649123 8.79621053,4.27705263 C8.79649123,4.42559064 8.88009357,4.56140351 9.01263158,4.62849123 C9.95354386,5.10470175 10.5614503,6.14727485 10.5614503,7.28449123 C10.5614503,8.71957895 9.59012865,9.9620117 8.30203509,10.1744561 C8.17529825,10.1954152 8.06661988,10.2766784 8.01080702,10.3924678 C7.61104094,11.2214737 6.89155556,11.7841871 6.07003509,11.9367018 L6.07003509,8.62067836 L7.92416374,6.91574269 C8.0845848,6.76818713 8.09501754,6.51854971 7.94750877,6.35812865 C7.8,6.19766082 7.55031579,6.18718129 7.38989474,6.33478363 L6.07003509,7.54844444 L6.07003509,5.06451462 C6.07003509,4.84654971 5.89333333,4.66984795 5.67536842,4.66984795 C5.45740351,4.66984795 5.28070175,4.84654971 5.28070175,5.06451462 L5.28070175,9.59929825 L3.96088889,8.38563743 C3.80042105,8.23803509 3.55078363,8.2485614 3.40327485,8.40898246 C3.2557193,8.56940351 3.26619883,8.81908772 3.42661988,8.96659649 L5.28065497,10.6715322 L5.28065497,11.9551813 C4.40318129,11.8351345 3.63050292,11.2512281 3.21436257,10.3708538 C3.16173099,10.259462 3.06007018,10.1790409 2.93960234,10.1534971 C1.69361404,9.88865497 0.789239766,8.68215205 0.789239766,7.28449123 C0.789239766,6.18222222 1.34479532,5.18479532 2.23915789,4.68149708 C2.36481871,4.61076023 2.44191813,4.47723977 2.44023392,4.33305263 C2.44014035,4.32238596 2.43981287,4.3117193 2.4394386,4.30109942 C2.43929825,4.29534503 2.43901754,4.28963743 2.43901754,4.28378947 C2.43901754,3.79564912 2.52898246,3.32360234 2.70638596,2.88079532 C2.75915789,2.74923977 2.81992982,2.62002339 2.88715789,2.49660819 C2.99139181,2.30516959 2.92074854,2.06554386 2.72930994,1.96130994 C2.53787135,1.85698246 2.29819883,1.92767251 2.1940117,2.11911111 C2.11209357,2.26956725 2.0379883,2.42704094 1.97380117,2.58722807 C1.77936842,3.07242105 1.67162573,3.58554386 1.65277193,4.11494737 C0.627695906,4.78708772 0,5.98007018 0,7.28449123 C0,8.98259649 1.0768655,10.4623158 2.58694737,10.879345 C3.15480702,11.9439064 4.15452632,12.6346199 5.28070175,12.7502222 L5.28070175,13.8790643 C4.84879532,14.0299883 4.47915789,14.3283743 4.24135673,14.7291696 C3.28294737,14.7836725 2.50853801,15.4915088 2.35845614,16.4250292 C1.65160234,16.7389474 1.12608187,17.3615439 0.932584795,18.1065263 L0.394666667,18.1065263 C0.176701754,18.1065263 0,18.2832281 0,18.501193 C0,18.7191579 0.176701754,18.8958596 0.394666667,18.8958596 L1.25922807,18.8958596 L10.1684211,18.8958596 L16.9915789,18.8958596 L23.5473216,18.8958596 C23.7652865,18.8958596 23.9419883,18.7191579 23.9419883,18.501193 C23.9419883,18.2832281 23.7652398,18.1066199 23.5473216,18.1066199 Z M1.76032749,18.1066199 C1.9485848,17.6268538 2.34460819,17.2446784 2.84912281,17.0812632 C3.00785965,17.029848 3.11709942,16.8842105 3.1220117,16.7174737 C3.14189474,16.0432749 3.68594152,15.5151345 4.36060819,15.5151345 C4.38764912,15.5151345 4.41721637,15.5163977 4.45356725,15.5190643 C4.62264327,15.5312749 4.78081871,15.4347135 4.84645614,15.2783626 C5.03040936,14.8407485 5.45590643,14.5579415 5.93047953,14.5579415 C6.53988304,14.5579415 7.05431579,15.0333567 7.10166082,15.6402807 C7.11681871,15.8340117 7.27069006,15.9879298 7.46446784,16.0030877 C7.57207018,16.011462 7.67611696,16.0350877 7.77464327,16.0711111 C7.77506433,16.0712515 7.7754386,16.0714854 7.77585965,16.0716257 C7.79415205,16.0783626 7.81216374,16.085614 7.83003509,16.093193 C7.83387135,16.0948304 7.83775439,16.0964678 7.84159064,16.098152 C7.8582924,16.1054035 7.87480702,16.1130292 7.89104094,16.1210292 C7.8965614,16.1237895 7.9019883,16.1266433 7.90746199,16.1294503 C7.92996491,16.1409591 7.952,16.1532164 7.97361404,16.1660819 C7.98540351,16.1731462 7.99728655,16.1799766 8.00879532,16.187462 C8.01754386,16.193076 8.02596491,16.1991111 8.03447953,16.2048655 C8.0474386,16.2137076 8.06030409,16.2226901 8.07293567,16.2320468 C8.08009357,16.2373801 8.08715789,16.2427135 8.09412865,16.2481871 C8.10938012,16.2600702 8.12444444,16.2723275 8.13908772,16.2850058 C8.14315789,16.2884678 8.14722807,16.2917895 8.15125146,16.2952982 C8.19012865,16.329731 8.22676023,16.3668304 8.2608655,16.4062222 C8.264,16.4098713 8.26708772,16.4135205 8.27017544,16.4172164 C8.28453801,16.4341988 8.29838596,16.4516491 8.31181287,16.4694737 C8.31438596,16.4728889 8.31705263,16.4762573 8.31957895,16.4797193 C8.35022222,16.5214503 8.37815205,16.5654269 8.40322807,16.6113216 C8.40654971,16.6174035 8.40968421,16.6236257 8.41295906,16.6298012 C8.42184795,16.6467836 8.43031579,16.6640936 8.43840936,16.6816374 C8.44163743,16.6885614 8.4448655,16.6954854 8.44795322,16.7024561 C8.45791813,16.725193 8.46736842,16.7482573 8.47592982,16.7716959 C8.47625731,16.772538 8.47653801,16.7732865 8.4768655,16.7741287 C8.5231345,16.9019415 8.63195322,16.9969591 8.76481871,17.0255906 C8.80009357,17.0331696 8.83466667,17.0424327 8.86867836,17.0528655 C8.87976608,17.0562807 8.89052632,17.0604444 8.90152047,17.0641404 C8.92416374,17.0717193 8.94671345,17.0794386 8.96874854,17.0882339 C8.98147368,17.0933333 8.99387135,17.0990877 9.00636257,17.1045614 C9.02605848,17.1131696 9.04566082,17.1219181 9.06484211,17.131462 C9.07775439,17.1378713 9.0902924,17.1447953 9.10292398,17.1516257 C9.12107602,17.1614035 9.13904094,17.1715088 9.1565848,17.1821287 C9.16907602,17.1896608 9.18138012,17.1974737 9.19359064,17.2054269 C9.21061988,17.2165146 9.2274152,17.2280702 9.24388304,17.2399532 C9.25562573,17.2484211 9.26722807,17.2568889 9.27864327,17.265731 C9.29497076,17.2783626 9.31078363,17.2915088 9.32645614,17.3048421 C9.33707602,17.3138713 9.34783626,17.3228538 9.35817544,17.3322105 C9.37422222,17.346807 9.38956725,17.3620117 9.4048655,17.3773099 C9.41389474,17.3863392 9.42325146,17.3951813 9.432,17.404538 C9.44921637,17.4228304 9.46549708,17.4419181 9.48163743,17.4610994 C9.48762573,17.4682573 9.4939883,17.4749942 9.49983626,17.4822456 C9.52135673,17.5090994 9.54189474,17.5367018 9.56126316,17.565193 C9.56533333,17.5711345 9.56884211,17.5774971 9.57277193,17.5834854 C9.58769591,17.6062222 9.60224561,17.629193 9.61576608,17.6528187 C9.62184795,17.6635322 9.62732164,17.6746667 9.63312281,17.6855673 C9.64360234,17.7051228 9.65389474,17.7247251 9.66339181,17.7447953 C9.66928655,17.7572865 9.67452632,17.7700585 9.68,17.7826901 C9.68832749,17.8019181 9.69637427,17.8211462 9.70376608,17.8407953 C9.70881871,17.854269 9.71345029,17.867883 9.71808187,17.8815439 C9.72467836,17.9010058 9.7308538,17.9206082 9.7365614,17.9404444 C9.7405848,17.9544795 9.74432749,17.9686082 9.74792982,17.9827836 C9.75293567,18.0029006 9.75733333,18.0231579 9.76140351,18.0435556 C9.76425731,18.0577778 9.76701754,18.072 9.76940351,18.0864094 C9.77052632,18.0930994 9.77108772,18.099883 9.77207018,18.1066199 L1.76032749,18.1066199 L1.76032749,18.1066199 Z M10.5678596,18.1066667 L10.5678596,18.1066199 C10.5675322,18.1028772 10.5667368,18.0991813 10.5664561,18.0954854 C10.5619181,18.0483743 10.5560702,18.0015439 10.5483509,17.9552749 C10.547883,17.9525614 10.5472749,17.949848 10.546807,17.9471345 C10.5387602,17.8999298 10.5291696,17.853193 10.5179415,17.8069708 C10.5174737,17.8049591 10.5170994,17.8029474 10.5165848,17.8010292 C10.5053099,17.7552281 10.4922573,17.7100819 10.4780351,17.6654503 C10.4764912,17.6606784 10.4750877,17.6557661 10.4734971,17.6509942 C10.459462,17.6080468 10.4438363,17.5657544 10.4270409,17.5239298 C10.4246082,17.5178947 10.422269,17.5118129 10.4197895,17.5058246 C10.4029474,17.4648889 10.3847485,17.424655 10.3653801,17.3850292 C10.3623392,17.3787602 10.3592982,17.372538 10.3561637,17.3663158 C10.3364211,17.326924 10.3155556,17.2881871 10.2934737,17.2501988 C10.2901053,17.2444444 10.2867368,17.2387836 10.2833216,17.2330292 C10.2605848,17.1947135 10.2367719,17.1570994 10.2116491,17.1203743 C10.2086082,17.115883 10.2054269,17.1115322 10.2023392,17.1071345 C10.1761404,17.0694269 10.1489591,17.0324211 10.1204211,16.996538 C10.1186433,16.9942924 10.1167251,16.9921404 10.1149474,16.989848 C10.0850994,16.9526082 10.0541287,16.9163041 10.0218012,16.8811696 C10.0214269,16.8807953 10.0210994,16.8803743 10.0207719,16.88 C9.98877193,16.8452865 9.9554152,16.8117427 9.92112281,16.7791813 C9.91812865,16.7763275 9.91522807,16.7733801 9.91223392,16.7705731 C9.87925146,16.7396491 9.84509942,16.7098947 9.81010526,16.681076 C9.8054269,16.6772398 9.80079532,16.6733099 9.79607018,16.6694269 C9.76163743,16.6415906 9.72626901,16.6148772 9.6900117,16.589193 C9.68439766,16.5852164 9.67878363,16.5812398 9.67316959,16.5773099 C9.63695906,16.5521404 9.59985965,16.5280936 9.56196491,16.5052164 C9.55602339,16.5016608 9.55003509,16.4981053 9.54409357,16.4945965 C9.50568421,16.4719064 9.4665731,16.4503392 9.42666667,16.4300819 C9.42119298,16.4272749 9.41562573,16.4247018 9.41010526,16.4219883 C9.36893567,16.4016374 9.32711111,16.3823158 9.28439766,16.3646316 C9.28060819,16.3630409 9.27677193,16.3616842 9.27298246,16.3601404 C9.22821053,16.3419415 9.18278363,16.3249591 9.13646784,16.309848 C9.13632749,16.3098012 9.13614035,16.3097076 9.13595322,16.309614 C9.13394152,16.3055439 9.13164912,16.3017544 9.12963743,16.297731 C9.11368421,16.2657778 9.09698246,16.234386 9.07939181,16.2035088 C9.07040936,16.1877427 9.06081871,16.1723509 9.05146199,16.1568187 C9.04009357,16.138152 9.02863158,16.1195322 9.01670175,16.1012398 C9.00523977,16.0836023 8.99345029,16.0662924 8.98138012,16.049076 C8.97090058,16.034152 8.96014035,16.019462 8.94928655,16.0048187 C8.93562573,15.9863392 8.92191813,15.9679532 8.90760234,15.9499883 C8.89918129,15.939462 8.89033918,15.9293567 8.88173099,15.9190643 C8.84846784,15.8790643 8.8137076,15.8404678 8.77735673,15.8032281 C8.77108772,15.7968187 8.76509942,15.7901754 8.75878363,15.7838596 C8.74072515,15.7658947 8.72205848,15.7486784 8.70334503,15.7314152 C8.69253801,15.7214503 8.68177778,15.7115322 8.67073684,15.7018012 C8.6528655,15.6860819 8.63471345,15.6706433 8.61618713,15.6554854 C8.60271345,15.6444444 8.58900585,15.6338246 8.57525146,15.6231111 C8.55808187,15.6098713 8.54105263,15.5964912 8.5234152,15.5837661 C8.49861988,15.5658012 8.47326316,15.5486784 8.44762573,15.531883 C8.44079532,15.5273918 8.4342924,15.5224327 8.42736842,15.5180351 C8.71499415,15.0321404 9.24149708,14.7232281 9.82320468,14.7232281 C9.85880702,14.7232281 9.89745029,14.7248655 9.94479532,14.7283275 C10.1136374,14.7409123 10.272,14.6439298 10.3376374,14.4876257 C10.5790877,13.9130292 11.1377778,13.5417544 11.7608889,13.5417544 C12.5610292,13.5417544 13.2364444,14.1660351 13.2985731,14.9629474 C13.3136842,15.1566784 13.4676023,15.3105965 13.6613801,15.3257076 C14.263345,15.3726316 14.7851696,15.7700585 14.9908304,16.3382456 C15.0370994,16.4660585 15.1459181,16.561076 15.2787836,16.5897076 C16.006924,16.7466199 16.5470877,17.3727719 16.6077661,18.106807 L10.5678596,18.106807 L10.5678596,18.1066667 Z" id="Shape"></path>
            </g>
        </g>
    </g>
</svg>