<?xml version="1.0" encoding="UTF-8"?>
<svg width="48px" height="48px" viewBox="0 0 48 48" version="1.1" xmlns="http://www.w3.org/2000/svg" xmlns:xlink="http://www.w3.org/1999/xlink">
    <!-- Generator: Sketch 47.1 (45422) - http://www.bohemiancoding.com/sketch -->
    <title>Group 42</title>
    <desc>Created with Sketch.</desc>
    <defs>
        <polygon id="path-1" points="9.49778413 24.4444444 18.7656508 24.4444444 18.7656508 0.0268888889 9.49778413 0.0268888889 0.22991746 0.0268888889 0.22991746 24.4444444"></polygon>
    </defs>
    <g id="Page-1" stroke="none" stroke-width="1" fill="none" fill-rule="evenodd">
        <g id="Group-42" transform="translate(1.000000, 1.000000)">
            <circle id="Oval-3" stroke="#E3E3E3" fill="#FFFFFF" cx="23" cy="23" r="23"></circle>
            <g id="Group-3" transform="translate(14.142857, 10.322387)">
                <mask id="mask-2" fill="white">
                    <use xlink:href="#path-1"></use>
                </mask>
                <g id="Clip-2"></g>
                <path d="M1.7943619,11.607619 L4.55902857,11.607619 C4.32925079,12.5892381 4.19306032,13.6599048 4.16756825,14.7888889 L1.01528254,14.7888889 C1.06626667,13.6571111 1.34109206,12.5829524 1.7943619,11.607619 L1.7943619,11.607619 Z M6.82852063,7.11612698 C5.94921905,7.98215873 5.23299683,9.26968254 4.76575873,10.832381 L2.20433016,10.832381 C3.24112381,9.09787302 4.87925079,7.76355556 6.82852063,7.11612698 L6.82852063,7.11612698 Z M9.11023492,6.71663492 L9.11023492,10.832381 L5.58150476,10.832381 C6.31553651,8.54542857 7.61039365,6.95339683 9.11023492,6.71663492 L9.11023492,6.71663492 Z M9.11023492,14.7888889 L4.94315556,14.7888889 C4.97039365,13.6567619 5.11810794,12.5826032 5.36150476,11.607619 L9.11023492,11.607619 L9.11023492,14.7888889 Z M9.11023492,19.282127 L5.50782222,19.282127 C5.1767746,18.1706032 4.97563175,16.907873 4.94280635,15.564127 L9.10988571,15.564127 L9.10988571,19.282127 L9.11023492,19.282127 Z M9.11023492,23.636381 C7.73121905,23.4184762 6.52575873,22.054127 5.76972698,20.0577143 L9.11023492,20.0577143 L9.11023492,23.636381 Z M2.55458413,20.0577143 L4.93861587,20.0577143 C5.40166349,21.3794603 6.0511873,22.4717778 6.82817143,23.2368889 C5.08598095,22.6579048 3.5927746,21.5299683 2.55458413,20.0577143 L2.55458413,20.0577143 Z M1.01528254,15.564127 L4.16756825,15.564127 C4.1976,16.9022857 4.38372698,18.1587302 4.69626667,19.2824762 L2.06709206,19.2824762 C1.45039365,18.1706032 1.07604444,16.907873 1.01528254,15.564127 L1.01528254,15.564127 Z M9.88547302,20.0577143 L13.2263302,20.0577143 C12.4702984,22.0544762 11.2648381,23.4188254 9.88547302,23.636381 L9.88547302,20.0577143 Z M9.88547302,15.564127 L14.0529016,15.564127 C14.0200762,16.907873 13.8189333,18.1706032 13.4878857,19.2824762 L9.88547302,19.2824762 L9.88547302,15.564127 Z M9.88547302,11.607619 L13.6345524,11.607619 C13.8779492,12.5826032 14.0253143,13.6567619 14.0529016,14.7888889 L9.88547302,14.7888889 L9.88547302,11.607619 Z M9.88547302,6.71663492 C11.3853143,6.95339683 12.6801714,8.54542857 13.4142032,10.832381 L9.88547302,10.832381 L9.88547302,6.71663492 Z M16.7913778,10.832381 L14.2302984,10.832381 C13.7627111,9.26968254 13.0468381,7.98215873 12.1675365,7.11612698 C14.1164571,7.76355556 15.7545841,9.09787302 16.7913778,10.832381 L16.7913778,10.832381 Z M17.9804254,14.7888889 L14.8284889,14.7888889 C14.8029968,13.660254 14.6668063,12.5892381 14.4370286,11.607619 L17.2016952,11.607619 C17.6546159,12.5829524 17.9294413,13.6571111 17.9804254,14.7888889 L17.9804254,14.7888889 Z M16.9286159,19.282127 L14.2997905,19.282127 C14.6123302,18.1587302 14.7981079,16.9022857 14.8284889,15.564127 L17.9804254,15.564127 C17.9196635,16.907873 17.5453143,18.1706032 16.9286159,19.282127 L16.9286159,19.282127 Z M12.1675365,23.2368889 C12.9441714,22.4717778 13.5940444,21.3791111 14.0570921,20.0577143 L16.4411238,20.0577143 C15.4029333,21.5299683 13.9100762,22.6579048 12.1675365,23.2368889 L12.1675365,23.2368889 Z M9.49785397,24.4444444 C14.6081397,24.4444444 18.7657905,20.2867937 18.7657905,15.1765079 C18.7657905,10.196127 14.8166159,6.12263492 9.88547302,5.91834921 L9.88547302,0.0268888889 L9.11023492,0.0268888889 L9.11023492,5.91834921 C4.17909206,6.12263492 0.22991746,10.196127 0.22991746,15.1765079 C0.22991746,20.2867937 4.38756825,24.4444444 9.49785397,24.4444444 L9.49785397,24.4444444 Z" id="Fill-1" fill="#878787" mask="url(#mask-2)"></path>
            </g>
            <path d="M15.2502603,17.6791873 C15.3260381,17.7549651 15.4252127,17.7926794 15.5243873,17.7926794 C15.6235619,17.7926794 15.7227365,17.7549651 15.7985143,17.6791873 C15.9497206,17.5276317 15.9497206,17.2821397 15.7985143,17.1309333 L13.779054,15.1118222 C13.6278476,14.9602667 13.3820063,14.9602667 13.2308,15.1118222 C13.0792444,15.2633778 13.0792444,15.5088698 13.2308,15.6600762 L15.2502603,17.6791873 Z" id="Fill-4" fill="#878787"></path>
            <path d="M14.2431492,20.886019 C14.4575619,20.886019 14.6307683,20.7124635 14.6307683,20.4984 C14.6307683,20.2839873 14.4572127,20.1104317 14.2431492,20.1104317 L11.3876889,20.1104317 C11.1736254,20.1104317 11.0000698,20.2839873 11.0000698,20.4984 C11.0000698,20.7124635 11.1736254,20.886019 11.3876889,20.886019 L14.2431492,20.886019 Z" id="Fill-6" fill="#878787"></path>
            <path d="M18.2296889,13.2685714 L18.2296889,16.1240317 C18.2296889,16.3380952 18.4035937,16.5116508 18.6173079,16.5116508 C18.8313714,16.5116508 19.0052762,16.3380952 19.0052762,16.1240317 L19.0052762,13.2685714 C19.0052762,13.0541587 18.8313714,12.8809524 18.6173079,12.8809524 C18.4035937,12.8809524 18.2296889,13.0541587 18.2296889,13.2685714" id="Fill-8" fill="#878787"></path>
        </g>
    </g>
</svg>