<?xml version="1.0" encoding="UTF-8"?>
<svg width="48px" height="48px" viewBox="0 0 48 48" version="1.1" xmlns="http://www.w3.org/2000/svg" xmlns:xlink="http://www.w3.org/1999/xlink">
    <!-- Generator: Sketch 47.1 (45422) - http://www.bohemiancoding.com/sketch -->
    <title>Group 24</title>
    <desc>Created with Sketch.</desc>
    <defs></defs>
    <g id="Page-1" stroke="none" stroke-width="1" fill="none" fill-rule="evenodd">
        <g id="Group-24" transform="translate(1.000000, 1.000000)">
            <circle id="Oval-3" stroke="#E3E3E3" cx="23" cy="23" r="23"></circle>
            <g id="relaxing" transform="translate(11.000000, 11.000000)" fill-rule="nonzero" fill="#FFFFFF">
                <path d="M3.34831504,20.1052411 L3.34831504,20.2090883 C3.34831504,20.4938234 3.11753699,20.7246014 2.83280191,20.7246014 C2.54806683,20.7246014 2.31728878,20.4938234 2.31728878,20.2090883 L2.31728878,20.1052411 C2.31728878,19.820506 2.54806683,19.5897279 2.83280191,19.5897279 C3.11753699,19.5897279 3.34831504,19.8205632 3.34831504,20.1052411 Z M3.78787589,11.7914463 C3.78787589,10.5502625 4.58193795,9.46333174 5.76383771,9.08683532 C5.86562291,9.05441527 5.97496897,9.05441527 6.07675418,9.08683532 C7.2587685,9.46333174 8.05288783,10.5502053 8.05288783,11.7914463 C8.05288783,13.0325728 7.2587685,14.1194463 6.07675418,14.496 C6.02583294,14.51221 5.97302148,14.5203437 5.9202673,14.5203437 C5.86745585,14.5203437 5.81464439,14.51221 5.76378043,14.496 C4.58193795,14.119389 3.78787589,13.0325728 3.78787589,11.7914463 Z M4.81890215,11.7914463 C4.81890215,12.5256516 5.25519809,13.1750835 5.92032458,13.4558663 C6.58556563,13.1751408 7.02186158,12.5257088 7.02186158,11.7914463 C7.02186158,11.0571265 6.58556563,10.4076945 5.92032458,10.126969 C5.25514081,10.4077518 4.81890215,11.0571265 4.81890215,11.7914463 Z M14.5132411,4.43140811 C14.7598854,4.57409069 15.0750358,4.48971838 15.2176038,4.24336038 C15.6991504,3.41092124 16.4667494,2.83812888 17.2985012,2.68043914 C17.9019952,3.15224821 18.3024344,3.89853938 18.4069117,4.75812888 C18.4387017,5.01960859 18.6611169,5.21149403 18.9180143,5.21149403 C18.9387494,5.21149403 18.9597709,5.21029117 18.9809069,5.2077136 C19.2635227,5.17334606 19.4648019,4.91639141 19.4304916,4.63371838 C19.2810501,3.40376134 18.6561337,2.33842482 17.7161241,1.71087351 C17.614969,1.64334129 17.4932506,1.61367064 17.3723914,1.62736038 C16.1452411,1.76505967 15.0060716,2.54995704 14.3252506,3.72704535 C14.1826253,3.9735179 14.2668258,4.2888401 14.5132411,4.43140811 Z M5.64945107,7.79908353 C5.7343389,7.85212411 5.82873508,7.87738425 5.92198568,7.87738425 C6.09388067,7.87738425 6.26199523,7.79146539 6.35977088,7.63492124 C6.51058711,7.3933747 6.43709785,7.07536038 6.19555131,6.92460143 C5.46799045,6.47020525 5.70999523,5.69046301 6.39264916,4.14088783 C6.69806205,3.44769451 7.0137852,2.73095943 7.09706921,2.0612506 C7.20584248,1.18694033 6.90254893,0.519809069 6.19555131,0.078300716 C5.95417661,-0.0724009547 5.63610501,0.000973747017 5.4852315,0.242463007 C5.33441527,0.484009547 5.40790453,0.802023866 5.64945107,0.952782816 C6.37116945,1.40351313 6.12956563,2.18056325 5.44914558,3.72515513 C5.14310263,4.41989499 4.82657757,5.13829117 4.74346539,5.81011933 C4.63497852,6.68672076 4.93976134,7.3558568 5.64945107,7.79908353 Z M13.5014033,13.3831217 L13.3307685,13.8376897 C13.2307017,14.10421 13.3655943,14.401432 13.6322291,14.5014988 C13.6919141,14.5239523 13.7530883,14.5344916 13.8133461,14.5344916 C14.021957,14.5344916 14.2183675,14.4068735 14.2960382,14.2000382 L14.466673,13.7454702 C14.5667399,13.4789499 14.4318473,13.1817279 14.1652124,13.0816611 C13.8989212,12.9815943 13.6014702,13.1165442 13.5014033,13.3831217 Z M11.8106348,14.1905298 L11.8106348,21.9240286 C11.8108067,21.9291265 11.810864,21.9342243 11.810864,21.9393795 C11.810864,23.5634749 8.10810501,23.9968496 5.9202673,23.9968496 C3.73242959,23.9968496 0.0297852029,23.5634177 0.0297852029,21.9393222 C0.0297852029,21.9357136 0.0297852029,21.9319905 0.0298997613,21.9283819 L0.0298997613,14.1842864 C0.0298424821,14.1791885 0.0297852029,14.1738616 0.0297852029,14.1687637 C0.0297852029,13.3871313 0.878491647,12.8051169 2.55242005,12.4387589 C2.83045346,12.3779284 3.10533652,12.5540048 3.16622434,12.8321527 C3.22711217,13.1102434 3.05097852,13.3850692 2.77283055,13.445957 C1.52442959,13.7192363 1.12588067,14.0646874 1.06568019,14.1689928 C1.12152745,14.2695179 1.45317422,14.5539093 2.42858234,14.8093174 C3.37907399,15.0581957 4.61911217,15.1952076 5.9202673,15.1952076 C7.22147971,15.1952076 8.46157518,15.0581384 9.41206683,14.8093174 C10.3874177,14.5539666 10.7190644,14.2695752 10.7749117,14.1690501 C10.7146539,14.0646874 10.3160477,13.719179 9.06770406,13.445957 C8.78961337,13.3850692 8.61347971,13.1102434 8.67436754,12.8320955 C8.73525537,12.5540048 9.01008115,12.3779857 9.28822912,12.4387589 C10.9621002,12.8051742 11.810864,13.3873031 11.810864,14.1687637 C11.810864,14.1759809 11.8108067,14.1833699 11.8106348,14.1905298 Z M10.7796086,15.419284 C9.52175656,16.0326301 7.38260621,16.2262339 5.9202673,16.2262339 C5.1707685,16.2262339 4.24364678,16.1753699 3.34831504,16.0432267 L3.34831504,18.460926 C3.34831504,18.7456611 3.11753699,18.9764391 2.83280191,18.9764391 C2.54806683,18.9764391 2.31728878,18.7456611 2.31728878,18.460926 L2.31728878,15.8471599 C1.85086396,15.7352363 1.41995227,15.5943294 1.06086874,15.4192267 L1.06086874,21.9299284 C1.0995895,22.0206587 1.41978043,22.3157613 2.42846778,22.5798759 C3.37895943,22.8287542 4.61899761,22.9657661 5.92021002,22.9657661 C7.22147971,22.9657661 8.46157518,22.8286969 9.41206683,22.5798759 C10.4197804,22.3160477 10.740315,22.0212315 10.7795513,21.9302148 L10.7795513,15.419284 L10.7796086,15.419284 Z M21.7474368,16.4863962 C21.4946062,16.6172792 21.3957422,16.9283628 21.5266826,17.1811933 C21.9778138,18.0525823 22.0428258,19.0242673 21.7114654,19.8202768 C21.0471408,20.0434368 20.2700334,19.9985298 19.5484296,19.6899093 C19.2869499,19.5779857 18.9837136,19.6993604 18.8717327,19.9610692 C18.7597518,20.222778 18.8811265,20.5257852 19.1428926,20.6377661 C19.6915131,20.8725537 20.2688878,20.9902625 20.832401,20.9902625 C21.3408115,20.9902625 21.8379379,20.8943198 22.2921623,20.7019189 C22.4041432,20.6544916 22.4957327,20.569031 22.550778,20.4605442 C23.1195609,19.3400477 23.0790072,17.9368783 22.4422339,16.7071504 C22.3113508,16.4543198 22.0003246,16.3554558 21.7474368,16.4863962 Z M15.0433031,12.7351217 C14.9432363,13.001642 15.0781289,13.2989212 15.3447064,13.3989881 L15.7364964,13.5460811 C15.7962387,13.5685346 15.8574129,13.579074 15.9176706,13.579074 C16.1262816,13.579074 16.3226348,13.4514558 16.4003628,13.2446778 C16.5004296,12.9781575 16.365537,12.6808783 16.0989594,12.5808115 L15.7071695,12.4337184 C15.4406492,12.3337661 15.1434845,12.4686014 15.0433031,12.7351217 Z M19.5956277,18.3082196 C19.7996563,18.5067494 20.1260907,18.5021671 20.3246205,18.2981384 C20.5231504,18.0940525 20.5186253,17.7676754 20.3145394,17.5691456 L19.0484391,16.3375847 C19.1145394,16.3394749 19.1806969,16.3404487 19.2470263,16.3404487 C20.6500239,16.3403341 22.0783962,15.9111408 22.9379857,14.8340048 C23.0316945,14.7166396 23.0694988,14.5642768 23.0416611,14.4167255 C22.7288019,12.7607828 21.2103294,11.563074 19.6338902,10.9783675 C20.6566683,9.64141289 21.3061002,7.81901671 20.6938425,6.25695465 C20.6390835,6.11713604 20.5260143,6.00813365 20.3843055,5.95852983 C19.1733079,5.53437709 17.8405346,5.85061575 16.701136,6.50021957 L17.1665298,5.37920764 C17.2756468,5.11623866 17.1510072,4.81460621 16.8880955,4.7053747 C16.6247828,4.59631504 16.3234368,4.72089737 16.2142625,4.98386635 L15.4922005,6.72320764 C14.8062816,5.3517136 13.6427112,4.13836754 12.1437709,3.91182816 C11.9953604,3.88954654 11.8443723,3.93279236 11.7305585,4.03073986 C10.4588449,5.12465871 10.1797232,7.03692601 10.457642,8.69590453 C9.82499284,8.60906921 9.19864439,8.61204773 8.5873031,8.70547017 C8.30583294,8.74842959 8.11257279,9.01145585 8.15553222,9.29292601 C8.19854893,9.57439618 8.46163246,9.76754177 8.74298807,9.72463962 C9.47495943,9.61283055 10.2369451,9.65607637 11.0077518,9.8532315 C11.1870931,9.89928401 11.377432,9.84521241 11.5061384,9.71215274 C11.6348449,9.5790358 11.6822721,9.3870358 11.6303771,9.20929833 C11.2336038,7.85092124 11.2680286,5.99908353 12.2276277,4.98008592 C13.5871504,5.33326969 14.5976134,6.87969451 14.9790931,8.23887351 C14.9827589,8.25250597 14.9870549,8.26602387 14.9918663,8.27931265 C14.9919236,8.27948449 14.9919809,8.27965632 14.9920382,8.27982816 C14.9920382,8.27994272 14.9920955,8.28005728 14.9921527,8.28022912 C14.9997136,8.30107876 15.0085919,8.32135561 15.0186158,8.34088783 C15.018673,8.34094511 15.018673,8.34100239 15.0187303,8.34105967 C15.0188449,8.34128878 15.0189594,8.3415179 15.019074,8.34168974 C15.0691933,8.43866348 15.1501862,8.52034368 15.2553508,8.57023389 C15.2690406,8.57676372 15.2831313,8.58277804 15.2974511,8.58810501 C15.2976229,8.58816229 15.2976802,8.58816229 15.297852,8.58821957 C15.4180239,8.6328401 15.5450692,8.62968974 15.6573938,8.58764678 C15.6575656,8.5875895 15.6576802,8.5875895 15.657852,8.58753222 C15.6580239,8.58741766 15.658253,8.58736038 15.6584248,8.5873031 C15.6756086,8.58083055 15.6924487,8.57349881 15.7088305,8.56519332 C15.7090024,8.56507876 15.7092315,8.56502148 15.7094033,8.56490692 C15.7095179,8.56484964 15.7096325,8.56479236 15.7098043,8.5646778 C15.7650215,8.53678282 15.8154272,8.49886396 15.8579284,8.45223866 C16.8345394,7.4322673 18.4494129,6.5418043 19.8105394,6.86354177 C20.1813652,8.21235322 19.3454893,9.8653747 18.359599,10.8808783 C18.2306062,11.0137088 18.182778,11.205537 18.2342721,11.3833317 C18.2857661,11.5611265 18.4286778,11.6977375 18.6086492,11.7410979 C19.9822053,12.0722864 21.5680382,13.0262721 21.9711695,14.3723914 C20.984821,15.3739761 19.1369928,15.475074 17.76842,15.1246969 C17.5893079,15.0787589 17.3987399,15.1326014 17.2700334,15.2657757 C17.1412697,15.3988926 17.0938425,15.5908926 17.1457947,15.7686301 C17.1514654,15.788105 17.1570788,15.8078091 17.1625776,15.8273986 C17.1658425,15.8413174 17.1696229,15.8551217 17.1739761,15.8688115 C17.5402768,17.2167637 17.4846587,19.0037041 16.5484296,19.9978425 C15.1876468,19.6442005 14.1764391,18.094568 13.7957041,16.7342434 C13.7190072,16.460105 13.4347876,16.3002387 13.1603055,16.3767637 C12.8861671,16.4535179 12.7260716,16.7379666 12.8028258,17.0121623 C13.308315,18.8182912 14.688401,20.772315 16.6321718,21.0661002 C16.6578902,21.0699952 16.6836086,21.0719427 16.7092697,21.0719427 C16.83179,21.0719427 16.9513317,21.0282387 17.0454415,20.9472458 C18.098463,20.0414893 18.4710072,18.5745107 18.4102339,17.1549594 L19.5956277,18.3082196 Z M15.1431981,10.4766587 C14.8767924,10.3765919 14.5794558,10.5116563 14.4795036,10.7783484 L14.3574988,11.1036945 C14.2575465,11.3702721 14.3925537,11.6674368 14.6591885,11.767389 C14.7188162,11.7897852 14.7799332,11.8003246 14.8401337,11.8003246 C15.0488592,11.8003246 15.2452697,11.6726492 15.3228831,11.4656993 L15.4448878,11.1403532 C15.5448401,10.8737184 15.4097757,10.576611 15.1431981,10.4766587 Z M13.2498329,12.577432 C13.4584439,12.577432 13.6547971,12.4498138 13.7325251,12.2429785 C13.8325919,11.9765155 13.6976993,11.6792363 13.4311217,11.5791122 L13.0392745,11.4319618 C12.7730406,11.331895 12.4755895,11.4667876 12.3754081,11.7333652 C12.2753413,11.9998282 12.4102339,12.2971074 12.6768115,12.3971742 L13.0686587,12.5443819 C13.1283437,12.5668353 13.1896325,12.577432 13.2498329,12.577432 Z" id="XMLID_1773_"></path>
            </g>
        </g>
    </g>
</svg>