<?xml version="1.0" encoding="UTF-8"?>
<svg width="48px" height="48px" viewBox="0 0 48 48" version="1.1" xmlns="http://www.w3.org/2000/svg" xmlns:xlink="http://www.w3.org/1999/xlink">
    <!-- Generator: Sketch 47.1 (45422) - http://www.bohemiancoding.com/sketch -->
    <title>Group 53</title>
    <desc>Created with Sketch.</desc>
    <defs></defs>
    <g id="Page-1" stroke="none" stroke-width="1" fill="none" fill-rule="evenodd">
        <g id="Group-53" transform="translate(1.000000, 1.000000)">
            <circle id="Oval-3" stroke="#E3E3E3" fill="#FFFFFF" cx="23" cy="23" r="23"></circle>
            <path d="M14.348315,31.1052411 L14.348315,31.2090883 C14.348315,31.4938234 14.117537,31.7246014 13.8328019,31.7246014 C13.5480668,31.7246014 13.3172888,31.4938234 13.3172888,31.2090883 L13.3172888,31.1052411 C13.3172888,30.820506 13.5480668,30.5897279 13.8328019,30.5897279 C14.117537,30.5897279 14.348315,30.8205632 14.348315,31.1052411 Z M14.7878759,22.7914463 C14.7878759,21.5502625 15.5819379,20.4633317 16.7638377,20.0868353 C16.8656229,20.0544153 16.974969,20.0544153 17.0767542,20.0868353 C18.2587685,20.4633317 19.0528878,21.5502053 19.0528878,22.7914463 C19.0528878,24.0325728 18.2587685,25.1194463 17.0767542,25.496 C17.0258329,25.51221 16.9730215,25.5203437 16.9202673,25.5203437 C16.8674558,25.5203437 16.8146444,25.51221 16.7637804,25.496 C15.5819379,25.119389 14.7878759,24.0325728 14.7878759,22.7914463 Z M15.8189021,22.7914463 C15.8189021,23.5256516 16.2551981,24.1750835 16.9203246,24.4558663 C17.5855656,24.1751408 18.0218616,23.5257088 18.0218616,22.7914463 C18.0218616,22.0571265 17.5855656,21.4076945 16.9203246,21.126969 C16.2551408,21.4077518 15.8189021,22.0571265 15.8189021,22.7914463 Z M25.5132411,15.4314081 C25.7598854,15.5740907 26.0750358,15.4897184 26.2176038,15.2433604 C26.6991504,14.4109212 27.4667494,13.8381289 28.2985012,13.6804391 C28.9019952,14.1522482 29.3024344,14.8985394 29.4069117,15.7581289 C29.4387017,16.0196086 29.6611169,16.211494 29.9180143,16.211494 C29.9387494,16.211494 29.9597709,16.2102912 29.9809069,16.2077136 C30.2635227,16.1733461 30.4648019,15.9163914 30.4304916,15.6337184 C30.2810501,14.4037613 29.6561337,13.3384248 28.7161241,12.7108735 C28.614969,12.6433413 28.4932506,12.6136706 28.3723914,12.6273604 C27.1452411,12.7650597 26.0060716,13.549957 25.3252506,14.7270453 C25.1826253,14.9735179 25.2668258,15.2888401 25.5132411,15.4314081 Z M16.6494511,18.7990835 C16.7343389,18.8521241 16.8287351,18.8773842 16.9219857,18.8773842 C17.0938807,18.8773842 17.2619952,18.7914654 17.3597709,18.6349212 C17.5105871,18.3933747 17.4370979,18.0753604 17.1955513,17.9246014 C16.4679905,17.4702053 16.7099952,16.690463 17.3926492,15.1408878 C17.6980621,14.4476945 18.0137852,13.7309594 18.0970692,13.0612506 C18.2058425,12.1869403 17.9025489,11.5198091 17.1955513,11.0783007 C16.9541766,10.927599 16.636105,11.0009737 16.4852315,11.242463 C16.3344153,11.4840095 16.4079045,11.8020239 16.6494511,11.9527828 C17.3711695,12.4035131 17.1295656,13.1805632 16.4491456,14.7251551 C16.1431026,15.419895 15.8265776,16.1382912 15.7434654,16.8101193 C15.6349785,17.6867208 15.9397613,18.3558568 16.6494511,18.7990835 Z M24.5014033,24.3831217 L24.3307685,24.8376897 C24.2307017,25.10421 24.3655943,25.401432 24.6322291,25.5014988 C24.6919141,25.5239523 24.7530883,25.5344916 24.8133461,25.5344916 C25.021957,25.5344916 25.2183675,25.4068735 25.2960382,25.2000382 L25.466673,24.7454702 C25.5667399,24.4789499 25.4318473,24.1817279 25.1652124,24.0816611 C24.8989212,23.9815943 24.6014702,24.1165442 24.5014033,24.3831217 Z M22.8106348,25.1905298 L22.8106348,32.9240286 C22.8108067,32.9291265 22.810864,32.9342243 22.810864,32.9393795 C22.810864,34.5634749 19.108105,34.9968496 16.9202673,34.9968496 C14.7324296,34.9968496 11.0297852,34.5634177 11.0297852,32.9393222 C11.0297852,32.9357136 11.0297852,32.9319905 11.0298998,32.9283819 L11.0298998,25.1842864 C11.0298425,25.1791885 11.0297852,25.1738616 11.0297852,25.1687637 C11.0297852,24.3871313 11.8784916,23.8051169 13.55242,23.4387589 C13.8304535,23.3779284 14.1053365,23.5540048 14.1662243,23.8321527 C14.2271122,24.1102434 14.0509785,24.3850692 13.7728305,24.445957 C12.5244296,24.7192363 12.1258807,25.0646874 12.0656802,25.1689928 C12.1215274,25.2695179 12.4531742,25.5539093 13.4285823,25.8093174 C14.379074,26.0581957 15.6191122,26.1952076 16.9202673,26.1952076 C18.2214797,26.1952076 19.4615752,26.0581384 20.4120668,25.8093174 C21.3874177,25.5539666 21.7190644,25.2695752 21.7749117,25.1690501 C21.7146539,25.0646874 21.3160477,24.719179 20.0677041,24.445957 C19.7896134,24.3850692 19.6134797,24.1102434 19.6743675,23.8320955 C19.7352554,23.5540048 20.0100811,23.3779857 20.2882291,23.4387589 C21.9621002,23.8051742 22.810864,24.3873031 22.810864,25.1687637 C22.810864,25.1759809 22.8108067,25.1833699 22.8106348,25.1905298 Z M21.7796086,26.419284 C20.5217566,27.0326301 18.3826062,27.2262339 16.9202673,27.2262339 C16.1707685,27.2262339 15.2436468,27.1753699 14.348315,27.0432267 L14.348315,29.460926 C14.348315,29.7456611 14.117537,29.9764391 13.8328019,29.9764391 C13.5480668,29.9764391 13.3172888,29.7456611 13.3172888,29.460926 L13.3172888,26.8471599 C12.850864,26.7352363 12.4199523,26.5943294 12.0608687,26.4192267 L12.0608687,32.9299284 C12.0995895,33.0206587 12.4197804,33.3157613 13.4284678,33.5798759 C14.3789594,33.8287542 15.6189976,33.9657661 16.92021,33.9657661 C18.2214797,33.9657661 19.4615752,33.8286969 20.4120668,33.5798759 C21.4197804,33.3160477 21.740315,33.0212315 21.7795513,32.9302148 L21.7795513,26.419284 L21.7796086,26.419284 Z M32.7474368,27.4863962 C32.4946062,27.6172792 32.3957422,27.9283628 32.5266826,28.1811933 C32.9778138,29.0525823 33.0428258,30.0242673 32.7114654,30.8202768 C32.0471408,31.0434368 31.2700334,30.9985298 30.5484296,30.6899093 C30.2869499,30.5779857 29.9837136,30.6993604 29.8717327,30.9610692 C29.7597518,31.222778 29.8811265,31.5257852 30.1428926,31.6377661 C30.6915131,31.8725537 31.2688878,31.9902625 31.832401,31.9902625 C32.3408115,31.9902625 32.8379379,31.8943198 33.2921623,31.7019189 C33.4041432,31.6544916 33.4957327,31.569031 33.550778,31.4605442 C34.1195609,30.3400477 34.0790072,28.9368783 33.4422339,27.7071504 C33.3113508,27.4543198 33.0003246,27.3554558 32.7474368,27.4863962 Z M26.0433031,23.7351217 C25.9432363,24.001642 26.0781289,24.2989212 26.3447064,24.3989881 L26.7364964,24.5460811 C26.7962387,24.5685346 26.8574129,24.579074 26.9176706,24.579074 C27.1262816,24.579074 27.3226348,24.4514558 27.4003628,24.2446778 C27.5004296,23.9781575 27.365537,23.6808783 27.0989594,23.5808115 L26.7071695,23.4337184 C26.4406492,23.3337661 26.1434845,23.4686014 26.0433031,23.7351217 Z M30.5956277,29.3082196 C30.7996563,29.5067494 31.1260907,29.5021671 31.3246205,29.2981384 C31.5231504,29.0940525 31.5186253,28.7676754 31.3145394,28.5691456 L30.0484391,27.3375847 C30.1145394,27.3394749 30.1806969,27.3404487 30.2470263,27.3404487 C31.6500239,27.3403341 33.0783962,26.9111408 33.9379857,25.8340048 C34.0316945,25.7166396 34.0694988,25.5642768 34.0416611,25.4167255 C33.7288019,23.7607828 32.2103294,22.563074 30.6338902,21.9783675 C31.6566683,20.6414129 32.3061002,18.8190167 31.6938425,17.2569547 C31.6390835,17.117136 31.5260143,17.0081337 31.3843055,16.9585298 C30.1733079,16.5343771 28.8405346,16.8506158 27.701136,17.5002196 L28.1665298,16.3792076 C28.2756468,16.1162387 28.1510072,15.8146062 27.8880955,15.7053747 C27.6247828,15.596315 27.3234368,15.7208974 27.2142625,15.9838663 L26.4922005,17.7232076 C25.8062816,16.3517136 24.6427112,15.1383675 23.1437709,14.9118282 C22.9953604,14.8895465 22.8443723,14.9327924 22.7305585,15.0307399 C21.4588449,16.1246587 21.1797232,18.036926 21.457642,19.6959045 C20.8249928,19.6090692 20.1986444,19.6120477 19.5873031,19.7054702 C19.3058329,19.7484296 19.1125728,20.0114558 19.1555322,20.292926 C19.1985489,20.5743962 19.4616325,20.7675418 19.7429881,20.7246396 C20.4749594,20.6128305 21.2369451,20.6560764 22.0077518,20.8532315 C22.1870931,20.899284 22.377432,20.8452124 22.5061384,20.7121527 C22.6348449,20.5790358 22.6822721,20.3870358 22.6303771,20.2092983 C22.2336038,18.8509212 22.2680286,16.9990835 23.2276277,15.9800859 C24.5871504,16.3332697 25.5976134,17.8796945 25.9790931,19.2388735 C25.9827589,19.252506 25.9870549,19.2660239 25.9918663,19.2793126 C25.9919236,19.2794845 25.9919809,19.2796563 25.9920382,19.2798282 C25.9920382,19.2799427 25.9920955,19.2800573 25.9921527,19.2802291 C25.9997136,19.3010788 26.0085919,19.3213556 26.0186158,19.3408878 C26.018673,19.3409451 26.018673,19.3410024 26.0187303,19.3410597 C26.0188449,19.3412888 26.0189594,19.3415179 26.019074,19.3416897 C26.0691933,19.4386635 26.1501862,19.5203437 26.2553508,19.5702339 C26.2690406,19.5767637 26.2831313,19.582778 26.2974511,19.588105 C26.2976229,19.5881623 26.2976802,19.5881623 26.297852,19.5882196 C26.4180239,19.6328401 26.5450692,19.6296897 26.6573938,19.5876468 C26.6575656,19.5875895 26.6576802,19.5875895 26.657852,19.5875322 C26.6580239,19.5874177 26.658253,19.5873604 26.6584248,19.5873031 C26.6756086,19.5808305 26.6924487,19.5734988 26.7088305,19.5651933 C26.7090024,19.5650788 26.7092315,19.5650215 26.7094033,19.5649069 C26.7095179,19.5648496 26.7096325,19.5647924 26.7098043,19.5646778 C26.7650215,19.5367828 26.8154272,19.498864 26.8579284,19.4522387 C27.8345394,18.4322673 29.4494129,17.5418043 30.8105394,17.8635418 C31.1813652,19.2123532 30.3454893,20.8653747 29.359599,21.8808783 C29.2306062,22.0137088 29.182778,22.205537 29.2342721,22.3833317 C29.2857661,22.5611265 29.4286778,22.6977375 29.6086492,22.7410979 C30.9822053,23.0722864 32.5680382,24.0262721 32.9711695,25.3723914 C31.984821,26.3739761 30.1369928,26.475074 28.76842,26.1246969 C28.5893079,26.0787589 28.3987399,26.1326014 28.2700334,26.2657757 C28.1412697,26.3988926 28.0938425,26.5908926 28.1457947,26.7686301 C28.1514654,26.788105 28.1570788,26.8078091 28.1625776,26.8273986 C28.1658425,26.8413174 28.1696229,26.8551217 28.1739761,26.8688115 C28.5402768,28.2167637 28.4846587,30.0037041 27.5484296,30.9978425 C26.1876468,30.6442005 25.1764391,29.094568 24.7957041,27.7342434 C24.7190072,27.460105 24.4347876,27.3002387 24.1603055,27.3767637 C23.8861671,27.4535179 23.7260716,27.7379666 23.8028258,28.0121623 C24.308315,29.8182912 25.688401,31.772315 27.6321718,32.0661002 C27.6578902,32.0699952 27.6836086,32.0719427 27.7092697,32.0719427 C27.83179,32.0719427 27.9513317,32.0282387 28.0454415,31.9472458 C29.098463,31.0414893 29.4710072,29.5745107 29.4102339,28.1549594 L30.5956277,29.3082196 Z M26.1431981,21.4766587 C25.8767924,21.3765919 25.5794558,21.5116563 25.4795036,21.7783484 L25.3574988,22.1036945 C25.2575465,22.3702721 25.3925537,22.6674368 25.6591885,22.767389 C25.7188162,22.7897852 25.7799332,22.8003246 25.8401337,22.8003246 C26.0488592,22.8003246 26.2452697,22.6726492 26.3228831,22.4656993 L26.4448878,22.1403532 C26.5448401,21.8737184 26.4097757,21.576611 26.1431981,21.4766587 Z M24.2498329,23.577432 C24.4584439,23.577432 24.6547971,23.4498138 24.7325251,23.2429785 C24.8325919,22.9765155 24.6976993,22.6792363 24.4311217,22.5791122 L24.0392745,22.4319618 C23.7730406,22.331895 23.4755895,22.4667876 23.3754081,22.7333652 C23.2753413,22.9998282 23.4102339,23.2971074 23.6768115,23.3971742 L24.0686587,23.5443819 C24.1283437,23.5668353 24.1896325,23.577432 24.2498329,23.577432 Z" id="XMLID_1773_" fill="#878787" fill-rule="nonzero"></path>
        </g>
    </g>
</svg>