<?xml version="1.0" encoding="UTF-8"?>
<svg width="48px" height="48px" viewBox="0 0 48 48" version="1.1" xmlns="http://www.w3.org/2000/svg" xmlns:xlink="http://www.w3.org/1999/xlink">
    <!-- Generator: Sketch 47.1 (45422) - http://www.bohemiancoding.com/sketch -->
    <title>Group 14</title>
    <desc>Created with Sketch.</desc>
    <defs></defs>
    <g id="Page-1" stroke="none" stroke-width="1" fill="none" fill-rule="evenodd">
        <g id="Group-14" transform="translate(1.000000, 1.000000)">
            <circle id="Oval-3" stroke="#E3E3E3" cx="23" cy="23" r="23"></circle>
            <g id="shopping-bag" transform="translate(15.000000, 13.000000)" fill-rule="nonzero" fill="#FFFFFF">
                <path d="M13.7777778,3.55555556 L10.6666667,3.55555556 L10.6666667,2.22222222 C10.6666667,0.995111111 9.67155556,0 8.44444444,0 L7.55555556,0 C6.32844444,0 5.33333333,0.995111111 5.33333333,2.22222222 L5.33333333,3.55555556 L2.22222222,3.55555556 L0,19.5555556 L16,19.5555556 L13.7777778,3.55555556 Z M6.22222222,2.22222222 C6.22222222,1.48577778 6.81911111,0.888888889 7.55555556,0.888888889 L8.44444444,0.888888889 C9.18088889,0.888888889 9.77777778,1.48577778 9.77777778,2.22222222 L9.77777778,3.55555556 L6.22222222,3.55555556 L6.22222222,2.22222222 Z M3.11111111,4.44444444 L5.33333333,4.44444444 L5.33333333,6.22222222 L6.22222222,6.22222222 L6.22222222,4.44444444 L9.77777778,4.44444444 L9.77777778,6.22222222 L10.6666667,6.22222222 L10.6666667,4.44444444 L12.8888889,4.44444444 L15.1111111,18.6666667 L0.888888889,18.6666667 L3.11111111,4.44444444 Z" id="Shape"></path>
            </g>
        </g>
    </g>
</svg>