<?xml version="1.0" encoding="UTF-8"?>
<svg width="48px" height="48px" viewBox="0 0 48 48" version="1.1" xmlns="http://www.w3.org/2000/svg" xmlns:xlink="http://www.w3.org/1999/xlink">
    <!-- Generator: Sketch 47.1 (45422) - http://www.bohemiancoding.com/sketch -->
    <title>Group 43</title>
    <desc>Created with Sketch.</desc>
    <defs></defs>
    <g id="Page-1" stroke="none" stroke-width="1" fill="none" fill-rule="evenodd">
        <g id="Group-43" transform="translate(1.000000, 1.000000)">
            <circle id="Oval-3" stroke="#E3E3E3" fill="#FFFFFF" cx="23" cy="23" r="23"></circle>
            <path d="M28.7777778,16.5555556 L25.6666667,16.5555556 L25.6666667,15.2222222 C25.6666667,13.9951111 24.6715556,13 23.4444444,13 L22.5555556,13 C21.3284444,13 20.3333333,13.9951111 20.3333333,15.2222222 L20.3333333,16.5555556 L17.2222222,16.5555556 L15,32.5555556 L31,32.5555556 L28.7777778,16.5555556 Z M21.2222222,15.2222222 C21.2222222,14.4857778 21.8191111,13.8888889 22.5555556,13.8888889 L23.4444444,13.8888889 C24.1808889,13.8888889 24.7777778,14.4857778 24.7777778,15.2222222 L24.7777778,16.5555556 L21.2222222,16.5555556 L21.2222222,15.2222222 Z M18.1111111,17.4444444 L20.3333333,17.4444444 L20.3333333,19.2222222 L21.2222222,19.2222222 L21.2222222,17.4444444 L24.7777778,17.4444444 L24.7777778,19.2222222 L25.6666667,19.2222222 L25.6666667,17.4444444 L27.8888889,17.4444444 L30.1111111,31.6666667 L15.8888889,31.6666667 L18.1111111,17.4444444 Z" id="Shape" fill="#878787" fill-rule="nonzero"></path>
        </g>
    </g>
</svg>