<?xml version="1.0" encoding="UTF-8"?>
<svg width="48px" height="48px" viewBox="0 0 48 48" version="1.1" xmlns="http://www.w3.org/2000/svg" xmlns:xlink="http://www.w3.org/1999/xlink">
    <!-- Generator: Sketch 47.1 (45422) - http://www.bohemiancoding.com/sketch -->
    <title>Group 40</title>
    <desc>Created with Sketch.</desc>
    <defs></defs>
    <g id="Page-1" stroke="none" stroke-width="1" fill="none" fill-rule="evenodd">
        <g id="Group-40" transform="translate(1.000000, 1.000000)">
            <circle id="Oval-3" stroke="#E3E3E3" cx="23" cy="23" r="23"></circle>
            <path d="M20.1466667,24.6533333 C20.1466667,22.4933333 18.4133333,20.76 16.2533333,20.76 C14.0933333,20.76 12.36,22.4933333 12.36,24.6533333 C12.36,26.8133333 14.0933333,28.5466667 16.2533333,28.5466667 C18.4133333,28.5466667 20.1466667,26.7866667 20.1466667,24.6533333 Z M16.2533333,21.2933333 C18.0933333,21.2933333 19.6133333,22.8133333 19.6133333,24.6533333 C19.6133333,26.4933333 18.0933333,28.0133333 16.2533333,28.0133333 C14.4133333,28.0133333 12.8933333,26.4933333 12.8933333,24.6533333 C12.8933333,22.7866667 14.4133333,21.2933333 16.2533333,21.2933333 Z" id="Shape" fill="#878787" fill-rule="nonzero"></path>
            <path d="M13.96,24.92 C14.12,24.92 14.2266667,24.8133333 14.2266667,24.6533333 C14.2266667,23.5333333 15.1333333,22.6266667 16.2533333,22.6266667 C16.4133333,22.6266667 16.52,22.52 16.52,22.36 C16.52,22.2 16.4133333,22.0933333 16.2533333,22.0933333 C14.84,22.0933333 13.6933333,23.24 13.6933333,24.6533333 C13.6933333,24.7866667 13.8266667,24.92 13.96,24.92 Z" id="Shape" fill="#878787" fill-rule="nonzero"></path>
            <path d="M34.92,24.0666667 C34.8933333,23.9333333 34.8933333,23.7733333 34.8666667,23.64 C34.8666667,23.5866667 34.84,23.5333333 34.84,23.5066667 C34.8133333,23.4 34.7866667,23.32 34.76,23.2133333 C34.7333333,23.16 34.7333333,23.1066667 34.7066667,23.0533333 C34.6533333,22.92 34.6266667,22.8133333 34.5733333,22.68 C34.5466667,22.6266667 34.52,22.5733333 34.52,22.52 C34.4666667,22.4133333 34.44,22.3333333 34.3866667,22.2266667 C34.36,22.2 34.36,22.1466667 34.3333333,22.12 C34.3333333,22.12 34.3333333,22.12 34.3333333,22.12 C34.3333333,22.0933333 34.3066667,22.0933333 34.3066667,22.0666667 L34.1733333,21.8533333 C34.1466667,21.8 34.12,21.7466667 34.0933333,21.72 C34.0933333,21.72 34.0933333,21.72 34.0933333,21.6933333 C34.0933333,21.6933333 34.0933333,21.6666667 34.0933333,21.6666667 L31.0533333,16.92 C31.0533333,16.92 31.0266667,16.8933333 31.0266667,16.8933333 C30.3066667,15.7466667 29.1066667,15.0533333 27.7466667,15.0533333 C26.28,15.0533333 24.9466667,15.88 24.3066667,17.1866667 L21.6666667,17.1866667 C21.0266667,15.88 19.6933333,15.0533333 18.2266667,15.0533333 C16.8933333,15.0533333 15.6666667,15.7466667 14.9466667,16.8933333 C14.9466667,16.8933333 14.92,16.92 14.92,16.92 L11.96,21.6933333 C11.96,21.6933333 11.96,21.72 11.9333333,21.72 C11.9333333,21.7466667 11.9066667,21.7466667 11.9066667,21.7733333 C11.88,21.8 11.8533333,21.8533333 11.8533333,21.88 L11.72,22.0933333 C11.72,22.12 11.6933333,22.12 11.6933333,22.1466667 C11.6933333,22.1466667 11.6933333,22.1466667 11.6933333,22.1466667 C11.6666667,22.1733333 11.6666667,22.2266667 11.64,22.2533333 C11.5866667,22.36 11.5333333,22.44 11.5066667,22.5466667 C11.48,22.6 11.4533333,22.6533333 11.4533333,22.7066667 C11.4,22.84 11.3466667,22.9466667 11.32,23.08 C11.2666667,23.08 11.2666667,23.1333333 11.24,23.1866667 C11.2133333,23.2933333 11.1866667,23.3733333 11.16,23.48 C11.16,23.5333333 11.1333333,23.5866667 11.1333333,23.6133333 C11.1066667,23.7466667 11.08,23.9066667 11.08,24.04 C11.08,24.0666667 11.08,24.12 11.08,24.1466667 C11.0533333,24.3066667 11.0533333,24.4666667 11.0533333,24.6266667 C11.0533333,27.5066667 13.4,29.8533333 16.28,29.8533333 C16.44,29.8533333 16.6,29.8533333 16.76,29.8266667 C16.8133333,29.8266667 16.8666667,29.8266667 16.92,29.8 C17.0266667,29.8 17.1066667,29.7733333 17.2133333,29.7466667 C17.2933333,29.7466667 17.3466667,29.72 17.4266667,29.72 C17.5066667,29.6933333 17.5866667,29.6933333 17.64,29.6666667 C17.8,29.6133333 17.9333333,29.5866667 18.0933333,29.5333333 C18.12,29.5066667 18.1733333,29.5066667 18.2,29.48 C18.3066667,29.4533333 18.3866667,29.4 18.4933333,29.3466667 C18.52,29.32 18.5466667,29.32 18.5733333,29.2933333 C18.8933333,29.1333333 19.1866667,28.9466667 19.48,28.7333333 C19.48,28.7333333 19.5066667,28.7333333 19.5066667,28.7066667 C19.5866667,28.6533333 19.6666667,28.5733333 19.7466667,28.4933333 C19.7733333,28.4666667 19.8,28.44 19.8266667,28.4133333 C19.9066667,28.3333333 19.9866667,28.28 20.04,28.2 C20.0666667,28.1733333 20.0933333,28.1466667 20.12,28.12 C20.2533333,27.9866667 20.3866667,27.8266667 20.4933333,27.6666667 C20.52,27.64 20.5466667,27.6133333 20.5466667,27.5866667 C20.6,27.5066667 20.6533333,27.4266667 20.7066667,27.3466667 C20.7333333,27.2933333 20.76,27.2666667 20.7866667,27.2133333 C20.84,27.1333333 20.8933333,27.0533333 20.92,26.9733333 C20.9466667,26.9466667 20.9466667,26.8933333 20.9733333,26.8666667 C21.0266667,26.7866667 21.0533333,26.68 21.1066667,26.6 L24.92,26.6 C24.9466667,26.68 25,26.7866667 25.0533333,26.8666667 C25.08,26.92 25.08,26.9466667 25.1066667,27 C25.16,27.08 25.1866667,27.16 25.24,27.24 C25.2666667,27.2933333 25.2933333,27.32 25.32,27.3733333 C25.3733333,27.4533333 25.4266667,27.5333333 25.48,27.6133333 C25.5066667,27.64 25.5333333,27.6666667 25.5333333,27.6933333 C25.64,27.8533333 25.7733333,28.0133333 25.9066667,28.1466667 C25.9333333,28.1733333 25.96,28.2 25.9866667,28.2266667 C26.0666667,28.3066667 26.12,28.36 26.2,28.44 C26.2266667,28.4666667 26.2533333,28.4933333 26.28,28.52 C26.36,28.6 26.44,28.6533333 26.52,28.7333333 C26.52,28.7333333 26.5466667,28.76 26.5466667,28.76 C26.8133333,28.9733333 27.1333333,29.16 27.4533333,29.32 C27.48,29.3466667 27.5066667,29.3466667 27.5333333,29.3733333 C27.64,29.4266667 27.72,29.4533333 27.8266667,29.5066667 C27.8533333,29.5333333 27.9066667,29.5333333 27.9333333,29.56 C28.0933333,29.6133333 28.2266667,29.6666667 28.3866667,29.6933333 C28.4666667,29.72 28.5466667,29.7466667 28.6266667,29.7466667 C28.68,29.7733333 28.76,29.7733333 28.84,29.7733333 C28.9466667,29.8 29.0266667,29.8 29.1333333,29.8266667 C29.1866667,29.8266667 29.24,29.8533333 29.2933333,29.8533333 C29.4533333,29.88 29.6133333,29.88 29.7733333,29.88 C29.7733333,29.88 29.7733333,29.88 29.7733333,29.88 C29.7733333,29.88 29.7733333,29.88 29.7733333,29.88 C31.5866667,29.88 33.16,28.9733333 34.0933333,27.5866667 C34.6533333,26.76 35,25.7466667 35,24.6533333 C35,24.4933333 35,24.3333333 34.9733333,24.1733333 C34.9466667,24.1466667 34.9466667,24.0933333 34.92,24.0666667 Z M11.56,24.6533333 C11.56,22.0666667 13.6666667,19.96 16.2533333,19.96 C18.84,19.96 20.9466667,22.0666667 20.9466667,24.6533333 C20.9466667,27.24 18.84,29.3466667 16.2533333,29.3466667 C13.6666667,29.3466667 11.56,27.24 11.56,24.6533333 Z M15.4,17.2133333 C16.0133333,16.2 17.08,15.6133333 18.2533333,15.6133333 C19.5333333,15.6133333 20.7066667,16.36 21.2666667,17.5333333 L21.0533333,22.5466667 C20.2533333,20.7066667 18.4133333,19.4266667 16.28,19.4266667 C15.2666667,19.4266667 14.3333333,19.72 13.5333333,20.2266667 L15.4,17.2666667 C15.3733333,17.24 15.3733333,17.2133333 15.4,17.2133333 Z M27.7733333,15.5866667 C28.9466667,15.5866667 30.0133333,16.2 30.6266667,17.1866667 C30.6266667,17.2133333 30.6533333,17.2133333 30.6533333,17.24 L32.52,20.2 C31.72,19.6933333 30.7866667,19.4 29.7733333,19.4 C27.64,19.4 25.8,20.68 25,22.52 L24.7866667,17.5066667 C25.2933333,16.36 26.4666667,15.5866667 27.7733333,15.5866667 Z M21.7733333,17.72 L24.2266667,17.72 L24.44,23.1866667 L21.56,23.1866667 L21.7733333,17.72 Z M21.48,24.6533333 L21.48,24.6533333 L21.5066667,23.72 L24.4666667,23.72 L24.4933333,24.6533333 L24.4933333,24.6533333 C24.4933333,25.16 24.5733333,25.64 24.7066667,26.0933333 L21.2933333,26.0933333 C21.4,25.64 21.48,25.16 21.48,24.6533333 Z M34.3333333,25.5866667 C33.9066667,27.72 32.0133333,29.3466667 29.7466667,29.3466667 C27.16,29.3466667 25.0533333,27.24 25.0533333,24.6533333 C25.0533333,22.0666667 27.16,19.96 29.7466667,19.96 C32.3333333,19.96 34.44,22.0666667 34.44,24.6533333 C34.44,24.9733333 34.3866667,25.2933333 34.3333333,25.5866667 Z" id="Shape" fill="#878787" fill-rule="nonzero"></path>
            <path d="M29.7466667,28.5466667 C31.9066667,28.5466667 33.64,26.8133333 33.64,24.6533333 C33.64,22.4933333 31.9066667,20.76 29.7466667,20.76 C27.5866667,20.76 25.8533333,22.4933333 25.8533333,24.6533333 C25.8533333,26.8133333 27.5866667,28.5466667 29.7466667,28.5466667 Z M29.7466667,21.2933333 C31.5866667,21.2933333 33.1066667,22.8133333 33.1066667,24.6533333 C33.1066667,26.4933333 31.5866667,28.0133333 29.7466667,28.0133333 C27.9066667,28.0133333 26.3866667,26.4933333 26.3866667,24.6533333 C26.3866667,22.7866667 27.88,21.2933333 29.7466667,21.2933333 Z" id="Shape" fill="#878787" fill-rule="nonzero"></path>
            <path d="M27.4533333,24.92 C27.6133333,24.92 27.72,24.8133333 27.72,24.6533333 C27.72,23.5333333 28.6266667,22.6266667 29.7466667,22.6266667 C29.9066667,22.6266667 30.0133333,22.52 30.0133333,22.36 C30.0133333,22.2 29.9066667,22.0933333 29.7466667,22.0933333 C28.3333333,22.0933333 27.1866667,23.24 27.1866667,24.6533333 C27.1866667,24.7866667 27.2933333,24.92 27.4533333,24.92 Z" id="Shape" fill="#878787" fill-rule="nonzero"></path>
        </g>
    </g>
</svg>