<?xml version="1.0" encoding="UTF-8"?>
<svg width="48px" height="48px" viewBox="0 0 48 48" version="1.1" xmlns="http://www.w3.org/2000/svg" xmlns:xlink="http://www.w3.org/1999/xlink">
    <!-- Generator: Sketch 47.1 (45422) - http://www.bohemiancoding.com/sketch -->
    <title>Group 11</title>
    <desc>Created with Sketch.</desc>
    <defs></defs>
    <g id="Page-1" stroke="none" stroke-width="1" fill="none" fill-rule="evenodd">
        <g id="Group-11" transform="translate(1.000000, 1.000000)">
            <circle id="Oval-3" stroke="#E3E3E3" cx="23" cy="23" r="23"></circle>
            <g id="Group" transform="translate(11.000000, 15.000000)" fill-rule="nonzero" fill="#FFFFFF">
                <path d="M9.14666667,9.65333333 C9.14666667,7.49333333 7.41333333,5.76 5.25333333,5.76 C3.09333333,5.76 1.36,7.49333333 1.36,9.65333333 C1.36,11.8133333 3.09333333,13.5466667 5.25333333,13.5466667 C7.41333333,13.5466667 9.14666667,11.7866667 9.14666667,9.65333333 Z M5.25333333,6.29333333 C7.09333333,6.29333333 8.61333333,7.81333333 8.61333333,9.65333333 C8.61333333,11.4933333 7.09333333,13.0133333 5.25333333,13.0133333 C3.41333333,13.0133333 1.89333333,11.4933333 1.89333333,9.65333333 C1.89333333,7.78666667 3.41333333,6.29333333 5.25333333,6.29333333 Z" id="Shape"></path>
                <path d="M2.96,9.92 C3.12,9.92 3.22666667,9.81333333 3.22666667,9.65333333 C3.22666667,8.53333333 4.13333333,7.62666667 5.25333333,7.62666667 C5.41333333,7.62666667 5.52,7.52 5.52,7.36 C5.52,7.2 5.41333333,7.09333333 5.25333333,7.09333333 C3.84,7.09333333 2.69333333,8.24 2.69333333,9.65333333 C2.69333333,9.78666667 2.82666667,9.92 2.96,9.92 Z" id="Shape"></path>
                <path d="M23.92,9.06666667 C23.8933333,8.93333333 23.8933333,8.77333333 23.8666667,8.64 C23.8666667,8.58666667 23.84,8.53333333 23.84,8.50666667 C23.8133333,8.4 23.7866667,8.32 23.76,8.21333333 C23.7333333,8.16 23.7333333,8.10666667 23.7066667,8.05333333 C23.6533333,7.92 23.6266667,7.81333333 23.5733333,7.68 C23.5466667,7.62666667 23.52,7.57333333 23.52,7.52 C23.4666667,7.41333333 23.44,7.33333333 23.3866667,7.22666667 C23.36,7.2 23.36,7.14666667 23.3333333,7.12 C23.3333333,7.12 23.3333333,7.12 23.3333333,7.12 C23.3333333,7.09333333 23.3066667,7.09333333 23.3066667,7.06666667 L23.1733333,6.85333333 C23.1466667,6.8 23.12,6.74666667 23.0933333,6.72 C23.0933333,6.72 23.0933333,6.72 23.0933333,6.69333333 C23.0933333,6.69333333 23.0933333,6.66666667 23.0933333,6.66666667 L20.0533333,1.92 C20.0533333,1.92 20.0266667,1.89333333 20.0266667,1.89333333 C19.3066667,0.746666667 18.1066667,0.0533333333 16.7466667,0.0533333333 C15.28,0.0533333333 13.9466667,0.88 13.3066667,2.18666667 L10.6666667,2.18666667 C10.0266667,0.88 8.69333333,0.0533333333 7.22666667,0.0533333333 C5.89333333,0.0533333333 4.66666667,0.746666667 3.94666667,1.89333333 C3.94666667,1.89333333 3.92,1.92 3.92,1.92 L0.96,6.69333333 C0.96,6.69333333 0.96,6.72 0.933333333,6.72 C0.933333333,6.74666667 0.906666667,6.74666667 0.906666667,6.77333333 C0.88,6.8 0.853333333,6.85333333 0.853333333,6.88 L0.72,7.09333333 C0.72,7.12 0.693333333,7.12 0.693333333,7.14666667 C0.693333333,7.14666667 0.693333333,7.14666667 0.693333333,7.14666667 C0.666666667,7.17333333 0.666666667,7.22666667 0.64,7.25333333 C0.586666667,7.36 0.533333333,7.44 0.506666667,7.54666667 C0.48,7.6 0.453333333,7.65333333 0.453333333,7.70666667 C0.4,7.84 0.346666667,7.94666667 0.32,8.08 C0.266666667,8.08 0.266666667,8.13333333 0.24,8.18666667 C0.213333333,8.29333333 0.186666667,8.37333333 0.16,8.48 C0.16,8.53333333 0.133333333,8.58666667 0.133333333,8.61333333 C0.106666667,8.74666667 0.08,8.90666667 0.08,9.04 C0.08,9.06666667 0.08,9.12 0.08,9.14666667 C0.0533333333,9.30666667 0.0533333333,9.46666667 0.0533333333,9.62666667 C0.0533333333,12.5066667 2.4,14.8533333 5.28,14.8533333 C5.44,14.8533333 5.6,14.8533333 5.76,14.8266667 C5.81333333,14.8266667 5.86666667,14.8266667 5.92,14.8 C6.02666667,14.8 6.10666667,14.7733333 6.21333333,14.7466667 C6.29333333,14.7466667 6.34666667,14.72 6.42666667,14.72 C6.50666667,14.6933333 6.58666667,14.6933333 6.64,14.6666667 C6.8,14.6133333 6.93333333,14.5866667 7.09333333,14.5333333 C7.12,14.5066667 7.17333333,14.5066667 7.2,14.48 C7.30666667,14.4533333 7.38666667,14.4 7.49333333,14.3466667 C7.52,14.32 7.54666667,14.32 7.57333333,14.2933333 C7.89333333,14.1333333 8.18666667,13.9466667 8.48,13.7333333 C8.48,13.7333333 8.50666667,13.7333333 8.50666667,13.7066667 C8.58666667,13.6533333 8.66666667,13.5733333 8.74666667,13.4933333 C8.77333333,13.4666667 8.8,13.44 8.82666667,13.4133333 C8.90666667,13.3333333 8.98666667,13.28 9.04,13.2 C9.06666667,13.1733333 9.09333333,13.1466667 9.12,13.12 C9.25333333,12.9866667 9.38666667,12.8266667 9.49333333,12.6666667 C9.52,12.64 9.54666667,12.6133333 9.54666667,12.5866667 C9.6,12.5066667 9.65333333,12.4266667 9.70666667,12.3466667 C9.73333333,12.2933333 9.76,12.2666667 9.78666667,12.2133333 C9.84,12.1333333 9.89333333,12.0533333 9.92,11.9733333 C9.94666667,11.9466667 9.94666667,11.8933333 9.97333333,11.8666667 C10.0266667,11.7866667 10.0533333,11.68 10.1066667,11.6 L13.92,11.6 C13.9466667,11.68 14,11.7866667 14.0533333,11.8666667 C14.08,11.92 14.08,11.9466667 14.1066667,12 C14.16,12.08 14.1866667,12.16 14.24,12.24 C14.2666667,12.2933333 14.2933333,12.32 14.32,12.3733333 C14.3733333,12.4533333 14.4266667,12.5333333 14.48,12.6133333 C14.5066667,12.64 14.5333333,12.6666667 14.5333333,12.6933333 C14.64,12.8533333 14.7733333,13.0133333 14.9066667,13.1466667 C14.9333333,13.1733333 14.96,13.2 14.9866667,13.2266667 C15.0666667,13.3066667 15.12,13.36 15.2,13.44 C15.2266667,13.4666667 15.2533333,13.4933333 15.28,13.52 C15.36,13.6 15.44,13.6533333 15.52,13.7333333 C15.52,13.7333333 15.5466667,13.76 15.5466667,13.76 C15.8133333,13.9733333 16.1333333,14.16 16.4533333,14.32 C16.48,14.3466667 16.5066667,14.3466667 16.5333333,14.3733333 C16.64,14.4266667 16.72,14.4533333 16.8266667,14.5066667 C16.8533333,14.5333333 16.9066667,14.5333333 16.9333333,14.56 C17.0933333,14.6133333 17.2266667,14.6666667 17.3866667,14.6933333 C17.4666667,14.72 17.5466667,14.7466667 17.6266667,14.7466667 C17.68,14.7733333 17.76,14.7733333 17.84,14.7733333 C17.9466667,14.8 18.0266667,14.8 18.1333333,14.8266667 C18.1866667,14.8266667 18.24,14.8533333 18.2933333,14.8533333 C18.4533333,14.88 18.6133333,14.88 18.7733333,14.88 C18.7733333,14.88 18.7733333,14.88 18.7733333,14.88 C18.7733333,14.88 18.7733333,14.88 18.7733333,14.88 C20.5866667,14.88 22.16,13.9733333 23.0933333,12.5866667 C23.6533333,11.76 24,10.7466667 24,9.65333333 C24,9.49333333 24,9.33333333 23.9733333,9.17333333 C23.9466667,9.14666667 23.9466667,9.09333333 23.92,9.06666667 Z M0.56,9.65333333 C0.56,7.06666667 2.66666667,4.96 5.25333333,4.96 C7.84,4.96 9.94666667,7.06666667 9.94666667,9.65333333 C9.94666667,12.24 7.84,14.3466667 5.25333333,14.3466667 C2.66666667,14.3466667 0.56,12.24 0.56,9.65333333 Z M4.4,2.21333333 C5.01333333,1.2 6.08,0.613333333 7.25333333,0.613333333 C8.53333333,0.613333333 9.70666667,1.36 10.2666667,2.53333333 L10.0533333,7.54666667 C9.25333333,5.70666667 7.41333333,4.42666667 5.28,4.42666667 C4.26666667,4.42666667 3.33333333,4.72 2.53333333,5.22666667 L4.4,2.26666667 C4.37333333,2.24 4.37333333,2.21333333 4.4,2.21333333 Z M16.7733333,0.586666667 C17.9466667,0.586666667 19.0133333,1.2 19.6266667,2.18666667 C19.6266667,2.21333333 19.6533333,2.21333333 19.6533333,2.24 L21.52,5.2 C20.72,4.69333333 19.7866667,4.4 18.7733333,4.4 C16.64,4.4 14.8,5.68 14,7.52 L13.7866667,2.50666667 C14.2933333,1.36 15.4666667,0.586666667 16.7733333,0.586666667 Z M10.7733333,2.72 L13.2266667,2.72 L13.44,8.18666667 L10.56,8.18666667 L10.7733333,2.72 Z M10.48,9.65333333 L10.48,9.65333333 L10.5066667,8.72 L13.4666667,8.72 L13.4933333,9.65333333 L13.4933333,9.65333333 C13.4933333,10.16 13.5733333,10.64 13.7066667,11.0933333 L10.2933333,11.0933333 C10.4,10.64 10.48,10.16 10.48,9.65333333 Z M23.3333333,10.5866667 C22.9066667,12.72 21.0133333,14.3466667 18.7466667,14.3466667 C16.16,14.3466667 14.0533333,12.24 14.0533333,9.65333333 C14.0533333,7.06666667 16.16,4.96 18.7466667,4.96 C21.3333333,4.96 23.44,7.06666667 23.44,9.65333333 C23.44,9.97333333 23.3866667,10.2933333 23.3333333,10.5866667 Z" id="Shape"></path>
                <path d="M18.7466667,13.5466667 C20.9066667,13.5466667 22.64,11.8133333 22.64,9.65333333 C22.64,7.49333333 20.9066667,5.76 18.7466667,5.76 C16.5866667,5.76 14.8533333,7.49333333 14.8533333,9.65333333 C14.8533333,11.8133333 16.5866667,13.5466667 18.7466667,13.5466667 Z M18.7466667,6.29333333 C20.5866667,6.29333333 22.1066667,7.81333333 22.1066667,9.65333333 C22.1066667,11.4933333 20.5866667,13.0133333 18.7466667,13.0133333 C16.9066667,13.0133333 15.3866667,11.4933333 15.3866667,9.65333333 C15.3866667,7.78666667 16.88,6.29333333 18.7466667,6.29333333 Z" id="Shape"></path>
                <path d="M16.4533333,9.92 C16.6133333,9.92 16.72,9.81333333 16.72,9.65333333 C16.72,8.53333333 17.6266667,7.62666667 18.7466667,7.62666667 C18.9066667,7.62666667 19.0133333,7.52 19.0133333,7.36 C19.0133333,7.2 18.9066667,7.09333333 18.7466667,7.09333333 C17.3333333,7.09333333 16.1866667,8.24 16.1866667,9.65333333 C16.1866667,9.78666667 16.2933333,9.92 16.4533333,9.92 Z" id="Shape"></path>
            </g>
        </g>
    </g>
</svg>