<?xml version="1.0" encoding="UTF-8"?>
<svg width="48px" height="48px" viewBox="0 0 48 48" version="1.1" xmlns="http://www.w3.org/2000/svg" xmlns:xlink="http://www.w3.org/1999/xlink">
    <!-- Generator: Sketch 47.1 (45422) - http://www.bohemiancoding.com/sketch -->
    <title>Group 60</title>
    <desc>Created with Sketch.</desc>
    <defs></defs>
    <g id="Page-1" stroke="none" stroke-width="1" fill="none" fill-rule="evenodd">
        <g id="Group-60" transform="translate(1.000000, 1.000000)">
            <circle id="Oval-3" stroke="#E3E3E3" fill="#FFFFFF" cx="23" cy="23" r="23"></circle>
            <path d="M30.4870432,22.9231628 L27.9060465,21.2595083 C27.7246512,21.1403056 27.4810631,21.1921329 27.3670432,21.3735282 C27.2478405,21.5549236 27.2996678,21.7985116 27.4810631,21.9125316 L30.0620598,23.576186 C30.1294352,23.6176478 30.2019934,23.6383787 30.2745515,23.6383787 C30.4041196,23.6383787 30.528505,23.576186 30.6010631,23.4621661 C30.7202658,23.2807708 30.6684385,23.0371827 30.4870432,22.9231628 Z" id="Shape" fill="#878787" fill-rule="nonzero"></path>
            <path d="M34.8612625,24.6904718 L32.933289,22.9024319 C31.2385382,21.2232292 29.326113,19.7876146 27.4810631,18.3986445 C26.7295681,17.8389103 25.3043189,16.8541927 25.2162126,16.7971827 C24.5476412,16.3100066 23.7702326,16.0560532 22.9617276,16.0560532 C22.1532226,16.0560532 21.3706312,16.3151894 20.7072425,16.7971827 C20.603588,16.8697409 19.2042525,17.8389103 18.499402,18.4038272 C16.6543522,19.7927973 14.7419269,21.228412 12.9901661,22.9024319 L11.1192027,24.690392 C11.0414618,24.7630299 11,24.8666844 11,24.9703389 L11,27.5254219 C11,27.65499 11.0673754,27.7793754 11.1762126,27.8519336 C11.2850498,27.9244917 11.4249834,27.9348571 11.544186,27.8830299 L16.7009967,25.6285449 L20.209701,28.313196 C20.2770764,28.3650233 20.36,28.3909369 20.4481063,28.3909369 L22.6093023,28.3909369 L22.6093023,30.5262193 L23.386711,30.5262193 L23.386711,28.3909369 L25.6049169,28.3909369 C25.6930233,28.3909369 25.7759468,28.3598405 25.8433223,28.3080133 L29.2898339,25.6233621 L34.4466445,27.8778472 C34.4984718,27.8985781 34.550299,27.9089435 34.6021262,27.9089435 C34.6746844,27.9089435 34.7524252,27.8882126 34.8146179,27.8467508 C34.9234551,27.7741927 34.9908306,27.65499 34.9908306,27.5202392 L34.9908306,24.9651561 C34.9856478,24.8666844 34.9390033,24.7630299 34.8612625,24.6904718 Z M20.1008638,27.2662857 L17.4991362,25.2761196 L20.30299,24.047814 C20.30299,24.047814 20.3081728,24.047814 20.3081728,24.0426312 C20.4636545,23.9700731 20.6191362,23.9078804 20.7746179,23.8508704 L20.1008638,27.2662857 Z M20.8264452,27.6238937 L21.6245847,23.6124651 C22.5004651,23.4155216 23.4074419,23.4155216 24.288505,23.5969169 L25.1488372,27.6238937 L20.8264452,27.6238937 Z M25.8744186,27.3025648 L25.133289,23.8353223 C25.3146844,23.897515 25.490897,23.9700731 25.6619269,24.0529967 C25.6619269,24.0529967 25.6671096,24.0529967 25.6671096,24.0581794 L28.4709635,25.2813023 L25.8744186,27.3025648 Z M25.9832558,23.3429635 C24.0760133,22.4670831 21.8940864,22.4670831 19.9868439,23.3429635 L11.7618605,26.9397741 L11.7618605,25.1413688 L13.5136213,23.4673488 C15.2394684,21.8192425 17.1311628,20.3991761 18.9606645,19.0205714 C18.9658472,19.0153887 18.9658472,19.0153887 18.9710299,19.010206 C19.6603322,18.4504718 21.1270432,17.4398405 21.1374086,17.4294751 C21.1425914,17.4294751 21.1425914,17.4242924 21.1477741,17.4242924 C22.2413289,16.6261528 23.6562126,16.6261528 24.7549502,17.4242924 C24.7601329,17.4242924 24.7601329,17.4294751 24.7653156,17.4294751 C24.7808638,17.4398405 26.2527575,18.4556545 27.0094352,19.0205714 C28.8389369,20.3939934 30.7306312,21.8192425 32.389103,23.4621661 C32.3942857,23.4673488 32.3942857,23.4673488 32.3994684,23.4725316 L34.2082392,25.1465515 L34.2082392,26.9397741 L25.9832558,23.3429635 Z" id="Shape" fill="#878787" fill-rule="nonzero"></path>
            <circle id="Oval" fill="#878787" fill-rule="nonzero" cx="31.4613953" cy="24.0321063" r="1"></circle>
        </g>
    </g>
</svg>