<?xml version="1.0" encoding="UTF-8"?>
<svg width="48px" height="48px" viewBox="0 0 48 48" version="1.1" xmlns="http://www.w3.org/2000/svg" xmlns:xlink="http://www.w3.org/1999/xlink">
    <!-- Generator: Sketch 47.1 (45422) - http://www.bohemiancoding.com/sketch -->
    <title>Group 31</title>
    <desc>Created with Sketch.</desc>
    <defs></defs>
    <g id="Page-1" stroke="none" stroke-width="1" fill="none" fill-rule="evenodd">
        <g id="Group-31" transform="translate(1.000000, 1.000000)">
            <circle id="Oval-3" stroke="#E3E3E3" cx="23" cy="23" r="23"></circle>
            <g id="paragliding" transform="translate(11.000000, 16.000000)" fill-rule="nonzero" fill="#FFFFFF">
                <path d="M19.4870432,6.92316279 L16.9060465,5.25950831 C16.7246512,5.14030565 16.4810631,5.19213289 16.3670432,5.37352824 C16.2478405,5.55492359 16.2996678,5.79851163 16.4810631,5.91253156 L19.0620598,7.57618605 C19.1294352,7.61764784 19.2019934,7.63837874 19.2745515,7.63837874 C19.4041196,7.63837874 19.528505,7.57618605 19.6010631,7.46216611 C19.7202658,7.28077076 19.6684385,7.03718272 19.4870432,6.92316279 Z" id="Shape"></path>
                <path d="M23.8612625,8.69047176 L21.933289,6.90243189 C20.2385382,5.22322924 18.326113,3.78761462 16.4810631,2.39864452 C15.7295681,1.8389103 14.3043189,0.854192691 14.2162126,0.797182724 C13.5476412,0.310006645 12.7702326,0.0560531561 11.9617276,0.0560531561 C11.1532226,0.0560531561 10.3706312,0.315189369 9.70724252,0.797182724 C9.60358804,0.869740864 8.20425249,1.8389103 7.49940199,2.40382724 C5.65435216,3.79279734 3.74192691,5.22841196 1.99016611,6.90243189 L0.119202658,8.69039203 C0.041461794,8.7630299 0,8.86668439 0,8.97033887 L0,11.5254219 C0,11.65499 0.0673754153,11.7793754 0.176212625,11.8519336 C0.285049834,11.9244917 0.424983389,11.9348571 0.544186047,11.8830299 L5.70099668,9.62854485 L9.209701,12.313196 C9.27707641,12.3650233 9.36,12.3909369 9.44810631,12.3909369 L11.6093023,12.3909369 L11.6093023,14.5262193 L12.386711,14.5262193 L12.386711,12.3909369 L14.6049169,12.3909369 C14.6930233,12.3909369 14.7759468,12.3598405 14.8433223,12.3080133 L18.2898339,9.62336213 L23.4466445,11.8778472 C23.4984718,11.8985781 23.550299,11.9089435 23.6021262,11.9089435 C23.6746844,11.9089435 23.7524252,11.8882126 23.8146179,11.8467508 C23.9234551,11.7741927 23.9908306,11.65499 23.9908306,11.5202392 L23.9908306,8.96515615 C23.9856478,8.86668439 23.9390033,8.7630299 23.8612625,8.69047176 Z M9.10086379,11.2662857 L6.49913621,9.2761196 L9.30299003,8.04781395 C9.30299003,8.04781395 9.30817276,8.04781395 9.30817276,8.04263123 C9.46365449,7.97007309 9.61913621,7.9078804 9.77461794,7.85087043 L9.10086379,11.2662857 Z M9.82644518,11.6238937 L10.6245847,7.61246512 C11.5004651,7.41552159 12.4074419,7.41552159 13.288505,7.59691694 L14.1488372,11.6238937 L9.82644518,11.6238937 Z M14.8744186,11.3025648 L14.133289,7.83532226 C14.3146844,7.89751495 14.490897,7.97007309 14.6619269,8.05299668 C14.6619269,8.05299668 14.6671096,8.05299668 14.6671096,8.0581794 L17.4709635,9.28130233 L14.8744186,11.3025648 Z M14.9832558,7.34296346 C13.0760133,6.46708306 10.8940864,6.46708306 8.98684385,7.34296346 L0.761860465,10.9397741 L0.761860465,9.14136877 L2.51362126,7.46734884 C4.23946844,5.81924252 6.13116279,4.39917608 7.96066445,3.02057143 C7.96584718,3.0153887 7.96584718,3.0153887 7.9710299,3.01020598 C8.66033223,2.45047176 10.1270432,1.43984053 10.1374086,1.42947508 C10.1425914,1.42947508 10.1425914,1.42429236 10.1477741,1.42429236 C11.2413289,0.626152824 12.6562126,0.626152824 13.7549502,1.42429236 C13.7601329,1.42429236 13.7601329,1.42947508 13.7653156,1.42947508 C13.7808638,1.43984053 15.2527575,2.45565449 16.0094352,3.02057143 C17.8389369,4.39399336 19.7306312,5.81924252 21.389103,7.46216611 C21.3942857,7.46734884 21.3942857,7.46734884 21.3994684,7.47253156 L23.2082392,9.1465515 L23.2082392,10.9397741 L14.9832558,7.34296346 Z" id="Shape"></path>
                <circle id="Oval" cx="20.4613953" cy="8.03210631" r="1"></circle>
            </g>
        </g>
    </g>
</svg>