<?xml version="1.0" encoding="UTF-8"?>
<svg width="48px" height="48px" viewBox="0 0 48 48" version="1.1" xmlns="http://www.w3.org/2000/svg" xmlns:xlink="http://www.w3.org/1999/xlink">
    <!-- Generator: Sketch 47.1 (45422) - http://www.bohemiancoding.com/sketch -->
    <title>Group 30</title>
    <desc>Created with Sketch.</desc>
    <defs></defs>
    <g id="Page-1" stroke="none" stroke-width="1" fill="none" fill-rule="evenodd">
        <g id="Group-30" transform="translate(1.000000, 1.000000)">
            <circle id="Oval-3" stroke="#E3E3E3" cx="23" cy="23" r="23"></circle>
            <g id="mountain" transform="translate(11.000000, 12.000000)" fill-rule="nonzero" fill="#FFFFFF">
                <path d="M23.9372049,20.2962207 L18.6957713,11.2093509 L18.6957713,11.209304 L18.3747238,10.6527084 L14.0957767,3.2345931 C14.0120578,3.08942689 13.8572762,3 13.6898383,3 C13.5224004,3 13.3676188,3.08942689 13.2838999,3.2345931 L10.4238622,8.19295282 C10.4237685,8.1931405 10.4236747,8.19332817 10.423581,8.19346893 L9.73118881,9.39378797 L8.55106118,7.41532362 C8.46645161,7.27353555 8.31363877,7.18664227 8.14859153,7.18664227 C7.98354428,7.18664227 7.83073144,7.27348863 7.74612188,7.41532362 L0.066292213,20.290309 C-0.0201923553,20.4352875 -0.0222079848,20.6155957 0.0611359515,20.762451 C0.144386138,20.9093063 0.300105236,21 0.468761862,21 L23.5313134,21 C23.6987513,21 23.8535329,20.9105731 23.9372518,20.7654069 C24.0209239,20.6202407 24.0209239,20.4413869 23.9372049,20.2962207 Z M13.6898383,4.40751167 L17.6549096,11.2815117 L16.788189,11.8097215 C16.6099698,11.9182912 16.3749849,11.8626457 16.2644534,11.6853872 L14.8634034,9.43892369 C14.6490436,9.09519788 14.2953709,8.87172449 13.8932294,8.82579117 C13.8423699,8.81997326 13.791651,8.81711122 13.7412134,8.81711122 C13.3929314,8.81711122 13.0600244,8.95401975 12.8100394,9.20428367 C12.6607891,9.35367255 12.4180229,9.35367255 12.2687726,9.20428367 L11.4155988,8.35036479 L13.6898383,4.40751167 Z M8.14849778,8.57106998 L12.0339283,15.0846412 L11.1190669,16.1954395 C11.0291605,16.3046661 10.9019883,16.3710559 10.7610349,16.3824102 C10.6198002,16.3938114 10.4838155,16.3485819 10.3775496,16.2551669 L8.50212357,14.606212 C8.23048233,14.3673963 7.88585656,14.24644 7.54038704,14.24644 C7.23813637,14.24644 6.93518256,14.3391043 6.68027574,14.5264504 L4.64439619,16.0225913 C4.42736446,16.1820677 4.21300461,16.1157717 4.13078567,16.0799259 C4.06155114,16.0496634 3.91258206,15.9651629 3.84892567,15.7791306 L8.14849778,8.57106998 Z M3.84841004,20.0615338 L3.84841004,20.0616745 L1.29451371,20.0616745 L3.32706513,16.6541629 C3.4495029,16.7715532 3.59350322,16.8690032 3.75611296,16.9399442 C4.23700466,17.149905 4.77653711,17.0896146 5.19925681,16.7788725 L7.23513636,15.2827316 C7.42952742,15.1398644 7.7021999,15.1517348 7.88351281,15.3111174 L9.75898575,16.9600723 C10.0273926,17.196026 10.3635809,17.3224717 10.7165504,17.3224717 C10.7563005,17.3224717 10.7962381,17.3208764 10.8363632,17.3176391 C11.2324578,17.2856875 11.5897867,17.0990921 11.8424904,16.7921974 L12.5443045,15.9401084 L15.0027162,20.0615338 L3.84841004,20.0615338 Z M16.0945312,20.0617214 L16.0945312,20.0616745 L13.0081336,14.8874422 C13.0081336,14.8873953 13.0080868,14.8873484 13.0080868,14.8873015 L10.2815494,10.3163488 L10.9303477,9.19166256 L11.6059118,9.86785371 C12.1206942,10.3830671 12.9582116,10.3830671 13.4729941,9.86785371 C13.5865724,9.75416989 13.7183852,9.75022873 13.7870104,9.75815797 C13.9035888,9.77148286 14.0061515,9.83627748 14.068261,9.93593262 L15.4692641,12.1823961 C15.7185928,12.5821428 16.1514844,12.802801 16.5931416,12.8027541 C16.8268609,12.8027541 17.0630177,12.7410092 17.2757838,12.6113262 L18.1238482,12.0944706 L22.7194835,20.0617684 L16.0945312,20.0617684 L16.0945312,20.0617214 Z" id="Shape"></path>
                <path d="M23.5610261,4.13794441 L18.9193251,4.13794441 C18.8919376,4.04578606 18.877805,3.94992069 18.877805,3.85353805 C18.877805,3.29153592 19.3433488,2.83436498 19.9155899,2.83436498 C20.0340936,2.83436498 20.1506222,2.85402083 20.2620595,2.89272906 C20.3731457,2.93139419 20.4953362,2.92428187 20.6012872,2.87354736 C20.7071505,2.82276975 20.7878208,2.73212007 20.8251275,2.6223318 C20.8274537,2.61547812 20.8296043,2.60862444 20.8315355,2.60168454 C21.1219573,1.57746819 22.081442,0.862098693 23.164785,0.862098693 C23.2738084,0.862098693 23.3869135,0.869986896 23.5008526,0.885461568 C23.7411078,0.918221318 23.962578,0.753474258 23.9958029,0.51764716 C24.0290279,0.281820063 23.8613671,0.0641832477 23.6212875,0.0315097072 C23.4675838,0.0106038139 23.3139679,0 23.164785,0 C21.8295558,0 20.6323615,0.797829235 20.1232347,1.98330115 C20.0545464,1.97597331 19.9851998,1.97230939 19.9156338,1.97230939 C18.8593272,1.97226629 18,2.8161747 18,3.85353805 C18,4.17829063 18.0865516,4.49937929 18.2503061,4.78206145 C18.3283429,4.91676437 18.4740147,5 18.6318001,5 L23.5610261,5 C23.8033881,5 23.9999286,4.80701921 23.9999286,4.56895065 C23.9999286,4.3308821 23.8033442,4.13794441 23.5610261,4.13794441 Z" id="Shape"></path>
                <path d="M3.56733057,6 L1.43266943,6 C1.19374937,6 1,6.22385 1,6.5 C1,6.77615 1.19374937,7 1.43266943,7 L3.56733057,7 C3.80625063,7 4,6.77615 4,6.5 C3.99995673,6.2238 3.80620736,6 3.56733057,6 Z" id="Shape"></path>
                <path d="M3.52379819,9 L0.476201814,9 C0.213243172,9 0,9.22385 0,9.5 C0,9.77615 0.213243172,10 0.476201814,10 L3.52379819,10 C3.78675683,10 4,9.77615 4,9.5 C4,9.22385 3.78675683,9 3.52379819,9 Z" id="Shape"></path>
                <path d="M6.8535,6.1465 C6.7605,6.0535 6.6315,6 6.5,6 C6.3685,6 6.2395,6.0535 6.14655,6.1465 C6.05355,6.2395 6,6.3685 6,6.5 C6,6.6315 6.0535,6.7605 6.14655,6.8535 C6.2395,6.9465 6.3685,7 6.5,7 C6.6315,7 6.7605,6.9465 6.8535,6.8535 C6.9465,6.7605 7,6.6315 7,6.5 C7,6.36845 6.94655,6.23945 6.8535,6.1465 Z" id="Shape"></path>
                <path d="M18.5488179,0 L13.4511821,0 C13.2020393,0 13,0.22385 13,0.5 C13,0.77615 13.2019942,1 13.4511821,1 L18.5488179,1 C18.7979607,1 19,0.77615 19,0.5 C19,0.22385 18.7979155,0 18.5488179,0 Z" id="Shape"></path>
                <path d="M11.85345,0.1465 C11.7605,0.0535 11.6315,0 11.5,0 C11.36845,0 11.2395,0.0535 11.1465,0.1465 C11.0535,0.2395 11,0.3685 11,0.5 C11,0.6315 11.05345,0.7605 11.1465,0.8535 C11.23955,0.9465 11.36795,1 11.5,1 C11.6315,1 11.7605,0.9465 11.85345,0.8535 C11.94645,0.7605 12,0.6315 12,0.5 C12,0.3685 11.9465,0.2395 11.85345,0.1465 Z" id="Shape"></path>
            </g>
        </g>
    </g>
</svg>