<?xml version="1.0" encoding="UTF-8"?>
<svg width="48px" height="48px" viewBox="0 0 48 48" version="1.1" xmlns="http://www.w3.org/2000/svg" xmlns:xlink="http://www.w3.org/1999/xlink">
    <!-- Generator: Sketch 47.1 (45422) - http://www.bohemiancoding.com/sketch -->
    <title>Group 59</title>
    <desc>Created with Sketch.</desc>
    <defs></defs>
    <g id="Page-1" stroke="none" stroke-width="1" fill="none" fill-rule="evenodd">
        <g id="Group-59" transform="translate(1.000000, 1.000000)">
            <circle id="Oval-3" stroke="#E3E3E3" fill="#FFFFFF" cx="23" cy="23" r="23"></circle>
            <path d="M34.8904795,32.7248187 L29.6592749,23.6640936 L29.6592749,23.6640468 L29.3388538,23.1090526 L25.0682573,15.7122807 C24.9847018,15.5675322 24.8302222,15.4783626 24.6631111,15.4783626 C24.496,15.4783626 24.3415205,15.5675322 24.2579649,15.7122807 L21.4035088,20.6563743 C21.4034152,20.6565614 21.4033216,20.6567485 21.4032281,20.6568889 L20.7121871,21.8537544 L19.5343626,19.8809825 C19.4499181,19.7396023 19.2974035,19.6529591 19.1326784,19.6529591 C18.9679532,19.6529591 18.8154386,19.7395556 18.7309942,19.8809825 L11.066152,32.718924 C10.9798363,32.8634854 10.9778246,33.0432749 11.0610058,33.1897076 C11.1440936,33.3361404 11.2995088,33.4265731 11.4678363,33.4265731 L34.4853801,33.4265731 C34.6524912,33.4265731 34.8069708,33.3374035 34.8905263,33.192655 C34.9740351,33.0479064 34.9740351,32.8695673 34.8904795,32.7248187 Z M24.6631111,16.8818246 L28.6204444,23.7360468 L27.7554152,24.2627368 C27.5775439,24.3709942 27.3430175,24.3155088 27.2327018,24.1387602 L25.834386,21.8987602 C25.6204444,21.5560234 25.267462,21.333193 24.8661053,21.2873918 C24.815345,21.2815906 24.7647251,21.2787368 24.714386,21.2787368 C24.3667836,21.2787368 24.0345263,21.4152515 23.7850292,21.6647953 C23.6360702,21.8137544 23.3937778,21.8137544 23.2448187,21.6647953 L22.3933099,20.8133333 L24.6631111,16.8818246 Z M19.1325848,21.0334035 L23.0104327,27.5282339 L22.0973567,28.6358363 C22.0076257,28.7447485 21.8807018,28.8109474 21.7400234,28.822269 C21.5990643,28.8336374 21.463345,28.788538 21.3572865,28.6953918 L19.4855205,27.0511813 C19.2144094,26.8130526 18.8704561,26.6924444 18.5256608,26.6924444 C18.224,26.6924444 17.9216374,26.7848421 17.6672281,26.9716491 L15.6353216,28.4634854 C15.4187135,28.6225029 15.2047719,28.5563977 15.1227135,28.520655 C15.053614,28.4904795 14.9049357,28.4062222 14.8414035,28.2207251 L19.1325848,21.0334035 Z M14.8408889,32.490807 L14.8408889,32.4909474 L12.2919766,32.4909474 L14.3205614,29.0932398 C14.4427602,29.2102924 14.5864795,29.307462 14.7487719,29.3781988 C15.2287251,29.5875556 15.7672047,29.5274386 16.1890994,29.2175906 L18.2210058,27.7257544 C18.4150175,27.5832982 18.6871579,27.5951345 18.868117,27.7540585 L20.7399298,29.398269 C21.0078129,29.6335439 21.343345,29.7596257 21.6956257,29.7596257 C21.7352982,29.7596257 21.7751579,29.7580351 21.8152047,29.754807 C22.2105263,29.7229474 22.5671579,29.5368889 22.8193684,29.2308772 L23.5198129,28.3812398 L25.9734269,32.490807 L14.8408889,32.490807 Z M27.0631111,32.4909942 L27.0631111,32.4909474 L23.9827368,27.3316023 C23.9827368,27.3315556 23.9826901,27.3315088 23.9826901,27.331462 L21.2614737,22.7736608 L21.9090058,21.6522105 L22.5832515,22.3264561 C23.0970292,22.8401871 23.9329123,22.8401871 24.4466901,22.3264561 C24.5600468,22.2130994 24.6916023,22.2091696 24.7600936,22.217076 C24.8764444,22.2303626 24.978807,22.2949708 25.0407953,22.3943392 L26.4390643,24.6343392 C26.6879064,25.0329357 27.1199532,25.2529591 27.5607485,25.2529123 C27.7940117,25.2529123 28.0297076,25.191345 28.2420585,25.0620351 L29.0884678,24.5466667 L33.6751345,32.4910409 L27.0631111,32.4910409 L27.0631111,32.4909942 Z" id="Shape" fill="#878787" fill-rule="nonzero"></path>
            <path d="M34.4853801,16.4914152 L29.5376842,16.4914152 C29.5084912,16.3913918 29.4934269,16.287345 29.4934269,16.1827368 C29.4934269,15.5727719 29.9896608,15.0765848 30.5996257,15.0765848 C30.7259415,15.0765848 30.850152,15.0979181 30.9689357,15.1399298 C31.087345,15.1818947 31.2175906,15.1741754 31.3305263,15.1191111 C31.4433684,15.064 31.5293567,14.965614 31.5691228,14.8464561 C31.5716023,14.8390175 31.5738947,14.8315789 31.5759532,14.8240468 C31.8855205,13.7124211 32.9082573,12.936 34.0630175,12.936 C34.1792281,12.936 34.2997895,12.9445614 34.4212398,12.9613567 C34.6773333,12.9969123 34.9134035,12.8181053 34.9488187,12.562152 C34.9842339,12.3061988 34.8055205,12.0699883 34.549614,12.0345263 C34.3857778,12.0118363 34.2220351,12.0003275 34.0630175,12.0003275 C32.6397661,12.0003275 31.3636491,12.8662456 30.8209591,14.1528889 C30.7477427,14.1449357 30.6738246,14.1409591 30.5996725,14.1409591 C29.473731,14.1409123 28.5577544,15.0568421 28.5577544,16.1827368 C28.5577544,16.5352047 28.6500117,16.8836959 28.8245614,17.1905029 C28.9077427,17.3367018 29.0630175,17.4270409 29.2312047,17.4270409 L34.4853801,17.4270409 C34.7437193,17.4270409 34.9532164,17.2175906 34.9532164,16.9592047 C34.9532164,16.7008187 34.7436725,16.4914152 34.4853801,16.4914152 Z" id="Shape" fill="#878787" fill-rule="nonzero"></path>
            <path d="M15.2730292,17.9884444 L12.9648655,17.9884444 C12.7065263,17.9884444 12.4970292,18.1978947 12.4970292,18.4562807 C12.4970292,18.7146667 12.7065263,18.924117 12.9648655,18.924117 L15.2730292,18.924117 C15.5313684,18.924117 15.7408655,18.7146667 15.7408655,18.4562807 C15.7408187,18.197848 15.5313216,17.9884444 15.2730292,17.9884444 Z" id="Shape" fill="#878787" fill-rule="nonzero"></path>
            <path d="M14.4618947,20.9825029 L11.4678363,20.9825029 C11.2094971,20.9825029 11,21.1919532 11,21.4503392 C11,21.7087251 11.2094971,21.9181754 11.4678363,21.9181754 L14.4618947,21.9181754 C14.7202339,21.9181754 14.929731,21.7087251 14.929731,21.4503392 C14.929731,21.1919532 14.7202339,20.9825029 14.4618947,20.9825029 Z" id="Shape" fill="#878787" fill-rule="nonzero"></path>
            <path d="M17.7335205,18.1255205 C17.6465029,18.0385029 17.5258012,17.9884444 17.4027602,17.9884444 C17.2797193,17.9884444 17.1590175,18.0385029 17.0720468,18.1255205 C16.9850292,18.212538 16.934924,18.3332398 16.934924,18.4562807 C16.934924,18.5793216 16.9849825,18.7000234 17.0720468,18.7870409 C17.1590175,18.8740585 17.2797193,18.924117 17.4027602,18.924117 C17.5258012,18.924117 17.6465029,18.8740585 17.7335205,18.7870409 C17.820538,18.7000234 17.8705965,18.5793216 17.8705965,18.4562807 C17.8705965,18.333193 17.8205848,18.2124912 17.7335205,18.1255205 Z" id="Shape" fill="#878787" fill-rule="nonzero"></path>
            <path d="M29.6188538,12.0002807 L24.3330526,12.0002807 C24.0747135,12.0002807 23.8652164,12.209731 23.8652164,12.468117 C23.8652164,12.7265029 24.0746667,12.9359532 24.3330526,12.9359532 L29.6188538,12.9359532 C29.877193,12.9359532 30.0866901,12.7265029 30.0866901,12.468117 C30.0866901,12.209731 29.8771462,12.0002807 29.6188538,12.0002807 Z" id="Shape" fill="#878787" fill-rule="nonzero"></path>
            <path d="M22.839345,12.1373567 C22.7523743,12.0503392 22.6316725,12.0002807 22.5086316,12.0002807 C22.3855439,12.0002807 22.2648889,12.0503392 22.1778713,12.1373567 C22.0908538,12.2243743 22.0407953,12.345076 22.0407953,12.468117 C22.0407953,12.5911579 22.090807,12.7118596 22.1778713,12.7988772 C22.2649357,12.8858947 22.385076,12.9359532 22.5086316,12.9359532 C22.6316725,12.9359532 22.7523743,12.8858947 22.839345,12.7988772 C22.9263626,12.7118596 22.9764678,12.5911579 22.9764678,12.468117 C22.9764678,12.345076 22.9264094,12.2243743 22.839345,12.1373567 Z" id="Shape" fill="#878787" fill-rule="nonzero"></path>
        </g>
    </g>
</svg>