<?xml version="1.0" encoding="UTF-8"?>
<svg width="48px" height="48px" viewBox="0 0 48 48" version="1.1" xmlns="http://www.w3.org/2000/svg" xmlns:xlink="http://www.w3.org/1999/xlink">
    <!-- Generator: Sketch 47.1 (45422) - http://www.bohemiancoding.com/sketch -->
    <title>Group 50</title>
    <desc>Created with Sketch.</desc>
    <defs></defs>
    <g id="Page-1" stroke="none" stroke-width="1" fill="none" fill-rule="evenodd">
        <g id="Group-50" transform="translate(1.000000, 1.000000)">
            <circle id="Oval-3" stroke="#E3E3E3" fill="#FFFFFF" cx="23" cy="23" r="23"></circle>
            <path d="M25.7284288,25.9787057 C25.5586472,25.9648109 24.6635088,25.8850019 24.2389903,25.8473489 L23.5499142,24.1335789 C23.4437739,23.8689786 23.2234737,23.7046862 22.975384,23.7046862 C22.7133567,23.7046862 22.4901404,23.8872904 22.4136335,24.1474737 C22.3496062,24.3212865 21.9668148,25.3803743 21.7984483,25.846963 L20.2087446,25.9816218 C19.9628421,26.0024639 19.7681442,26.1580078 19.7011579,26.3870994 C19.6301404,26.6297427 19.7176257,26.9042066 19.9137817,27.0546043 C20.0166199,27.1336413 20.7638908,27.6814971 21.1345887,27.9526589 L20.6804366,29.510499 C20.5830877,29.7977856 20.6526472,29.983692 20.7279961,30.0887173 C20.9014659,30.3306316 21.3007251,30.3540468 21.5876257,30.1549318 C21.7339922,30.0532086 22.5723938,29.4541481 22.9723821,29.1683197 C23.3709123,29.4530331 24.2034386,30.0473333 24.3560663,30.1534737 C24.486694,30.2449474 24.645154,30.297653 24.7904483,30.297653 C24.9620741,30.297653 25.1168889,30.2248343 25.2145809,30.0978519 C25.2928889,29.9964717 25.3704678,29.8153255 25.295462,29.529154 C25.2193411,29.2393372 25.0041442,28.3709162 24.900963,27.9522729 L26.0284522,27.0769045 C26.2322846,26.9184444 26.3215712,26.633731 26.2451072,26.3856413 C26.1730604,26.1503743 25.9721442,25.9944444 25.7284288,25.9787057 Z M24.2642495,27.5197349 C24.1500897,27.6082924 24.0988421,27.7561598 24.1332359,27.896308 C24.1332359,27.896308 24.3484327,28.7709474 24.4947992,29.3549981 C24.0270955,29.0227251 23.1854347,28.4207057 23.1854347,28.4207057 C23.1221365,28.3749474 23.0470877,28.3522612 22.9724678,28.3522612 C22.8978051,28.3522612 22.8231423,28.3749474 22.759501,28.4207057 C22.759501,28.4207057 21.9792943,28.978768 21.4976959,29.3216764 L21.9090058,27.9113177 C21.952191,27.7634932 21.8980273,27.6046472 21.773961,27.5135166 C21.7736179,27.5135166 21.0541365,26.9872749 20.6372943,26.6798752 L22.0937973,26.556538 C22.2365185,26.5444444 22.3587407,26.4507836 22.4070721,26.3161248 C22.4070721,26.3161248 22.7836452,25.2738908 22.9900507,24.7033918 L23.6436608,26.3285614 C23.6952515,26.4562729 23.8138285,26.5444873 23.9506745,26.556538 C23.9506745,26.556538 24.8329903,26.635232 25.3460663,26.6802183 L24.2642495,27.5197349 Z" id="Shape" fill="#878787" fill-rule="nonzero"></path>
            <path d="M22.9786433,20.7829318 C19.3465848,20.7829318 16.3915088,23.7380078 16.3915088,27.3700663 C16.3915088,31.0021248 19.3465848,33.9572008 22.9786433,33.9572008 C26.6107018,33.9572008 29.5657778,31.0021248 29.5657778,27.3700663 C29.5657778,23.7380078 26.6107018,20.7829318 22.9786433,20.7829318 Z M22.9786433,33.2252827 C19.7502183,33.2252827 17.1234269,30.5984912 17.1234269,27.3700663 C17.1234269,24.1416413 19.7502183,21.5148499 22.9786433,21.5148499 C26.2070682,21.5148499 28.8338596,24.1416413 28.8338596,27.3700663 C28.8338596,30.5984912 26.2070682,33.2252827 22.9786433,33.2252827 Z" id="Shape" fill="#878787" fill-rule="nonzero"></path>
            <path d="M23.6501793,20.1113957 C23.72154,20.1827563 23.8152437,20.2186082 23.9089045,20.2186082 C24.0026082,20.2186082 24.096269,20.1827563 24.1676296,20.1113957 L30.3543899,13.9246355 C30.4974971,13.7815283 30.4974971,13.5499064 30.3543899,13.4071852 C30.2116686,13.264078 29.9800039,13.264078 29.8369396,13.4071852 L23.6501793,19.5939454 C23.5070721,19.7370526 23.5070721,19.9683314 23.6501793,20.1113957 Z" id="Shape" fill="#878787" fill-rule="nonzero"></path>
            <path d="M33.8499883,14.3030097 L31.6542768,12.1072982 C31.5858324,12.0385107 31.4929006,12.0000858 31.3955517,12.0000858 L14.5617349,12.0000858 C14.464386,12.0000858 14.3714542,12.0385107 14.3030097,12.1072982 L12.1072982,14.3030097 C11.9642339,14.446117 11.9642339,14.6773957 12.1072982,14.82046 L18.5001209,21.2132827 C18.6428421,21.3560039 18.8745068,21.3560039 19.0175712,21.2132827 C19.1602924,21.0701754 19.1602924,20.8385536 19.0175712,20.6958324 L12.8835166,14.5617349 L13.463922,13.9813294 L19.9782378,20.4956452 C20.0495984,20.5670058 20.1433021,20.6028577 20.236963,20.6028577 C20.3306667,20.6028577 20.4243275,20.5670058 20.4956881,20.4956452 C20.6384094,20.3525809 20.6384094,20.1209162 20.4956881,19.9781949 L13.9813723,13.4638791 L14.7132904,12.731961 L31.2440819,12.731961 L31.976,13.4638791 L25.4645575,19.9752788 C25.3214932,20.118386 25.3214932,20.3496647 25.4645575,20.492729 C25.5359181,20.5640897 25.6296218,20.5999415 25.7232827,20.5999415 C25.8169864,20.5999415 25.9106472,20.5640897 25.9820078,20.492729 L32.4934074,13.9813723 L33.0738129,14.5617778 L26.9360702,20.6995205 C26.7933489,20.8425848 26.7933489,21.0739064 26.9360702,21.2169708 C27.0078168,21.2883314 27.1014776,21.3241832 27.1947953,21.3241832 C27.288499,21.3241832 27.3821598,21.2883314 27.4539064,21.2169708 L33.8499883,14.8205029 C33.9930526,14.6773957 33.9930526,14.446117 33.8499883,14.3030097 Z" id="Shape" fill="#878787" fill-rule="nonzero"></path>
            <path d="M26.638191,14.9277154 L19.3191384,14.9277154 C19.1167641,14.9277154 18.9532008,15.0916647 18.9532008,15.293653 C18.9532008,15.4956413 19.1167641,15.6595906 19.3191384,15.6595906 L26.638191,15.6595906 C26.8405653,15.6595906 27.0041287,15.4956413 27.0041287,15.293653 C27.0041287,15.0916647 26.8405224,14.9277154 26.638191,14.9277154 Z" id="Shape" fill="#878787" fill-rule="nonzero"></path>
            <path d="M15.5992086,13.4034971 C15.4561014,13.5466043 15.4561014,13.777883 15.5992086,13.9209474 L21.7936881,20.1154269 C21.8650487,20.1867875 21.9587524,20.2226394 22.0524133,20.2226394 C22.146117,20.2226394 22.2394347,20.1867875 22.3111384,20.1154269 C22.4538596,19.9723197 22.4538596,19.7406979 22.3111384,19.5979766 L16.1167018,13.4034971 C15.9735945,13.2604327 15.7423158,13.2604327 15.5992086,13.4034971 Z" id="Shape" fill="#878787" fill-rule="nonzero"></path>
        </g>
    </g>
</svg>