<?xml version="1.0" encoding="UTF-8"?>
<svg width="48px" height="48px" viewBox="0 0 48 48" version="1.1" xmlns="http://www.w3.org/2000/svg" xmlns:xlink="http://www.w3.org/1999/xlink">
    <!-- Generator: Sketch 47.1 (45422) - http://www.bohemiancoding.com/sketch -->
    <title>Group 21</title>
    <desc>Created with Sketch.</desc>
    <defs></defs>
    <g id="Page-1" stroke="none" stroke-width="1" fill="none" fill-rule="evenodd">
        <g id="Group-21" transform="translate(1.000000, 1.000000)">
            <circle id="Oval-3" stroke="#E3E3E3" cx="23" cy="23" r="23"></circle>
            <g id="medal" transform="translate(12.000000, 12.000000)" fill-rule="nonzero" fill="#FFFFFF">
                <path d="M13.7284288,13.9787057 C13.5586472,13.9648109 12.6635088,13.8850019 12.2389903,13.8473489 L11.5499142,12.1335789 C11.4437739,11.8689786 11.2234737,11.7046862 10.975384,11.7046862 C10.7133567,11.7046862 10.4901404,11.8872904 10.4136335,12.1474737 C10.3496062,12.3212865 9.96681481,13.3803743 9.79844834,13.846963 L8.20874464,13.9816218 C7.96284211,14.0024639 7.76814425,14.1580078 7.70115789,14.3870994 C7.63014035,14.6297427 7.71762573,14.9042066 7.91378168,15.0546043 C8.01661988,15.1336413 8.76389084,15.6814971 9.13458869,15.9526589 L8.68043665,17.510499 C8.58308772,17.7977856 8.65264717,17.983692 8.7279961,18.0887173 C8.90146589,18.3306316 9.30072515,18.3540468 9.58762573,18.1549318 C9.7339922,18.0532086 10.5723938,17.4541481 10.9723821,17.1683197 C11.3709123,17.4530331 12.2034386,18.0473333 12.3560663,18.1534737 C12.486694,18.2449474 12.645154,18.297653 12.7904483,18.297653 C12.9620741,18.297653 13.1168889,18.2248343 13.2145809,18.0978519 C13.2928889,17.9964717 13.3704678,17.8153255 13.295462,17.529154 C13.2193411,17.2393372 13.0041442,16.3709162 12.900963,15.9522729 L14.0284522,15.0769045 C14.2322846,14.9184444 14.3215712,14.633731 14.2451072,14.3856413 C14.1730604,14.1503743 13.9721442,13.9944444 13.7284288,13.9787057 Z M12.2642495,15.5197349 C12.1500897,15.6082924 12.0988421,15.7561598 12.1332359,15.896308 C12.1332359,15.896308 12.3484327,16.7709474 12.4947992,17.3549981 C12.0270955,17.0227251 11.1854347,16.4207057 11.1854347,16.4207057 C11.1221365,16.3749474 11.0470877,16.3522612 10.9724678,16.3522612 C10.8978051,16.3522612 10.8231423,16.3749474 10.759501,16.4207057 C10.759501,16.4207057 9.97929435,16.978768 9.49769591,17.3216764 L9.90900585,15.9113177 C9.95219103,15.7634932 9.89802729,15.6046472 9.77396101,15.5135166 C9.77361793,15.5135166 9.05413645,14.9872749 8.63729435,14.6798752 L10.0937973,14.556538 C10.2365185,14.5444444 10.3587407,14.4507836 10.4070721,14.3161248 C10.4070721,14.3161248 10.7836452,13.2738908 10.9900507,12.7033918 L11.6436608,14.3285614 C11.6952515,14.4562729 11.8138285,14.5444873 11.9506745,14.556538 C11.9506745,14.556538 12.8329903,14.635232 13.3460663,14.6802183 L12.2642495,15.5197349 Z" id="Shape"></path>
                <path d="M10.9786433,8.78293177 C7.3465848,8.78293177 4.39150877,11.7380078 4.39150877,15.3700663 C4.39150877,19.0021248 7.3465848,21.9572008 10.9786433,21.9572008 C14.6107018,21.9572008 17.5657778,19.0021248 17.5657778,15.3700663 C17.5657778,11.7380078 14.6107018,8.78293177 10.9786433,8.78293177 Z M10.9786433,21.2252827 C7.75021832,21.2252827 5.1234269,18.5984912 5.1234269,15.3700663 C5.1234269,12.1416413 7.75021832,9.5148499 10.9786433,9.5148499 C14.2070682,9.5148499 16.8338596,12.1416413 16.8338596,15.3700663 C16.8338596,18.5984912 14.2070682,21.2252827 10.9786433,21.2252827 Z" id="Shape"></path>
                <path d="M11.6501793,8.11139571 C11.72154,8.18275634 11.8152437,8.21860819 11.9089045,8.21860819 C12.0026082,8.21860819 12.096269,8.18275634 12.1676296,8.11139571 L18.3543899,1.92463548 C18.4974971,1.78152827 18.4974971,1.54990643 18.3543899,1.40718519 C18.2116686,1.26407797 17.9800039,1.26407797 17.8369396,1.40718519 L11.6501793,7.59394542 C11.5070721,7.73705263 11.5070721,7.96833138 11.6501793,8.11139571 Z" id="Shape"></path>
                <path d="M21.8499883,2.30300975 L19.6542768,0.107298246 C19.5858324,0.0385107212 19.4929006,8.57699805e-05 19.3955517,8.57699805e-05 L2.56173489,8.57699805e-05 C2.46438596,8.57699805e-05 2.37145419,0.0385107212 2.30300975,0.107298246 L0.107298246,2.30300975 C-0.0357660819,2.44611696 -0.0357660819,2.67739571 0.107298246,2.82046004 L6.50012086,9.21328265 C6.64284211,9.3560039 6.87450682,9.3560039 7.01757115,9.21328265 C7.1602924,9.07017544 7.1602924,8.83855361 7.01757115,8.69583236 L0.883516569,2.56173489 L1.46392203,1.98132943 L7.97823782,8.49564522 C8.04959844,8.56700585 8.14330214,8.6028577 8.23696296,8.6028577 C8.33066667,8.6028577 8.42432749,8.56700585 8.49568811,8.49564522 C8.63840936,8.3525809 8.63840936,8.12091618 8.49568811,7.97819493 L1.98137232,1.46387914 L2.71329045,0.731961014 L19.2440819,0.731961014 L19.976,1.46387914 L13.4645575,7.97527875 C13.3214932,8.11838596 13.3214932,8.34966472 13.4645575,8.49272904 C13.5359181,8.56408967 13.6296218,8.59994152 13.7232827,8.59994152 C13.8169864,8.59994152 13.9106472,8.56408967 13.9820078,8.49272904 L20.4934074,1.98137232 L21.0738129,2.56177778 L14.9360702,8.69952047 C14.7933489,8.8425848 14.7933489,9.07390643 14.9360702,9.21697076 C15.0078168,9.28833138 15.1014776,9.32418324 15.1947953,9.32418324 C15.288499,9.32418324 15.3821598,9.28833138 15.4539064,9.21697076 L21.8499883,2.82050292 C21.9930526,2.67739571 21.9930526,2.44611696 21.8499883,2.30300975 Z" id="Shape"></path>
                <path d="M14.638191,2.9277154 L7.3191384,2.9277154 C7.11676413,2.9277154 6.95320078,3.09166472 6.95320078,3.29365302 C6.95320078,3.49564133 7.11676413,3.65959064 7.3191384,3.65959064 L14.638191,3.65959064 C14.8405653,3.65959064 15.0041287,3.49564133 15.0041287,3.29365302 C15.0041287,3.09166472 14.8405224,2.9277154 14.638191,2.9277154 Z" id="Shape"></path>
                <path d="M3.59920858,1.40349708 C3.45610136,1.54660429 3.45610136,1.77788304 3.59920858,1.92094737 L9.79368811,8.1154269 C9.86504873,8.18678752 9.95875244,8.22263938 10.0524133,8.22263938 C10.146117,8.22263938 10.2394347,8.18678752 10.3111384,8.1154269 C10.4538596,7.97231969 10.4538596,7.74069786 10.3111384,7.59797661 L4.11670175,1.40349708 C3.97359454,1.26043275 3.74231579,1.26043275 3.59920858,1.40349708 Z" id="Shape"></path>
            </g>
        </g>
    </g>
</svg>