<?xml version="1.0" encoding="UTF-8"?>
<svg width="48px" height="48px" viewBox="0 0 48 48" version="1.1" xmlns="http://www.w3.org/2000/svg" xmlns:xlink="http://www.w3.org/1999/xlink">
    <!-- Generator: Sketch 47.1 (45422) - http://www.bohemiancoding.com/sketch -->
    <title>Group 17</title>
    <desc>Created with Sketch.</desc>
    <defs></defs>
    <g id="Page-1" stroke="none" stroke-width="1" fill="none" fill-rule="evenodd">
        <g id="Group-17" transform="translate(1.000000, 1.000000)">
            <circle id="Oval-3" stroke="#E3E3E3" cx="23" cy="23" r="23"></circle>
            <g id="Group" transform="translate(12.000000, 14.000000)" fill-rule="nonzero" fill="#FFFFFF">
                <g id="Shape">
                    <g>
                        <path d="M14.6756097,18.8264664 C12.269722,18.8264664 10.016278,17.641851 8.64777074,15.6576606 C8.52988293,15.4867106 8.57270244,15.2525275 8.74339025,15.1344957 C8.9141317,15.0165177 9.1479756,15.0593358 9.26591707,15.2302857 C10.4942146,17.0111306 12.5164976,18.0743297 14.6756097,18.0743297 C18.3000829,18.0743297 21.2487805,15.1168742 21.2487805,11.4816362 L21.2487805,6.03573627 C21.2487805,5.40335044 20.7349463,4.8888889 20.1033317,4.8888889 L15.3124829,4.8888889 C15.105039,4.8888889 14.9368732,4.72057143 14.9368732,4.5128205 C14.9368732,4.30512332 15.105039,4.13675214 15.3124829,4.13675214 L20.1033317,4.13675214 C21.1491903,4.13675214 22,4.98865445 22,6.03573627 L22,11.4816362 C22,15.5315702 18.7143268,18.8264664 14.6756097,18.8264664"></path>
                        <path d="M17.8523078,10.0665607 C17.1037176,10.0665607 16.4337371,9.82576949 16.0601127,9.42240928 C15.9190444,9.27010158 15.9280054,9.03221147 16.0801273,8.89097094 C16.2321956,8.74973039 16.4698493,8.75864859 16.6109176,8.91095629 C16.7833224,9.09711013 17.2118932,9.31442393 17.8523078,9.31442393 C18.4927224,9.31442393 18.9212932,9.09705641 19.093698,8.91095629 C19.2347663,8.75864859 19.4723663,8.74967668 19.624542,8.89097094 C19.7766103,9.03221147 19.7855712,9.27015532 19.6445029,9.42240928 C19.2708785,9.82576949 18.600898,10.0665607 17.8523078,10.0665607"></path>
                        <path d="M11.7832912,15.9625123 C11.6811254,15.9625123 11.5793351,15.9210374 11.505179,15.8393768 C11.3656668,15.6856186 11.3770424,15.4477822 11.5306132,15.3080996 C12.4041741,14.5133597 13.5211303,14.0757236 14.6755937,14.0757236 C15.8300571,14.0757236 16.9469595,14.5133597 17.8205741,15.3080996 C17.9741449,15.4477822 17.9855205,15.6856186 17.8460083,15.8393231 C17.7065497,15.9930813 17.4688961,16.0044171 17.3154327,15.8647883 C16.5803644,15.196085 15.6428424,14.8278603 14.6755937,14.8278603 C13.7082912,14.8278603 12.7708229,15.196085 12.0358083,15.8647883 C11.9637985,15.9302242 11.8734376,15.9625123 11.7832912,15.9625123"></path>
                        <path d="M1.8966522,0.805876924 C1.26503756,0.805876924 0.751203415,1.32033846 0.751203415,1.9527243 L0.751203415,7.39862417 C0.751203415,11.0338086 3.69990097,13.9913177 7.32437415,13.9913177 C10.9488473,13.9913177 13.8975449,11.0338086 13.8975449,7.39862417 L13.8975449,1.9527243 C13.8975449,1.32033846 13.3837107,0.805876924 12.7521497,0.805876924 L1.8966522,0.805876924 Z M7.32437415,14.7434544 C3.28571074,14.7434544 -1.6097561e-05,11.4485582 -1.6097561e-05,7.39862417 L-1.6097561e-05,1.9527243 C-1.6097561e-05,0.905588766 0.850847318,0.053740171 1.8966522,0.053740171 L12.7521497,0.053740171 C13.7979546,0.053740171 14.6487644,0.905588766 14.6487644,1.9527243 L14.6487644,7.39862417 C14.6487644,11.4485582 11.3630376,14.7434544 7.32437415,14.7434544 L7.32437415,14.7434544 Z"></path>
                        <path d="M2.70616634,5.71491234 C2.6147322,5.71491234 2.52313707,5.68171086 2.45085903,5.61455581 C2.29873707,5.47331526 2.2897761,5.23542515 2.43084439,5.08311747 C2.80446878,4.67975726 3.47444926,4.43896606 4.22303952,4.43896606 C4.97162975,4.43896606 5.64161025,4.67975726 6.01523463,5.08311747 C6.15630293,5.23537143 6.14734196,5.47331526 5.99527366,5.61455581 C5.84320537,5.75579633 5.6055517,5.74693188 5.46442975,5.59457046 C5.29202489,5.40847034 4.86345415,5.19110282 4.22303952,5.19110282 C3.58262489,5.19110282 3.15405415,5.40841659 2.98164926,5.59457046 C2.90765415,5.67445811 2.8070444,5.71491234 2.70616634,5.71491234"></path>
                        <path d="M8.98421511,5.71491234 C8.89278097,5.71491234 8.80118585,5.68171086 8.72890781,5.61455581 C8.57678585,5.47331526 8.56782489,5.23542515 8.70889318,5.08311747 C9.08251756,4.67975726 9.75249804,4.43896606 10.5010883,4.43896606 C11.2496785,4.43896606 11.919659,4.67975726 12.2932834,5.08311747 C12.4343517,5.23537143 12.4253907,5.47331526 12.2733224,5.61455581 C12.1213078,5.75579633 11.8836005,5.74693188 11.7424785,5.59457046 C11.5700737,5.40847034 11.1415029,5.19110282 10.5010883,5.19110282 C9.86067366,5.19110282 9.43210293,5.40841659 9.25969804,5.59457046 C9.18570293,5.67445811 9.08509318,5.71491234 8.98421511,5.71491234"></path>
                        <path d="M7.32439025,11.664588 C6.16992682,11.664588 5.0530244,11.2269519 4.17940975,10.432212 C4.02583903,10.2925294 4.01446341,10.0546931 4.1539756,9.90098853 C4.29343415,9.74723027 4.53098048,9.73584079 4.68455122,9.87552332 C5.41961952,10.5442266 6.35714148,10.9124513 7.32439025,10.9124513 C8.29169267,10.9124513 9.22921463,10.5442266 9.9641756,9.87552332 C10.1176927,9.73589451 10.355239,9.74717655 10.4947512,9.90093479 C10.6343171,10.0546931 10.6229415,10.2925294 10.4693707,10.432212 C9.59580975,11.2269519 8.47890733,11.664588 7.32439025,11.664588"></path>
                    </g>
                </g>
            </g>
        </g>
    </g>
</svg>