<?xml version="1.0" encoding="UTF-8"?>
<svg width="48px" height="48px" viewBox="0 0 48 48" version="1.1" xmlns="http://www.w3.org/2000/svg" xmlns:xlink="http://www.w3.org/1999/xlink">
    <!-- Generator: Sketch 47.1 (45422) - http://www.bohemiancoding.com/sketch -->
    <title>Group 52</title>
    <desc>Created with Sketch.</desc>
    <defs></defs>
    <g id="Page-1" stroke="none" stroke-width="1" fill="none" fill-rule="evenodd">
        <g id="Group-52" transform="translate(1.000000, 1.000000)">
            <circle id="Oval-3" stroke="#E3E3E3" fill="#FFFFFF" cx="23" cy="23" r="23"></circle>
            <g id="Group" transform="translate(11.000000, 11.000000)" fill-rule="nonzero" fill="#878787">
                <path d="M7.35944348,20.7109565 L7.62573913,19.9104 C4.59714783,18.4086261 2.50434783,15.290713 2.50434783,11.6869565 C2.50434783,6.624 6.624,2.50434783 11.6869565,2.50434783 C16.749913,2.50434783 20.8695652,6.624 20.8695652,11.6869565 C20.8695652,15.290713 18.7767652,18.4086261 15.7481739,19.9104 L16.0144696,20.7109565 C19.3769739,19.0948174 21.7043478,15.6672 21.7043478,11.6869565 C21.7043478,6.15485217 17.2190609,1.66956522 11.6869565,1.66956522 C6.15485217,1.66956522 1.66956522,6.15485217 1.66956522,11.6869565 C1.66956522,15.6672 3.99693913,19.0948174 7.35944348,20.7109565 Z" id="Shape"></path>
                <path d="M11.6869565,20.8695652 C11.1101217,20.8695652 10.5474783,20.8094609 9.99986087,20.7076174 L9.73189565,21.5106783 C10.3646609,21.6358957 11.0174609,21.7043478 11.6869565,21.7043478 C12.3564522,21.7043478 13.0092522,21.6358957 13.6420174,21.5106783 L13.3740522,20.7076174 C12.8264348,20.8094609 12.2637913,20.8695652 11.6869565,20.8695652 Z" id="Shape"></path>
                <path d="M5.00869565,11.6869565 C5.00869565,8.00473043 8.00473043,5.00869565 11.6869565,5.00869565 C15.3691826,5.00869565 18.3652174,8.00473043 18.3652174,11.6869565 C18.3652174,14.1846261 16.984487,16.3642435 14.9476174,17.5095652 L15.2164174,18.3159652 C17.5846957,17.0496 19.2,14.5552696 19.2,11.6877913 C19.2,7.54476522 15.8291478,4.17474783 11.6869565,4.17474783 C7.54476522,4.17474783 4.17391304,7.54476522 4.17391304,11.6877913 C4.17391304,14.5561043 5.79005217,17.0504348 8.15749565,18.3159652 L8.42629565,17.5095652 C6.38942609,16.3642435 5.00869565,14.1846261 5.00869565,11.6869565 Z" id="Shape"></path>
                <path d="M11.6869565,18.3652174 C11.3864348,18.3652174 11.0925913,18.3385043 10.802087,18.3001043 L10.5349565,19.1023304 C10.9114435,19.1607652 11.2946087,19.2 11.6869565,19.2 C12.0793043,19.2 12.4624696,19.1607652 12.8389565,19.1023304 L12.5718261,18.3001043 C12.2813217,18.3385043 11.9874783,18.3652174 11.6869565,18.3652174 Z" id="Shape"></path>
                <circle id="Oval" cx="11.6869565" cy="0.834782609" r="1"></circle>
                <circle id="Oval" cx="11.6869565" cy="22.5391304" r="1"></circle>
                <circle id="Oval" cx="6.26086957" cy="2.28897391" r="1"></circle>
                <circle id="Oval" cx="17.1130435" cy="21.0857739" r="1"></circle>
                <circle id="Oval" cx="2.28897391" cy="6.26086957" r="1"></circle>
                <circle id="Oval" cx="21.0849391" cy="17.1130435" r="1"></circle>
                <circle id="Oval" cx="0.834782609" cy="11.6869565" r="1"></circle>
                <circle id="Oval" cx="22.5391304" cy="11.6869565" r="1"></circle>
                <circle id="Oval" cx="2.28897391" cy="17.1130435" r="1"></circle>
                <circle id="Oval" cx="21.0857739" cy="6.26086957" r="1"></circle>
                <circle id="Oval" cx="6.26086957" cy="21.0849391" r="1"></circle>
                <circle id="Oval" cx="17.1130435" cy="2.28897391" r="1"></circle>
                <path d="M12.3080348,12.2312348 C12.4365913,12.0834783 12.5217391,11.8973217 12.5217391,11.6869565 C12.5217391,11.2261565 12.1477565,10.8521739 11.6869565,10.8521739 C11.2261565,10.8521739 10.8521739,11.2261565 10.8521739,11.6869565 C10.8521739,11.8973217 10.9373217,12.084313 11.0658783,12.2312348 L7.11735652,24.0759652 L7.90873043,24.3397565 L11.6869565,13.005913 L15.4651826,24.3405913 L16.2565565,24.0768 L12.3080348,12.2312348 Z" id="Shape"></path>
            </g>
        </g>
    </g>
</svg>