<?xml version="1.0" encoding="UTF-8"?>
<svg width="48px" height="48px" viewBox="0 0 48 48" version="1.1" xmlns="http://www.w3.org/2000/svg" xmlns:xlink="http://www.w3.org/1999/xlink">
    <!-- Generator: Sketch 47.1 (45422) - http://www.bohemiancoding.com/sketch -->
    <title>Group 69</title>
    <desc>Created with Sketch.</desc>
    <defs></defs>
    <g id="Page-1" stroke="none" stroke-width="1" fill="none" fill-rule="evenodd">
        <g id="Group-69" transform="translate(1.000000, 1.000000)">
            <g id="Group-57" stroke="#FFFFFF">
                <circle id="Oval-3" cx="23" cy="23" r="23"></circle>
            </g>
            <g id="car" transform="translate(11.000000, 13.000000)" fill-rule="nonzero" fill="#FFFFFF">
                <path d="M21.95625,7.35 L19.21875,0.9421875 C18.984375,0.3890625 18.440625,0.0328125 17.840625,0.0328125 L6.159375,0.0328125 C5.559375,0.0328125 5.0203125,0.3890625 4.78125,0.9421875 L2.04375,7.35 C0.8390625,7.903125 0,9.121875 0,10.5328125 L0,14.53125 C0,15.35625 0.675,16.03125 1.5,16.03125 L2.0015625,16.03125 L2.0015625,18.5296875 C2.0015625,19.3546875 2.6765625,20.0296875 3.5015625,20.0296875 L5.503125,20.0296875 C6.328125,20.0296875 7.003125,19.3546875 7.003125,18.5296875 L7.003125,16.03125 L17.0015625,16.03125 L17.0015625,18.5296875 C17.0015625,19.3546875 17.6765625,20.0296875 18.5015625,20.0296875 L20.503125,20.0296875 C21.328125,20.0296875 22.003125,19.3546875 22.003125,18.5296875 L22.003125,16.03125 L22.5,16.03125 C23.325,16.03125 24,15.35625 24,14.53125 L24,10.5328125 C24,9.121875 23.1609375,7.903125 21.95625,7.35 Z M5.7,1.3359375 C5.7796875,1.153125 5.9578125,1.03125 6.159375,1.03125 L17.840625,1.03125 C18.0421875,1.03125 18.2203125,1.1484375 18.3,1.33125 L20.7375,7.0359375 C20.6578125,7.03125 20.578125,7.0265625 20.503125,7.0265625 L3.5015625,7.0265625 C3.421875,7.0265625 3.3421875,7.03125 3.2671875,7.0359375 L5.7,1.3359375 Z M6,18.5296875 C6,18.80625 5.775,19.03125 5.4984375,19.03125 L3.5015625,19.03125 C3.225,19.03125 3,18.80625 3,18.5296875 L3,16.03125 L6,16.03125 L6,18.5296875 Z M20.4984375,19.03125 L18.496875,19.03125 C18.2203125,19.03125 17.9953125,18.80625 17.9953125,18.5296875 L17.9953125,16.03125 L20.9953125,16.03125 L20.9953125,18.5296875 L21,18.5296875 C21,18.80625 20.775,19.03125 20.4984375,19.03125 Z M22.5,15.0328125 L21.5015625,15.0328125 L17.503125,15.0328125 L6.5015625,15.0328125 L2.4984375,15.0328125 L1.5,15.0328125 C1.2234375,15.0328125 0.9984375,14.8078125 0.9984375,14.53125 L0.9984375,10.5328125 C0.9984375,9.1546875 2.11875,8.034375 3.496875,8.034375 L20.4984375,8.034375 C21.8765625,8.034375 22.996875,9.1546875 22.996875,10.5328125 L22.996875,14.53125 L23.0015625,14.53125 C23.0015625,14.8078125 22.7765625,15.0328125 22.5,15.0328125 Z" id="Shape"></path>
                <path d="M4.5,9.0328125 C3.121875,9.0328125 2.0015625,10.153125 2.0015625,11.53125 C2.0015625,12.909375 3.121875,14.0296875 4.5,14.0296875 C5.878125,14.0296875 6.9984375,12.909375 6.9984375,11.53125 C6.9984375,10.153125 5.878125,9.0328125 4.5,9.0328125 Z M4.5,13.03125 C3.675,13.03125 3,12.35625 3,11.53125 C3,10.70625 3.675,10.03125 4.5,10.03125 C5.325,10.03125 6,10.70625 6,11.53125 C6,12.35625 5.325,13.03125 4.5,13.03125 Z" id="Shape"></path>
                <path d="M19.5,9.0328125 C18.121875,9.0328125 17.0015625,10.153125 17.0015625,11.53125 C17.0015625,12.909375 18.121875,14.0296875 19.5,14.0296875 C20.878125,14.0296875 21.9984375,12.909375 21.9984375,11.53125 C21.9984375,10.153125 20.878125,9.0328125 19.5,9.0328125 Z M19.5,13.03125 C18.675,13.03125 18,12.35625 18,11.53125 C18,10.70625 18.675,10.03125 19.5,10.03125 C20.325,10.03125 21,10.70625 21,11.53125 C21,12.35625 20.325,13.03125 19.5,13.03125 Z" id="Shape"></path>
                <path d="M15.5015625,12.0328125 L8.4984375,12.0328125 C8.221875,12.0328125 7.996875,12.2578125 7.996875,12.534375 C7.996875,12.8109375 8.221875,13.0359375 8.4984375,13.0359375 L15.496875,13.0359375 C15.7734375,13.0359375 15.9984375,12.8109375 15.9984375,12.534375 C15.9984375,12.2578125 15.778125,12.0328125 15.5015625,12.0328125 Z" id="Shape"></path>
                <path d="M15.5015625,10.03125 L8.4984375,10.03125 C8.221875,10.03125 7.996875,10.25625 7.996875,10.5328125 C7.996875,10.809375 8.221875,11.034375 8.4984375,11.034375 L15.496875,11.034375 C15.7734375,11.034375 15.9984375,10.809375 15.9984375,10.5328125 C15.9984375,10.25625 15.778125,10.03125 15.5015625,10.03125 Z" id="Shape"></path>
            </g>
        </g>
    </g>
</svg>