<?xml version="1.0" encoding="UTF-8"?>
<svg width="48px" height="48px" viewBox="0 0 48 48" version="1.1" xmlns="http://www.w3.org/2000/svg" xmlns:xlink="http://www.w3.org/1999/xlink">
    <!-- Generator: Sketch 47.1 (45422) - http://www.bohemiancoding.com/sketch -->
    <title>Group 6</title>
    <desc>Created with Sketch.</desc>
    <defs></defs>
    <g id="Page-1" stroke="none" stroke-width="1" fill="none" fill-rule="evenodd">
        <g id="Group-6" transform="translate(1.000000, 1.000000)">
            <circle id="Oval-3" stroke="#E3E3E3" cx="23" cy="23" r="23"></circle>
            <g id="swimmer" transform="translate(9.000000, 16.000000)" fill-rule="nonzero" fill="#FFFFFF">
                <path d="M0.200354956,9.7460283 C0.38923963,9.87386037 2.06559111,11 3.10445682,11 C3.74784524,11 4.26137544,10.64694 4.72178184,10.3364907 C5.10545383,10.0747393 5.47141789,9.82516244 5.84918723,9.82516244 C6.22695658,9.82516244 6.58701799,10.0747393 6.97659263,10.3364907 C7.43109638,10.64694 7.95052923,11 8.59391765,11 C9.24320872,11 9.73903099,10.64694 10.1758268,10.3304035 C10.5535961,10.0564776 10.8841443,9.82516244 11.256011,9.82516244 C11.6337804,9.82516244 11.9938418,10.0747393 12.3834164,10.3364907 C12.8379202,10.64694 13.357353,11 14.0007414,11 C14.6441299,11 15.1576601,10.64694 15.6180665,10.3364907 C16.0017385,10.0747393 16.3677025,9.82516244 16.7454719,9.82516244 C17.1173386,9.82516244 17.4419841,10.0625648 17.8256561,10.3304035 C18.2624519,10.64694 18.7641768,11 19.4075652,11 C20.0509536,11 20.5644839,10.64694 21.0248902,10.3364907 C21.4085622,10.0747393 21.7745263,9.82516244 22.1522956,9.82516244 C22.530065,9.82516244 22.8901264,10.0747393 23.279701,10.3364907 C23.7342048,10.64694 24.2536376,11 24.8970261,11 C25.9417944,11 27.6181459,9.87386037 27.8011279,9.7460283 C28.0077205,9.60602175 28.0608443,9.32600865 27.9250835,9.11295521 C27.7893226,8.89990177 27.5178009,8.8451166 27.3112083,8.98512314 C26.6855278,9.41123003 25.481388,10.0869138 24.8911234,10.0869138 C24.5133541,10.0869138 24.1532927,9.83733692 23.763718,9.57558555 C23.3092143,9.26513624 22.7897814,8.91207625 22.146393,8.91207625 C21.5030046,8.91207625 20.9894744,9.26513624 20.529068,9.57558555 C20.145396,9.83733692 19.7794319,10.0869138 19.4016626,10.0869138 C19.0297959,10.0869138 18.7051503,9.8495114 18.3214784,9.58167279 C17.8846825,9.26513624 17.3829576,8.91207625 16.7395692,8.91207625 C16.0961808,8.91207625 15.5826506,9.26513624 15.1222442,9.57558555 C14.7385722,9.83733692 14.3726081,10.0869138 13.9948388,10.0869138 C13.6170694,10.0869138 13.257008,9.83733692 12.8674334,9.57558555 C12.4129296,9.26513624 11.8934968,8.91207625 11.2501084,8.91207625 C10.6008173,8.91207625 10.104995,9.26513624 9.66819923,9.58167279 C9.29042988,9.85559864 8.95988171,10.0869138 8.588015,10.0869138 C8.21024566,10.0869138 7.85018425,9.83733692 7.46060961,9.57558555 C7.42519373,9.55123658 7.3956805,9.53297486 7.36026462,9.50862589 L16.3204813,4.212726 C16.426729,4.15185359 16.5034634,4.04837049 16.5329766,3.92662566 C16.5624898,3.80488084 16.5388792,3.67704877 16.4739501,3.57356567 L14.3608028,0.207321255 C14.2663605,0.0551402234 14.0892811,-0.0239939129 13.9181044,0.00644229335 L7.65539693,1.10214572 C7.41338844,1.14475641 7.254017,1.38215882 7.29533552,1.62564847 C7.33665404,1.87522536 7.56685724,2.03958087 7.80296308,1.99697018 L13.7823435,0.956051929 L15.4823056,3.66487429 L6.49257565,8.97294866 C6.47486772,8.98512314 6.45715978,8.99729763 6.43945184,9.00947211 C6.25646981,8.9485997 6.06168249,8.91207625 5.84918723,8.91207625 C5.20579881,8.91207625 4.69226861,9.26513624 4.23186221,9.57558555 C3.84819022,9.83733692 3.48222616,10.0869138 3.10445682,10.0869138 C2.52009486,10.0869138 1.31005242,9.41123003 0.684371933,8.98512314 C0.477779321,8.8451166 0.206257602,8.90598901 0.0704967431,9.11295521 C-0.0593614701,9.31992141 -0.00623765561,9.60602175 0.200354956,9.7460283 Z" id="Shape"></path>
                <path d="M27.3229409,12.072408 C26.6971932,12.4800558 25.492924,13.1264689 24.902596,13.1264689 C24.524786,13.1264689 24.1646859,12.8877037 23.7750695,12.6372914 C23.3205169,12.3402909 22.8010282,12.0025255 22.1575707,12.0025255 C21.5141131,12.0025255 21.0005278,12.3402909 20.5400719,12.6372914 C20.1563587,12.8877037 19.7903553,13.1264689 19.4125454,13.1264689 C19.0406387,13.1264689 18.7159583,12.8993508 18.3322451,12.643115 C17.8954024,12.3402909 17.3936236,12.0025255 16.750166,12.0025255 C16.1067085,12.0025255 15.5931231,12.3402909 15.1326672,12.6372914 C14.748954,12.8877037 14.3829506,13.1264689 14.0051407,13.1264689 C13.6273308,13.1264689 13.2672307,12.8877037 12.8776142,12.6372914 C12.4230616,12.3402909 11.903573,12.0025255 11.2601154,12.0025255 C10.6107546,12.0025255 10.1148791,12.3402909 9.67803633,12.643115 C9.30022639,12.9051743 8.9696427,13.1264689 8.59773605,13.1264689 C8.21992612,13.1264689 7.85982602,12.8877037 7.47020953,12.6372914 C7.01565695,12.3402909 6.4961683,12.0025255 5.85271075,12.0025255 C5.20925321,12.0025255 4.69566783,12.3402909 4.23521198,12.6372914 C3.85149876,12.8877037 3.48549539,13.1264689 3.10768546,13.1264689 C2.52326072,13.1264689 1.31308828,12.4800558 0.687340575,12.072408 C0.480725767,11.9384665 0.209174878,11.9967019 0.0733994332,12.1947023 C-0.0623760115,12.3985263 -0.00334320945,12.6664091 0.197368318,12.8003506 C0.386273284,12.9226449 2.06280486,14 3.10178218,14 C3.74523972,14 4.2588251,13.6622346 4.71928095,13.365234 C5.10299417,13.1148218 5.46899754,12.8760566 5.84680747,12.8760566 C6.22461741,12.8760566 6.5847175,13.1148218 6.97433399,13.365234 C7.42888657,13.6622346 7.94837523,14 8.59183277,14 C9.24119359,14 9.73706913,13.6622346 10.1739119,13.3594105 C10.5517218,13.0973512 10.8823055,12.8760566 11.2542121,12.8760566 C11.6320221,12.8760566 11.9921222,13.1148218 12.3817387,13.365234 C12.8362912,13.6622346 13.3557799,14 13.9992374,14 C14.642695,14 15.1562804,13.6622346 15.6167362,13.365234 C16.0004494,13.1148218 16.3664528,12.8760566 16.7442627,12.8760566 C17.1161694,12.8760566 17.4408498,13.1031747 17.824563,13.3594105 C18.2614057,13.6622346 18.7631846,14 19.4066421,14 C20.0500996,14 20.563685,13.6622346 21.0241409,13.365234 C21.4078541,13.1148218 21.7738575,12.8760566 22.1516674,12.8760566 C22.5294773,12.8760566 22.8895774,13.1148218 23.2791939,13.365234 C23.7337465,13.6622346 24.2532352,14 24.8966927,14 C25.9415733,14 27.6181049,12.9226449 27.8011066,12.8003506 C28.0077214,12.6664091 28.0608509,12.3985263 27.9250754,12.1947023 C27.8011066,11.9967019 27.5236524,11.9384665 27.3229409,12.072408 Z" id="Shape"></path>
                <path d="M21.0378274,6 C21.8234724,6 22.5625606,5.68543689 23.1270611,5.11456311 C23.6915616,4.54368932 24,3.79223301 24,3 C24,2.20776699 23.685742,1.45631068 23.1270611,0.885436893 C22.5625606,0.314563107 21.8234724,0 21.0378274,0 C19.3617847,0 18,1.34563107 18,3 C18,4.65436893 19.3617847,6 21.0378274,6 Z M21.0378274,0.873786408 C22.1668283,0.873786408 23.1212415,1.84660194 23.1212415,3 C23.1212415,4.15339806 22.1668283,5.12621359 21.0378274,5.12621359 C19.8448109,5.12621359 18.8729389,4.17087379 18.8729389,3 C18.8729389,1.82912621 19.8448109,0.873786408 21.0378274,0.873786408 Z" id="Shape"></path>
            </g>
        </g>
    </g>
</svg>