<?xml version="1.0" encoding="UTF-8"?>
<svg width="48px" height="48px" viewBox="0 0 48 48" version="1.1" xmlns="http://www.w3.org/2000/svg" xmlns:xlink="http://www.w3.org/1999/xlink">
    <!-- Generator: Sketch 47.1 (45422) - http://www.bohemiancoding.com/sketch -->
    <title>Group 35</title>
    <desc>Created with Sketch.</desc>
    <defs></defs>
    <g id="Page-1" stroke="none" stroke-width="1" fill="none" fill-rule="evenodd">
        <g id="Group-35" transform="translate(1.000000, 1.000000)">
            <circle id="Oval-3" stroke="#E3E3E3" fill="#FFFFFF" cx="23" cy="23" r="23"></circle>
            <path d="M9.20035496,25.7460283 C9.38923963,25.8738604 11.0655911,27 12.1044568,27 C12.7478452,27 13.2613754,26.64694 13.7217818,26.3364907 C14.1054538,26.0747393 14.4714179,25.8251624 14.8491872,25.8251624 C15.2269566,25.8251624 15.587018,26.0747393 15.9765926,26.3364907 C16.4310964,26.64694 16.9505292,27 17.5939177,27 C18.2432087,27 18.739031,26.64694 19.1758268,26.3304035 C19.5535961,26.0564776 19.8841443,25.8251624 20.256011,25.8251624 C20.6337804,25.8251624 20.9938418,26.0747393 21.3834164,26.3364907 C21.8379202,26.64694 22.357353,27 23.0007414,27 C23.6441299,27 24.1576601,26.64694 24.6180665,26.3364907 C25.0017385,26.0747393 25.3677025,25.8251624 25.7454719,25.8251624 C26.1173386,25.8251624 26.4419841,26.0625648 26.8256561,26.3304035 C27.2624519,26.64694 27.7641768,27 28.4075652,27 C29.0509536,27 29.5644839,26.64694 30.0248902,26.3364907 C30.4085622,26.0747393 30.7745263,25.8251624 31.1522956,25.8251624 C31.530065,25.8251624 31.8901264,26.0747393 32.279701,26.3364907 C32.7342048,26.64694 33.2536376,27 33.8970261,27 C34.9417944,27 36.6181459,25.8738604 36.8011279,25.7460283 C37.0077205,25.6060218 37.0608443,25.3260087 36.9250835,25.1129552 C36.7893226,24.8999018 36.5178009,24.8451166 36.3112083,24.9851231 C35.6855278,25.41123 34.481388,26.0869138 33.8911234,26.0869138 C33.5133541,26.0869138 33.1532927,25.8373369 32.763718,25.5755855 C32.3092143,25.2651362 31.7897814,24.9120762 31.146393,24.9120762 C30.5030046,24.9120762 29.9894744,25.2651362 29.529068,25.5755855 C29.145396,25.8373369 28.7794319,26.0869138 28.4016626,26.0869138 C28.0297959,26.0869138 27.7051503,25.8495114 27.3214784,25.5816728 C26.8846825,25.2651362 26.3829576,24.9120762 25.7395692,24.9120762 C25.0961808,24.9120762 24.5826506,25.2651362 24.1222442,25.5755855 C23.7385722,25.8373369 23.3726081,26.0869138 22.9948388,26.0869138 C22.6170694,26.0869138 22.257008,25.8373369 21.8674334,25.5755855 C21.4129296,25.2651362 20.8934968,24.9120762 20.2501084,24.9120762 C19.6008173,24.9120762 19.104995,25.2651362 18.6681992,25.5816728 C18.2904299,25.8555986 17.9598817,26.0869138 17.588015,26.0869138 C17.2102457,26.0869138 16.8501842,25.8373369 16.4606096,25.5755855 C16.4251937,25.5512366 16.3956805,25.5329749 16.3602646,25.5086259 L25.3204813,20.212726 C25.426729,20.1518536 25.5034634,20.0483705 25.5329766,19.9266257 C25.5624898,19.8048808 25.5388792,19.6770488 25.4739501,19.5735657 L23.3608028,16.2073213 C23.2663605,16.0551402 23.0892811,15.9760061 22.9181044,16.0064423 L16.6553969,17.1021457 C16.4133884,17.1447564 16.254017,17.3821588 16.2953355,17.6256485 C16.336654,17.8752254 16.5668572,18.0395809 16.8029631,17.9969702 L22.7823435,16.9560519 L24.4823056,19.6648743 L15.4925757,24.9729487 C15.4748677,24.9851231 15.4571598,24.9972976 15.4394518,25.0094721 C15.2564698,24.9485997 15.0616825,24.9120762 14.8491872,24.9120762 C14.2057988,24.9120762 13.6922686,25.2651362 13.2318622,25.5755855 C12.8481902,25.8373369 12.4822262,26.0869138 12.1044568,26.0869138 C11.5200949,26.0869138 10.3100524,25.41123 9.68437193,24.9851231 C9.47777932,24.8451166 9.2062576,24.905989 9.07049674,25.1129552 C8.94063853,25.3199214 8.99376234,25.6060218 9.20035496,25.7460283 Z" id="Shape" fill="#878787" fill-rule="nonzero"></path>
            <path d="M30.0378274,22 C30.8234724,22 31.5625606,21.6854369 32.1270611,21.1145631 C32.6915616,20.5436893 33,19.792233 33,19 C33,18.207767 32.685742,17.4563107 32.1270611,16.8854369 C31.5625606,16.3145631 30.8234724,16 30.0378274,16 C28.3617847,16 27,17.3456311 27,19 C27,20.6543689 28.3617847,22 30.0378274,22 Z M30.0378274,16.8737864 C31.1668283,16.8737864 32.1212415,17.8466019 32.1212415,19 C32.1212415,20.1533981 31.1668283,21.1262136 30.0378274,21.1262136 C28.8448109,21.1262136 27.8729389,20.1708738 27.8729389,19 C27.8729389,17.8291262 28.8448109,16.8737864 30.0378274,16.8737864 Z" id="Shape" fill="#878787" fill-rule="nonzero"></path>
        </g>
    </g>
</svg>