<?xml version="1.0" encoding="UTF-8"?>
<svg width="48px" height="48px" viewBox="0 0 48 48" version="1.1" xmlns="http://www.w3.org/2000/svg" xmlns:xlink="http://www.w3.org/1999/xlink">
    <!-- Generator: Sketch 47.1 (45422) - http://www.bohemiancoding.com/sketch -->
    <title>Group 57</title>
    <desc>Created with Sketch.</desc>
    <defs></defs>
    <g id="Page-1" stroke="none" stroke-width="1" fill="none" fill-rule="evenodd">
        <g id="Group-57" transform="translate(1.000000, 1.000000)">
            <circle id="Oval-3" stroke="#E3E3E3" fill="#FFFFFF" cx="23" cy="23" r="23"></circle>
            <path d="M19.1817969,12.0298125 C17.6545156,12.0298125 16.4545156,13.7207344 16.4545156,15.8480156 C16.4545156,17.9752969 17.6545156,19.6662188 19.1817969,19.6662188 C20.7090781,19.6662188 21.9090781,17.9752969 21.9090781,15.8480156 C21.9090781,13.7207344 20.7090781,12.0298125 19.1817969,12.0298125 Z M19.1817969,18.5752969 C18.3090781,18.5752969 17.5454375,17.3207344 17.5454375,15.8480156 C17.5454375,14.3752969 18.3090781,13.1207344 19.1817969,13.1207344 C20.0545156,13.1207344 20.8181562,14.3752969 20.8181562,15.8480156 C20.8182031,17.3207344 20.0545625,18.5752969 19.1817969,18.5752969 Z" id="Shape" fill="#878787" fill-rule="nonzero"></path>
            <path d="M26.8182031,12.0298125 C25.2909219,12.0298125 24.0909219,13.7207344 24.0909219,15.8480156 C24.0909219,17.9752969 25.2909219,19.6662188 26.8182031,19.6662188 C28.3454844,19.6662188 29.5454844,17.9752969 29.5454844,15.8480156 C29.5454375,13.7207344 28.3454375,12.0298125 26.8182031,12.0298125 Z M26.8182031,18.5752969 C25.9454844,18.5752969 25.1818438,17.3207344 25.1818438,15.8480156 C25.1818438,14.3752969 25.9454844,13.1207344 26.8182031,13.1207344 C27.6909219,13.1207344 28.4545625,14.3752969 28.4545625,15.8480156 C28.4545625,17.3207344 27.6909219,18.5752969 26.8182031,18.5752969 Z" id="Shape" fill="#878787" fill-rule="nonzero"></path>
            <path d="M32.2727188,19.1207344 C30.7454375,19.1207344 29.5454375,20.8116562 29.5454375,22.9389375 C29.5454375,25.0662187 30.7454375,26.7571406 32.2727188,26.7571406 C33.8,26.7571406 35,25.0662187 35,22.9389375 C35,20.8116562 33.8,19.1207344 32.2727188,19.1207344 Z M32.2727188,25.6661719 C31.4,25.6661719 30.6363594,24.4116094 30.6363594,22.9388906 C30.6363594,21.4661719 31.4,20.2116094 32.2727188,20.2116094 C33.1454375,20.2116094 33.9090781,21.4661719 33.9090781,22.9388906 C33.9090781,24.4116094 33.1454375,25.6661719 32.2727188,25.6661719 Z" id="Shape" fill="#878787" fill-rule="nonzero"></path>
            <path d="M13.7272813,19.1207344 C12.2,19.1207344 11,20.8116562 11,22.9389375 C11,25.0662187 12.2,26.7571406 13.7272813,26.7571406 C15.2545625,26.7571406 16.4545625,25.0662187 16.4545625,22.9389375 C16.4545625,20.8116562 15.2545625,19.1207344 13.7272813,19.1207344 Z M13.7272812,25.6661719 C12.8545625,25.6661719 12.0909219,24.4116094 12.0909219,22.9388906 C12.0909219,21.4661719 12.8545625,20.2116094 13.7272812,20.2116094 C14.6,20.2116094 15.3636406,21.4661719 15.3636406,22.9388906 C15.3636406,24.4116094 14.6,25.6661719 13.7272812,25.6661719 Z" id="Shape" fill="#878787" fill-rule="nonzero"></path>
            <path d="M29.4909219,27.2480156 L28.4545625,26.7570937 C27.7454844,26.4298125 27.2,25.7207344 26.9818437,24.9025312 L26.6545625,23.7025312 C26.1636406,21.9570937 24.6363594,20.7570937 23,20.7570937 C21.3636406,20.7570937 19.8363594,21.9570937 19.4,23.7025312 L19.0727187,24.9025312 C18.8545156,25.7207344 18.3090781,26.4298125 17.6,26.7570937 L16.5636406,27.2480156 C15.1454375,27.9025781 14.2727187,29.3752969 14.2727187,30.9570937 C14.2727187,32.2116562 14.8181562,33.3570937 15.6909219,34.0661719 C16.509125,34.7207344 17.4909219,34.9934531 18.5272812,34.8298125 L20.1090781,34.5570937 C20.4909219,34.5025312 20.9272812,34.3388906 21.3090781,34.17525 C21.5817969,34.0661719 21.690875,33.7388906 21.5817969,33.4661719 C21.4727187,33.1934531 21.1454375,33.084375 20.8727187,33.1934531 C20.6,33.3025312 20.2727187,33.4116562 19.9454375,33.4661719 L18.3636406,33.7388906 C17.6545625,33.8480156 17,33.684375 16.4,33.1934531 C15.7454375,32.7570937 15.3636406,31.884375 15.3636406,30.9570937 C15.3636406,29.7570937 16.0182031,28.6661719 17,28.2298125 L18.0363594,27.7388906 C19.0181562,27.2479687 19.7817969,26.3206875 20.1090781,25.17525 L20.4363594,23.97525 C20.7636406,22.7206875 21.8,21.8479687 23,21.8479687 C24.2,21.8479687 25.2363594,22.7206875 25.5636406,23.97525 L25.8909219,25.17525 C26.2182031,26.3206875 26.9818437,27.2479687 27.9636406,27.7388906 L29,28.2298125 C29.9817969,28.7207344 30.6363594,29.8116094 30.6363594,30.9570937 C30.6363594,31.884375 30.2545156,32.7025312 29.6,33.2480156 C29.0545625,33.7389375 28.3454375,33.9025781 27.6363594,33.7934531 L26.0545625,33.5207344 C25.7272812,33.4661719 25.4,33.3570937 25.1272812,33.2480156 C24.8545625,33.1389375 24.5272812,33.2480156 24.4182031,33.5207344 C24.309125,33.7934531 24.4182031,34.1207344 24.6909219,34.2298125 C25.0727656,34.3934531 25.4545625,34.5025312 25.8909219,34.6116094 L27.4727187,34.8843281 C27.6909219,34.9388906 27.9090781,34.9388906 28.0727187,34.9388906 C28.8909219,34.9388906 29.6545156,34.6661719 30.3090781,34.1206875 C31.1817969,33.3570469 31.7272812,32.2116094 31.7272812,30.9570469 C31.7272812,29.3752969 30.8545625,27.9025781 29.4909219,27.2480156 Z" id="Shape" fill="#878787" fill-rule="nonzero"></path>
        </g>
    </g>
</svg>