<?xml version="1.0" encoding="UTF-8"?>
<svg width="48px" height="48px" viewBox="0 0 48 48" version="1.1" xmlns="http://www.w3.org/2000/svg" xmlns:xlink="http://www.w3.org/1999/xlink">
    <!-- Generator: Sketch 47.1 (45422) - http://www.bohemiancoding.com/sketch -->
    <title>Group 28</title>
    <desc>Created with Sketch.</desc>
    <defs></defs>
    <g id="Page-1" stroke="none" stroke-width="1" fill="none" fill-rule="evenodd">
        <g id="Group-28" transform="translate(1.000000, 1.000000)">
            <circle id="Oval-3" stroke="#E3E3E3" cx="23" cy="23" r="23"></circle>
            <g id="pawprint" transform="translate(11.000000, 12.000000)" fill-rule="nonzero" fill="#FFFFFF">
                <path d="M8.18179687,0.0298125 C6.65451563,0.0298125 5.45451562,1.72073438 5.45451562,3.84801562 C5.45451562,5.97529687 6.65451563,7.66621875 8.18179687,7.66621875 C9.70907812,7.66621875 10.9090781,5.97529687 10.9090781,3.84801562 C10.9090781,1.72073438 9.70907813,0.0298125 8.18179687,0.0298125 Z M8.18179687,6.57529688 C7.30907812,6.57529688 6.5454375,5.32073437 6.5454375,3.84801562 C6.5454375,2.37529687 7.30907812,1.12073437 8.18179687,1.12073437 C9.05451563,1.12073437 9.81815625,2.37529687 9.81815625,3.84801562 C9.81820313,5.32073437 9.0545625,6.57529688 8.18179687,6.57529688 Z" id="Shape"></path>
                <path d="M15.8182031,0.0298125 C14.2909219,0.0298125 13.0909219,1.72073438 13.0909219,3.84801562 C13.0909219,5.97529687 14.2909219,7.66621875 15.8182031,7.66621875 C17.3454844,7.66621875 18.5454844,5.97529687 18.5454844,3.84801562 C18.5454375,1.72073438 17.3454375,0.0298125 15.8182031,0.0298125 Z M15.8182031,6.57529688 C14.9454844,6.57529688 14.1818438,5.32073437 14.1818438,3.84801562 C14.1818438,2.37529687 14.9454844,1.12073437 15.8182031,1.12073437 C16.6909219,1.12073437 17.4545625,2.37529687 17.4545625,3.84801562 C17.4545625,5.32073437 16.6909219,6.57529688 15.8182031,6.57529688 Z" id="Shape"></path>
                <path d="M21.2727187,7.12073437 C19.7454375,7.12073437 18.5454375,8.81165625 18.5454375,10.9389375 C18.5454375,13.0662187 19.7454375,14.7571406 21.2727187,14.7571406 C22.8,14.7571406 24,13.0662187 24,10.9389375 C24,8.81165625 22.8,7.12073437 21.2727187,7.12073437 Z M21.2727187,13.6661719 C20.4,13.6661719 19.6363594,12.4116094 19.6363594,10.9388906 C19.6363594,9.46617187 20.4,8.21160937 21.2727187,8.21160937 C22.1454375,8.21160937 22.9090781,9.46617187 22.9090781,10.9388906 C22.9090781,12.4116094 22.1454375,13.6661719 21.2727187,13.6661719 Z" id="Shape"></path>
                <path d="M2.72728125,7.12073437 C1.2,7.12073437 0,8.81165625 0,10.9389375 C0,13.0662187 1.2,14.7571406 2.72728125,14.7571406 C4.2545625,14.7571406 5.4545625,13.0662187 5.4545625,10.9389375 C5.4545625,8.81165625 4.2545625,7.12073437 2.72728125,7.12073437 Z M2.72728125,13.6661719 C1.8545625,13.6661719 1.09092188,12.4116094 1.09092188,10.9388906 C1.09092188,9.46617187 1.8545625,8.21160937 2.72728125,8.21160937 C3.6,8.21160937 4.36364062,9.46617187 4.36364062,10.9388906 C4.36364062,12.4116094 3.6,13.6661719 2.72728125,13.6661719 Z" id="Shape"></path>
                <path d="M18.4909219,15.2480156 L17.4545625,14.7570937 C16.7454844,14.4298125 16.2,13.7207344 15.9818438,12.9025312 L15.6545625,11.7025312 C15.1636406,9.95709375 13.6363594,8.75709375 12,8.75709375 C10.3636406,8.75709375 8.83635938,9.95709375 8.4,11.7025312 L8.07271875,12.9025312 C7.85451562,13.7207344 7.30907812,14.4298125 6.6,14.7570937 L5.56364062,15.2480156 C4.1454375,15.9025781 3.27271875,17.3752969 3.27271875,18.9570937 C3.27271875,20.2116562 3.81815625,21.3570937 4.69092187,22.0661719 C5.509125,22.7207344 6.49092187,22.9934531 7.52728125,22.8298125 L9.10907812,22.5570937 C9.49092187,22.5025312 9.92728125,22.3388906 10.3090781,22.17525 C10.5817969,22.0661719 10.690875,21.7388906 10.5817969,21.4661719 C10.4727188,21.1934531 10.1454375,21.084375 9.87271875,21.1934531 C9.6,21.3025312 9.27271875,21.4116562 8.9454375,21.4661719 L7.36364062,21.7388906 C6.6545625,21.8480156 6,21.684375 5.4,21.1934531 C4.7454375,20.7570937 4.36364063,19.884375 4.36364063,18.9570937 C4.36364063,17.7570937 5.01820312,16.6661719 6,16.2298125 L7.03635937,15.7388906 C8.01815625,15.2479687 8.78179687,14.3206875 9.10907812,13.17525 L9.43635938,11.97525 C9.76364062,10.7206875 10.8,9.84796875 12,9.84796875 C13.2,9.84796875 14.2363594,10.7206875 14.5636406,11.97525 L14.8909219,13.17525 C15.2182031,14.3206875 15.9818438,15.2479687 16.9636406,15.7388906 L18,16.2298125 C18.9817969,16.7207344 19.6363594,17.8116094 19.6363594,18.9570937 C19.6363594,19.884375 19.2545156,20.7025312 18.6,21.2480156 C18.0545625,21.7389375 17.3454375,21.9025781 16.6363594,21.7934531 L15.0545625,21.5207344 C14.7272812,21.4661719 14.4,21.3570937 14.1272812,21.2480156 C13.8545625,21.1389375 13.5272812,21.2480156 13.4182031,21.5207344 C13.309125,21.7934531 13.4182031,22.1207344 13.6909219,22.2298125 C14.0727656,22.3934531 14.4545625,22.5025312 14.8909219,22.6116094 L16.4727187,22.8843281 C16.6909219,22.9388906 16.9090781,22.9388906 17.0727187,22.9388906 C17.8909219,22.9388906 18.6545156,22.6661719 19.3090781,22.1206875 C20.1817969,21.3570469 20.7272813,20.2116094 20.7272813,18.9570469 C20.7272813,17.3752969 19.8545625,15.9025781 18.4909219,15.2480156 Z" id="Shape"></path>
            </g>
        </g>
    </g>
</svg>