<?xml version="1.0" standalone="no"?>
<!DOCTYPE svg PUBLIC "-//W3C//DTD SVG 1.1//EN" "http://www.w3.org/Graphics/SVG/1.1/DTD/svg11.dtd" >
<svg xmlns="http://www.w3.org/2000/svg" xmlns:xlink="http://www.w3.org/1999/xlink" version="1.1">
<metadata>
Created by FontForge 20170910 at Wed Apr 26 11:43:27 2017
 By Jimmy Wärting
Copyright 2016 Adobe Systems Incorporated. All rights reserved.
</metadata>
<defs>
<font id="ek-font-icons" horiz-adv-x="512" >
  <font-face 
    font-family="ek-font-icons"
    font-weight="400"
    font-stretch="normal"
    units-per-em="512"
    panose-1="0 0 0 0 0 0 0 0 0 0"
    ascent="409"
    descent="-103"
    x-height="385"
    cap-height="514"
    bbox="-4 -10 721.167 515"
    underline-thickness="0"
    underline-position="0"
    unicode-range="U+000D-E098"
  />
<missing-glyph horiz-adv-x="256" 
d="M192 32v416h-128v-416h128zM32 480h192v-480h-192v480z" />
    <glyph glyph-name=".notdef" horiz-adv-x="256" 
d="M192 32v416h-128v-416h128zM32 480h192v-480h-192v480z" />
    <glyph glyph-name=".null" horiz-adv-x="0" 
 />
    <glyph glyph-name=".null" horiz-adv-x="0" 
 />
    <glyph glyph-name="nonmarkingreturn" unicode="&#xd;" horiz-adv-x="170" 
 />
    <glyph glyph-name="space" unicode=" " horiz-adv-x="128" 
 />
	<glyph glyph-name="arrowmagic" unicode="&#x0042;"  d="M964.387,971.1C964.387,971.1,454.018,412.755,454.018,412.755M1024.5,1024.5C1024.5,1024.5,647.251,0.5,647.251,0.5C647.251,0.5,431.68,431.68,431.68,431.68C431.68,431.68,0.5,647.251,0.5,647.251C0.5,647.251,1024.5,1024.5,1024.5,1024.5" class="icon-arrow"/>
	</glyph>
    <glyph glyph-name="male_female" unicode="A" 
d="M493 230q0 -8 -6 -12q-8 -5 -13 -5q-11 0 -17 11l-21 78q-1 4 -6 4q-6 0 -6 -5v-2l33 -124q1 -1 1 -4q0 -10 -9 -10h-25v-82q0 -20 -21 -20t-21 20v82h-12v-82q0 -9 -6 -15t-15 -6q-8 0 -14 6t-6 15v82h-24q-10 0 -10 10q0 3 1 4l33 124v1v1v1q-1 4 -6 4t-6 -4l-21 -78
q-6 -11 -17 -11q-5 0 -13 5q-6 4 -6 12v3l28 106h1v2q5 14 18 14h134q13 0 18 -14l1 -2l28 -106v-3h5zM412 409q0 -18 -12 -30t-30 -12q-17 0 -29 12t-12 30q0 17 12 29t29 12q18 0 30 -12t12 -29zM194 355q17 -2 17 -18v-120q0 -7 -5 -12q-7 -7 -13 -7q-5 0 -12 7
q-5 5 -5 12v83q0 6 -6 6t-6 -6v-219q0 -9 -6 -15t-15 -6q-8 0 -14 6t-6 15v110h-1q0 6 -5 6q-6 0 -6 -6v-110q0 -9 -6 -15t-14 -6q-9 0 -15 6t-6 15v219q0 6 -6 6q-5 0 -5 -6v-83q0 -8 -6 -12q-7 -7 -12 -7q-6 0 -13 7q-5 5 -5 12v120q0 8 6 14t14 6h152zM114 369
q-17 0 -29 12t-12 29t12 29t29 12q18 0 30 -12t12 -29t-12 -29t-30 -12z" />
    <glyph glyph-name="map" unicode="B" 
d="M471 41v-1v-2q-3 -11 -14 -11h-402q-14 0 -14 14v283l162 161h254q14 0 14 -14v-430zM327 401l93 -92v125h-74zM92 310v-31l86 -85l139 240h-100v-110q0 -6 -4 -10t-9 -4h-112zM112 78l53 93l-72 72v-165h19zM421 78v194l-106 106l-174 -300h280zM319 279q25 0 43 -18
t18 -44q0 -21 -12 -37l-39 -67v-2l-1 -1h-1q-4 -4 -9 -4t-9 4v1q-1 0 -1 1l-40 69q-12 15 -12 36q0 26 18 44t44 18h1zM338 194q9 9 9 22t-9 22t-21 9q-13 0 -22 -9t-9 -23q0 -12 9 -21t21 -9q13 0 22 9z" />
    <glyph glyph-name="like" unicode="C" 
d="M418 131q0 -13 -13 -13h-25v1q-10 0 -12 11v141q0 13 13 13h24h1q13 0 13 -13v-138v-2h-1zM343 109q-2 -12 -12 -12h-2h-184h-2q-2 0 -3 1l-50 50q-2 2 -2 5v144q0 10 12 12h70v76h1q0 12 9 21t21 9q16 0 27 -15l50 -87l3 -3h51h1q13 0 13 -13v-187z" />
    <glyph glyph-name="guide_dog" unicode="D" 
d="M209 380q-5 3 -5 9q0 10 10 10q5 0 8 -3l60 -60q5 -3 5 -9q0 -10 -10 -10q3 0 -7 2l-1 1zM251 171h-26t-15 1l25 -42q3 -3 3 -9q0 -7 -6 -13t-13 -6q-8 0 -15 7l-38 65l-37 -65q-7 -7 -15 -7q-7 0 -13 6t-6 13t4 11l32 56q-13 10 -13 57q0 19 3 34l-57 33q-6 4 -6 11
q0 13 14 13l3 -1h3l56 -33l2 1h138v-129zM395 133q4 -4 4 -10q0 -5 -5 -13q-5 -6 -12 -6q-11 0 -15 7l-38 65l-37 -65h-1q-4 -7 -15 -7q-7 0 -13 6t-6 13t4 11l31 54v116l83 -83q-3 -29 -13 -33zM456 298q0 -5 -4 -9l-11 -11h-51l-14 -14q1 -1 1 -16l-71 72l42 42l26 45
l12 -22q4 0 7 -3v1l26 -15q11 -6 11 -18v-21l20 -20q6 -3 6 -10v-1z" />
    <glyph glyph-name="female_symbol" unicode="E" 
d="M351 226q-29 -29 -69 -36v-41h28l6 -2q0 -2 1 -3t1 -3v-35q0 -8 -8 -8h-28v-34q0 -8 -8 -8h-35h-2q-6 1 -6 8v34h-27q-8 0 -8 8v35l2 6q2 0 3 1t3 1h27v41q-41 7 -69 36q-39 36 -39 94q0 57 39 96t95 39t95 -39t39 -96q0 -55 -39 -94h-1zM315 262q25 25 25 60
q0 33 -25 58t-58 25q-35 0 -60 -25q-24 -24 -24 -59q0 -34 24 -58t58 -24q35 0 59 24z" />
    <glyph glyph-name="list_bullet" unicode="F" 
d="M39 127q0 10 8 18t18 8q11 0 18 -7q8 -8 8 -18q0 -11 -7 -18t-18 -7q-8 0 -19 8q-9 7 -9 18zM64 236q-10 0 -18 8q-7 7 -7 18q0 10 8 18t18 8q9 0 17 -8t8 -18q0 -11 -7 -18q-8 -8 -18 -8h-1zM65 358q-10 0 -18 8q-7 7 -7 18q0 10 8 18t18 8t18 -8q7 -7 7 -18t-7 -18
q-8 -8 -18 -8h-1zM454 154q5 0 13 -5q6 -5 6 -12v-16q0 -5 -5 -13q-5 -6 -12 -6h-320q-8 0 -12 6q-5 8 -5 13v16q0 7 5 12t12 5h320h-2zM456 281q18 0 18 -17v-16q0 -17 -18 -17h-320q-7 0 -12 5t-5 12v16q0 7 5 12t12 5h320zM456 409q7 0 12 -6q5 -8 5 -13v-16q0 -8 -6 -12
q-8 -5 -13 -5h-320q-7 0 -12 5t-5 12v16q0 5 5 13q4 6 12 6h320h2z" />
    <glyph glyph-name="microphone" unicode="G" 
d="M378 260q0 -49 -32 -85q-33 -36 -78 -43v-28h69q8 0 14 -6t6 -13q0 -8 -6 -14t-13 -6h-176q-19 0 -19 20q0 7 6 13t14 6h69v28q-45 7 -78 43q-32 36 -32 85v74q0 19 19 19t19 -19v-73q0 -38 27 -65t65 -27t65 27t27 65v73q0 19 19 19t19 -19v-73v-1h-4zM186 263v119
q0 26 20 46q19 19 47 19t47 -19q20 -20 20 -46v-119v-2q0 -27 -19 -46t-46 -19t-46 19t-19 46z" />
    <glyph glyph-name="home_1" unicode="H" 
d="M427 318q5 -3 5 -10v-233q0 -13 -13 -13h-96q-13 0 -13 13v143h-110v-143q0 -13 -13 -13h-96q-13 0 -13 13v233q0 7 5 10l161 129q4 4 8 4q5 0 9 -4l167 -129h-1z" />
    <glyph glyph-name="_73" unicode="I" horiz-adv-x="522" 
d="M426 383q15 -2 25 -7q-3 -8 -0.5 -14t8.5 -8.5t12.5 -1.5t10.5 6q5 -3 8.5 -7t8.5 -9q-6 -4 -7 -10.5t1.5 -12.5t8.5 -8.5t14 0.5q4 -11 6 -21q-6 -2 -10 -8t-5 -12t2.5 -11.5t12.5 -6.5q0 -7 -2 -12.5t-4 -10.5q-14 3 -20 -2.5t-5 -14.5q0 -5 4 -8t4 -5q0 -8 -7.5 -11
t-11.5 -7q-3 6 -9.5 6.5t-12 -2.5t-8.5 -8.5t1 -12.5q-4 -4 -11 -5t-14 -3q0 8 -5 12t-12 4t-12 -4t-5 -12q-7 2 -13 3.5t-11 3.5q4 7 1 13t-8.5 9t-12 2.5t-9.5 -6.5q-2 2 -10.5 6.5t-8.5 9.5q0 2 4 6t4 8q1 10 -5.5 15.5t-20.5 2.5q-2 5 -3 9.5t-2 10.5q6 2 10 8t4 12.5
t-3.5 12t-10.5 7.5q0 7 1.5 11.5l3.5 10.5q8 -4 14 -1t9 8.5t2 12t-7 10.5q3 5 7 9t9 8q4 -5 11 -6t12.5 1.5t9 8.5t0.5 15q10 4 23 6q0 -8 5 -12t12 -4t12 4t5 12v0zM379 263q2 -13 13 -19t23 -4.5t20 11t5 27.5q-2 11 -12 17.5t-24 4.5q-31 -6 -25 -37v0zM346 440
q-2 3 -5.5 1t-5.5 -1q-1 14 0 29q7 -3 13 -0.5t9 8t2.5 12t-5.5 11.5q5 5 11 8.5t14 5.5q0 -7 5 -11t11.5 -4t12 3.5t5.5 11.5q8 -2 14 -5.5t12 -8.5q-6 -4 -6.5 -10.5t2 -12t8 -8.5t13.5 0q2 -6 2 -14.5t-2 -14.5q-7 3 -12.5 0t-8.5 -8t-2.5 -11.5t6.5 -10.5
q-10 -10 -26 -15q0 7 -5.5 11t-11.5 4t-11.5 -4t-5.5 -11q-8 2 -14 5.5t-11 8.5q7 6 5.5 18t-12.5 13q-2 -5 2.5 -9.5t4.5 -12.5q-6 -2 -10 -7.5t-4.5 -11.5t3 -11.5t12.5 -5.5q-2 -6 -4 -12.5t-5 -11.5q-14 8 -24 -2t-2 -24q-5 -3 -11 -5t-11 -4q-1 7 -6.5 11t-12 4
t-12 -3.5t-6.5 -11.5q-6 2 -12 4.5t-11 4.5q6 8 3 17t-10 12q-12 1 -19 -3q-2 6 -4.5 11t-3.5 13q7 0 11 5t4 11.5t-4 12t-11 5.5q1 7 3.5 12t4.5 11q6 -4 13 -3t11.5 5t5.5 10t-4 12q4 5 10 7t13 4q0 -7 5.5 -11t12.5 -4t12.5 3.5t5.5 11.5q7 -1 12.5 -3.5t10.5 -5.5
q-5 -7 -3.5 -13.5t6 -10.5t11 -5t12.5 4v0zM396 436q8 0 12.5 6.5t4.5 13t-5 12t-14 4.5q-9 -2 -12.5 -7.5t-3 -12t5 -11.5t12.5 -5v0zM290 371q11 3 15 13.5t1.5 21t-11 17.5t-23.5 4q-15 -4 -19.5 -15t-0.5 -21.5t14 -17.5t24 -2v0zM149 249q-16 -2 -30 -9.5t-25 -19.5
t-17 -28.5t-6 -35.5q1 -17 9.5 -35.5t19.5 -29.5q21 -20 46.5 -23t49 5.5t40.5 27t20 42.5q3 25 -4 46t-22 35.5t-36 21t-45 3.5v0zM204 140q-6 -14 -19.5 -20.5t-28 -4t-25.5 13t-11 29.5q0 16 9.5 27.5t26.5 14.5q12 2 23 -2t18.5 -12.5t10 -20.5t-3.5 -25v0zM321 204
q-1 6 -3 10.5t-4 9.5q-8 -3 -14 0t-9 9t-1.5 12.5t7.5 10.5q-5 4 -7.5 8.5t-7.5 7.5q-5 -6 -12 -5.5t-12 5t-6.5 11t4.5 12.5q-6 2 -10 5t-9 5q-3 -6 -9.5 -8t-13 0t-10.5 7.5t-2 14.5q-6 -1 -10 1t-10 1q-1 -9 -6.5 -12.5t-12 -3t-12.5 4.5t-7 11q-5 0 -9.5 -1t-9.5 -1
q3 -9 -1 -14.5t-10.5 -7.5t-13.5 0t-11 8q-4 -3 -8 -5.5t-8 -4.5q3 -7 2 -17q-2 -8 -12 -10.5t-18 3.5q-5 -2 -7 -6.5t-6 -7.5q5 -5 6 -11.5t-1.5 -12.5t-9 -9t-15.5 0q-1 -5 -2.5 -10t-3.5 -10q8 -1 11 -7.5t1.5 -13t-6.5 -11.5t-12 -2q1 -5 0 -12t2 -11q7 1 11.5 -4
t5 -11.5t-2.5 -13t-10 -7.5q5 -9 6 -19q9 3 15.5 0t9 -9t1.5 -13t-6 -11q5 -2 7 -7t8 -6q6 5 12 4t10.5 -5t6 -10.5t-2.5 -13.5q4 -2 8 -4.5t8 -5.5q3 6 10 8t14 0.5t11 -6.5t1 -14q7 -2 21 -4q0 8 5.5 12t12.5 4t12.5 -4t5.5 -12q6 0 10 1.5t10 1.5q-2 9 2 14.5t10.5 7
t13.5 -0.5t10 -8q5 3 9 5.5t9 5.5q-8 9 -3 17.5t14 10.5q5 1 9 -3t7 -3q5 2 7 9t7 9q-7 3 -8 9.5t2 12.5t9 9t14 -1q2 5 4 9.5t3 10.5q-8 1 -11 7.5t-1.5 13.5t6.5 11.5t13 2.5v23q-9 -2 -14 3t-5.5 11.5t2.5 12.5t10 7v0zM252 104q-11 -18 -31 -30t-42.5 -15.5t-46 3
t-42.5 25.5q-14 15 -20.5 35t-6 40.5t9 40t23.5 32.5q19 19 56 24q31 3 57 -10t41 -36t17 -52t-15 -57v0z" />
    <glyph glyph-name="Add" unicode="O" horiz-adv-x="461" 
d="M230 425q-79 0 -136 -57q-57 -56 -57 -136q0 -83 57 -138q57 -57 136 -57q40 0 75 16q36 17 60 41q25 25 42 63q15 34 15 75q0 40 -15 75q-17 36 -42 61q-27 27 -61 42q-18 8 -37 11.5t-39 3.5h2zM228 1q-94 0 -162 68t-68 162t68 162t162 68q98 0 165 -67t67 -163
t-67 -163t-163 -67h-2zM329 211h-80v-80h-39v80h-80v39h80v80h39v-80h80v-39z" />
    <glyph glyph-name="Remove" unicode="P" horiz-adv-x="461" 
d="M230 425q-79 0 -136 -57q-57 -56 -57 -136q0 -83 57 -138q57 -57 136 -57q40 0 75 16q36 17 60 41q25 25 42 63q15 34 15 75q0 40 -15 75q-17 36 -42 61q-27 27 -61 42q-18 8 -37 11.5t-39 3.5h2zM228 1q-94 0 -162 68t-68 162t68 162t162 68q98 0 165 -67t67 -163
t-67 -163t-163 -67h-2zM333 211h-200v39h200v-39z" />
    <glyph glyph-name="Contact" unicode="Q" horiz-adv-x="422" 
d="M63 276q0 -14 -7 -21q-8 -9 -18 -9q-11 0 -18 9q-7 7 -7 21v37q0 10 8 21q7 9 18 9q-1 0 1.5 -0.5l7.5 -1.5q4 15 12 29q6 12 20 26q44 47 108 47h2q61 0 105 -44t44 -104q0 -41 -16 -66q-17 -26 -36 -42q-11 -11 -30 -21q-3 -15 -19 -15q-8 0 -14 6t-6 14v4q4 16 21 16
q8 0 12 -4q25 12 48 39q22 25 22 69q0 52 -38 90q-37 37 -92 37q-56 0 -93 -40q-17 -17 -21 -30q-8 -17 -9 -33v-3zM187 199q-37 0 -64 27t-27 65t27 65q26 26 63 26q38 0 65 -27t27 -64q0 -38 -27 -65t-65 -27h1zM288 171q31 -7 52 -33q20 -26 20 -57v-73h-361v73
q0 39 27 66t65 27h103q0 -19 14 -33t33 -14q20 0 33 13q13 12 15 32z" />
    <glyph glyph-name="Passengers" unicode="R" horiz-adv-x="673" 
d="M534 272q-25 0 -44 19t-19 44q0 26 19 45q18 18 44 18q27 0 45 -18t18 -45q0 -26 -18 -44q-19 -19 -45 -19zM598 254q29 0 51 -20q20 -20 20 -48v-55h-107q-4 40 -33 67t-69 27h-50q21 30 58 30zM148 23v81q0 43 30 73t72 30h192q43 0 73 -30t30 -73v-81h-397zM348 417
q38 0 65 -27t27 -65q0 -39 -27 -66t-66 -27t-66 27t-27 66q0 38 27 65t65 27h2z" />
    <glyph glyph-name="Passport" unicode="S" horiz-adv-x="288" 
d="M102 249q10 30 30 36v-36h-30zM132 112q-20 6 -30 37h30v-37zM94 205q0 22 4 30h34v-30h-38zM98 162q-4 8 -4 30h38v-30h-34zM87 149q4 -15 15 -29q-21 9 -35 29h20zM83 235q-3 -27 -3 -30h-28q0 17 7 30h24zM80 192q0 -21 4 -30h-25q-7 13 -7 30h28zM102 277
q-8 -11 -15 -27h-20q15 18 36 28zM177 121q9 12 14 29h20q-13 -21 -33 -29h-1zM196 163q1 4 3 30h28q-2 -20 -8 -30h-23zM191 250q-8 22 -14 28q18 -7 34 -28h-20zM267 345q7 0 11 -4q5 -5 5 -12v-318q0 -6 -4 -10t-10 -4h-258q-5 0 -10 5q-4 4 -4 11v10v308v10q0 7 5 12
l181 153q4 4 12 4q5 0 6 -1q8 -5 8 -14v-148zM43 347h136v115zM171 77h-54v-31h54v31zM245 208q-2 8 -3 15t-4 15l-4 10l-2 4q-19 39 -81 50l-6 1h-7q-25 0 -45 -14q-11 -8 -20 -17.5t-16 -19.5l-2 -4l-5 -10h1q-2 -7 -4 -14.5t-3 -15.5v-6v-7q1 -8 3 -15.5t4 -14.5h-1
l5 -10l2 -3q22 -42 81 -51l7 -1h6q50 0 81 52l3 3l4 10q5 12 7 30v7zM224 238q6 -10 8 -30h-28q-2 25 -3 30h23zM187 238q4 -9 4 -30h-39v30h35zM183 152q-10 -31 -31 -37v37h31zM152 288q21 -6 31 -36h-31v36zM191 195q0 -21 -4 -30h-35v30h39z" />
    <glyph glyph-name="Travel" unicode="T" horiz-adv-x="461" 
d="M390 391q17 -17 30 -36t21 -39q17 -43 17 -88q0 -94 -68 -162t-162 -68q-46 0 -88 18q-41 16 -75 51q-68 66 -68 163q0 46 18 88q16 40 51 75q17 17 36 30t39 21q23 9 44.5 13t43.5 4q97 0 163 -68zM190 423q-40 -7 -76 -33q-35 -24 -57 -60h66q11 29 38 63q16 19 30 30
h-1zM43 300q-11 -27 -12 -55h71q4 21 6 34.5t4 20.5h-69zM31 216q1 -28 12 -55h69q-2 6 -4 19.5t-6 35.5h-71zM58 130q23 -35 57 -59q34 -26 75 -33l-12.5 12.5t-16.5 18.5q-13 15 -22 30t-16 30zM214 129h-57q13 -27 30 -44q9 -10 15.5 -17.5t11.5 -12.5v74zM214 215h-81
q1 -14 3.5 -27.5t7.5 -27.5h70v55zM214 299h-70q-5 -14 -7.5 -27.5t-3.5 -27.5h81v55zM214 404l-27 -29q-9 -9 -16 -20.5t-14 -24.5h57v74zM429 244q-1 28 -12 55h-70q4 -14 6.5 -27.5t3.5 -27.5h72zM402 330q-22 36 -56 60q-17 12 -36 20.5t-41 12.5l12.5 -12.5t16.5 -18.5
q24 -29 38 -61zM245 331h56q-21 39 -56 74v-74zM245 245h81q-1 14 -3.5 27.5t-7.5 27.5h-70v-55zM245 161h70q5 14 7.5 27.5t3.5 27.5h-81v-55zM245 56q35 35 56 74h-56v-74zM269 38q43 7 78 33q32 23 56 60h-66q-11 -20 -21 -35.5t-18 -25.5q-9 -11 -16.5 -18.5
l-12.5 -12.5v-1zM417 162q11 27 12 55h-72q-2 -33 -9 -55h69z" />
    <glyph glyph-name="Meal_Preference" unicode="U" horiz-adv-x="670" 
d="M182 32q0 -1 3 -1h2l2 1h-1h-6zM420 385q74 0 129 -53q53 -53 53 -131q0 -74 -54 -126q-52 -52 -127 -52t-128 53t-54 128q0 37 15 72q13 31 39 57q53 53 128 53zM421 57q62 0 105 43t43 105t-43 105t-105 43t-105 -43t-43 -105t43 -105t105 -43zM396 123q-4 -4 -7 0
l-31 31l-7 7l-24 23q-2 4 0 6l32 32q3 3 7 0l23 -23q3 -4 7 0l73 72q1 4 6 0l32 -31q3 -4 0 -7l-111 -111v1zM13 250q0 10 -7 30t-7 32v76l8 8l7 -8v-78h16v78l8 8l7 -8v-78h16v78l8 8l7 -8v-76q0 -15 -7 -28q-8 -21 -8 -34v-35v-19v-164h-47v164v34zM177 396q7 0 7 -8v-208
v-146v-2h-46v164l-15 19v120q0 19 14 36q14 15 26 20l15 5h-1z" />
    <glyph glyph-name="Drama" unicode="V" horiz-adv-x="587" 
d="M265 414q25 -8 49 -15.5t49 -11.5q15 -2 29 -3.5t28 -1.5q6 0 15.5 0.5t22.5 1.5q51 3 102 30q0 -46 -3 -85t-11 -71q-8 -31 -16.5 -55.5t-19.5 -43.5q-23 -38 -48 -53q-25 -16 -51 -16q-23 0 -45 13q-24 13 -45 43q-4 -54 -27 -83t-48 -38q-9 -4 -29 -4q-7 0 -12.5 0.5
t-10.5 1.5q-29 6 -61 34q-17 16 -33.5 35.5t-33.5 46.5q-32 52 -65 143q5 -1 12.5 -1h17.5q33 0 63 6q20 4 39 9.5t36 12.5t31 14t26 16l36 27v24v25zM182 272q-1 -1 -1 -6q0 -7 5 -10l44 -28q10 -2 7 -2q7 0 12 6q0 2 0.5 3.5t0.5 2.5t1 2q0 6 -6 9l-44 28q-5 3 -9 3
q-5 0 -9 -7zM149 243q1 1 1 6q0 8 -7 11q-1 1 -6 1q-6 0 -10 -7l-23 -46q-2 -8 -2 -7q0 -7 8 -10q2 -2 5 -2q7 0 12 8zM276 110q8 3 8 10l-1 2v3q-8 22 -33 33q-17 5 -25 5l-26 -5q-25 -9 -39 -32q-8 -14 -8 -27q0 -9 3 -18q3 -7 11 -7h4q8 3 8 10q0 4 -1 5l-2 10q0 10 6 19
q8 14 26 20q9 3 17 3l16 -3q16 -6 21 -20q3 -8 9 -8h2q1 1 3 1zM362 331q-8 0 -14 -6t-6 -14q0 -7 6 -13t14 -6q19 0 19 19q0 8 -6 14t-13 6zM457 172q20 18 20 43q0 11 -11 11h-1q-11 0 -11 -11q0 -16 -12 -26q-14 -11 -32 -11t-32 11q-13 10 -13 25q0 11 -11 11
q-12 0 -12 -12q1 -26 21 -42q20 -17 47 -17t47 17v1zM458 291q8 0 14 6t6 14t-6 14t-14 6t-14 -6t-6 -14q0 -7 6 -13t14 -6v-1z" />
    <glyph glyph-name="Remove_Link" unicode="W" horiz-adv-x="508" 
d="M182 348q0 -7 -7 -7h-166q-7 0 -7 7v33q0 7 7 7h166q7 0 7 -7v-33zM432 388q27 -27 27 -69q0 -41 -28 -69l-91 -91l1 14v11q0 19 -5 36l-1 3l62 63q14 14 14 33t-14 33q-14 12 -30 12q-23 0 -41 -18l-76 -76q-17 -17 -17 -41q0 -19 12 -31q5 -5 5 -15v-5q-2 -11 -12 -21
l-10 -10l-3 3q-8 4 -16 12l-2 2l-4 6q-5 6 -6 10q-14 23 -14 50q0 12 1 14q3 32 30 61l75 76q33 33 77 33q39 0 66 -27v1zM136 -1q-38 0 -65 27q-29 29 -29 69q0 37 29 66l91 91l-1 -14v-11q0 -19 5 -36l1 -3l-61 -62q-14 -14 -14 -32q0 -21 14 -33q12 -12 30 -12
q24 0 41 17l76 75q18 18 18 42q0 18 -12 30q-7 7 -7 15v3v3q3 13 11 21l10 10l4 -2l16 -13q8 -8 12 -17q14 -23 14 -50q0 -12 -1 -14q-6 -34 -32 -60l-75 -76q-30 -32 -77 -32z" />
    <glyph glyph-name="Add_Link" unicode="X" horiz-adv-x="515" 
d="M135 -8q-39 0 -66 27q-29 29 -29 69t29 69l92 92l-1 -14v-8q0 -23 6 -41v-4l-62 -62q-14 -14 -14 -33q0 -16 14 -33q12 -12 31 -12q25 0 42 17l77 77q18 18 18 41q0 18 -13 31q-5 5 -5 15v6q1 10 12 21l10 10l4 -2q9 -6 16 -13l6 -9l6 -9q14 -21 14 -50q0 -13 -1 -15
q-6 -36 -32 -62l-76 -77q-33 -33 -78 -33v2zM435 384q28 -25 28 -66q0 -43 -29 -72l-92 -92l1 14v11q0 11 -1 20.5t-4 17.5l-1 3l63 63q14 14 14 33t-14 33q-12 12 -31 12q-24 0 -42 -18l-77 -77q-18 -18 -18 -42q0 -19 12 -31q6 -5 6 -16q0 -13 -11 -24l-10 -10l-4 2
q-9 4 -17 12q-11 14 -12 17q-14 20 -14 48q0 3 0.5 7.5t1.5 10.5q4 35 31 62l76 77q33 33 78 33q38 0 67 -27zM183 344q0 -7 -7 -7h-61v-61q0 -7 -7 -7h-34q-6 0 -6 7v61h-61q-7 0 -7 7v34q0 6 7 6h61v61q0 7 6 7h34q7 0 7 -7v-61h61q7 0 7 -6v-34z" />
    <glyph glyph-name="Dark_Envelope" unicode="Y" horiz-adv-x="432" 
d="M0 118v216l108 -108zM432 118l-108 108l108 108v-216zM432 82h-432l126 126l90 -90l90 90zM216 154l-216 216h432z" />
    <glyph glyph-name="laptop" unicode="a" 
d="M72 163q-10 0 -18 8t-8 18v226q0 10 8 18t18 8h368q11 0 18 -7q8 -8 8 -18v-226q0 -10 -8 -18q-7 -7 -18 -7h-368v-2zM97 216h318v175h-318v-175zM488 140q12 0 12 -12v-28q0 -5 -4 -9l-17 -18q-5 -3 -9 -3h-429q-6 0 -9 4l-17 18q-3 3 -3 8v28q0 12 12 12h464zM300 111
q0 2 -2 2h-84q-2 0 -2 -2v-12q0 -3 2 -3h84q2 0 2 3v12z" />
    <glyph glyph-name="marker" unicode="b" 
d="M113 313q0 60 42 102q42 43 102 43t102 -43q42 -42 42 -102q0 -46 -29 -87l-91 -157l-3 -6l-1 -1q-10 -10 -21 -10q-13 0 -21 11q-2 2 -2 3l-93 161q-28 37 -28 87zM255 241q29 0 50 21t21 50q0 30 -21 51t-50 21q-30 0 -51 -21t-21 -51q0 -29 21 -50t51 -21z" />
    <glyph glyph-name="die_two" unicode="c" 
d="M430 119q0 -15 -11 -26t-26 -11h-274q-15 0 -26 11t-11 26v274q0 15 11 26t26 11h274q15 0 26 -11t11 -26v-274zM194 317q11 11 11 24q0 15 -12 27t-27 12q-13 0 -24 -11q-10 -10 -10 -25q0 -14 10 -27q13 -10 27 -10q15 0 25 10zM368 143q11 11 11 24q0 15 -12 27
t-27 12q-13 0 -24 -11q-10 -10 -10 -25q0 -14 10 -27q13 -10 27 -10q15 0 25 10z" />
    <glyph glyph-name="die_six" unicode="d" 
d="M430 119q0 -15 -11 -26t-26 -11h-274q-15 0 -26 11t-11 26v274q0 15 11 26t26 11h274q15 0 26 -11t11 -26v-274zM194 145q11 11 11 24q0 15 -12 27t-27 12q-13 0 -24 -11q-10 -10 -10 -25q0 -14 10 -27q13 -10 27 -10q15 0 25 10zM194 230q11 11 11 24q0 15 -12 27
t-27 12q-13 0 -24 -11q-10 -10 -10 -25q0 -14 10 -27q13 -10 27 -10q15 0 25 10zM194 317q11 11 11 24q0 15 -12 27t-27 12q-13 0 -24 -11q-10 -10 -10 -25q0 -14 10 -27q13 -10 27 -10q15 0 25 10zM368 143q11 11 11 24q0 15 -12 27t-27 12q-13 0 -24 -11q-10 -10 -10 -25
q0 -14 10 -27q13 -10 27 -10q15 0 25 10zM368 230q11 11 11 24q0 15 -12 27t-27 12q-13 0 -24 -11q-10 -10 -10 -25q0 -14 10 -27q13 -10 27 -10q15 0 25 10zM368 317q11 11 11 24q0 15 -12 27t-27 12q-13 0 -24 -11q-10 -10 -10 -25q0 -14 10 -27q13 -10 27 -10q15 0 25 10
z" />
    <glyph glyph-name="male" unicode="e" 
d="M331 356q18 0 18 -20v-120q0 -7 -5 -12q-7 -7 -13 -7t-13 7q-5 5 -5 12v84q0 6 -6 6q-5 0 -5 -6v-219q0 -9 -6 -15t-14 -6q-9 0 -15 6t-6 15v110q0 6 -6 6t-6 -6v-110q0 -9 -6 -15t-15 -6q-8 0 -14 6t-6 15v219q0 6 -5 6q-6 0 -6 -6v-84q0 -7 -5 -12q-6 -6 -12 -6
q-7 0 -13 6q-6 4 -6 12v120q0 8 6 14t14 6h152h-2zM253 368q-18 0 -30 12t-12 29t12 29t30 12q17 0 29 -12t12 -29t-12 -29t-29 -12z" />
    <glyph glyph-name="contrast" unicode="f" 
d="M392 392q56 -56 56 -135t-56 -135t-135 -56t-135 56t-56 135t56 135t135 56t135 -56zM257 115q58 0 99 41q41 43 41 100q0 58 -41 99q-41 42 -99 42v-282z" />
    <glyph glyph-name="css3" unicode="g" 
d="M419 439l-31 -330l-132 -36l-132 36l-31 330h326zM357 372h-204l5 -40h103l-5 -2l-95 -40l4 -39h91h49l-3 -52l-46 -13l-45 11l-2 32h-42l6 -62l83 -25l83 25l11 123h-94l97 42z" />
    <glyph glyph-name="dollar" unicode="h" 
d="M277 280q13 -4 22.5 -7t16.5 -6q14 -6 27 -22q14 -17 14 -42q0 -33 -21 -54t-60 -25v-28q0 -6 -6 -6h-23q-6 0 -6 6v28q-56 5 -89 39q-2 2 -2 5q0 2 1 3l21 32q1 3 5 3q2 0 3 -1h1v-1h1q21 -24 59 -32v58q-36 9 -60 26q-21 16 -21 54q0 28 23 48t59 24v29q0 6 6 6h23
q6 0 6 -6v-30q46 -4 76 -33q2 -2 2 -4q0 -3 -1 -4l-22 -31q-2 -2 -3 -2q-3 0 -4 1q-21 18 -47 24v-51zM243 335q-26 -5 -26 -24q0 -13 26 -21v45zM278 174q28 4 28 27q0 15 -28 24v-50v-1z" />
    <glyph glyph-name="folder" unicode="i" 
d="M440 387q12 0 20 -9q8 -11 8 -19v-248q0 -8 -8 -19q-8 -9 -20 -9h-368q-13 0 -20 9q-8 11 -8 20v248q0 9 8 20q7 9 20 9h30l25 32q7 6 13 6h75q11 0 14 -10l23 -28h188v-2z" />
    <glyph glyph-name="html5" unicode="j" 
d="M406 426l-27 -306l-123 -34l-123 34l-27 306h300zM350 364h-188l1 -11l9 -103h130l-4 -49l-42 -11l-42 11l-3 30h-37l5 -59l77 -21l77 21v7l9 98l1 11h-137l-3 38h144v8l2 19z" />
    <glyph glyph-name="credit_card" unicode="k" 
d="M445 377v-37h-378v36v2q0 13 13 13h2h349h1q13 0 13 -13v-1zM67 289h378v-155q0 -13 -13 -13h-350h-1q-14 0 -14 13v155z" />
    <glyph glyph-name="first_aid" unicode="l" 
d="M148 417v1q0 12 13 12h185q13 0 13 -12v-47h-32v27h-147v-26h-32v45zM125 344h258v-262h-258v262zM176 194q0 -2 1 -2q1 -1 3 -1h52v-53q1 -1 1 -3q2 0 3 -1h1h37h2l1 1v2l1 1v53h52q2 0 3 1q1 0 1 2v37q0 4 -4 4h-52v52q0 4 -4 4h-37q-4 0 -4 -4v-52h-52q-4 0 -4 -4z
M100 344v-262h-30q-8 0 -14 6t-6 14v1v220q0 9 6 15t14 6h30zM461 102q0 -8 -6 -14t-14 -6h-30v262h30q21 0 21 -20v-222h-1z" />
    <glyph glyph-name="download" unicode="m" 
d="M434 258q25 0 25 -25v-144q0 -25 -25 -25h-354q-25 0 -25 25v144q0 25 25 25h90q18 0 24 -17q15 -45 63 -45t63 45q6 17 24 17h90zM182 343q-3 1 -1 7q1 3 6 3h33v88q0 7 7 7h60q7 0 7 -7v-88h33q4 0 6 -3q1 -5 -1 -7l-69 -98q-3 -3 -6 -3q-5 0 -6 3z" />
    <glyph glyph-name="folder_lock" unicode="n" 
d="M338 226q0 16 17 16t17 -16v-15h-34v15zM439 387q12 0 20 -9q8 -11 8 -19v-248q0 -8 -8 -19q-8 -9 -20 -9h-368q-13 0 -20 9q-8 11 -8 20v248q0 9 8 20q7 9 20 9h30l25 32q7 6 13 6h75q11 0 14 -10l23 -28h188v-2zM416 141v67q0 5 -4 5h-16v15q0 17 -12 29t-29 12
t-29 -12t-12 -29v-15h-14q-4 0 -4 -5v-67q0 -5 4 -5h113q5 0 5 5h-2z" />
    <glyph glyph-name="folder_add" unicode="o" 
d="M440 387q12 0 20 -9q8 -11 8 -19v-248q0 -8 -8 -19q-8 -9 -20 -9h-368q-13 0 -20 9q-8 11 -8 20v248q0 9 8 20q7 9 20 9h30l25 32q7 6 13 6h75q11 0 14 -10l23 -28h188v-2zM418 219q0 4 -4 4h-45v45q0 3 -3 3h-32q-3 0 -3 -3v-45h-45q-3 0 -3 -4v-31q0 -2 1 -2q0 -1 2 -1
h45v-45q0 -2 1 -3l1 -1h1h32q3 0 3 4v45h45q2 0 3 1l1 2v31z" />
    <glyph glyph-name="indent_more" unicode="p" 
d="M417 433q17 0 17 -17v-16q0 -17 -17 -17h-320q-17 0 -17 17v16q0 17 17 17h320zM417 127q17 0 17 -17v-16q0 -17 -17 -17h-320q-17 0 -17 17v16q0 17 17 17h320zM434 196q0 -17 -17 -17h-199q-7 0 -12 5t-5 12v16q0 7 5 12t12 5h199q17 0 17 -17v-16zM434 297
q0 -7 -5 -12t-12 -5h-199q-7 0 -12 5t-5 12v16q0 5 5 13q4 6 12 6h199q17 0 17 -18v-17zM83 216q-3 0 -3 3v74q0 3 3 3l2 -1l63 -36q2 -2 2 -3q0 -2 -2 -2v-1l-63 -36q-1 -1 -3 -1h1z" />
    <glyph glyph-name="list_thumbnails" unicode="r" 
d="M411 167q11 0 11 -12v-1v-53q0 -11 -11 -11h-182q-11 0 -11 11v53v1q0 12 11 12h182zM155 167q12 0 12 -12v-54q0 -11 -12 -11h-54q-11 0 -11 11v54q0 12 11 12h54zM411 295q11 0 11 -12v-1v-53q0 -11 -11 -11h-182q-11 0 -11 11v53v1q0 12 11 12h182zM155 295
q12 0 12 -12v-54q0 -11 -12 -11h-54q-11 0 -11 11v54q0 12 11 12h54zM218 410v1q0 11 11 11h182q11 0 11 -11v-1v-53q0 -12 -11 -12h-182q-11 0 -11 12v53zM155 422q12 0 12 -11v-54q0 -12 -12 -12h-54q-11 0 -11 12v54q0 11 11 11h54z" />
    <glyph glyph-name="list_number" unicode="s" 
d="M62 386l-7 7l17 17h11v-55h-12v40zM43 236q29 23 29 31q0 5 -7 5q-11 0 -17 -6l-7 8q9 9 21 9q21 0 21 -18q0 -12 -22 -28h23v-10h-41v9zM72 127q4 0 9 -3t5 -9q0 -16 -22 -16q-14 0 -21 9l7 8q4 -7 12 -7q13 0 13 9q0 5 -11 5h-7v10h7q10 0 10 6t-10 6q-6 0 -14 -5l-6 7
q9 9 21 9q21 0 21 -15q0 -12 -12 -13zM449 409q5 0 13 -5q6 -5 6 -12v-16q0 -5 -5 -13q-5 -6 -12 -6h-320q-8 0 -12 6q-5 8 -5 13v16q0 7 5 12t12 5h320h-2zM451 282q7 0 12 -6q5 -8 5 -13v-16q0 -8 -6 -12q-8 -5 -13 -5h-320q-7 0 -12 5t-5 12v16q0 5 5 13q4 6 12 6h320h2z
M449 154q5 0 13 -5q6 -5 6 -12v-16q0 -18 -18 -18h-320q-8 0 -12 6q-5 8 -5 13v16q0 7 5 12t12 5h320z" />
    <glyph glyph-name="elevator" unicode="t" 
d="M396 455q13 0 13 -13v-376q0 -13 -13 -13h-376q-13 0 -13 13v376q0 13 13 13h376zM59 105h299v298h-299v-298zM497 182q3 0 3 -1v-3l-32 -44q0 -2 -2 -2q-1 0 -3 2l-31 44q-2 1 0 3q0 1 2 1h15v40q0 3 3 3h28q3 0 3 -3v-40h14zM435 325q-3 0 -3 2q-2 1 0 3l31 44q2 2 3 2
q2 0 2 -2l32 -44l1 -2l-1 -1q0 -2 -2 -2h-15v-39q0 -3 -3 -3h-28q-3 0 -3 3v39h-14zM116 346q0 10 8 18t18 8q12 0 19 -7t7 -18q0 -10 -8 -18q-7 -7 -18 -7q-10 0 -18 8t-8 18v-2zM189 316q11 -2 11 -12v-72q0 -4 -3 -7q-4 -4 -7 -4l-8 4q-3 3 -3 7v50q0 4 -4 4q-3 0 -3 -4
v-131q0 -13 -13 -13q-12 0 -12 13v66q0 4 -4 4q-3 0 -3 -4v-66q0 -13 -13 -13q-12 0 -12 13v131q0 4 -4 4q-3 0 -3 -4v-50q0 -4 -3 -7q-4 -4 -7 -4l-8 4q-3 3 -3 7v72q0 12 11 12h91zM296 348q0 -11 -7 -17q-8 -6 -18 -6q-11 0 -18 6t-7 17t8 19q7 7 18 7t18 -7q8 -8 8 -19
h-2zM321 316q11 -2 11 -12v-72q0 -4 -3 -7q-4 -4 -7 -4l-8 4q-4 4 -4 7v50q0 6 -4 3q-2 -2 -2 -3v-131q0 -13 -13 -13q-12 0 -12 13v66q0 4 -4 4q-3 0 -3 -4v-66q0 -13 -13 -13q-12 0 -12 13v131q-1 4 -4 4t-3 -4v-50q0 -4 -3 -7t-8 -3t-8 3t-3 7v72q0 12 12 12h91z" />
    <glyph glyph-name="foundation" unicode="u" 
d="M402 123v-1v-1v-1l-6 -12q-1 -1 -3 -1h-1l-15 8l-2 2l1 1l6 12q0 1 3 1l15 -8h2zM400 392q1 -1 1 -3v-1l-6 -11l-2 -2h-1l-1 1l-15 9l-1 1v2l7 11q1 1 3 1l15 -9v1zM370 138q1 -1 1 -3l-7 -12l-2 -1h-1l-4 3l-5 2l-62 -34h-3h-3l-4 1l-63 34l-62 -34h-1q-1 -1 -3 -1l-4 1
h-1l-67 37q-4 1 -4 6v274q0 4 5 7h3h3l5 -2l62 -34l62 34h1v1h2h2h2h2q1 0 1 -1l62 -34l62 34q2 0 2.5 0.5t1.5 0.5t2 1l4 -1l7 -5l7 -3l1 -1v-1v-1l-7 -12l-2 -1l-1 1l-8 5v-252l17 -9h-3zM154 365l-58 31v-256l58 -31v256zM288 365l-67 36v-256l67 -36v256zM432 223
q2 0 2 -3v-27q0 -2 -2 -2h-13q-2 0 -2 2v27q0 3 2 3h13zM432 115q2 0 2 -2v-10q0 -11 -10 -11q-2 0 -3 1t-3 1l-8 4q-1 1 -1 3q-1 0 0 1l6 12l1 1l2 1h1h13v-1zM427 378q7 -7 7 -12v-10q0 -2 -2 -2h-13q-2 0 -2 2v8l-7 4q-1 0 -1 1v2l6 11q1 1 4 1zM432 331q2 0 2 -2v-27
q0 -2 -2 -2h-13q-2 0 -2 2v27q0 2 2 2h13zM432 170q2 0 2 -2v-27q0 -3 -2 -3h-13q-2 0 -2 3v27q0 2 2 2h13zM432 277q2 0 2 -2v-27q0 -2 -2 -2h-13q-2 0 -2 2v27q0 2 2 2h13z" />
    <glyph glyph-name="italic" unicode="v" 
d="M309 384l-58 -261q-2 -12 -12 -12h-25q-12 1 -12 13v3l58 261q0 13 13 13h24q13 0 13 -13z" />
    <glyph glyph-name="magnifying_glass" unicode="w" 
d="M291 459q66 0 115 -49t49 -115q0 -68 -48 -116t-116 -48q-35 0 -74 17l-82 -82v1q-12 -14 -32 -14q-19 0 -33 14q-13 13 -13 33q0 18 14 32l79 79q-23 38 -23 84q0 68 48 116t116 48zM292 196q42 0 72 30t30 73q0 42 -30 72t-72 30q-43 0 -73 -30t-30 -72q0 -43 30 -73
t73 -30z" />
    <glyph glyph-name="graph_horizontal" unicode="x" 
d="M442 303q8 0 8 -8v-77q0 -8 -8 -8h-372q-8 0 -8 8v77q0 8 8 8h372zM288 422q6 -2 6 -9v-77q0 -7 -6 -8h-218q-8 0 -8 8v77q0 8 8 8h218v1zM337 184q8 0 8 -8v-77q0 -8 -8 -8h-267q-8 0 -8 8v77q0 8 8 8h267z" />
    <glyph glyph-name="eye" unicode="y" 
d="M432 264q6 -3 6 -10q0 -5 -3 -11l-1 -1l-79 -79h-1q-39 -44 -98 -44q-52 0 -91 36v-1l-86 87q-6 6 -6 11t4 9l80 79q45 45 99 45q51 0 90 -36l1 1zM256 162q37 0 63 27q26 29 26 64t-26 64q-26 27 -63 27t-63 -26t-26 -63t26 -63t63 -26v-4zM287 286q13 -13 13 -30
q0 -18 -13 -31t-31 -13t-31 13t-13 31q0 17 13 30t31 13t31 -13z" />
    <glyph glyph-name="die_five" unicode="z" 
d="M430 119q0 -15 -11 -26t-26 -11h-274q-15 0 -26 11t-11 26v274q0 15 11 26t26 11h274q15 0 26 -11t11 -26v-274zM194 145q11 11 11 24q0 15 -12 27t-27 12q-13 0 -24 -11q-10 -10 -10 -25q0 -14 10 -27q13 -10 27 -10q15 0 25 10zM194 317q11 11 11 24q0 15 -12 27
t-27 12q-13 0 -24 -11q-10 -10 -10 -25q0 -14 10 -27q13 -10 27 -10q15 0 25 10zM281 230q11 11 11 24q0 15 -12 27t-27 12q-13 0 -24 -11q-10 -10 -10 -25q0 -14 10 -27q13 -10 27 -10q15 0 25 10zM368 143q11 11 11 24q0 15 -12 27t-27 12q-13 0 -24 -11q-10 -10 -10 -25
q0 -14 10 -27q13 -10 27 -10q15 0 25 10zM368 317q11 11 11 24q0 15 -12 27t-27 12q-13 0 -24 -11q-10 -10 -10 -25q0 -14 10 -27q13 -10 27 -10q15 0 25 10z" />
    <glyph glyph-name="arrow_down" unicode="&#xe001;" 
d="M508 382l-252 -252l-252 252h504z" />
    <glyph glyph-name="search" unicode="&#xe002;" 
d="M492 57q12 -11 12 -26q0 -13 -8 -19q-10 -10 -24 -10q-15 0 -24 12l-147 152q-46 -37 -107 -37q-76 0 -130 56q-54 55 -54 136q0 79 53 135q54 57 131 57t131 -57t54 -137q0 -62 -34 -111l146 -152zM71 320q0 -53 36 -90q38 -38 87 -38t87 38q37 37 37 90t-36 91t-88 38
q-49 0 -87 -38q-36 -38 -36 -91z" />
    <glyph glyph-name="order_desc" unicode="&#xe003;" 
d="M327 149q2 -2 2 -6q0 -3 -2 -5l-60 -111q-2 -5 -9 -5q-9 0 -11 5l-62 112q-2 8 -2 7q1 0 1 1q0 3 1 5q4 6 10 6h122q7 -2 9 -9h1zM403 313q7 0 10 -7q2 -2 2 -5q0 -4 -2 -6l-54 -98q-3 -7 -10 -7h-188q-7 0 -10 7l-54 98v3v3v3v3q3 7 10 7h296v-1zM4 467v4v4v3v3q1 6 9 6
h484q11 0 11 -10q0 -5 -1 -6l-62 -113q-2 -6 -9 -6h-361q-2 0 -9 4l-62 113v-2z" />
    <glyph glyph-name="checkin" unicode="&#xe005;" 
d="M426 309q-8 0 -8 9v84l89 -93h-81zM404 302q0 -7 7 -7h96v-178q0 -7 -7 -7h-488q-7 0 -7 7v278q0 7 7 7h392v-100zM161 315q0 -4 4 -4h130q4 0 4 4v17q0 4 -4 4h-130q-4 0 -4 -4v-17zM86 181q0 4 -4 4h-16q-4 0 -4 -4v-16q0 -5 4 -5h16q4 0 4 5v16zM86 232q0 4 -4 4h-16
q-4 0 -4 -4v-17q0 -4 4 -4h16q4 0 4 4v17zM86 281q0 4 -4 4h-16q-4 0 -4 -4v-16q0 -4 4 -4h16q4 0 4 4v16zM86 332q0 4 -4 4h-16q-4 0 -4 -4v-17q0 -4 4 -4h16q4 0 4 4v17zM379 181q0 4 -4 4h-210q-4 0 -4 -4v-16q0 -5 4 -5h210q4 0 4 5v16zM379 232q0 4 -4 4h-210
q-4 0 -4 -4v-17q0 -4 4 -4h210q4 0 4 4v17zM379 281q0 4 -4 4h-210q-4 0 -4 -4v-16q0 -4 4 -4h210q4 0 4 4v16z" />
    <glyph glyph-name="seat" unicode="&#xe006;" 
d="M457 201q20 0 35 -15t15 -35v-20q0 -22 -15 -37t-34 -15h-183q-9 0 -22 5q-11 6 -18 15l-153 209h-30q-19 0 -34 15t-15 36v20q0 22 15 37t35 15h72q9 0 22 -5q12 -8 18 -15l82 -114v5q0 21 15 36q13 15 35 15h162q19 0 34 -15t15 -36v-19q0 -21 -15 -36q-12 -15 -34 -15
h-161h-2l22 -30h141zM298 315q-12 0 -12 -10v-4v-20q1 -13 13 -13h161q13 0 13 13v20q0 14 -13 14h-162zM472 152q0 13 -13 13h-154q-7 0 -9 5l-161 219q-8 5 -9 5h-72q-13 0 -13 -14v-20q0 -13 13 -13h41q8 0 11 -5l161 -219q5 -5 9 -5h183q13 0 13 14v20z" />
    <glyph glyph-name="luggage" unicode="&#xe007;" 
d="M2 340q0 22 15 39q15 16 37 16h36v-358h-36q-22 0 -37 17q-15 16 -15 39v247zM326 395h54v-356h-252v357h52v53q0 10 8 18q7 7 18 7h97q11 0 18 -7t7 -18zM302 446h-92v-51h92v51zM456 395q22 0 37 -16q15 -17 15 -39v-246q0 -23 -15 -39t-37 -16h-36v356h36z" />
    <glyph glyph-name="flight_list" unicode="&#xe009;" 
d="M47 336v6h182q6 0 6 -6v-20q0 -6 -6 -6h-175q-7 0 -7 8v18zM47 356v6v20q0 6 7 6h175q6 0 6 -6v-20q0 -6 -6 -6h-182zM47 408v20q0 6 3 6h177q8 0 8 -6v-20q0 -6 -6 -6h-182v6zM28 344q6 0 6 -8v-20q0 -1 -3 -4t-4 -3h-20q-6 0 -6 6v20q0 8 6 8h20zM27 297q6 0 6 -7v-20
q0 -6 -6 -6h-20q-6 0 -6 6v20q0 7 6 7h20zM234 271q0 -6 -6 -6h-182v6v20v6h182q6 0 6 -6v-20zM27 387q1 0 4 -3t3 -4v-20q0 -1 -3 -4t-4 -3h-20q-6 0 -6 7v20q0 5 6 5h20v2zM27 431q1 0 4 -3t3 -4v-20q0 -6 -6 -6h-20q-6 0 -6 7v20q0 5 6 5h20zM503 188l3 -3l2 -3v-3
q0 -3 -4 -3v-8l-71 30q-39 16 -60 21l-5 -13v-40q0 -11 -3 -30l39 -32q6 -6 9 -16l2 -9l-56 22l-4 -11v-11h-1l-2 11l-3 10l-55 -21l2 11q3 7 12 15l38 31q-5 12 -5 28v42l-3 13q-3 0 -54 -19q-17 -6 -37 -13.5t-43 -18.5v8q0 9 10 16l39 30l44 33l39 32q7 7 7 16l2 41
q5 23 12 23t13 -25q1 -7 1.5 -16.5t0.5 -22.5q0 -14 6 -15l39 -31l82 -63z" />
    <glyph glyph-name="fleet" unicode="&#xe010;" 
d="M478 352h-2l-4 3zM469 357l-2 1v-1l5 -2zM306 214l15 4l-6 5l4 4l7 -7l20 5l-5 6l3 3l7 -7l18 5h4l4 -1q2 -2 -3 -2l-44 -20l-9 -9l11 -11q5 -5 9 -13l6 -7l16 4q4 1 9 -3l-18 -9l4 -5l1 -6l-5 4l-9 -18q-4 3 -4 9l4 16l-5 4q-9 4 -13 10l-11 11l-11 -11l-20 -45l-1 -2
q-1 1 -1 3v6v5l6 18l-7 7l3 4l6 -5l5 21l-11 8l4 3l5 -5l4 14l-20 22l-7 12q-1 1 -1 4q0 2 1 2l14 -9zM488 493q8 0 12 -4l3 -3l-52 -24q-36 -17 -42 -21l4 -11l21 -22q2 -2 5 -6t8 -12l38 4q6 0 13 -4l5 -4l-41 -18l3 -8l-5 3l-18 -42l-6 7q-1 5 -1.5 9t-0.5 6l4 38l-18 13
l-22 23l-9 6q-6 -2 -20 -39l-24 -63l-4 4q-5 5 -3 14l5 40l-7 6q-5 1 -6 6l6 5q6 -1 11 -9l3 31l-7 4q-5 4 -6 9l5 5q4 -2 9 -6l2 25q0 7 -5 12l-4 3q-11 8 -18 20q-9 12 -6 20q1 1 3 1q4 0 18 -8l7 -6l9 -9l6 -6q7 -7 13 -6l23 1q0 1 -5 9l5 6l9 -6q0 -1 2 -3l3 -3l29 6
l-1 2q-5 4 -6 9l5 5l7 -5q4 -5 6 -9v-1l36 5zM96 277l13 81l-4 4l-1 -2q-9 4 -11 13l7 7l11 -9l3 20l-23 23l-24 38q1 1 3 1q4 0 11 -3.5t16 -11.5l8 -7l22 -24l18 4q-8 7 -9 12l7 8q8 -2 12 -11v-4l4 -4l77 15l6 -5l-24 -10l-40 -19l-18 -20l29 -31q7 -7 11 -15q5 -5 9 -5
l29 4q4 0 6 -2l4 -4l-33 -16l4 -9l-9 4l-14 -35l-4 4l-2 7l4 29q2 5 -4 9l-14 13l-31 32l-18 -18l-18 -41l-9 -28zM194 172l3 -4l-52 -23q-16 -7 -26.5 -12.5t-15.5 -9.5l6 -11l21 -22q2 -2 5 -6t8 -12l38 4q6 0 13 -4l5 -5l-41 -18l3 -7l7 -9h-1l-8 5l-7 4l-18 -42l-5 7
q-1 5 -1.5 9t-0.5 6l3 38l-18 12l-21 24l-8 5q-4 -4 -19 -39q-5 -11 -12 -27t-15 -36l-3 4q-6 4 -4 15l5 38l6 42l3 39q2 8 -5 13l-20 24q-7 7 -7 15q0 3 2 5q1 1 3 1q5 0 17 -9t21 -21q7 -8 12 -6l36 4l76 11z" />
    <glyph glyph-name="dubai" unicode="&#xe011;" 
d="M506 92v-92h-500v92h51v163h81v-65h46v-145h45v96h40v-49h29v87h18v167h18v166h18v-96h14v-150h24v-174h32v89l57 54v-143h27z" />
    <glyph glyph-name="compass" unicode="&#xe012;" 
d="M272 273q8 -8 8 -15t-8 -15t-15 -8t-15 8t-8 15t8 15t15 8t15 -8zM10 255q0 107 72 182t174 75t174 -75q72 -74 72 -180q0 -107 -72 -182t-174 -75t-174 74q-72 75 -72 181zM361 360q1 4 0 6q-2 1 -6 0l-133 -63q-9 -5 -12 -12l-60 -137q-2 -5 0 -6q1 -2 6 0l133 63
q9 4 12 12z" />
    <glyph glyph-name="globe" unicode="&#xe013;" 
d="M503 260q0 -107 -72 -183q-72 -75 -174 -75t-174 74q-72 75 -72 181t72 181q72 76 174 76t174 -75t72 -180v1zM467 268q-3 64 -39 117q-36 52 -93 75l-2 -11h-36l-44 -40l20 -18l8 11l5 -15l14 13l-10 5l19 11l-7 -31l-5 -9l-33 -14l-9 -15l-22 -7l-14 -18l18 -9l11 20
l16 -4l13 13l14 -11l6 -18l-9 -7l21 5l-3 9l13 -7l-17 22l-2 12l29 -1l8 -40h12l-11 -26q-12 0 -30 6q-22 4 -31 9l-22 4q-11 0 -21 7q-22 -10 -35 -14.5t-17 -5.5l-7 -38l10 -27l42 -11l20 -27q7 -23 10.5 -48.5t5.5 -51.5l24 -14l31 27q9 40 9 78q13 21 30 39q0 29 -16 57
l5 3l19 -41l30 10l-12 26l32 3zM254 380l-9 -11l9 -2l13 13l-22 25l-3 -9l7 -12zM232 389l-5 -9l4 -11l7 9zM198 405l13 2l7 7l-4 9h-12zM278 304l2 11h-11zM194 465q-50 -15 -90 -58q0 -2 4 -9q5 -11 11 -11q9 0 18 20q11 24 21 34q8 5 14 8.5t10 4.5l4 1q1 1 5 1q5 3 5 5z
" />
    <glyph glyph-name="chevron_circle_left" unicode="&#xe014;" 
d="M10 255q0 107 72 182t174 75t174 -75q72 -74 72 -180q0 -107 -72 -182t-174 -75t-174 74q-72 75 -72 181zM397 109q58 61 58 147t-58 144q-60 61 -141 61t-141 -61q-58 -58 -58 -144t58 -147q58 -60 141 -60q82 0 141 60zM299 351q13 -13 13 -23q0 -4 -2 -6l-61 -65
l61 -65q4 -4 4 -7q0 -7 -15 -22q-12 -14 -22 -14q-4 0 -7 3l-61 65l-40 40l40 40l61 65q3 3 7 3q10 0 22 -14z" />
    <glyph glyph-name="tag" unicode="&#xe015;" 
d="M497 216q3 -3 3 -7t-3 -7l-190 -199q-4 -4 -7 -4t-7 4l-277 289q-7 7 -7 18v192q0 11 11 11h183q11 0 18 -7zM139 377q13 13 13 28q0 17 -13 30q-14 14 -30 14q-15 0 -27 -13q-12 -12 -12 -30t12 -30q11 -14 29 -14t29 14z" />
    <glyph glyph-name="plane" unicode="&#xe016;" 
d="M491 202q17 -12 17 -29v-12l-118 49q-83 35 -98 36l-8 -22v-68q0 -21 -7 -48l64 -52q11 -9 15 -25l4 -16l-95 38l-7 -19l-1 -19l-2 2l-2 19l-6 17l-92 -36l2 17q5 12 21 25l63 53l-9 45l2 69l-7 22q-8 0 -54 -17l-34 -13q-39 -15 -72.5 -28.5t-61.5 -25.5l-1 13
q-2 11 17 26l65 52l71 52l66 53q13 13 12 27v12v23q0 11 0.5 19t1.5 13q9 41 22 41t21 -44q3 -17 3 -68q0 -21 10 -27l64 -50l135 -103z" />
    <glyph glyph-name="bed" unicode="&#xe017;" 
d="M114 375q17 0 29 -12t12 -28t-12 -28t-28 -12t-28 12t-12 29q0 16 12 28t28 12zM485 346q8 0 16 -6q7 -6 7 -16v-228h-46v77h-413v-77h-46v296q0 21 23 21t23 -21v-165h413v97q0 11 6 17t17 6v-1zM393 347q16 0 28 -12t12 -28v-56h-208v95h168v1zM97 251q-8 0 -12 6
q-4 4 -4 12q0 4 5 12q4 6 12 6h74v43q0 16 16 16q17 0 17 -16v-60q0 -7 -5 -12t-12 -5h-90z" />
    <glyph glyph-name="car" unicode="&#xe018;" 
d="M498 350q7 -7 9 -13v-16q0 -15 -14 -17l-27 -4q7 -18 7 -37v-5l-2 -42v-2q10 -3 10 -8v-2q0 -9 -11 -47v-81q0 -10 -8 -10h-61q-10 0 -10 10v57h-278v-57q0 -10 -8 -10h-60q-10 0 -10 10v81q-10 26 -10 47v2q0 8 9 8v2q-1 5 -1 15v27q0 25 6 42l-26 4q-15 3 -15 17v16
q0 6 7 13q6 4 13 3l40 -7l33 80q2 6 14 8q34 5 69 7.5t72 2.5h5h6q29 0 64 -2t77 -6q10 0 12 -8q22 -46 33 -80l42 6q8 2 15 -4h-2zM406 329q1 1 0 1q-2 4 -9 22.5t-21 51.5q-1 4 -6 4q-63 6 -119 6q-55 0 -118 -6q-2 0 -6 -4q-1 -2 -1.5 -4.5t-2.5 -6.5t-4 -10.5t-6 -15.5
l-15 -35v-2q0 -1 1 -1q70 9 153 9q45 0 83 -2.5t70 -7.5l2 1h-1zM119 272h-59q-9 0 -9 -10v-30q0 -10 9 -10h67l-8 44v6zM165 224l2 -4q0 -6 6 -6h163q7 0 7 6l1 5v4l7 41v4q1 4 -3 9q-41 12 -93 12q-53 0 -92 -12q-5 -2 -5 -8v-4l8 -42v-2zM459 262q0 9 -9 9h-59v-4l-8 -44
h67q9 0 9 10v29z" />
    <glyph glyph-name="handshake" unicode="&#xe019;" 
d="M31 219q-22 13 -22 37q0 11 4 18l52 122q12 27 42 27q12 0 13 -1l61 -20l61 -19l3 3q12 12 27 12h43q10 0 15 6l47 58q6 7 13 7q6 0 10 -4l109 -85q8 -6 8 -12q0 -4 -5 -9l-60 -75q-5 -6 -6 -13l-9 -29l3 -1q13 -13 16 -30v-6q0 -18 -9 -27l-9 -10q2 -2 2 -6v-6
q0 -18 -9 -27l-17 -19q-17 -18 -36 -18l-8 -11q-12 -17 -36 -17q-14 0 -24 6l-3 -5q-11 -18 -35 -18q-20 0 -29 9l-9 8l5 7q8 11 8 19v3v3q0 2 -1 3l-2 6l23 -18q1 -1 4 -1q4 0 6 3l17 19q1 0 1 2l-58 46q-8 3 -2 9l2 4q2 2 3 2h1l87 -69q1 -1 4 -1q4 0 6 3l15 19l-89 72
q-5 1 -3 9l2 1l3 3q2 2 3 2h1l102 -79q2 -2 3 -2l6 3l16 19l-102 82q-8 4 -3 9l3 3q2 2 3 2h1l87 -69q1 -1 4 -1q4 0 6 3l20 22q1 4 -3 9l-89 70l-17 14l-22 17l-24 -23q-20 -20 -45 -20q-11 0 -21 3l-25 8q-7 1 -12 10q-2 7 3 12l50 53l-44 13l-62 19h-2q-6 0 -7 -4
l-52 -122q-3 -8 3 -12l35 -24l3 -1l-9 -9l-14 -19q-2 0 -2 -2l-34 23zM127 190q0 -13 -1 -15v-2l1 -1h2l1 1l6 9q4 6 10 6h3q8 0 11 -3l10 -7q7 -6 7 -12q0 -8 -4 -12l-6 -9q-2 0 0 -3h2l1 2q2 2 9 5h5q7 0 10 -3l8 -5q6 -5 6 -14q0 -2 -1 -3t-1 -3q-1 -1 -1 -3l-6 -7
q-2 -2 0 -3h1l2 1q2 2 3 2q2 0 3 -1l1 -1l8 -9q5 -2 5 -9q3 -6 -3 -12l-4 -6l-3 -3q-6 -6 -13 -6q-8 0 -11 3l-109 83q-11 8 -11 18q0 3 5 16l2 1l15 20q6 6 10 6h3q8 0 11 -3l7 -6q6 -6 6 -12z" />
    <glyph glyph-name="skywardschevron_right" unicode="&#xe020;" 
d="M368 452q12 13 45 21q19 4 34 6t27 2q22 0 31 -4q10 -4 10 -9q0 -13 -166 -435h-234l71 90q40 51 76 96.5t68 87.5q72 94 76 104q0 2 1 3v3v3l1 2h-1l-4 -4l-6 -6l-12 -13l-317 -367h-68l366 420h2z" />
    <glyph glyph-name="chevron_right" unicode="&#xe021;" 
d="M387 268q7 -7 7 -13q0 -5 -9 -11l-237 -240q-2 -6 -10 -6t-12 6q-6 4 -6 12v116q0 8 6 11l110 112l-110 112q-6 6 -6 13v116q0 5 6 11q5 5 11 5q7 0 12 -5l237 -239h1z" />
    <glyph glyph-name="basket" unicode="&#xe022;" 
d="M507 295v-67h-29v-199q0 -14 -9 -23t-22 -9h-380q-14 0 -23 10t-9 24v199h-32v67h88l120 208q3 8 12 8q4 0 9 -3q9 -6 9 -14q0 -5 -3 -9l-109 -190h254l-109 190q-3 4 -3 9q0 8 9 14q4 3 9 3q9 0 12 -8l120 -208zM82 232q16 0 16 16t-16 16t-16 -16t16 -16zM162 197h-63
v-132h63v132zM289 197h-64v-132h64v132zM415 197h-63v-132h63v132zM430 232q16 0 16 16t-16 16t-16 -16t16 -16z" />
    <glyph glyph-name="calculator" unicode="&#xe023;" 
d="M412 509q27 0 48 -21t21 -50v-370q0 -27 -20 -50q-20 -21 -47 -21h-318q-29 0 -48 21q-19 19 -19 51v370q0 27 20 50q19 21 48 21h316zM176 130q0 5 -5 5h-62q-5 0 -5 -5v-67q0 -5 5 -5h62q5 0 5 5v67zM176 259q0 5 -5 5h-62q-5 0 -5 -5v-66q0 -5 5 -5h62q5 0 5 5v66z
M296 130q0 5 -6 5h-61q-6 0 -6 -5v-67q0 -5 6 -5h61q6 0 6 5v67zM296 259q0 5 -6 5h-61q-6 0 -6 -5v-66q0 -5 6 -5h61q6 0 6 5v66zM415 259q0 5 -5 5h-62q-5 0 -5 -5v-196q0 -5 5 -5h62q5 0 5 5v196zM426 400q0 22 -15 39q-15 16 -35 16h-240q-21 0 -36 -16q-15 -17 -15 -39
v-6q0 -23 15 -38t36 -15h240q21 0 36 16t15 39z" />
    <glyph glyph-name="medal" unicode="&#xe024;" 
d="M168 279q-6 0 -9 -3l-96 164q-4 7 -4 13q0 -1 2 7q3 14 13 15l85 34q8 2 9 2q12 0 17 -11l54 -108l-45 -91q-2 -2 -4.5 -5.5t-4.5 -7.5l-5 -9h-11h-1zM442 460q2 -8 2 -9q0 -5 -4 -12l-98 -162q-1 1 -9 1h-10l-6 9q-11 24 -36 24q-5 0 -22 -5l-9 -6l-9 6q-8 5 -18 5
l96 186q4 13 15 13q-1 0 1.5 -0.5l7.5 -1.5l85 -34q10 -3 13 -15zM374 195q12 -9 12 -18q0 -6 -5 -14l-11 -22l11 -22q4 -7 4 -13q0 -12 -11 -18l-20 -12v-26q0 -9 -7 -16t-15 -7h-23l-11 -22q-6 -11 -18 -11q-5 0 -12 4l-20 13l-20 -13q-6 -3 -12 -3q-11 0 -17 12l-11 22
h-23q-9 0 -15 7t-6 16v26l-20 12q-10 6 -10 18q0 5 3 13l11 22l-11 21q-4 7 -4 13q0 12 11 18l20 13v25q0 11 7 18t15 7h23l11 21q7 13 17 13q5 0 12 -4l20 -12l20 12q4 3 12 3q12 0 18 -12l11 -21h23q10 0 16 -7q6 -8 6 -18v-25l20 -13h-1zM336 164l5 8q0 2 -3 5t-5 3h-51
l-16 51q0 2 -3 5t-5 3q-8 0 -9 -7l-17 -51h-50q-8 0 -9 -7q-1 -6 3 -13l40 -33l-16 -50q-1 -6 3 -13q7 -4 13 0l40 33l40 -33q2 -2 6 -2t6 2q7 7 4 13l-16 50l40 33v3z" />
    <glyph glyph-name="briefcase" unicode="&#xe025;" 
d="M296 192l212 49v-196q0 -10 -6 -16t-16 -6h-460q-10 0 -16 6t-6 17v196l214 -49v-41q0 -11 11 -11h57q12 0 12 11zM487 374q9 0 15 -7q6 -8 6 -18v-78l-213 -50v23q0 12 -11 12h-57q-12 0 -12 -12v-23l-212 50v78q0 10 6 18q6 7 17 7h460h1zM168 397h-28v31q0 25 17 42
t42 17h114q25 0 42 -17t17 -42v-31h-28v31q0 13 -9 22t-22 9h-114q-13 0 -22 -9t-9 -22v-31z" />
    <glyph glyph-name="flight_time" unicode="&#xe026;" 
d="M498 147q4 -4 5 -7q1 -4 6 -10q3 -4 4 -4v-9l-85 37q-51 22 -72 27l-7 -16v-51q0 -4 -1.5 -13t-3.5 -23l47 -40q7 -7 10 -21l2 -10l-68 28l-5 -14v-14h-2l-2 14l-5 12l-66 -26l1 14q5 12 14 18l46 38q-5 12 -5 35v53l-6 16q-2 0 -18 -5.5t-45 -17.5l-96 -40v10
q0 10 12 18l47 39l52 40l48 40q8 11 8 19l2 51q7 30 16 30q10 0 16 -32q1 -2 1 -50q0 -18 7 -21l46 -39l98 -78zM251 368q0 -56 -37 -93q-36 -38 -89 -38q-51 0 -89 38q-37 37 -37 93t37 93q37 39 90 39q51 0 89 -39q37 -37 37 -93h-1zM131 258q42 3 71 32q28 28 30 69h-23
q-3 0 -1 5q1 1 1 3q0 5 5 5h18q-2 42 -30 72t-69 32v-19q0 -5 -5 -5q-6 0 -6 5v21q-41 -2 -69 -32q-29 -30 -30 -72h17q6 0 6 -5q0 -2 -3 -5t-4 -3h-16q1 -41 30 -69q28 -28 69 -31v19q0 6 6 6q5 0 5 -6v-19zM171 380q4 0 9 -9q0 -2 -3 -5t-6 -3h-31q-2 -3 -12 -3
q-11 0 -11 10v2l-42 44q-2 4 0 9q4 1 6 0l42 -42h4q10 0 12 -2h31z" />
    <glyph glyph-name="tick" unicode="&#xe027;" 
d="M194 77q-16 0 -27 11l-166 164l56 55l138 -135l260 263l56 -56l-289 -291q-11 -11 -27 -11h-1z" />
    <glyph glyph-name="man_case" unicode="&#xe029;" 
d="M475 314q16 -5 15 -24q-5 -9 -19 -9q-79 11 -83 12q-17 4 -24 30q-5 -8 -21 -45l-17 -40q4 -7 11 -15t17 -18q13 -11 20.5 -19.5t11.5 -13.5q3 -5 7 -15t10 -27l13 -35q1 -7 12 -25q4 -8 7.5 -15.5t6.5 -15.5q3 -9 3 -16q0 -11 -8 -19q-7 -7 -18 -7q-12 0 -21 9
q-5 11 -12 27.5t-15 36.5q-9 24 -16 40.5t-13 25.5q-5 7 -27 30q-23 22 -27 30q-20 -29 -60 -105q-17 -33 -27 -51q-22 -43 -36 -43h-3q-24 0 -24 17q0 4 2 12q4 11 9.5 23t11.5 24l22 44l31 57q2 2 4.5 6.5t6.5 10.5l12 21q5 12 5 15v5t-1 8t-1 7.5v4.5q0 16 18 51
q15 30 18 46l-30 -5l-5 -26q-2 -8 -4 -16.5t-4 -16.5q-5 -14 -12 -15h-4h-5q-5 0 -10 8q-12 -14 -33 -54q-18 -38 -37 -57q-7 -34 -30 -112q-13 7 -23 7q-13 0 -25 -9q-12 -10 -13 -23q-2 2 -12 5t-13 7q17 54 33 109t32 113h6t9 -1t9 -1h7q2 0 5.5 -0.5t8.5 -1.5
q8 -2 14 -6q9 -9 18 -9q0 -2 -3 -9q-3 -8 -3 -12q42 52 60 150q0 4 3 9l8 4q5 1 14 3.5t23 7.5q30 11 40 12q13 3 25 3h8h3q18 0 33 -17q8 -8 15 -17.5t14 -20.5q14 -21 23 -27l33 -7q27 -6 28 -7zM51 25q0 10 8 18t18 8q9 0 17 -8t8 -18q0 -11 -7 -18q-8 -8 -18 -8t-18 8
q-7 7 -7 18h-1zM404 428q-14 -14 -33 -14t-33 14t-14 35q0 19 14 33q15 15 33 15t33 -15q14 -14 14 -33q0 -21 -14 -35z" />
    <glyph glyph-name="clock" unicode="&#xe030;" 
d="M256 512q105 0 180 -75q77 -77 77 -183q0 -102 -76 -178q-75 -75 -181 -75q-105 0 -182 74q-75 73 -75 181q0 106 75 181q76 76 183 76zM257 55q82 0 144 59q60 58 60 141t-60 143t-143 60q-86 0 -144 -60q-59 -61 -59 -144q0 -82 59 -141q61 -59 144 -59zM392 264
q8 0 14 -7q6 -8 6 -15q0 -9 -6 -15t-15 -6h-136q-9 0 -15 6t-6 14v160q0 9 6 15t14 6q9 0 15 -6t6 -14v-138h116h1z" />
    <glyph glyph-name="exclamation" unicode="&#xe031;" 
d="M228 132l-25 259v121h106v-121l-25 -259h-56zM206 0v98h100v-98h-100z" />
    <glyph glyph-name="mobile" unicode="&#xe032;" 
d="M257 512q48 0 79 -19q35 -21 35 -42v-410q0 -18 -9 -30t-21 -12h-168q-13 0 -22 12t-9 30v410q0 22 34 41q35 20 82 20h-1zM218 81h-45v-41h45v41zM218 143h-45v-42h45v42zM218 204h-45v-41h45v41zM280 81h-46v-41h46v41zM280 143h-46v-42h46v42zM280 204h-46v-41h46v41z
M341 81h-47v-41h47v41zM341 143h-47v-42h47v42zM341 204h-47v-41h47v41zM341 452h-168v-206h168v206z" />
    <glyph glyph-name="ticket_up" unicode="&#xe033;" 
d="M382 235h-82v154l-51 2l93 121l92 -121l-51 -2v-154h-1zM166 322q-8 11 -21 11t-24 -11t-11 -24t11 -21q10 -10 24 -10q12 0 22 10q8 8 8 23q0 13 -8 21zM296 1q-3 -3 -6 -3q-2 0 -5 3l-214 213q-5 8 -5 12v141q0 7 7 7h141q7 0 15 -5l31 -31v-123q0 -10 6 -16t17 -6h105
q7 0 15 3l38 -40q5 -2 5 -3q0 -2 -3 -5z" />
    <glyph glyph-name="seat_position" unicode="&#xe034;" 
d="M183 145h144v-145h-144v145zM7 337h145v-145h-145v145zM7 145h145v-145h-145v145zM40 33h79v79h-79v-79zM183 337h144v-145h-144v145zM183 512h144v-145h-144v145zM505 337v-145h-145v145h145zM472 304h-79v-80h79v80zM360 145h145v-145h-145v145z" />
    <glyph glyph-name="wheelchar" unicode="&#xe035;" 
d="M222 496q13 -13 13 -33t-13 -33t-33 -13t-33 13t-13 33t13 33t33 13t33 -13zM217 31q53 0 90 34t42 87l26 -44q-18 -49 -61 -79q-44 -30 -97 -30q-70 0 -118 48t-48 118q0 43 21 81q21 37 56 60v-44q-42 -38 -42 -96q0 -54 39 -93t93 -39zM461 109q5 -13 5 -15
q0 -12 -13 -22q-6 -3 -13 -3q-17 0 -24 12l-63 107h-134q-35 0 -54 16t-19 46v114q0 19 14 33t33 14t33 -14t14 -33v-2v-40h81q19 0 19 -20q0 -22 -21 -22h-81v-27h118q14 0 23 -12l80 -132h2z" />
    <glyph glyph-name="building" unicode="&#xe037;" 
d="M494 431q5 0 9 -4q4 -5 3 -9v-359q0 -14 -14 -14h-76q-13 0 -13 14v65h-26v-65q0 -14 -13 -14h-83q-14 0 -14 14v74h-24v-74q0 -14 -13 -14h-84q-13 0 -13 14v65h-25v-65q0 -14 -14 -14h-76q-13 0 -13 14v359q0 11 13 15h115v20q0 14 13 14h220q13 0 13 -14v-22h115z
M133 403h-101v-330h49v66q0 13 13 13h39v251zM352 439h-191v-367h57v74q0 14 13 14h51q13 0 13 -14v-74h57v367zM480 404h-101v-252h39q13 0 13 -13v-67h49v332zM71 333q-5 0 -5 4v27q0 4 5 4h26q5 0 5 -4v-27q0 -4 -5 -4h-26zM71 257q-5 0 -5 4v27q0 5 5 5h26q5 0 5 -5v-27
q0 -4 -5 -4h-26zM71 181q-5 0 -5 4v27q0 5 5 5h26q5 0 5 -5v-27q0 -4 -5 -4h-26zM415 333q-5 0 -5 4v27q0 4 5 4h26q5 0 5 -4v-27q0 -4 -5 -4h-26zM415 257q-5 0 -5 4v27q0 5 5 5h26q5 0 5 -5v-27q0 -4 -5 -4h-26zM415 181q-5 0 -5 4v27q0 5 5 5h26q5 0 5 -5v-27q0 -4 -5 -4
h-26zM200 360q-4 0 -4 6v26q0 5 4 5h27q4 0 4 -5v-28q0 -4 -4 -4h-27zM200 284q-4 0 -4 4v27q0 4 4 4h27q4 0 4 -4v-27q0 -4 -4 -4h-27zM200 208q-4 0 -4 6v25q0 4 4 4h27q4 0 4 -4v-27q0 -4 -4 -4h-27zM285 360q-4 0 -4 6v26q0 5 4 5h27q4 0 4 -5v-28q0 -4 -4 -4h-27z
M285 284q-4 0 -4 4v27q0 4 4 4h27q4 0 4 -4v-27q0 -4 -4 -4h-27zM285 208q-4 0 -4 6v25q0 4 4 4h27q4 0 4 -4v-27q0 -4 -4 -4h-27z" />
    <glyph glyph-name="dots" unicode="&#xe038;" 
d="M51 315q23 0 38 -15q16 -17 17 -38q0 -23 -16 -39t-39 -16t-39 15t-16 38q0 22 17 39q16 16 39 16h-1zM252 315q22 0 38 -16q16 -17 18 -39q0 -23 -16 -39t-39 -16t-39 15t-16 38q0 22 17 39q16 16 39 16zM454 313q23 0 39 -16q16 -17 18 -39q0 -23 -16 -39t-39 -16
t-39 15t-16 38q0 22 17 39q16 16 39 16z" />
    <glyph glyph-name="minus" unicode="&#xe039;" 
d="M462 311q20 0 32 -13q12 -14 12 -31v-22q0 -18 -12 -31t-31 -13h-414q-19 0 -31 13t-12 31v22q0 17 12 31q12 13 32 13h412z" />
    <glyph glyph-name="arrow_up" unicode="&#xe040;" 
d="M4 130l252 252l253 -252h-505z" />
    <glyph glyph-name="b" unicode="&#xe041;" 
d="M125 243q-7 7 -7 12q0 6 7 13l237 239q3 5 11 5q18 0 18 -16v-118q0 -5 -6 -11l-112 -110l110 -112q6 -6 6 -13v-116q0 -8 -6 -12q-2 -6 -9 -6t-11 6l-237 240z" />
    <glyph glyph-name="chevron_circle_right" unicode="&#xe042;" 
d="M10 255q0 107 72 182t174 75t174 -75q72 -74 72 -180q0 -107 -72 -182t-174 -75t-174 74q-72 75 -72 181zM397 109q58 61 58 147t-58 144q-60 61 -141 61t-141 -61q-58 -58 -58 -144t58 -147q58 -60 141 -60q82 0 141 60zM303 295l40 -40l-40 -40l-61 -65q-3 -3 -7 -3
q-10 0 -22 14q-14 14 -14 23q0 3 3 6l61 65l-61 65q-4 4 -4 7q0 7 15 22q12 14 22 14q4 0 7 -3z" />
    <glyph glyph-name="logo_ice" unicode="&#xe043;" 
d="M467 410q38 0 38 -37v-232q0 -37 -39 -37l-427 2q-39 0 -39 36v230q0 36 39 36zM473 362q0 17 -17 17h-406q-17 0 -17 -17v-210q0 -17 17 -17h406q17 0 17 17v210zM115 330q6 0 11 -6q6 -6 6 -13t-6 -11q-5 -6 -12 -6t-13 6q-5 5 -5 11q0 9 7 13q4 6 12 6zM96 278h36
v-103h-36v103zM187 301q18 22 50 24q26 0 39 -7v-24q-7 19 -27 19h-5q-14 0 -27 -19q-10 -20 -10 -45q0 -18 6 -30q6 -19 19 -25q7 -4 17 -4q16 0 27 14v-24q-13 -7 -36 -7q-32 0 -53 21t-21 52q0 32 19 54zM368 240q-18 -8 -24 -17q3 -23 21 -30q7 -3 18 -3q19 0 31 18v-23
q-8 -6 -26 -9q-15 -3 -16 -3q-29 0 -48 21q-20 23 -20 52q0 32 16 54q18 24 49 24h5h4q15 0 25 -10q13 -12 13 -26q0 -16 -13 -28q-12 -12 -31 -21zM345 239q4 4 8 7t8 5q12 10 18 19q7 10 7 24q0 18 -15 18h-2q-23 -3 -23 -59v-13z" />
    <glyph glyph-name="profile_card" unicode="&#xe044;" 
d="M464 445q18 0 30 -12t12 -29v-293q0 -17 -12 -29t-29 -12h-420q-17 0 -29 12t-12 29v293q0 17 12 29t29 12h420h-1zM256 323q0 19 -21 19h-147q-21 0 -21 -19v-150q0 -19 21 -19h147q21 0 21 19v150zM403 175h-106v-21h106v21zM444 217h-147v-22zM444 259h-147v-21z
M444 301h-147v-22zM444 343h-147v-21z" />
    <glyph glyph-name="chevron_down" unicode="&#xe045;" 
d="M267 126q-2 -5 -9 -5q-8 0 -12 7l-241 237q-5 2 -5 9q0 6 5 11q6 6 11 6h118q5 0 11 -6l110 -110l112 110q6 6 13 6h116q7 0 12 -8q6 -2 6 -9t-6 -11l-240 -237h-1z" />
    <glyph glyph-name="chevron_up" unicode="&#xe046;" 
d="M243 388q7 7 13 7q5 0 12 -7l242 -239q6 -2 6 -10t-6 -12q-5 -6 -12 -6h-116q-7 0 -13 6l-112 110l-112 -110q-6 -6 -13 -6h-116q-6 0 -11 8q-5 2 -5 9q0 6 5 11l239 237z" />
    <glyph glyph-name="organisation_licence" unicode="&#xe048;" 
d="M327 384v128l128 -128h-128zM140 351h78v-33h-78v33zM140 242h232v-32h-232v32zM140 179h232v-32h-232v32zM140 114h232v-33h-232v33zM403 320h-154v83h-141v-352h295v269zM57 0v512h237v-147h161v-365h-398z" />
    <glyph glyph-name="organisation_card" unicode="&#xe049;" 
d="M494 486q16 -16 16 -39v-8v-371q0 -31 -19 -50q-20 -21 -45 -21l-387 2q-26 0 -44 21t-18 51v369q0 31 19 50q19 21 45 21h387q25 0 46 -24v-1zM474 439q0 13 -9 27q-11 9 -18 9h-73v-36q0 -13 -12 -13q-13 0 -13 13v36h-89v-36q0 -13 -12 -13q-13 0 -13 13v36h-89v-36
q0 -13 -12 -13q-13 0 -13 13v36h-61q-10 0 -19 -10q-9 -11 -9 -25v-369q0 -16 9 -26q9 -11 20 -11h388q11 0 20 11q9 10 9 26zM275 288h174v-38h-174v38zM275 346h174v-38h-174v38zM63 288h179v-38h-179v38zM63 346h179v-38h-179v38zM275 172h174v-38h-174v38zM275 230h174
v-38h-174v38zM63 172h179v-38h-179v38zM63 230h179v-38h-179v38zM275 114h174v-38h-174v38zM63 114h179v-38h-179v38zM166 365h-103v38h103v-38z" />
    <glyph glyph-name="calendar" unicode="&#xe050;" 
d="M499 384h-484v64q0 8 6 14t15 6h42v20q0 10 6 16t14 6h21q9 0 15 -6t6 -15v-21h232v21q0 9 6 15t15 6h22q9 0 15 -6t6 -15v-21h41q7 0 13 -6t6 -14zM391 276v-64h63v64h-63zM391 189v-63h63v63h-63zM391 104v-63h63v63h-63zM306 276v-64h63v64h-63zM306 189v-63h63v63
h-63zM306 104v-63h63v63h-63zM222 276v-64h64v64h-64zM222 189v-63h64v63h-64zM222 104v-63h64v63h-64zM139 276v-64h63v64h-63zM139 189v-63h63v63h-63zM139 104v-63h63v63h-63zM54 276v-64h63v64h-63zM54 189v-63h63v63h-63zM54 104v-63h63v63h-63zM497 19q0 -9 -6 -15
t-14 -6h-442q-9 0 -15 7t-6 15v342h485z" />
    <glyph glyph-name="globe_inverted" unicode="&#xe051;" 
d="M253 514q105 0 180 -75q77 -77 77 -183q0 -102 -76 -178q-75 -75 -181 -75q-105 0 -182 74q-75 73 -75 181q0 106 75 181q76 76 183 76zM35 258q0 -92 64 -156t156 -64q91 0 154 64q63 63 63 157v5q-27 4 -42.5 6t-19.5 2h-4q-7 -2 -13.5 -2.5t-13.5 -1.5l13 -24l-31 -10
l-18 39l-6 -3q7 -16 11 -29t6 -24q-20 -23 -30 -39q0 -34 -9 -74l-31 -27l-22 14q-6 65 -16 95l-18 27l-42 9l-11 25l8 36q5 2 13 5q7 2 16 6t23 9l10 -4t10 -3l22 -4l31 -9q10 -3 17.5 -4t12.5 -1l11 23h-12l-8 38l-30 2l1 -13l15 -19l-13 5l4 -9l-22 -5l9 5l-5 18l-15 11
l-11 -11l-16 4l-11 -18l-18 9l15 18l21 5l9 13l31 14l7 9l8 29l-19 -9l11 -9l-14 -13l-6 15l-7 -11l-20 18l44 38h36l4 22q-45 14 -76 14q-41 0 -72 -12q7 -4 7 -12q0 -1 -5 -4q-4 0 -5 -1t-4 -1q-10 -1 -22 -10q-11 -9 -21 -33q-6 -18 -17 -18q-8 0 -12 9l-6 9q-7 0 -15 -5
l-4 -4q-47 -59 -47 -134zM277 300l-9 9h11zM248 373l-7 12l3 9l22 -23l-11 -11l-11 2l9 11h-5zM208 396l-13 -2l6 18h12l4 -9zM230 360l-4 9l6 9l5 -9z" />
    <glyph glyph-name="arrow_circle_right" unicode="&#xe052;" 
d="M258 510q105 0 180 -76q75 -77 75 -180q0 -105 -74 -182q-74 -75 -180 -75q-107 0 -182 75t-75 182t75 182t182 75zM259 26q93 0 161 66q67 67 67 162t-67 162t-162 67t-162 -67q-66 -66 -66 -161q0 -96 66 -162t162 -66zM265 331q6 6 12 6q9 0 23 -11l57 -69l-57 -80
q-12 -14 -22 -14q-6 0 -11 5q-7 7 -7 15q0 5 5 13l36 46h-157l-3 1q-5 0 -9 3t-4 9q0 15 15 15h156l-22 23q-9 9 -12.5 17t-3.5 13t3 8h1z" />
    <glyph glyph-name="arrow_circle_double" unicode="&#xe053;" 
d="M258 512q105 0 180 -76q75 -77 75 -180q0 -105 -74 -182q-74 -75 -180 -75q-107 0 -182 75t-75 182t75 182t182 75zM259 28q93 0 161 66q67 67 67 162t-67 162t-162 67t-162 -67q-66 -66 -66 -161q0 -96 66 -162t162 -66zM336 250q-13 -13 -24 -13q-6 0 -10 4q-6 6 -6 16
q0 8 4 12l37 45h-158q-14 0 -14 15q0 12 11 14h3h158l-22 24q-17 15 -17 27q0 8 4 12q6 6 13 6q10 0 22 -14l57 -68l-12 -16l-17 -23q-6 -8 -10 -14t-8 -11t-6.5 -9t-4.5 -6v-1zM187 274q14 14 23 14q4 0 9 -5q6 -6 6 -16q0 -8 -4 -12l-36 -45h157q14 0 14 -14t-10 -14
l-4 -1h-157l21 -23q17 -20 17 -30q0 -5 -4 -9q-6 -6 -13 -6q-9 0 -21 13l-58 69q5 5 14 18q6 8 12.5 17t14.5 18t12 15t6 8z" />
    <glyph glyph-name="plane_side_left" unicode="&#xe054;" 
d="M401 170h-8q-8 0 -9 1l-349 124q-11 4 -21 15q-10 10 -10 18q0 9 33 11q5 1 10.5 1h12.5q12 0 14 -2l152 -60l177 39q10 2 14 2q25 0 27 -8q0 -2 1 -3q0 -11 -18 -15l-115 -48l81 -32l77 29h3q10 0 18 -4q18 -8 18 -10q0 -5 -23 -20q-24 -17 -33 -20z" />
    <glyph glyph-name="clock_smaller" unicode="&#xe055;" 
d="M331 274q11 0 9 -11v-20q0 -11 -11 -11h-38q-13 -22 -36 -22q-17 0 -30 13t-13 31q0 21 21 36v80q0 5 3 8t8 3h22q5 0 8 -3t3 -7v-80q13 -7 16 -16h38v-1zM437 434q75 -77 75 -180q0 -106 -75 -182q-74 -75 -180 -75q-107 0 -182 75t-75 182q0 106 75 181q76 76 183 76
q105 0 180 -76zM44 254q0 -88 62 -150t152 -62q88 0 150 62t62 150t-63 151t-150 63q-89 0 -152 -63q-62 -62 -62 -150z" />
    <glyph glyph-name="path_from_to" unicode="&#xe056;" 
d="M118 374q-26 4 -42 24q-16 19 -16 43q0 28 20 48t48 20t48 -20t20 -48q0 -29 -19 -48q-19 -21 -46 -22v-12h-14v14zM127 480q-17 0 -27 -12q-11 -14 -11 -29q0 -16 11 -27q12 -12 27 -12q17 0 29 12t12 29t-12 29t-28 12zM74 51q0 22 15 39q15 16 38 16t39 -16t16 -39
t-16 -38q-17 -15 -39 -15q-23 0 -38 16t-15 39v-2zM118 160h14v-29h-14v29zM132 247h-14v29h14v-29zM132 305h-14v29h14v-29zM132 189h-14v29h14v-29zM441 251q7 -9 8 -11h1v-7l-63 25q-35 13 -51 18l-6 -11v-36q0 -9 -3 -27l34 -29q2 -4 4 -7.5t3 -7.5l4 -5l-51 20l-3 -11
v-11h-2l-2 9l-4 9l-49 -18l-1 11q6 9 10 13l35 27l-4 25v36l-3 11q-1 0 -13 -3.5t-35 -12.5q-20 -8 -38 -15.5t-33 -14.5v7q0 9 9 15l36 27l40 27l35 27q5 8 5 15l2 36q4 21 12 21q5 0 10 -21q1 -5 1.5 -14t0.5 -22q0 -14 6 -15l34 -25l72 -56z" />
    <glyph glyph-name="plane_side_right" unicode="&#xe057;" 
d="M60 187q-13 4 -34 19q-22 15 -22 20q0 6 17 11q8 4 20 4h3l76 -29l81 32l-115 48q-18 4 -18 15l1 1v2q3 8 28 8q3 0 13 -2l177 -39l152 60q2 2 12 2h11h12q17 0 25.5 -3.5t8.5 -7.5q0 -8 -10 -18t-19 -13l-349 -125h-9h-3l-1 -1q-3 0 -4 1z" />
    <glyph glyph-name="times_circle" unicode="&#xe058;" 
d="M259 510q105 0 180 -75q77 -77 77 -183q0 -102 -76 -177q-77 -75 -181 -75q-107 0 -183 74q-75 73 -75 181q0 107 75 182t182 75zM52 255q0 -86 60 -146t146 -60q85 0 145 61q61 61 61 147q0 84 -61 145t-145 61q-86 0 -147 -61q-60 -62 -60 -147h1zM362 190q2 -2 2 -5
q0 -11 -13 -24q-14 -14 -21 -14q-4 0 -7 3l-65 65l-65 -65q-2 -2 -5 -2q-11 0 -24 13q-14 14 -14 21q0 4 3 7l65 65l-65 65q-2 2 -2 5q0 11 13 24t22 13q4 0 6 -2l65 -65l65 65q2 2 5 2q11 0 24 -13t13 -22q0 -4 -2 -6l-65 -65z" />
    <glyph glyph-name="email" unicode="&#xe059;" 
d="M379 57q-77 -62 -156 -62q-93 0 -146 62t-53 152q0 116 76 207q79 94 195 94q82 0 138 -63q53 -62 53 -147q0 -19 -4 -42q-5 -30 -13.5 -54.5t-22.5 -43.5q-35 -47 -87 -47q-55 0 -66 50q-8 -21 -36 -36q-24 -12 -51 -12q-76 0 -76 92q0 64 42 120q44 56 107 56
q43 0 57 -30l5 21h49l-43 -179q-4 -15 -4 -25q0 -29 23 -29q32 0 58 45q16 31 24 75q1 6 1.5 15t0.5 20q0 80 -40 132q-47 59 -120 59q-84 0 -150 -76q-56 -65 -68 -157q-2 -14 -3 -24.5t-1 -18.5q0 -80 40 -132q46 -58 121 -58q66 0 152 68zM227 149q31 0 57 69
q18 49 18 99q0 39 -29 39q-35 0 -58 -59q-20 -50 -20 -89q0 -58 31 -58z" />
    <glyph glyph-name="question_mark" unicode="&#xe060;" 
d="M350 275l-33 -36q-11 -11 -19 -20.5t-15 -16.5q-31 -34 -31 -79v-8h-40q-2 20 -3.5 39t-1.5 36v12q6 62 49 102q47 44 47 87v8q0 31 -28 49q-23 14 -45 14q-17 0 -53 -14q-41 -23 -60 -60v61q43 48 114 60q2 1 23 1q46 0 84 -29q52 -39 52 -112q0 -51 -36 -93zM269 10
q-12 -12 -32 -12q-21 0 -33 12q-14 17 -14 33q0 20 13 33t33 13t33 -13q14 -14 14 -32q0 -20 -13 -33z" />
    <glyph glyph-name="planes_connection" unicode="&#xe061;" 
d="M162 383h-31v92h192v-32h-161v-60zM352 159h31v-118h-156v32h125v86zM161 125q0 -2 -5 -30l37 -31q6 -5 9 -15l2 -9l-54 21l-3 -10v-11h-2l-1 11l-5 10l-49 -20l2 11q1 7 9 15l36 31q-5 12 -5 28v41l-5 12q-8 0 -51 -18l-76 -32v7q0 10 10 16l37 31l39 30l37 31q6 7 6 15
l2 40q2 9 6 16t7 7q4 0 12 -23q1 -2 1 -40q0 -14 6 -17l37 -30l77 -62q7 -6 9 -15v-8l-68 29q-23 10 -36 14.5t-18 5.5l-4 -12zM499 298q5 -5 6 -7t2 -3.5t2 -3.5q1 -3 3 -3v-7l-67 29q-44 19 -57 20l-4 -13v-39q0 -2 -5 -30l37 -30q6 -4 9 -16l2 -9l-54 22l-3 -11v-11h-2
l-1 11l-5 11l-50 -22l1 11q1 7 12 15l35 31q-1 5 -2 12t-1 16v41l-5 12q-11 0 -51 -18l-75 -32v7q0 10 9 16l37 30l40 31l37 31q6 7 6 15v43q5 23 12 23q8 0 13 -24q1 -2 1 -40q0 -14 6 -17l37 -31l77 -61z" />
    <glyph glyph-name="edit" unicode="&#xe062;" 
d="M402 310q10 -10 10 -24q0 -15 -10 -25l-12 -13l-170 -170l-6 -5q-20 -20 -141 -57h-2h-3l-15 -5q-8 -5 -12 -2q-13 -4 -28 -4q-7 0 -9 2q-4 4 -4 13q0 3 1 9t4 15l4 13l1 3l1 3l1 2q1 1 1 3q0 4 1 5v2v2q20 60 33.5 95t23.5 46l5 6l170 170l13 12q6 6 12.5 8t12.5 2
q14 0 24 -10zM199 93l-103 105l-4 -3q-7 -13 -13.5 -29t-13.5 -35l-5 -14l58 -58l14 5q18 7 33.5 13t29.5 14l2 2h2zM503 406q10 -10 10 -24q0 -15 -10 -25l-24 -23q-10 -10 -24 -10t-24 10l-98 98q-9 9 -9 23q0 13 9 24l23 24q13 10 25 10q14 0 24 -10l98 -98v1z" />
    <glyph glyph-name="activities" unicode="&#xe063;" 
d="M133 190q-4 4 -4 7t4 7l25 27q8 6 14 0l42 -43q0 -2 2 -2l217 219h-28v-16q0 -11 -7 -18t-18 -7q-8 0 -16 8q-7 7 -7 18v16h-79v-16q0 -11 -7 -18t-18 -7q-8 0 -16 8q-7 7 -7 18v16h-79v-16q0 -11 -7 -18t-18 -7q-8 0 -16 8q-7 7 -7 18v16h-29v-358l99 99zM434 462
q20 0 35 -15t15 -35v-365q0 -20 -15 -35t-35 -15h-358q-22 0 -37 15t-15 37v365q0 21 15 36t37 15h27v18q0 11 7 18q8 8 16 8q11 0 18 -7t7 -18v-18h81v18q0 25 23 25t23 -25v-18h83v18q0 11 7 18q8 8 18 8q9 0 16 -7t7 -18v-18h27z" />
    <glyph glyph-name="chevron_double_left" unicode="&#xe064;" 
d="M252 507q6 -6 6 -11v-116q0 -7 -6 -13l-104 -110l104 -112q6 -6 6 -13v-116q0 -8 -6 -12q-3 -6 -10 -6q-5 0 -11 6l-225 240q-5 8 -5 12t5 12l225 239q5 5 11 5q4 0 9 -5h1zM512 378q0 -8 -4 -12l-106 -110l105 -112q5 -8 5 -12v-116q0 -7 -5 -12q-6 -6 -11 -6
q-7 0 -11 6l-224 240q-5 5 -5 12t5 12l226 239q5 5 11 5q5 0 9 -4q5 -5 5 -12v-118z" />
    <glyph glyph-name="chevron_double_right" unicode="&#xe065;" 
d="M251 271q5 -5 5 -12t-5 -12l-224 -240q-5 -6 -11 -6q-5 0 -11 6q-5 5 -5 12v116q0 8 4 12l105 112l-104 112q-5 8 -5 12v116q0 3 5 11q3 5 11 5q6 0 11 -5zM508 271q5 -5 5 -12q0 -6 -5 -14l-224 -241q-5 -5 -11 -5t-11 5q-5 8 -5 12v115q0 4 5 12l105 112l-105 112
q-5 8 -5 12v116q0 4 5 12q5 5 11 5t11 -5l224 -239v3z" />
    <glyph glyph-name="help" unicode="&#xe066;" 
d="M258 110q-7 -7 -21 -7t-21 7t-7 18q0 13 7 19q7 7 21 7t21 -7q9 -9 9 -19q0 -9 -9 -18zM227 174q-3 21 -3 42v10q0 30 30 60q31 30 30 57q-3 17 -18 29q-17 9 -27 9q-5 0 -12.5 -2t-17.5 -7q-23 -12 -38 -36v34q25 28 69 36q5 0 8 1t8 1q26 0 51 -16q32 -26 32 -66
q0 -34 -23 -57l-42 -44q-18 -18 -18 -44v-8zM413 411q-65 66 -157 66t-158 -66q-65 -65 -65 -156t65 -156q67 -65 159 -65q91 0 156 65t65 156t-65 156zM436 73q-74 -74 -180 -74q-105 0 -182 74q-75 73 -75 181q0 106 75 181q76 76 183 76q105 0 180 -76q75 -77 75 -180
q0 -106 -75 -181z" />
    <glyph glyph-name="dialog" unicode="&#xe067;" 
d="M448 480q25 0 42 -17t17 -42v-231q0 -24 -17 -41t-41 -17h-43v-102l-130 102h-217q-24 0 -41 17t-17 41v231q0 25 17 42t42 17h390h-2zM464 219v174q0 22 -6 33q-6 10 -23 10h-346q-18 0 -30 -12t-12 -31v-174q0 -23 6 -33t23 -10h216l73 -43v43h73q29 0 29 43h-3z" />
    <glyph glyph-name="plain_top_right" unicode="&#xe068;" 
d="M457 37v-9q0 -1 -2 -9q-2 -7 -3 -8t-1 -5l-1 -2l-11 -11l-8 18q-21 48 -34.5 80t-19.5 48q-17 45 -31 74.5t-24 43.5l-28 -11l-57 -60q-19 -19 -49 -39l11 -102q2 -10 -1 -17q-2 -5 -2.5 -8.5t-1.5 -5.5l-3 -5l-9 -17l-51 116l-21 -11l-16 -16l-2 3l14 18l9 22l-110 49
l16 14q13 5 28 5h10l101 -9q10 16 18 27.5t15 19.5l61 60l11 25q-15 13 -40 23q-26 11 -32 15l-33 15q-122 55 -162 72l11 12q9 9 23 9q2 0 6 -0.5t9 -1.5l101 -12l14 21q11 9 21 13l14 -14q-9 -18 -23 -27l79 -11l13 18q11 11 23 14l16 -16q-8 -14 -15 -21l69 -5h4
q20 0 33 13l10 10q20 20 33 31.5t18 15.5q32 20 45 20q7 0 10 -4q3 -3 3 -9q0 -14 -21 -45q-14 -20 -56 -62q-15 -15 -15 -26q0 -5 1 -6l5 -65q12 12 21 16l16 -16l-1 -3l-12 -20l-19 -12h-1l9 -79q16 16 27 21l16 -12l-1 -3l-12 -18q-11 -11 -21 -15l-4 -2v-2l13 -99z" />
    <glyph glyph-name="avatar" unicode="&#xe069;" 
d="M253 5q-62 0 -125 29q-59 29 -103 80l13 5l92 36l4 2v4q26 14 38 27q5 9 9 5h2q0 11 7 24q0 6 3 0l-1 9l-2 14q0 2 -4 6q-2 1 -3 9l-3 14l-1 7q0 1 -3 4t-6 9q-2 4 -3 7t-2 7q-8 34 -8 43q0 7 2 9h2l-1 3q-1 1 -1 3t-3 14t-3 15q0 62 13 84q16 28 45 36q15 4 46 4h10
q22 0 33 -4q7 -3 12 -6t9 -5q13 -6 31 -28q12 -24 12 -63v-9v-9q0 -13 -6 -40q4 4 6 4q2 -2 2 -11q0 -8 -8 -42l-6 -15q-4 -5 -5 -9q-1 -2 -1 -3t-1 -1q-1 -1 -4 -15q-2 -11 -5 -16q-3 -3 -4 -6l-2 -18l1 -5l1 1q1 1 3 1l6 -24q1 -1 1 -3q0 -1 3 -1q4 0 7 -5q0 -2 2 -2
q7 -11 36 -27q2 0 3 -1l2 -1l92 -39q-43 -52 -105 -82t-127 -30z" />
    <glyph glyph-name="plus" unicode="&#xe070;" 
d="M416 288v-64h-128v-128h-64v128h-128v64h128v128h64v-128h128z" />
    <glyph glyph-name="window_seat" unicode="&#xe072;" 
d="M322 511q56 0 96 -40t40 -96v-240q0 -56 -40 -96t-96 -40h-134q-56 0 -96 40t-40 96v240q0 55 39 96q40 40 97 40h134zM188 469q-39 0 -67 -27t-28 -66v-163h324v161q0 40 -27 69q-27 28 -66 28h-134zM324 41q39 0 66 28t27 66v38h-141v-29q11 -9 11 -22q0 -12 -9 -21
t-21 -9t-21 9t-9 21q0 10 11 24v29h-141v-38q0 -41 27 -69t66 -28h134v1z" />
    <glyph glyph-name="american_football" unicode="&#xe073;" 
d="M514 390q-19 4 -38.5 14t-39.5 29q-17 16 -27.5 35t-15.5 41h16q53 0 89 -16q16 -38 16 -87v-15v-1zM2 119q47 -7 83 -43q31 -31 42 -76h-15q-49 0 -93 16q-16 38 -16 87v15zM361 509q10 -56 54 -99q43 -43 100 -55q-18 -131 -121 -234q-105 -105 -230 -121
q-11 53 -54 98q-44 44 -104 54q8 67 38 125t82 112q101 103 233 121zM328 306l24 23l-24 24l-23 -24l-18 18l-24 -23l20 -18l-27 -27l-18 18l-24 -24l20 -18l-27 -27l-18 18l-23 -23l19 -19l-23 -23l23 -24l24 24l18 -18l24 23l-20 18l27 28l20 -19l23 24l-20 18l27 27
l19 -18l23 24z" />
    <glyph glyph-name="baseball" unicode="&#xe074;" 
d="M438 439q76 -76 76 -183t-76 -183q-8 10 -15 20t-12 20l18 16l-20 27l-14 -12q-8 20 -13 33.5t-7 20.5l20 5l-9 33l-17 -4q-3 15 -3 31v9v11l20 -4l6 33l-20 4q2 13 8 28t14 33l21 -11l17 31l-20 9q9 14 25 33h1zM386 93q7 -11 13.5 -21t13.5 -19q-68 -54 -155 -54
q-86 0 -156 52q11 16 18 27t11 17l20 -18l20 27l-23 20q14 34 23 65l31 -9l9 32l-33 10q3 21 3 41q0 21 -1 24l29 5l-5 33l-29 -6q-8 31 -24 69l22 13l-15 29l-23 -13q-14 24 -31 42q67 52 154 52q85 0 154 -51q-17 -20 -30 -39l-20 9l-11 -28l18 -9q-17 -32 -24 -69l-26 3
l-5 -32l25 -4v-13v-13q0 -22 3 -41l-29 -9l9 -32l26 7q6 -29 25 -67l-22 -18l20 -27zM107 118q-4 -6 -11 -17t-18 -27q-76 76 -76 183q0 108 78 183l27 -33l-18 -9l16 -31l18 9q14 -32 21 -61l-18 -4l5 -32l17 3q0 -13 -0.5 -25t-1.5 -24l-13 4l-9 -33l16 -3
q-10 -32 -21 -53l-10 9l-22 -25z" />
    <glyph glyph-name="cricket" unicode="&#xe075;" 
d="M389 338q17 -17 17 -39t-17 -39l-242 -243q-16 -16 -40 -16t-40 16l-51 51q-16 16 -16 39q0 24 16 40l243 243q16 16 40 16q20 0 39 -16l8 -7l128 130l38 -38l-130 -129l7 -7v-1zM367 71q0 30 21 51t51 21t50 -21q20 -23 20 -51q0 -26 -20 -49q-20 -21 -50 -21t-51 21
t-21 50v-1z" />
    <glyph glyph-name="golf" unicode="&#xe076;" 
d="M415 507q19 0 19 -19q0 -7 -1 -8l-9 -20q-11 -24 -36 -24q-5 0 -6 1l-25 3q-9 0 -18 11l-51 -127l17 -5q14 -8 14 -18q0 1 -0.5 -1.5l-1.5 -7.5l-112 -280q-6 -14 -21 -14q-5 0 -6 1l-90 36q-15 6 -15 20q0 -1 2 9l110 279q7 15 20 15q5 0 11 -3l4 -1l23 57q-16 0 -20 4
l-21 15q-17 12 -17 33q0 1 0.5 4t1.5 8l9 22q6 14 17 14q9 0 16 -7l31 -33q10 -10 10 -25q0 -13 -7 -20q0 -2 -3 -5l-28 -73l47 -18l57 141v6q0 12 11 21q11 10 24 10l45 2z" />
    <glyph glyph-name="motorsport" unicode="&#xe077;" 
d="M185 443v-45h-45v45h45zM276 398h-45v-45h-46v45h46v45h45v-45zM278 353v45h45zM455 353v45h-42v-45h42zM140 266h45v40h-45v-40zM276 306v45h-45v-43h1v-2h44zM323 266h45v40h-45v-40zM323 351h45v47h-45v45h43v42h-45v-42h-45v42h-45v-42h-46v42h-45v-42h-41v-45h41
v-47h-41v-43h41v43h45v-43h46v-2h1v-40h46v42h45v43zM413 266h42v42h-42v-42zM413 351h-45v-43h45v43zM464 494v-239h-369v-255h-47v512h47v-18h369zM453 485h-41v-42h-44v-45h45v45z" />
    <glyph glyph-name="rugby" unicode="&#xe078;" 
d="M480 439q29 -38 29 -84q0 -35 -15 -75q-23 9 -47.5 23t-48.5 35q-63 52 -69 148q6 1 15 1.5t20 0.5q76 0 117 -50zM15 227q48 -18 93 -57q62 -51 69 -145q-11 -1 -18.5 -1.5t-11.5 -0.5q-78 0 -118 49q-28 34 -28 82q0 29 14 73zM312 482q3 -51 22 -90t52 -68
q26 -21 51.5 -36.5t51.5 -24.5q-36 -81 -118 -148q-90 -72 -176 -85q-8 99 -74 154q-50 42 -99 61q36 85 120 153q82 67 171 84h-1zM308 291l30 25l-12 14l-31 -26l-16 17l-13 -14l15 -16l-25 -21l-18 19l-13 -13l18 -18l-31 -26l-16 18l-14 -13l17 -16l-25 -20l12 -14
l24 21l20 -20l13 13l-18 20l31 26l18 -20l13 13l-18 18l25 22l21 -22l13 12z" />
    <glyph glyph-name="theatre" unicode="&#xe079;" 
d="M293 330q6 -32 6 -60q0 -55 -19 -109q-28 -82 -84 -91q-2 -1 -13 -1q-49 0 -96 59q-54 69 -70 156q-2 12 -3.5 29.5t-1.5 40.5v25q26 47 120 65q17 4 48 4q58 0 85 -24q19 -45 27 -92zM63 279q6 3 6 7q9 16 25 16q5 0 11 -3q2 -1 6 -1q1 0 2 -1q8 0 11 9q1 1 1 6
q0 10 -8 12q-15 5 -22 5q-37 0 -50 -31q-1 -1 -1 -6q0 -9 8 -12q6 -2 11 0v-1zM260 233q3 3 3 7t-6 7q-8 4 -12 -3l-7 -8l-7 -7q-24 -24 -59 -30q-6 -1 -10.5 -1.5t-8.5 -0.5l-47 11q-14 4 -18 9q-8 4 -12 -3q-5 -8 3 -15q47 -59 93 -59q28 0 51 23t36 68zM259 315q4 4 4 9
q0 6 -4 10q-14 17 -38 17q-25 0 -39 -17q-5 -5 -5 -10q0 -4 5 -9q4 -4 9 -4t9 4q10 10 19 10l20 -10q5 -5 9 -5t9 5h2zM510 378q1 -5 1 -11.5v-15.5q0 -38 -9 -69q-15 -89 -69 -155q-46 -58 -96 -58q-11 0 -13 1q-29 6 -51 33q16 23 25 52q11 30 12 40q5 -2 12.5 -4t18.5 -4
h21q18 0 30 -3q13 -3 17 -10l12 -15q4 -8 12 -3q7 4 3 12q-9 28 -24 37t-40 10q-13 0 -38 6q-6 3 -19 5q1 7 1.5 16.5t0.5 22.5t-0.5 22.5t-1.5 16.5q5 -5 9 -5q0 1 1 1q3 0 5 1q8 5 8 12q0 5 -1 6q-11 19 -30 27q-5 20 -11.5 40.5t-14.5 42.5l-1 4q26 10 63 10q14 0 26 -1
t22 -3q46 -9 74 -25q34 -20 44 -40zM476 287q4 4 4 9q0 6 -4 10q-14 17 -38 17q-25 0 -39 -17q-5 -5 -5 -10q0 -4 5 -9q4 -4 9 -4t9 4q10 10 19 10l20 -10q5 -5 9 -5t9 5h2z" />
    <glyph glyph-name="arts" unicode="&#xe080;" 
d="M379 450q19 19 30 19t30 -17l52 -48q19 -18 19 -29t-18 -29l-120 -122q-5 35 -39 68q-36 35 -71 39zM325 224q5 -17 5 -30q0 -52 -50 -91q-48 -39 -102 -50q-40 -8 -68 -8q-17 0 -20 1q-17 1 -39.5 7.5t-51.5 16.5l8 1q1 1 2 1q3 0 6 1l9 3l10 3l10 3q4 1 9 5q6 3 9 6
l7 7q4 4 6 9l3 11q2 10 2 12v8q-1 2 -1 12q0 50 52 99q43 40 93 40q14 0 29 -3q27 -8 46 -27q23 -23 27 -38z" />
    <glyph glyph-name="basketball" unicode="&#xe081;" 
d="M235 254l-172 -172q-62 71 -65 165q99 5 172 72zM150 339q-65 -59 -152 -63q7 85 66 150zM193 339q66 78 70 172q97 -3 165 -65l-172 -172zM234 511q-5 -89 -63 -153l-87 87q64 58 150 66zM319 173q-68 -71 -72 -174q-91 3 -162 65l172 172zM275 254l172 172
q62 -71 65 -162q-101 -3 -174 -70zM358 174q63 57 154 63q-8 -92 -65 -152zM275 0q6 91 63 154l89 -89q-65 -59 -152 -65z" />
    <glyph glyph-name="football" unicode="&#xe082;" 
d="M138 292l-65 36l6 114q12 12 28.5 23.5t36.5 22.5l85 -38l-4 -58zM241 450l107 45q57 -22 98 -69l-7 -107l-62 -18l-137 91zM234 379l136 -87l-45 -144l-145 21l-33 111zM504 316q7 -27 7 -50q0 -4 -0.5 -9t-1.5 -12l-58 73l8 94q28 -38 45 -96zM444 305l65 -81
q-4 -48 -31 -95l-95 -30l-46 41l46 149zM61 328l-62 -56q6 91 65 156zM384 86l82 25q-46 -64 -118 -94zM236 462l-76 33l36 11q29 8 57 8q40 0 78 -12zM373 90l-42 -80q-9 0 -16 -4q-17 -4 -32 -5.5t-27 -1.5q-30 0 -57 7l-58 107l36 44l149 -24zM130 122l-99 15
q-14 22 -24 60q-7 24 -7 56l69 62l65 -36l34 -116zM128 107l53 -96q-92 28 -141 108z" />
    <glyph glyph-name="horse_racing" unicode="&#xe083;" 
d="M382 251q2 -44 44 -63q7 -17 13 -29.5t11 -20.5q4 -8 35 -42l-18 -23l-10 19q-26 39 -59 60l17 -85h-30l4 17l-24 85q-29 12 -50 35h-21q-44 -33 -102 -33h-20l-28 -28l28 -14l6 -28l-23 12l-33 6l-52 -52l-30 12l19 13l35 35l-22 9q-7 4 -7 12t6 11l59 38q-17 46 -48 84
h-4q-11 0 -18 6l-35 -12q-3 -4 -9 -4q-15 0 -15 14q0 7 4 11l54 45q1 3 12 6l9 26l9 -28l40 -20l100 70l66 -15q20 -5 20 -21q0 -23 -34 -50q-4 -1 -2 -5q1 -3 6 -3q10 2 20 2h17q31 0 51 -20q15 7 36 7q49 0 78 -35l-20 -30q-24 33 -64 33q-11 0 -18 -3zM250 333
q-24 2 -40 9l-61 -28l27 -27q1 -4 6 -4h2l41 8q1 0 3 2zM198 386q-12 0 -20 8t-8 20l55 -11q-8 -17 -27 -17zM198 445q12 0 21 -9t9 -19v-3v-3l-82 15l1 5l27 -5q7 19 27 19h-3z" />
    <glyph glyph-name="music" unicode="&#xe084;" 
d="M474 128q0 -16 -18 -34t-45 -27q-18 -6 -34 -6q-21 0 -41 11q-18 10 -24 27q-2 8 -2 15q0 21 18 41q18 19 47 30q17 7 39 7q3 0 7.5 -0.5t10.5 -1.5v205l-232 -61v-270q-2 -17 -20 -35q-19 -19 -44 -26q-17 -5 -33 -5q-53 0 -66 37q-2 8 -2 15q0 21 18 41q18 19 47 30
q17 7 39 7q3 0 7.5 -0.5t10.5 -1.5v290q0 4 3 9t8 5l297 80q1 1 5 1q5 0 5 -9z" />
    <glyph glyph-name="home" unicode="&#xe085;" 
d="M514 305q0 -5 -1 -6l-32 -46q-3 -5 -9 0l-16 11v-227q0 -8 -8 -8h-124q-8 0 -8 8v168h-93v-166q0 -8 -8 -8h-125q-8 0 -8 8v225l-14 -10q-1 -1 -6 -1t-6 3l-32 46q-1 1 -1 4q0 5 1 6l236 166q3 3 8 0l111 -77v71q0 8 8 8h55q8 0 8 -8v-120l55 -40z" />
    <glyph glyph-name="tennis" unicode="&#xe086;" 
d="M429 484q42 -33 42 -93q0 -69 -42 -124q-39 -53 -94 -69l-145 -64l-99 -126q2 -8 0 -11q-3 -3 -8 -3q-10 0 -23 10q-16 10 -16 24q0 2 1 3q2 2 11 2l98 125l20 164q7 64 42 108q40 52 102 72q22 7 42 7q38 0 68 -24zM408 285l11 16l-15 11l-18 -22l15 -13zM359 453
l-18 -22l20 -16l18 22zM388 447l18 24q-13 8 -24 11l-13 -18zM423 402l-18 -21l22 -17l18 22zM445 402q0 1 -3 22l-10 -11zM237 230q10 -8 24 -9l20 25l-20 16l-25 -31zM196 302l6 -25l16 20l-20 14zM209 260q6 -14 16 -21l24 32l-20 16zM307 387l-18 -22l21 -16l18 22z
M334 382l18 21l-20 17l-16 -22zM281 354l-18 -21l20 -17l18 22zM256 320l-18 -22l20 -16l18 22zM289 257l18 21l-20 17l-18 -22zM316 289l18 22l-20 16l-18 -21zM341 324l18 21l-20 17l-18 -22zM368 358l18 22l-21 14l-19 -22zM379 347l20 -14l18 21l-20 17zM412 412l-20 17
l-18 -22l20 -16zM348 461l-20 16l-18 -21l20 -17zM305 472q-5 0 -9 -4l3 -3zM283 459v2q-20 -14 -24 -18l12 -11l18 22zM282 423l20 -16l18 22l-20 16zM275 412l-18 -21l20 -17l18 22zM250 378l-19 -22l20 -16l18 22zM222 345l-18 -21l20 -17l18 22zM212 354l-8 6
q-5 -17 -5 -22zM181 166l70 31q-24 7 -38 18q-14 10 -24 27zM276 217q7 0 13 0.5t12 1.5l7 3l-18 15zM337 253l-20 16l-18 -21l20 -17zM337 230l18 10l-7 6zM344 266l19 21l-20 17l-18 -22zM372 298l18 22l-20 16l-18 -21zM422 313l13 27l-7 5l-18 -21zM439 354q0 4 1 6v3
l-5 -7zM417 463l-18 -24l20 -16l12 18zM363 485q-5 0 -6 1h-6h-6l12 -11l8 11zM249 433q-13 -13 -15 -14l-5 -8l16 -12l18 22zM223 401q-5 -8 -8.5 -15t-5.5 -14l2 1l9 -7l18 24zM368 249q7 4 24 21l-15 10l-18 -21l9 -9v-1z" />
    <glyph glyph-name="times" unicode="&#xe088;" 
d="M494 87q16 -16 16 -37q0 -20 -16 -36q-20 -15 -30 -15q-9 0 -24 15l-186 186l-186 -186q-16 -16 -24 -16q-5 0 -12.5 3.5t-17.5 12.5q-16 16 -16 36q0 21 16 37l177 177l-177 177q-16 16 -16 24q0 5 3.5 12.5t12.5 17.5q16 16 36 16q21 0 37 -16l168 -168l168 168
q16 16 37 16q20 0 36 -16q15 -20 15 -30q0 -9 -15 -24l-177 -177z" />
    <glyph glyph-name="info_circle" unicode="&#xe089;" 
d="M257 512q106 0 180 -75q75 -75 75 -182q0 -105 -74 -181q-74 -74 -180 -74q-107 0 -183 74q-75 73 -75 181q0 107 75 182t182 75zM286 326h-60v-226h60v226zM286 411h-60v-55h60v55z" />
    <glyph glyph-name="info_strokeek_icon_89" unicode="&#xe090;" 
d="M285 325v-225l-60 225h60zM225 355v55h60v-55h-60zM413 411q-65 66 -157 66t-158 -66q-65 -65 -65 -156t65 -156q67 -65 159 -65q91 0 156 65t65 156t-65 156zM436 73q-74 -74 -180 -74q-105 0 -182 74q-75 73 -75 181q0 106 75 181q76 76 183 76q105 0 180 -76
q75 -77 75 -180q0 -106 -75 -181z" />
    <glyph glyph-name="envelope" unicode="&#xe091;" 
d="M366 255l104 -105v210zM61 391l195 -194l195 194h-390zM41 360v-211l104 105zM444 121l-105 107l-84 -85l-84 85l-105 -107h378zM511 81h-510v350h510v-350z" />
    <glyph glyph-name="ek_icon_88" unicode="&#xe092;" 
d="M30 229q-11 0 -18 7t-7 18q0 25 25 25h449q11 0 18 -7q8 -8 8 -18q0 -11 -7 -18t-18 -7h-449h-1zM31 379q-24 0 -24 25q0 10 6 18t17 8h449q11 0 17 -7q6 -8 6 -18q0 -11 -6 -18t-17 -7h-449zM30 80q-11 0 -17 8q-6 7 -6 18q0 25 24 25h449q11 0 17 -7q6 -8 6 -18
q0 -11 -6 -18t-17 -7h-449z" />
    <glyph glyph-name="spoon" unicode="&#xe093;" 
d="M344 360q0 -44 -16 -69q-16 -28 -43 -39l13 -235q0 -4 -5 -12q-5 -5 -12 -5h-54q-7 0 -12 5q-5 8 -5 12l13 235q-27 11 -43 39q-16 25 -16 69q0 37 12 72q7 18 14.5 32.5t18.5 25.5q21 22 48 22q24 0 45 -22q45 -47 45 -129z" />
    <glyph glyph-name="close" unicode="&#xe094;" 
d="M504 99q5 -5 5 -12q0 -25 -33 -55q-34 -31 -57 -31q-7 0 -12 5l-154 154l-154 -154q-5 -6 -14 -6q-22 0 -55 33t-33 56q0 8 6 13l154 154l-154 154q-6 4 -6 14q0 23 33 56t56 33q9 0 14 -6l156 -154l154 154q4 6 14 6q23 0 56 -33t33 -55q0 -10 -6 -14l-154 -156
l154 -154z" />
    <glyph glyph-name="ek_icon_91" unicode="&#xe095;" 
d="M161 377q41 -32 96 -32q53 0 95 30q10 -20 10 -40q0 -45 -31 -75q-32 -30 -75 -30q-44 0 -75 30t-31 75q0 19 12 42h-1zM408 203q31 0 54 -23t23 -54v-116h-192l-19 66l24 60l-38 37l-37 -37l24 -60l-17 -67h-203v117q0 31 23 54t54 23h304zM166 400l-46 50l54 35l85 17
l84 -19l57 -32l-49 -52l-3 -4v-1q-36 -33 -89 -33q-55 0 -87 32l-1 1z" />
    <glyph glyph-name="copy_link" unicode="&#xe098;" 
d="M442 108v25l72 63v-117q0 -29 -9 -36q-11 -8 -36 -8h-424q-27 0 -36 9t-9 36v350q0 26 9 35t36 9h276l-72 -72h-176v-293h367zM161 186q0 22 4 39q5 23 18 53q7 14 15.5 27.5t19.5 26.5q21 24 62 42q40 18 92 18v73l141 -145l-141 -145v87q-6 1 -14.5 1.5t-19.5 0.5
q-80 0 -142 -53q-20 -17 -36 -36z" />
    <glyph glyph-name="Bus" unicode="&#xe097;" horiz-adv-x="819" 
d="M637 70q11 0 19.5 8t8.5 20q0 11 -8.5 19t-19.5 8t-19.5 -8t-8.5 -19q0 -12 8.5 -20t19.5 -8zM637 143q19 0 32 -13t13 -32q0 -20 -13 -33t-32 -13t-32 13t-13 33q0 19 13 32t32 13zM321 70q11 0 19.5 8t8.5 20q0 11 -8.5 19t-19.5 8t-19.5 -8t-8.5 -19q0 -12 8.5 -20
t19.5 -8zM321 143q19 0 32 -13t13 -32q0 -20 -13 -33t-32 -13t-32 13t-13 33q0 19 13 32t32 13zM665 240q0 7 -8 7h-70q-8 0 -8 -7v-36q0 -8 8 -8h70q8 0 8 8v36zM561 229q0 8 -9 8h-74q-8 0 -8 -8v-39q0 -8 8 -8h74q9 0 9 8v39zM458 229q0 8 -8 8h-74q-8 0 -8 -8v-39
q0 -8 8 -8h74q8 0 8 8v39zM348 182q8 0 8 8v39q0 8 -8 8h-74q-8 0 -8 -8v-39q0 -8 8 -8h74zM684 190q1 -9 7.5 -10t13.5 -5t12 -16t4 -41q-1 -7 -1.5 -12.5t-8.5 -7.5h-14q-7 0 -7 7q-1 6 -3.5 15t-8.5 16q-17 18 -41 18q-23 0 -40 -17t-17 -40v-17h-202v17q0 23 -17 40
t-40 17t-40 -17t-17 -40v-17h-12h-113h-2q-8 0 -8 8q0 7 8 7h2v156q0 8 8 8h528q8 0 8 -8zM193 394q-6 0 -13 -8.5t-11 -19t-3 -19t10 -8.5h70q8 0 8 8v39q0 8 -8 8h-53zM266 347q0 -8 8 -8h74q8 0 8 8v39q0 8 -8 8h-74q-8 0 -8 -8v-39zM368 347q0 -8 8 -8h74q8 0 8 8v39
q0 8 -8 8h-74q-8 0 -8 -8v-39zM470 347q0 -8 8 -8h74q9 0 9 8v39q0 8 -9 8h-74q-8 0 -8 -8v-39zM572 347q0 -8 9 -8h72q8 0 8 7.5t-2 17.5q-2 11 -6.5 20.5t-10.5 9.5h-61q-9 0 -9 -8v-39zM147 272q-8 0 -8 8v42q0 57 26.5 81.5t81.5 24.5h354q45 0 61.5 -21t17.5 -50l2 -77
l-2 -6l-6 -2h-527z" />
  </font>
</defs>
</svg>
