<?xml version="1.0" standalone="no"?>
<!DOCTYPE svg PUBLIC "-//W3C//DTD SVG 1.1//EN" "http://www.w3.org/Graphics/SVG/1.1/DTD/svg11.dtd" >
<svg xmlns="http://www.w3.org/2000/svg" xmlns:xlink="http://www.w3.org/1999/xlink" version="1.1">
<metadata>
Created by FontForge 20170910 at Wed Mar  2 14:17:40 2005
 By Jimmy Wärting
Copyright &#60;C&#62; Emirates Group UAE, 2005. Release 3.1.02
</metadata>
<defs>
<font id="EK03Plain-M01" horiz-adv-x="464" >
  <font-face 
    font-family="EK03Plain-M01"
    font-weight="500"
    font-stretch="condensed"
    units-per-em="1000"
    panose-1="0 0 6 0 0 0 0 0 0 0"
    ascent="800"
    descent="-200"
    x-height="526"
    cap-height="714"
    bbox="-50 -226 1122 943"
    underline-thickness="20"
    underline-position="-143"
    unicode-range="U+0020-2500"
  />
<missing-glyph horiz-adv-x="552" 
 />
    <glyph glyph-name=".notdef" horiz-adv-x="552" 
 />
    <glyph glyph-name=".null" horiz-adv-x="0" 
 />
    <glyph glyph-name="nonmarkingreturn" horiz-adv-x="250" 
 />
    <glyph glyph-name="space" unicode=" " horiz-adv-x="250" 
 />
    <glyph glyph-name="exclam" unicode="!" horiz-adv-x="385" 
d="M186 0q24 0 41.5 17t17.5 42q0 24 -17.5 41.5t-41.5 17.5q-26 0 -43.5 -17.5t-17.5 -41.5q0 -25 17.5 -42t43.5 -17zM248 667q2 24 -18 40.5t-44 16.5q-26 0 -44 -15q-21 -18 -19 -42q1 -17 35 -482h52z" />
    <glyph glyph-name="quotedbl" unicode="&#x22;" horiz-adv-x="337" 
d="M138 674q0 16 -14 28t-33 12q-20 0 -33.5 -12t-13.5 -28q0 -1 22 -213h49zM293 674q0 16 -14 28t-33 12q-20 0 -33.5 -12t-13.5 -28q0 -1 22 -213h49z" />
    <glyph glyph-name="numbersign" unicode="#" horiz-adv-x="554" 
d="M525 446v55h-105l36 215h-55l-39 -215h-124l36 215h-56l-35 -215h-125v-55h113l-32 -185h-108v-57h99l-36 -204h55l36 204h127l-36 -204h55l36 204h130v57h-120l33 185h115zM322 261h-127l33 185h125z" />
    <glyph glyph-name="dollar" unicode="$" horiz-adv-x="540" 
d="M297 431v242q52 -3 92 -29q22 -16 57 -57v81q-68 45 -149 52v45h-57v-45q-71 -5 -125 -43q-66 -45 -64 -111q3 -144 189 -238v-277q-16 -2 -35 -2q-95 0 -156 75v-82q73 -47 180 -42q-3 0 11 0v-55h57v55q81 18 136.5 73.5t55.5 135.5q0 111 -192 222zM240 467
q-87 57 -87 118q0 71 87 85v-203zM297 65v229q31 -16 45 -28q36 -31 43 -78q9 -80 -88 -123z" />
    <glyph glyph-name="percent" unicode="%" horiz-adv-x="681" 
d="M511 714l-408 -714h97l408 714h-97zM319 558q0 82 -41 127q-37 39 -93 39q-54 0 -92 -46q-39 -49 -39 -122q0 -83 39 -128q35 -41 92 -41q54 0 94 49t40 122zM587 167q0 -129 -61 -129q-27 0 -43 31q-19 35 -19 97q0 60 17.5 92t44.5 32q26 0 43 -29q18 -33 18 -94z
M660 165q0 82 -41 127q-36 39 -92 39q-54 0 -93 -46q-39 -49 -39 -122q0 -83 39 -128q36 -41 93 -41q53 0 93 49t40 122zM246 561q0 -129 -61 -129q-27 0 -43 31q-19 34 -19 97q0 60 17.5 92t44.5 32q26 0 42 -29q19 -33 19 -94z" />
    <glyph glyph-name="ampersand" unicode="&#x26;" horiz-adv-x="663" 
d="M615 307l-39 62q-38 -121 -103 -206l-166 263q32 26 58 54q66 69 66 126q0 54 -38.5 86t-94.5 32q-64 0 -105.5 -38.5t-41.5 -101.5q0 -75 62 -174l-31 -22q-43 -32 -79 -86q-46 -71 -46 -136q0 -53 29 -95q50 -75 149 -81q102 -6 201 67l36 -57h104l-74 117
q69 75 113 190zM300 688q32 0 51 -22.5t19 -56.5q0 -64 -53 -117q-9 -8 -35 -27l-16 27q-40 64 -40 113q0 34 20.5 58.5t53.5 24.5zM294 62q-79 0 -116 62q-25 40 -25 83q0 91 83 164l171 -269q-55 -40 -113 -40z" />
    <glyph glyph-name="quotesingle" unicode="'" horiz-adv-x="203" 
d="M164 674q0 16 -13.5 28t-33.5 12t-33.5 -12t-13.5 -28q0 -1 22 -213h49z" />
    <glyph glyph-name="parenleft" unicode="(" horiz-adv-x="336" 
d="M226 -212q-139 178 -150 495q4 93 19 174q36 197 129 310h36q-95 -209 -103 -481q2 -80 13 -158q26 -187 90 -340h-34z" />
    <glyph glyph-name="parenright" unicode=")" horiz-adv-x="272" 
d="M44 -212q95 225 103 499q-2 80 -13 156q-26 185 -90 326h36q137 -168 148 -485q-4 -92 -19 -176q-37 -199 -131 -320h-34z" />
    <glyph glyph-name="asterisk" unicode="*" horiz-adv-x="458" 
d="M242 565q23 -11 64 -21q32 -8 44 -19q13 -13 13 -25q0 -9 -7 -16t-16 -7q-16 0 -37 16q-12 8 -35 32q-22 21 -32 27q0 -17 9.5 -54.5t9.5 -48.5q0 -14 -8 -24.5t-19 -10.5q-10 0 -18 10t-8 23q0 17 10.5 51.5t10.5 53.5q-14 -7 -33 -27q-25 -26 -32 -31q-18 -15 -35 -15
q-12 0 -19.5 6t-7.5 16q0 21 25 33q14 6 52 15q34 9 44 16q-12 7 -47 16q-36 10 -49 17q-23 12 -23 31q0 23 21 23q19 0 40 -17l35 -35q19 -20 29 -23q0 19 -9.5 50.5t-9.5 49.5q0 16 7.5 26.5t18.5 10.5q12 0 19.5 -10t7.5 -28q0 -15 -10.5 -48.5t-10.5 -50.5q13 4 32 23
q29 31 32 34q20 17 38 17q11 0 18.5 -6.5t7.5 -15.5q0 -20 -22 -31q-13 -7 -49.5 -16t-50.5 -17z" />
    <glyph glyph-name="plus" unicode="+" horiz-adv-x="572" 
d="M529 317h-211v208h-64v-208h-210v-67h210v-208h64v208h211v67z" />
    <glyph glyph-name="comma" unicode="," horiz-adv-x="269" 
d="M94 -127q48 31 72 68q18 28 18 49q0 8 -4.5 11.5t-10.5 3.5q-3 0 -10.5 -2t-16.5 -2q-23 0 -42 14q-20 17 -20 45q0 24 18 43q18 17 40 17q30 0 54 -19q35 -27 35 -88q0 -35 -25 -73q-20 -32 -51 -58q-28 -23 -47 -30z" />
    <glyph glyph-name="hyphen" unicode="-" horiz-adv-x="320" 
d="M40 361v-61h241v61h-241z" />
    <glyph glyph-name="period" unicode="." horiz-adv-x="264" 
d="M137 0q23 0 39.5 16.5t16.5 39.5t-16.5 39t-39.5 16q-24 0 -40.5 -16t-16.5 -39t16.5 -39.5t40.5 -16.5z" />
    <glyph glyph-name="slash" unicode="/" horiz-adv-x="352" 
d="M-13 -212h93l271 980h-93z" />
    <glyph glyph-name="zero" unicode="0" horiz-adv-x="579" 
d="M298 724q-105 0 -171.5 -102.5t-66.5 -266.5q0 -175 70 -274q65 -91 168 -91q98 0 167.5 106t69.5 259q0 180 -70 278q-64 91 -167 91zM297 41q-47 0 -85 67q-48 88 -48 256q0 151 44 238q37 76 92 76q52 0 87 -74q43 -86 43 -234q0 -174 -49 -263q-37 -66 -84 -66z" />
    <glyph glyph-name="one" unicode="1" horiz-adv-x="406" 
d="M284 727q-32 -18 -66 -32q-83 -33 -163 -40v-48l128 23v-630h101v727z" />
    <glyph glyph-name="two" unicode="2" horiz-adv-x="513" 
d="M172 54h124q119 0 160 25v-79h-426q54 119 205 348q120 181 124 237q2 49 -25 73t-79 19q-28 -5 -52 -15q-61 -28 -102 -83v87q78 53 175 58q91 0 140 -41q46 -40 45 -108q-2 -57 -108 -222q-144 -224 -181 -299z" />
    <glyph glyph-name="three" unicode="3" horiz-adv-x="492" 
d="M232 508q104 -28 159 -103q51 -67 51 -153q0 -97 -58 -171q-61 -78 -160 -89q-15 -2 -30 -2q-47 0 -93 15q-36 11 -41 18v98q52 -72 126 -79q76 -9 126.5 42t50.5 123q0 78 -60 135q-69 67 -200 82q7 11 164 237h-36q-125 0 -158 -19v72h313z" />
    <glyph glyph-name="four" unicode="4" horiz-adv-x="545" 
d="M407 253v190h-93v-190h-169q73 166 226 461h-55h-57q-6 -14 -42 -92q-37 -74 -71 -144q-80 -167 -126 -281l294 1v-5v-193h93v197h1q71 0 91 -6v62h-92z" />
    <glyph glyph-name="five" unicode="5" horiz-adv-x="500" 
d="M219 -8q-16 -2 -31 -2q-45 0 -89 15q-32 11 -39 18v100q16 -25 48 -50q40 -31 78 -32q74 -5 124 46q46 49 46 118q0 82 -64 141q-75 68 -215 79v289h303v-75q-50 20 -159 20h-84v-137q148 -13 228 -97q72 -74 72 -179q0 -95 -58 -167q-61 -75 -160 -87z" />
    <glyph glyph-name="six" unicode="6" horiz-adv-x="560" 
d="M329 678q-62 0 -106.5 -73.5t-50.5 -184.5q22 87 144 95q84 0 141 -76t57 -191t-61 -186.5t-152 -71.5q-125 0 -188 101q-53 87 -53 233q0 143 61 259q73 141 205 141q69 0 111 -30v-76q-52 60 -108 60zM167 249q0 -87 37 -148t90 -61q54 0 91 60.5t37 148.5
q0 87 -37 147.5t-91 60.5t-90.5 -60.5t-36.5 -147.5z" />
    <glyph glyph-name="seven" unicode="7" horiz-adv-x="476" 
d="M187 0h-107q34 135 71 250q88 277 171 409h-125q-102 0 -137 -20v75h392q-145 -226 -265 -714z" />
    <glyph glyph-name="eight" unicode="8" horiz-adv-x="537" 
d="M347 440q109 70 109 143q0 64 -44 99q-31 25 -68.5 33t-60.5 8q-78 0 -128 -46t-50 -111q0 -92 95 -160q-140 -96 -140 -217q0 -97 71 -151q61 -48 148 -48q4 0 18 2q96 5 157 68q58 61 58 145q0 67 -39 127q-43 65 -126 108zM279 46q-62 0 -106.5 47t-44.5 105
q0 114 114 183q91 -48 123 -75q60 -54 60 -125q0 -53 -44 -94t-102 -41zM220 514q-35 33 -35 72q0 42 28.5 66.5t73.5 24.5q50 0 79.5 -25.5t29.5 -70.5q0 -61 -96 -117q-54 27 -80 50z" />
    <glyph glyph-name="nine" unicode="9" horiz-adv-x="547" 
d="M60 461q0 -119 56 -190.5t145 -71.5q48 0 92 33q33 25 50 54q-6 -107 -52.5 -177t-111.5 -70q-70 0 -123 79v-88q50 -40 122 -40q121 0 199 106q74 103 74 255q0 213 -83 307q-59 65 -149 65q-96 0 -157.5 -70.5t-61.5 -191.5zM151 471q0 89 37 150t90 61t90.5 -61
t37.5 -150q0 -90 -37.5 -153t-90.5 -63q-52 0 -89.5 63t-37.5 153z" />
    <glyph glyph-name="colon" unicode=":" horiz-adv-x="270" 
d="M137 2q23 0 39.5 16.5t16.5 39.5t-16.5 39t-39.5 16q-24 0 -40.5 -16t-16.5 -39t16.5 -39.5t40.5 -16.5zM137 377q23 0 39.5 16.5t16.5 39.5t-16.5 39t-39.5 16q-24 0 -40.5 -16t-16.5 -39t16.5 -39.5t40.5 -16.5z" />
    <glyph glyph-name="semicolon" unicode=";" horiz-adv-x="296" 
d="M137 386q23 0 39.5 16.5t16.5 39.5t-16.5 39t-39.5 16q-24 0 -40.5 -16t-16.5 -39t16.5 -39.5t40.5 -16.5zM94 -127q48 31 72 68q18 28 18 49q0 8 -4.5 11.5t-10.5 3.5q-3 0 -10.5 -2t-16.5 -2q-23 0 -42 14q-20 17 -20 45q0 24 18 43q18 17 40 17q30 0 54 -19
q35 -27 35 -88q0 -35 -25 -73q-20 -32 -51 -58q-28 -23 -47 -30z" />
    <glyph glyph-name="less" unicode="&#x3c;" horiz-adv-x="518" 
d="M480 548l-438 -245l438 -243v60l-327 183l327 183v62z" />
    <glyph glyph-name="equal" unicode="=" horiz-adv-x="492" 
d="M44 417v-49h410v49h-410zM45 254v-49h410v49h-410z" />
    <glyph glyph-name="greater" unicode="&#x3e;" horiz-adv-x="494" 
d="M43 60l437 245l-438 243v-60l328 -182l-327 -184v-62z" />
    <glyph glyph-name="question" unicode="?" horiz-adv-x="490" 
d="M227 0q25 0 42.5 17t17.5 40q0 24 -17.5 40.5t-42.5 16.5q-24 0 -41 -16.5t-17 -40.5q0 -23 17 -40t41 -17zM197 174q-10 93 3 148q19 81 91 139t64 132q-4 48 -40 78.5t-87 28.5q-33 -6 -60 -18q-65 -30 -98 -88v81q58 60 154 73q103 10 170 -53q63 -62 52 -153
q-12 -100 -112 -180q-94 -78 -83 -187z" />
    <glyph glyph-name="at" unicode="@" horiz-adv-x="913" 
d="M513 712q-177 0 -311 -136t-160 -330q-6 -41 -6 -80q0 -165 91 -270q94 -109 249 -109q152 0 278 114v47q-141 -125 -264 -125q-138 0 -216 101q-76 94 -76 247q0 38 6 77q22 175 141 302.5t262 127.5q123 0 204 -104q77 -101 77 -249q0 -94 -38 -181q-47 -106 -126 -106
q-51 0 -51 66q0 18 6 41l79 322h-73l-11 -39q-26 56 -97 56q-106 0 -183 -102q-75 -96 -75 -216q0 -166 130 -166q53 0 100 32q39 28 50 59q21 -91 123 -91q61 0 115 46q79 67 103 215q6 39 6 77q0 159 -95 266.5t-238 107.5zM369 45q-59 0 -59 119q0 103 54 193
q52 87 109 87q55 0 55 -86q0 -114 -51.5 -213.5t-107.5 -99.5z" />
    <glyph glyph-name="A" unicode="A" horiz-adv-x="605" 
d="M321 714h-91q0 -38 -26 -114l-204 -600h75l95 274h222l102 -273l104 -1zM186 326q34 104 78 230q6 21 6 41l99 -271h-183z" />
    <glyph glyph-name="B" unicode="B" horiz-adv-x="600" 
d="M398 408q47 5 79 45.5t32 98.5q0 57 -38 100q-56 62 -180 62h-211v-713l233 -1q100 0 163 51q73 59 73 173q0 81 -59 135q-42 37 -92 49zM180 674h124q53 0 85 -39q26 -33 26 -83q0 -48 -23 -80q-26 -36 -68 -36h-144v238zM276 45h-95v350h128q63 0 102.5 -46t39.5 -114
q0 -96 -50 -146q-46 -45 -125 -44z" />
    <glyph glyph-name="C" unicode="C" horiz-adv-x="593" 
d="M53 335q0 -148 96 -246.5t239 -98.5q120 0 165 33l1 89q-21 -37 -63 -57q-35 -16 -67 -16q-105 0 -180 78q-82 86 -82 228q0 130 65 228q72 109 190 109q43 0 80.5 -20t57.5 -55l-1 82q-1 7 -37 19q-51 16 -127 16q-148 0 -244 -115q-93 -111 -93 -274z" />
    <glyph glyph-name="D" unicode="D" horiz-adv-x="672" 
d="M287 714h-26q-179 0 -177 0v-714h201q137 0 232.5 103t95.5 252q0 163 -93.5 261t-232.5 98zM287 41q-7 0 -102 2v630h81q112 3 179 -98q60 -89 60 -213q0 -130 -62 -225.5t-156 -95.5z" />
    <glyph glyph-name="E" unicode="E" horiz-adv-x="519" 
d="M385 56h-211v341h80q127 0 157 -20q-33 76 -139 76h-97v207h133q153 0 189 -46q-22 100 -187 100h-236v-714h331q108 0 108 96q-25 -40 -128 -40z" />
    <glyph glyph-name="F" unicode="F" horiz-adv-x="460" 
d="M174 0v399h89q114 0 147 -20q-36 72 -143 72h-93v209h115q170 0 207 -46q-9 58 -82 83q-49 17 -118 17h-222l1 -714h99z" />
    <glyph glyph-name="G" unicode="G" horiz-adv-x="680" 
d="M504 285v-213q-38 -30 -89 -30q-46 0 -97 23q-62 29 -103 88q-53 78 -53 193q0 145 70 242t167 97q79 0 127 -40q32 -26 32 -41v86q-47 30 -169 33q-136 0 -234 -104q-101 -109 -101 -269q0 -164 91 -262t248 -98q130 0 209 68v347h-113q13 -53 15 -120z" />
    <glyph glyph-name="H" unicode="H" horiz-adv-x="665" 
d="M587 714h-101v-273h-306v273h-100l-1 -714h101v384h306v-384h101v714z" />
    <glyph glyph-name="I" unicode="I" horiz-adv-x="316" 
d="M108 0h101v714h-101v-714z" />
    <glyph glyph-name="J" unicode="J" 
d="M390 182v532h-100v-520q0 -98 -54 -131q-26 -15 -79 -15q-43 0 -84 32q-39 29 -54 67v-111q13 -13 61 -29q58 -17 118 -17q80 0 136 55t56 137z" />
    <glyph glyph-name="K" unicode="K" horiz-adv-x="593" 
d="M391 314q-53 87 -115 85q12 18 24 32l228 283h-96q-51 -65 -111 -140q-112 -137 -143 -298v438h-99v-714h99v139q0 105 70 219q24 -24 58 -66l171 -292h106z" />
    <glyph glyph-name="L" unicode="L" horiz-adv-x="514" 
d="M389 59h-206v655h-100v-714h310q31 2 53 12q53 25 57 88q-36 -41 -114 -41z" />
    <glyph glyph-name="M" unicode="M" horiz-adv-x="766" 
d="M381 178q3 45 25 122l125 414h146v-714h-101v612l-141 -462q-16 -60 -16 -110q0 -22 3 -40h-88l-185 618q5 -33 6 -77v-179q0 -379 0 -362h-72l1 604q0 39 -8 110h141z" />
    <glyph glyph-name="N" unicode="N" horiz-adv-x="639" 
d="M548 0l-1 714h-69v-519l-262 519h-139q9 -34 10 -106v-33v-169l-1 -406h71v604l304 -603z" />
    <glyph glyph-name="O" unicode="O" horiz-adv-x="719" 
d="M559 354q0 -134 -57 -223q-59 -92 -152 -92q-94 0 -154 90t-60 226t60 227.5t154 91.5q92 0 152 -96q57 -90 57 -224zM345 723q-131 0 -224 -109t-93 -258q0 -161 89 -263.5t228 -102.5q144 0 234 107q86 103 86 259q0 152 -94 259.5t-226 107.5z" />
    <glyph glyph-name="P" unicode="P" horiz-adv-x="587" 
d="M311 713q-46 0 -225 1l1 -714h100l-1 288h133q95 0 159 52q74 59 74 165q0 105 -69 158q-62 49 -172 50zM296 337h-110v333h109q65 0 107.5 -44.5t42.5 -114.5q0 -75 -38 -123q-40 -51 -111 -51z" />
    <glyph glyph-name="Q" unicode="Q" horiz-adv-x="768" 
d="M642 138q55 92 55 218q0 144 -85 251q-94 117 -236 117q-139 0 -228.5 -113t-89.5 -255q0 -154 83 -255q89 -111 235 -111q119 0 202 71q27 -47 59 -61h97q-44 44 -92 138zM568 221q-55 39 -119 44q39 -22 64 -60v0q17 -27 17 -50q0 -22 -12 -39q-55 -72 -139 -72
q-107 0 -167 109q-47 92 -47 207q0 116 47 205q60 110 167 110t164 -110q47 -87 47 -203q0 -72 -22 -141z" />
    <glyph glyph-name="R" unicode="R" horiz-adv-x="618" 
d="M465 241q-18 32 -36 56q-42 56 -67 59q99 20 138 105q16 34 20 80q0 87 -71 134q-59 39 -150 39h-212l-1 -714h100l1 345h40q55 0 91 -38q27 -28 72 -114q60 -114 107 -193h106zM257 396h-70v277h69q161 0 161 -137q0 -140 -160 -140z" />
    <glyph glyph-name="S" unicode="S" horiz-adv-x="544" 
d="M389 185q7 -62 -50 -103q-52 -39 -130 -39q-44 0 -88 22t-71 55v-84q74 -46 182 -46v0q118 0 192 65q71 61 71 151q0 69 -48 120q-44 48 -165 116q-125 70 -125 144q0 89 135 89q59 0 102 -30q22 -15 58 -57l-1 80q-83 56 -183 55q-95 -1 -158 -50q-59 -46 -57 -106
q3 -145 171 -232q93 -47 122 -72q37 -31 43 -78z" />
    <glyph glyph-name="T" unicode="T" 
d="M489 631q-14 56 -80 73q-38 10 -135 10h-294q27 -61 198 -61q6 -30 6 -74v-579h101v551q0 74 -4 103h79q27 0 50 -2q54 -7 79 -21z" />
    <glyph glyph-name="U" unicode="U" horiz-adv-x="654" 
d="M182 225q0 -175 151 -175q81 0 123 51q36 44 35 111v502h81v-496q0 -94 -52 -155q-65 -73 -195 -73q-126 0 -191 73q-53 62 -53 155v496h101v-489z" />
    <glyph glyph-name="V" unicode="V" horiz-adv-x="541" 
d="M11 714h103l162 -616q36 124 123 366q54 160 46 250h86q4 -82 -66 -297q-121 -355 -124 -417h-135z" />
    <glyph glyph-name="W" unicode="W" horiz-adv-x="846" 
d="M836 714h-80q8 -59 -14 -123q-17 -51 -33 -101q-47 -149 -123 -396l-125 620h-100q28 -130 28 -178q0 -88 -54 -263l-57 -178l-158 619h-103l189 -714h130q3 54 37 162q24 63 62 182l76 -344h131q3 38 22 110q8 33 118 367q32 94 41 127q16 64 13 110z" />
    <glyph glyph-name="X" unicode="X" horiz-adv-x="573" 
d="M341 391l151 263q21 38 22 60h-78q0 -23 -19 -55l-116 -196l-137 251h-110l188 -345q-46 -75 -225 -369h91l174 294l160 -294h116z" />
    <glyph glyph-name="Y" unicode="Y" horiz-adv-x="606" 
d="M487 714q-3 -26 -27 -93l-122 -339q-9 -31 -33 -31q-50 0 -86 107q-12 43 -117 356h-91l124 -368q50 -150 144 -150q16 0 33 12l-74 -208h103l256 714h-110z" />
    <glyph glyph-name="Z" unicode="Z" horiz-adv-x="572" 
d="M398 60h-222l370 654h-325q-126 0 -162 -96q48 41 146 41h200l-377 -659h372q48 0 81.5 28.5t33.5 69.5q-36 -38 -117 -38z" />
    <glyph glyph-name="bracketleft" unicode="[" horiz-adv-x="437" 
d="M100 -212h88q125 0 150 92q-41 -22 -118 -22h-36v840h36q78 0 118 -22q-25 91 -150 91h-88v-979z" />
    <glyph glyph-name="backslash" unicode="\" horiz-adv-x="438" 
d="M287 -208h93l-277 976l-92 1z" />
    <glyph glyph-name="bracketright" unicode="]" horiz-adv-x="415" 
d="M297 767h-87q-126 0 -151 -91q41 22 119 22h34v-840h-36q-78 0 -118 22q24 -91 150 -91l88 -1z" />
    <glyph glyph-name="asciicircum" unicode="^" horiz-adv-x="540" 
d="M149 370q67 117 118 209q9 -16 117 -209h78l-196 353l-196 -353h79z" />
    <glyph glyph-name="underscore" unicode="_" horiz-adv-x="396" 
d="M0 -2v-48h396v48h-396z" />
    <glyph glyph-name="grave" unicode="`" horiz-adv-x="289" 
d="M35 708v16h140q21 -9 43 -35q29 -33 51 -89h-23q-39 42 -98 70q-53 27 -113 38z" />
    <glyph glyph-name="a" unicode="a" horiz-adv-x="471" 
d="M408 0v397q0 63 -45.5 99t-116.5 36q-29 0 -63 -12q-36 -13 -61 -35v-71q36 71 111 71q39 0 64.5 -21t25.5 -55q0 -53 -82 -91q-104 -49 -140 -76q-61 -49 -61 -117q0 -17 3 -35q10 -48 48 -74q32 -22 81 -22q42 0 84 20q47 22 56 49v-63h96zM211 42q-70 0 -81 77
q-1 8 -1 17q0 48 41 89q26 24 82 56q51 29 59 41v-235q-23 -25 -44 -34q-23 -11 -56 -11z" />
    <glyph glyph-name="b" unicode="b" horiz-adv-x="540" 
d="M251 481q140 0 140 -196q0 -259 -119 -259q-21 2 -39 8q-42 16 -63 55v358q32 34 81 34zM293 532q-26 -1 -49 -7q-52 -15 -74 -54v243h-96l1 -597q0 -45 48 -80q53 -43 141 -43q96 0 160 69q70 75 70 199q0 111 -53 188q-58 82 -148 82z" />
    <glyph glyph-name="c" unicode="c" horiz-adv-x="459" 
d="M44 247q0 -111 72 -183q70 -70 175 -70q22 1 43 4q49 6 82 20l-2 67q-35 -46 -90 -46q-73 0 -119 55q-52 59 -52 166q0 93 36 158q45 78 124 78q44 0 73 -22q23 -15 31 -35l-1 67q-70 28 -134 26q-107 -4 -172.5 -84.5t-65.5 -200.5z" />
    <glyph glyph-name="d" unicode="d" horiz-adv-x="531" 
d="M467 714h-98v-230q-26 45 -104 48q-83 0 -148 -69q-74 -81 -74 -223q0 -100 66 -173t155 -73q144 0 203 101v619zM291 39q-142 0 -142 201q0 254 124 254q21 -2 38 -9q43 -16 60 -59l-1 -358q-27 -29 -79 -29z" />
    <glyph glyph-name="e" unicode="e" horiz-adv-x="474" 
d="M236 61q-42 25 -70 100q28 34 98 71q75 38 113 78q44 46 44 98t-44.5 88t-116.5 36q-102 0 -162 -86q-55 -78 -55 -192q0 -111 65.5 -185.5t167.5 -74.5q29 1 53 6q59 10 91 35l1 66q-46 -61 -111 -61q-38 0 -74 21zM262 496q31 0 51 -22.5t20 -58.5q0 -27 -13 -56
q-14 -37 -48 -66q-19 -16 -63 -42q-41 -26 -56 -43q-7 28 -7 62q0 83 31 151q35 75 85 75z" />
    <glyph glyph-name="f" unicode="f" horiz-adv-x="365" 
d="M363 626v61q-44 33 -100 36q-158 0 -158 -125v-86h-93q23 -51 93 -51v-461h94v463h53q71 0 102 -14q-5 41 -48 56q-23 9 -49 8q-5 0 -58 -1v98q0 31 21 49.5t51 18.5q53 0 92 -52z" />
    <glyph glyph-name="g" unicode="g" horiz-adv-x="515" 
d="M467 50v476h-96v-41q-38 43 -110 47q-101 0 -158 -72q-60 -76 -60 -215q0 -99 61 -175q63 -78 152 -78q86 0 117 57q0 -13 -1 -32t-1 -30q0 -73 -39 -118t-103 -45q-88 0 -143 67v-74q59 -36 156 -39q153 0 201 109q24 53 24 163zM295 40q-86 0 -124 86q-23 54 -23 126
q0 102 25 165q32 77 95 77q51 0 102 -62v-346q-22 -43 -75 -46z" />
    <glyph glyph-name="h" unicode="h" horiz-adv-x="535" 
d="M475 391q0 75 -49 112q-38 29 -97 29q-89 0 -159 -87v269h-97v-720h97v410q54 65 115 65q36 0 61 -18q32 -20 32 -61v-396h97v397z" />
    <glyph glyph-name="i" unicode="i" horiz-adv-x="273" 
d="M187 527h-97v-527h97v527zM137 614q23 0 39.5 16t16.5 39t-16.5 39t-39.5 16q-24 0 -40.5 -16t-16.5 -39t16.5 -39t40.5 -16z" />
    <glyph glyph-name="j" unicode="j" horiz-adv-x="303" 
d="M179 616q22 0 38 16t16 38t-16 38t-38 16q-24 0 -39.5 -16t-15.5 -38t15.5 -38t39.5 -16zM226 526h-94v-613q0 -41 -24.5 -63t-60.5 -22q-67 0 -97 60v-71q10 -12 44 -24q38 -15 71 -15q67 0 112 37q49 41 49 116v595z" />
    <glyph glyph-name="k" unicode="k" horiz-adv-x="505" 
d="M220 269q-55 -48 -55 -117v-152h-96l1 714h94l1 -465q10 69 114 178q19 20 97 99h100l-220 -221q58 -2 114 -89l132 -216h-112l-111 194q-32 56 -59 75z" />
    <glyph glyph-name="l" unicode="l" horiz-adv-x="233" 
d="M168 714h-94v-714h94v714z" />
    <glyph glyph-name="m" unicode="m" horiz-adv-x="794" 
d="M720 392q0 75 -46 111q-36 29 -93 29q-95 0 -137 -94q-11 47 -50 72q-35 22 -84 22q-42 0 -78 -23q-41 -24 -61 -71v88h-95v-526h96v391q27 73 103 78q36 0 57 -27q18 -24 18 -57v-385h97v394q39 74 95 74q46 0 68 -34q14 -24 14 -51v-383h95z" />
    <glyph glyph-name="n" unicode="n" horiz-adv-x="535" 
d="M320 532q-64 0 -112 -43q-30 -29 -39 -53v90h-96l1 -526h95l1 394q10 22 32 41q33 29 72 29q91 0 90 -83v-381h96v394q0 59 -40.5 98.5t-99.5 39.5z" />
    <glyph glyph-name="o" unicode="o" horiz-adv-x="529" 
d="M261 532q-94 0 -162.5 -79t-68.5 -191q0 -128 68 -202q63 -66 163 -66q95 0 163.5 78t68.5 190q0 127 -69 201q-64 69 -163 69zM258 39q-45 0 -84 58q-43 65 -43 170q0 114 45 177q36 51 82 51q47 0 85 -50q46 -63 46 -178q0 -107 -45 -172q-39 -56 -86 -56z" />
    <glyph glyph-name="p" unicode="p" horiz-adv-x="543" 
d="M288 532q-88 0 -123 -61v55h-93v-741h96v239q23 -30 101 -30q100 0 162.5 76.5t62.5 206.5q0 101 -56 175q-59 80 -150 80zM246 488q144 0 144 -225q0 -105 -33 -169.5t-88 -64.5q-20 2 -38 9q-44 16 -63 55v360q36 35 78 35z" />
    <glyph glyph-name="q" unicode="q" horiz-adv-x="551" 
d="M376 526v-38q-10 13 -33 25q-35 19 -79 19q-85 0 -144 -65q-71 -77 -71 -225q0 -107 66 -179q62 -69 149 -69q71 0 114 30v-239h95v741h-97zM296 39q-67 0 -107 58q-37 53 -37 144q0 255 128 255q20 -1 37 -8q40 -17 61 -59v-355q-35 -35 -82 -35z" />
    <glyph glyph-name="r" unicode="r" horiz-adv-x="364" 
d="M353 508q-21 24 -68 24q-27 0 -51 -17q-36 -27 -58 -87v98h-95l-1 -526h96v355q0 36 32 72.5t72 36.5t73 -42v86z" />
    <glyph glyph-name="s" unicode="s" horiz-adv-x="370" 
d="M244 147q0 -46 -27 -76t-70 -30h-16q-35 5 -54 18t-41 42l-1 -68q43 -39 126 -39q57 0 108 37q67 46 67 133q0 54 -38 97q-32 36 -111 82q-63 36 -63 89q0 25 17 41t49 16q7 0 15 -1q62 -7 101 -66v68q-63 42 -130 42q-59 0 -100 -34q-43 -35 -43 -91q0 -85 92 -141
q68 -41 93 -64q26 -26 26 -55z" />
    <glyph glyph-name="t" unicode="t" horiz-adv-x="309" 
d="M232 479q46 0 69 -12v59h-112v119q-60 -101 -180 -167h84v-478h96v479h43z" />
    <glyph glyph-name="u" unicode="u" horiz-adv-x="539" 
d="M226 -6q32 3 58 11q61 21 83 73v-78h94v525h-95v-394q-8 -27 -39 -50q-32 -25 -65 -25q-39 0 -64 24.5t-25 62.5v383h-95l-1 -385q0 -78 48 -115q38 -32 101 -32z" />
    <glyph glyph-name="v" unicode="v" horiz-adv-x="493" 
d="M337 106q38 113 145 419h-80q-60 -171 -108 -317q-22 -67 -29 -132l-150 450h-95l175 -526h119q-2 32 23 106z" />
    <glyph glyph-name="w" unicode="w" horiz-adv-x="725" 
d="M706 526h-79q-45 -155 -86 -300q-22 -89 -22 -135l-109 435h-96q8 -23 8 -53q0 -34 -9 -69q-32 -109 -49 -173q-26 -105 -27 -142l-121 437h-96l143 -526h115q-2 30 21 109q30 96 64 220l81 -329h118q-3 30 19 105q63 210 125 421z" />
    <glyph glyph-name="x" unicode="x" horiz-adv-x="511" 
d="M491 526h-107q0 -16 -23 -50l-90 -131l-115 181h-118l170 -269l-149 -210q-19 -26 -29 -47h101q7 23 21 45l100 144l118 -189h118l-176 277z" />
    <glyph glyph-name="y" unicode="y" horiz-adv-x="548" 
d="M421 526l-16 -97l-74 -314v0q-17 -66 -53 -66q-49 0 -73 107q-7 34 -61 270l-22 100h-92l88 -380q36 -152 143 -152q22 0 44 11l-54 -220h95l175 741h-100z" />
    <glyph glyph-name="z" unicode="z" horiz-adv-x="512" 
d="M358 51l-185 -1l317 476h-283q-34 -2 -58 -10q-59 -20 -66 -72q15 31 136 34l125 -1l-324 -477h347q30 2 52 11q53 21 56 76q-10 -34 -117 -36z" />
    <glyph glyph-name="braceleft" unicode="{" horiz-adv-x="296" 
d="M143 628v-233q0 -76 -74 -115q74 -28 74 -99v-254q0 -98 91 -140h-91q-81 47 -81 124v270q0 66 -55 98q55 35 55 110v230q0 108 93 151h80q-47 -22 -71 -69q-21 -37 -21 -73z" />
    <glyph glyph-name="bar" unicode="|" horiz-adv-x="275" 
d="M95 -211h87v981h-86z" />
    <glyph glyph-name="braceright" unicode="}" horiz-adv-x="235" 
d="M96 -70l-2 233q0 75 74 115q-75 28 -75 99l-2 254q0 98 -92 140h92q81 -45 81 -123l2 -271q0 -65 56 -97q-55 -36 -55 -111l2 -228q0 -108 -93 -152l-80 -2q47 24 71 71q21 37 21 72z" />
    <glyph glyph-name="asciitilde" unicode="~" horiz-adv-x="508" 
d="M44 237q48 48 115 48q29 0 60 -9l24 -6q15 -4 27 -7q16 -2 31 -2q42 0 84 22l8 -28q-21 -24 -56 -37q-32 -12 -68 -12q-29 0 -52 8q-32 10 -40 12q-23 6 -44 6q-39 0 -80 -20z" />
    <glyph glyph-name="Adieresis" unicode="&#xc4;" horiz-adv-x="607" 
d="M371 760q21 0 37 15.5t16 36.5q0 22 -16 37t-37 15q-22 0 -37.5 -15t-15.5 -37q0 -21 15.5 -36.5t37.5 -15.5zM200 760q22 0 37.5 15.5t15.5 36.5q0 22 -15.5 37t-37.5 15q-23 0 -38 -15t-15 -37q0 -21 15 -36.5t38 -15.5zM321 714h-91q0 -38 -26 -114l-204 -600h75
l95 274h222l102 -273l104 -1zM186 326q34 104 78 230q6 21 6 41l99 -271h-183z" />
    <glyph glyph-name="Ccedilla" unicode="&#xc7;" horiz-adv-x="587" 
d="M420 49q-121 0 -189.5 89t-68.5 213q0 126 60 223q72 111 191 111q94 0 138 -77l-2 82q-3 17 -74 27q-55 10 -87 10q-154 0 -244.5 -115t-90.5 -269q0 -138 85.5 -236t222.5 -107l-47 -62l17 -20q27 7 37 7q57 0 60 -37q2 -42 -67 -42q-25 0 -62 15l-18 -40
q50 -19 94 -19q114 0 114 89q0 72 -81 72q-8 0 -30 -3l30 40q101 2 141 31v90q-17 -33 -57 -52.5t-72 -19.5z" />
    <glyph glyph-name="Eacute" unicode="&#xc9;" horiz-adv-x="542" 
d="M391 864h-99q-25 -10 -51 -37q-9 -12 -17 -22q-19 -26 -24 -47h17q64 69 174 90v16zM385 56h-211v341h80q127 0 157 -20q-33 76 -139 76h-97v207h133q153 0 189 -46q-22 100 -187 100h-236v-714h331q108 0 108 96q-25 -40 -128 -40z" />
    <glyph glyph-name="Ntilde" unicode="&#xd1;" horiz-adv-x="637" 
d="M179 830q38 38 90 38q20 0 55.5 -11t54.5 -11q34 0 64 20l9 -13q-40 -46 -95 -46q-19 0 -37 6q-61 20 -76 20q-27 0 -58 -16zM547 0v713h-70v-518l-261 518h-139q9 -33 10 -106v-33v-168q-1 -426 -1 -405h71v602l303 -602z" />
    <glyph glyph-name="Odieresis" unicode="&#xd6;" horiz-adv-x="749" 
d="M453 768q22 0 37.5 15.5t15.5 37.5q0 21 -15.5 36.5t-37.5 15.5t-38 -15.5t-16 -36.5q0 -22 16 -37.5t38 -15.5zM280 768q22 0 37.5 15.5t15.5 37.5q0 21 -15.5 36.5t-37.5 15.5t-38 -15.5t-16 -36.5q0 -22 16 -37.5t38 -15.5zM589 354q0 -134 -57 -223q-59 -92 -152 -92
q-94 0 -154 90t-60 226t60 227.5t154 91.5q92 0 152 -96q57 -90 57 -224zM375 723q-131 0 -224 -109t-93 -258q0 -161 89 -263.5t228 -102.5q144 0 234 107q86 103 86 259q0 152 -94 259.5t-226 107.5z" />
    <glyph glyph-name="Udieresis" unicode="&#xdc;" horiz-adv-x="654" 
d="M413 762q22 0 37 15.5t15 37.5q0 20 -15 35.5t-37 15.5t-37.5 -15.5t-15.5 -35.5q0 -22 15.5 -37.5t37.5 -15.5zM241 762q22 0 38 15.5t16 37.5q0 20 -16 35.5t-38 15.5t-37 -15.5t-15 -35.5q0 -22 15 -37.5t37 -15.5zM181 225q0 -176 151 -176q82 0 123 52q37 43 37 111
l-1 502h81l1 -112q3 -293 -1 -384q0 -94 -53 -155q-64 -73 -194 -73q-126 0 -191 73q-54 62 -54 155v496h102z" />
    <glyph glyph-name="aacute" unicode="&#xe1;" 
d="M341 692h-103q-27 -10 -54 -38q-9 -12 -17 -23q-20 -28 -25 -49h19q65 72 180 93v17zM401 0v397q0 63 -45.5 99t-116.5 36q-29 0 -63 -12q-36 -13 -61 -35v-71q36 71 111 71q39 0 64.5 -21t25.5 -55q0 -53 -82 -91q-104 -49 -140 -76q-61 -49 -61 -117q0 -17 3 -35
q10 -48 48 -74q32 -22 81 -22q42 0 84 20q47 22 56 49v-63h96zM204 42q-70 0 -81 77q-1 8 -1 17q0 48 41 89q26 24 82 56q51 29 59 41v-235q-23 -25 -44 -34q-23 -11 -56 -11z" />
    <glyph glyph-name="agrave" unicode="&#xe0;" 
d="M145 674q34 -7 64 -17q72 -27 117 -76h17q-8 31 -42 72q-13 14 -53 38h-103v-17zM401 0v397q0 63 -45.5 99t-116.5 36q-29 0 -63 -12q-36 -13 -61 -35v-71q36 71 111 71q39 0 64.5 -21t25.5 -55q0 -53 -82 -91q-104 -49 -140 -76q-61 -49 -61 -117q0 -17 3 -35
q10 -48 48 -74q32 -22 81 -22q42 0 84 20q47 22 56 49v-63h96zM204 42q-70 0 -81 77q-1 8 -1 17q0 48 41 89q26 24 82 56q51 29 59 41v-235q-23 -25 -44 -34q-23 -11 -56 -11z" />
    <glyph glyph-name="acircumflex" unicode="&#xe2;" 
d="M234 636q-42 -13 -92 -64h-14q39 85 107 120v0q19 -10 37 -25q43 -37 70 -95h-15q-15 16 -30 28q-36 29 -63 36v0zM401 0v397q0 63 -45.5 99t-116.5 36q-29 0 -63 -12q-36 -13 -61 -35v-71q36 71 111 71q39 0 64.5 -21t25.5 -55q0 -53 -82 -91q-104 -49 -140 -76
q-61 -49 -61 -117q0 -17 3 -35q10 -48 48 -74q32 -22 81 -22q42 0 84 20q47 22 56 49v-63h96zM204 42q-70 0 -81 77q-1 8 -1 17q0 48 41 89q26 24 82 56q51 29 59 41v-235q-23 -25 -44 -34q-23 -11 -56 -11z" />
    <glyph glyph-name="adieresis" unicode="&#xe4;" 
d="M334 584q24 0 39.5 16t15.5 39q0 22 -15.5 37.5t-39.5 15.5q-23 0 -38.5 -15.5t-15.5 -37.5q0 -23 15.5 -39t38.5 -16zM157 584q23 0 39 16t16 39q0 22 -16 37.5t-39 15.5q-22 0 -38 -15.5t-16 -37.5q0 -23 16 -39t38 -16zM401 0v397q0 63 -45.5 99t-116.5 36
q-29 0 -63 -12q-36 -13 -61 -35v-71q36 71 111 71q39 0 64.5 -21t25.5 -55q0 -53 -82 -91q-104 -49 -140 -76q-61 -49 -61 -117q0 -17 3 -35q10 -48 48 -74q32 -22 81 -22q42 0 84 20q47 22 56 49v-63h96zM204 42q-70 0 -81 77q-1 8 -1 17q0 48 41 89q26 24 82 56
q51 29 59 41v-235q-23 -25 -44 -34q-23 -11 -56 -11z" />
    <glyph glyph-name="atilde" unicode="&#xe3;" 
d="M90 636q40 40 93 40q21 0 57 -11.5t56 -11.5q34 0 65 20l9 -13q-41 -47 -97 -47q-19 0 -39 6q-62 20 -77 20q-27 0 -59 -16zM401 0v397q0 63 -45.5 99t-116.5 36q-29 0 -63 -12q-36 -13 -61 -35v-71q36 71 111 71q39 0 64.5 -21t25.5 -55q0 -53 -82 -91
q-104 -49 -140 -76q-61 -49 -61 -117q0 -17 3 -35q10 -48 48 -74q32 -22 81 -22q42 0 84 20q47 22 56 49v-63h96zM204 42q-70 0 -81 77q-1 8 -1 17q0 48 41 89q26 24 82 56q51 29 59 41v-235q-23 -25 -44 -34q-23 -11 -56 -11z" />
    <glyph glyph-name="aring" unicode="&#xe5;" 
d="M249 692q26 0 44 -17t18 -42q0 -24 -18.5 -41t-43.5 -17q-27 0 -45 17t-18 41q0 25 18 42t45 17zM248 590q32 0 32 43q0 20 -9 32.5t-23 12.5q-31 0 -31 -45q0 -43 31 -43zM401 0v397q0 63 -45.5 99t-116.5 36q-29 0 -63 -12q-36 -13 -61 -35v-71q36 71 111 71
q39 0 64.5 -21t25.5 -55q0 -53 -82 -91q-104 -49 -140 -76q-61 -49 -61 -117q0 -17 3 -35q10 -48 48 -74q32 -22 81 -22q42 0 84 20q47 22 56 49v-63h96zM204 42q-70 0 -81 77q-1 8 -1 17q0 48 41 89q26 24 82 56q51 29 59 41v-235q-23 -25 -44 -34q-23 -11 -56 -11z" />
    <glyph glyph-name="ccedilla" unicode="&#xe7;" horiz-adv-x="453" 
d="M317 29q-91 0 -141.5 66t-50.5 158q0 93 45 165q53 83 141 83q70 0 102 -57l-1 60q-2 13 -55 22q-40 6 -65 6q-114 0 -181 -85.5t-67 -199.5q0 -103 64 -175t165 -80l-35 -44l12 -15q21 6 28 6q43 0 44 -28q2 -31 -49 -31q-19 0 -47 10l-13 -29q37 -15 71 -15q84 0 84 67
q0 53 -60 53q-6 0 -23 -2l23 28q75 3 104 24v66q-13 -23 -42 -38t-53 -15z" />
    <glyph glyph-name="eacute" unicode="&#xe9;" horiz-adv-x="477" 
d="M347 691h-102q-26 -11 -53 -39q-11 -11 -19 -22q-19 -28 -24 -49h18q66 71 181 92zM237 61q-42 25 -70 100q28 34 98 71q75 38 113 78q44 46 44 98t-44.5 88t-116.5 36q-102 0 -162 -86q-55 -78 -55 -192q0 -111 65.5 -185.5t167.5 -74.5q29 1 53 6q59 10 91 35l1 66
q-46 -61 -111 -61q-38 0 -74 21zM263 496q31 0 51 -22.5t20 -58.5q0 -27 -13 -56q-14 -37 -48 -66q-19 -16 -63 -42q-41 -26 -56 -43q-7 28 -7 62q0 83 31 151q35 75 85 75z" />
    <glyph glyph-name="egrave" unicode="&#xe8;" horiz-adv-x="477" 
d="M164 673q34 -6 64 -16q73 -27 118 -76h17q-7 31 -42 71q-12 14 -53 39h-104v-18zM237 61q-42 25 -70 100q28 34 98 71q75 38 113 78q44 46 44 98t-44.5 88t-116.5 36q-102 0 -162 -86q-55 -78 -55 -192q0 -111 65.5 -185.5t167.5 -74.5q29 1 53 6q59 10 91 35l1 66
q-46 -61 -111 -61q-38 0 -74 21zM263 496q31 0 51 -22.5t20 -58.5q0 -27 -13 -56q-14 -37 -48 -66q-19 -16 -63 -42q-41 -26 -56 -43q-7 28 -7 62q0 83 31 151q35 75 85 75z" />
    <glyph glyph-name="ecircumflex" unicode="&#xea;" horiz-adv-x="477" 
d="M243 638q-43 -14 -93 -65h-15q39 86 108 121v0q19 -11 37 -26q43 -36 70 -95h-15q-15 16 -30 29q-35 29 -62 36v0zM237 61q-42 25 -70 100q28 34 98 71q75 38 113 78q44 46 44 98t-44.5 88t-116.5 36q-102 0 -162 -86q-55 -78 -55 -192q0 -111 65.5 -185.5t167.5 -74.5
q29 1 53 6q59 10 91 35l1 66q-46 -61 -111 -61q-38 0 -74 21zM263 496q31 0 51 -22.5t20 -58.5q0 -27 -13 -56q-14 -37 -48 -66q-19 -16 -63 -42q-41 -26 -56 -43q-7 28 -7 62q0 83 31 151q35 75 85 75z" />
    <glyph glyph-name="edieresis" unicode="&#xeb;" horiz-adv-x="477" 
d="M345 583q22 0 38 16t16 39q0 21 -16 37t-38 16q-23 0 -39.5 -16t-16.5 -37q0 -23 16.5 -39t39.5 -16zM167 583q23 0 39 16t16 39q0 21 -16 37t-39 16t-39 -16t-16 -37q0 -23 16 -39t39 -16zM237 61q-42 25 -70 100q28 34 98 71q75 38 113 78q44 46 44 98t-44.5 88
t-116.5 36q-102 0 -162 -86q-55 -78 -55 -192q0 -111 65.5 -185.5t167.5 -74.5q29 1 53 6q59 10 91 35l1 66q-46 -61 -111 -61q-38 0 -74 21zM263 496q31 0 51 -22.5t20 -58.5q0 -27 -13 -56q-14 -37 -48 -66q-19 -16 -63 -42q-41 -26 -56 -43q-7 28 -7 62q0 83 31 151
q35 75 85 75z" />
    <glyph glyph-name="iacute" unicode="&#xed;" horiz-adv-x="282" 
d="M222 685h-102q-27 -10 -54 -39l-18 -22q-19 -27 -24 -48h18q66 71 180 92v17zM187 527h-97v-527h97v527z" />
    <glyph glyph-name="igrave" unicode="&#xec;" horiz-adv-x="292" 
d="M31 668q33 -6 63 -17q71 -27 116 -75h18q-9 31 -43 70q-12 14 -52 39h-102v-17zM187 527h-97v-527h97v527z" />
    <glyph glyph-name="icircumflex" unicode="&#xee;" horiz-adv-x="294" 
d="M129 630q-42 -13 -91 -62h-15q39 83 106 118v0q19 -10 37 -25q42 -37 69 -93h-15q-15 15 -30 27q-34 29 -61 35v0zM187 527h-97v-527h97v527z" />
    <glyph glyph-name="idieresis" unicode="&#xef;" horiz-adv-x="335" 
d="M248 581q22 0 38 15t16 38q0 22 -16 37.5t-38 15.5q-23 0 -39 -15.5t-16 -37.5q0 -23 16 -38t39 -15zM72 581q23 0 39 15t16 38q0 22 -16 37.5t-39 15.5q-22 0 -38 -15.5t-16 -37.5q0 -23 16 -38t38 -15zM187 527h-97v-527h97v527z" />
    <glyph glyph-name="ntilde" unicode="&#xf1;" horiz-adv-x="532" 
d="M140 635q39 39 92 39q21 0 57 -11.5t56 -11.5q34 0 65 20l9 -13q-40 -47 -97 -47q-19 0 -39 7q-61 20 -76 20q-28 0 -60 -16zM319 532q-64 0 -112 -43q-30 -29 -39 -53v90h-96l1 -526h95l1 394q10 22 32 41q33 29 72 29q91 0 90 -83v-381h96v394q0 59 -40.5 98.5
t-99.5 39.5z" />
    <glyph glyph-name="oacute" unicode="&#xf3;" horiz-adv-x="533" 
d="M342 690h-103q-27 -10 -53 -38q-10 -12 -18 -23q-19 -27 -25 -49h19q65 72 180 93v17zM266 532q-94 0 -162.5 -79t-68.5 -191q0 -128 68 -202q63 -66 163 -66q95 0 163.5 78t68.5 190q0 127 -69 201q-64 69 -163 69zM263 39q-45 0 -84 58q-43 65 -43 170q0 114 45 177
q36 51 82 51q47 0 85 -50q46 -63 46 -178q0 -107 -45 -172q-39 -56 -86 -56z" />
    <glyph glyph-name="ograve" unicode="&#xf2;" horiz-adv-x="533" 
d="M170 673q34 -7 64 -17q73 -27 117 -76h18q-8 31 -43 72q-12 14 -53 38h-103v-17zM266 532q-94 0 -162.5 -79t-68.5 -191q0 -128 68 -202q63 -66 163 -66q95 0 163.5 78t68.5 190q0 127 -69 201q-64 69 -163 69zM263 39q-45 0 -84 58q-43 65 -43 170q0 114 45 177
q36 51 82 51q47 0 85 -50q46 -63 46 -178q0 -107 -45 -172q-39 -56 -86 -56z" />
    <glyph glyph-name="ocircumflex" unicode="&#xf4;" horiz-adv-x="533" 
d="M269 634q-42 -13 -92 -64h-14q38 85 107 120v0q19 -10 36 -25q43 -37 70 -95h-15q-15 16 -29 28q-36 29 -63 36v0zM266 532q-94 0 -162.5 -79t-68.5 -191q0 -128 68 -202q63 -66 163 -66q95 0 163.5 78t68.5 190q0 127 -69 201q-64 69 -163 69zM263 39q-45 0 -84 58
q-43 65 -43 170q0 114 45 177q36 51 82 51q47 0 85 -50q46 -63 46 -178q0 -107 -45 -172q-39 -56 -86 -56z" />
    <glyph glyph-name="odieresis" unicode="&#xf6;" horiz-adv-x="533" 
d="M348 584q22 0 38.5 16t16.5 38t-16.5 38t-38.5 16q-23 0 -39.5 -16t-16.5 -38t16.5 -38t39.5 -16zM170 584q23 0 39 16t16 38t-16 38t-39 16t-39 -16t-16 -38t16 -38t39 -16zM266 532q-94 0 -162.5 -79t-68.5 -191q0 -128 68 -202q63 -66 163 -66q95 0 163.5 78t68.5 190
q0 127 -69 201q-64 69 -163 69zM263 39q-45 0 -84 58q-43 65 -43 170q0 114 45 177q36 51 82 51q47 0 85 -50q46 -63 46 -178q0 -107 -45 -172q-39 -56 -86 -56z" />
    <glyph glyph-name="otilde" unicode="&#xf5;" horiz-adv-x="533" 
d="M137 638q40 39 94 39q20 0 57 -11.5t58 -11.5q34 0 66 20l7 -13q-41 -47 -97 -47q-19 0 -39 6q-62 20 -78 20q-27 0 -59 -15zM266 532q-94 0 -162.5 -79t-68.5 -191q0 -128 68 -202q63 -66 163 -66q95 0 163.5 78t68.5 190q0 127 -69 201q-64 69 -163 69zM263 39
q-45 0 -84 58q-43 65 -43 170q0 114 45 177q36 51 82 51q47 0 85 -50q46 -63 46 -178q0 -107 -45 -172q-39 -56 -86 -56z" />
    <glyph glyph-name="uacute" unicode="&#xfa;" horiz-adv-x="543" 
d="M373 686h-101q-26 -10 -53 -38q-11 -11 -19 -23q-19 -27 -24 -48h18q65 71 180 92zM227 -6q32 3 58 11q61 21 83 73v-78h94v525h-95v-394q-8 -27 -39 -50q-32 -25 -65 -25q-39 0 -64 24.5t-25 62.5v383h-95l-1 -385q0 -78 48 -115q38 -32 101 -32z" />
    <glyph glyph-name="ugrave" unicode="&#xf9;" horiz-adv-x="543" 
d="M153 668q32 -6 63 -17q72 -27 116 -75h17q-8 31 -42 71q-12 14 -52 38h-102v-17zM227 -6q32 3 58 11q61 21 83 73v-78h94v525h-95v-394q-8 -27 -39 -50q-32 -25 -65 -25q-39 0 -64 24.5t-25 62.5v383h-95l-1 -385q0 -78 48 -115q38 -32 101 -32z" />
    <glyph glyph-name="ucircumflex" unicode="&#xfb;" horiz-adv-x="543" 
d="M264 630q-43 -13 -91 -63h-15q38 84 106 119v0q19 -10 37 -25q42 -37 69 -94h-15q-15 16 -30 28q-34 29 -61 35v0zM227 -6q32 3 58 11q61 21 83 73v-78h94v525h-95v-394q-8 -27 -39 -50q-32 -25 -65 -25q-39 0 -64 24.5t-25 62.5v383h-95l-1 -385q0 -78 48 -115
q38 -32 101 -32z" />
    <glyph glyph-name="udieresis" unicode="&#xfc;" horiz-adv-x="543" 
d="M351 579q22 0 38 16t16 38t-16 37.5t-38 15.5q-23 0 -39 -15.5t-16 -37.5t16 -38t39 -16zM176 579q22 0 38 16t16 38t-16 37.5t-38 15.5q-23 0 -39 -15.5t-16 -37.5t16 -38t39 -16zM227 -6q32 3 58 11q61 21 83 73v-78h94v525h-95v-394q-8 -27 -39 -50q-32 -25 -65 -25
q-39 0 -64 24.5t-25 62.5v383h-95l-1 -385q0 -78 48 -115q38 -32 101 -32z" />
    <glyph glyph-name="degree" unicode="&#xb0;" horiz-adv-x="403" 
d="M350 599q0 -59 -42 -104t-108 -45q-65 0 -107.5 44.5t-42.5 106.5q0 61 44 105t106 44q63 0 106.5 -44.5t43.5 -106.5zM288 600q0 35 -25.5 61.5t-63.5 26.5q-37 0 -62 -26t-25 -62q0 -37 25.5 -62.5t63.5 -25.5q35 0 61 25t26 63z" />
    <glyph glyph-name="sterling" unicode="&#xa3;" horiz-adv-x="477" 
d="M460 0h-340l1 399q-70 4 -91 52h90q-1 5 -1 70q0 98 60 153q53 50 138 50q84 0 146 -29v-72q-11 17 -50 35q-41 20 -74 20q-61 0 -89 -32q-32 -36 -32 -123v-72h52q116 0 150 -70q-45 17 -202 15v-192q0 -114 -12 -163l105 -1q115 0 149 21v-61z" />
    <glyph glyph-name="section" unicode="&#xa7;" horiz-adv-x="530" 
d="M347 106q79 18 119 67q33 40 33 94q0 69 -69 117q-31 22 -153 77q-84 37 -111 68q-23 27 -23 72q0 76 121 76q54 0 108 -20.5t84 -54.5v80q-85 42 -199 42q-113 0 -174 -44q-50 -37 -50 -89q0 -119 169 -185q-89 -11 -134 -54q-35 -35 -35 -82q1 -116 192 -193
q85 -34 118 -60q42 -33 42 -82q0 -94 -126 -94q-19 0 -40 2q-56 6 -95 26q-29 15 -77 59v-85q93 -44 169 -51q31 -4 59 -4q117 0 177 51q49 41 47 99q-2 62 -46 104q-32 31 -106 64zM145 279q0 83 122 83q21 0 45 -2q77 -40 77 -97q0 -108 -116 -124q-78 34 -105 68
q-23 27 -23 72z" />
    <glyph glyph-name="bullet" unicode="&#x2022;" horiz-adv-x="333" 
d="M318 374q0 -62 -45 -107t-107 -45q-63 0 -107 46t-44 107q0 63 44.5 108.5t107.5 45.5q61 0 106 -45t45 -110z" />
    <glyph glyph-name="germandbls" unicode="&#xdf;" horiz-adv-x="623" 
d="M571 183q-21 119 -194 196q-43 18 -43 36q0 17 38 34q136 57 136 147q0 131 -206 129h-23q-98 -1 -151 -51q-48 -48 -48 -129v-545h104v560h1q0 133 107 133h4q56 0 89.5 -26t32.5 -73q-1 -38 -30 -71q-26 -29 -66 -46q-43 -19 -43 -53q0 -30 46 -53q153 -79 153 -202
q0 -61 -40 -105.5t-96 -44.5q-20 0 -40 6q-49 16 -78 50v-60q58 -37 157 -37q67 0 104 18q31 12 56 49q33 48 33 105q0 16 -3 33z" />
    <glyph glyph-name="registered" unicode="&#xae;" horiz-adv-x="783" 
d="M392 42q-129 0 -222.5 94.5t-93.5 225.5q0 130 93.5 224.5t222.5 94.5q130 0 221.5 -94t91.5 -225t-91.5 -225.5t-221.5 -94.5zM392 0q149 0 254.5 105.5t105.5 256.5q0 150 -105.5 255.5t-254.5 105.5q-150 0 -256.5 -105.5t-106.5 -255.5q0 -151 106 -256.5t257 -105.5
zM505 291q-12 21 -24 36q-26 36 -43 38q94 18 102 119q0 55 -46 84q-38 26 -95 26h-151l-1 -457h70v222h26q35 0 58 -26q18 -17 46 -73q37 -70 68 -123h78zM362 390h-46v178h45q104 0 104 -87q0 -91 -103 -91z" />
    <glyph glyph-name="copyright" unicode="&#xa9;" horiz-adv-x="783" 
d="M392 42q-129 0 -222.5 94.5t-93.5 225.5q0 130 93.5 224.5t222.5 94.5q130 0 221.5 -94t91.5 -225t-91.5 -225.5t-221.5 -94.5zM392 0q149 0 254.5 105.5t105.5 256.5q0 150 -105.5 255.5t-254.5 105.5q-151 0 -257 -105.5t-106 -255.5q0 -151 106 -256.5t257 -105.5z
M169 354q0 -94 63 -158t152 -64q76 0 105 21v57q-22 -40 -82 -40q-67 0 -111 47q-48 51 -48 140q0 83 38 142q42 67 116 67q64 0 88 -43v53q-1 3 -24 11q-32 10 -81 10q-94 0 -155 -71t-61 -172z" />
    <glyph glyph-name="trademark" unicode="&#x2122;" horiz-adv-x="409" 
d="M295 537q1 11 9 38l42 139h53v-242h-38v208l-48 -157q-6 -20 -6 -38q0 -7 3 -13h-31l-62 209q1 -11 1 -26v-9v-51q0 -129 0 -123h-23v205q0 13 -2 37h51zM180 686q-5 18 -27 24q-13 4 -46 4h-99q4 -10 12 -13q15 -8 50 -8q3 -10 3 -25v-196h41v187q0 32 -1 34h23
q10 0 17 -1q19 -1 27 -6z" />
    <glyph glyph-name="AE" unicode="&#xc6;" horiz-adv-x="935" 
d="M727 59h-208v341h79q126 0 155 -21q-33 76 -138 76h-96v208h131q147 -3 189 -48q-22 100 -186 100h-260q-2 -60 -29 -102l-364 -613h81l164 276h174v-276h327q110 0 110 100q-24 -41 -129 -41zM283 345l112 189q22 38 29 88v-277h-141z" />
    <glyph glyph-name="Oslash" unicode="&#xd8;" horiz-adv-x="693" 
d="M558 635l55 79h-70l-30 -41q-73 52 -165 52q-138 0 -228 -113.5t-90 -256.5q0 -170 100 -275l-50 -80h70l28 40q72 -50 170 -50q150 0 240 110q80 103 80 255q0 168 -110 280zM133 358q0 117 47 207q60 113 168 113q75 0 127 -63l-295 -460q-47 85 -47 203zM348 40
q-78 0 -133 63l295 457q48 -85 48 -205q0 -115 -48 -205q-57 -110 -162 -110z" />
    <glyph glyph-name="yen" unicode="&#xa5;" horiz-adv-x="509" 
d="M300 193v-193h-101v193h-174v48h174v84h-174v49h167l-210 340h110l173 -281l103 190q14 26 42 91h82l-185 -340h170v-49h-177v-84h177v-48h-177z" />
    <glyph glyph-name="mu" unicode="&#xb5;" horiz-adv-x="500" 
d="M465 0v526h-95v-393q-8 -25 -39 -49t-65 -24q-37 0 -66.5 22t-29.5 58v386h-96l1 -745h95v227q36 -24 102 -7q21 7 40 17q44 26 60 63v-81h93z" />
    <glyph glyph-name="ae" unicode="&#xe6;" horiz-adv-x="741" 
d="M572 37q-98 0 -145 121q28 33 105.5 75.5t105.5 74.5q45 47 45 98q0 60 -49 93t-111 33q-88 0 -144 -64q-45 61 -140 61q-71 0 -125 -47v-68q37 68 112 68q89 0 89 -76q0 -53 -79 -90q-105 -50 -142 -76q-61 -52 -61 -118q0 -76 49 -108q34 -24 84 -24q70 0 154 70
q12 8 32 30q70 -100 186 -100q95 3 145 42v66q-47 -61 -111 -61zM305 83q-39 -44 -101 -44q-83 0 -83 93q0 76 125 147q50 27 59 39v-235zM409 269q0 69 23 137q35 89 91 89q74 0 74 -81q0 -68 -62 -123q-46 -27 -120 -86q-6 30 -6 64z" />
    <glyph glyph-name="oslash" unicode="&#xf8;" horiz-adv-x="501" 
d="M415 467l44 59h-67l-19 -24q-52 30 -116 30q-104 0 -168 -82.5t-64 -189.5q0 -123 62 -194l-42 -66h67l17 29q54 -37 128 -37q102 0 170 84q62 78 62 184q0 134 -74 207zM127 268q0 76 23 140q35 86 102 86q47 0 84 -47l-193 -298q-16 52 -16 119zM252 36q-45 0 -82 57
l196 298q19 -52 19 -123q0 -77 -29 -143q-37 -89 -104 -89z" />
    <glyph glyph-name="florin" unicode="&#x192;" horiz-adv-x="556" 
d="M337 724q-132 0 -150 -124l-24 -157q-95 -2 -105 -2q15 -55 100 -55q-25 -178 -52 -383v0q-10 -54 -23 -96q-28 -104 -73 -133q59 8 106 49q68 60 84 179v0l52 382h67q33 0 122 -17q-21 69 -127 74l-53 2l23 158q10 75 85 75t106 -68v74q-46 39 -138 42z" />
    <glyph glyph-name="ellipsis" unicode="&#x2026;" horiz-adv-x="1000" 
d="M178 -11q23 0 39.5 16.5t16.5 39.5t-16.5 39t-39.5 16q-24 0 -40.5 -16t-16.5 -39t16.5 -39.5t40.5 -16.5zM515 -11q23 0 39.5 16.5t16.5 39.5t-16.5 39t-39.5 16q-24 0 -40.5 -16t-16.5 -39t16.5 -39.5t40.5 -16.5zM846 -11q23 0 39.5 16.5t16.5 39.5t-16.5 39t-39.5 16
q-24 0 -40.5 -16t-16.5 -39t16.5 -39.5t40.5 -16.5z" />
    <glyph glyph-name="Agrave" unicode="&#xc0;" horiz-adv-x="607" 
d="M195 847q33 -7 62 -17q70 -26 113 -73l17 -1q-7 31 -41 70q-11 13 -51 37h-100v-16zM321 714h-91q0 -38 -26 -114l-204 -600h75l95 274h222l102 -273l104 -1zM186 326q34 104 78 230q6 21 6 41l99 -271h-183z" />
    <glyph glyph-name="Atilde" unicode="&#xc3;" horiz-adv-x="607" 
d="M139 827q38 38 90 38q20 0 55 -11t55 -11q33 0 64 20l8 -13q-40 -45 -95 -45q-18 0 -38 5q-59 20 -74 20q-27 0 -57 -16zM321 714h-91q0 -38 -26 -114l-204 -600h75l95 274h222l102 -273l104 -1zM186 326q34 104 78 230q6 21 6 41l99 -271h-183z" />
    <glyph glyph-name="Otilde" unicode="&#xd5;" horiz-adv-x="722" 
d="M215 833q38 38 90 38q19 0 55 -11t56 -11q34 0 63 20l9 -13q-40 -47 -94 -47q-20 0 -39 7q-60 20 -76 20q-26 0 -57 -16zM560 354q0 -134 -57 -223q-59 -92 -152 -92q-94 0 -154 90t-60 226t60 227.5t154 91.5q92 0 152 -96q57 -90 57 -224zM346 723q-131 0 -224 -109
t-93 -258q0 -161 89 -263.5t228 -102.5q144 0 234 107q86 103 86 259q0 152 -94 259.5t-226 107.5z" />
    <glyph glyph-name="OE" unicode="&#x152;" horiz-adv-x="1060" 
d="M905 55h-210l-1 343h80q127 0 158 -22q-33 78 -140 78h-97v206h133q153 0 190 -46q-22 100 -188 100l-237 1v-91q-91 101 -218 101q-138 0 -231 -117q-86 -109 -86 -252q0 -153 81 -254q89 -112 236 -112q132 0 219 91v-81h331q109 0 109 94q-25 -39 -129 -39zM377 45
q-107 0 -165 110q-49 89 -49 205q0 119 49 207q57 109 165 109q106 0 163 -111q44 -87 44 -205q0 -117 -44 -205q-57 -110 -163 -110z" />
    <glyph glyph-name="oe" unicode="&#x153;" horiz-adv-x="838" 
d="M671 39q-100 0 -145 119q28 34 104 76q79 43 108 75q45 47 45 97q0 61 -53 95q-46 31 -108 31q-106 0 -168 -93q-66 93 -181 93q-103 0 -170 -87q-63 -79 -63 -185q0 -116 58 -189q63 -79 175 -79q107 0 178 96q70 -96 187 -95q95 0 144 40v66q-46 -60 -111 -60zM270 37
q-64 0 -101 88q-28 67 -28 140q0 79 26 143q35 86 103 86q69 0 105 -86q27 -63 27 -143q0 -74 -29 -141q-37 -87 -103 -87zM506 268q0 70 26 138q34 90 92 90q33 0 52 -24t19 -58q0 -68 -62 -122q-21 -18 -63 -44q-20 -13 -58 -41q-6 27 -6 61z" />
    <glyph glyph-name="quotedblleft" unicode="&#x201c;" horiz-adv-x="337" 
d="M138 674q0 16 -14 28t-33 12q-20 0 -33.5 -12t-13.5 -28q0 -1 22 -213h49zM293 674q0 16 -14 28t-33 12q-20 0 -33.5 -12t-13.5 -28q0 -1 22 -213h49z" />
    <glyph glyph-name="quotedblright" unicode="&#x201d;" horiz-adv-x="337" 
d="M138 674q0 16 -14 28t-33 12q-20 0 -33.5 -12t-13.5 -28q0 -1 22 -213h49zM293 674q0 16 -14 28t-33 12q-20 0 -33.5 -12t-13.5 -28q0 -1 22 -213h49z" />
    <glyph glyph-name="quoteleft" unicode="&#x2018;" horiz-adv-x="193" 
d="M154 674q0 16 -13.5 28t-33.5 12t-33.5 -12t-13.5 -28q0 -1 22 -213h49z" />
    <glyph glyph-name="quoteright" unicode="&#x2019;" horiz-adv-x="193" 
d="M154 674q0 16 -13.5 28t-33.5 12t-33.5 -12t-13.5 -28q0 -1 22 -213h49z" />
    <glyph glyph-name="divide" unicode="&#xf7;" horiz-adv-x="492" 
d="M215 489q0 -15 10 -25t25 -10q14 0 24.5 10t10.5 25q0 14 -10.5 24.5t-24.5 10.5q-15 0 -25 -10.5t-10 -24.5zM215 171q0 -15 10 -25t25 -10q14 0 24.5 10t10.5 25t-10.5 25t-24.5 10q-15 0 -25 -10t-10 -25zM44 344v-52h411v52h-411z" />
    <glyph glyph-name="ydieresis" unicode="&#xff;" horiz-adv-x="527" 
d="M354 581q21 0 37 15.5t16 36.5q0 23 -16 38t-37 15q-23 0 -38.5 -15t-15.5 -38q0 -21 15.5 -36.5t38.5 -15.5zM180 581q23 0 38.5 15.5t15.5 36.5q0 23 -15.5 38t-38.5 15t-38.5 -15t-15.5 -38q0 -21 15.5 -36.5t38.5 -15.5zM421 526l-16 -97l-74 -314v0q-17 -66 -53 -66
q-49 0 -73 107q-7 34 -61 270l-22 100h-92l88 -380q36 -152 143 -152q22 0 44 11l-54 -220h95l175 741h-100z" />
    <glyph glyph-name="Acircumflex" unicode="&#xc2;" horiz-adv-x="607" 
d="M281 810q-42 -13 -90 -62h-14q38 81 104 116v0q19 -10 36 -25q41 -35 67 -91h-14q-14 16 -29 27q-34 29 -60 35v0zM321 714h-91q0 -38 -26 -114l-204 -600h75l95 273h222l103 -272l104 -1zM186 326q35 104 78 230q7 21 7 40l99 -270h-184z" />
    <glyph glyph-name="Ecircumflex" unicode="&#xca;" horiz-adv-x="542" 
d="M263 811q-41 -13 -88 -62h-16q38 82 104 116v0q19 -10 36 -25q41 -36 68 -91h-15q-14 15 -28 27q-35 28 -61 35v0zM385 56h-211v341h80q127 0 157 -20q-33 76 -139 76h-97v207h133q153 0 189 -46q-22 100 -187 100h-236v-714h331q108 0 108 96q-25 -40 -128 -40z" />
    <glyph glyph-name="Aacute" unicode="&#xc1;" horiz-adv-x="607" 
d="M373 863h-99q-26 -10 -52 -37q-9 -12 -17 -22q-18 -26 -24 -48l18 1q63 69 174 90v16zM321 714h-91q0 -38 -26 -114l-204 -600h75l95 274h222l102 -273l104 -1zM186 326q34 104 78 230q6 21 6 41l99 -271h-183z" />
    <glyph glyph-name="Edieresis" unicode="&#xcb;" horiz-adv-x="542" 
d="M359 762q23 0 38 15t15 37t-15 37t-38 15q-22 0 -37.5 -15t-15.5 -37t15.5 -37t37.5 -15zM188 762q23 0 38 15t15 37t-15 37t-38 15q-22 0 -37.5 -15t-15.5 -37t15.5 -37t37.5 -15zM385 56h-211v341h80q127 0 157 -20q-33 76 -139 76h-97v207h133q153 0 189 -46
q-22 100 -187 100h-236v-714h331q108 0 108 96q-25 -40 -128 -40z" />
    <glyph glyph-name="Egrave" unicode="&#xc8;" horiz-adv-x="542" 
d="M180 848q32 -7 62 -17q70 -26 112 -73h18q-8 30 -41 69q-13 13 -52 37h-99v-16zM385 56h-211v341h80q127 0 157 -20q-33 76 -139 76h-97v207h133q153 0 189 -46q-22 100 -187 100h-236v-714h331q108 0 108 96q-25 -40 -128 -40z" />
    <glyph glyph-name="Iacute" unicode="&#xcd;" horiz-adv-x="298" 
d="M265 867h-100q-25 -10 -51 -37q-10 -12 -17 -23q-19 -26 -24 -46h17q64 69 176 90zM108 0h101v714h-101v-714z" />
    <glyph glyph-name="Icircumflex" unicode="&#xce;" horiz-adv-x="192" 
d="M97 814q-42 -13 -90 -62h-14q38 82 105 116v0q19 -10 36 -25q42 -36 68 -91h-14q-16 15 -30 27q-34 28 -61 35v0zM51 0h101v714h-101v-714z" />
    <glyph glyph-name="Idieresis" unicode="&#xcf;" horiz-adv-x="441" 
d="M109 0h101v714h-101v-714zM250 762q23 0 38 15t15 37t-15 37t-38 15q-22 0 -37.5 -15t-15.5 -37t15.5 -37t37.5 -15zM79 762q23 0 38 15t15 37t-15 37t-38 15q-22 0 -37.5 -15t-15.5 -37t15.5 -37t37.5 -15z" />
    <glyph glyph-name="Igrave" unicode="&#xcc;" horiz-adv-x="402" 
d="M107 0h101v714h-101v-714zM64 847q33 -7 62 -17q70 -26 113 -73l17 -1q-7 31 -41 70q-11 13 -51 37h-100v-16z" />
    <glyph glyph-name="Oacute" unicode="&#xd3;" horiz-adv-x="722" 
d="M432 873h-100q-26 -10 -52 -38q-10 -11 -18 -22q-19 -26 -24 -47h18q64 69 176 90v17zM560 354q0 -134 -57 -223q-59 -92 -152 -92q-94 0 -154 90t-60 226t60 227.5t154 91.5q92 0 152 -96q57 -90 57 -224zM346 723q-131 0 -224 -109t-93 -258q0 -161 89 -263.5
t228 -102.5q144 0 234 107q86 103 86 259q0 152 -94 259.5t-226 107.5z" />
    <glyph glyph-name="Ocircumflex" unicode="&#xd4;" horiz-adv-x="722" 
d="M560 354q0 -134 -57 -223q-59 -92 -152 -92q-94 0 -154 90t-60 226t60 227.5t154 91.5q92 0 152 -96q57 -90 57 -224zM346 723q-131 0 -224 -109t-93 -258q0 -161 89 -263.5t228 -102.5q144 0 234 107q86 103 86 259q0 152 -94 259.5t-226 107.5zM348 814
q-41 -13 -89 -61q-1 -1 -14 0q37 81 103 115v0q18 -10 36 -24q42 -36 68 -91h-14q-16 14 -30 26q-34 29 -60 35v0z" />
    <glyph glyph-name="Ograve" unicode="&#xd2;" horiz-adv-x="722" 
d="M262 854q31 -5 61 -16q71 -26 114 -74h17q-7 31 -40 70q-13 13 -52 37h-100v-17zM560 354q0 -134 -57 -223q-59 -92 -152 -92q-94 0 -154 90t-60 226t60 227.5t154 91.5q92 0 152 -96q57 -90 57 -224zM346 723q-131 0 -224 -109t-93 -258q0 -161 89 -263.5t228 -102.5
q144 0 234 107q86 103 86 259q0 152 -94 259.5t-226 107.5z" />
    <glyph glyph-name="Uacute" unicode="&#xda;" horiz-adv-x="654" 
d="M428 866h-99q-26 -10 -52 -37q-10 -11 -17 -22q-19 -26 -24 -47h17q64 69 175 90v16zM181 225q0 -176 152 -176q80 0 123 52q35 44 35 111l-1 502h81l1 -112q3 -293 0 -384q0 -94 -53 -155q-64 -73 -195 -73q-126 0 -190 73q-54 62 -54 155v496h102z" />
    <glyph glyph-name="Ucircumflex" unicode="&#xdb;" horiz-adv-x="654" 
d="M330 813q-41 -13 -89 -61q-1 -1 -14 0q37 81 103 115v0q18 -10 36 -24q42 -36 68 -91h-14q-16 14 -30 26q-34 29 -60 35v0zM181 226q0 -177 151 -177q81 0 123 52q36 44 36 112l-1 501h81l1 -112q2 -293 -1 -384q0 -94 -53 -155q-64 -73 -195 -73q-125 0 -189 73
q-54 62 -54 155v496h102z" />
    <glyph glyph-name="Ugrave" unicode="&#xd9;" horiz-adv-x="654" 
d="M181 226q0 -177 153 -177q80 0 122 52q37 45 37 112l-3 502h82l1 -112q3 -294 0 -385q0 -94 -53 -155q-65 -73 -195 -73q-126 0 -191 73q-54 62 -54 155v497h102v-113q-1 -53 -1 -376zM211 851q33 -6 61 -17q71 -26 114 -73h18q-9 30 -42 69q-12 13 -52 37h-99v-16z" />
    <glyph glyph-name="scaron" unicode="&#x161;" horiz-adv-x="370" 
d="M171 638q43 14 92 64h15q-39 -85 -107 -119v0q-20 10 -38 25q-42 37 -69 94h15q15 -16 30 -28q35 -29 62 -36v0zM244 147q0 -46 -27 -76t-70 -30h-16q-35 5 -54 18t-41 42l-1 -68q43 -39 126 -39q57 0 108 37q67 46 67 133q0 54 -38 97q-32 36 -111 82q-63 36 -63 89
q0 25 17 41t49 16q7 0 15 -1q62 -7 101 -66v68q-63 42 -130 42q-59 0 -100 -34q-43 -35 -43 -91q0 -85 92 -141q68 -41 93 -64q26 -26 26 -55z" />
    <glyph glyph-name="Zcaron" unicode="&#x17d;" horiz-adv-x="694" 
d="M334 857q57 19 124 86h19q-52 -113 -143 -160v0q-26 13 -50 34q-57 49 -94 126h20q20 -21 41 -38q47 -39 83 -48v0zM398 60h-222l370 654h-325q-126 0 -162 -96q48 41 146 41h200l-377 -659h372q48 0 81.5 28.5t33.5 69.5q-36 -38 -117 -38z" />
    <glyph glyph-name="zcaron" unicode="&#x17e;" horiz-adv-x="511" 
d="M285 591q30 9 65 45h10q-28 -60 -76 -85v0q-14 7 -26 18q-30 26 -49 67h10q10 -11 21 -20q25 -21 45 -25v0zM358 51l-185 -1l317 476h-283q-34 -2 -58 -10q-59 -20 -66 -72q15 31 136 34l125 -1l-324 -477h347q30 2 52 11q53 21 56 76q-10 -34 -117 -36z" />
    <glyph glyph-name="Eth" unicode="&#xd0;" horiz-adv-x="714" 
d="M302 714h-202v-337h-89v-54h89v-323h202q139 0 234 109q90 103 90 244q0 151 -87.5 254.5t-236.5 106.5zM302 44h-100v279h165v54h-165v295h78q114 2 181 -102q58 -88 58 -207q0 -115 -51 -208q-61 -114 -166 -111z" />
    <glyph glyph-name="Yacute" unicode="&#xdd;" horiz-adv-x="596" 
d="M229 761h-23q36 87 78 104h120v-14q-114 -21 -175 -90zM487 714q-3 -26 -27 -93l-122 -339q-9 -31 -33 -31q-50 0 -86 107q-12 43 -117 356h-91l124 -368q50 -150 144 -150q16 0 33 12l-74 -208h103l256 714h-110z" />
    <glyph glyph-name="yacute" unicode="&#xfd;" horiz-adv-x="530" 
d="M387 687h-101q-26 -10 -52 -39q-10 -11 -18 -21q-20 -27 -24 -49l17 1q64 71 178 91v17zM421 526l-16 -97l-74 -314v0q-17 -66 -53 -66q-49 0 -73 107q-7 34 -61 270l-22 100h-92l88 -380q36 -152 143 -152q22 0 44 11l-54 -220h95l175 741h-100z" />
    <glyph glyph-name="thorn" unicode="&#xfe;" horiz-adv-x="532" 
d="M281 523q-85 0 -119 -59v247h-90v-919h93v240q22 -30 97 -30q97 0 158 74.5t61 199.5q0 98 -55 170q-58 77 -145 77zM240 474q140 0 140 -217q0 -102 -32 -163.5t-85 -61.5q-21 1 -38 8q-42 15 -60 53v348q35 33 75 33z" />
    <glyph glyph-name="minus" unicode="&#xad;" horiz-adv-x="494" 
d="M74 361v-61h345v61h-345z" />
    <glyph glyph-name="multiply" unicode="&#xd7;" horiz-adv-x="561" 
d="M301 315l162 171l-43 38l-159 -169l-176 169l-41 -43l176 -166l-173 -184l40 -40l174 183l176 -169l40 43z" />
    <glyph glyph-name="onehalf" unicode="&#xbd;" horiz-adv-x="740" 
d="M546 706l-452 -707h75l452 707h-75zM174 714q-18 -10 -38 -17q-47 -18 -94 -21v-31l64 11v-308h68v366zM562 36h49q61 0 86 17v-52h-235q31 69 105 179q56 86 59 112q1 23 -8.5 35.5t-34.5 8.5q-14 -2 -27 -9q-32 -17 -55 -50v56q43 31 98 34q102 0 100 -77
q-1 -30 -49 -108q-80 -129 -88 -146z" />
    <glyph glyph-name="onequarter" unicode="&#xbc;" horiz-adv-x="750" 
d="M562 742l-474 -742h79l473 742h-78zM173 750q-20 -10 -41 -18q-49 -19 -98 -21v-33l68 11v-322h71v383zM659 138v97h-65v-96l-25 -1l-54 1q38 89 116 240h-40h-41q-1 -1 -6 -11l-15 -34q-31 -64 -108 -236l173 3v-100h65v100h8q29 0 40 -3v40h-48z" />
    <glyph glyph-name="threequarters" unicode="&#xbe;" horiz-adv-x="692" 
d="M530 740l-473 -740h79l472 740h-78zM628 138v97h-66v-97h-24h-55q38 90 117 240h-40.5h-41.5q0 -2 -7 -15l-14 -30q-31 -64 -108 -235l173 3v-100h66v100h7q30 0 40 -4v41h-47zM125 632q51 -16 78 -55q24 -35 24 -79q0 -53 -31 -93q-34 -42 -88 -48t-90 17v60
q25 -37 70 -43q36 -3 58.5 19.5t22.5 55.5q0 40 -31 69q-37 34 -103 40q14 21 88 125h-23q-62 0 -76 -8v45h180q-31 -40 -79 -105z" />
    <glyph glyph-name="endash" unicode="&#x2013;" horiz-adv-x="503" 
d="M74 366v-66h356v66h-356z" />
    <glyph glyph-name="emdash" unicode="&#x2014;" horiz-adv-x="503" 
d="M74 366v-66h356v66h-356z" />
    <glyph glyph-name="SF100000" unicode="&#x2500;" horiz-adv-x="503" 
d="M74 366v-66h356v66h-356z" />
    <glyph glyph-name="Emirates Logo" unicode="&#xac;" horiz-adv-x="1195" 
d="M662 680q-15 -14 -15 -40v-121q0 -16 -10 -25q-12 -13 -23 -22h12q18 17 42 40q17 19 17 41v59v59q0 18 12 31q9 8 21 20h-10q-21 -20 -46 -42zM573 239l42 -39h30q45 0 76 32q25 25 25 64v64q0 20 -17 36q-2 1 -15 14v-48q5 -5 16 -15l1 -1q8 -8 8 -20q0 -25 -37 -61
q-28 -26 -57 -26h-72zM694 496q-9 -9 -9 -29v-24h24q10 0 25 14v23q5 -6 12 -13q30 30 43 30q23 0 23 -22q0 -18 -11.5 -29t-27.5 -27q-7 -6 -15 -6q-24 0 -24 36l-32 -30q-1 -1 -6.5 -6t-10.5 -12v-61q0 -33 -18.5 -49.5t-41.5 -39.5h-13l25 23q10 11 10 30v98h-153
q-30 0 -47.5 23.5t-19.5 52.5v61q0 22 -15 31h14q12 -5 12 -42v-45q-1 -14 9.5 -27t26.5 -13h23q155 0 150 0q1 18 14 33.5t47 42.5h10q-9 -10 -24 -23zM751 462q20 -24 29 -24q7 0 7 9q0 7 -6 15q-8 15 -30 0zM565 349q0 -5 -28 -33q-3 15 -29 40l29 28q28 -27 28 -35z
M615 686q13 -12 13 -22q0 -4 -2.5 -7t-15.5 -17q-1 1 -11 14v-34q-1 -7 -4 -16q20 -22 23 -54v-31q0 -10 -5.5 -15t-28.5 -29q-6 -6 -17 -6h-82q-26 0 -26 20v31q9 -11 18 -11q11 0 19 8q1 2 63 67q-26 23 -47 37q-7 5 -13 0q-8 -3 -10 -10q-5 -27 0 -62l-17 17l-5 5
q-7 8 -7 20q0 13 9 21q20 22 39 22h33q10 0 45 -23q4 4 5 8v41q-26 26 -12 42l19 20q0 -17 17 -36zM513 522q-4 -6 -17 -15h94q28 0 13 24q-15 19 -37 46zM407 438h-14q14 -8 16 -31v-74q0 -37 26.5 -64.5t61.5 -27.5h40q25 0 47 18q4 4 14 16q17 19 17 41v24q0 20 -17 34
q-2 3 -14 15v-49q10 -9 16.5 -15.5t6.5 -17.5q0 -26 -23 -26h-88q-29 0 -52.5 21t-23.5 55v40q-2 41 -13 41zM505 349q0 -5 -29 -33q-2 13 -29 40l29 28q29 -27 29 -35zM196 20h-47q-12 0 -15 23v68h22q31 0 44 -6q-10 25 -44 28h-22v21q0 17 -5 25l30 -1q49 0 70 -14
q-3 33 -56 36h-102q17 -14 17 -46l2 -123q0 -9 1 -15q2 -16 10 -16h36h64q31 0 33 23v12q-7 -13 -38 -15zM463 31v87q0 43 -48 43q-25 0 -38 -31q-9 31 -44 31q-10 -2 -18 -5q-18 -7 -24 -27q0 27 -26 30h-27q15 -5 15 -32v-96q1 -31 13 -31h42q-15 11 -15 31v86q3 16 25 16
q21 0 21 -23v-79q1 -31 13 -31h43q-15 10 -16 31v86q5 16 22 16q24 0 24 -23v-79q0 -31 12 -31h42q-15 10 -16 31zM537 31q0 -11 17 -31h-42q-12 0 -13 31v0v96q0 12 -15 32h25q28 0 28 -35v-93v0zM667 147q-4 11 -22 12q-8 -1 -14 -4q-14 -8 -19 -28q-1 16 -7 24t-19 8h-25
q13 -5 14 -32v-96q1 -31 12 -31h41q-16 11 -16 31v79q2 11 11 16q25 16 44 -7v28zM865 141q6 0 25 -6v24h-36v37q-9 -16 -29 -32q-5 -5 -37 -22h26v-112q2 -30 14 -30h42q-15 9 -16 30v111h5.5h5.5zM961.5 71.5q-19.5 -8.5 -25.5 -17.5q3 -23 21 -34q30 -14 49 19v-29
q-9 -10 -45 -10q-30 0 -50 21.5t-20 54.5q0 34 18 58.5t49 26.5q49 0 49 -37q0 -16 -13 -30t-32.5 -22.5zM966 103q7 11 7 24q0 22 -17 20q-28 -8 -23 -76q12 7 33 32zM519 172q18 0 18 19q0 20 -18 20q-20 0 -20 -20q0 -19 20 -19zM1086 43q0 -26 -31 -26q-7 0 -12 2
q-12 6 -19 20v-29q15 -10 40 -10v0q24 0 41 15t17 36q-1 30 -53 59q-12 7 -12 19q0 15 24 14q11 -1 30 -22v26q-14 12 -40 14q-20 0 -34 -11.5t-14 -27.5q1 -32 46 -57q17 -9 17 -22zM717 17q-23 0 -23 22q0 23 17 37q13 10 24 17v-67q-6 -9 -18 -9zM739 124q0 -17 -21 -27
q-58 -25 -58 -59q0 -40 42 -40q25 0 34 20q2 -9 13 -18h42q-16 10 -18 31v0v90q0 15 -14.5 26.5t-33.5 11.5q-12 0 -40 -12v-28q8 22 31 23q23 0 23 -18z" />
    <glyph glyph-name="Plane-Up" unicode="&#x3c0;" horiz-adv-x="826" 
d="M466 264q3 18 11 23q7 4 20 -2l257 -116l1 52l-6 4q-75 54 -194 141q-61 46 -74 72q-21 44 -27 184q-3 102 -41 102v0q-39 0 -42 -102q-6 -140 -27 -184q-12 -26 -74 -72q-94 -69 -194 -141l-6 -4l2 -52l256 116q13 6 20 2q8 -5 11 -23q6 -39 12 -109q8 -69 -35 -101
l-44 -33l3 -31l118 31l117 -31l3 31l-44 33q-43 32 -35 101q6 69 12 109z" />
    <glyph glyph-name="Plane-Right" unicode="&#x2265;" horiz-adv-x="875" 
d="M344 304q18 -3 23 -11q4 -7 -2 -20l-116 -257l52 -1l4 6q54 75 141 194q46 61 72 74q44 21 184 27q102 3 102 41v0q0 38 -102 42q-140 6 -184 27q-26 12 -72 74q-68 94 -140 194l-5 6l-52 -2l116 -256q6 -13 2 -20q-5 -8 -23 -11q-38 -6 -109 -12q-69 -8 -101 35l-33 44
l-31 -3l31 -117l-31 -118l31 -3l33 44q32 43 101 35q69 -6 109 -12z" />
    <glyph glyph-name="Plane-Left" unicode="&#x2264;" horiz-adv-x="875" 
d="M530 410q-18 3 -23 11q-4 7 2 20l116 256l-52 2l-4 -6q-54 -75 -141 -194q-46 -61 -72 -74q-44 -21 -184 -27q-102 -3 -102 -41v0q0 -38 102 -42q140 -6 184 -27q26 -12 72 -74q68 -95 140 -194l5 -6l52 1l-116 257q-6 13 -2 20q5 8 23 11q38 6 109 12q69 8 101 -35
l33 -45l31 4l-31 117l31 118l-30 3l-34 -44q-32 -43 -101 -35q-69 6 -109 12z" />
    <glyph glyph-name="currency" unicode="&#xa4;" horiz-adv-x="648" 
d="M478 41q-88 0 -159 58t-94 160h306l20 51h-334q-3 17 -3 34q0 9 3 26h314l20 51h-328q17 110 79 181q68 82 167 82q96 0 139 -76v82q-45 34 -164 34q-128 0 -217 -85t-115 -218h-68v-51h62v-31.5v-28.5h-62v-51h71q23 -119 113.5 -194t212.5 -75t167 34v88
q-43 -71 -130 -71z" />
    <glyph glyph-name="currency" unicode="&#x20ac;" horiz-adv-x="648" 
d="M478 41q-88 0 -159 58t-94 160h306l20 51h-334q-3 17 -3 34q0 9 3 26h314l20 51h-328q17 110 79 181q68 82 167 82q96 0 139 -76v82q-45 34 -164 34q-128 0 -217 -85t-115 -218h-68v-51h62v-31.5v-28.5h-62v-51h71q23 -119 113.5 -194t212.5 -75t167 34v88
q-43 -71 -130 -71z" />
    </font>
</defs>
</svg>
