<?xml version="1.0" standalone="no"?>
<!DOCTYPE svg PUBLIC "-//W3C//DTD SVG 1.1//EN" "http://www.w3.org/Graphics/SVG/1.1/DTD/svg11.dtd" >
<svg xmlns="http://www.w3.org/2000/svg" xmlns:xlink="http://www.w3.org/1999/xlink" version="1.1">
<metadata>
Created by FontForge 20170910 at Wed Mar  2 14:38:05 2005
 By Jimmy Wärting
Copyright &#60;C&#62; Emirates Group UAE, 2005. Release 3.1.02
</metadata>
<defs>
<font id="EK03Plain-B01" horiz-adv-x="545" >
  <font-face 
    font-family="EK03Plain-B01"
    font-weight="700"
    font-stretch="condensed"
    units-per-em="1000"
    panose-1="0 0 8 0 0 0 0 0 0 0"
    ascent="800"
    descent="-200"
    x-height="526"
    cap-height="713"
    bbox="-50 -224 1123 874"
    underline-thickness="20"
    underline-position="-143"
    unicode-range="U+0020-2500"
  />
<missing-glyph horiz-adv-x="552" 
 />
    <glyph glyph-name=".notdef" horiz-adv-x="552" 
 />
    <glyph glyph-name=".null" horiz-adv-x="0" 
 />
    <glyph glyph-name="nonmarkingreturn" horiz-adv-x="250" 
 />
    <glyph glyph-name="space" unicode=" " horiz-adv-x="250" 
 />
    <glyph glyph-name="exclam" unicode="!" horiz-adv-x="401" 
d="M193 0q27 0 46.5 19t19.5 46q0 28 -19.5 47t-46.5 19q-28 0 -47.5 -19t-19.5 -47q0 -27 19.5 -46t47.5 -19zM263 651q2 26 -20.5 44.5t-49.5 18.5q-28 0 -50 -18t-20 -45q2 -19 39 -470h58z" />
    <glyph glyph-name="quotedbl" unicode="&#x22;" horiz-adv-x="377" 
d="M153 668q0 19 -16 32.5t-39 13.5q-22 0 -38 -13.5t-16 -32.5q0 -2 25 -208l57 1zM332 668q0 19 -16 32.5t-38 13.5q-23 0 -39 -13.5t-16 -32.5q0 -2 26 -208l57 1z" />
    <glyph glyph-name="numbersign" unicode="#" horiz-adv-x="563" 
d="M534 432v74h-96l35 206h-73l-37 -206h-108l37 206h-74l-37 -206h-120v-74h108l-28 -161h-110v-74h96l-34 -197h74l35 197h108l-35 -197h74l35 197h125v74h-113l28 161h110zM322 271h-108l29 161h108z" />
    <glyph glyph-name="dollar" unicode="$" horiz-adv-x="555" 
d="M427 365q-28 24 -122 80q1 221 2 221q75 0 132 -72l17 -26v97q-56 47 -151 56v47h-66v-46q-79 -7 -136 -49q-65 -49 -63 -124q2 -68 39 -118q39 -53 133 -104q13 -7 27 -15v-244q-22 -4 -45 -4q-45 0 -87 23q-45 23 -65 62v-106q83 -43 160 -43h37v-58h66v66
q63 13 112 46q85 65 85 165q0 80 -75 146zM179 579q0 54 60 76v-166q-60 48 -60 90zM305 90v175q57 -48 57 -93q0 -50 -57 -82z" />
    <glyph glyph-name="percent" unicode="%" horiz-adv-x="763" 
d="M561 714l-456 -714h129l456 714h-129zM184 724q-55 0 -92.5 -46.5t-37.5 -121.5q0 -84 38 -128q35 -40 92 -40q61 0 100 57q35 50 35 114q0 69 -32 114q-37 51 -103 51zM186 433q-29 0 -42 51q-8 34 -8 76q0 40 9 74q13 49 41 49t41 -49q9 -33 9 -74q0 -42 -8 -76
q-13 -51 -42 -51zM609 328q-55 0 -92.5 -46.5t-37.5 -121.5q0 -84 38 -128q35 -39 92 -39q61 0 100 56q35 50 35 114q0 69 -32 114q-37 51 -103 51zM610 37q-28 0 -41 51q-8 34 -8 76q0 41 9 74q13 49 40 49q29 0 42 -49q9 -32 9 -74t-8 -76q-14 -51 -43 -51z" />
    <glyph glyph-name="ampersand" unicode="&#x26;" horiz-adv-x="713" 
d="M619 222q15 21 47 84l-59 93q-10 -54 -43 -118q-24 -41 -54 -83l-154 244q109 54 118 163q0 56 -46 90q-40 30 -101 30q-64 0 -111 -38q-52 -41 -52 -111q0 -73 58 -166l-27 -20q-47 -36 -86 -90q-52 -73 -52 -139q0 -51 30 -94q54 -73 171 -73q96 0 191 56l31 -50h156
l-85 130q43 51 68 92zM292 582q-4 43 10 63.5t33 20.5q44 0 37 -77q-7 -56 -46 -97q-24 33 -34 90zM209 141q-27 39 -27 86q0 75 68 138l160 -255q-48 -26 -95 -26q-68 0 -106 57z" />
    <glyph glyph-name="quotesingle" unicode="'" horiz-adv-x="218" 
d="M179 667q0 20 -16 33.5t-38 13.5q-23 0 -39 -13.5t-16 -33.5q0 -1 26 -208l57 1z" />
    <glyph glyph-name="parenleft" unicode="(" horiz-adv-x="371" 
d="M247 -212q-159 179 -171 496q4 93 21 174q43 198 148 311h51q-101 -209 -109 -482q2 -80 13 -159q28 -188 96 -340h-49z" />
    <glyph glyph-name="parenright" unicode=")" horiz-adv-x="334" 
d="M44 -212q101 225 109 500q-2 80 -14 156q-27 186 -95 327h50q156 -169 169 -486q-5 -92 -22 -176q-42 -200 -149 -321h-48z" />
    <glyph glyph-name="asterisk" unicode="*" horiz-adv-x="458" 
d="M349 594q-14 -9 -49 -15q-36 -6 -52 -14q16 -10 52 -16t48 -14q17 -10 17 -31q0 -9 -4 -16q-9 -17 -28 -17q-9 0 -17 5q-14 8 -37 35.5t-39 37.5q0 -19 12.5 -52.5t12.5 -49.5q0 -14 -10.5 -24t-24.5 -10q-13 0 -23 9.5t-10 23.5q0 16 12.5 50t13.5 52q-17 -9 -39.5 -37
t-35.5 -36q-8 -4 -17 -4q-21 0 -31 17q-4 8 -4 17q0 19 16 28q14 8 49.5 14.5t51.5 14.5q-16 9 -51.5 15.5t-48.5 14.5q-17 9 -17 30q0 10 4 17q10 17 29 17q9 0 17 -5q14 -8 37 -36t38 -38q0 20 -12.5 53.5t-12.5 48.5q0 14 10.5 24.5t24.5 10.5t23.5 -10t9.5 -23
q0 -16 -12.5 -50t-13.5 -52q17 9 40 37t36 35q8 5 17 5q20 0 30 -18q5 -7 5 -16q0 -19 -17 -28z" />
    <glyph glyph-name="plus" unicode="+" horiz-adv-x="572" 
d="M529 318h-208v208h-68v-208h-209v-68h209v-209h68v209h208v68z" />
    <glyph glyph-name="comma" unicode="," horiz-adv-x="282" 
d="M94 -135q49 32 74 70q18 28 18 50q0 8 -4.5 12t-11.5 4l-10 -2q-6 -2 -17 -2q-24 0 -42 14q-21 17 -21 46q0 26 19 44q17 17 40 17q31 0 55 -19q36 -28 36 -89q0 -37 -26 -76q-20 -33 -53 -60q-27 -24 -47 -30z" />
    <glyph glyph-name="hyphen" unicode="-" horiz-adv-x="330" 
d="M41 392v-104h248v104h-248z" />
    <glyph glyph-name="period" unicode="." horiz-adv-x="280" 
d="M144 -10q27 0 46 18.5t19 44.5t-19 44t-46 18q-26 0 -45 -18t-19 -44t19 -44.5t45 -18.5z" />
    <glyph glyph-name="slash" unicode="/" horiz-adv-x="352" 
d="M-13 -211h108l256 985h-108z" />
    <glyph glyph-name="zero" unicode="0" horiz-adv-x="593" 
d="M407 360q0 -129 -26 -211q-29 -89 -80 -88q-52 1 -80 88q-26 79 -26 210q0 302 106 302q53 0 81 -89q25 -80 25 -212zM549 358q0 172 -61 267q-63 99 -184 99q-117 0 -180.5 -97t-63.5 -269q0 -179 70 -276q66 -92 180 -92q102 0 170 108q68 106 69 260z" />
    <glyph glyph-name="one" unicode="1" horiz-adv-x="444" 
d="M322 726q-37 -20 -76 -34q-97 -36 -191 -40v-62l129 21v-611h138v726z" />
    <glyph glyph-name="two" unicode="2" horiz-adv-x="551" 
d="M228 70h98q121 0 171 33v-103h-467q63 137 207 355q113 170 117 221q8 91 -65 91q-9 0 -19 -2q-26 -5 -53 -19q-62 -32 -108 -99v111q86 61 194 66q200 0 196 -151q-1 -45 -47 -131q-26 -47 -107 -176q-79 -125 -117 -196z" />
    <glyph glyph-name="three" unicode="3" horiz-adv-x="509" 
d="M264 514q96 -31 148 -104q47 -67 47 -152q0 -99 -61 -174q-64 -80 -167 -92q-14 -2 -30 -2q-47 0 -96 15q-33 10 -45 17v115q17 -25 52 -49q41 -26 83 -30q67 -8 111 37q42 41 42 104q0 75 -60 130q-69 65 -197 77q27 39 170 238h-44q-117 0 -146 -16v86h343
q-50 -63 -150 -200z" />
    <glyph glyph-name="four" unicode="4" horiz-adv-x="588" 
d="M449 260v184h-123v-184l-46 -1l-83 2q72 168 220 453h-76h-78q-16 -33 -39 -85q-38 -74 -72 -144q-82 -170 -132 -295l306 -1v-189h123v189h15q55 0 75 -7v78h-90z" />
    <glyph glyph-name="five" unicode="5" horiz-adv-x="516" 
d="M81 714h319v-86q-24 16 -146 16h-100v-109q152 -16 234 -98q70 -72 70 -176q0 -99 -62 -177q-65 -81 -164 -92q-14 -2 -29 -2q-48 0 -97 15q-34 10 -46 17v115q17 -26 51 -49q41 -27 82 -31q66 -7 110 36q40 41 40 105q0 76 -61 133q-72 66 -203 75q0 42 2 308z" />
    <glyph glyph-name="six" unicode="6" horiz-adv-x="572" 
d="M323 514q-23 -2 -42 -11q-48 -21 -75 -74q0 91 37 160q40 77 105 77q53 0 107 -59v89q-51 28 -106 28q-121 0 -201 -106q-78 -101 -87 -254q-1 -24 -1 -46q0 -184 91 -269q64 -59 150 -59q98 0 161.5 71t63.5 188t-56.5 191t-146.5 74zM304 56q-44 0 -76 54.5t-32 135.5
q0 80 32 137t76 57q43 0 74.5 -57t31.5 -137q0 -81 -30.5 -135.5t-75.5 -54.5z" />
    <glyph glyph-name="seven" unicode="7" horiz-adv-x="511" 
d="M226 0h-146q38 136 76 250q91 273 161 394h-126q-103 0 -129 -15l-2 85h432q-147 -247 -266 -714z" />
    <glyph glyph-name="eight" unicode="8" horiz-adv-x="576" 
d="M369 444q91 65 91 135q0 65 -45 103q-31 26 -83 36q-22 2 -44 5q-88 0 -141 -50q-50 -47 -50 -117q0 -92 84 -161q-121 -98 -121 -206q0 -97 72 -152q63 -47 151 -47q99 0 171.5 63.5t72.5 161.5q0 143 -158 229zM293 659q44 0 70.5 -21t26.5 -55q0 -53 -86 -105
q-103 48 -103 104q0 37 25 57t67 20zM274 67q-55 0 -92 38t-37 95q0 93 92 157q96 -52 111 -63q59 -45 59 -106q0 -48 -38.5 -84.5t-94.5 -36.5z" />
    <glyph glyph-name="nine" unicode="9" horiz-adv-x="562" 
d="M286 724q-98 0 -161 -71q-65 -73 -65 -191q0 -120 56.5 -191.5t148.5 -71.5q46 0 83 31q21 19 32 40q-5 -86 -41 -147q-39 -67 -100 -67q-67 0 -123 73v-100q14 -11 45 -22q41 -17 76 -17q124 0 206.5 105.5t82.5 255.5q0 213 -89 308q-61 65 -151 65zM283 274
q-44 0 -75 58t-31 140q0 81 31 137.5t75 56.5q45 0 76.5 -56.5t31.5 -137.5q0 -82 -31.5 -140t-76.5 -58z" />
    <glyph glyph-name="colon" unicode=":" horiz-adv-x="288" 
d="M144 367q27 0 46 18.5t19 44.5t-19 44.5t-46 18.5q-26 0 -45 -18.5t-19 -44.5t19 -44.5t45 -18.5zM144 1q27 0 46 18.5t19 44.5t-19 44t-46 18q-26 0 -45 -18t-19 -44t19 -44.5t45 -18.5z" />
    <glyph glyph-name="semicolon" unicode=";" horiz-adv-x="289" 
d="M145 371q28 0 47.5 18.5t19.5 44.5q0 27 -19.5 46t-47.5 19q-26 0 -45.5 -18.5t-19.5 -46.5q0 -26 19.5 -44.5t45.5 -18.5zM96 -141q52 33 78 73q19 30 19 53q0 16 -17 16l-11 -2q-5 -2 -17 -2q-26 0 -46.5 16.5t-20.5 45.5q0 28 19.5 46.5t42.5 18.5q33 0 58 -20
q38 -29 38 -94q0 -55 -53 -114q-44 -47 -79 -59z" />
    <glyph glyph-name="less" unicode="&#x3c;" horiz-adv-x="518" 
d="M42 291l436 -242v80l-289 159l289 158v80z" />
    <glyph glyph-name="equal" unicode="=" horiz-adv-x="492" 
d="M44 425v-63h409v63h-409zM44 262v-64l409 1v63h-409z" />
    <glyph glyph-name="greater" unicode="&#x3e;" horiz-adv-x="494" 
d="M479 286l-437 239v-80l290 -157l-288 -160v-79z" />
    <glyph glyph-name="question" unicode="?" horiz-adv-x="526" 
d="M243 0q28 0 48 19t20 46t-20 46t-48 19t-47.5 -19t-19.5 -46t19.5 -46t47.5 -19zM213 172q-10 85 -7 128q11 90 72 148q78 72 70 141q-4 45 -43 71t-88 19q-31 -7 -55 -20q-58 -29 -92 -90v91q62 69 167 87q89 12 156.5 -39.5t77.5 -133.5q13 -118 -106 -222
q-103 -92 -93 -180h-59z" />
    <glyph glyph-name="at" unicode="@" horiz-adv-x="913" 
d="M527 720q-182 0 -320 -135.5t-165 -332.5q-6 -40 -6 -79q0 -170 96 -277q98 -111 265 -111q152 0 285 113v55q-155 -124 -276 -124q-138 0 -218 99q-76 93 -76 245q0 39 6 79q23 176 140 300.5t260 124.5q127 0 209.5 -100t82.5 -250q0 -30 -3 -62q-12 -90 -55.5 -152.5
t-93.5 -62.5q-44 0 -44 52q0 19 6 45l79 325h-90l-10 -40q-25 58 -102 58q-115 0 -194 -103q-76 -96 -76 -219q0 -168 140 -168q57 0 105 31q42 27 53 60q20 -91 121 -91q67 0 122 47q80 67 104 217q6 39 6 76q0 160 -100 270t-251 110zM402 60q-55 0 -55 105
q0 96 44.5 182.5t95.5 86.5q53 0 53 -72q0 -110 -44.5 -206t-93.5 -96z" />
    <glyph glyph-name="A" unicode="A" horiz-adv-x="625" 
d="M344 714h-111q-8 -51 -23 -102l-210 -612h96l92 267h187l97 -267h145zM210 332l68 198l73 -198h-141z" />
    <glyph glyph-name="B" unicode="B" horiz-adv-x="626" 
d="M437 406q49 12 75 60q24 40 24 88q-5 48 -28 81q-55 80 -193 80h-235v-715h279q135 0 188 114q23 46 27 112q0 59 -33 106q-25 34 -63 58q-32 18 -41 16zM325 658q44 -1 68 -35q22 -30 22 -75q0 -41 -20 -72.5t-55 -31.5l-121 -1v216zM311 59h-92v332h83q84 0 121 -64
q25 -43 25 -103q0 -89 -52 -133q-36 -32 -85 -32z" />
    <glyph glyph-name="C" unicode="C" horiz-adv-x="606" 
d="M395 724q82 0 134 -17q35 -12 37 -19l1 -112q-33 92 -152 92q-86 0 -145 -90q-64 -94 -64 -246q0 -137 81 -213q64 -60 148 -60q69 0 130 80v-115q1 0 -18 -8q-23 -11 -53 -16q-44 -10 -97 -10q-151 0 -245 89q-99 95 -99 261q0 157 91 267q97 117 251 117z" />
    <glyph glyph-name="D" unicode="D" horiz-adv-x="687" 
d="M323 714h-241v-714h241q121 0 212 105t91 250q-6 106 -38 180q-75 179 -265 179zM294 60q-5 0 -74 -1v600h56q99 0 155 -91q52 -84 52 -212q0 -136 -52 -215t-137 -81z" />
    <glyph glyph-name="E" unicode="E" horiz-adv-x="534" 
d="M410 71h-199l1 319l92 1q27 -1 48 -3q53 -6 74 -19q-19 87 -137 87h-77v29q0 176 0 160h85q84 -1 117 -5q58 -9 104 -40q-7 65 -76 94q-46 20 -103 20h-265v-714h341q55 0 87 40q27 34 27 78q-28 -47 -119 -47z" />
    <glyph glyph-name="F" unicode="F" horiz-adv-x="482" 
d="M213 391l94 1q26 -1 48 -4q52 -5 74 -19q-25 88 -137 88h-79v188h83q77 0 115 -5q64 -10 106 -39q-9 67 -79 95q-43 18 -101 18h-263v-714h140z" />
    <glyph glyph-name="G" unicode="G" horiz-adv-x="700" 
d="M621 56v351h-151q24 -50 25 -167v-159q-21 -20 -59 -22q-76 0 -146 64q-89 80 -89 217q0 152 63 246q59 88 145 88q118 0 157 -93l1 107q-56 36 -169 36q-155 0 -252 -117q-92 -110 -92 -267q0 -166 99 -261q94 -89 245 -89q44 1 83 9q92 16 140 57z" />
    <glyph glyph-name="H" unicode="H" horiz-adv-x="665" 
d="M585 714h-138v-256h-230v256h-138l1 -714h138v390h229v-390h138v714z" />
    <glyph glyph-name="I" unicode="I" horiz-adv-x="354" 
d="M246 713h-138v-713h138v713z" />
    <glyph glyph-name="J" unicode="J" horiz-adv-x="499" 
d="M424 192v522h-137v-524q0 -66 -23 -96q-25 -32 -83 -32q-54 0 -95 29q-29 19 -49 52q-18 29 -16 29v-137q51 -45 186 -45q96 0 156 53t61 149z" />
    <glyph glyph-name="K" unicode="K" horiz-adv-x="659" 
d="M458 313q-49 81 -131 98q72 94 236 303h-119q-43 -52 -96 -119q-42 -52 -77 -124q-42 -85 -53 -158l-1 401h-138l1 -714h138v137q0 110 66 214q26 -22 58 -77l160 -274h147z" />
    <glyph glyph-name="L" unicode="L" horiz-adv-x="533" 
d="M403 70h-181v644h-139v-714h329q40 0 75.5 34.5t35.5 82.5q-14 -21 -49 -34t-71 -13z" />
    <glyph glyph-name="M" unicode="M" horiz-adv-x="810" 
d="M722 714h-187l-109 -365q-10 -33 -25 -129l-140 494h-185q9 -71 10 -120v-594h92v562l165 -562h109q-4 12 -4 32q0 30 6 72q4 27 130 458v-562h138v714z" />
    <glyph glyph-name="N" unicode="N" horiz-adv-x="650" 
d="M559 0v714h-85l-1 -85v-366l-217 451h-179q10 -48 10 -121v-592h86l1 559l278 -559z" />
    <glyph glyph-name="O" unicode="O" horiz-adv-x="738" 
d="M354 724q-134 0 -230 -109t-96 -258q0 -161 91.5 -264t234.5 -103q148 0 240 107q89 104 89 260q0 151 -97 259t-232 108zM356 55q-82 0 -134 88q-49 86 -49 214t50.5 214.5t132.5 86.5q81 0 131.5 -86.5t50.5 -214.5t-49 -214q-52 -88 -133 -88z" />
    <glyph glyph-name="P" unicode="P" horiz-adv-x="596" 
d="M319 714h-233v-714h139l1 288h100q96 0 160 52q74 59 74 166q0 104 -69 158q-63 50 -172 50zM300 347h-74l1 310h78q55 0 89 -49q31 -44 31 -99q0 -61 -30 -107q-35 -55 -95 -55z" />
    <glyph glyph-name="Q" unicode="Q" horiz-adv-x="775" 
d="M745 0q-53 43 -96 130q64 98 64 227q0 151 -97 259t-232 108q-134 0 -230 -109t-96 -258q0 -161 91.5 -264t234.5 -103q104 0 185 57q18 -25 40 -47h136zM498 115q-45 -59 -113 -59q-81 0 -133 89q-49 84 -49 213q0 128 49 213q52 89 133 89q82 0 133 -89q50 -85 50 -213
q0 -83 -17 -133q-51 33 -117 39q30 -24 51 -54q23 -35 23 -63q0 -18 -10 -32z" />
    <glyph glyph-name="R" unicode="R" horiz-adv-x="635" 
d="M481 237q-53 93 -112 119q61 4 112 47q60 53 60 133q0 178 -253 178h-201l-1 -714h139v343h10q58 0 136 -143l109 -200h138zM291 399h-66v261h48q128 0 128 -126q0 -65 -37 -102q-30 -33 -73 -33z" />
    <glyph glyph-name="S" unicode="S" horiz-adv-x="566" 
d="M375 171q0 -46 -47 -77.5t-122 -31.5q-38 0 -78 18q-52 23 -75 67v-106q83 -51 191 -51v0q108 0 187 61q85 66 85 166q0 81 -76 148q-29 25 -126 82q-123 72 -123 133q0 34 28 58q34 29 101 29q44 0 83 -26q27 -18 50 -47q18 -23 17 -25v97q-68 58 -191 58
q-100 0 -165 -50t-63 -124q2 -67 39 -119q42 -55 134 -105q151 -82 151 -155z" />
    <glyph glyph-name="T" unicode="T" horiz-adv-x="485" 
d="M319 567v-567h-139v567q0 44 -7 73q-164 0 -193 74h365q153 -1 165 -92q-42 19 -124 19l-71 1q4 -35 4 -75z" />
    <glyph glyph-name="U" unicode="U" horiz-adv-x="694" 
d="M220 223q0 -78 32 -116t106 -38q67 0 105 45q34 41 34 104v496h116l-1 -491q0 -92 -52 -152q-67 -81 -213 -81q-126 0 -194 60q-72 61 -72 174v490h139v-491z" />
    <glyph glyph-name="V" unicode="V" horiz-adv-x="604" 
d="M11 714h143l153 -594l130 432q28 92 30 162h116q4 -11 4 -28q0 -46 -24 -124q-23 -73 -110 -332q-37 -111 -42 -131q-19 -63 -19 -99h-185z" />
    <glyph glyph-name="W" unicode="W" horiz-adv-x="907" 
d="M378 714h127l122 -620l138 458q28 96 27 162h101q4 -11 4 -29q0 -45 -24 -123l-112 -348q-31 -98 -37 -121q-14 -53 -14 -93h-187l-60 318l-61 -225q-14 -53 -10 -93h-190l-185 714h142l153 -615l67 245q27 113 26 157q0 81 -27 213z" />
    <glyph glyph-name="X" unicode="X" horiz-adv-x="601" 
d="M586 0l-229 401l141 241q28 51 26 72h-91q0 -19 -17 -50l-104 -179l-130 229h-140l197 -350l-222 -364h107l163 279l155 -279h144z" />
    <glyph glyph-name="Y" unicode="Y" horiz-adv-x="645" 
d="M493 714q2 -17 -21 -93q-3 -7 -117 -351q-12 -14 -31 -14q-48 0 -84 114l-105 344h-124l115 -361q52 -160 159 -160q27 0 46 10l-67 -203h132l243 714h-146z" />
    <glyph glyph-name="Z" unicode="Z" horiz-adv-x="601" 
d="M446 71l-222 1l349 642h-343q-58 0 -109 -33.5t-68 -77.5q37 29 86 37q21 3 80 3h160l-351 -643h385q55 0 95 21q56 28 56 88q-28 -35 -118 -38z" />
    <glyph glyph-name="bracketleft" unicode="[" horiz-adv-x="453" 
d="M100 -212h106q125 0 151 92q-43 -24 -119 -22h-33v840h33q76 1 119 -22q-26 91 -151 91h-106v-979z" />
    <glyph glyph-name="backslash" unicode="\" horiz-adv-x="438" 
d="M370 -212h-108l-251 983h108z" />
    <glyph glyph-name="bracketright" unicode="]" horiz-adv-x="415" 
d="M315 -212h-106q-125 0 -151 92q42 -23 118 -22h33v844h-33q-75 1 -118 -22q26 91 151 91h106v-983z" />
    <glyph glyph-name="asciicircum" unicode="^" horiz-adv-x="540" 
d="M164 366l107 190q9 -17 106 -190h93l-200 360l-200 -360h94z" />
    <glyph glyph-name="underscore" unicode="_" horiz-adv-x="396" 
d="M0 -2v-104h396v104h-396z" />
    <glyph glyph-name="grave" unicode="`" horiz-adv-x="289" 
d="M35 708v16h147q21 -9 44 -36q29 -34 52 -91h-27q-40 43 -100 72q-54 27 -116 39z" />
    <glyph glyph-name="a" unicode="a" horiz-adv-x="482" 
d="M258 532q-75 0 -130 -47v-81q12 27 35 44q29 24 64 24q42 0 63 -26q15 -17 15 -39q0 -31 -14.5 -49t-49.5 -34q-100 -45 -128 -66q-73 -53 -73 -131q0 -18 4 -38q19 -95 125 -95q43 0 80 23q32 18 46 44v-61h121v397q1 56 -38 94q-45 41 -120 41zM221 50q-26 0 -44 17
q-22 20 -26 56q-4 54 26 94q20 26 64.5 54.5t51.5 36.5v-219q2 -5 -17 -20q-22 -19 -55 -19z" />
    <glyph glyph-name="b" unicode="b" horiz-adv-x="558" 
d="M312 532h-1h1q-23 -1 -42 -6q-45 -13 -71 -45v233h-124v-580q0 -61 56 -100.5t147 -39.5q96 0 160 69q69 75 69 199q0 109 -46 184q-53 86 -149 86zM284 37q-50 0 -85 79v278q25 52 82 52q88 0 88 -177q0 -232 -85 -232z" />
    <glyph glyph-name="c" unicode="c" horiz-adv-x="464" 
d="M283 532q80 2 138 -27v-81q-27 63 -93 63q-10 0 -19 -1q-55 -2 -92 -71q-34 -65 -34 -147q0 -62 17 -116q23 -68 67 -89q33 -14 59 -14q54 0 95 49v-83q-47 -21 -127 -21q-111 0 -180.5 72t-69.5 184q0 115 64 194q67 84 175 88z" />
    <glyph glyph-name="d" unicode="d" horiz-adv-x="532" 
d="M474 714h-125v-224q-8 14 -35 28t-54 14q-92 1 -155 -77q-62 -81 -62 -208q0 -99 62 -175q66 -78 161 -78q141 0 208 105v615zM302 50q-124 0 -124 190q0 107 11 160q19 85 71 85q60 0 89 -67v-346q-24 -22 -47 -22z" />
    <glyph glyph-name="e" unicode="e" horiz-adv-x="484" 
d="M264 66q-60 27 -71 111q23 30 84 57q66 31 108 74q45 47 45 98q0 53 -46 90t-116 36q-106 -1 -168 -87q-57 -79 -57 -194q0 -111 68.5 -184t171.5 -73q30 1 55 6q61 10 91 36l1 80q-43 -63 -107 -63q-30 0 -59 13zM184 235q-1 21 -1 46q0 199 77 204q58 5 58 -62
q0 -44 -21 -82t-58 -64q-49 -35 -55 -42z" />
    <glyph glyph-name="f" unicode="f" horiz-adv-x="378" 
d="M375 611v75q-33 35 -124 38q-78 0 -118 -45q-30 -35 -30 -80v-86l-91 1q24 -60 91 -60v-60q0 -407 0 -394h124v454h54q33 0 67 -7q28 -6 28 -8q-14 77 -97 75l-51 -1v101q0 22 18 36t44 14q55 0 85 -53z" />
    <glyph glyph-name="g" unicode="g" horiz-adv-x="535" 
d="M365 526v-43q-30 45 -107 49q-95 0 -154 -77.5t-59 -207.5q0 -108 62.5 -180.5t157.5 -72.5q60 0 95 45v-18v-18q0 -167 -138 -167q-80 0 -135 67v-86q55 -36 163 -40q141 0 193 76q44 62 44 207v466h-122zM301 51q-63 0 -94 59q-27 53 -27 138q0 105 12 157q19 80 72 80
q68 0 91 -66v-340q-16 -28 -54 -28z" />
    <glyph glyph-name="h" unicode="h" horiz-adv-x="544" 
d="M475 398q0 134 -144 134q-53 0 -92 -27q-28 -21 -41 -50v259h-125v-714h125v398q28 50 77 50q30 0 52 -22.5t22 -51.5v-374h126v398z" />
    <glyph glyph-name="i" unicode="i" horiz-adv-x="287" 
d="M206 526h-124v-526h124v526zM144 600q26 0 44.5 18.5t18.5 43.5q0 26 -18.5 44t-44.5 18q-27 0 -45.5 -18t-18.5 -44q0 -25 18.5 -43.5t45.5 -18.5z" />
    <glyph glyph-name="j" unicode="j" horiz-adv-x="312" 
d="M237 526h-123l1 -625q0 -25 -20.5 -41.5t-50.5 -16.5q-57 0 -94 57v-83q57 -39 126 -39q74 0 118 41t44 113zM175 599q27 0 45.5 18.5t18.5 43.5q0 27 -18.5 45t-45.5 18q-26 0 -45 -18t-19 -45q0 -25 19 -43.5t45 -18.5z" />
    <glyph glyph-name="k" unicode="k" horiz-adv-x="524" 
d="M529 0l-128 210q-16 26 -34 45q-41 47 -76 52l222 219h-113q-24 -23 -96 -95q-97 -97 -112 -165q0 7 -1 69v379h-124v-714h124v132q-1 75 46 121q18 -19 45 -66q12 -24 103 -187h144z" />
    <glyph glyph-name="l" unicode="l" horiz-adv-x="262" 
d="M74 714v-714h124v714h-124z" />
    <glyph glyph-name="m" unicode="m" horiz-adv-x="826" 
d="M758 387q0 75 -47 114q-40 31 -99 31q-95 0 -135 -89q-25 89 -136 89q-31 -2 -56 -12q-61 -23 -86 -82l-2 88h-121v-526h125l2 374q2 19 20 42q24 31 61 31q26 0 48.5 -22.5t22.5 -52.5l-1 -372h126v375q23 71 76 71q30 0 53 -26.5t23 -56.5v-47l1 -316h126z" />
    <glyph glyph-name="n" unicode="n" horiz-adv-x="546" 
d="M340 532q-30 -2 -55 -12q-61 -24 -86 -84v90h-126v-526h126v374q4 17 21 37q24 27 63 27q25 0 47 -23t23 -51v-364h126v384q0 77 -48 117q-38 31 -91 31z" />
    <glyph glyph-name="o" unicode="o" horiz-adv-x="540" 
d="M267 532q-98 0 -167.5 -79t-69.5 -190q0 -129 69 -202q65 -67 168 -67q98 0 167.5 79t69.5 190q0 124 -69 198q-66 71 -168 71zM265 54q-43 0 -74.5 63.5t-31.5 151.5q0 89 31.5 152.5t74.5 63.5q42 0 73 -63.5t31 -152.5q0 -88 -31 -151.5t-73 -63.5z" />
    <glyph glyph-name="p" unicode="p" horiz-adv-x="549" 
d="M304 532q-31 0 -59.5 -14.5t-48.5 -41.5v50h-124v-741h124v241q41 -32 88 -32q93 3 154 76q64 78 64 204q0 103 -52 177q-57 81 -146 81zM248 470q61 0 92 -60q27 -51 27 -138q0 -105 -12 -157q-18 -80 -70 -80q-67 0 -89 67v340q15 28 52 28z" />
    <glyph glyph-name="q" unicode="q" horiz-adv-x="561" 
d="M357 526v-33q-35 39 -97 39q-96 0 -153.5 -77.5t-57.5 -208.5q0 -108 57 -179q60 -74 165 -73q23 -1 52 10t35 20v-239h124v741h-125zM311 48q-76 0 -109 78q-21 49 -21 118q0 241 88 241q58 0 89 -72v-18v0v-325q-24 -22 -47 -22z" />
    <glyph glyph-name="r" unicode="r" horiz-adv-x="395" 
d="M384 506q-22 26 -71 26q-21 -2 -41 -13q-45 -26 -68 -91v98h-124l1 -526h123v351q1 29 30 60q33 33 73 33q41 0 77 -39v101z" />
    <glyph glyph-name="s" unicode="s" horiz-adv-x="386" 
d="M237 139q0 -41 -26 -63q-26 -26 -77 -25q-32 0 -62 22q-25 18 -38 40v-82q50 -37 129 -37q74 0 129 47q58 52 58 125q0 53 -27 92q-25 35 -79 69q-60 38 -63 40q-35 28 -35 61q0 18 12 31q16 17 45 17q9 0 20 -2q60 -10 97 -61v77q-13 13 -48 26q-41 16 -83 16
q-62 0 -109 -37.5t-47 -90.5q0 -101 105 -162q54 -31 70 -46q29 -26 29 -57z" />
    <glyph glyph-name="t" unicode="t" horiz-adv-x="349" 
d="M262 465q42 0 78 -15l1 76h-116v121q-25 -44 -87 -98q-68 -59 -129 -84l93 -1v-464h123v464h23q4 1 14 1z" />
    <glyph glyph-name="u" unicode="u" horiz-adv-x="558" 
d="M223 -6q32 3 56 11q59 20 78 72v-77h123v525h-123v-384q-5 -17 -17 -30q-24 -30 -67 -31q-70 0 -72 82v364h-123l-1 -385q0 -79 48 -116q38 -31 98 -31z" />
    <glyph glyph-name="v" unicode="v" horiz-adv-x="531" 
d="M349 0q0 38 31 126l139 400h-110q-2 -30 -18 -79q-19 -59 -45 -135q-51 -147 -58 -223l-145 437h-126l174 -526h158z" />
    <glyph glyph-name="w" unicode="w" horiz-adv-x="770" 
d="M750 526h-106q-1 -23 -11 -60l-43 -153q-37 -151 -40 -219l-101 432h-116q8 -54 8 -80q-2 -34 -17 -94q-8 -28 -29 -99q-31 -116 -31 -149l-117 422h-128l145 -526h142q-2 23 4 51q3 16 22 79q16 55 51 166l72 -296h149q0 41 27 130z" />
    <glyph glyph-name="x" unicode="x" horiz-adv-x="535" 
d="M513 0l-173 279l173 247h-130q1 -16 -41 -78q-17 -25 -56 -78l-97 155h-147l165 -270l-134 -191q-14 -19 -43 -64h127q-2 12 32 62q12 20 72 105l102 -167h150z" />
    <glyph glyph-name="y" unicode="y" horiz-adv-x="551" 
d="M284 16l-61 -231h122l181 741h-130q2 -17 -14 -95q-25 -100 -86 -357v0q-6 -21 -29 -22q-35 0 -52 113q-2 9 -12 78l-43 283h-130l64 -368q29 -162 134 -164q35 1 56 22z" />
    <glyph glyph-name="z" unicode="z" horiz-adv-x="548" 
d="M402 59q-43 0 -189 1l313 466h-323q-31 -2 -55 -12q-56 -23 -63 -81q26 33 125 35h127l-317 -468h382q29 2 50 12q52 25 55 86q-22 -36 -105 -39z" />
    <glyph glyph-name="braceleft" unicode="{" horiz-adv-x="321" 
d="M166 626v-233q0 -75 -73 -114q73 -29 73 -98v-253q0 -98 93 -140h-116q-81 47 -81 123v270q0 65 -55 95q55 37 55 111v229q0 108 94 151h104q-48 -23 -73 -69q-21 -37 -21 -72z" />
    <glyph glyph-name="bar" unicode="|" horiz-adv-x="293" 
d="M93 -212h108v983h-108v-983z" />
    <glyph glyph-name="braceright" unicode="}" horiz-adv-x="267" 
d="M8 767h104q93 -43 93 -151v-229q0 -74 56 -111q-56 -30 -56 -95v-270q0 -76 -80 -123h-116q92 42 92 140v253q0 69 73 98q-73 39 -73 114v233q0 35 -20 72q-26 46 -73 69z" />
    <glyph glyph-name="asciitilde" unicode="~" horiz-adv-x="508" 
d="M44 255q50 45 113 45q31 0 62 -12q33 -11 38 -13q25 -7 46 -7q39 0 77 24l15 -43q-33 -32 -84 -43t-94 6q-35 14 -50 18q-25 7 -48 3q-26 -3 -61 -19z" />
    <glyph glyph-name="Adieresis" unicode="&#xc4;" horiz-adv-x="626" 
d="M378 755q-25 0 -42.5 16.5t-17.5 40.5q0 25 17.5 42t42.5 17q24 0 41 -17t17 -42q0 -24 -17 -40.5t-41 -16.5zM196 755q-25 0 -42.5 16.5t-17.5 40.5q0 25 17.5 42t42.5 17t42.5 -17t17.5 -42q0 -24 -17.5 -40.5t-42.5 -16.5zM344 714h-111q-8 -51 -23 -102l-210 -612h96
l92 267h187l97 -267h145zM210 332l68 198l73 -198h-141z" />
    <glyph glyph-name="Ccedilla" unicode="&#xc7;" horiz-adv-x="600" 
d="M433 62q-83 0 -147 61q-80 74 -80 212q0 150 63 245q59 89 144 89q118 0 151 -91v112q-47 35 -171 35q-153 0 -250 -116q-90 -109 -90 -267q0 -159 91 -251q85 -88 225 -96l-37 -56l16 -18q26 8 36 8q44 0 44 -35q0 -39 -51 -39q-26 0 -61 14l-14 -37q46 -21 87 -21
q51 0 80 24t29 61q0 68 -78 68q-7 0 -28 -3l17 33q68 2 116 18q44 14 39 15v115q-63 -80 -131 -80z" />
    <glyph glyph-name="Eacute" unicode="&#xc9;" horiz-adv-x="558" 
d="M180 762h-23q36 87 78 104h120v-14q-112 -21 -175 -90zM409 70h-199l1 321h92q26 -1 49 -3q52 -6 73 -19q-19 88 -137 88h-77v28q0 176 0 160h85q84 -1 116 -5q59 -9 105 -40q-7 65 -75 94q-47 20 -104 20h-263l-1 -714h339q57 0 88 40q26 34 26 78q-27 -48 -118 -48z
" />
    <glyph glyph-name="Ntilde" unicode="&#xd1;" horiz-adv-x="650" 
d="M179 827q38 38 91 38q19 0 55 -11t55 -11q33 0 64 20l9 -17q-41 -48 -97 -48q-18 0 -36 6q-66 21 -76 21q-26 0 -55 -14zM559 0v714h-85l-1 -85v-366l-217 451h-179q10 -48 10 -121v-592h86l1 559l278 -559z" />
    <glyph glyph-name="Odieresis" unicode="&#xd6;" horiz-adv-x="768" 
d="M475 753q-24 0 -41.5 17.5t-17.5 41.5t17.5 41t41.5 17q26 0 43.5 -17t17.5 -41t-17.5 -41.5t-43.5 -17.5zM294 753q-26 0 -43 17.5t-17 41.5t17 41t43 17q24 0 41.5 -17t17.5 -41t-17.5 -41.5t-41.5 -17.5zM384 724q-134 0 -230 -109t-96 -258q0 -161 91.5 -264
t234.5 -103q148 0 240 107q89 104 89 260q0 151 -97 259t-232 108zM386 55q-82 0 -134 88q-49 86 -49 214t50.5 214.5t132.5 86.5q81 0 131.5 -86.5t50.5 -214.5t-49 -214q-52 -88 -133 -88z" />
    <glyph glyph-name="Udieresis" unicode="&#xdc;" horiz-adv-x="693" 
d="M430 756q-24 0 -41 17t-17 42q0 24 17 41t41 17q25 0 43 -17t18 -41q0 -25 -18 -42t-43 -17zM249 756q-25 0 -42.5 17t-17.5 42q0 24 17.5 41t42.5 17q24 0 42 -17t18 -41q0 -25 -18 -42t-42 -17zM219 223q0 -78 32 -116t106 -38q67 0 105 45q34 41 34 104v496h116
l-1 -491q0 -92 -52 -152q-67 -81 -213 -81q-126 0 -194 60q-72 61 -72 174v490h139v-491z" />
    <glyph glyph-name="aacute" unicode="&#xe1;" horiz-adv-x="475" 
d="M166 574h-23q36 88 80 107h124v-14q-117 -22 -181 -93zM251 532q-75 0 -130 -47v-81q12 27 35 44q29 24 64 24q42 0 63 -26q15 -17 15 -39q0 -31 -14.5 -49t-49.5 -34q-100 -45 -128 -66q-73 -53 -73 -131q0 -18 4 -38q19 -95 125 -95q43 0 80 23q32 18 46 44v-61h121
v397q1 56 -38 94q-45 41 -120 41zM214 50q-26 0 -44 17q-22 20 -26 56q-4 54 26 94q20 26 64.5 54.5t51.5 36.5v-219q2 -5 -17 -20q-22 -19 -55 -19z" />
    <glyph glyph-name="agrave" unicode="&#xe0;" horiz-adv-x="474" 
d="M166 667v14h124q44 -19 80 -107h-23q-63 71 -181 93zM251 532q-75 0 -130 -47v-81q12 27 35 44q29 24 64 24q42 0 63 -26q15 -17 15 -39q0 -31 -14.5 -49t-49.5 -34q-100 -45 -128 -66q-73 -53 -73 -131q0 -18 4 -38q19 -95 125 -95q43 0 80 23q32 18 46 44v-61h121v397
q1 56 -38 94q-45 41 -120 41zM214 50q-26 0 -44 17q-22 20 -26 56q-4 54 26 94q20 26 64.5 54.5t51.5 36.5v-219q2 -5 -17 -20q-22 -19 -55 -19z" />
    <glyph glyph-name="acircumflex" unicode="&#xe2;" horiz-adv-x="478" 
d="M248 628q-37 -10 -86 -59h-21q39 83 107 119v0q20 -10 37 -25q43 -37 70 -94h-21q-15 15 -30 27q-33 28 -56 32v0zM251 532q-75 0 -130 -47v-81q12 27 35 44q29 24 64 24q42 0 63 -26q15 -17 15 -39q0 -31 -14.5 -49t-49.5 -34q-100 -45 -128 -66q-73 -53 -73 -131
q0 -18 4 -38q19 -95 125 -95q43 0 80 23q32 18 46 44v-61h121v397q1 56 -38 94q-45 41 -120 41zM214 50q-26 0 -44 17q-22 20 -26 56q-4 54 26 94q20 26 64.5 54.5t51.5 36.5v-219q2 -5 -17 -20q-22 -19 -55 -19z" />
    <glyph glyph-name="adieresis" unicode="&#xe4;" horiz-adv-x="477" 
d="M351 564q-25 0 -43 17t-18 42q0 26 17.5 43.5t43.5 17.5q25 0 43.5 -17.5t18.5 -43.5q0 -25 -18.5 -42t-43.5 -17zM163 564q-25 0 -43 17t-18 42q0 26 17.5 43.5t43.5 17.5q25 0 43.5 -17.5t18.5 -43.5q0 -25 -18.5 -42t-43.5 -17zM251 532q-75 0 -130 -47v-81
q12 27 35 44q29 24 64 24q42 0 63 -26q15 -17 15 -39q0 -31 -14.5 -49t-49.5 -34q-100 -45 -128 -66q-73 -53 -73 -131q0 -18 4 -38q19 -95 125 -95q43 0 80 23q32 18 46 44v-61h121v397q1 56 -38 94q-45 41 -120 41zM214 50q-26 0 -44 17q-22 20 -26 56q-4 54 26 94
q20 26 64.5 54.5t51.5 36.5v-219q2 -5 -17 -20q-22 -19 -55 -19z" />
    <glyph glyph-name="atilde" unicode="&#xe3;" horiz-adv-x="477" 
d="M117 638q39 40 93 40q21 0 57.5 -11.5t57.5 -11.5q34 0 65 20l11 -18q-43 -49 -101 -49q-19 0 -38 7t-39.5 14t-38.5 7q-26 0 -56 -14zM251 532q-75 0 -130 -47v-81q12 27 35 44q29 24 64 24q42 0 63 -26q15 -17 15 -39q0 -31 -14.5 -49t-49.5 -34q-100 -45 -128 -66
q-73 -53 -73 -131q0 -18 4 -38q19 -95 125 -95q43 0 80 23q32 18 46 44v-61h121v397q1 56 -38 94q-45 41 -120 41zM214 50q-26 0 -44 17q-22 20 -26 56q-4 54 26 94q20 26 64.5 54.5t51.5 36.5v-219q2 -5 -17 -20q-22 -19 -55 -19z" />
    <glyph glyph-name="aring" unicode="&#xe5;" horiz-adv-x="476" 
d="M257 688q25 0 43 -17t18 -41q0 -25 -18 -42t-43 -17q-26 0 -44.5 17t-18.5 42q0 24 18 41t45 17zM255 586q32 0 32 44q0 18 -8.5 31t-23.5 13q-30 0 -30 -44t30 -44zM251 532q-75 0 -130 -47v-81q12 27 35 44q29 24 64 24q42 0 63 -26q15 -17 15 -39q0 -31 -14.5 -49
t-49.5 -34q-100 -45 -128 -66q-73 -53 -73 -131q0 -18 4 -38q19 -95 125 -95q43 0 80 23q32 18 46 44v-61h121v397q1 56 -38 94q-45 41 -120 41zM214 50q-26 0 -44 17q-22 20 -26 56q-4 54 26 94q20 26 64.5 54.5t51.5 36.5v-219q2 -5 -17 -20q-22 -19 -55 -19z" />
    <glyph glyph-name="ccedilla" unicode="&#xe7;" horiz-adv-x="459" 
d="M268 61q-73 33 -84 182q-6 88 29 161q41 80 97 81q29 2 58.5 -12t53.5 -50v82q-58 29 -138 27q-108 -4 -176 -89q-64 -79 -64 -194q0 -106 61.5 -176.5t161.5 -78.5l-39 -59l17 -18q26 8 37 8q17 0 31 -10t14 -27q0 -39 -53 -39q-26 0 -61 14l-16 -38q48 -21 91 -21
q50 0 80 24.5t30 62.5q0 28 -16 47q-22 24 -63 24q-8 0 -29 -4l18 35q72 1 112 19v85q-40 -50 -93 -50q-28 0 -59 14z" />
    <glyph glyph-name="eacute" unicode="&#xe9;" horiz-adv-x="486" 
d="M180 576h-24q37 89 81 107h125v-14q-118 -22 -182 -93zM265 66q-60 27 -71 111q23 30 84 57q66 31 108 74q45 47 45 98q0 53 -46 90t-116 36q-106 -1 -168 -87q-57 -79 -57 -194q0 -111 68.5 -184t171.5 -73q30 1 55 6q61 10 91 36l1 80q-43 -63 -107 -63q-30 0 -59 13z
M185 235q-1 21 -1 46q0 199 77 204q58 5 58 -62q0 -44 -21 -82t-58 -64q-49 -35 -55 -42z" />
    <glyph glyph-name="egrave" unicode="&#xe8;" horiz-adv-x="485" 
d="M177 669v14h123q44 -19 81 -107h-24q-64 71 -180 93zM265 66q-60 27 -71 111q23 30 84 57q66 31 108 74q45 47 45 98q0 53 -46 90t-116 36q-106 -1 -168 -87q-57 -79 -57 -194q0 -111 68.5 -184t171.5 -73q30 1 55 6q61 10 91 36l1 80q-43 -63 -107 -63q-30 0 -59 13z
M185 235q-1 21 -1 46q0 199 77 204q58 5 58 -62q0 -44 -21 -82t-58 -64q-49 -35 -55 -42z" />
    <glyph glyph-name="ecircumflex" unicode="&#xea;" horiz-adv-x="485" 
d="M251 628q-37 -10 -85 -60h-21q38 84 106 120v0q20 -10 38 -25q42 -37 70 -95h-21q-15 16 -29 28q-34 27 -58 32v0zM265 66q-60 27 -71 111q23 30 84 57q66 31 108 74q45 47 45 98q0 53 -46 90t-116 36q-106 -1 -168 -87q-57 -79 -57 -194q0 -111 68.5 -184t171.5 -73
q30 1 55 6q61 10 91 36l1 80q-43 -63 -107 -63q-30 0 -59 13zM185 235q-1 21 -1 46q0 199 77 204q58 5 58 -62q0 -44 -21 -82t-58 -64q-49 -35 -55 -42z" />
    <glyph glyph-name="edieresis" unicode="&#xeb;" horiz-adv-x="484" 
d="M350 561q-25 0 -43 17t-18 43q0 25 18 42.5t43 17.5q26 0 44 -17.5t18 -42.5q0 -26 -18 -43t-44 -17zM163 561q-26 0 -43.5 17t-17.5 43q0 25 17.5 42.5t43.5 17.5q25 0 43.5 -17.5t18.5 -42.5q0 -26 -18.5 -43t-43.5 -17zM265 66q-60 27 -71 111q23 30 84 57
q66 31 108 74q45 47 45 98q0 53 -46 90t-116 36q-106 -1 -168 -87q-57 -79 -57 -194q0 -111 68.5 -184t171.5 -73q30 1 55 6q61 10 91 36l1 80q-43 -63 -107 -63q-30 0 -59 13zM185 235q-1 21 -1 46q0 199 77 204q58 5 58 -62q0 -44 -21 -82t-58 -64q-49 -35 -55 -42z" />
    <glyph glyph-name="iacute" unicode="&#xed;" horiz-adv-x="286" 
d="M48 571h-24q36 88 80 107h122v-14q-116 -22 -178 -93zM189 526h-124v-526h124v526z" />
    <glyph glyph-name="igrave" unicode="&#xec;" horiz-adv-x="299" 
d="M31 664v14h123q44 -19 80 -107h-23q-64 71 -180 93zM203 526h-124v-526h124v526z" />
    <glyph glyph-name="icircumflex" unicode="&#xee;" horiz-adv-x="297" 
d="M192 526h-124v-526h124v526zM129 623q-37 -9 -85 -59h-21q39 84 106 119v0q20 -10 38 -25q42 -36 69 -94h-21q-15 16 -29 28q-34 27 -57 31v0z" />
    <glyph glyph-name="idieresis" unicode="&#xef;" horiz-adv-x="363" 
d="M264 558q-25 0 -43 17t-18 42t18 42.5t43 17.5t43 -17.5t18 -42.5t-18 -42t-43 -17zM79 558q-25 0 -43 17t-18 42t18 42.5t43 17.5t43 -17.5t18 -42.5t-18 -42t-43 -17zM234 526h-124v-526h124v526z" />
    <glyph glyph-name="ntilde" unicode="&#xf1;" horiz-adv-x="555" 
d="M133 638q39 40 93 40q20 0 57 -11.5t57 -11.5q34 0 65 20l11 -18q-43 -48 -101 -48q-19 0 -38 6.5t-39.5 14t-37.5 7.5q-27 0 -56 -16zM339 532q-30 -2 -55 -12q-61 -24 -86 -84v90h-126v-526h126v374q4 17 21 37q24 27 63 27q25 0 47 -23t23 -51v-364h126v384
q0 77 -48 117q-38 31 -91 31z" />
    <glyph glyph-name="oacute" unicode="&#xf3;" 
d="M177 576h-23q37 89 81 107h124v-15q-117 -21 -182 -92zM272 532q-98 0 -167.5 -79t-69.5 -190q0 -129 69 -202q65 -67 168 -67q98 0 167.5 79t69.5 190q0 124 -69 198q-66 71 -168 71zM270 54q-43 0 -74.5 63.5t-31.5 151.5q0 89 31.5 152.5t74.5 63.5q42 0 73 -63.5
t31 -152.5q0 -88 -31 -151.5t-73 -63.5z" />
    <glyph glyph-name="ograve" unicode="&#xf2;" 
d="M178 669v15h124q44 -19 82 -108h-24q-65 72 -182 93zM272 532q-98 0 -167.5 -79t-69.5 -190q0 -129 69 -202q65 -67 168 -67q98 0 167.5 79t69.5 190q0 124 -69 198q-66 71 -168 71zM270 54q-43 0 -74.5 63.5t-31.5 151.5q0 89 31.5 152.5t74.5 63.5q42 0 73 -63.5
t31 -152.5q0 -88 -31 -151.5t-73 -63.5z" />
    <glyph glyph-name="ocircumflex" unicode="&#xf4;" horiz-adv-x="544" 
d="M268 628q-36 -10 -85 -60h-21q39 84 107 120v0q19 -10 37 -25q43 -38 70 -95h-20q-16 16 -30 28q-34 27 -58 32v0zM272 532q-98 0 -167.5 -79t-69.5 -190q0 -129 69 -202q65 -67 168 -67q98 0 167.5 79t69.5 190q0 124 -69 198q-66 71 -168 71zM270 54q-43 0 -74.5 63.5
t-31.5 151.5q0 89 31.5 152.5t74.5 63.5q42 0 73 -63.5t31 -152.5q0 -88 -31 -151.5t-73 -63.5z" />
    <glyph glyph-name="odieresis" unicode="&#xf6;" 
d="M365 563q-26 0 -44 17.5t-18 42.5t18 43t44 18q25 0 43 -18t18 -43t-18 -42.5t-43 -17.5zM176 563q-26 0 -44 17.5t-18 42.5t18 43t44 18q25 0 43.5 -18t18.5 -43t-18.5 -42.5t-43.5 -17.5zM272 532q-98 0 -167.5 -79t-69.5 -190q0 -129 69 -202q65 -67 168 -67
q98 0 167.5 79t69.5 190q0 124 -69 198q-66 71 -168 71zM270 54q-43 0 -74.5 63.5t-31.5 151.5q0 89 31.5 152.5t74.5 63.5q42 0 73 -63.5t31 -152.5q0 -88 -31 -151.5t-73 -63.5z" />
    <glyph glyph-name="otilde" unicode="&#xf5;" 
d="M130 638q39 40 93 40q21 0 57.5 -11.5t57.5 -11.5q34 0 66 20l10 -18q-42 -49 -101 -49q-19 0 -38 6.5t-39.5 14t-38.5 7.5q-26 0 -56 -15zM272 532q-98 0 -167.5 -79t-69.5 -190q0 -129 69 -202q65 -67 168 -67q98 0 167.5 79t69.5 190q0 124 -69 198q-66 71 -168 71z
M270 54q-43 0 -74.5 63.5t-31.5 151.5q0 89 31.5 152.5t74.5 63.5q42 0 73 -63.5t31 -152.5q0 -88 -31 -151.5t-73 -63.5z" />
    <glyph glyph-name="uacute" unicode="&#xfa;" horiz-adv-x="563" 
d="M206 573h-24q37 89 80 107h124v-14q-116 -22 -180 -93zM224 -6q32 3 56 11q59 20 78 72v-77h123v525h-123v-384q-5 -17 -17 -30q-24 -30 -67 -31q-70 0 -72 82v364h-123l-1 -385q0 -79 48 -116q38 -31 98 -31z" />
    <glyph glyph-name="ugrave" unicode="&#xf9;" horiz-adv-x="560" 
d="M127 665v14h123q44 -19 80 -107h-23q-64 71 -180 93zM224 -6q32 3 56 11q59 20 78 72v-77h123v525h-123v-384q-5 -17 -17 -30q-24 -30 -67 -31q-70 0 -72 82v364h-123l-1 -385q0 -79 48 -116q38 -31 98 -31z" />
    <glyph glyph-name="ucircumflex" unicode="&#xfb;" horiz-adv-x="560" 
d="M274 625q-38 -9 -86 -59h-20q38 84 106 119v0q19 -10 37 -25q42 -37 69 -94h-21q-15 16 -29 27q-33 28 -56 32v0zM224 -6q32 3 56 11q59 20 78 72v-77h123v525h-123v-384q-5 -17 -17 -30q-24 -30 -67 -31q-70 0 -72 82v364h-123l-1 -385q0 -79 48 -116q38 -31 98 -31z
" />
    <glyph glyph-name="udieresis" unicode="&#xfc;" horiz-adv-x="560" 
d="M367 559q-26 0 -43.5 17.5t-17.5 42.5t17.5 42.5t43.5 17.5q25 0 43.5 -17.5t18.5 -42.5t-18.5 -42.5t-43.5 -17.5zM181 559q-26 0 -44 17.5t-18 42.5t18 42.5t44 17.5q25 0 42.5 -17.5t17.5 -42.5t-17.5 -42.5t-42.5 -17.5zM224 -6q32 3 56 11q59 20 78 72v-77h123v525
h-123v-384q-5 -17 -17 -30q-24 -30 -67 -31q-70 0 -72 82v364h-123l-1 -385q0 -79 48 -116q38 -31 98 -31z" />
    <glyph glyph-name="degree" unicode="&#xb0;" horiz-adv-x="403" 
d="M350 599q0 -59 -42 -104t-108 -45q-65 0 -107.5 44.5t-42.5 106.5q0 61 44 105t106 44q63 0 106.5 -44.5t43.5 -106.5zM288 600q0 35 -25.5 61.5t-63.5 26.5q-37 0 -62 -26t-25 -62q0 -37 25.5 -62.5t63.5 -25.5q35 0 61 25t26 63z" />
    <glyph glyph-name="sterling" unicode="&#xa3;" horiz-adv-x="522" 
d="M505 0h-374l-1 390q-83 3 -100 67h99v33q-1 26 -1 27q0 97 75 154q66 51 156 51q50 0 95 -10q38 -9 52 -20l2 -82q-57 55 -123 54q-64 -1 -91 -27q-34 -32 -34 -117q0 -23 1 -63h51q125 0 163 -89q-43 22 -162 23h-53v-190q0 -88 -15 -131h54h67q39 0 80.5 9t58.5 24
v-103z" />
    <glyph glyph-name="section" unicode="&#xa7;" horiz-adv-x="541" 
d="M387 121q120 55 120 168q0 68 -84 118q-28 16 -143 63q-111 43 -111 128q0 28 20 50q31 36 105 35q107 0 159 -90l2 87q-87 44 -206 44q-97 -2 -156.5 -47t-55.5 -109q10 -100 122 -163q-60 -19 -92.5 -56.5t-29.5 -84.5q11 -118 174 -191q97 -42 129 -62q38 -25 41 -52
q3 -43 -39 -73q-46 -37 -125 -37q-37 3 -66 10q-73 16 -104 59l1 -91q88 -39 207 -39q105 3 178.5 56.5t73.5 139.5q0 80 -120 137zM280 165q-111 43 -111 128q0 57 62 76q84 -37 113 -57q36 -23 37 -49q2 -32 -21 -58q-27 -30 -74 -43z" />
    <glyph glyph-name="bullet" unicode="&#x2022;" horiz-adv-x="333" 
d="M318 374q0 -62 -45 -107t-107 -45q-63 0 -107 46t-44 107q0 63 44.5 108.5t107.5 45.5q61 0 106 -45t45 -110z" />
    <glyph glyph-name="germandbls" unicode="&#xdf;" horiz-adv-x="625" 
d="M563 181q-21 116 -191 192q-43 18 -43 36q0 17 39 32q144 62 144 146q1 57 -42 88q-52 39 -171 38h-33q-108 -1 -159 -57q-37 -43 -37 -106v0v-550h138v550h1q0 131 96 131h4q40 0 68 -26t27 -70q-2 -74 -87 -111q-57 -25 -57 -49q0 -28 57 -63q133 -83 133 -197
q0 -58 -36 -98.5t-86 -40.5q-15 0 -30 5q-39 11 -66 44l1 -60q56 -36 147 -36q62 0 98 17q31 13 55 49q33 47 33 102q0 17 -3 34z" />
    <glyph glyph-name="registered" unicode="&#xae;" horiz-adv-x="843" 
d="M734 357q0 -133 -91 -226.5t-220 -93.5t-220 93.5t-91 226.5t91 226.5t220 93.5t220 -93.5t91 -226.5zM814 358q0 153 -118 259.5t-273 106.5q-156 0 -272 -106q-120 -108 -120 -260q0 -154 120 -262q116 -106 272 -106q155 0 273 107t118 261zM543 249q-38 65 -78 82
q42 2 78 33q42 36 42 91q0 123 -176 123h-136l-1 -456h94v200h7q40 0 94 -99l55 -101h96zM411 361h-45v180h33q88 0 88 -87q0 -45 -25 -71q-22 -22 -51 -22z" />
    <glyph glyph-name="copyright" unicode="&#xa9;" horiz-adv-x="842" 
d="M733 357q0 -133 -90.5 -226.5t-220.5 -93.5q-129 0 -219.5 93.5t-90.5 226.5t90.5 226.5t219.5 93.5q130 0 220.5 -93.5t90.5 -226.5zM813 358q0 153 -118 259.5t-273 106.5t-271 -106q-120 -108 -120 -260q0 -154 120 -262q116 -106 271 -106t273 107t118 261zM548 490
q-21 61 -106 65q-69 0 -112 -70q-40 -66 -34 -145q6 -69 38 -115q43 -59 119 -59q53 0 95 55v-79q-37 -27 -131 -29q-92 0 -161.5 67.5t-69.5 165.5q0 102 61 175q65 77 169 78q25 0 48 -3q53 -9 85 -33z" />
    <glyph glyph-name="trademark" unicode="&#x2122;" horiz-adv-x="489" 
d="M8 713h150l20 -4l10 -3l9 -6l5 -6l4 -9l2 -4l-36 5h-3v0h-33v-214v0h-54v213h-1h-13v1h-10h-4l-6 1h-2q-1 0 -4 2l-8 1l-10 5l-7 6l-5 5zM243 713h67v-1q0 -1 1 -3l4 -15q1 -2 1 -3t1 -4q0 -1 1 -2v-4q2 -1 2 -2l4 -16q0 -1 2 -2v-4q1 -1 1 -2l1 -4q0 -1 1 -3l6 -18v-3
l6 -19q0 -1 2 -2v-4q1 -1 1 -2q0 -3 1 -4l6 -22q0 -1 1 -2l7 -22q1 -1 1 -3l1 3v4l2 15q2 3 2 4t1 4l2 9v3q1 1 1 4l16 47q0 2 2 4v2q1 2 1 4q1 1 1 2l1 4q0 1 1 2v4l13 36v3l1 2q1 3 1 4l2 6h71v-241h-52v61v0l-2 126l-1 -3q0 -1 -1 -4l-7 -23q0 -2 -2 -4q0 -1 -1 -2v-4
q-1 -1 -1 -2t-1 -4q0 -1 -1 -2l-14 -43v-3q-1 -2 -1 -3l-1 -4q0 -1 -1 -2v-4l-4 -8v-4l-2 -6q0 -1 -2 -2l-3 -16q0 -1 -2 -4l-1 -10q-1 -2 -1 -3v-4v-16v-7h-2h-37q0 1 -1 4v2l-7 22q0 1 -2 2l-1 7q-1 1 -1 2l-1 4q0 1 -2 2v4q-1 1 -1 2t-1 4l-10 30q0 1 -1 3v3q-1 2 -1 3
l-12 39q-2 1 -2 3l-1 3q0 1 -1 3l-9 27q0 1 -1 4l-1 2v3q-1 2 -1 3q0 2 -1 3q0 2 -2 3v-187h-32v204l-2 8v1v4v3v4z" />
    <glyph glyph-name="AE" unicode="&#xc6;" horiz-adv-x="935" 
d="M784 71h-199l1 319h93q26 0 48 -3q52 -5 73 -18q-18 87 -136 87h-78v29q0 175 0 160l85 -1q82 0 117 -4q58 -9 104 -40q-7 64 -76 93q-45 21 -103 21h-169t-151 0q0 -16 -4 -32q-6 -39 -25 -70l-364 -612h99l155 260h196l-1 -260h340q56 0 87 40q27 34 27 78
q-27 -47 -119 -47zM289 321l117 195q37 61 44 118v-313h-161z" />
    <glyph glyph-name="Oslash" unicode="&#xd8;" horiz-adv-x="713" 
d="M597 607l84 109h-85l-47 -62q-87 71 -193 71q-134 0 -230 -109t-96 -258q0 -159 89 -262l-77 -98h85l41 53q81 -61 188 -61q148 0 240 107q89 104 89 261q0 142 -88 249zM175 358q0 128 49 213q52 89 134 89q79 0 130 -85l-289 -375q-24 72 -24 158zM358 55
q-76 0 -126 77l287 374q21 -68 21 -148q0 -129 -49 -215q-52 -88 -133 -88z" />
    <glyph glyph-name="yen" unicode="&#xa5;" horiz-adv-x="518" 
d="M345 186v-186h-131v186h-192v55h192v77h-192v56h170q-21 32 -210 340h145l171 -278l104 191q14 25 38 87h95q-27 -57 -53 -107l-123 -233h163v-56h-177v-77h177v-55h-177z" />
    <glyph glyph-name="mu" unicode="&#xb5;" horiz-adv-x="534" 
d="M487 0v525h-127v-384q-11 -17 -23 -29q-29 -30 -59 -31q-34 0 -55.5 22t-21.5 60v363h-127v-750h126v228q30 -16 77 -3q20 7 36 17q38 24 49 60l-1 -78h126z" />
    <glyph glyph-name="ae" unicode="&#xe6;" horiz-adv-x="717" 
d="M498 62q-59 27 -71 113q23 29 85 57q66 31 107 75q45 46 45 98q0 54 -46 91t-117 36q-74 -1 -128 -46q-45 46 -123 46q-74 0 -130 -48v-80q40 68 100 68q77 0 77 -58q0 -39 -18 -61q-12 -15 -45 -30q-43 -20 -85 -40q-53 -28 -80 -60q-36 -42 -36 -96q0 -19 4 -39
q19 -98 129 -98q92 0 156 82l6 9q12 -18 25 -29q65 -62 159 -62q48 0 90 12q46 12 62 31v80q-43 -63 -107 -63q-30 0 -59 12zM287 110q-12 -19 -33 -36q-30 -23 -56 -23q-23 0 -38 19.5t-15 45.5q0 58 30 101q21 30 64 60t49 37zM493 484q59 5 59 -62q0 -44 -20.5 -82
t-58.5 -65q-49 -36 -55 -42q-2 20 -2 46q0 200 77 205z" />
    <glyph glyph-name="oslash" unicode="&#xf8;" horiz-adv-x="568" 
d="M555 526h-87l-33 -38q-60 44 -138 44q-99 0 -168.5 -79t-69.5 -192q0 -102 44 -171l-78 -90h88l35 40q62 -50 149 -50q99 0 168.5 79t69.5 192q0 108 -53 180zM190 269q0 90 31.5 154t74.5 64q46 0 78 -72l-179 -214q-5 34 -5 68zM402 269q0 -90 -31.5 -154t-74.5 -64
q-46 0 -78 72l179 214q5 -34 5 -68z" />
    <glyph glyph-name="florin" unicode="&#x192;" horiz-adv-x="448" 
d="M336 724q-77 0 -123 -45q-34 -35 -42 -79l-22 -156q-83 -2 -91 -2q16 -60 83 -60q-24 -175 -50 -377v0q-9 -54 -19 -98q-27 -102 -62 -131q63 10 111 49q76 61 92 179v0l53 377h52q34 0 122 -13q-21 69 -129 74l-38 2l23 157q9 64 84 64q69 0 94 -58v75q-46 39 -138 42z
" />
    <glyph glyph-name="ellipsis" unicode="&#x2026;" horiz-adv-x="1000" 
d="M185 -12q27 0 46 18.5t19 44.5t-19 44t-46 18q-26 0 -45 -18t-19 -44t19 -44.5t45 -18.5zM520 -12q27 0 46 18.5t19 44.5t-19 44t-46 18q-26 0 -45 -18t-19 -44t19 -44.5t45 -18.5zM853 -12q27 0 46 18.5t19 44.5t-19 44t-46 18q-26 0 -45 -18t-19 -44t19 -44.5t45 -18.5
z" />
    <glyph glyph-name="Agrave" unicode="&#xc0;" horiz-adv-x="626" 
d="M195 851v14h119q43 -17 78 -104h-22q-62 69 -175 90zM344 714h-111q-8 -51 -23 -102l-210 -612h96l92 267h187l97 -267h145zM210 332l68 198l73 -198h-141z" />
    <glyph glyph-name="Atilde" unicode="&#xc3;" horiz-adv-x="627" 
d="M142 826q38 38 90 38q20 0 55 -11t56 -11q33 0 64 20l9 -17q-41 -48 -97 -48q-19 0 -38 6q-64 21 -74 21q-26 0 -55 -14zM344 714h-111q-8 -51 -23 -102l-210 -612h96l92 267h187l97 -267h145zM210 332l68 198l73 -198h-141z" />
    <glyph glyph-name="Otilde" unicode="&#xd5;" horiz-adv-x="768" 
d="M237 824q38 38 91 38q19 0 54.5 -11t56.5 -11q33 0 63 20l11 -18q-41 -47 -98 -47q-19 0 -37 6q-66 21 -76 21q-26 0 -55 -14zM384 725q-134 0 -230 -109t-96 -258q0 -162 91.5 -265t234.5 -103q149 0 241 107q89 104 89 261q0 151 -97 259t-233 108zM387 55
q-83 0 -135 88q-49 86 -49 215q0 128 50.5 214.5t133.5 86.5q81 0 131.5 -86.5t50.5 -214.5q0 -129 -49 -215q-52 -88 -133 -88z" />
    <glyph glyph-name="OE" unicode="&#x152;" horiz-adv-x="1059" 
d="M915 67h-201l1 322h93q26 0 48 -3q52 -5 75 -18q-21 87 -138 87h-78v28q0 178 0 162l85 -1q82 0 119 -4q57 -9 104 -41q-7 66 -76 95q-47 20 -104 20h-264l-1 -60q-87 71 -194 71q-134 0 -230 -109.5t-96 -257.5q0 -161 91.5 -264.5t234.5 -103.5q112 0 194 63l-1 -55
h342q56 0 88 39q26 34 26 78q-27 -48 -118 -48zM386 55q-83 0 -137.5 87t-54.5 213q0 127 54.5 216t137.5 89t137 -88t54 -214q0 -127 -54 -215t-137 -88z" />
    <glyph glyph-name="oe" unicode="&#x153;" horiz-adv-x="820" 
d="M599 63q-59 26 -71 112q23 29 85 57q66 31 108 75q45 46 45 98q0 54 -46 91t-117 36q-95 -1 -154 -73q-66 73 -171 73q-98 0 -168 -79.5t-70 -190.5q0 -130 70 -203q64 -67 168 -67q97 0 167 76q67 -78 173 -78q31 1 56 6q62 10 92 37l1 80q-44 -63 -108 -63
q-30 0 -60 13zM275 53q-42 0 -73.5 63t-31.5 152q0 88 31.5 152t73.5 64q43 0 74.5 -64t31.5 -152t-31.5 -151.5t-74.5 -63.5zM595 484q59 5 59 -62q0 -45 -21 -82.5t-59 -64.5q-49 -35 -56 -42q-1 20 -1 46q0 200 78 205z" />
    <glyph glyph-name="quotedblleft" unicode="&#x201c;" horiz-adv-x="377" 
d="M153 668q0 19 -16 32.5t-39 13.5q-22 0 -38 -13.5t-16 -32.5q0 -2 25 -208l57 1zM332 668q0 19 -16 32.5t-38 13.5q-23 0 -39 -13.5t-16 -32.5q0 -2 26 -208l57 1z" />
    <glyph glyph-name="quotedblright" unicode="&#x201d;" horiz-adv-x="377" 
d="M153 668q0 19 -16 32.5t-39 13.5q-22 0 -38 -13.5t-16 -32.5q0 -2 25 -208l57 1zM332 668q0 19 -16 32.5t-38 13.5q-23 0 -39 -13.5t-16 -32.5q0 -2 26 -208l57 1z" />
    <glyph glyph-name="quoteleft" unicode="&#x2018;" horiz-adv-x="208" 
d="M169 667q0 20 -16 33.5t-38 13.5q-23 0 -39 -13.5t-16 -33.5q0 -1 26 -208l57 1z" />
    <glyph glyph-name="quoteright" unicode="&#x2019;" horiz-adv-x="208" 
d="M169 667q0 20 -16 33.5t-38 13.5q-23 0 -39 -13.5t-16 -33.5q0 -1 26 -208l57 1z" />
    <glyph glyph-name="divide" unicode="&#xf7;" horiz-adv-x="492" 
d="M184 473q0 -22 15 -37t37 -15q21 0 36 15t15 37q0 21 -15 36t-36 15q-22 0 -37 -15t-15 -36zM184 187q0 -21 15 -36t37 -15q21 0 36 15t15 36q0 22 -15 37t-36 15q-22 0 -37 -15t-15 -37zM44 364v-48h384v48h-384z" />
    <glyph glyph-name="ydieresis" unicode="&#xff;" horiz-adv-x="537" 
d="M363 551q-24 0 -41 17t-17 42q0 24 17 41t41 17q25 0 42 -17t17 -41q0 -25 -17 -42t-42 -17zM184 551q-25 0 -42.5 17t-17.5 42q0 24 17.5 41t42.5 17q24 0 41.5 -17t17.5 -41q0 -25 -17.5 -42t-41.5 -17zM281 22l-60 -237h120l179 741h-128q2 -17 -14 -94
q-25 -99 -85 -353q-10 -19 -29 -21q-34 0 -51 111q-2 9 -12 77l-43 280h-128l63 -364q29 -160 133 -160q21 0 55 20z" />
    <glyph glyph-name="Acircumflex" unicode="&#xc2;" horiz-adv-x="625" 
d="M343 713h-111q-1 -20 -22 -101l-210 -612h97l91 266h186l98 -266h144zM210 331l67 198l74 -198h-141zM292 811q-36 -8 -83 -57q-1 0 -21 1q38 81 104 115v0q19 -10 36 -25q41 -35 67 -90l-20 -1q-14 15 -28 27q-33 27 -55 30v0z" />
    <glyph glyph-name="Ecircumflex" unicode="&#xca;" horiz-adv-x="559" 
d="M409 71h-199l1 320h93q26 -1 48 -3q52 -6 74 -19q-20 87 -138 87h-77v28q0 177 0 162l85 -1q84 0 117 -5q58 -9 104 -40q-6 65 -75 95q-47 19 -105 19h-262l-1 -714h340q55 0 88 40q26 34 26 78q-27 -47 -119 -47zM266 812q-36 -9 -84 -56q-1 -1 -20 0q38 81 104 115v0
q18 -10 36 -25q41 -35 67 -90q-18 -1 -20 0q-15 14 -28 26q-34 27 -55 30v0z" />
    <glyph glyph-name="Aacute" unicode="&#xc1;" horiz-adv-x="627" 
d="M218 760h-23q36 87 78 104h121v-14q-114 -21 -176 -90zM344 714h-111q-8 -51 -23 -102l-210 -612h96l92 267h187l97 -267h145zM210 332l68 198l73 -198h-141z" />
    <glyph glyph-name="Edieresis" unicode="&#xcb;" horiz-adv-x="559" 
d="M374 755q-25 0 -42 17t-17 41q0 25 17 42t42 17t42.5 -17t17.5 -42q0 -24 -17.5 -41t-42.5 -17zM191 755q-24 0 -41 17t-17 41q0 25 17 42t41 17q26 0 43.5 -17t17.5 -42q0 -24 -17.5 -41t-43.5 -17zM410 70l-200 1l2 319h92q26 0 48 -2q53 -5 73 -18q-18 87 -136 87h-77
v28q0 177 0 160h84q85 0 117 -5q58 -9 105 -39q-7 64 -76 93q-46 20 -104 20h-263l-1 -219v-495h341q55 0 87 40q26 34 26 78q-26 -48 -118 -48z" />
    <glyph glyph-name="Egrave" unicode="&#xc8;" horiz-adv-x="558" 
d="M128 852v14h120q42 -17 78 -104h-23q-61 69 -175 90zM409 70h-199l1 321h92q26 -1 49 -3q52 -6 72 -19q-18 88 -136 88h-77v28q0 176 0 160h85q84 -1 116 -5q59 -9 104 -40q-7 65 -75 94q-46 20 -103 20h-263l-1 -714h339q56 0 88 40q26 34 26 78q-27 -48 -118 -48z" />
    <glyph glyph-name="Iacute" unicode="&#xcd;" horiz-adv-x="281" 
d="M96 763h-23q36 87 78 104h121v-14q-114 -21 -176 -90zM114 714v-714h124v714h-124z" />
    <glyph glyph-name="Icircumflex" unicode="&#xce;" horiz-adv-x="192" 
d="M97 813q-36 -9 -83 -58q-2 0 -21 1q38 82 104 116v0q20 -10 37 -25q42 -35 69 -91q-20 -1 -21 -1q-15 16 -28 28q-33 27 -57 30v0zM37 714v-714h124v714h-124z" />
    <glyph glyph-name="Idieresis" unicode="&#xcf;" horiz-adv-x="352" 
d="M267 757q-24 0 -41.5 17t-17.5 41q0 25 17.5 42t41.5 17q25 0 42.5 -17t17.5 -42q0 -24 -17.5 -41t-42.5 -17zM86 757q-25 0 -42.5 17t-17.5 41q0 25 17.5 42t42.5 17q24 0 41.5 -17t17.5 -42q0 -24 -17.5 -41t-41.5 -17zM113 714v-714h124v714h-124z" />
    <glyph glyph-name="Igrave" unicode="&#xcc;" horiz-adv-x="282" 
d="M10 854v14h120q42 -17 78 -104h-23q-61 69 -175 90zM74 714v-714h124v714h-124z" />
    <glyph glyph-name="Oacute" unicode="&#xd3;" horiz-adv-x="740" 
d="M238 764h-23q36 86 79 104h121v-13q-115 -22 -177 -91zM354 724q-134 0 -230 -109t-96 -258q0 -161 91.5 -264t234.5 -103q148 0 240 107q89 104 89 260q0 151 -97 259t-232 108zM356 55q-82 0 -134 88q-49 86 -49 214t50.5 214.5t132.5 86.5q81 0 131.5 -86.5
t50.5 -214.5t-49 -214q-52 -88 -133 -88z" />
    <glyph glyph-name="Ocircumflex" unicode="&#xd4;" horiz-adv-x="738" 
d="M352 812q-37 -10 -84 -59h-20q38 83 104 117v0q18 -10 36 -24q41 -36 67 -93h-20q-14 16 -28 27q-33 27 -55 32zM354 724q-134 0 -230 -109t-96 -258q0 -161 91.5 -264t234.5 -103q148 0 240 107q89 104 89 260q0 151 -97 259t-232 108zM356 55q-82 0 -134 88
q-49 86 -49 214t50.5 214.5t132.5 86.5q81 0 131.5 -86.5t50.5 -214.5t-49 -214q-52 -88 -133 -88z" />
    <glyph glyph-name="Ograve" unicode="&#xd2;" horiz-adv-x="738" 
d="M216 852v13h120q43 -17 79 -104h-23q-62 69 -176 91zM354 724q-134 0 -230 -109t-96 -258q0 -161 91.5 -264t234.5 -103q148 0 240 107q89 104 89 260q0 151 -97 259t-232 108zM356 55q-82 0 -134 88q-49 86 -49 214t50.5 214.5t132.5 86.5q81 0 131.5 -86.5t50.5 -214.5
t-49 -214q-52 -88 -133 -88z" />
    <glyph glyph-name="Uacute" unicode="&#xda;" horiz-adv-x="684" 
d="M274 761h-23q36 87 77 104h120v-13q-113 -22 -174 -91zM219 223q0 -78 32 -116t106 -38q67 0 105 45q34 41 34 104v496h116l-1 -491q0 -92 -52 -152q-67 -81 -213 -81q-126 0 -194 60q-72 61 -72 174v490h139v-491z" />
    <glyph glyph-name="Ucircumflex" unicode="&#xdb;" horiz-adv-x="689" 
d="M347 814q-35 -9 -83 -58h-19q37 82 103 116v0q19 -10 36 -24q42 -37 68 -92h-20q-15 15 -29 27q-33 26 -55 31h-1zM219 223q0 -78 32 -116t106 -38q67 0 105 45q34 41 34 104v496h116l-1 -491q0 -92 -52 -152q-67 -81 -213 -81q-126 0 -194 60q-72 61 -72 174v490h139
v-491z" />
    <glyph glyph-name="Ugrave" unicode="&#xd9;" horiz-adv-x="681" 
d="M222 223q0 -78 32 -116t106 -38q67 0 105 45q34 41 34 104v496h116l-1 -491q0 -92 -52 -152q-67 -81 -213 -81q-126 0 -194 60q-72 61 -72 174v490h139v-491zM250 854v14h120q42 -17 78 -104h-23q-61 69 -175 90z" />
    <glyph glyph-name="scaron" unicode="&#x161;" horiz-adv-x="480" 
d="M250 137q0 -41 -26 -65.5t-78 -23.5q-32 0 -62 21q-26 18 -39 42v-84q51 -37 131 -37q74 0 131.5 50t57.5 125q0 95 -108 162q-60 39 -63 41q-34 28 -34 61q0 49 57 49q8 0 20 -2q60 -10 98 -61v77q-14 14 -49 27q-42 16 -85 16q-62 0 -109.5 -38t-47.5 -91
q0 -103 107 -165q54 -31 71 -46q28 -26 28 -58zM198 642q-37 10 -86 60h-21q39 -85 108 -120v0q19 11 37 26q43 36 69 94h-21q-14 -15 -28 -28q-34 -27 -58 -32v0z" />
    <glyph glyph-name="Zcaron" unicode="&#x17d;" horiz-adv-x="607" 
d="M453 72h-222l349 642h-344q-58 0 -109 -34t-67 -77q37 28 85 37q22 3 81 3h157l-355 -643h392q55 0 94 20q57 28 57 89q-28 -35 -118 -37zM335 802q-35 10 -84 58h-19q38 -82 103 -116v0q19 10 37 25q40 35 67 91h-20q-15 -15 -29 -27q-32 -27 -55 -31v0z" />
    <glyph glyph-name="zcaron" unicode="&#x17e;" horiz-adv-x="551" 
d="M406 59h-190l314 467h-322q-32 -2 -55 -11q-57 -24 -64 -82q26 33 125 35h123l-317 -468h386q29 2 51 12q51 25 54 85q-22 -36 -105 -38zM313 640q-37 10 -85 59h-21q38 -84 106 -119v0q19 11 36 26q42 36 69 93h-21q-15 -16 -29 -27q-33 -28 -55 -32v0z" />
    <glyph glyph-name="Eth" unicode="&#xd0;" horiz-adv-x="729" 
d="M347 713h-244v-317h-92v-89h92v-306l244 -1q120 0 211 104.5t91 250.5q-6 104 -38 179q-75 179 -264 179zM317 60q-4 0 -73 -1v248h147v89h-147v262h56q98 0 155 -91q51 -84 51 -212q0 -135 -51.5 -214.5t-137.5 -80.5z" />
    <glyph glyph-name="Yacute" unicode="&#xdd;" horiz-adv-x="635" 
d="M229 761h-23q36 87 78 104h120v-14q-114 -21 -175 -90zM493 714q2 -17 -21 -93q-3 -7 -117 -351q-12 -14 -31 -14q-48 0 -84 114l-105 344h-124l115 -361q52 -160 159 -160q27 0 46 10l-67 -203h122l243 714h-136z" />
    <glyph glyph-name="yacute" unicode="&#xfd;" horiz-adv-x="549" 
d="M233 565h-24q36 87 79 105h123v-14q-116 -21 -178 -91zM281 22l-60 -237h120l179 741h-128q2 -17 -14 -94q-25 -99 -85 -353q-10 -19 -29 -21q-34 0 -51 111q-2 9 -12 77l-43 280h-128l63 -364q29 -160 133 -160q21 0 55 20z" />
    <glyph glyph-name="thorn" unicode="&#xfe;" horiz-adv-x="543" 
d="M300 522q-27 0 -47 -6q-50 -13 -65 -47v245h-115l-1 -924h123v246q40 -31 84 -30q91 1 151 74t60 194q0 99 -50 171q-53 77 -140 77zM246 462q59 0 88 -58q26 -49 26 -132q0 -229 -80 -229q-64 0 -85 65v328q15 26 51 26z" />
    <glyph glyph-name="minus" unicode="&#xad;" horiz-adv-x="494" 
d="M74 363v-63h345v63h-345z" />
    <glyph glyph-name="multiply" unicode="&#xd7;" horiz-adv-x="561" 
d="M446 573l-165 -165l-165 165l-72 -72l165 -165l-165 -165l72 -72l165 165l165 -165l72 72l-165 165l165 165z" />
    <glyph glyph-name="onehalf" unicode="&#xbd;" horiz-adv-x="740" 
d="M546 706l-452 -707h75l452 707h-75zM174 714q-18 -10 -38 -17q-47 -18 -94 -21v-31l64 11v-308h68v366zM562 36h49q61 0 86 17v-52h-235q31 69 105 179q56 86 59 112q1 23 -8.5 35.5t-34.5 8.5q-14 -2 -27 -9q-32 -17 -55 -50v56q43 31 98 34q102 0 100 -77
q-1 -30 -49 -108q-80 -129 -88 -146z" />
    <glyph glyph-name="onequarter" unicode="&#xbc;" horiz-adv-x="750" 
d="M562 742l-474 -742h79l473 742h-78zM173 750q-20 -10 -41 -18q-49 -19 -98 -21v-33l68 11v-322h71v383zM659 138v97h-65v-96l-25 -1l-54 1q38 89 116 240h-40h-41q-1 -1 -6 -11l-15 -34q-31 -64 -108 -236l173 3v-100h65v100h8q29 0 40 -3v40h-48z" />
    <glyph glyph-name="threequarters" unicode="&#xbe;" horiz-adv-x="692" 
d="M530 740l-473 -740h79l472 740h-78zM628 138v97h-66v-97h-24h-55q38 90 117 240h-40.5h-41.5q0 -2 -7 -15l-14 -30q-31 -64 -108 -235l173 3v-100h66v100h7q30 0 40 -4v41h-47zM125 632q51 -16 78 -55q24 -35 24 -79q0 -53 -31 -93q-34 -42 -88 -48t-90 17v60
q25 -37 70 -43q36 -3 58.5 19.5t22.5 55.5q0 40 -31 69q-37 34 -103 40q14 21 88 125h-23q-62 0 -76 -8v45h180q-31 -40 -79 -105z" />
    <glyph glyph-name="endash" unicode="&#x2013;" horiz-adv-x="517" 
d="M74 392v-104h370v104h-370z" />
    <glyph glyph-name="emdash" unicode="&#x2014;" horiz-adv-x="494" 
d="M74 392v-104h359v104h-359z" />
    <glyph glyph-name="SF100000" unicode="&#x2500;" horiz-adv-x="494" 
d="M74 392v-104h359v104h-359z" />
    <glyph glyph-name="Emirates Logo" unicode="&#xac;" horiz-adv-x="1195" 
d="M663 681q-15 -14 -15 -40v-121q0 -16 -10 -25q-12 -13 -23 -22h12q18 17 42 40q17 19 17 41v59v59q0 18 12 31q9 8 21 20h-10q-21 -20 -46 -42zM573 239l43 -39h30q45 0 76 32q25 25 25 64v64q0 21 -17 37q-2 1 -15 14v-48q5 -6 16 -16l1 -1q8 -8 8 -20q0 -25 -37 -61
q-28 -26 -57 -26h-73zM695 497q-9 -9 -9 -29v-24h24q10 0 25 14v23q5 -6 12 -13q30 30 43 30q23 0 23 -22q0 -18 -11.5 -29t-27.5 -27q-7 -6 -15 -6q-24 0 -24 36l-32 -30q-1 -1 -6.5 -6t-10.5 -12v-62q0 -33 -18.5 -49.5t-41.5 -39.5h-13l25 23q10 11 10 30v99h-154
q-30 0 -47.5 23.5t-19.5 52.5v61q0 22 -15 31h14q12 -5 12 -42v-45q-1 -14 9.5 -27t26.5 -13h23q156 0 151 0q1 18 14 33.5t47 42.5h10q-9 -10 -24 -23zM752 463q20 -24 29 -24q7 0 7 9q0 7 -6 15q-8 15 -30 0zM565 349q0 -5 -28 -33q-3 15 -29 40l29 29q28 -28 28 -36z
M616 687q13 -12 13 -22q0 -4 -2.5 -7t-15.5 -17q-1 1 -11 14v-34q-1 -7 -5 -16q21 -22 24 -54v-31q0 -10 -5.5 -15t-29.5 -29q-6 -6 -17 -6h-82q-26 0 -26 20v31q9 -11 18 -11q11 0 19 8q1 2 63 67q-26 23 -47 37q-7 5 -13 0q-8 -3 -10 -10q-5 -27 0 -62l-17 17l-5 5
q-7 8 -7 20q0 13 9 21q20 22 39 22h33q10 0 45 -23q4 4 5 8v41q-26 26 -12 42l20 20q0 -17 17 -36zM513 523q-4 -6 -17 -15h94q29 0 14 24q-16 19 -38 46zM407 439h-14q14 -8 16 -31v-75q0 -37 26.5 -64.5t61.5 -27.5h40q25 0 47 18q4 4 15 16q17 19 17 41v24q0 20 -17 35
l-15 15v-50q10 -9 17 -15.5t7 -17.5q0 -26 -24 -26h-88q-29 0 -52.5 21t-23.5 55v41q-2 41 -13 41zM505 349q0 -5 -29 -33q-2 13 -29 40l29 29q29 -28 29 -36zM196 20h-47q-12 0 -15 23v68h22q31 0 44 -6q-10 25 -44 28h-22v21q0 17 -5 25l30 -1q49 0 70 -14q-3 33 -56 36
h-102q17 -14 17 -46l2 -123q0 -9 1 -15q2 -16 10 -16h36h64q31 0 33 23v12q-7 -13 -38 -15zM463 31v87q0 43 -48 43q-25 0 -38 -31q-9 31 -44 31q-10 -2 -18 -5q-18 -7 -24 -27q0 27 -26 30h-27q15 -5 15 -32v-96q1 -31 13 -31h42q-15 11 -15 31v86q3 16 25 16q21 0 21 -23
v-79q1 -31 13 -31h43q-15 10 -16 31v86q5 16 22 16q24 0 24 -23v-79q0 -31 12 -31h42q-15 10 -16 31zM537 31q0 -11 17 -31h-42q-12 0 -13 31v0v96q0 12 -15 32h25q28 0 28 -35v-93v0zM668 147q-4 11 -22 12q-8 -1 -14 -4q-14 -8 -19 -28q-1 16 -7 24t-20 8h-25
q13 -5 14 -32v-96q1 -31 12 -31h42q-16 11 -16 31v79q2 11 11 16q25 16 44 -7v28zM866 141q6 0 25 -6v24h-36v37q-9 -16 -29 -32q-5 -5 -37 -22h26v-112q2 -30 14 -30h42q-15 9 -16 30v111h5.5h5.5zM962.5 71.5q-19.5 -8.5 -25.5 -17.5q3 -23 21 -34q30 -14 49 19v-29
q-9 -10 -45 -10q-30 0 -50 21.5t-20 54.5q0 34 18 58.5t49 26.5q49 0 49 -37q0 -16 -13 -30t-32.5 -22.5zM967 103q7 11 7 24q0 22 -17 20q-28 -8 -23 -76q12 7 33 32zM519 172q18 0 18 19q0 20 -18 20q-20 0 -20 -20q0 -19 20 -19zM1087 43q0 -26 -31 -26q-7 0 -12 2
q-12 6 -19 20v-29q15 -10 40 -10v0q24 0 41 15t17 36q-1 30 -53 59q-12 7 -12 19q0 15 24 14q11 -1 30 -22v26q-14 12 -40 14q-20 0 -34 -11.5t-14 -27.5q1 -32 46 -57q17 -9 17 -22zM718 17q-23 0 -23 22q0 23 17 37q13 10 24 17v-67q-6 -9 -18 -9zM740 124q0 -17 -21 -27
q-58 -25 -58 -59q0 -40 42 -40q25 0 34 20q2 -9 13 -18h42q-16 10 -18 31v0v90q0 15 -14.5 26.5t-33.5 11.5q-12 0 -40 -12v-28q8 22 31 23q23 0 23 -18z" />
    <glyph glyph-name="Plane-Up" unicode="&#x3c0;" horiz-adv-x="826" 
d="M466 264q3 18 11 23q7 4 20 -2l257 -116l1 52l-6 4q-75 54 -194 141q-61 46 -74 72q-21 44 -27 184q-3 102 -41 102v0q-39 0 -42 -102q-6 -140 -27 -184q-12 -26 -74 -72q-94 -69 -194 -141l-6 -4l2 -52l256 116q13 6 20 2q8 -5 11 -23q6 -39 12 -109q8 -69 -35 -101
l-44 -33l3 -31l118 31l117 -31l3 31l-44 33q-43 32 -35 101q6 69 12 109z" />
    <glyph glyph-name="Plane-Right" unicode="&#x2265;" horiz-adv-x="875" 
d="M344 304q18 -3 23 -11q4 -7 -2 -20l-116 -257l52 -1l4 6q54 75 141 194q46 61 72 74q44 21 184 27q102 3 102 41v0q0 38 -102 42q-140 6 -184 27q-26 12 -72 74q-68 94 -140 194l-5 6l-52 -2l116 -256q6 -13 2 -20q-5 -8 -23 -11q-38 -6 -109 -12q-69 -8 -101 35l-33 44
l-31 -3l31 -117l-31 -118l31 -3l33 44q32 43 101 35q69 -6 109 -12z" />
    <glyph glyph-name="Plane-Left" unicode="&#x2264;" horiz-adv-x="875" 
d="M530 410q-18 3 -23 11q-4 7 2 20l116 256l-52 2l-4 -6q-54 -75 -141 -194q-46 -61 -72 -74q-44 -21 -184 -27q-102 -3 -102 -41v0q0 -38 102 -42q140 -6 184 -27q26 -12 72 -74q68 -95 140 -194l5 -6l52 1l-116 257q-6 13 -2 20q5 8 23 11q38 6 109 12q69 8 101 -35
l33 -45l31 4l-31 117l31 118l-30 3l-34 -44q-32 -43 -101 -35q-69 6 -109 12z" />
    <glyph glyph-name="currency" unicode="&#xa4;" horiz-adv-x="682" 
d="M509 58q-68 0 -128 45q-71 54 -93 153h243l29 60h-278v17v34h249l29 59h-272q20 111 75 176t126 65q119 0 153 -90v113q-48 34 -173 34q-130 0 -219.5 -85t-114.5 -213h-91v-59h85q-3 -20 -3 -28q0 -3 3 -23h-85v-60h91q22 -130 114.5 -198t222.5 -68q99 0 167 34v113
q-59 -79 -130 -79z" />
    <glyph glyph-name="currency" unicode="&#x20ac;" horiz-adv-x="682" 
d="M509 58q-68 0 -128 45q-71 54 -93 153h243l29 60h-278v17v34h249l29 59h-272q20 111 75 176t126 65q119 0 153 -90v113q-48 34 -173 34q-130 0 -219.5 -85t-114.5 -213h-91v-59h85q-3 -20 -3 -28q0 -3 3 -23h-85v-60h91q22 -130 114.5 -198t222.5 -68q99 0 167 34v113
q-59 -79 -130 -79z" />
    </font>
</defs>
</svg>
