<?xml version="1.0" standalone="no"?>
<!DOCTYPE svg PUBLIC "-//W3C//DTD SVG 1.1//EN" "http://www.w3.org/Graphics/SVG/1.1/DTD/svg11.dtd" >
<svg xmlns="http://www.w3.org/2000/svg" xmlns:xlink="http://www.w3.org/1999/xlink" version="1.1">
<metadata>
Created by FontForge 20170910 at Thu May 26 12:09:33 2016
 By Jimmy Wärting
Copyright (c) Emirates, 2003 - 2016.
</metadata>
<defs>
<font id="Emirates-Medium" horiz-adv-x="0" >
  <font-face 
    font-family="Emirates Medium"
    font-weight="400"
    font-stretch="normal"
    units-per-em="1000"
    panose-1="0 0 0 0 0 0 0 0 0 0"
    ascent="800"
    descent="-200"
    x-height="526"
    cap-height="714"
    bbox="-186 -476 1384 1088"
    underline-thickness="50"
    underline-position="-100"
    unicode-range="U+0020-FEFC"
  />
<missing-glyph horiz-adv-x="250" 
d="M25 0v714h200v-714h-200zM200 25v664h-150v-664h150z" />
    <glyph glyph-name="uniE002" unicode="&#xfedf;&#xfb51;" horiz-adv-x="517" 
d="M179 763q20 -1 32 -15t12 -36v-5q-3 -24 -22.5 -41.5t-44.5 -17.5h-5q-16 0 -50 14q-42 16 -66 16q-21 0 -49 -16l-10 16q43 37 71 39h3q15 0 40 -10q4 -1 8 -1q6 0 10 4l15 20q25 34 56 33zM172 730q-6 0 -19 -17q-14 -18 -18 -22l4 -1q4 -1 8 -1q15 0 25 8.5t10 21.5
q0 11 -10 11zM383 681h86q-12 -21 -16 -42.5t-4 -64.5l1 -366q0 -101 -74 -163q-67 -56 -170 -56q-97 0 -159 53l31 68q38 -49 103 -55q32 -1 51 16.5t21 49.5q1 31 -19 74t-72 123l-61 93q-33 52 -33 92v10l71 45q1 -29 7 -48.5t25 -55.5q72 -130 94 -172q40 -71 40 -145
q0 -29 -7 -54q63 30 63 118v374q0 80 22 106z" />
    <glyph glyph-name="uniE003" unicode="&#xfee0;&#xfb51;" horiz-adv-x="563" 
d="M156 648h-5q-16 0 -50 14q-42 16 -66 16q-21 0 -49 -16l-10 16q43 37 71 39h3q15 0 40 -10q4 -1 8 -1q6 0 10 4l15 20q25 34 56 33q20 -1 32 -15t12 -36v-5q-3 -24 -22.5 -41.5t-44.5 -17.5zM135 691l4 -1q4 -1 8 -1q15 0 25 8.5t10 21.5q0 11 -10 11q-6 0 -19 -17
q-14 -18 -18 -22zM582 89v-89h-34q-106 0 -153 63q-68 -74 -189 -74q-97 0 -159 53l31 68q38 -49 103 -55q32 -1 51 16.5t21 49.5q1 31 -19 74t-72 123l-61 93q-33 53 -33 92v10l71 45q1 -29 7 -48.5t25 -55.5q72 -130 94 -171q40 -72 40 -146q0 -29 -7 -54q63 30 63 118
v374q0 80 22 106h86q-12 -21 -16 -42.5t-4 -64.5l1 -332v-71q0 -39 23.5 -60.5t66.5 -21.5h42z" />
    <glyph glyph-name="uniE041" unicode="&#xfb58;&#xfef0;" horiz-adv-x="1067" 
d="M933 445h86q-12 -21 -16 -42.5t-4 -64.5v-154q0 -86 -44 -133q-48 -51 -143 -51h-145q-14 -137 -121 -208q-81 -54 -187 -54q-77 0 -145 31q-74 34 -117 97q-48 71 -49 169q0 57 19 106q22 50 56 79l56 -30q-46 -23 -68 -71q-15 -34 -15 -77v-9q4 -89 80 -149
q73 -59 181 -59q96 0 159 56q52 48 61 119h-88q-80 0 -106 23v86q21 -12 42.5 -16t64.5 -4h330q42 0 66 22q24 21 24 60v168q0 79 23 106zM844 -171q0 -22 -15.5 -37.5t-36.5 -15.5q-22 0 -37.5 15.5t-15.5 37.5q0 21 15.5 36.5t37.5 15.5q21 0 36.5 -15.5t15.5 -36.5z
M933 -119q21 0 36.5 -15.5t15.5 -36.5q0 -22 -15.5 -37.5t-36.5 -15.5q-22 0 -37.5 15.5t-15.5 37.5q0 21 15.5 36.5t37.5 15.5zM863 -235q21 0 36.5 -15.5t15.5 -37.5q0 -21 -15.5 -36.5t-36.5 -15.5q-22 0 -37.5 15.5t-15.5 36.5q0 22 15.5 37.5t37.5 15.5z" />
    <glyph glyph-name="uniE042" unicode="&#xfb59;&#xfef0;" horiz-adv-x="1090" 
d="M1110 89v-89h-34q-95 0 -143 51q-49 -51 -143 -51h-123q-15 -137 -121 -208q-81 -54 -187 -54q-77 0 -145 31q-74 34 -117 97q-48 71 -49 169q0 57 19 106q22 50 56 79l56 -30q-46 -23 -68 -71q-15 -34 -15 -77v-9q4 -89 80 -149q73 -59 181 -59q96 0 158 56
q53 48 62 119h-88q-80 0 -106 23v86q21 -12 42.5 -16t63.5 -4h309q42 0 66 22q24 21 24 60v168q0 78 23 106h86q-12 -21 -16 -42.5t-4 -64.5v-154v-6v-7q0 -39 24 -60.5t67 -21.5h42zM844 -171q0 -22 -15.5 -37.5t-36.5 -15.5q-22 0 -37.5 15.5t-15.5 37.5q0 21 15.5 36.5
t37.5 15.5q21 0 36.5 -15.5t15.5 -36.5zM933 -119q21 0 36.5 -15.5t15.5 -36.5q0 -22 -15.5 -37.5t-36.5 -15.5q-22 0 -37.5 15.5t-15.5 37.5q0 21 15.5 36.5t37.5 15.5zM863 -235q21 0 36.5 -15.5t15.5 -37.5q0 -21 -15.5 -36.5t-36.5 -15.5q-22 0 -37.5 15.5t-15.5 36.5
q0 22 15.5 37.5t37.5 15.5z" />
    <glyph glyph-name="uniE043" unicode="&#xfb58;&#xfef2;" horiz-adv-x="1067" 
d="M933 445h86q-12 -21 -16 -42.5t-4 -64.5v-154q0 -86 -44 -133q-48 -51 -143 -51h-145q-14 -137 -121 -208q-81 -54 -187 -54q-77 0 -145 31q-74 34 -117 97q-48 71 -49 169q0 57 19 106q22 50 56 79l56 -30q-46 -23 -68 -71q-15 -34 -15 -77v-9q4 -89 80 -149
q73 -59 181 -59q96 0 159 56q52 48 61 119h-88q-80 0 -106 23v86q21 -12 42.5 -16t64.5 -4h330q42 0 66 22q24 21 24 60v168q0 79 23 106zM844 -171q0 -22 -15.5 -37.5t-36.5 -15.5q-22 0 -37.5 15.5t-15.5 37.5q0 21 15.5 36.5t37.5 15.5q21 0 36.5 -15.5t15.5 -36.5z
M933 -119q21 0 36.5 -15.5t15.5 -36.5q0 -22 -15.5 -37.5t-36.5 -15.5q-22 0 -37.5 15.5t-15.5 37.5q0 21 15.5 36.5t37.5 15.5zM863 -235q21 0 36.5 -15.5t15.5 -37.5q0 -21 -15.5 -36.5t-36.5 -15.5q-22 0 -37.5 15.5t-15.5 36.5q0 22 15.5 37.5t37.5 15.5zM289 -365
q21 0 36.5 -15.5t15.5 -37.5q0 -21 -15.5 -36.5t-36.5 -15.5q-22 0 -37.5 15.5t-15.5 36.5q0 22 15.5 37.5t37.5 15.5zM430 -365q21 0 36.5 -15.5t15.5 -37.5q0 -21 -15.5 -36.5t-36.5 -15.5q-22 0 -37.5 15.5t-15.5 36.5q0 22 15.5 37.5t37.5 15.5z" />
    <glyph glyph-name="uniE044" unicode="&#xfb59;&#xfef2;" horiz-adv-x="1090" 
d="M1110 89v-89h-34q-95 0 -143 51q-49 -51 -143 -51h-123q-15 -137 -121 -208q-81 -54 -187 -54q-77 0 -145 31q-74 34 -117 97q-48 71 -49 169q0 57 19 106q22 50 56 79l56 -30q-46 -23 -68 -71q-15 -34 -15 -77v-9q4 -89 80 -149q73 -59 181 -59q96 0 158 56
q53 48 62 119h-88q-80 0 -106 23v86q21 -12 42.5 -16t63.5 -4h309q42 0 66 22q24 21 24 60v168q0 78 23 106h86q-12 -21 -16 -42.5t-4 -64.5v-154v-6v-7q0 -39 24 -60.5t67 -21.5h42zM844 -171q0 -22 -15.5 -37.5t-36.5 -15.5q-22 0 -37.5 15.5t-15.5 37.5q0 21 15.5 36.5
t37.5 15.5q21 0 36.5 -15.5t15.5 -36.5zM933 -119q21 0 36.5 -15.5t15.5 -36.5q0 -22 -15.5 -37.5t-36.5 -15.5q-22 0 -37.5 15.5t-15.5 37.5q0 21 15.5 36.5t37.5 15.5zM863 -235q21 0 36.5 -15.5t15.5 -37.5q0 -21 -15.5 -36.5t-36.5 -15.5q-22 0 -37.5 15.5t-15.5 36.5
q0 22 15.5 37.5t37.5 15.5zM289 -365q21 0 36.5 -15.5t15.5 -37.5q0 -21 -15.5 -36.5t-36.5 -15.5q-22 0 -37.5 15.5t-15.5 36.5q0 22 15.5 37.5t37.5 15.5zM430 -365q21 0 36.5 -15.5t15.5 -37.5q0 -21 -15.5 -36.5t-36.5 -15.5q-22 0 -37.5 15.5t-15.5 36.5
q0 22 15.5 37.5t37.5 15.5z" />
    <glyph glyph-name="uniE045" unicode="&#xfb58;&#xfe8a;" horiz-adv-x="1067" 
d="M183 328h-90q-32 0 -48 10v40q15 -10 46 -10q-13 15 -13 38q0 33 23.5 54t60.5 21q33 0 56 -16l-8 -25q-21 20 -43 20q-21 0 -35 -14t-14 -35q0 -19 14 -31t35 -12h16q36 0 52 -9v-41q-17 10 -52 10zM933 445h86q-12 -21 -16 -42.5t-4 -64.5v-154q0 -86 -44 -133
q-48 -51 -143 -51h-145q-15 -137 -121 -208q-82 -54 -188 -54q-77 0 -145 31q-74 34 -117 97q-48 71 -49 169q0 57 19 106q22 50 56 79l56 -30q-46 -23 -68 -71q-15 -34 -15 -77v-9q4 -89 80 -149q73 -59 181 -59q96 0 159 56q53 48 61 119h-88q-80 0 -106 23v86
q21 -12 42.5 -16t64.5 -4h330q43 0 67 22q24 21 24 60v168q0 79 23 106zM844 -171q0 -22 -15.5 -37.5t-37.5 -15.5q-21 0 -36.5 15.5t-15.5 37.5q0 21 15.5 36.5t36.5 15.5q22 0 37.5 -15.5t15.5 -36.5zM932 -119q22 0 37.5 -15.5t15.5 -36.5q0 -22 -15.5 -37.5t-37.5 -15.5
q-21 0 -36.5 15.5t-15.5 37.5q0 21 15.5 36.5t36.5 15.5zM861 -235q22 0 37.5 -15.5t15.5 -37.5q0 -21 -15.5 -36.5t-37.5 -15.5q-21 0 -36.5 15.5t-15.5 36.5q0 22 15.5 37.5t36.5 15.5z" />
    <glyph glyph-name="uniE046" unicode="&#xfb59;&#xfe8a;" horiz-adv-x="1090" 
d="M183 328h-90q-32 0 -48 10v40q15 -10 46 -10q-13 15 -13 38q0 33 23.5 54t60.5 21q33 0 56 -16l-8 -25q-21 20 -43 20q-21 0 -35 -14t-14 -35q0 -19 14 -31t35 -12h16q36 0 52 -9v-41q-17 10 -52 10zM1110 89v-89h-34q-95 0 -143 51q-49 -51 -143 -51h-123
q-15 -137 -122 -208q-81 -54 -187 -54q-77 0 -145 31q-74 34 -117 97q-48 71 -49 169q0 57 19 106q22 50 56 79l56 -30q-46 -23 -68 -71q-15 -34 -15 -77v-9q4 -89 80 -149q73 -59 181 -59q96 0 159 56q53 48 61 119h-88q-80 0 -106 23v86q21 -12 42.5 -16t64.5 -4h308
q43 0 67 22q24 21 24 60v168q0 79 23 106h86q-12 -21 -16 -42.5t-4 -64.5v-154v-6v-7q0 -44 31 -66q23 -16 60 -16h42zM844 -171q0 -22 -15.5 -37.5t-37.5 -15.5q-21 0 -36.5 15.5t-15.5 37.5q0 21 15.5 36.5t36.5 15.5q22 0 37.5 -15.5t15.5 -36.5zM932 -119
q22 0 37.5 -15.5t15.5 -36.5q0 -22 -15.5 -37.5t-37.5 -15.5q-21 0 -36.5 15.5t-15.5 37.5q0 21 15.5 36.5t36.5 15.5zM861 -235q22 0 37.5 -15.5t15.5 -37.5q0 -21 -15.5 -36.5t-37.5 -15.5q-21 0 -36.5 15.5t-15.5 36.5q0 22 15.5 37.5t36.5 15.5z" />
    <glyph glyph-name="uniE051" unicode="&#xfef3;&#xfe8a;" horiz-adv-x="1067" 
d="M183 328h-90q-32 0 -48 10v40q15 -10 46 -10q-13 15 -13 38q0 33 23.5 54t60.5 21q33 0 56 -16l-8 -25q-21 20 -43 20q-21 0 -35 -14t-14 -35q0 -19 14 -31t35 -12h16q36 0 52 -9v-41q-17 10 -52 10zM933 445h86q-12 -21 -16 -42.5t-4 -64.5v-154q0 -86 -44 -133
q-48 -51 -143 -51h-145q-15 -137 -121 -208q-82 -54 -188 -54q-77 0 -145 31q-74 34 -117 97q-48 71 -49 169q0 57 19 106q22 50 56 79l56 -30q-46 -23 -68 -71q-15 -34 -15 -77v-9q4 -89 80 -149q73 -59 181 -59q96 0 159 56q53 48 61 119h-88q-80 0 -106 23v86
q21 -12 42.5 -16t64.5 -4h330q43 0 67 22q24 21 24 60v168q0 79 23 106zM791 -119q22 0 37.5 -15.5t15.5 -36.5q0 -22 -15.5 -37.5t-37.5 -15.5q-21 0 -36.5 15.5t-15.5 37.5q0 21 15.5 36.5t36.5 15.5zM932 -119q22 0 37.5 -15.5t15.5 -36.5q0 -22 -15.5 -37.5t-37.5 -15.5
q-21 0 -36.5 15.5t-15.5 37.5q0 21 15.5 36.5t36.5 15.5z" />
    <glyph glyph-name="uniE052" unicode="&#xfef4;&#xfe8a;" horiz-adv-x="1090" 
d="M183 328h-90q-32 0 -48 10v40q15 -10 46 -10q-13 15 -13 38q0 33 23.5 54t60.5 21q33 0 56 -16l-8 -25q-21 20 -43 20q-21 0 -35 -14t-14 -35q0 -19 14 -31t35 -12h16q36 0 52 -9v-41q-17 10 -52 10zM1110 89v-89h-34q-95 0 -143 51q-49 -51 -143 -51h-123
q-15 -137 -122 -208q-81 -54 -187 -54q-77 0 -145 31q-74 34 -117 97q-48 71 -49 169q0 57 19 106q22 50 56 79l56 -30q-46 -23 -68 -71q-15 -34 -15 -77v-9q4 -89 80 -149q73 -59 181 -59q96 0 159 56q53 48 61 119h-88q-80 0 -106 23v86q21 -12 42.5 -16t64.5 -4h308
q43 0 67 22q24 21 24 60v168q0 79 23 106h86q-12 -21 -16 -42.5t-4 -64.5v-154v-6v-7q0 -44 31 -66q23 -16 60 -16h42zM791 -119q22 0 37.5 -15.5t15.5 -36.5q0 -22 -15.5 -37.5t-37.5 -15.5q-21 0 -36.5 15.5t-15.5 37.5q0 21 15.5 36.5t36.5 15.5zM932 -119
q22 0 37.5 -15.5t15.5 -36.5q0 -22 -15.5 -37.5t-37.5 -15.5q-21 0 -36.5 15.5t-15.5 37.5q0 21 15.5 36.5t36.5 15.5z" />
    <glyph glyph-name="uniE0A2" unicode="Th" horiz-adv-x="1008" 
d="M943 394v-279q0 -70 26 -115h-94q-26 29 -26 112v263q0 87 -90 87q-31 0 -59.5 -24t-44.5 -63v-260q0 -65 26 -115h-94q-26 29 -26 115v486q0 31 -10 40t-44 9h-182q2 -9 2 -28v-20v-486q0 -66 25 -116h-98q-27 28 -27 113v486q0 29 -3 50h-112q-54 0 -86 32
q-14 14 -21 33h536q60 0 86 -27t26 -88v-162q9 22 39 52q47 47 113 47q64 0 104 -46q34 -40 34 -96z" />
    <glyph glyph-name="uniE0A3" unicode="ft" horiz-adv-x="661" 
d="M514 525l42 1q79 0 96 -73l-2 -1q-27 15 -91 15h-45v-338q0 -48 5 -75t20 -54h-93q-15 21 -20.5 48t-5.5 81v344h-222v-344q0 -50 5 -73.5t22 -55.5h-96q-25 29 -25 129v344h-27q-21 0 -43 18t-22 35h92v67q0 129 154 129q38 0 85 -17q36 -12 40 -21l-26 -65
q-40 56 -86 56q-73 0 -73 -82v-67h131q75 0 128 45q36 29 57 73v-119z" />
    <glyph glyph-name="uniE0A4" unicode="fj" horiz-adv-x="573" 
d="M420 -76v550h-221v-359q0 -66 26 -115h-93q-26 31 -26 115v359h-26q-44 0 -67 52h93v67q0 63 68 100q55 29 133 29h10q92 -2 147 -40l-32 -63q-44 55 -113 55q-45 0 -80 -18q-40 -20 -40 -57v-73h315v-578q0 -28 -2 -46q-9 -66 -52 -97q-40 -27 -107 -27q-79 0 -146 48
l30 62q51 -62 115 -62q37 0 52.5 22.5t15.5 75.5z" />
    <glyph glyph-name="uniE0A5" unicode="tt" horiz-adv-x="642" 
d="M400 466h-219v-356q0 -64 25 -110h-93q-26 29 -26 112v354h-72v55q69 0 124 61q25 26 42 62v-118h154q65 0 117 56q25 26 42 62v-118h42q79 0 96 -74q-29 14 -93 14h-45v-356q0 -64 25 -110h-93q-26 29 -26 112v354z" />
    <glyph glyph-name="ff" unicode="ff" horiz-adv-x="713" 
d="M104 526v65q0 65 69 101q57 29 140 29q91 0 148 -40q60 42 158 40q88 0 149 -40l-32 -64q-14 23 -46.5 39.5t-62.5 16.5q-53 0 -87 -18q-37 -20 -37 -58v-71h42q42 0 63 -15q22 -16 31 -52q-23 15 -76 15h-60v-361q0 -65 25 -113h-92q-26 31 -26 113v361h-26h-187v-361
q0 -65 25 -113h-92q-26 31 -26 113v361h-26q-42 0 -66 52h92zM197 526h121h92v65q0 19 8 40q-19 19 -45.5 30.5t-51.5 11.5q-53 0 -87 -18q-37 -20 -37 -58v-71z" />
    <glyph glyph-name="fi" unicode="fi" horiz-adv-x="579" 
d="M421 112v361h-222v-358q0 -66 26 -115h-94q-26 31 -26 115v358h-26q-44 0 -67 53h93v67q0 65 72 101q57 28 137 28q42 0 83.5 -11t66.5 -29l-32 -63q-19 25 -49.5 40t-61.5 15q-47 0 -81 -17q-41 -20 -41 -58v-73h316v-411q0 -73 25 -115h-93q-26 29 -26 112z" />
    <glyph glyph-name="fl" unicode="fl" horiz-adv-x="591" 
d="M105 526v67q0 129 209 129q42 0 187 -21q26 -29 26 -112v-474q0 -63 25 -115h-95q-26 29 -26 115v483q0 36 -29 56t-80 20q-52 0 -86 -20q-37 -21 -37 -59v-69h43q42 0 64 -15q22 -17 31 -53q-23 15 -77 15h-61v-359q0 -65 26 -114h-94q-26 31 -26 114v359h-26
q-44 0 -67 53h93z" />
    <glyph glyph-name="ffi" unicode="ffi" horiz-adv-x="884" 
d="M726 112v361h-222v-360q0 -65 25 -113h-92q-26 31 -26 113v360h-212v-360q0 -63 26 -113h-94q-26 31 -26 113v360h-27q-42 0 -66 53h93v66q0 65 69 101q57 29 140 29q91 0 148 -40q60 42 158 40q88 0 149 -40l-32 -64q-14 23 -46.5 39.5t-62.5 16.5q-53 0 -87 -18
q-37 -20 -37 -58v-72h316v-411q0 -73 25 -115h-93q-26 29 -26 112zM199 526h212v66q0 19 8 40q-19 19 -45.5 30.5t-51.5 11.5q-53 0 -86 -18q-37 -20 -37 -58v-72z" />
    <glyph glyph-name="ffl" unicode="ffl" horiz-adv-x="894" 
d="M831 589v-476q0 -67 24 -113h-93q-26 29 -26 113v484q0 36 -29 56.5t-80 20.5q-53 0 -87 -20q-38 -22 -38 -63v-65h43q41 0 63 -16t30 -51q-22 15 -76 15h-60v-361q0 -73 26 -113h-93q-25 30 -25 113v361h-214v-361q0 -66 26 -113h-93q-25 30 -25 113v361h-26
q-42 0 -66 52h92v66q0 65 69 101q57 29 140 29q87 0 148 -40q58 40 158 40q45 0 158 -18l28 -3q26 -29 26 -112zM196 526h214v66q0 25 8 40q-19 19 -45.5 30.5t-51.5 11.5q-53 0 -87 -20q-38 -22 -38 -63v-65z" />
    <glyph glyph-name="uniFC32" unicode="&#xfed3;&#xfe8a;" horiz-adv-x="1147" arabic-form="isolated" 
d="M908 554q-22 0 -37.5 15.5t-15.5 37.5q0 21 15.5 36.5t37.5 15.5q21 0 36.5 -15.5t15.5 -36.5q0 -22 -15.5 -37.5t-36.5 -15.5zM905 445h194q-12 -21 -16 -42.5t-4 -64.5v-154q0 -86 -44 -133q-48 -51 -143 -51h-225q-14 -136 -121 -208q-81 -54 -187 -54q-77 0 -145 31
q-74 34 -117 97q-48 71 -49 169q0 57 19 106q22 50 56 79l56 -30q-46 -23 -68 -71q-15 -34 -15 -77v-9q4 -89 80 -149q73 -59 181 -59q96 0 159 56q52 48 61 119h-88q-80 0 -106 23v86q21 -12 42.5 -16t64.5 -4h234q-45 51 -45 133q0 109 74 171q62 52 152 52zM990 171v167
q0 34 5 61h-73q-82 -1 -122 -54q-33 -43 -33 -114q0 -66 40 -105q37 -37 98 -37q39 0 62 21q23 22 23 61zM289 -365q21 0 36.5 -15.5t15.5 -37.5q0 -21 -15.5 -36.5t-36.5 -15.5q-22 0 -37.5 15.5t-15.5 36.5q0 22 15.5 37.5t37.5 15.5zM430 -365q21 0 36.5 -15.5
t15.5 -37.5q0 -21 -15.5 -36.5t-36.5 -15.5q-22 0 -37.5 15.5t-15.5 36.5q0 22 15.5 37.5t37.5 15.5z" />
    <glyph glyph-name="uniFC59" unicode="&#xfef3;&#xfef0;" horiz-adv-x="1067" arabic-form="isolated" 
d="M933 445h86q-12 -21 -16 -42.5t-4 -64.5v-154q0 -86 -44 -133q-48 -51 -143 -51h-145q-14 -137 -121 -208q-81 -54 -187 -54q-77 0 -145 31q-74 34 -117 97q-48 71 -49 169q0 57 19 106q22 50 56 79l56 -30q-46 -23 -68 -71q-15 -34 -15 -77v-9q4 -89 80 -149
q73 -59 181 -59q96 0 159 56q52 48 61 119h-88q-80 0 -106 23v86q21 -12 42.5 -16t64.5 -4h330q42 0 66 22q24 21 24 60v168q0 79 23 106zM792 -119q21 0 36.5 -15.5t15.5 -36.5q0 -22 -15.5 -37.5t-36.5 -15.5q-22 0 -37.5 15.5t-15.5 37.5q0 21 15.5 36.5t37.5 15.5z
M933 -119q21 0 36.5 -15.5t15.5 -36.5q0 -22 -15.5 -37.5t-36.5 -15.5q-22 0 -37.5 15.5t-15.5 37.5q0 21 15.5 36.5t37.5 15.5z" />
    <glyph glyph-name="uniFC5A" unicode="&#xfef3;&#xfef2;" horiz-adv-x="1067" arabic-form="isolated" 
d="M933 445h86q-12 -21 -16 -42.5t-4 -64.5v-154q0 -86 -44 -133q-48 -51 -143 -51h-145q-14 -137 -121 -208q-81 -54 -187 -54q-77 0 -145 31q-74 34 -117 97q-48 71 -49 169q0 57 19 106q22 50 56 79l56 -30q-46 -23 -68 -71q-15 -34 -15 -77v-9q4 -89 80 -149
q73 -59 181 -59q96 0 159 56q52 48 61 119h-88q-80 0 -106 23v86q21 -12 42.5 -16t64.5 -4h330q42 0 66 22q24 21 24 60v168q0 79 23 106zM792 -119q21 0 36.5 -15.5t15.5 -36.5q0 -22 -15.5 -37.5t-36.5 -15.5q-22 0 -37.5 15.5t-15.5 37.5q0 21 15.5 36.5t37.5 15.5z
M933 -119q21 0 36.5 -15.5t15.5 -36.5q0 -22 -15.5 -37.5t-36.5 -15.5q-22 0 -37.5 15.5t-15.5 37.5q0 21 15.5 36.5t37.5 15.5zM289 -365q21 0 36.5 -15.5t15.5 -37.5q0 -21 -15.5 -36.5t-36.5 -15.5q-22 0 -37.5 15.5t-15.5 36.5q0 22 15.5 37.5t37.5 15.5zM430 -365
q21 0 36.5 -15.5t15.5 -37.5q0 -21 -15.5 -36.5t-36.5 -15.5q-22 0 -37.5 15.5t-15.5 36.5q0 22 15.5 37.5t37.5 15.5z" />
    <glyph glyph-name="uniFC63" unicode="&#x651;&#x670;" arabic-form="isolated" 
d="M154 928h40q-10 -14 -10 -52v-67q0 -35 -10 -50h-40q10 16 10 47v71q0 38 10 51zM277 694h40q-9 -14 -9 -47v-23q0 -35 -26 -59q-24 -22 -61 -22q-41 0 -68 28q-24 -28 -66 -28t-67 28q-20 23 -20 53v21q0 33 10 49h39q-9 -14 -9 -47v-21q0 -18 14 -30.5t33 -12.5
t33 12.5t14 30.5v19q0 34 9 49h40q-10 -15 -10 -47v-21q0 -18 14.5 -30.5t33.5 -12.5t33 12.5t14 30.5v19q0 33 9 49z" />
    <glyph glyph-name="uniFC95" unicode="&#xfef4;&#xfef0;" horiz-adv-x="1090" arabic-form="final" 
d="M1110 89v-89h-34q-95 0 -143 51q-49 -51 -143 -51h-123q-15 -137 -121 -208q-81 -54 -187 -54q-77 0 -145 31q-74 34 -117 97q-48 71 -49 169q0 57 19 106q22 50 56 79l56 -30q-46 -23 -68 -71q-15 -34 -15 -77v-9q4 -89 80 -149q73 -59 181 -59q96 0 158 56
q53 48 62 119h-88q-80 0 -106 23v86q21 -12 42.5 -16t63.5 -4h309q42 0 66 22q24 21 24 60v168q0 78 23 106h86q-12 -21 -16 -42.5t-4 -64.5v-154v-6v-7q0 -39 24 -60.5t67 -21.5h42zM792 -119q21 0 36.5 -15.5t15.5 -36.5q0 -22 -15.5 -37.5t-36.5 -15.5q-22 0 -37.5 15.5
t-15.5 37.5q0 21 15.5 36.5t37.5 15.5zM933 -119q21 0 36.5 -15.5t15.5 -36.5q0 -22 -15.5 -37.5t-36.5 -15.5q-22 0 -37.5 15.5t-15.5 37.5q0 21 15.5 36.5t37.5 15.5z" />
    <glyph glyph-name="uniFC96" unicode="&#xfef4;&#xfef2;" horiz-adv-x="1090" arabic-form="final" 
d="M1110 89v-89h-34q-95 0 -143 51q-49 -51 -143 -51h-123q-15 -137 -121 -208q-81 -54 -187 -54q-77 0 -145 31q-74 34 -117 97q-48 71 -49 169q0 57 19 106q22 50 56 79l56 -30q-46 -23 -68 -71q-15 -34 -15 -77v-9q4 -89 80 -149q73 -59 181 -59q96 0 158 56
q53 48 62 119h-88q-80 0 -106 23v86q21 -12 42.5 -16t63.5 -4h309q42 0 66 22q24 21 24 60v168q0 78 23 106h86q-12 -21 -16 -42.5t-4 -64.5v-154v-6v-7q0 -39 24 -60.5t67 -21.5h42zM792 -119q21 0 36.5 -15.5t15.5 -36.5q0 -22 -15.5 -37.5t-36.5 -15.5q-22 0 -37.5 15.5
t-15.5 37.5q0 21 15.5 36.5t37.5 15.5zM933 -119q21 0 36.5 -15.5t15.5 -36.5q0 -22 -15.5 -37.5t-36.5 -15.5q-22 0 -37.5 15.5t-15.5 37.5q0 21 15.5 36.5t37.5 15.5zM289 -365q21 0 36.5 -15.5t15.5 -37.5q0 -21 -15.5 -36.5t-36.5 -15.5q-22 0 -37.5 15.5t-15.5 36.5
q0 22 15.5 37.5t37.5 15.5zM430 -365q21 0 36.5 -15.5t15.5 -37.5q0 -21 -15.5 -36.5t-36.5 -15.5q-22 0 -37.5 15.5t-15.5 36.5q0 22 15.5 37.5t37.5 15.5z" />
    <glyph glyph-name="uniFDF2" unicode="&#x627;&#xfedf;&#xfee0;&#x650;&#xfeea;" horiz-adv-x="1206" arabic-form="isolated" 
d="M797 850v-54q0 -34 -10 -50h-40q10 17 10 48v57q0 37 10 51h40q-10 -14 -10 -52zM1072 681h86q-12 -21 -16 -42.5t-4 -64.5v-390q0 -86 -44 -133q-48 -51 -143 -51h-59q-95 0 -142 51q-49 -51 -143 -51h-60q-89 0 -135 45q-49 -58 -149 -58q-98 0 -158 69q-57 61 -57 165
q0 105 69 172q60 57 143 57q66 0 110 -35q4 17 13 30h86q-12 -21 -16 -42.5t-4 -64.5v-166v-1q0 -39 23.5 -60.5t66.5 -21.5h76q42 0 66 22q24 21 24 60v168q0 78 23 106h86q-12 -21 -16 -42.5t-4 -64.5v-154v-6v-7q0 -39 24 -60.5t66 -21.5h75q42 0 66 22q24 21 24 60v404
q0 78 23 106zM361 158v165q0 32 -27 57q-26 23 -64 23q-61 0 -99 -53q-34 -47 -34 -118q0 -77 40 -119q35 -37 93 -37q43 0 67 22q24 21 24 60zM701 529q-42 0 -67 28q-20 23 -20 53v21q0 34 10 50h39q-9 -14 -9 -47v-22q0 -17 14 -30t33 -13t33.5 13t14.5 30v19q0 35 8 50
h40q-9 -16 -9 -47v-22q0 -18 14 -30.5t33 -12.5t33 13t14 30v19q0 34 10 50h40q-10 -14 -10 -47v-24q0 -35 -26 -59q-24 -22 -61 -22q-39 0 -67 29q-27 -29 -67 -29z" />
    <glyph glyph-name="uniFEF5" unicode="&#xfedf;&#xfe82;" horiz-adv-x="517" arabic-form="isolated" 
d="M41 677q-21 0 -49 -16l-10 16q43 37 71 39h4q15 0 48 -13q43 -18 70 -17q22 1 49 16l10 -16q-43 -36 -72 -39h-5q-17 0 -50 14q-42 16 -66 16zM383 681h86q-12 -21 -16 -42.5t-4 -64.5l1 -366q0 -101 -74 -163q-67 -56 -170 -56q-97 0 -159 53l31 68q38 -49 103 -55
q32 -1 51 16.5t21 49.5q1 31 -19 74t-72 123l-61 93q-33 52 -33 92v10l71 45q1 -29 7 -48.5t25 -55.5q70 -127 94 -172q40 -71 40 -145q0 -29 -7 -54q63 30 63 118v374q0 80 22 106z" />
    <glyph glyph-name="uniFEF6" unicode="&#xfee0;&#xfe82;" horiz-adv-x="563" arabic-form="final" 
d="M162 647h-5q-17 0 -50 14q-42 16 -66 16q-21 0 -49 -16l-10 16q43 37 71 39h4q15 0 48 -13q43 -18 70 -17q22 1 49 16l10 -16q-43 -36 -72 -39zM582 89v-89h-34q-106 0 -153 63q-68 -74 -189 -74q-97 0 -159 53l31 68q38 -49 103 -55q32 -1 51 16.5t21 49.5q1 31 -19 74
t-72 123l-61 93q-33 53 -33 92v10l71 45q1 -29 7 -48.5t25 -55.5q70 -126 94 -171q40 -72 40 -146q0 -29 -7 -54q63 30 63 118v374q0 80 22 106h86q-12 -21 -16 -42.5t-4 -64.5l1 -332v-71q0 -39 23.5 -60.5t66.5 -21.5h42z" />
    <glyph glyph-name="uniFEF7" unicode="&#xfedf;&#xfe84;" horiz-adv-x="517" arabic-form="isolated" 
d="M128 806q32 0 56 -15l-8 -25q-20 19 -43 19q-21 0 -35 -14t-14 -35q0 -19 14 -31t35 -12h16q37 0 52 -9v-41q-15 10 -52 10h-90q-32 0 -48 10v40q15 -10 46 -10q-13 17 -13 38q0 33 23.5 54t60.5 21zM383 681h86q-12 -21 -16 -42.5t-4 -64.5l1 -366q0 -101 -74 -163
q-67 -56 -170 -56q-97 0 -159 53l31 68q38 -49 103 -55q32 -1 51 16.5t21 49.5q1 31 -19 74t-72 123l-61 93q-33 52 -33 92v10l71 45q1 -29 7 -48.5t25 -55.5q72 -130 94 -172q40 -71 40 -145q0 -29 -7 -54q63 30 63 118v374q0 80 22 106z" />
    <glyph glyph-name="uniFEF8" unicode="&#xfee0;&#xfe84;" horiz-adv-x="563" arabic-form="final" 
d="M149 653h-90q-32 0 -48 10v40q15 -10 46 -10q-13 17 -13 38q0 33 23.5 54t60.5 21q32 0 56 -15l-8 -25q-20 19 -43 19q-21 0 -35 -14t-14 -35q0 -19 14 -31t35 -12h16q37 0 52 -9v-41q-15 10 -52 10zM582 89v-89h-34q-107 0 -154 63q-68 -74 -189 -74q-97 0 -159 53
l31 68q38 -49 103 -55q32 -1 51 16.5t21 49.5q1 31 -19 74t-72 123l-61 93q-33 53 -33 92v10l71 45q1 -29 7 -48.5t25 -55.5q72 -130 94 -171q40 -72 40 -146q0 -29 -7 -54q63 30 63 118v374q0 80 22 106h86q-12 -21 -16 -42.5t-4 -64.5l1 -332v-71q0 -39 24 -60.5t67 -21.5
h42z" />
    <glyph glyph-name="uniFEF9" unicode="&#xfedf;&#xfe88;" horiz-adv-x="517" arabic-form="isolated" 
d="M384 681h85q-12 -21 -16 -42.5t-4 -64.5l1 -366q0 -101 -74 -163q-66 -56 -170 -56q-97 0 -158 53l31 68q37 -49 102 -55q32 -1 51.5 16.5t21.5 49.5q1 31 -19 74t-73 123l-61 93q-32 52 -32 92v10l71 45q0 -30 6 -49t26 -55q74 -135 93 -172q41 -71 41 -145
q0 -29 -7 -54q63 30 63 118v374q0 80 22 106zM210 -111q33 0 55 -16l-7 -25q-20 20 -43 20q-22 0 -35.5 -14t-13.5 -35q0 -19 13.5 -31t35.5 -12h16q37 0 52 -10v-40q-15 10 -53 10h-90q-31 0 -47 10v40q15 -10 45 -10q-12 17 -12 38q0 33 23.5 54t60.5 21z" />
    <glyph glyph-name="uniFEFA" unicode="&#xfee0;&#xfe88;" horiz-adv-x="563" arabic-form="final" 
d="M583 89v-89h-35q-106 0 -153 63q-68 -74 -190 -74q-97 0 -158 53l31 68q37 -49 102 -55q32 -1 51.5 16.5t21.5 49.5q1 31 -19 74t-73 123l-61 93q-32 52 -32 92v10l71 45q0 -29 6 -48.5t26 -55.5q74 -134 93 -171q41 -72 41 -146q0 -29 -7 -54q63 30 63 118v374
q0 80 22 106h86q-12 -21 -16 -42.5t-4 -64.5l1 -332v-71q0 -39 23.5 -60.5t66.5 -21.5h43zM215 -224h16q37 0 52 -10v-40q-15 10 -53 10h-90q-31 0 -47 10v40q15 -10 45 -10q-12 17 -12 38q0 33 23.5 54t60.5 21q33 0 55 -16l-7 -25q-20 20 -43 20q-22 0 -35.5 -14
t-13.5 -35q0 -19 13.5 -31t35.5 -12z" />
    <glyph glyph-name="uniFEFB" unicode="&#xfedf;&#xfe8e;" horiz-adv-x="517" arabic-form="isolated" 
d="M384 681h85q-12 -21 -16 -42.5t-4 -64.5l1 -366q0 -101 -74 -163q-66 -56 -170 -56q-97 0 -158 53l31 68q37 -49 102 -55q32 -1 51.5 16.5t21.5 49.5q1 31 -19 74t-73 123l-61 93q-32 52 -32 92v10l71 45q0 -30 6 -49t26 -55q74 -135 93 -172q41 -71 41 -145
q0 -29 -7 -54q63 30 63 118v374q0 80 22 106z" />
    <glyph glyph-name="uniFEFC" unicode="&#xfee0;&#xfe8e;" horiz-adv-x="563" arabic-form="final" 
d="M583 89v-89h-35q-106 0 -153 63q-68 -74 -190 -74q-97 0 -158 53l31 68q37 -49 102 -55q32 -1 51.5 16.5t21.5 49.5q1 31 -19 74t-73 123l-61 93q-32 52 -32 92v10l71 45q0 -29 6 -48.5t26 -55.5q74 -134 93 -171q41 -72 41 -146q0 -29 -7 -54q63 30 63 118v374
q0 80 22 106h86q-12 -21 -16 -42.5t-4 -64.5l1 -332v-71q0 -39 23.5 -60.5t66.5 -21.5h43z" />
    <glyph glyph-name="uniFB51" unicode="&#x671;" horiz-adv-x="274" arabic-form="final" 
d="M202 897q20 -1 32 -15t12 -35v-6q-3 -24 -22.5 -41.5t-44.5 -17.5h-5q-16 0 -50 14q-42 16 -66 16q-21 0 -49 -15l-10 15q43 37 71 39h3q15 0 40 -10q4 -1 8 -1q6 0 10 4l15 20q25 34 56 33zM195 864q-6 0 -19 -16q-14 -19 -18 -23l4 -1q4 -1 8 -1q15 0 25 8.5t10 21.5
q0 11 -10 11zM94 681h86q-12 -21 -16 -41.5t-4 -65.5v-403q0 -39 24 -60.5t67 -21.5h42v-89h-34q-108 0 -155 65q-33 46 -33 119v391q0 80 23 106z" />
    <glyph glyph-name="uniFB53" unicode="&#x67b;" horiz-adv-x="1088" arabic-form="final" 
d="M1110 89v-88h-34q-96 0 -143 50q-47 -51 -143 -51h-454q-131 0 -212 76q-74 70 -75 182q-2 116 75 187l58 -31q-49 -24 -70 -71q-15 -32 -15 -69q0 -11 1 -21q12 -83 89 -128q60 -35 137 -36h473q43 0 67 21t24 60v169q0 79 23 106h86q-12 -21 -16 -42.5t-4 -64.5v-155
v-2v-10q0 -39 24 -60.5t67 -21.5h42zM539 -119q22 0 37.5 -15.5t15.5 -36.5q0 -22 -15.5 -37.5t-37.5 -15.5q-21 0 -36.5 15.5t-15.5 37.5q0 21 15.5 36.5t36.5 15.5zM538 -260q22 0 37.5 -15.5t15.5 -36.5q0 -22 -15.5 -37.5t-37.5 -15.5q-21 0 -36.5 15.5t-15.5 37.5
q0 21 15.5 36.5t36.5 15.5z" />
    <glyph glyph-name="uniFB54" unicode="&#x67b;" horiz-adv-x="298" arabic-form="initial" 
d="M165 445h86q-12 -21 -16 -42.5t-4 -64.5v-154q0 -86 -44 -133q-48 -51 -143 -51h-44v89h51q43 0 67 22q24 21 24 60v168q0 78 23 106zM162 -224q-21 0 -36.5 15.5t-15.5 37.5q0 21 15.5 36.5t36.5 15.5q22 0 37.5 -15.5t15.5 -36.5q0 -22 -15.5 -37.5t-37.5 -15.5z
M161 -365q-21 0 -36.5 15.5t-15.5 37.5q0 21 15.5 36.5t36.5 15.5q22 0 37.5 -15.5t15.5 -36.5q0 -22 -15.5 -37.5t-37.5 -15.5z" />
    <glyph glyph-name="uniFB55" unicode="&#x67b;" horiz-adv-x="344" arabic-form="medial" 
d="M363 89v-89h-34q-95 0 -142 51q-49 -51 -143 -51h-44v89h51q43 0 67 22q24 21 24 60v168q0 78 23 106h86q-12 -21 -16 -42.5t-4 -64.5v-154v-6v-7q0 -39 23.5 -60.5t66.5 -21.5h42zM186 -119q22 0 37.5 -15.5t15.5 -36.5q0 -22 -15.5 -37.5t-37.5 -15.5q-21 0 -36.5 15.5
t-15.5 37.5q0 21 15.5 36.5t36.5 15.5zM186 -260q22 0 37.5 -15.5t15.5 -36.5q0 -22 -15.5 -37.5t-37.5 -15.5q-21 0 -36.5 15.5t-15.5 37.5q0 21 15.5 36.5t36.5 15.5z" />
    <glyph glyph-name="uniFB57" unicode="&#x67e;" horiz-adv-x="1088" arabic-form="final" 
d="M1109 89v-88h-34q-96 0 -143 50q-47 -51 -143 -51h-454q-131 0 -212 76q-74 70 -75 182q-2 116 75 187l58 -31q-49 -24 -70 -71q-15 -32 -15 -69q0 -11 1 -21q12 -83 89 -128q60 -35 137 -36h473q43 0 67 21t24 60v169q0 79 23 106h86q-12 -21 -16 -42.5t-4 -64.5v-155
v-2v-10q0 -39 24 -60.5t67 -21.5h42zM522 -171q0 -22 -15.5 -37.5t-37.5 -15.5q-21 0 -36.5 15.5t-15.5 37.5q0 21 15.5 36.5t36.5 15.5q22 0 37.5 -15.5t15.5 -36.5zM610 -119q22 0 37.5 -15.5t15.5 -36.5q0 -22 -15.5 -37.5t-37.5 -15.5q-21 0 -36.5 15.5t-15.5 37.5
q0 21 15.5 36.5t36.5 15.5zM539 -235q22 0 37.5 -15.5t15.5 -37.5q0 -21 -15.5 -36.5t-37.5 -15.5q-21 0 -36.5 15.5t-15.5 36.5q0 22 15.5 37.5t36.5 15.5z" />
    <glyph glyph-name="uniFB58" unicode="&#x67e;" horiz-adv-x="298" arabic-form="initial" 
d="M164 445h86q-12 -21 -16 -42.5t-4 -64.5v-154q0 -86 -44 -133q-48 -51 -142 -51h-44v89h51q42 0 66 22q24 21 24 60v168q0 79 23 106zM22 -119q22 0 37.5 -15.5t15.5 -36.5q0 -22 -15.5 -37.5t-37.5 -15.5q-21 0 -36.5 15.5t-15.5 37.5q0 21 15.5 36.5t36.5 15.5z
M163 -119q22 0 37.5 -15.5t15.5 -36.5q0 -22 -15.5 -37.5t-37.5 -15.5q-21 0 -36.5 15.5t-15.5 37.5q0 21 15.5 36.5t36.5 15.5zM93 -235q22 0 37.5 -15.5t15.5 -37.5q0 -21 -15.5 -36.5t-37.5 -15.5q-21 0 -36.5 15.5t-15.5 36.5q0 22 15.5 37.5t36.5 15.5z" />
    <glyph glyph-name="uniFB59" unicode="&#x67e;" horiz-adv-x="345" arabic-form="medial" 
d="M363 89v-89h-34q-95 0 -142 51q-49 -51 -143 -51h-44v89h51q43 0 67 22q24 21 24 60v168q0 79 23 106h86q-12 -21 -16 -42.5t-4 -64.5v-154v-6v-7q0 -39 23.5 -60.5t66.5 -21.5h42zM97 -171q0 -22 -15.5 -37.5t-37.5 -15.5q-21 0 -36.5 15.5t-15.5 37.5q0 21 15.5 36.5
t36.5 15.5q22 0 37.5 -15.5t15.5 -36.5zM185 -119q22 0 37.5 -15.5t15.5 -36.5q0 -22 -15.5 -37.5t-37.5 -15.5q-21 0 -36.5 15.5t-15.5 37.5q0 21 15.5 36.5t36.5 15.5zM115 -235q22 0 37.5 -15.5t15.5 -37.5q0 -21 -15.5 -36.5t-37.5 -15.5q-21 0 -36.5 15.5t-15.5 36.5
q0 22 15.5 37.5t36.5 15.5z" />
    <glyph glyph-name="uniFB5A" unicode="&#x680;" horiz-adv-x="1040" arabic-form="isolated" 
d="M911 445h86q-12 -21 -16 -42.5t-4 -64.5v-154q0 -86 -44 -133q-48 -51 -143 -51h-454q-131 0 -212 76q-74 70 -75 182q-2 116 75 187l58 -30q-49 -25 -70 -72q-15 -31 -15 -68q0 -11 1 -21q12 -83 89 -129q60 -35 137 -36h473q43 0 67 22q24 21 24 60v168q0 79 23 106z
M470 -224q-21 0 -36.5 15.5t-15.5 37.5q0 21 15.5 36.5t36.5 15.5q22 0 37.5 -15.5t15.5 -36.5q0 -22 -15.5 -37.5t-37.5 -15.5zM611 -224q-21 0 -36.5 15.5t-15.5 37.5q0 21 15.5 36.5t36.5 15.5q22 0 37.5 -15.5t15.5 -36.5q0 -22 -15.5 -37.5t-37.5 -15.5zM470 -365
q-21 0 -36.5 15.5t-15.5 37.5q0 21 15.5 36.5t36.5 15.5q22 0 37.5 -15.5t15.5 -36.5q0 -22 -15.5 -37.5t-37.5 -15.5zM611 -365q-21 0 -36.5 15.5t-15.5 37.5q0 21 15.5 36.5t36.5 15.5q22 0 37.5 -15.5t15.5 -36.5q0 -22 -15.5 -37.5t-37.5 -15.5z" />
    <glyph glyph-name="uniFB5B" unicode="&#x680;" horiz-adv-x="1088" arabic-form="final" 
d="M1110 89v-88h-34q-96 0 -143 50q-47 -51 -143 -51h-454q-131 0 -212 76q-74 70 -75 182q-2 116 75 187l58 -31q-49 -24 -70 -71q-15 -32 -15 -69q0 -11 1 -21q12 -83 89 -128q60 -35 137 -36h473q43 0 67 21t24 60v169q0 79 23 106h86q-12 -21 -16 -42.5t-4 -64.5v-155
v-2v-10q0 -39 24 -60.5t67 -21.5h42zM470 -119q22 0 37.5 -15.5t15.5 -36.5q0 -22 -15.5 -37.5t-37.5 -15.5q-21 0 -36.5 15.5t-15.5 37.5q0 21 15.5 36.5t36.5 15.5zM611 -119q22 0 37.5 -15.5t15.5 -36.5q0 -22 -15.5 -37.5t-37.5 -15.5q-21 0 -36.5 15.5t-15.5 37.5
q0 21 15.5 36.5t36.5 15.5zM470 -260q22 0 37.5 -15.5t15.5 -36.5q0 -22 -15.5 -37.5t-37.5 -15.5q-21 0 -36.5 15.5t-15.5 37.5q0 21 15.5 36.5t36.5 15.5zM611 -260q22 0 37.5 -15.5t15.5 -36.5q0 -22 -15.5 -37.5t-37.5 -15.5q-21 0 -36.5 15.5t-15.5 37.5
q0 21 15.5 36.5t36.5 15.5z" />
    <glyph glyph-name="uniFB5C" unicode="&#x680;" horiz-adv-x="298" arabic-form="initial" 
d="M164 445h86q-12 -21 -16 -42.5t-4 -64.5v-154q0 -86 -44 -133q-48 -51 -142 -51h-44v89h51q42 0 66 22q24 21 24 60v168q0 79 23 106zM22 -119q22 0 37.5 -15.5t15.5 -36.5q0 -22 -15.5 -37.5t-37.5 -15.5q-21 0 -36.5 15.5t-15.5 37.5q0 21 15.5 36.5t36.5 15.5z
M163 -119q22 0 37.5 -15.5t15.5 -36.5q0 -22 -15.5 -37.5t-37.5 -15.5q-21 0 -36.5 15.5t-15.5 37.5q0 21 15.5 36.5t36.5 15.5zM22 -365q-21 0 -36.5 15.5t-15.5 37.5q0 21 15.5 36.5t36.5 15.5q22 0 37.5 -15.5t15.5 -36.5q0 -22 -15.5 -37.5t-37.5 -15.5zM163 -365
q-21 0 -36.5 15.5t-15.5 37.5q0 21 15.5 36.5t36.5 15.5q22 0 37.5 -15.5t15.5 -36.5q0 -22 -15.5 -37.5t-37.5 -15.5z" />
    <glyph glyph-name="uniFB5D" unicode="&#x680;" horiz-adv-x="344" arabic-form="medial" 
d="M363 89v-89h-34q-95 0 -142 51q-49 -51 -143 -51h-44v89h51q43 0 67 22q24 21 24 60v168q0 79 23 106h86q-12 -21 -16 -42.5t-4 -64.5v-154v-6v-7q0 -39 23.5 -60.5t66.5 -21.5h42zM44 -119q22 0 37.5 -15.5t15.5 -36.5q0 -22 -15.5 -37.5t-37.5 -15.5q-21 0 -36.5 15.5
t-15.5 37.5q0 21 15.5 36.5t36.5 15.5zM185 -119q22 0 37.5 -15.5t15.5 -36.5q0 -22 -15.5 -37.5t-37.5 -15.5q-21 0 -36.5 15.5t-15.5 37.5q0 21 15.5 36.5t36.5 15.5zM44 -260q22 0 37.5 -15.5t15.5 -36.5q0 -22 -15.5 -37.5t-37.5 -15.5q-21 0 -36.5 15.5t-15.5 37.5
q0 21 15.5 36.5t36.5 15.5zM185 -260q22 0 37.5 -15.5t15.5 -36.5q0 -22 -15.5 -37.5t-37.5 -15.5q-21 0 -36.5 15.5t-15.5 37.5q0 21 15.5 36.5t36.5 15.5z" />
    <glyph glyph-name="uniFB5F" unicode="&#x67a;" horiz-adv-x="1088" arabic-form="final" 
d="M532 534q-21 0 -36.5 15.5t-15.5 37.5q0 21 15.5 36.5t36.5 15.5q22 0 37.5 -15.5t15.5 -36.5q0 -22 -15.5 -37.5t-37.5 -15.5zM532 393q-21 0 -36.5 15.5t-15.5 37.5q0 21 15.5 36.5t36.5 15.5q22 0 37.5 -15.5t15.5 -36.5q0 -22 -15.5 -37.5t-37.5 -15.5zM1110 89v-88
h-34q-96 0 -143 50q-47 -51 -143 -51h-454q-131 0 -212 76q-74 70 -75 182q-2 116 75 187l58 -31q-49 -24 -70 -71q-15 -32 -15 -69q0 -11 1 -21q12 -83 89 -128q60 -35 137 -36h473q43 0 67 21t24 60v169q0 79 23 106h86q-12 -21 -16 -42.5t-4 -64.5v-155v-2v-10
q0 -39 24 -60.5t67 -21.5h42z" />
    <glyph glyph-name="uniFB60" unicode="&#x67a;" horiz-adv-x="298" arabic-form="initial" 
d="M203 694q-22 0 -37.5 15.5t-15.5 36.5q0 22 15.5 37.5t37.5 15.5q21 0 36.5 -15.5t15.5 -37.5q0 -21 -15.5 -36.5t-36.5 -15.5zM203 554q-22 0 -37.5 15.5t-15.5 37.5q0 21 15.5 36.5t37.5 15.5q21 0 36.5 -15.5t15.5 -36.5q0 -22 -15.5 -37.5t-36.5 -15.5zM165 445h86
q-12 -21 -16 -42.5t-4 -64.5v-154q0 -86 -44 -133q-48 -51 -143 -51h-44v89h51q43 0 67 22q24 21 24 60v168q0 78 23 106z" />
    <glyph glyph-name="uniFB61" unicode="&#x67a;" horiz-adv-x="344" arabic-form="medial" 
d="M203 695q-21 0 -36.5 15.5t-15.5 37.5q0 21 15.5 36.5t36.5 15.5q22 0 37.5 -15.5t15.5 -36.5q0 -22 -15.5 -37.5t-37.5 -15.5zM203 554q-22 0 -37.5 15.5t-15.5 37.5q0 21 15.5 36.5t37.5 15.5q21 0 36.5 -15.5t15.5 -36.5q0 -22 -15.5 -37.5t-36.5 -15.5zM363 89v-89
h-34q-95 0 -142 51q-49 -51 -143 -51h-44v89h51q43 0 67 22q24 21 24 60v168q0 78 23 106h86q-12 -21 -16 -42.5t-4 -64.5v-154v-6v-7q0 -39 23.5 -60.5t66.5 -21.5h42z" />
    <glyph glyph-name="uniFB62" unicode="&#x67f;" horiz-adv-x="1043" arabic-form="isolated" 
d="M461 534q-21 0 -36.5 15.5t-15.5 37.5q0 21 15.5 36.5t36.5 15.5q22 0 37.5 -15.5t15.5 -36.5q0 -22 -15.5 -37.5t-37.5 -15.5zM602 534q-21 0 -36.5 15.5t-15.5 37.5q0 21 15.5 36.5t36.5 15.5q22 0 37.5 -15.5t15.5 -36.5q0 -22 -15.5 -37.5t-37.5 -15.5zM461 393
q-21 0 -36.5 15.5t-15.5 37.5q0 21 15.5 36.5t36.5 15.5q22 0 37.5 -15.5t15.5 -36.5q0 -22 -15.5 -37.5t-37.5 -15.5zM602 393q-21 0 -36.5 15.5t-15.5 37.5q0 21 15.5 36.5t36.5 15.5q22 0 37.5 -15.5t15.5 -36.5q0 -22 -15.5 -37.5t-37.5 -15.5zM911 445h86
q-12 -21 -16 -42.5t-4 -64.5v-154q0 -86 -44 -133q-48 -51 -143 -51h-454q-131 0 -212 76q-74 70 -75 182q-2 116 75 187l58 -30q-49 -25 -70 -72q-15 -31 -15 -68q0 -11 1 -21q12 -83 89 -129q60 -35 137 -36h473q43 0 67 22q24 21 24 60v168q0 79 23 106z" />
    <glyph glyph-name="uniFB63" unicode="&#x67f;" horiz-adv-x="1088" arabic-form="final" 
d="M461 534q-21 0 -36.5 15.5t-15.5 37.5q0 21 15.5 36.5t36.5 15.5q22 0 37.5 -15.5t15.5 -36.5q0 -22 -15.5 -37.5t-37.5 -15.5zM602 534q-21 0 -36.5 15.5t-15.5 37.5q0 21 15.5 36.5t36.5 15.5q22 0 37.5 -15.5t15.5 -36.5q0 -22 -15.5 -37.5t-37.5 -15.5zM461 393
q-21 0 -36.5 15.5t-15.5 37.5q0 21 15.5 36.5t36.5 15.5q22 0 37.5 -15.5t15.5 -36.5q0 -22 -15.5 -37.5t-37.5 -15.5zM602 393q-21 0 -36.5 15.5t-15.5 37.5q0 21 15.5 36.5t36.5 15.5q22 0 37.5 -15.5t15.5 -36.5q0 -22 -15.5 -37.5t-37.5 -15.5zM1110 89v-88h-34
q-96 0 -143 50q-47 -51 -143 -51h-454q-131 0 -212 76q-74 70 -75 182q-2 116 75 187l58 -31q-49 -24 -70 -71q-15 -32 -15 -69q0 -11 1 -21q12 -83 89 -128q60 -35 137 -36h473q43 0 67 21t24 60v169q0 79 23 106h86q-12 -21 -16 -42.5t-4 -64.5v-155v-2v-10
q0 -39 24 -60.5t67 -21.5h42z" />
    <glyph glyph-name="uniFB64" unicode="&#x67f;" horiz-adv-x="298" arabic-form="initial" 
d="M62 694q-22 0 -37.5 15.5t-15.5 36.5q0 22 15.5 37.5t37.5 15.5q21 0 36.5 -15.5t15.5 -37.5q0 -21 -15.5 -36.5t-36.5 -15.5zM203 694q-22 0 -37.5 15.5t-15.5 36.5q0 22 15.5 37.5t37.5 15.5q21 0 36.5 -15.5t15.5 -37.5q0 -21 -15.5 -36.5t-36.5 -15.5zM62 554
q-22 0 -37.5 15.5t-15.5 37.5q0 21 15.5 36.5t37.5 15.5q21 0 36.5 -15.5t15.5 -36.5q0 -22 -15.5 -37.5t-36.5 -15.5zM203 554q-22 0 -37.5 15.5t-15.5 37.5q0 21 15.5 36.5t37.5 15.5q21 0 36.5 -15.5t15.5 -36.5q0 -22 -15.5 -37.5t-36.5 -15.5zM165 445h86
q-12 -21 -16 -42.5t-4 -64.5v-154q0 -86 -44 -133q-48 -51 -143 -51h-44v89h51q43 0 67 22q24 21 24 60v168q0 78 23 106z" />
    <glyph glyph-name="uniFB65" unicode="&#x67f;" horiz-adv-x="344" arabic-form="medial" 
d="M62 695q-22 0 -37.5 15.5t-15.5 37.5q0 21 15.5 36.5t37.5 15.5q21 0 36.5 -15.5t15.5 -36.5q0 -22 -15.5 -37.5t-36.5 -15.5zM203 695q-22 0 -37.5 15.5t-15.5 37.5q0 21 15.5 36.5t37.5 15.5q21 0 36.5 -15.5t15.5 -36.5q0 -22 -15.5 -37.5t-36.5 -15.5zM62 554
q-22 0 -37.5 15.5t-15.5 37.5q0 21 15.5 36.5t37.5 15.5q21 0 36.5 -15.5t15.5 -36.5q0 -22 -15.5 -37.5t-36.5 -15.5zM203 554q-22 0 -37.5 15.5t-15.5 37.5q0 21 15.5 36.5t37.5 15.5q21 0 36.5 -15.5t15.5 -36.5q0 -22 -15.5 -37.5t-36.5 -15.5zM363 89v-89h-34
q-95 0 -142 51q-49 -51 -143 -51h-44v89h51q43 0 67 22q24 21 24 60v168q0 78 23 106h86q-12 -21 -16 -42.5t-4 -64.5v-154v-6v-7q0 -39 23.5 -60.5t66.5 -21.5h42z" />
    <glyph glyph-name="uniFB67" unicode="&#x679;" horiz-adv-x="1088" arabic-form="final" 
d="M593 373h-143q-37 0 -53 -10v40q15 10 48 10v132q0 36 9 52h40q-9 -16 -9 -53v-62q33 48 89 48q37 0 63 -24q27 -23 27 -62q0 -32 -19.5 -51.5t-51.5 -19.5zM571 508q-30 0 -55.5 -27.5t-31.5 -67.5h105q14 0 24 9.5t10 24.5q0 27 -14.5 44t-37.5 17zM1109 89v-88h-34
q-96 0 -143 50q-47 -51 -143 -51h-454q-131 0 -212 76q-74 70 -75 182q-2 116 75 187l58 -31q-49 -24 -70 -71q-15 -32 -15 -69q0 -11 1 -21q12 -83 89 -128q60 -35 137 -36h473q43 0 67 21t24 60v169q0 79 23 106h86q-12 -21 -16 -42.5t-4 -64.5v-155v-2v-10
q0 -39 24 -60.5t67 -21.5h42z" />
    <glyph glyph-name="uniFB68" unicode="&#x679;" horiz-adv-x="298" arabic-form="initial" 
d="M61 781h39q-9 -17 -9 -53v-62q34 48 89 48q37 0 63 -24q27 -23 27 -62q0 -32 -19.5 -51.5t-51.5 -19.5h-143q-37 0 -52 -10v40q13 9 47 10v132q0 36 10 52zM178 692q-30 0 -55.5 -27.5t-31.5 -67.5h105q15 0 24.5 9.5t9.5 24.5q0 27 -14.5 44t-37.5 17zM165 445h86
q-12 -21 -16 -42.5t-4 -64.5v-154q0 -86 -44 -133q-48 -51 -143 -51h-44v89h51q43 0 67 22q24 21 24 60v168q0 78 23 106z" />
    <glyph glyph-name="uniFB69" unicode="&#x679;" horiz-adv-x="345" arabic-form="medial" 
d="M204 557h-143q-37 0 -52 -10v40q13 9 47 10v132q0 36 9 52h41q-10 -17 -10 -53v-62q34 48 89 48q37 0 63 -24q27 -23 27 -62q0 -32 -19.5 -51.5t-51.5 -19.5zM182 692q-30 0 -55 -27.5t-32 -67.5h105q15 0 24.5 9.5t9.5 24.5q0 27 -14.5 44t-37.5 17zM363 89v-89h-34
q-95 0 -142 51q-49 -51 -143 -51h-44v89h51q43 0 67 22q24 21 24 60v168q0 78 23 106h86q-12 -21 -16 -42.5t-4 -64.5v-154v-6v-7q0 -39 23.5 -60.5t66.5 -21.5h42z" />
    <glyph glyph-name="uniFB6B" unicode="&#x6a4;" horiz-adv-x="1084" arabic-form="final" 
d="M787 670q-21 0 -36.5 15.5t-15.5 37.5q0 21 15.5 36.5t36.5 15.5q22 0 37.5 -15.5t15.5 -36.5q0 -22 -15.5 -37.5t-37.5 -15.5zM717 554q-21 0 -36.5 15.5t-15.5 37.5q0 21 15.5 36.5t36.5 15.5q22 0 37.5 -15.5t15.5 -36.5q0 -22 -15.5 -37.5t-37.5 -15.5zM806 607
q0 21 15.5 36.5t36.5 15.5q22 0 37.5 -15.5t15.5 -36.5q0 -22 -15.5 -37.5t-37.5 -15.5q-21 0 -36.5 15.5t-15.5 37.5zM1104 89v-89h-177h-49q-57 0 -89 19q-30 -19 -88 -19h-50h-315q-131 0 -212 76q-74 70 -75 183q-2 115 75 186l57 -30q-48 -24 -69 -72q-15 -31 -15 -68
q0 -11 1 -21q12 -83 89 -129q59 -35 136 -36h328q-28 24 -45.5 63.5t-17.5 78.5q0 84 42 141q56 78 159 78q100 0 158 -76q43 -59 43 -143q0 -39 -17.5 -78.5t-45.5 -63.5h177zM880 163q21 36 21 85q0 59 -25 99q-34 56 -87 56q-54 0 -89 -58q-23 -39 -23 -97q0 -49 21 -85
q31 -53 91 -68q62 16 91 68z" />
    <glyph glyph-name="uniFB6C" unicode="&#x6a4;" horiz-adv-x="590" arabic-form="initial" 
d="M350 670q-22 0 -37.5 15.5t-15.5 37.5q0 21 15.5 36.5t37.5 15.5q21 0 36.5 -15.5t15.5 -36.5q0 -22 -15.5 -37.5t-36.5 -15.5zM280 554q-22 0 -37.5 15.5t-15.5 37.5q0 21 15.5 36.5t37.5 15.5q21 0 36.5 -15.5t15.5 -36.5q0 -22 -15.5 -37.5t-36.5 -15.5zM421 554
q-22 0 -37.5 15.5t-15.5 37.5q0 21 15.5 36.5t37.5 15.5q21 0 36.5 -15.5t15.5 -36.5q0 -22 -15.5 -37.5t-36.5 -15.5zM348 445h194q-12 -21 -16 -42.5t-4 -64.5v-154q0 -86 -44 -133q-48 -51 -143 -51h-335v89h167q-45 51 -45 133q0 109 74 171q62 52 152 52zM438 399h-73
q-82 -1 -122 -54q-33 -43 -33 -114q0 -66 40 -105q37 -37 98 -37q39 0 62 21q23 22 23 61v167q0 34 5 61z" />
    <glyph glyph-name="uniFB6D" unicode="&#x6a4;" horiz-adv-x="610" arabic-form="medial" 
d="M314 670q-22 0 -37.5 15.5t-15.5 37.5q0 21 15.5 36.5t37.5 15.5q21 0 36.5 -15.5t15.5 -36.5q0 -22 -15.5 -37.5t-36.5 -15.5zM244 554q-22 0 -37.5 15.5t-15.5 37.5q0 21 15.5 36.5t37.5 15.5q21 0 36.5 -15.5t15.5 -36.5q0 -22 -15.5 -37.5t-36.5 -15.5zM332 607
q0 21 15.5 36.5t37.5 15.5q21 0 36.5 -15.5t15.5 -36.5q0 -22 -15.5 -37.5t-36.5 -15.5q-22 0 -37.5 15.5t-15.5 37.5zM629 89v-89h-176h-49q-58 0 -89 19q-31 -19 -89 -19h-49h-177v89h177q-28 24 -45.5 63.5t-17.5 78.5q0 83 41 141q58 78 160 78q101 0 157 -76
q43 -57 43 -143q0 -39 -17 -78.5t-45 -63.5h176zM406 163q21 36 21 85q0 59 -25 99q-34 56 -87 56q-54 0 -89 -58q-23 -39 -23 -97q0 -49 21 -85q31 -53 91 -68q62 16 91 68z" />
    <glyph glyph-name="uniFB6E" unicode="&#x6a6;" horiz-adv-x="1055" arabic-form="isolated" 
d="M746 695q-21 0 -36.5 15.5t-15.5 37.5q0 21 15.5 36.5t36.5 15.5q22 0 37.5 -15.5t15.5 -36.5q0 -22 -15.5 -37.5t-37.5 -15.5zM887 695q-21 0 -36.5 15.5t-15.5 37.5q0 21 15.5 36.5t36.5 15.5q22 0 37.5 -15.5t15.5 -36.5q0 -22 -15.5 -37.5t-37.5 -15.5zM746 554
q-21 0 -36.5 15.5t-15.5 37.5q0 21 15.5 36.5t36.5 15.5q22 0 37.5 -15.5t15.5 -36.5q0 -22 -15.5 -37.5t-37.5 -15.5zM887 554q-21 0 -36.5 15.5t-15.5 37.5q0 21 15.5 36.5t36.5 15.5q22 0 37.5 -15.5t15.5 -36.5q0 -22 -15.5 -37.5t-37.5 -15.5zM816 445h194
q-12 -21 -16 -41.5t-4 -65.5v-154q0 -86 -44 -133q-48 -51 -143 -51h-466q-131 0 -212 76q-74 70 -75 182q-2 116 75 187l57 -31q-48 -24 -69 -71q-15 -31 -15 -68q0 -11 1 -21q12 -84 89 -129q59 -35 136 -36h491q39 0 63 21q23 22 23 61v167q0 34 5 61h-73
q-82 -1 -123 -54q-33 -43 -33 -114q0 -45 15 -70l-83 -28q-20 33 -20 89q0 109 74 171q62 52 153 52z" />
    <glyph glyph-name="uniFB6F" unicode="&#x6a6;" horiz-adv-x="1084" arabic-form="final" 
d="M718 695q-21 0 -36.5 15.5t-15.5 37.5q0 21 15.5 36.5t36.5 15.5q22 0 37.5 -15.5t15.5 -36.5q0 -22 -15.5 -37.5t-37.5 -15.5zM859 695q-21 0 -36.5 15.5t-15.5 37.5q0 21 15.5 36.5t36.5 15.5q22 0 37.5 -15.5t15.5 -36.5q0 -22 -15.5 -37.5t-37.5 -15.5zM718 554
q-21 0 -36.5 15.5t-15.5 37.5q0 21 15.5 36.5t36.5 15.5q22 0 37.5 -15.5t15.5 -36.5q0 -22 -15.5 -37.5t-37.5 -15.5zM859 554q-21 0 -36.5 15.5t-15.5 37.5q0 21 15.5 36.5t36.5 15.5q22 0 37.5 -15.5t15.5 -36.5q0 -22 -15.5 -37.5t-37.5 -15.5zM1105 89v-89h-177h-49
q-57 0 -89 19q-30 -19 -88 -19h-50h-315q-131 0 -212 76q-74 70 -75 183q-2 115 75 186l57 -30q-48 -24 -69 -72q-15 -31 -15 -68q0 -11 1 -21q12 -83 89 -129q59 -35 136 -36h328q-28 24 -45.5 63.5t-17.5 78.5q0 84 42 141q56 78 159 78q100 0 158 -76q43 -59 43 -143
q0 -39 -17.5 -78.5t-45.5 -63.5h177zM881 163q21 36 21 85q0 59 -25 99q-34 56 -87 56q-54 0 -89 -58q-23 -39 -23 -97q0 -49 21 -85q31 -53 91 -68q62 16 91 68z" />
    <glyph glyph-name="uniFB70" unicode="&#x6a6;" horiz-adv-x="590" arabic-form="initial" 
d="M280 695q-22 0 -37.5 15.5t-15.5 37.5q0 21 15.5 36.5t37.5 15.5q21 0 36.5 -15.5t15.5 -36.5q0 -22 -15.5 -37.5t-36.5 -15.5zM421 695q-22 0 -37.5 15.5t-15.5 37.5q0 21 15.5 36.5t37.5 15.5q21 0 36.5 -15.5t15.5 -36.5q0 -22 -15.5 -37.5t-36.5 -15.5zM280 554
q-22 0 -37.5 15.5t-15.5 37.5q0 21 15.5 36.5t37.5 15.5q21 0 36.5 -15.5t15.5 -36.5q0 -22 -15.5 -37.5t-36.5 -15.5zM421 554q-22 0 -37.5 15.5t-15.5 37.5q0 21 15.5 36.5t37.5 15.5q21 0 36.5 -15.5t15.5 -36.5q0 -22 -15.5 -37.5t-36.5 -15.5zM348 445h194
q-12 -21 -16 -42.5t-4 -64.5v-154q0 -86 -44 -133q-48 -51 -143 -51h-335v89h347q39 0 63 21q23 22 23 61v167q0 34 5 61h-73q-82 -1 -122 -54q-33 -43 -33 -114q0 -43 15 -70l-83 -28q-20 33 -20 89q0 109 74 171q62 52 152 52z" />
    <glyph glyph-name="uniFB71" unicode="&#x6a6;" horiz-adv-x="610" arabic-form="medial" 
d="M244 695q-22 0 -37.5 15.5t-15.5 37.5q0 21 15.5 36.5t37.5 15.5q21 0 36.5 -15.5t15.5 -36.5q0 -22 -15.5 -37.5t-36.5 -15.5zM385 695q-22 0 -37.5 15.5t-15.5 37.5q0 21 15.5 36.5t37.5 15.5q21 0 36.5 -15.5t15.5 -36.5q0 -22 -15.5 -37.5t-36.5 -15.5zM244 554
q-22 0 -37.5 15.5t-15.5 37.5q0 21 15.5 36.5t37.5 15.5q21 0 36.5 -15.5t15.5 -36.5q0 -22 -15.5 -37.5t-36.5 -15.5zM385 554q-22 0 -37.5 15.5t-15.5 37.5q0 21 15.5 36.5t37.5 15.5q21 0 36.5 -15.5t15.5 -36.5q0 -22 -15.5 -37.5t-36.5 -15.5zM629 89v-89h-176h-49
q-58 0 -89 19q-31 -19 -89 -19h-49h-177v89h177q-28 24 -45.5 63.5t-17.5 78.5q0 83 41 141q58 78 160 78q101 0 157 -76q43 -57 43 -143q0 -39 -17 -78.5t-45 -63.5h176zM406 163q21 36 21 85q0 59 -25 99q-34 56 -87 56q-54 0 -89 -58q-23 -39 -23 -97q0 -49 21 -85
q31 -53 91 -68q62 16 91 68z" />
    <glyph glyph-name="uniFB72" unicode="&#x684;" horiz-adv-x="742" arabic-form="isolated" 
d="M295 450q236 0 283 -243q19 -89 47 -119q55 -1 81 -22v-86q-22 12 -43 16t-65 4h-276q-76 0 -128 -37q-57 -42 -57 -120q0 -84 67 -143q62 -54 152 -54q118 1 185 79l26 -59q-44 -32 -104 -52q-49 -14 -109 -14q-142 0 -229 79q-75 67 -76 164q-1 132 105 199
q74 47 169 47h209q-27 37 -47 126q-38 188 -190 188q-42 0 -83 -19q-56 -26 -89 -76l-25 58q41 40 93 62t104 22zM360 -74q16 0 28 -12t12 -28q0 -17 -11.5 -29t-28.5 -12t-29 12t-12 29t12 28.5t29 11.5zM360 -193q17 0 28.5 -12t11.5 -29q0 -16 -12 -28t-28 -12
q-17 0 -29 11.5t-12 28.5t12 29t29 12z" />
    <glyph glyph-name="uniFB73" unicode="&#x684;" horiz-adv-x="669" arabic-form="final" 
d="M294 450q236 0 283 -243q14 -72 39 -100q14 -18 46 -18h27v-89h-33q-30 0 -48.5 5t-40.5 19q-24 -15 -44 -19.5t-67 -4.5h-135q-76 0 -128 -37q-57 -42 -57 -120q0 -84 67 -143q63 -54 152 -54q118 1 185 79l26 -59q-45 -32 -99 -50q-52 -16 -114 -16q-142 0 -229 79
q-75 67 -76 164q-1 132 105 199q74 47 169 47h209q-27 37 -47 126q-38 188 -190 188q-43 0 -84 -19q-55 -26 -88 -76l-25 58q41 40 93 62t104 22zM360 -74q16 0 28 -12t12 -28q0 -17 -11.5 -29t-28.5 -12t-29 12t-12 29t12 28.5t29 11.5zM360 -193q17 0 28.5 -12t11.5 -29
q0 -16 -12 -28t-28 -12q-17 0 -29 11.5t-12 28.5t12 29t29 12z" />
    <glyph glyph-name="uniFB74" unicode="&#x684;" horiz-adv-x="746" arabic-form="initial" 
d="M628 88q58 -3 80 -22v-86q-21 12 -42.5 16t-64.5 4h-600l-1 89h534q-26 37 -46 126q-38 188 -190 188q-46 0 -89 -22q-55 -28 -83 -73l-26 58q41 40 93 62t104 22q141 0 216 -88q50 -59 67 -155q19 -90 48 -119zM321 -119q21 0 36.5 -15.5t15.5 -36.5q0 -22 -15.5 -37.5
t-36.5 -15.5q-22 0 -37.5 15.5t-15.5 37.5q0 21 15.5 36.5t37.5 15.5zM321 -260q21 0 36.5 -15.5t15.5 -36.5q0 -22 -15.5 -37.5t-36.5 -15.5q-22 0 -37.5 15.5t-15.5 37.5q0 21 15.5 36.5t37.5 15.5z" />
    <glyph glyph-name="uniFB75" unicode="&#x684;" horiz-adv-x="674" arabic-form="medial" 
d="M0 89h534q-28 38 -46 126q-38 188 -190 188q-44 0 -85 -20q-56 -26 -87 -75l-26 58q41 40 93 62t104 22q142 0 216 -88q50 -59 67 -155q15 -73 40 -100q14 -18 45 -18h28v-89h-33q-31 0 -49.5 5t-40.5 19q-24 -15 -44 -19.5t-67 -4.5h-458zM320 -119q22 0 37.5 -15.5
t15.5 -36.5q0 -22 -15.5 -37.5t-37.5 -15.5q-21 0 -36.5 15.5t-15.5 37.5q0 21 15.5 36.5t36.5 15.5zM320 -364q-21 0 -36.5 15.5t-15.5 36.5q0 22 15.5 37.5t36.5 15.5q22 0 37.5 -15.5t15.5 -37.5q0 -21 -15.5 -36.5t-37.5 -15.5z" />
    <glyph glyph-name="uniFB77" unicode="&#x683;" horiz-adv-x="669" arabic-form="final" 
d="M294 450q236 0 283 -243q14 -72 39 -100q14 -18 46 -18h27v-89h-33q-30 0 -48.5 5t-40.5 19q-24 -15 -44 -19.5t-67 -4.5h-135q-76 0 -128 -37q-57 -42 -57 -120q0 -84 67 -143q63 -54 152 -54q118 1 185 79l26 -59q-45 -32 -99 -50q-52 -16 -114 -16q-142 0 -229 79
q-75 67 -76 164q-1 132 105 199q74 47 169 47h209q-27 37 -47 126q-38 188 -190 188q-43 0 -84 -19q-55 -26 -88 -76l-25 58q41 40 93 62t104 22zM299 -224q-21 0 -36.5 15.5t-15.5 37.5q0 21 15.5 36.5t36.5 15.5q22 0 37.5 -15.5t15.5 -36.5q0 -22 -15.5 -37.5
t-37.5 -15.5zM440 -224q-21 0 -36.5 15.5t-15.5 37.5q0 21 15.5 36.5t36.5 15.5q22 0 37.5 -15.5t15.5 -36.5q0 -22 -15.5 -37.5t-37.5 -15.5z" />
    <glyph glyph-name="uniFB78" unicode="&#x683;" horiz-adv-x="746" arabic-form="initial" 
d="M628 88q58 -3 80 -22v-86q-21 12 -42.5 16t-64.5 4h-600l-1 89h534q-26 37 -46 126q-38 188 -190 188q-46 0 -89 -22q-55 -28 -83 -73l-26 58q41 40 93 62t104 22q141 0 216 -88q50 -59 67 -155q19 -90 48 -119zM254 -119q21 0 36.5 -15.5t15.5 -36.5q0 -22 -15.5 -37.5
t-36.5 -15.5q-22 0 -37.5 15.5t-15.5 37.5q0 21 15.5 36.5t37.5 15.5zM395 -119q21 0 36.5 -15.5t15.5 -36.5q0 -22 -15.5 -37.5t-36.5 -15.5q-22 0 -37.5 15.5t-15.5 37.5q0 21 15.5 36.5t37.5 15.5z" />
    <glyph glyph-name="uniFB79" unicode="&#x683;" horiz-adv-x="674" arabic-form="medial" 
d="M0 89h534q-28 38 -46 126q-38 188 -190 188q-44 0 -85 -20q-56 -26 -87 -75l-26 58q41 40 93 62t104 22q142 0 216 -88q50 -59 67 -155q15 -73 40 -100q14 -18 45 -18h28v-89h-33q-31 0 -49.5 5t-40.5 19q-24 -15 -44 -19.5t-67 -4.5h-458zM253 -224q-21 0 -36.5 15.5
t-15.5 37.5q0 21 15.5 36.5t36.5 15.5q22 0 37.5 -15.5t15.5 -36.5q0 -22 -15.5 -37.5t-37.5 -15.5zM394 -224q-21 0 -36.5 15.5t-15.5 37.5q0 21 15.5 36.5t36.5 15.5q22 0 37.5 -15.5t15.5 -36.5q0 -22 -15.5 -37.5t-37.5 -15.5z" />
    <glyph glyph-name="uniFB7B" unicode="&#x686;" horiz-adv-x="669" arabic-form="final" 
d="M293 450q236 0 283 -243q14 -72 39 -100q14 -18 46 -18h27v-89h-33q-30 0 -48.5 5t-40.5 19q-24 -15 -44 -19.5t-67 -4.5h-135q-76 0 -128 -37q-57 -42 -57 -120q0 -84 67 -143q63 -54 152 -54q118 1 185 79l26 -59q-45 -32 -99 -50q-52 -16 -114 -16q-142 0 -229 79
q-75 67 -76 164q-1 132 105 199q74 47 169 47h209q-27 37 -47 126q-38 188 -190 188q-43 0 -84 -19q-55 -26 -88 -76l-25 58q41 40 93 62t104 22zM310 -87q17 0 29.5 -12.5t12.5 -30.5q0 -17 -12.5 -29t-29.5 -12t-29.5 12t-12.5 29q0 18 12.5 30.5t29.5 12.5zM431 -87
q17 0 29.5 -12.5t12.5 -30.5q0 -17 -12.5 -29t-29.5 -12t-29.5 12t-12.5 29t12.5 30t29.5 13zM371 -183q17 0 30 -12.5t13 -29.5t-12.5 -29t-30.5 -12t-30 12t-12 29q0 18 12 30t30 12z" />
    <glyph glyph-name="uniFB7C" unicode="&#x686;" horiz-adv-x="746" arabic-form="initial" 
d="M628 88q58 -3 80 -22v-86q-21 12 -42.5 16t-64.5 4h-600l-1 89h534q-26 37 -46 126q-38 188 -190 188q-46 0 -89 -22q-55 -28 -83 -73l-26 58q41 40 93 62t104 22q141 0 216 -88q50 -59 67 -155q19 -90 48 -119zM305 -171q0 -22 -15.5 -37.5t-36.5 -15.5
q-22 0 -37.5 15.5t-15.5 37.5q0 21 15.5 36.5t37.5 15.5q21 0 36.5 -15.5t15.5 -36.5zM394 -119q21 0 36.5 -15.5t15.5 -36.5q0 -22 -15.5 -37.5t-36.5 -15.5q-22 0 -37.5 15.5t-15.5 37.5q0 21 15.5 36.5t37.5 15.5zM324 -235q21 0 36.5 -15.5t15.5 -37.5
q0 -21 -15.5 -36.5t-36.5 -15.5q-22 0 -37.5 15.5t-15.5 36.5q0 22 15.5 37.5t37.5 15.5z" />
    <glyph glyph-name="uniFB7D" unicode="&#x686;" horiz-adv-x="674" arabic-form="medial" 
d="M0 89h534q-28 38 -46 126q-38 188 -190 188q-44 0 -85 -20q-56 -26 -87 -75l-26 58q41 40 93 62t104 22q142 0 216 -88q50 -59 67 -155q15 -73 40 -100q14 -18 45 -18h28v-89h-33q-31 0 -49.5 5t-40.5 19q-24 -15 -44 -19.5t-67 -4.5h-458zM252 -119q22 0 37.5 -15.5
t15.5 -36.5q0 -22 -15.5 -37.5t-37.5 -15.5q-21 0 -36.5 15.5t-15.5 37.5q0 21 15.5 36.5t36.5 15.5zM393 -119q22 0 37.5 -15.5t15.5 -36.5q0 -22 -15.5 -37.5t-37.5 -15.5q-21 0 -36.5 15.5t-15.5 37.5q0 21 15.5 36.5t36.5 15.5zM323 -235q22 0 37.5 -15.5t15.5 -37.5
q0 -21 -15.5 -36.5t-37.5 -15.5q-21 0 -36.5 15.5t-15.5 36.5q0 22 15.5 37.5t36.5 15.5z" />
    <glyph glyph-name="uniFB7F" unicode="&#x687;" horiz-adv-x="669" arabic-form="final" 
d="M294 450q236 0 283 -243q14 -72 39 -100q14 -18 46 -18h27v-89h-33q-30 0 -48.5 5t-40.5 19q-24 -15 -44 -19.5t-67 -4.5h-135q-76 0 -128 -37q-57 -42 -57 -120q0 -84 67 -143q63 -54 152 -54q118 1 185 79l26 -59q-45 -32 -99 -50q-52 -16 -114 -16q-142 0 -229 79
q-75 67 -76 164q-1 132 105 199q74 47 169 47h209q-27 37 -47 126q-38 188 -190 188q-43 0 -84 -19q-55 -26 -88 -76l-25 58q41 40 93 62t104 22zM434 -64q16 0 28.5 -12.5t12.5 -28.5q0 -17 -12 -29.5t-29 -12.5t-29.5 12.5t-12.5 29.5t12.5 29t29.5 12zM316 -82
q17 0 29 -11.5t12 -28.5t-12 -29.5t-29 -12.5t-29 12.5t-12 29.5t12 28.5t29 11.5zM434 -183q17 0 29 -11.5t12 -28.5t-12 -29t-29 -12t-29.5 12t-12.5 29t12 28.5t30 11.5zM316 -200q17 0 29 -11.5t12 -28.5t-12 -29t-29 -12t-29 12t-12 29t12 28.5t29 11.5z" />
    <glyph glyph-name="uniFB80" unicode="&#x687;" horiz-adv-x="746" arabic-form="initial" 
d="M628 88q58 -3 80 -22v-86q-21 12 -42.5 16t-64.5 4h-600l-1 89h534q-26 37 -46 126q-38 188 -190 188q-46 0 -89 -22q-55 -28 -83 -73l-26 58q41 40 93 62t104 22q141 0 216 -88q50 -59 67 -155q19 -90 48 -119zM254 -119q21 0 36.5 -15.5t15.5 -36.5q0 -22 -15.5 -37.5
t-36.5 -15.5q-22 0 -37.5 15.5t-15.5 37.5q0 21 15.5 36.5t37.5 15.5zM395 -119q21 0 36.5 -15.5t15.5 -36.5q0 -22 -15.5 -37.5t-36.5 -15.5q-22 0 -37.5 15.5t-15.5 37.5q0 21 15.5 36.5t37.5 15.5zM254 -260q21 0 36.5 -15.5t15.5 -36.5q0 -22 -15.5 -37.5t-36.5 -15.5
q-22 0 -37.5 15.5t-15.5 37.5q0 21 15.5 36.5t37.5 15.5zM395 -260q21 0 36.5 -15.5t15.5 -36.5q0 -22 -15.5 -37.5t-36.5 -15.5q-22 0 -37.5 15.5t-15.5 37.5q0 21 15.5 36.5t37.5 15.5z" />
    <glyph glyph-name="uniFB81" unicode="&#x687;" horiz-adv-x="674" arabic-form="medial" 
d="M0 89h534q-28 38 -46 126q-38 188 -190 188q-44 0 -85 -20q-56 -26 -87 -75l-26 58q41 40 93 62t104 22q142 0 216 -88q50 -59 67 -155q15 -73 40 -100q14 -18 45 -18h28v-89h-33q-31 0 -49.5 5t-40.5 19q-24 -15 -44 -19.5t-67 -4.5h-458zM253 -224q-21 0 -36.5 15.5
t-15.5 37.5q0 21 15.5 36.5t36.5 15.5q22 0 37.5 -15.5t15.5 -36.5q0 -22 -15.5 -37.5t-37.5 -15.5zM394 -224q-21 0 -36.5 15.5t-15.5 37.5q0 21 15.5 36.5t36.5 15.5q22 0 37.5 -15.5t15.5 -36.5q0 -22 -15.5 -37.5t-37.5 -15.5zM253 -365q-21 0 -36.5 15.5t-15.5 37.5
q0 21 15.5 36.5t36.5 15.5q22 0 37.5 -15.5t15.5 -36.5q0 -22 -15.5 -37.5t-37.5 -15.5zM394 -365q-21 0 -36.5 15.5t-15.5 37.5q0 21 15.5 36.5t36.5 15.5q22 0 37.5 -15.5t15.5 -36.5q0 -22 -15.5 -37.5t-37.5 -15.5z" />
    <glyph glyph-name="uniFB85" unicode="&#x68c;" horiz-adv-x="634" arabic-form="final" 
d="M167 554q-22 0 -37.5 15.5t-15.5 37.5q0 21 15.5 36.5t37.5 15.5q21 0 36.5 -15.5t15.5 -36.5q0 -22 -15.5 -37.5t-36.5 -15.5zM309 554q-22 0 -37.5 15.5t-15.5 37.5q0 21 15.5 36.5t37.5 15.5q21 0 36.5 -15.5t15.5 -36.5q0 -22 -15.5 -37.5t-36.5 -15.5zM653 89v-89
h-18q-100 0 -148 59q-51 -59 -150 -59h-188q-43 0 -64.5 -4t-42.5 -16v86q26 23 106 23h183q63 0 95 43q24 31 24 76q0 100 -60 153q-45 41 -110 42q-83 2 -141 -59l-26 60q79 46 166 46q124 0 198 -82q61 -68 61 -164v-4h1v-29q0 -39 23.5 -60.5t66.5 -21.5h24z" />
    <glyph glyph-name="uniFB87" unicode="&#x68e;" horiz-adv-x="634" arabic-form="final" 
d="M238 670q-22 0 -37.5 15.5t-15.5 37.5q0 21 15.5 36.5t37.5 15.5q21 0 36.5 -15.5t15.5 -36.5q0 -22 -15.5 -37.5t-36.5 -15.5zM167 554q-22 0 -37.5 15.5t-15.5 37.5q0 21 15.5 36.5t37.5 15.5q21 0 36.5 -15.5t15.5 -36.5q0 -22 -15.5 -37.5t-36.5 -15.5zM256 607
q0 21 15.5 36.5t37.5 15.5q21 0 36.5 -15.5t15.5 -36.5q0 -22 -15.5 -37.5t-36.5 -15.5q-22 0 -37.5 15.5t-15.5 37.5zM653 89v-89h-18q-100 0 -148 59q-51 -59 -150 -59h-188q-43 0 -64.5 -4t-42.5 -16v86q26 23 106 23h183q63 0 95 43q24 31 24 76q0 100 -60 153
q-45 41 -110 42q-83 2 -141 -59l-26 60q79 46 166 46q124 0 198 -82q61 -68 61 -164v-4h1v-29q0 -39 23.5 -60.5t66.5 -21.5h24z" />
    <glyph glyph-name="uniFB89" unicode="&#x688;" horiz-adv-x="634" arabic-form="final" 
d="M307 557h-143q-37 0 -52 -10v40q13 9 47 10v132q0 36 9 52h41q-10 -17 -10 -53v-62q34 48 89 48q37 0 63 -24q27 -23 27 -62q0 -32 -19.5 -51.5t-51.5 -19.5zM286 692q-30 0 -55.5 -27.5t-31.5 -67.5h105q15 0 24.5 9.5t9.5 24.5q0 27 -14.5 44t-37.5 17zM653 89v-89h-18
q-100 0 -148 59q-51 -59 -150 -59h-188q-43 0 -64.5 -4t-42.5 -16v86q26 23 106 23h183q63 0 95 43q24 31 24 76q0 100 -60 153q-45 41 -110 42q-83 2 -141 -59l-26 60q79 46 166 46q124 0 198 -82q61 -68 61 -164v-4h1v-29q0 -39 23.5 -60.5t66.5 -21.5h24z" />
    <glyph glyph-name="uniFB8B" unicode="&#x698;" horiz-adv-x="416" arabic-form="final" 
d="M203 670q-22 0 -37.5 15.5t-15.5 37.5q0 21 15.5 36.5t37.5 15.5q21 0 36.5 -15.5t15.5 -36.5q0 -22 -15.5 -37.5t-36.5 -15.5zM133 554q-22 0 -37.5 15.5t-15.5 37.5q0 21 15.5 36.5t37.5 15.5q21 0 36.5 -15.5t15.5 -36.5q0 -22 -15.5 -37.5t-36.5 -15.5zM221 607
q0 21 15.5 36.5t37.5 15.5q21 0 36.5 -15.5t15.5 -36.5q0 -22 -15.5 -37.5t-36.5 -15.5q-22 0 -37.5 15.5t-15.5 37.5zM433 89v-89h-34q-59 0 -98 19v-49q0 -57 -4.5 -86t-18.5 -55q-44 -91 -172 -91q-82 0 -154 47l26 59q52 -60 126 -60q60 0 91 55q11 19 14.5 43.5
t3.5 86.5l-1 199v16v155q0 78 23 106h86q-12 -21 -16 -42.5t-4 -64.5v-167q0 -39 23.5 -60.5t66.5 -21.5h42z" />
    <glyph glyph-name="uniFB8D" unicode="&#x691;" horiz-adv-x="416" arabic-form="final" 
d="M265 554h-143q-39 0 -53 -10v40q15 10 48 10v133q0 36 10 51h40q-10 -16 -10 -52v-62q34 48 89 48q37 0 63 -24q27 -23 27 -62q0 -33 -19.5 -52.5t-51.5 -19.5zM244 690q-30 0 -55.5 -28t-31.5 -68h105q15 0 24.5 10t9.5 25q0 27 -14.5 44t-37.5 17zM433 89v-89h-34
q-59 0 -98 19v-49q0 -57 -4.5 -86t-18.5 -55q-44 -91 -172 -91q-82 0 -154 47l26 59q52 -60 126 -60q60 0 91 55q11 19 14.5 43.5t3.5 86.5l-1 199v16v155q0 78 23 106h86q-12 -21 -16 -42.5t-4 -64.5v-167q0 -39 23.5 -60.5t66.5 -21.5h42z" />
    <glyph glyph-name="uniFB8F" unicode="&#x6a9;" horiz-adv-x="1068" arabic-form="final" 
d="M1089 89v-89h-18q-100 0 -147 58q-53 -58 -151 -58h-439q-130 0 -210 76q-74 70 -75 183q-2 115 75 186l58 -30q-49 -24 -70 -72q-15 -31 -15 -68q0 -11 1 -21q12 -83 89 -129q60 -35 137 -36h443q63 0 95 43q24 31 24 76q0 100 -58 153q-44 41 -110 42q-9 1 -18 1
q-22 0 -45 -5q-21 -3 -41 -10q-57 -19 -109 -72l-28 63l175 230q46 63 81 71l68 -52q-21 -8 -36.5 -22.5t-43.5 -50.5l-86 -112q37 6 81 6q124 0 198 -82q61 -68 61 -164v-4v-29q0 -39 23.5 -60.5t66.5 -21.5h24z" />
    <glyph glyph-name="uniFB90" unicode="&#x6a9;" horiz-adv-x="649" arabic-form="initial" 
d="M343 450q124 0 197 -82q61 -68 61 -164q0 -92 -53 -148t-149 -56h-398l-1 89h394q63 0 94 43q24 31 24 76q0 100 -58 153q-44 41 -109 42q-7 1 -17 1q-17 0 -36 -3q-22 -3 -51 -12q-58 -19 -109 -72l-28 63l171 230q46 63 81 71l68 -52q-22 -8 -38 -23t-43 -50l-81 -112
q37 6 81 6z" />
    <glyph glyph-name="uniFB91" unicode="&#x6a9;" horiz-adv-x="697" arabic-form="medial" 
d="M716 89v-89h-18q-100 0 -147 58q-53 -58 -152 -58h-398l-1 89h394q63 0 95 43q24 31 24 76q0 100 -58 153q-44 41 -110 42q-7 1 -16 1q-18 0 -36 -3q-23 -3 -52 -12q-58 -19 -109 -72l-28 63l171 230q46 63 81 71l68 -52q-22 -8 -38 -23t-43 -50l-81 -112q37 6 81 6
q124 0 198 -82q60 -68 60 -164v-4v-29q0 -39 24 -60.5t67 -21.5h24z" />
    <glyph glyph-name="uniFB93" unicode="&#x6af;" horiz-adv-x="1068" arabic-form="final" 
d="M420 507l-19 41l156 204q24 29 39 33l32 -23q-18 -7 -41 -35zM1089 89v-89h-18q-100 0 -147 58q-53 -58 -151 -58h-439q-130 0 -210 76q-74 70 -75 183q-2 115 75 186l58 -30q-49 -24 -70 -72q-15 -31 -15 -68q0 -11 1 -21q12 -83 89 -129q60 -35 137 -36h443q63 0 95 43
q24 31 24 76q0 100 -58 153q-44 41 -110 42q-9 1 -18 1q-22 0 -45 -5q-21 -3 -41 -10q-57 -19 -109 -72l-28 63l175 230q46 63 81 71l68 -52q-21 -8 -36.5 -22.5t-43.5 -50.5l-86 -112q37 6 81 6q124 0 198 -82q61 -68 61 -164v-4v-29q0 -39 23.5 -60.5t66.5 -21.5h24z" />
    <glyph glyph-name="uniFB94" unicode="&#x6af;" horiz-adv-x="649" arabic-form="initial" 
d="M48 507l-19 41l156 204q24 29 39 33l32 -23q-18 -7 -41 -35zM343 450q124 0 197 -82q61 -68 61 -164q0 -92 -53 -148t-149 -56h-398l-1 89h394q63 0 94 43q24 31 24 76q0 100 -58 153q-44 41 -109 42q-7 1 -17 1q-17 0 -36 -3q-22 -3 -51 -12q-58 -19 -109 -72l-28 63
l171 230q46 63 81 71l68 -52q-22 -8 -38 -23t-43 -50l-81 -112q37 6 81 6z" />
    <glyph glyph-name="uniFB95" unicode="&#x6af;" horiz-adv-x="697" arabic-form="medial" 
d="M47 507l-19 41l157 204q24 29 39 33l32 -23q-18 -7 -41 -35zM716 89v-89h-18q-100 0 -147 58q-53 -58 -152 -58h-398l-1 89h394q63 0 95 43q24 31 24 76q0 100 -58 153q-44 41 -110 42q-7 1 -16 1q-18 0 -36 -3q-23 -3 -52 -12q-58 -19 -109 -72l-28 63l171 230
q46 63 81 71l68 -52q-22 -8 -38 -23t-43 -50l-81 -112q37 6 81 6q124 0 198 -82q60 -68 60 -164v-4v-29q0 -39 24 -60.5t67 -21.5h24z" />
    <glyph glyph-name="uniFB96" unicode="&#x6b3;" horiz-adv-x="1020" arabic-form="isolated" 
d="M421 507l-19 41l156 204q24 29 39 33l32 -23q-18 -7 -41 -35zM717 450q124 0 197 -82q61 -68 61 -164q0 -92 -53 -148t-149 -56h-438q-130 0 -211 76q-73 70 -74 183q-2 115 75 186l57 -30q-48 -24 -69 -72q-15 -31 -15 -68q0 -11 1 -21q12 -83 89 -129q59 -35 136 -36
h444q63 0 94 43q24 31 24 76q0 100 -58 153q-44 41 -109 42q-10 1 -19 1q-21 0 -44 -5q-21 -3 -41 -10q-57 -19 -110 -72l-27 63l175 230q46 63 81 71l68 -52q-21 -8 -37 -22.5t-43 -50.5l-86 -112q37 6 81 6zM539 -119q22 0 37.5 -15.5t15.5 -36.5q0 -22 -15.5 -37.5
t-37.5 -15.5q-21 0 -36.5 15.5t-15.5 37.5q0 21 15.5 36.5t36.5 15.5zM539 -260q22 0 37.5 -15.5t15.5 -36.5q0 -22 -15.5 -37.5t-37.5 -15.5q-21 0 -36.5 15.5t-15.5 37.5q0 21 15.5 36.5t36.5 15.5z" />
    <glyph glyph-name="uniFB97" unicode="&#x6b3;" horiz-adv-x="1068" arabic-form="final" 
d="M421 507l-19 41l156 204q24 29 39 33l32 -23q-18 -7 -41 -35zM1090 89v-89h-18q-100 0 -147 58q-53 -58 -151 -58h-439q-130 0 -210 76q-74 70 -75 183q-2 115 75 186l58 -30q-49 -24 -70 -72q-15 -31 -15 -68q0 -11 1 -21q12 -83 89 -129q60 -35 137 -36h443q63 0 95 43
q24 31 24 76q0 100 -58 153q-44 41 -110 42q-9 1 -18 1q-22 0 -45 -5q-21 -3 -41 -10q-57 -19 -109 -72l-28 63l175 230q46 63 81 71l68 -52q-21 -8 -36.5 -22.5t-43.5 -50.5l-86 -112q37 6 81 6q124 0 198 -82q61 -68 61 -164v-4v-29q0 -39 23.5 -60.5t66.5 -21.5h24z
M539 -119q22 0 37.5 -15.5t15.5 -36.5q0 -22 -15.5 -37.5t-37.5 -15.5q-21 0 -36.5 15.5t-15.5 37.5q0 21 15.5 36.5t36.5 15.5zM539 -260q22 0 37.5 -15.5t15.5 -36.5q0 -22 -15.5 -37.5t-37.5 -15.5q-21 0 -36.5 15.5t-15.5 37.5q0 21 15.5 36.5t36.5 15.5z" />
    <glyph glyph-name="uniFB98" unicode="&#x6b3;" horiz-adv-x="649" arabic-form="initial" 
d="M48 507l-19 41l156 204q24 29 39 33l32 -23q-18 -7 -41 -35zM343 450q124 0 197 -82q61 -68 61 -164q0 -92 -53 -148t-149 -56h-398l-1 89h394q63 0 94 43q24 31 24 76q0 100 -58 153q-44 41 -109 42q-7 1 -17 1q-17 0 -36 -3q-22 -3 -51 -12q-58 -19 -109 -72l-28 63
l171 230q46 63 81 71l68 -52q-22 -8 -38 -23t-43 -50l-81 -112q37 6 81 6zM303 -119q22 0 37.5 -15.5t15.5 -36.5q0 -22 -15.5 -37.5t-37.5 -15.5q-21 0 -36.5 15.5t-15.5 37.5q0 21 15.5 36.5t36.5 15.5zM303 -260q22 0 37.5 -15.5t15.5 -36.5q0 -22 -15.5 -37.5
t-37.5 -15.5q-21 0 -36.5 15.5t-15.5 37.5q0 21 15.5 36.5t36.5 15.5z" />
    <glyph glyph-name="uniFB99" unicode="&#x6b3;" horiz-adv-x="697" arabic-form="medial" 
d="M47 507l-19 41l157 204q24 29 39 33l32 -23q-18 -7 -41 -35zM716 89v-89h-18q-100 0 -147 58q-53 -58 -152 -58h-398l-1 89h394q63 0 95 43q24 31 24 76q0 100 -58 153q-44 41 -110 42q-7 1 -16 1q-18 0 -36 -3q-23 -3 -52 -12q-58 -19 -109 -72l-28 63l171 230
q46 63 81 71l68 -52q-22 -8 -38 -23t-43 -50l-81 -112q37 6 81 6q124 0 198 -82q60 -68 60 -164v-4v-29q0 -39 24 -60.5t67 -21.5h24zM303 -119q22 0 37.5 -15.5t15.5 -36.5q0 -22 -15.5 -37.5t-37.5 -15.5q-21 0 -36.5 15.5t-15.5 37.5q0 21 15.5 36.5t36.5 15.5zM303 -260
q22 0 37.5 -15.5t15.5 -36.5q0 -22 -15.5 -37.5t-37.5 -15.5q-21 0 -36.5 15.5t-15.5 37.5q0 21 15.5 36.5t36.5 15.5z" />
    <glyph glyph-name="uniFB9A" unicode="&#x6b1;" horiz-adv-x="1020" arabic-form="isolated" 
d="M427 870q-21 0 -36.5 15.5t-15.5 36.5q0 22 15.5 37.5t36.5 15.5q22 0 37.5 -15.5t15.5 -37.5q0 -21 -15.5 -36.5t-37.5 -15.5zM568 870q-21 0 -36.5 15.5t-15.5 36.5q0 22 15.5 37.5t36.5 15.5q22 0 37.5 -15.5t15.5 -37.5q0 -21 -15.5 -36.5t-37.5 -15.5zM402 548
l156 204q24 29 39 33l32 -23q-18 -7 -41 -35l-167 -220zM717 450q124 0 197 -82q61 -68 61 -164q0 -92 -53 -148t-149 -56h-438q-130 0 -211 76q-73 70 -74 183q-2 115 75 186l57 -30q-48 -24 -69 -72q-15 -31 -15 -68q0 -11 1 -21q12 -83 89 -129q59 -35 136 -36h444
q63 0 94 43q24 31 24 76q0 100 -58 153q-44 41 -109 42q-10 1 -19 1q-21 0 -44 -5q-21 -3 -41 -10q-57 -19 -110 -72l-27 63l175 230q46 63 81 71l68 -52q-21 -8 -37 -22.5t-43 -50.5l-86 -112q37 6 81 6z" />
    <glyph glyph-name="uniFB9B" unicode="&#x6b1;" horiz-adv-x="1068" arabic-form="final" 
d="M429 870q-21 0 -36.5 15.5t-15.5 36.5q0 22 15.5 37.5t36.5 15.5q22 0 37.5 -15.5t15.5 -37.5q0 -21 -15.5 -36.5t-37.5 -15.5zM570 870q-21 0 -36.5 15.5t-15.5 36.5q0 22 15.5 37.5t36.5 15.5q22 0 37.5 -15.5t15.5 -37.5q0 -21 -15.5 -36.5t-37.5 -15.5zM402 548
l156 204q24 29 39 33l32 -23q-18 -7 -41 -35l-167 -220zM1090 89v-89h-18q-100 0 -147 58q-53 -58 -151 -58h-439q-130 0 -210 76q-74 70 -75 183q-2 115 75 186l58 -30q-49 -24 -70 -72q-15 -31 -15 -68q0 -11 1 -21q12 -83 89 -129q60 -35 137 -36h443q63 0 95 43
q24 31 24 76q0 100 -58 153q-44 41 -110 42q-9 1 -18 1q-22 0 -45 -5q-21 -3 -41 -10q-57 -19 -109 -72l-28 63l175 230q46 63 81 71l68 -52q-21 -8 -36.5 -22.5t-43.5 -50.5l-86 -112q37 6 81 6q124 0 198 -82q61 -68 61 -164v-4v-29q0 -39 23.5 -60.5t66.5 -21.5h24z" />
    <glyph glyph-name="uniFB9C" unicode="&#x6b1;" horiz-adv-x="649" arabic-form="initial" 
d="M57 870q-22 0 -37.5 15.5t-15.5 36.5q0 22 15.5 37.5t37.5 15.5q21 0 36.5 -15.5t15.5 -37.5q0 -21 -15.5 -36.5t-36.5 -15.5zM197 870q-21 0 -36.5 15.5t-15.5 36.5q0 22 15.5 37.5t36.5 15.5q22 0 37.5 -15.5t15.5 -37.5q0 -21 -15.5 -36.5t-37.5 -15.5zM29 548
l156 204q24 29 39 33l32 -23q-18 -7 -41 -35l-167 -220zM343 450q124 0 197 -82q61 -68 61 -164q0 -92 -53 -148t-149 -56h-398l-1 89h394q63 0 94 43q24 31 24 76q0 100 -58 153q-44 41 -109 42q-7 1 -17 1q-17 0 -36 -3q-22 -3 -51 -12q-58 -19 -109 -72l-28 63l171 230
q46 63 81 71l68 -52q-22 -8 -38 -23t-43 -50l-81 -112q37 6 81 6z" />
    <glyph glyph-name="uniFB9D" unicode="&#x6b1;" horiz-adv-x="697" arabic-form="medial" 
d="M56 870q-21 0 -36.5 15.5t-15.5 36.5q0 22 15.5 37.5t36.5 15.5q22 0 37.5 -15.5t15.5 -37.5q0 -21 -15.5 -36.5t-37.5 -15.5zM197 870q-21 0 -36.5 15.5t-15.5 36.5q0 22 15.5 37.5t36.5 15.5q22 0 37.5 -15.5t15.5 -37.5q0 -21 -15.5 -36.5t-37.5 -15.5zM28 548
l157 204q24 29 39 33l32 -23q-18 -7 -41 -35l-168 -220zM716 89v-89h-18q-100 0 -147 58q-53 -58 -152 -58h-398l-1 89h394q63 0 95 43q24 31 24 76q0 100 -58 153q-44 41 -110 42q-7 1 -16 1q-18 0 -36 -3q-23 -3 -52 -12q-58 -19 -109 -72l-28 63l171 230q46 63 81 71
l68 -52q-22 -8 -38 -23t-43 -50l-81 -112q37 6 81 6q124 0 198 -82q60 -68 60 -164v-4v-29q0 -39 24 -60.5t67 -21.5h24z" />
    <glyph glyph-name="uniFB9F" unicode="&#x6ba;" horiz-adv-x="735" arabic-form="final" 
d="M556 445h86q-12 -21 -16 -41.5t-4 -65.5v-167q0 -39 23.5 -60.5t66.5 -21.5h42v-89h-34q-60 0 -100 21q-4 -104 -61 -178q-80 -105 -224 -105q-140 0 -221 102q-66 82 -66 195q0 57 19 106q22 50 56 79l56 -30q-47 -24 -68 -71q-15 -34 -15 -77v-9q3 -93 81 -155
q67 -53 153 -53q122 0 175 99q28 53 28 135v280q0 80 23 106z" />
    <glyph glyph-name="uniFBA1" unicode="&#x6bb;" horiz-adv-x="735" arabic-form="final" 
d="M247 669h40q-10 -15 -10 -51v-63q33 47 89 47q37 0 63 -23q27 -24 27 -62q0 -33 -19.5 -52.5t-51.5 -19.5h-143q-37 0 -53 -10v40q15 10 48 10v134q0 34 10 50zM363 580q-30 0 -55.5 -27.5t-31.5 -67.5h105q15 0 24.5 10t9.5 25q0 27 -14.5 43.5t-37.5 16.5zM556 445h86
q-12 -21 -16 -41.5t-4 -65.5v-167q0 -39 23.5 -60.5t66.5 -21.5h42v-89h-34q-60 0 -100 21q-4 -104 -61 -178q-80 -105 -224 -105q-140 0 -221 102q-66 82 -66 195q0 57 19 106q22 50 56 79l56 -30q-47 -24 -68 -71q-15 -34 -15 -77v-9q3 -93 81 -155q67 -53 153 -53
q122 0 175 99q28 53 28 135v280q0 80 23 106z" />
    <glyph glyph-name="uniFBA5" unicode="&#x6c0;" horiz-adv-x="562" arabic-form="final" 
d="M293 557h-89q-33 0 -48 9v40q14 -9 46 -9q-13 15 -13 37q0 33 23.5 54t60.5 21q32 0 56 -15l-8 -25q-20 19 -43 19q-21 0 -35 -14t-14 -35q0 -19 14 -30.5t35 -11.5h16q36 0 52 -10v-40q-17 10 -53 10zM582 89v-89h-35q-90 0 -136 45q-49 -58 -149 -58q-98 0 -158 69
q-57 61 -57 165q0 105 69 172q60 57 143 57q66 0 110 -35q4 17 13 30h86q-12 -21 -16 -42.5t-4 -64.5v-166v-1q0 -39 24 -60.5t67 -21.5h43zM360 158v165q0 32 -27 57q-26 23 -64 23q-61 0 -99 -53q-34 -47 -34 -118q0 -77 40 -119q35 -37 93 -37q43 0 67 22q24 21 24 60z
" />
    <glyph glyph-name="uniFBA7" unicode="&#x6c1;" horiz-adv-x="562" arabic-form="final" 
d="M582 89v-89h-35q-90 0 -136 45q-49 -58 -149 -58q-98 0 -158 69q-57 61 -57 165q0 105 69 172q60 57 143 57q66 0 110 -35q4 17 13 30h86q-12 -21 -16 -42.5t-4 -64.5v-166v-1q0 -39 24 -60.5t67 -21.5h43zM360 158v165q0 32 -27 57q-26 23 -64 23q-61 0 -99 -53
q-34 -47 -34 -118q0 -77 40 -119q35 -37 93 -37q43 0 67 22q24 21 24 60z" />
    <glyph glyph-name="uniFBA8" unicode="&#x6c1;" horiz-adv-x="298" arabic-form="initial" 
d="M164 445h86q-12 -21 -16 -42.5t-4 -64.5v-154q0 -132 -100 -170q-22 -18 -51 -48t-37 -43q-15 -25 -15 -38q0 -15 13 -15l23 4q21 0 36 -14t15 -35q0 -19 -14.5 -34t-33.5 -15q-25 0 -44 15q-29 23 -29 73q0 32 26 70q23 35 66 69q-19 -3 -41 -3h-44v89h51q42 0 66 22
q24 21 24 60v168q0 78 23 106z" />
    <glyph glyph-name="uniFBA9" unicode="&#x6c1;" horiz-adv-x="497" arabic-form="medial" 
d="M516 0h-27q-36 0 -53.5 -18t-35.5 -75q-9 -32 -28 -80q-35 -89 -121 -89q-72 0 -117 54q-53 62 -54 186q0 3 2 37q-25 -15 -82 -15l1 89h55q56 0 95 21q-13 -26 -17 -84v-21q0 -57 16 -100q15 -36 39.5 -57.5t50.5 -21.5q34 0 54 37q8 16 40 103q25 69 52 92
q35 31 100 31h30v-89z" />
    <glyph glyph-name="uniFBAB" unicode="&#x6be;" horiz-adv-x="826" arabic-form="final" 
d="M845 89v-89h-18q-101 0 -147 58q-53 -58 -151 -58h-108h-49q-59 0 -91 19q-32 -19 -91 -19h-49q-41 0 -61 -4t-42 -16v86q26 23 101 23h30q-39 43 -39 105q0 54 37 97q33 40 83 51l-14 32q50 41 119 62q34 10 73 13q17 1 53 1q120 -3 191 -85q59 -68 59 -161v-4v-29
q0 -39 23.5 -60.5t66.5 -21.5h24zM394 89h129q63 0 95 43q24 31 24 76q0 100 -57 153q-45 41 -111 42q-6 1 -16 1q-16 0 -34 -3q-24 -3 -53 -12q-42 -14 -80 -45q68 -3 109 -56q33 -43 33 -94q0 -63 -39 -105zM282 94q33 10 53.5 39.5t20.5 66.5q0 45 -22 75q-21 27 -52 27
q-32 0 -53 -29t-21 -73q0 -37 20.5 -66.5t53.5 -39.5z" />
    <glyph glyph-name="uniFBAC" unicode="&#x6be;" horiz-adv-x="763" arabic-form="initial" 
d="M465 449q120 -3 191 -85q59 -68 59 -161q0 -92 -53 -147q-54 -56 -149 -56h-108l-50 -1q-59 0 -90 20q-32 -20 -158 -20l-107 1v88h153q-39 42 -39 105q0 54 36 97q34 40 84 51l-14 32q51 42 118 62q34 10 74 13q17 1 53 1zM378 88h129q63 0 95 43q24 31 24 76
q0 100 -58 153q-44 41 -110 42q-6 1 -16 1q-17 0 -35 -3q-24 -3 -53 -12q-41 -14 -79 -45q68 -3 109 -56q33 -43 33 -94q0 -62 -39 -105zM265 93q33 10 53.5 39.5t20.5 66.5q0 45 -22 75q-21 27 -52 27q-32 0 -53 -29t-21 -73q0 -37 20.5 -66.5t53.5 -39.5z" />
    <glyph glyph-name="uniFBAD" unicode="&#x6be;" horiz-adv-x="810" arabic-form="medial" 
d="M829 88v-88h-18q-101 0 -147 58q-53 -58 -151 -58h-108l-50 -1q-59 0 -90 20q-32 -20 -159 -20l-106 1v88h153q-39 42 -39 105q0 54 36 97q34 40 84 51l-14 32q50 42 118 62q34 10 74 13q17 1 53 1q120 -3 191 -85q59 -68 59 -161v-4v-29q0 -39 23.5 -60.5t66.5 -21.5h24
zM378 88h129q63 0 95 43q24 31 24 76q0 100 -58 153q-44 41 -110 42q-6 1 -16 1q-17 0 -35 -3q-24 -3 -53 -12q-41 -14 -79 -45q68 -3 109 -56q33 -43 33 -94q0 -62 -39 -105zM265 93q33 10 53.5 39.5t20.5 66.5q0 45 -22 75q-21 27 -52 27q-32 0 -53 -29t-21 -73
q0 -37 20.5 -66.5t53.5 -39.5z" />
    <glyph glyph-name="uniFBAF" unicode="&#x6d2;" horiz-adv-x="864" arabic-form="final" 
d="M884 0h-571q-83 0 -136 -35q-33 -22 -52 -53.5t-19 -63.5q0 -15 15 -15h540q81 0 107 -22v-86q-21 12 -42.5 16t-65.5 4l-533 1q-36 0 -57.5 21t-21.5 55q0 132 93 207q76 60 188 60h555v-89z" />
    <glyph glyph-name="uniFBB1" unicode="&#x6d3;" horiz-adv-x="864" arabic-form="final" 
d="M380 354q33 0 56 -16l-8 -25q-20 19 -43 19q-21 0 -35 -14t-14 -35q0 -18 14 -30t35 -12h16q36 0 52 -10v-40q-17 10 -52 10h-90q-34 0 -48 10v40q14 -10 46 -10q-13 15 -13 37q0 34 23.5 55t60.5 21zM884 0h-571q-83 0 -136 -35q-33 -22 -52 -53.5t-19 -63.5
q0 -15 15 -15h540q81 0 107 -22v-86q-21 12 -42.5 16t-65.5 4l-533 1q-36 0 -57.5 21t-21.5 55q0 132 93 207q76 60 188 60h555v-89z" />
    <glyph glyph-name="uniFE82" unicode="&#x622;" horiz-adv-x="274" arabic-form="final" 
d="M59 812q-21 0 -49 -15l-10 15q44 37 71 39h4q15 0 48 -13q43 -18 70 -17q22 1 49 16l10 -15q-43 -37 -72 -40h-5q-16 0 -50 14q-42 16 -66 16zM94 681h86q-12 -21 -16 -41.5t-4 -65.5v-403q0 -39 24 -60.5t67 -21.5h42v-89h-34q-108 0 -155 65q-33 46 -33 119v391
q0 80 23 106z" />
    <glyph glyph-name="uniFE84" unicode="&#x623;" horiz-adv-x="274" arabic-form="final" 
d="M146 941q33 0 56 -16l-8 -25q-20 20 -43 20q-21 0 -35 -14t-14 -35q0 -19 14 -31t35 -12h16q38 0 52 -10v-40q-15 10 -52 10h-90q-32 0 -48 9v41q16 -10 46 -10q-13 17 -13 38q0 33 23.5 54t60.5 21zM95 681h86q-12 -21 -16 -41.5t-4 -65.5v-403q0 -39 23.5 -60.5
t66.5 -21.5h42v-89h-34q-107 0 -154 65q-33 46 -33 119v391q0 80 23 106z" />
    <glyph glyph-name="uniFE86" unicode="&#x624;" horiz-adv-x="562" arabic-form="final" 
d="M314 557h-90q-33 0 -48 9v40q14 -9 46 -9q-13 15 -13 37q0 33 23.5 54t60.5 21q32 0 56 -15l-8 -25q-20 19 -43 19q-21 0 -35 -14t-14 -35q0 -19 14 -30.5t35 -11.5h16q36 0 52 -10v-40q-17 10 -52 10zM582 0h-134v-16q0 -62 -4 -91t-15 -53q-49 -103 -182 -102
q-85 0 -157 49l27 59q23 -30 57 -46.5t71 -16.5q61 -1 95 53q11 18 15 43t4 74v47h-83q-106 0 -171 68q-58 61 -58 156q0 107 75 169q62 52 152 52h194q-12 -21 -16 -42.5t-4 -64.5v-249h134v-89zM359 89v249q0 34 5 61h-73q-82 -1 -123 -54q-33 -43 -33 -114q0 -66 40 -105
q37 -37 98 -37h86z" />
    <glyph glyph-name="uniFE88" unicode="&#x625;" horiz-adv-x="274" arabic-form="final" 
d="M95 681h86q-12 -21 -16 -41.5t-4 -65.5v-403q0 -39 23.5 -60.5t66.5 -21.5h42v-89h-34q-107 0 -154 65q-33 46 -33 119v391q0 80 23 106zM125 -108q33 0 56 -16l-8 -25q-20 20 -43 20q-21 0 -35 -14t-14 -35q0 -19 14 -31t35 -12h16q38 0 52 -10v-40q-15 10 -52 10h-90
q-32 0 -48 10v40q16 -10 46 -10q-13 17 -13 38q0 33 23.5 54t60.5 21z" />
    <glyph glyph-name="uniFE89" unicode="&#x626;" horiz-adv-x="717" arabic-form="isolated" 
d="M131 481q33 0 56 -16l-8 -25q-21 20 -43 20q-21 0 -35 -14t-14 -35q0 -19 14 -31t35 -12h16q36 0 52 -9v-41q-17 10 -52 10h-90q-32 0 -48 10v40q15 -10 46 -10q-13 15 -13 38q0 33 23.5 54t60.5 21zM494 450q41 0 77 -9q46 -14 82 -37l-26 -60q-51 61 -129 59
q-65 -1 -105 -55q-36 -47 -35 -116q0 -66 40 -106q37 -37 98 -37h173v-48q0 -158 -112 -241q-83 -62 -198 -62q-77 0 -145 31q-74 34 -117 97q-48 71 -49 169q0 57 19 106q22 50 55 80l56 -31q-45 -23 -67 -71q-14 -34 -14 -77v-9q4 -89 80 -149q72 -59 180 -59q96 0 158 56
q53 48 62 119h-79q-106 0 -171 68q-58 61 -58 157q0 108 76 172q62 53 149 53z" />
    <glyph glyph-name="uniFE8A" unicode="&#x626;" horiz-adv-x="629" arabic-form="final" 
d="M183 328h-90q-32 0 -48 10v40q15 -10 46 -10q-13 15 -13 38q0 33 23.5 54t60.5 21q33 0 56 -16l-8 -25q-21 20 -43 20q-21 0 -35 -14t-14 -35q0 -19 14 -31t35 -12h16q36 0 52 -9v-41q-17 10 -52 10zM667 89l-1 -89q-13 -136 -121 -208q-81 -54 -187 -54q-77 0 -145 31
q-74 34 -117 97q-48 71 -49 169q0 57 19 106q22 50 56 80l56 -31q-46 -23 -68 -71q-15 -34 -15 -77v-9q4 -89 80 -149q73 -59 181 -59q96 0 159 56q53 48 61 119h-88q-80 0 -106 23v86q21 -12 42.5 -16t64.5 -4h178z" />
    <glyph glyph-name="uniFE8B" unicode="&#x626;" horiz-adv-x="298" arabic-form="initial" 
d="M179 709q32 0 56 -15l-8 -25q-20 19 -43 19q-21 0 -35 -14t-14 -35q0 -19 14 -30.5t35 -11.5h16q36 0 52 -10v-40q-17 10 -52 10h-90q-33 0 -48 9v40q14 -9 46 -9q-13 15 -13 37q0 33 23.5 54t60.5 21zM165 445h86q-12 -21 -16 -42.5t-4 -64.5v-154q0 -86 -44 -133
q-48 -51 -143 -51h-44v89h51q43 0 67 22q24 21 24 60v168q0 78 23 106z" />
    <glyph glyph-name="uniFE8C" unicode="&#x626;" horiz-adv-x="345" arabic-form="medial" 
d="M200 557h-90q-33 0 -48 9v40q14 -9 46 -9q-13 15 -13 37q0 33 23.5 54t60.5 21q32 0 56 -15l-8 -25q-20 19 -43 19q-21 0 -35 -14t-14 -35q0 -19 14 -30.5t35 -11.5h16q36 0 52 -10v-40q-17 10 -52 10zM363 89v-89h-34q-95 0 -142 51q-49 -51 -143 -51h-44v89h51
q43 0 67 22q24 21 24 60v168q0 78 23 106h86q-12 -21 -16 -42.5t-4 -64.5v-154v-6v-7q0 -39 23.5 -60.5t66.5 -21.5h42z" />
    <glyph glyph-name="uniFE8E" unicode="&#x627;" horiz-adv-x="274" arabic-form="final" 
d="M94 681h86q-12 -21 -16 -41.5t-4 -65.5v-403q0 -39 23.5 -60.5t66.5 -21.5h42v-89h-34q-107 0 -154 65q-33 46 -33 119v391q0 80 23 106z" />
    <glyph glyph-name="uniFE90" unicode="&#x628;" horiz-adv-x="1087" arabic-form="final" 
d="M1109 89v-88h-34q-96 0 -143 50q-47 -51 -143 -51h-454q-131 0 -212 76q-74 70 -75 182q-2 116 75 187l58 -31q-49 -24 -70 -71q-15 -32 -15 -69q0 -11 1 -21q12 -83 89 -128q60 -35 137 -36h473q43 0 67 21t24 60v169q0 79 23 106h86q-12 -21 -16 -42.5t-4 -64.5v-155
v-2v-10q0 -39 24 -60.5t67 -21.5h42zM538 -119q22 0 37.5 -15.5t15.5 -36.5q0 -22 -15.5 -37.5t-37.5 -15.5q-21 0 -36.5 15.5t-15.5 37.5q0 21 15.5 36.5t36.5 15.5z" />
    <glyph glyph-name="uniFE91" unicode="&#x628;" horiz-adv-x="298" arabic-form="initial" 
d="M165 445h86q-12 -21 -16 -42.5t-4 -64.5v-154q0 -86 -44 -133q-48 -51 -143 -51h-44v89h51q43 0 67 22q24 21 24 60v168q0 78 23 106zM162 -224q-21 0 -36.5 15.5t-15.5 37.5q0 21 15.5 36.5t36.5 15.5q22 0 37.5 -15.5t15.5 -36.5q0 -22 -15.5 -37.5t-37.5 -15.5z" />
    <glyph glyph-name="uniFE92" unicode="&#x628;" horiz-adv-x="345" arabic-form="medial" 
d="M363 89v-89h-34q-95 0 -142 51q-49 -51 -143 -51h-44v89h51q43 0 67 22q24 21 24 60v168q0 78 23 106h86q-12 -21 -16 -42.5t-4 -64.5v-154v-6v-7q0 -39 23.5 -60.5t66.5 -21.5h42zM186 -119q22 0 37.5 -15.5t15.5 -36.5q0 -22 -15.5 -37.5t-37.5 -15.5q-21 0 -36.5 15.5
t-15.5 37.5q0 21 15.5 36.5t36.5 15.5z" />
    <glyph glyph-name="uniFE94" unicode="&#x629;" horiz-adv-x="562" arabic-form="final" 
d="M201 557q-22 0 -37.5 15.5t-15.5 37.5q0 21 15.5 36.5t37.5 15.5q21 0 36.5 -15.5t15.5 -36.5q0 -22 -15.5 -37.5t-36.5 -15.5zM341 557q-21 0 -36.5 15.5t-15.5 37.5q0 21 15.5 36.5t36.5 15.5q22 0 37.5 -15.5t15.5 -36.5q0 -22 -15.5 -37.5t-37.5 -15.5zM582 89v-89
h-35q-90 0 -136 45q-49 -58 -149 -58q-98 0 -158 69q-57 61 -57 165q0 105 69 172q60 57 143 57q66 0 110 -35q4 17 13 30h86q-12 -21 -16 -42.5t-4 -64.5v-166v-1q0 -39 24 -60.5t67 -21.5h43zM360 158v165q0 32 -27 57q-26 23 -64 23q-61 0 -99 -53q-34 -47 -34 -118
q0 -77 40 -119q35 -37 93 -37q43 0 67 22q24 21 24 60z" />
    <glyph glyph-name="uniFE96" unicode="&#x62a;" horiz-adv-x="1088" arabic-form="final" 
d="M460 393q-21 0 -36.5 15.5t-15.5 37.5q0 21 15.5 36.5t36.5 15.5q22 0 37.5 -15.5t15.5 -36.5q0 -22 -15.5 -37.5t-37.5 -15.5zM601 393q-21 0 -36.5 15.5t-15.5 37.5q0 21 15.5 36.5t36.5 15.5q22 0 37.5 -15.5t15.5 -36.5q0 -22 -15.5 -37.5t-37.5 -15.5zM1109 89v-88
h-34q-96 0 -143 50q-47 -51 -143 -51h-454q-131 0 -212 76q-74 70 -75 182q-2 116 75 187l58 -31q-49 -24 -70 -71q-15 -32 -15 -69q0 -11 1 -21q12 -83 89 -128q60 -35 137 -36h473q43 0 67 21t24 60v169q0 79 23 106h86q-12 -21 -16 -42.5t-4 -64.5v-155v-2v-10
q0 -39 24 -60.5t67 -21.5h42z" />
    <glyph glyph-name="uniFE97" unicode="&#x62a;" horiz-adv-x="298" arabic-form="initial" 
d="M62 554q-22 0 -37.5 15.5t-15.5 37.5q0 21 15.5 36.5t37.5 15.5q21 0 36.5 -15.5t15.5 -36.5q0 -22 -15.5 -37.5t-36.5 -15.5zM203 554q-22 0 -37.5 15.5t-15.5 37.5q0 21 15.5 36.5t37.5 15.5q21 0 36.5 -15.5t15.5 -36.5q0 -22 -15.5 -37.5t-36.5 -15.5zM165 445h86
q-12 -21 -16 -42.5t-4 -64.5v-154q0 -86 -44 -133q-48 -51 -143 -51h-44v89h51q43 0 67 22q24 21 24 60v168q0 78 23 106z" />
    <glyph glyph-name="uniFE98" unicode="&#x62a;" horiz-adv-x="345" arabic-form="medial" 
d="M62 554q-22 0 -37.5 15.5t-15.5 37.5q0 21 15.5 36.5t37.5 15.5q21 0 36.5 -15.5t15.5 -36.5q0 -22 -15.5 -37.5t-36.5 -15.5zM203 554q-22 0 -37.5 15.5t-15.5 37.5q0 21 15.5 36.5t37.5 15.5q21 0 36.5 -15.5t15.5 -36.5q0 -22 -15.5 -37.5t-36.5 -15.5zM363 89v-89
h-34q-95 0 -142 51q-49 -51 -143 -51h-44v89h51q43 0 67 22q24 21 24 60v168q0 78 23 106h86q-12 -21 -16 -42.5t-4 -64.5v-154v-6v-7q0 -39 23.5 -60.5t66.5 -21.5h42z" />
    <glyph glyph-name="uniFE9A" unicode="&#x62b;" horiz-adv-x="1088" arabic-form="final" 
d="M531 509q-21 0 -36.5 15.5t-15.5 37.5q0 21 15.5 36.5t36.5 15.5q22 0 37.5 -15.5t15.5 -36.5q0 -22 -15.5 -37.5t-37.5 -15.5zM460 393q-21 0 -36.5 15.5t-15.5 37.5q0 21 15.5 36.5t36.5 15.5q22 0 37.5 -15.5t15.5 -36.5q0 -22 -15.5 -37.5t-37.5 -15.5zM549 446
q0 21 15.5 36.5t36.5 15.5q22 0 37.5 -15.5t15.5 -36.5q0 -22 -15.5 -37.5t-37.5 -15.5q-21 0 -36.5 15.5t-15.5 37.5zM1109 89v-88h-34q-96 0 -143 50q-47 -51 -143 -51h-454q-131 0 -212 76q-74 70 -75 182q-2 116 75 187l58 -31q-49 -24 -70 -71q-15 -32 -15 -69
q0 -11 1 -21q12 -83 89 -128q60 -35 137 -36h473q43 0 67 21t24 60v169q0 79 23 106h86q-12 -21 -16 -42.5t-4 -64.5v-155v-2v-10q0 -39 24 -60.5t67 -21.5h42z" />
    <glyph glyph-name="uniFE9B" unicode="&#x62b;" horiz-adv-x="298" arabic-form="initial" 
d="M132 670q-22 0 -37.5 15.5t-15.5 37.5q0 21 15.5 36.5t37.5 15.5q21 0 36.5 -15.5t15.5 -36.5q0 -22 -15.5 -37.5t-36.5 -15.5zM62 554q-22 0 -37.5 15.5t-15.5 37.5q0 21 15.5 36.5t37.5 15.5q21 0 36.5 -15.5t15.5 -36.5q0 -22 -15.5 -37.5t-36.5 -15.5zM203 554
q-22 0 -37.5 15.5t-15.5 37.5q0 21 15.5 36.5t37.5 15.5q21 0 36.5 -15.5t15.5 -36.5q0 -22 -15.5 -37.5t-36.5 -15.5zM165 445h86q-12 -21 -16 -42.5t-4 -64.5v-154q0 -86 -44 -133q-48 -51 -143 -51h-44v89h51q43 0 67 22q24 21 24 60v168q0 78 23 106z" />
    <glyph glyph-name="uniFE9C" unicode="&#x62b;" horiz-adv-x="345" arabic-form="medial" 
d="M132 670q-22 0 -37.5 15.5t-15.5 37.5q0 21 15.5 36.5t37.5 15.5q21 0 36.5 -15.5t15.5 -36.5q0 -22 -15.5 -37.5t-36.5 -15.5zM62 554q-22 0 -37.5 15.5t-15.5 37.5q0 21 15.5 36.5t37.5 15.5q21 0 36.5 -15.5t15.5 -36.5q0 -22 -15.5 -37.5t-36.5 -15.5zM150 607
q0 21 15.5 36.5t37.5 15.5q21 0 36.5 -15.5t15.5 -36.5q0 -22 -15.5 -37.5t-36.5 -15.5q-22 0 -37.5 15.5t-15.5 37.5zM363 89v-89h-34q-95 0 -142 51q-49 -51 -143 -51h-44v89h51q43 0 67 22q24 21 24 60v168q0 78 23 106h86q-12 -21 -16 -42.5t-4 -64.5v-154v-6v-7
q0 -39 23.5 -60.5t66.5 -21.5h42z" />
    <glyph glyph-name="uniFE9E" unicode="&#x62c;" horiz-adv-x="669" arabic-form="final" 
d="M293 450q236 0 283 -243q14 -72 39 -100q14 -18 46 -18h27v-89h-33q-30 0 -48.5 5t-40.5 19q-24 -15 -44 -19.5t-67 -4.5h-135q-76 0 -128 -37q-57 -42 -57 -120q0 -84 67 -143q63 -54 152 -54q118 1 185 79l26 -59q-45 -32 -99 -50q-52 -16 -114 -16q-142 0 -229 79
q-75 67 -76 164q-1 132 105 199q74 47 169 47h209q-27 37 -47 126q-38 188 -190 188q-43 0 -84 -19q-55 -26 -88 -76l-25 58q41 40 93 62t104 22zM360 -119q22 0 37.5 -15.5t15.5 -36.5q0 -22 -15.5 -37.5t-37.5 -15.5q-21 0 -36.5 15.5t-15.5 37.5q0 21 15.5 36.5
t36.5 15.5z" />
    <glyph glyph-name="uniFE9F" unicode="&#x62c;" horiz-adv-x="746" arabic-form="initial" 
d="M628 88q58 -3 80 -22v-86q-21 12 -42.5 16t-64.5 4h-600l-1 89h534q-26 37 -46 126q-38 188 -190 188q-46 0 -89 -22q-55 -28 -83 -73l-26 58q41 40 93 62t104 22q141 0 216 -88q50 -59 67 -155q19 -90 48 -119zM321 -119q21 0 36.5 -15.5t15.5 -36.5q0 -22 -15.5 -37.5
t-36.5 -15.5q-22 0 -37.5 15.5t-15.5 37.5q0 21 15.5 36.5t37.5 15.5z" />
    <glyph glyph-name="uniFEA0" unicode="&#x62c;" horiz-adv-x="674" arabic-form="medial" 
d="M0 89h534q-28 38 -46 126q-38 188 -190 188q-44 0 -85 -20q-56 -26 -87 -75l-26 58q41 40 93 62t104 22q142 0 216 -88q50 -59 67 -155q15 -73 40 -100q14 -18 45 -18h28v-89h-33q-31 0 -49.5 5t-40.5 19q-24 -15 -44 -19.5t-67 -4.5h-458zM320 -119q22 0 37.5 -15.5
t15.5 -36.5q0 -22 -15.5 -37.5t-37.5 -15.5q-21 0 -36.5 15.5t-15.5 37.5q0 21 15.5 36.5t36.5 15.5z" />
    <glyph glyph-name="uniFEA2" unicode="&#x62d;" horiz-adv-x="669" arabic-form="final" 
d="M293 450q236 0 283 -243q14 -72 39 -100q14 -18 46 -18h27v-89h-33q-30 0 -48.5 5t-40.5 19q-24 -15 -44 -19.5t-67 -4.5h-135q-76 0 -128 -37q-57 -42 -57 -120q0 -84 67 -143q63 -54 152 -54q118 1 185 79l26 -59q-45 -32 -99 -50q-52 -16 -114 -16q-142 0 -229 79
q-75 67 -76 164q-1 132 105 199q74 47 169 47h209q-27 37 -47 126q-38 188 -190 188q-43 0 -84 -19q-55 -26 -88 -76l-25 58q41 40 93 62t104 22z" />
    <glyph glyph-name="uniFEA3" unicode="&#x62d;" horiz-adv-x="746" arabic-form="initial" 
d="M628 88q58 -3 80 -22v-86q-21 12 -42.5 16t-64.5 4h-600l-1 89h534q-26 37 -46 126q-38 188 -190 188q-46 0 -89 -22q-55 -28 -83 -73l-26 58q41 40 93 62t104 22q141 0 216 -88q50 -59 67 -155q19 -90 48 -119z" />
    <glyph glyph-name="uniFEA4" unicode="&#x62d;" horiz-adv-x="674" arabic-form="medial" 
d="M0 89h534q-28 38 -46 126q-38 188 -190 188q-44 0 -85 -20q-56 -26 -87 -75l-26 58q41 40 93 62t104 22q142 0 216 -88q50 -59 67 -155q15 -73 40 -100q14 -18 45 -18h28v-89h-33q-31 0 -49.5 5t-40.5 19q-24 -15 -44 -19.5t-67 -4.5h-458z" />
    <glyph glyph-name="uniFEA6" unicode="&#x62e;" horiz-adv-x="669" arabic-form="final" 
d="M306 557q-21 0 -36.5 15.5t-15.5 37.5q0 21 15.5 36.5t36.5 15.5q22 0 37.5 -15.5t15.5 -36.5q0 -22 -15.5 -37.5t-37.5 -15.5zM293 450q236 0 283 -243q14 -72 39 -100q14 -18 46 -18h27v-89h-33q-30 0 -48.5 5t-40.5 19q-24 -15 -44 -19.5t-67 -4.5h-135
q-76 0 -128 -37q-57 -42 -57 -120q0 -84 67 -143q63 -54 152 -54q118 1 185 79l26 -59q-45 -32 -99 -50q-52 -16 -114 -16q-142 0 -229 79q-75 67 -76 164q-1 132 105 199q74 47 169 47h209q-27 37 -47 126q-38 188 -190 188q-43 0 -84 -19q-55 -26 -88 -76l-25 58
q41 40 93 62t104 22z" />
    <glyph glyph-name="uniFEA7" unicode="&#x62e;" horiz-adv-x="746" arabic-form="initial" 
d="M311 557q-22 0 -37.5 15.5t-15.5 37.5q0 21 15.5 36.5t37.5 15.5q21 0 36.5 -15.5t15.5 -36.5q0 -22 -15.5 -37.5t-36.5 -15.5zM628 88q58 -3 80 -22v-86q-21 12 -42.5 16t-64.5 4h-600l-1 89h534q-26 37 -46 126q-38 188 -190 188q-46 0 -89 -22q-55 -28 -83 -73l-26 58
q41 40 93 62t104 22q141 0 216 -88q50 -59 67 -155q19 -90 48 -119z" />
    <glyph glyph-name="uniFEA8" unicode="&#x62e;" horiz-adv-x="674" arabic-form="medial" 
d="M310 557q-21 0 -36.5 15.5t-15.5 37.5q0 21 15.5 36.5t36.5 15.5q22 0 37.5 -15.5t15.5 -36.5q0 -22 -15.5 -37.5t-37.5 -15.5zM0 89h534q-28 38 -46 126q-38 188 -190 188q-44 0 -85 -20q-56 -26 -87 -75l-26 58q41 40 93 62t104 22q142 0 216 -88q50 -59 67 -155
q15 -73 40 -100q14 -18 45 -18h28v-89h-33q-31 0 -49.5 5t-40.5 19q-24 -15 -44 -19.5t-67 -4.5h-458z" />
    <glyph glyph-name="uniFEAA" unicode="&#x62f;" horiz-adv-x="634" arabic-form="final" 
d="M653 89v-89h-18q-100 0 -148 59q-51 -59 -150 -59h-188q-43 0 -64.5 -4t-42.5 -16v86q26 23 106 23h183q63 0 95 43q24 31 24 76q0 100 -60 153q-45 41 -110 42q-83 2 -141 -59l-26 60q79 46 166 46q124 0 198 -82q61 -68 61 -164v-4h1v-29q0 -39 23.5 -60.5t66.5 -21.5
h24z" />
    <glyph glyph-name="uniFEAC" unicode="&#x630;" horiz-adv-x="634" arabic-form="final" 
d="M165 541q-22 0 -37.5 15.5t-15.5 37.5q0 21 15.5 36.5t37.5 15.5q21 0 36.5 -15.5t15.5 -36.5q0 -22 -15.5 -37.5t-36.5 -15.5zM653 89v-89h-18q-100 0 -148 59q-51 -59 -150 -59h-188q-43 0 -64.5 -4t-42.5 -16v86q26 23 106 23h183q63 0 95 43q24 31 24 76
q0 100 -60 153q-45 41 -110 42q-83 2 -141 -59l-26 60q79 46 166 46q124 0 198 -82q61 -68 61 -164v-4h1v-29q0 -39 23.5 -60.5t66.5 -21.5h24z" />
    <glyph glyph-name="uniFEAE" unicode="&#x631;" horiz-adv-x="416" arabic-form="final" 
d="M433 89v-89h-34q-59 0 -98 19v-49q0 -57 -4.5 -86t-18.5 -55q-44 -91 -172 -91q-82 0 -154 47l26 59q52 -60 126 -60q60 0 91 55q11 19 14.5 43.5t3.5 86.5l-1 199v16v155q0 78 23 106h86q-12 -21 -16 -42.5t-4 -64.5v-167q0 -39 23.5 -60.5t66.5 -21.5h42z" />
    <glyph glyph-name="uniFEB0" unicode="&#x632;" horiz-adv-x="410" arabic-form="final" 
d="M274 554q-22 0 -37.5 15.5t-15.5 37.5q0 21 15.5 36.5t37.5 15.5q21 0 36.5 -15.5t15.5 -36.5q0 -22 -15.5 -37.5t-36.5 -15.5zM428 89v-89h-34q-59 0 -98 19v-49q0 -57 -4.5 -86t-18.5 -55q-44 -91 -172 -91q-82 0 -154 47l26 59q52 -60 126 -60q60 0 91 55
q11 19 14.5 43.5t3.5 86.5l-1 199v16v155q0 78 23 106h86q-12 -21 -16 -42.5t-4 -64.5v-167q0 -39 23.5 -60.5t66.5 -21.5h42z" />
    <glyph glyph-name="uniFEB2" unicode="&#x633;" horiz-adv-x="1365" arabic-form="final" 
d="M1186 445h85q-12 -21 -16 -42.5t-4 -64.5v-167q0 -39 24 -60.5t67 -21.5h42v-89h-35q-95 0 -142 52q-47 -52 -142 -52h-31q-95 0 -142 52q-47 -52 -142 -52h-30q-60 0 -100 21q-4 -104 -61 -178q-80 -105 -224 -105q-140 0 -221 102q-66 82 -66 195q0 57 19 106
q22 50 56 79l56 -30q-47 -24 -68 -71q-15 -34 -15 -77v-9q3 -93 81 -155q67 -53 153 -53q122 0 175 99q28 53 28 135v238q0 80 23 106h86q-12 -21 -16 -41.5t-4 -65.5v-125q0 -39 23.5 -60.5t66.5 -21.5h38q44 0 71 21q26 22 26 61v147q0 79 23 106h86q-12 -21 -16 -42.5
t-4 -64.5v-146q0 -39 24 -60.5t67 -21.5h45q43 0 67 21q24 22 24 61v168q0 80 23 106z" />
    <glyph glyph-name="uniFEB3" unicode="&#x633;" horiz-adv-x="1003" arabic-form="initial" 
d="M869 445h86q-12 -21 -16 -42.5t-4 -64.5v-154q0 -86 -44 -133q-48 -51 -143 -51h-30q-95 0 -143 53q-46 -53 -142 -53h-30q-94 0 -142 53q-48 -53 -142 -53h-119v89h126q43 0 67 21q24 22 24 61v126q0 80 23 106h85q-12 -21 -16 -42.5t-4 -64.5v-125q0 -39 24 -60.5
t67 -21.5h45q42 0 66 21q24 22 24 61v147q0 80 23 106h86q-12 -21 -16 -41.5t-4 -65.5v-146q0 -39 24 -60.5t67 -21.5h44q43 0 67 21q24 22 24 61v168q0 79 23 106z" />
    <glyph glyph-name="uniFEB4" unicode="&#x633;" horiz-adv-x="1049" arabic-form="medial" 
d="M1068 0h-35q-96 0 -142 53q-48 -53 -143 -53h-29q-95 0 -143 53q-46 -53 -142 -53h-31q-94 0 -142 53q-48 -53 -142 -53h-119v89h126q43 0 67 21q24 22 24 61v126q0 80 23 106h85q-12 -21 -16 -42.5t-4 -64.5v-125q0 -39 24 -60.5t68 -21.5h44q43 0 67 21q24 22 24 61
v147q0 80 23 106h86q-12 -21 -16 -41.5t-4 -65.5v-146q0 -39 23.5 -60.5t66.5 -21.5h45q42 0 66 21q24 22 24 61v168q0 79 23 106h86q-12 -21 -16 -42.5t-4 -64.5v-167q0 -39 23.5 -60.5t66.5 -21.5h43v-89z" />
    <glyph glyph-name="uniFEB6" unicode="&#x634;" horiz-adv-x="1365" arabic-form="final" 
d="M899 649q-22 0 -37.5 15.5t-15.5 37.5q0 21 15.5 36.5t37.5 15.5q21 0 36.5 -15.5t15.5 -36.5q0 -22 -15.5 -37.5t-36.5 -15.5zM828 533q-22 0 -37.5 15.5t-15.5 36.5q0 22 15.5 37.5t37.5 15.5q21 0 36.5 -15.5t15.5 -37.5q0 -21 -15.5 -36.5t-36.5 -15.5zM969 533
q-22 0 -37.5 15.5t-15.5 36.5q0 22 15.5 37.5t37.5 15.5q21 0 36.5 -15.5t15.5 -37.5q0 -21 -15.5 -36.5t-36.5 -15.5zM1186 445h85q-12 -21 -16 -42.5t-4 -64.5v-167q0 -39 24 -60.5t67 -21.5h42v-89h-35q-95 0 -142 52q-47 -52 -142 -52h-31q-95 0 -142 52
q-47 -52 -142 -52h-30q-60 0 -100 21q-4 -104 -61 -178q-80 -105 -224 -105q-140 0 -221 102q-66 82 -66 195q0 57 19 106q22 50 56 79l56 -30q-47 -24 -68 -71q-15 -34 -15 -77v-9q3 -93 81 -155q67 -53 153 -53q122 0 175 99q28 53 28 135v238q0 80 23 106h86
q-12 -21 -16 -41.5t-4 -65.5v-125q0 -39 23.5 -60.5t66.5 -21.5h38q44 0 71 21q26 22 26 61v147q0 79 23 106h86q-12 -21 -16 -42.5t-4 -64.5v-146q0 -39 24 -60.5t67 -21.5h45q43 0 67 21q24 22 24 61v168q0 80 23 106z" />
    <glyph glyph-name="uniFEB7" unicode="&#x634;" horiz-adv-x="1003" arabic-form="initial" 
d="M582 649q-21 0 -36.5 15.5t-15.5 37.5q0 21 15.5 36.5t36.5 15.5q22 0 37.5 -15.5t15.5 -36.5q0 -22 -15.5 -37.5t-37.5 -15.5zM511 533q-21 0 -36.5 15.5t-15.5 36.5q0 22 15.5 37.5t36.5 15.5q22 0 37.5 -15.5t15.5 -37.5q0 -21 -15.5 -36.5t-37.5 -15.5zM652 533
q-21 0 -36.5 15.5t-15.5 36.5q0 22 15.5 37.5t36.5 15.5q22 0 37.5 -15.5t15.5 -37.5q0 -21 -15.5 -36.5t-37.5 -15.5zM869 445h86q-12 -21 -16 -42.5t-4 -64.5v-154q0 -86 -44 -133q-48 -51 -143 -51h-30q-95 0 -143 53q-46 -53 -142 -53h-30q-94 0 -142 53
q-48 -53 -142 -53h-119v89h126q43 0 67 21q24 22 24 61v126q0 80 23 106h85q-12 -21 -16 -42.5t-4 -64.5v-125q0 -39 24 -60.5t67 -21.5h45q42 0 66 21q24 22 24 61v147q0 80 23 106h86q-12 -21 -16 -41.5t-4 -65.5v-146q0 -39 24 -60.5t67 -21.5h44q43 0 67 21q24 22 24 61
v168q0 79 23 106z" />
    <glyph glyph-name="uniFEB8" unicode="&#x634;" horiz-adv-x="1049" arabic-form="medial" 
d="M582 649q-21 0 -36.5 15.5t-15.5 37.5q0 21 15.5 36.5t36.5 15.5q22 0 37.5 -15.5t15.5 -36.5q0 -22 -15.5 -37.5t-37.5 -15.5zM511 533q-21 0 -36.5 15.5t-15.5 36.5q0 22 15.5 37.5t36.5 15.5q22 0 37.5 -15.5t15.5 -37.5q0 -21 -15.5 -36.5t-37.5 -15.5zM652 533
q-21 0 -36.5 15.5t-15.5 36.5q0 22 15.5 37.5t36.5 15.5q22 0 37.5 -15.5t15.5 -37.5q0 -21 -15.5 -36.5t-37.5 -15.5zM1068 0h-35q-96 0 -142 53q-48 -53 -143 -53h-29q-95 0 -143 53q-46 -53 -142 -53h-31q-94 0 -142 53q-48 -53 -142 -53h-119v89h126q43 0 67 21
q24 22 24 61v126q0 80 23 106h85q-12 -21 -16 -42.5t-4 -64.5v-125q0 -39 24 -60.5t68 -21.5h44q43 0 67 21q24 22 24 61v147q0 80 23 106h86q-12 -21 -16 -41.5t-4 -65.5v-146q0 -39 23.5 -60.5t66.5 -21.5h45q42 0 66 21q24 22 24 61v168q0 79 23 106h86
q-12 -21 -16 -42.5t-4 -64.5v-167q0 -39 23.5 -60.5t66.5 -21.5h43v-89z" />
    <glyph glyph-name="uniFEBA" unicode="&#x635;" horiz-adv-x="1310" arabic-form="final" 
d="M956 450q124 0 198 -82q61 -69 61 -164v-33q0 -39 23.5 -60.5t66.5 -21.5h24v-89h-18q-100 0 -147 60q-52 -60 -151 -60h-394q-10 -92 -60 -157q-80 -105 -224 -105q-140 0 -221 102q-66 82 -66 195q0 57 19 106q22 50 56 79l56 -30q-47 -24 -68 -71q-15 -34 -15 -77v-9
q3 -93 81 -155q67 -53 153 -53q122 0 175 99q28 53 28 135v238q0 80 23 106h86q-12 -21 -16 -40.5t-4 -63.5v-50q57 100 154 154q85 47 180 47zM956 403q-69 0 -134 -37q-53 -31 -94 -82q-75 -87 -105 -189l-1 -6h385q63 0 95 43q24 31 24 76q0 100 -59 153q-46 42 -111 42z
" />
    <glyph glyph-name="uniFEBB" unicode="&#x635;" horiz-adv-x="870" arabic-form="initial" 
d="M565 450q124 0 197 -82q61 -68 61 -164q0 -92 -53 -148t-148 -56h-622v89h142v208q0 80 23 106h85q-13 -22 -16.5 -40.5t-3.5 -59.5v-54q58 100 155 154q85 47 180 47zM565 403q-69 0 -134 -37q-53 -31 -94 -82q-79 -91 -107 -195h386q63 0 95 43q24 31 24 76
q0 99 -60 153q-46 42 -110 42z" />
    <glyph glyph-name="uniFEBC" unicode="&#x635;" horiz-adv-x="919" arabic-form="medial" 
d="M938 0h-18q-102 0 -148 60q-52 -60 -150 -60h-622v89h142v208q0 80 23 106h85q-13 -22 -16.5 -40.5t-3.5 -59.5v-54q58 100 155 154q85 47 180 47q124 0 197 -82q61 -69 61 -164v-33q0 -45 30 -66q24 -16 61 -16h24v-89zM230 89h386q63 0 95 43q24 31 24 76q0 99 -60 153
q-46 42 -110 42q-69 0 -134 -37q-53 -31 -94 -82q-79 -91 -107 -195z" />
    <glyph glyph-name="uniFEBE" unicode="&#x636;" horiz-adv-x="1310" arabic-form="final" 
d="M914 557q-22 0 -37.5 15.5t-15.5 37.5q0 21 15.5 36.5t37.5 15.5q21 0 36.5 -15.5t15.5 -36.5q0 -22 -15.5 -37.5t-36.5 -15.5zM956 450q124 0 198 -82q61 -69 61 -164v-33q0 -39 23.5 -60.5t66.5 -21.5h24v-89h-18q-100 0 -147 60q-52 -60 -151 -60h-394
q-10 -92 -60 -157q-80 -105 -224 -105q-140 0 -221 102q-66 82 -66 195q0 57 19 106q22 50 56 79l56 -30q-47 -24 -68 -71q-15 -34 -15 -77v-9q3 -93 81 -155q67 -53 153 -53q122 0 175 99q28 53 28 135v238q0 80 23 106h86q-12 -21 -16 -40.5t-4 -63.5v-50q57 100 154 154
q85 47 180 47zM956 403q-69 0 -134 -37q-53 -31 -94 -82q-75 -87 -105 -189l-1 -6h385q63 0 95 43q24 31 24 76q0 100 -59 153q-46 42 -111 42z" />
    <glyph glyph-name="uniFEBF" unicode="&#x636;" horiz-adv-x="870" arabic-form="initial" 
d="M523 557q-22 0 -37.5 15.5t-15.5 37.5q0 21 15.5 36.5t37.5 15.5q21 0 36.5 -15.5t15.5 -36.5q0 -22 -15.5 -37.5t-36.5 -15.5zM565 450q124 0 197 -82q61 -68 61 -164q0 -92 -53 -148t-148 -56h-622v89h142v208q0 80 23 106h85q-13 -22 -16.5 -40.5t-3.5 -59.5v-54
q58 100 155 154q85 47 180 47zM565 403q-69 0 -134 -37q-53 -31 -94 -82q-79 -91 -107 -195h386q63 0 95 43q24 31 24 76q0 99 -60 153q-46 42 -110 42z" />
    <glyph glyph-name="uniFEC0" unicode="&#x636;" horiz-adv-x="919" arabic-form="medial" 
d="M523 557q-22 0 -37.5 15.5t-15.5 37.5q0 21 15.5 36.5t37.5 15.5q21 0 36.5 -15.5t15.5 -36.5q0 -22 -15.5 -37.5t-36.5 -15.5zM938 0h-18q-102 0 -148 60q-52 -60 -150 -60h-622v89h142v208q0 80 23 106h85q-13 -22 -16.5 -40.5t-3.5 -59.5v-54q58 100 155 154
q85 47 180 47q124 0 197 -82q61 -69 61 -164v-33q0 -45 30 -66q24 -16 61 -16h24v-89zM230 89h386q63 0 95 43q24 31 24 76q0 99 -60 153q-46 42 -110 42q-69 0 -134 -37q-53 -31 -94 -82q-79 -91 -107 -195z" />
    <glyph glyph-name="uniFEC2" unicode="&#x637;" horiz-adv-x="929" arabic-form="final" 
d="M174 681h86q-12 -21 -15.5 -40t-4.5 -63v-329q57 99 155 154q86 48 180 47q124 -1 197 -83q61 -68 61 -163v-33q0 -39 23.5 -60.5t66.5 -21.5h25v-89h-18q-102 0 -148 60q-53 -60 -151 -60h-487q-42 0 -63.5 -4t-42.5 -16v86q26 23 105 23h9v486q0 80 22 106zM575 403
q-69 0 -134 -37q-53 -31 -94 -82q-79 -91 -107 -195h386q63 0 95 43q24 31 24 76q0 99 -59 153q-47 42 -111 42z" />
    <glyph glyph-name="uniFEC3" unicode="&#x637;" horiz-adv-x="871" arabic-form="initial" 
d="M165 681h86q-12 -21 -16 -40t-4 -63l-1 -329q57 99 155 154q86 48 180 47q124 -1 198 -83q61 -68 61 -163q0 -92 -53 -148q-54 -56 -150 -56h-621v89h142v486q0 79 23 106zM565 403q-70 0 -134 -37q-53 -31 -95 -82q-78 -91 -106 -195h386q63 0 95 43q24 31 24 76
q0 99 -60 153q-46 42 -110 42z" />
    <glyph glyph-name="uniFEC4" unicode="&#x637;" horiz-adv-x="919" arabic-form="medial" 
d="M938 0h-17q-102 0 -148 60q-53 -60 -151 -60h-622v89h142v486q0 79 23 106h86q-12 -21 -15.5 -40t-4.5 -63l-1 -329q58 99 155 154q86 48 180 47q124 -1 198 -83q61 -68 61 -163v-33q0 -39 23.5 -60.5t66.5 -21.5h24v-89zM230 89h386q63 0 95 43q24 31 24 76
q0 99 -60 153q-46 42 -110 42q-70 0 -134 -37q-53 -31 -94 -82q-79 -91 -107 -195z" />
    <glyph glyph-name="uniFEC6" unicode="&#x638;" horiz-adv-x="929" arabic-form="final" 
d="M174 681h86q-12 -21 -15.5 -40t-4.5 -63v-329q57 99 155 154q86 48 180 47q124 -1 197 -83q61 -68 61 -163v-33q0 -39 23.5 -60.5t66.5 -21.5h25v-89h-18q-102 0 -148 60q-53 -60 -151 -60h-487q-42 0 -63.5 -4t-42.5 -16v86q26 23 105 23h9v486q0 80 22 106zM575 403
q-69 0 -134 -37q-53 -31 -94 -82q-79 -91 -107 -195h386q63 0 95 43q24 31 24 76q0 99 -59 153q-47 42 -111 42zM533 557q-22 0 -37.5 15.5t-15.5 37.5q0 21 15.5 36.5t37.5 15.5q21 0 36.5 -15.5t15.5 -36.5q0 -22 -15.5 -37.5t-36.5 -15.5z" />
    <glyph glyph-name="uniFEC7" unicode="&#x638;" horiz-adv-x="871" arabic-form="initial" 
d="M165 681h86q-12 -21 -16 -40t-4 -63l-1 -329q57 99 155 154q86 48 180 47q124 -1 198 -83q61 -68 61 -163q0 -92 -53 -148q-54 -56 -150 -56h-621v89h142v486q0 79 23 106zM565 403q-70 0 -134 -37q-53 -31 -95 -82q-78 -91 -106 -195h386q63 0 95 43q24 31 24 76
q0 99 -60 153q-46 42 -110 42zM523 557q-22 0 -37.5 15.5t-15.5 37.5q0 21 15.5 36.5t37.5 15.5q21 0 36.5 -15.5t15.5 -36.5q0 -22 -15.5 -37.5t-36.5 -15.5z" />
    <glyph glyph-name="uniFEC8" unicode="&#x638;" horiz-adv-x="919" arabic-form="medial" 
d="M938 0h-17q-102 0 -148 60q-53 -60 -151 -60h-622v89h142v486q0 79 23 106h86q-12 -21 -15.5 -40t-4.5 -63l-1 -329q58 99 155 154q86 48 180 47q124 -1 198 -83q61 -68 61 -163v-33q0 -39 23.5 -60.5t66.5 -21.5h24v-89zM230 89h386q63 0 95 43q24 31 24 76
q0 99 -60 153q-46 42 -110 42q-70 0 -134 -37q-53 -31 -94 -82q-79 -91 -107 -195zM523 557q-22 0 -37.5 15.5t-15.5 37.5q0 21 15.5 36.5t37.5 15.5q21 0 36.5 -15.5t15.5 -36.5q0 -22 -15.5 -37.5t-36.5 -15.5z" />
    <glyph glyph-name="uniFECA" unicode="&#x639;" horiz-adv-x="697" arabic-form="final" 
d="M304 103q-9 80 -65 126q-40 32 -81 32q-5 0 -9 -1q-19 -3 -28 -19l-44 46q110 163 283 163q113 0 183 -65q61 -55 61 -134q0 -95 -92 -162h204v-89h-197h-42q-37 0 -57 4.5t-38 16.5q-24 -21 -67 -21q-70 0 -121 -37q-58 -43 -58 -120q0 -84 67 -143q62 -54 152 -54
q118 1 185 79l25 -59q-45 -33 -103 -51q-48 -15 -109 -15q-142 0 -229 79q-75 67 -76 164q0 114 81 181q58 48 143 60q26 3 35 3q-3 14 -3 16zM360 403q-47 0 -96 -22q-55 -27 -93 -77q9 1 18 1q85 0 145 -63q55 -57 59 -139q59 39 82 63q40 43 40 91q0 73 -50 113
q-42 33 -105 33z" />
    <glyph glyph-name="uniFECB" unicode="&#x639;" horiz-adv-x="596" arabic-form="initial" 
d="M373 450q87 0 166 -46l-26 -60q-58 61 -140 59q-41 0 -76.5 -19t-58.5 -52q-35 -43 -35 -109q0 -53 35 -93q35 -41 92 -41h122q80 0 106 -23v-86q-22 12 -43 16t-64 4h-451v89h155q-41 55 -41 129q0 102 79 170q72 62 180 62z" />
    <glyph glyph-name="uniFECC" unicode="&#x639;" horiz-adv-x="712" arabic-form="medial" 
d="M376 450q112 0 182 -65q61 -55 61 -134q0 -96 -92 -162h204v-89h-197h-42q-37 0 -57 4.5t-38 16.5q-17 -12 -36.5 -16.5t-57.5 -4.5h-42h-261v89h323q-3 7 -3 14q-9 80 -65 126q-40 32 -81 32q-5 0 -9 -1q-19 -3 -28 -19l-44 46q109 163 283 163zM376 403q-50 0 -94 -22
q-55 -25 -95 -77q9 1 18 1q85 0 145 -63q55 -57 59 -139q59 39 82 63q40 43 40 91q0 73 -50 113q-42 33 -105 33z" />
    <glyph glyph-name="uniFECE" unicode="&#x63a;" horiz-adv-x="697" arabic-form="final" 
d="M360 557q-21 0 -36.5 15.5t-15.5 37.5q0 21 15.5 36.5t36.5 15.5q22 0 37.5 -15.5t15.5 -36.5q0 -22 -15.5 -37.5t-37.5 -15.5zM304 103q-9 80 -65 126q-40 32 -81 32q-5 0 -9 -1q-19 -3 -28 -19l-44 46q110 163 283 163q113 0 183 -65q61 -55 61 -134q0 -95 -92 -162
h204v-89h-197h-42q-37 0 -57 4.5t-38 16.5q-24 -21 -67 -21q-70 0 -121 -37q-58 -43 -58 -120q0 -84 67 -143q62 -54 152 -54q118 1 185 79l25 -59q-45 -33 -103 -51q-48 -15 -109 -15q-142 0 -229 79q-75 67 -76 164q0 114 81 181q58 48 143 60q26 3 35 3q-3 14 -3 16z
M360 403q-47 0 -96 -22q-55 -27 -93 -77q9 1 18 1q85 0 145 -63q55 -57 59 -139q59 39 82 63q40 43 40 91q0 73 -50 113q-42 33 -105 33z" />
    <glyph glyph-name="uniFECF" unicode="&#x63a;" horiz-adv-x="596" arabic-form="initial" 
d="M370 557q-21 0 -36.5 15.5t-15.5 37.5q0 21 15.5 36.5t36.5 15.5q22 0 37.5 -15.5t15.5 -36.5q0 -22 -15.5 -37.5t-37.5 -15.5zM373 450q87 0 166 -46l-26 -60q-58 61 -140 59q-41 0 -76.5 -19t-58.5 -52q-35 -43 -35 -109q0 -53 35 -93q35 -41 92 -41h122q80 0 106 -23
v-86q-22 12 -43 16t-64 4h-451v89h155q-41 55 -41 129q0 102 79 170q72 62 180 62z" />
    <glyph glyph-name="uniFED0" unicode="&#x63a;" horiz-adv-x="712" arabic-form="medial" 
d="M376 557q-21 0 -36.5 15.5t-15.5 37.5q0 21 15.5 36.5t36.5 15.5q22 0 37.5 -15.5t15.5 -36.5q0 -22 -15.5 -37.5t-37.5 -15.5zM376 450q112 0 182 -65q61 -55 61 -134q0 -96 -92 -162h204v-89h-197h-42q-37 0 -57 4.5t-38 16.5q-17 -12 -36.5 -16.5t-57.5 -4.5h-42h-261
v89h323q-3 7 -3 14q-9 80 -65 126q-40 32 -81 32q-5 0 -9 -1q-19 -3 -28 -19l-44 46q109 163 283 163zM376 403q-50 0 -94 -22q-55 -25 -95 -77q9 1 18 1q85 0 145 -63q55 -57 59 -139q59 39 82 63q40 43 40 91q0 73 -50 113q-42 33 -105 33z" />
    <glyph glyph-name="uniFED2" unicode="&#x641;" horiz-adv-x="1084" arabic-form="final" 
d="M789 557q-21 0 -36.5 15.5t-15.5 37.5q0 21 15.5 36.5t36.5 15.5q22 0 37.5 -15.5t15.5 -36.5q0 -22 -15.5 -37.5t-37.5 -15.5zM1104 89v-89h-177h-49q-57 0 -89 19q-30 -19 -88 -19h-50h-315q-131 0 -212 76q-74 70 -75 183q-2 115 75 186l57 -30q-48 -24 -69 -72
q-15 -31 -15 -68q0 -11 1 -21q12 -83 89 -129q59 -35 136 -36h328q-28 24 -45.5 63.5t-17.5 78.5q0 84 42 141q56 78 159 78q100 0 158 -76q43 -59 43 -143q0 -39 -17.5 -78.5t-45.5 -63.5h177zM880 163q21 36 21 85q0 59 -25 99q-34 56 -87 56q-54 0 -89 -58
q-23 -39 -23 -97q0 -49 21 -85q31 -53 91 -68q62 16 91 68z" />
    <glyph glyph-name="uniFED3" unicode="&#x641;" horiz-adv-x="582" arabic-form="initial" 
d="M344 554q-22 0 -37.5 15.5t-15.5 37.5q0 21 15.5 36.5t37.5 15.5q21 0 36.5 -15.5t15.5 -36.5q0 -22 -15.5 -37.5t-36.5 -15.5zM341 445h194q-12 -21 -16 -42.5t-4 -64.5v-154q0 -86 -44 -133q-48 -51 -143 -51h-328v89h159q-45 51 -45 133q0 109 75 171q62 52 152 52z
M431 399h-73q-82 -1 -123 -54q-33 -43 -33 -114q0 -66 40 -105q37 -37 98 -37q39 0 63 21q23 22 23 61v167q0 34 5 61z" />
    <glyph glyph-name="uniFED4" unicode="&#x641;" horiz-adv-x="610" arabic-form="medial" 
d="M315 558q-22 0 -37.5 15.5t-15.5 37.5q0 21 15.5 36.5t37.5 15.5q21 0 36.5 -15.5t15.5 -36.5q0 -22 -15.5 -37.5t-36.5 -15.5zM629 89v-89h-176h-49q-58 0 -89 19q-31 -19 -89 -19h-49h-177v89h177q-28 24 -45.5 63.5t-17.5 78.5q0 83 41 141q58 78 160 78
q101 0 157 -76q43 -57 43 -143q0 -39 -17 -78.5t-45 -63.5h176zM406 163q21 36 21 85q0 59 -25 99q-34 56 -87 56q-54 0 -89 -58q-23 -39 -23 -97q0 -49 21 -85q31 -53 91 -68q62 16 91 68z" />
    <glyph glyph-name="uniFED6" unicode="&#x642;" horiz-adv-x="783" arabic-form="final" 
d="M426 554q-22 0 -37.5 15.5t-15.5 37.5q0 21 15.5 36.5t37.5 15.5q21 0 36.5 -15.5t15.5 -36.5q0 -22 -15.5 -37.5t-36.5 -15.5zM567 554q-22 0 -37.5 15.5t-15.5 37.5q0 21 15.5 36.5t37.5 15.5q21 0 36.5 -15.5t15.5 -36.5q0 -22 -15.5 -37.5t-36.5 -15.5zM802 0h-135
q-15 -137 -122 -208q-81 -54 -187 -54q-77 0 -145 31q-74 34 -117 97q-48 71 -49 169q0 57 19 106q22 50 55 79l57 -30q-44 -22 -68 -71q-15 -32 -15 -75v-11q4 -89 80 -149q73 -59 181 -59q96 0 159 56q52 48 61 119h-79q-106 0 -171 68q-58 61 -58 156q0 107 75 169
q62 52 152 52h195q-13 -21 -17 -42.5t-4 -64.5v-249h133v-89zM579 89v249q0 34 5 61h-73q-82 -1 -123 -54q-33 -43 -33 -114q0 -66 40 -105q37 -37 98 -37h86z" />
    <glyph glyph-name="uniFED7" unicode="&#x642;" horiz-adv-x="590" arabic-form="initial" 
d="M280 554q-22 0 -37.5 15.5t-15.5 37.5q0 21 15.5 36.5t37.5 15.5q21 0 36.5 -15.5t15.5 -36.5q0 -22 -15.5 -37.5t-36.5 -15.5zM421 554q-22 0 -37.5 15.5t-15.5 37.5q0 21 15.5 36.5t37.5 15.5q21 0 36.5 -15.5t15.5 -36.5q0 -22 -15.5 -37.5t-36.5 -15.5zM348 445h194
q-12 -21 -16 -42.5t-4 -64.5v-154q0 -86 -44 -133q-48 -51 -143 -51h-335v89h167q-45 52 -45 133q0 109 74 171q62 52 152 52zM438 399h-73q-82 -1 -122 -54q-33 -43 -33 -114q0 -66 40 -105q37 -37 98 -37q39 0 62 21q23 22 23 61v167q0 34 5 61z" />
    <glyph glyph-name="uniFED8" unicode="&#x642;" horiz-adv-x="610" arabic-form="medial" 
d="M244 554q-22 0 -37.5 15.5t-15.5 37.5q0 21 15.5 36.5t37.5 15.5q21 0 36.5 -15.5t15.5 -36.5q0 -22 -15.5 -37.5t-36.5 -15.5zM385 554q-22 0 -37.5 15.5t-15.5 37.5q0 21 15.5 36.5t37.5 15.5q21 0 36.5 -15.5t15.5 -36.5q0 -22 -15.5 -37.5t-36.5 -15.5zM629 89v-89
h-176h-49q-58 0 -89 19q-31 -19 -89 -19h-49h-177v89h177q-28 24 -45.5 63.5t-17.5 78.5q0 83 41 141q58 78 160 78q101 0 157 -76q43 -57 43 -143q0 -39 -17 -78.5t-45 -63.5h176zM406 163q21 36 21 85q0 59 -25 99q-34 56 -87 56q-54 0 -89 -58q-23 -39 -23 -97
q0 -49 21 -85q31 -53 91 -68q62 16 91 68z" />
    <glyph glyph-name="uniFEDA" unicode="&#x643;" horiz-adv-x="1088" arabic-form="final" 
d="M1109 89v-88h-35q-95 0 -142 50q-47 -51 -143 -51h-454q-131 0 -212 76q-74 70 -75 182q-2 116 75 187l58 -30q-49 -25 -70 -72q-15 -32 -15 -69q0 -10 1 -21q12 -83 89 -128q60 -35 137 -36h473q43 0 67 21t24 60v405q0 79 23 106h86q-12 -21 -16 -42.5t-4 -64.5v-390
l-1 -21q3 -40 33 -59q23 -15 59 -15h42zM459 319q-16 -2 -30 -2q-17 0 -25 3v39q7 -4 19 -4q14 0 37 5l8 2q-39 29 -39 79q2 54 39 85q32 27 79 27q36 0 75 -22l-9 -25q-28 25 -64 25q-27 0 -47 -17.5t-24 -43.5q-4 -9 -4 -22q0 -20 11 -35q12 -27 49 -27q21 0 53 8
q22 5 38 5q12 0 22 -3v-40q-10 3 -21 3q-15 0 -36 -5q-18 -5 -50 -14q-58 -17 -81 -21z" />
    <glyph glyph-name="uniFEDB" unicode="&#x643;" horiz-adv-x="649" arabic-form="initial" 
d="M343 450q124 0 197 -82q61 -68 61 -164q0 -92 -53 -148t-149 -56h-398l-1 89h394q63 0 94 43q24 31 24 76q0 100 -58 153q-44 41 -109 42q-7 1 -17 1q-17 0 -36 -3q-22 -3 -51 -12q-58 -19 -109 -72l-28 63l171 230q46 63 81 71l68 -52q-22 -8 -38 -23t-43 -50l-81 -112
q37 6 81 6z" />
    <glyph glyph-name="uniFEDC" unicode="&#x643;" horiz-adv-x="697" arabic-form="medial" 
d="M716 89v-89h-18q-100 0 -147 58q-53 -58 -152 -58h-398l-1 89h394q63 0 95 43q24 31 24 76q0 100 -58 153q-44 41 -110 42q-7 1 -16 1q-18 0 -36 -3q-23 -3 -52 -12q-58 -19 -109 -72l-28 63l171 230q46 63 81 71l68 -52q-22 -8 -38 -23t-43 -50l-81 -112q37 6 81 6
q124 0 198 -82q60 -68 60 -164v-4v-29q0 -39 24 -60.5t67 -21.5h24z" />
    <glyph glyph-name="uniFEDE" unicode="&#x644;" horiz-adv-x="735" arabic-form="final" 
d="M556 681h86q-12 -21 -16 -41.5t-4 -65.5v-403q0 -39 23.5 -60.5t66.5 -21.5h42v-89h-34q-60 0 -100 21q-4 -104 -61 -178q-80 -105 -224 -105q-140 0 -221 102q-66 82 -66 195q0 57 19 106q22 50 56 80l56 -31q-47 -23 -68 -71q-15 -34 -15 -77v-9q3 -93 81 -155
q67 -53 153 -53q122 0 175 99q28 53 28 135v516q0 80 23 106z" />
    <glyph glyph-name="uniFEDF" unicode="&#x644;" horiz-adv-x="298" arabic-form="initial" 
d="M165 681h86q-12 -21 -16 -42.5t-4 -64.5v-390q0 -86 -44 -133q-48 -51 -143 -51h-44v89h51q43 0 67 22q24 21 24 60v404q0 79 23 106z" />
    <glyph glyph-name="uniFEE0" unicode="&#x644;" horiz-adv-x="345" arabic-form="medial" 
d="M364 0h-35q-96 0 -142 53q-48 -53 -143 -53h-44v89h51q43 0 67 22q24 21 24 60v404q0 79 23 106h86q-12 -21 -16 -42.5t-4 -64.5v-403q0 -39 23.5 -60.5t66.5 -21.5h43v-89z" />
    <glyph glyph-name="uniFEE2" unicode="&#x645;" horiz-adv-x="673" arabic-form="final" 
d="M692 88v-88h-18q-103 0 -147 62q-57 -71 -152 -71q-52 0 -93 22h-84q-30 0 -37 -21q-3 -11 -4 -50v-126q0 -79 -23 -106h-86q12 21 16 42.5t4 64.5v147v12q0 56 23 88q27 33 76 37q9 1 31 1q-26 52 -26 121q0 105 60 169q56 58 143 58q100 0 156 -75q46 -61 46 -152v-8
v-45q0 -38 24 -60t67 -22h24zM375 79q58 0 89 47q25 40 25 105q0 81 -36 130q-31 42 -78 42q-54 0 -86 -55q-28 -47 -28 -117q0 -75 33 -115q30 -37 81 -37z" />
    <glyph glyph-name="uniFEE3" unicode="&#x645;" horiz-adv-x="568" arabic-form="initial" 
d="M318 450q100 0 156 -75q46 -61 46 -153q0 -108 -60 -173q-55 -60 -142 -60q-97 0 -152 72q-46 -61 -148 -61h-18v89h24q43 0 67 20q24 22 24 62v50v1q0 106 60 170q56 58 143 58zM317 78q58 0 89 47q25 40 25 106q0 81 -36 130q-31 42 -78 42q-54 0 -86 -54
q-28 -48 -28 -118q0 -75 33 -116q30 -37 81 -37z" />
    <glyph glyph-name="uniFEE4" unicode="&#x645;" horiz-adv-x="616" arabic-form="medial" 
d="M636 89v-89h-18q-103 0 -148 60q-55 -71 -152 -71t-152 72q-46 -61 -148 -61h-18v89h24q43 0 67 20q24 22 24 62v50v1q0 106 60 170q56 58 143 58q100 0 156 -75q46 -62 46 -153v-7v-44q0 -39 24.5 -60.5t67.5 -21.5h24zM317 78q58 0 89 47q25 40 25 106q0 81 -36 130
q-31 42 -78 42q-54 0 -86 -54q-28 -48 -28 -118q0 -75 33 -116q30 -37 81 -37z" />
    <glyph glyph-name="uniFEE6" unicode="&#x646;" horiz-adv-x="735" arabic-form="final" 
d="M315 345q-22 0 -37.5 15.5t-15.5 37.5q0 21 15.5 36.5t37.5 15.5q21 0 36.5 -15.5t15.5 -36.5q0 -22 -15.5 -37.5t-36.5 -15.5zM556 445h86q-12 -21 -16 -41.5t-4 -65.5v-167q0 -39 23.5 -60.5t66.5 -21.5h42v-89h-34q-60 0 -100 21q-4 -104 -61 -178q-80 -105 -224 -105
q-140 0 -221 102q-66 82 -66 195q0 57 19 106q22 50 56 79l56 -30q-47 -24 -68 -71q-15 -34 -15 -77v-9q3 -93 81 -155q67 -53 153 -53q122 0 175 99q28 53 28 135v280q0 80 23 106z" />
    <glyph glyph-name="uniFEE7" unicode="&#x646;" horiz-adv-x="298" arabic-form="initial" 
d="M203 554q-22 0 -37.5 15.5t-15.5 37.5q0 21 15.5 36.5t37.5 15.5q21 0 36.5 -15.5t15.5 -36.5q0 -22 -15.5 -37.5t-36.5 -15.5zM165 445h86q-12 -21 -16 -42.5t-4 -64.5v-154q0 -86 -44 -133q-48 -51 -143 -51h-44v89h51q43 0 67 22q24 21 24 60v168q0 78 23 106z" />
    <glyph glyph-name="uniFEE8" unicode="&#x646;" horiz-adv-x="343" arabic-form="medial" 
d="M203 554q-22 0 -37.5 15.5t-15.5 37.5q0 21 15.5 36.5t37.5 15.5q21 0 36.5 -15.5t15.5 -36.5q0 -22 -15.5 -37.5t-36.5 -15.5zM363 89v-89h-34q-95 0 -142 51q-49 -51 -143 -51h-44v89h51q43 0 67 22q24 21 24 60v168q0 78 23 106h86q-12 -21 -16 -42.5t-4 -64.5v-154
v-6v-7q0 -39 23.5 -60.5t66.5 -21.5h42z" />
    <glyph glyph-name="uniFEEA" unicode="&#x647;" horiz-adv-x="562" arabic-form="final" 
d="M582 89v-89h-35q-90 0 -136 45q-49 -58 -149 -58q-98 0 -158 69q-57 61 -57 165q0 105 69 172q60 57 143 57q66 0 110 -35q4 17 13 30h86q-12 -21 -16 -42.5t-4 -64.5v-166v-1q0 -39 24 -60.5t67 -21.5h43zM360 158v165q0 32 -27 57q-26 23 -64 23q-61 0 -99 -53
q-34 -47 -34 -118q0 -77 40 -119q35 -37 93 -37q43 0 67 22q24 21 24 60z" />
    <glyph glyph-name="uniFEEB" unicode="&#x647;" horiz-adv-x="763" arabic-form="initial" 
d="M465 449q120 -3 191 -85q59 -68 59 -161q0 -92 -53 -147q-54 -56 -149 -56h-108l-50 -1q-59 0 -90 20q-32 -20 -158 -20l-107 1v88h153q-39 42 -39 105q0 54 36 97q34 40 84 51l-14 32q51 42 118 62q34 10 74 13q17 1 53 1zM378 88h129q63 0 95 43q24 31 24 76
q0 100 -58 153q-44 41 -110 42q-6 1 -16 1q-17 0 -35 -3q-24 -3 -53 -12q-41 -14 -79 -45q68 -3 109 -56q33 -43 33 -94q0 -62 -39 -105zM265 93q33 10 53.5 39.5t20.5 66.5q0 45 -22 75q-21 27 -52 27q-32 0 -53 -29t-21 -73q0 -37 20.5 -66.5t53.5 -39.5z" />
    <glyph glyph-name="uniFEEC" unicode="&#x647;" horiz-adv-x="810" arabic-form="medial" 
d="M829 88v-88h-18q-101 0 -147 58q-53 -58 -151 -58h-108l-50 -1q-59 0 -90 20q-32 -20 -159 -20l-106 1v88h153q-39 42 -39 105q0 54 36 97q34 40 84 51l-14 32q50 42 118 62q34 10 74 13q17 1 53 1q120 -3 191 -85q59 -68 59 -161v-4v-29q0 -39 23.5 -60.5t66.5 -21.5h24
zM378 88h129q63 0 95 43q24 31 24 76q0 100 -58 153q-44 41 -110 42q-6 1 -16 1q-17 0 -35 -3q-24 -3 -53 -12q-41 -14 -79 -45q68 -3 109 -56q33 -43 33 -94q0 -62 -39 -105zM265 93q33 10 53.5 39.5t20.5 66.5q0 45 -22 75q-21 27 -52 27q-32 0 -53 -29t-21 -73
q0 -37 20.5 -66.5t53.5 -39.5z" />
    <glyph glyph-name="uniFEEE" unicode="&#x648;" horiz-adv-x="562" arabic-form="final" 
d="M582 0h-134v-16q0 -62 -4 -91t-15 -53q-49 -103 -182 -102q-85 0 -157 49l27 59q23 -30 57 -46.5t71 -16.5q61 -1 95 53q11 18 15 43t4 74v47h-83q-106 0 -171 68q-58 61 -58 156q0 107 75 169q62 52 152 52h194q-12 -21 -16 -42.5t-4 -64.5v-249h134v-89zM359 89v249
q0 34 5 61h-73q-82 -1 -123 -54q-33 -43 -33 -114q0 -66 40 -105q37 -37 98 -37h86z" />
    <glyph glyph-name="uniFEEF" unicode="&#x649;" horiz-adv-x="717" arabic-form="isolated" 
d="M494 450q41 0 77 -9q46 -14 82 -37l-26 -60q-51 61 -129 59q-65 -1 -105 -55q-36 -47 -35 -116q0 -66 40 -106q37 -37 98 -37h173v-48q0 -158 -112 -241q-83 -62 -198 -62q-77 0 -145 31q-74 34 -117 97q-48 71 -49 169q0 57 19 106q21 50 55 80l56 -31q-46 -23 -68 -71
q-14 -34 -14 -77v-9q4 -89 80 -149q73 -59 180 -59q97 0 159 56q53 48 62 119h-79q-106 0 -171 68q-58 61 -58 157q0 108 76 172q62 53 149 53z" />
    <glyph glyph-name="uniFEF0" unicode="&#x649;" horiz-adv-x="629" arabic-form="final" 
d="M668 89l-1 -89q-13 -136 -121 -208q-81 -54 -187 -54q-77 0 -145 31q-74 34 -117 97q-48 71 -49 169q0 57 19 106q22 50 56 80l56 -31q-46 -23 -68 -71q-15 -34 -15 -77v-9q4 -89 80 -149q73 -59 181 -59q96 0 159 56q53 48 61 119h-88q-80 0 -106 23v86q21 -12 42.5 -16
t64.5 -4h178z" />
    <glyph glyph-name="uniFEF2" unicode="&#x64a;" horiz-adv-x="629" arabic-form="final" 
d="M668 89l-1 -89q-13 -136 -121 -208q-81 -54 -187 -54q-77 0 -145 31q-74 34 -117 97q-48 71 -49 169q0 57 19 106q22 50 56 80l56 -31q-46 -23 -68 -71q-15 -34 -15 -77v-9q4 -89 80 -149q73 -59 181 -59q96 0 159 56q53 48 61 119h-88q-80 0 -106 23v86q21 -12 42.5 -16
t64.5 -4h178zM289 -365q21 0 36.5 -15.5t15.5 -37.5q0 -21 -15.5 -36.5t-36.5 -15.5q-22 0 -37.5 15.5t-15.5 36.5q0 22 15.5 37.5t37.5 15.5zM430 -365q21 0 36.5 -15.5t15.5 -37.5q0 -21 -15.5 -36.5t-36.5 -15.5q-22 0 -37.5 15.5t-15.5 36.5q0 22 15.5 37.5t37.5 15.5z
" />
    <glyph glyph-name="uniFEF3" unicode="&#x64a;" horiz-adv-x="298" arabic-form="initial" 
d="M164 445h86q-12 -21 -16 -42.5t-4 -64.5v-154q0 -86 -44 -133q-48 -51 -142 -51h-44v89h51q42 0 66 22q24 21 24 60v168q0 79 23 106zM22 -119q22 0 37.5 -15.5t15.5 -36.5q0 -22 -15.5 -37.5t-37.5 -15.5q-21 0 -36.5 15.5t-15.5 37.5q0 21 15.5 36.5t36.5 15.5z
M163 -119q22 0 37.5 -15.5t15.5 -36.5q0 -22 -15.5 -37.5t-37.5 -15.5q-21 0 -36.5 15.5t-15.5 37.5q0 21 15.5 36.5t36.5 15.5z" />
    <glyph glyph-name="uniFEF4" unicode="&#x64a;" horiz-adv-x="345" arabic-form="medial" 
d="M363 89v-89h-34q-95 0 -142 51q-49 -51 -143 -51h-44v89h51q43 0 67 22q24 21 24 60v168q0 79 23 106h86q-12 -21 -16 -42.5t-4 -64.5v-154v-6v-7q0 -39 23.5 -60.5t66.5 -21.5h42zM44 -119q22 0 37.5 -15.5t15.5 -36.5q0 -22 -15.5 -37.5t-37.5 -15.5q-21 0 -36.5 15.5
t-15.5 37.5q0 21 15.5 36.5t36.5 15.5zM185 -119q22 0 37.5 -15.5t15.5 -36.5q0 -22 -15.5 -37.5t-37.5 -15.5q-21 0 -36.5 15.5t-15.5 37.5q0 21 15.5 36.5t36.5 15.5z" />
    <glyph glyph-name=".notdef" horiz-adv-x="250" 
d="M25 0v714h200v-714h-200zM200 25v664h-150v-664h150z" />
    <glyph glyph-name="space" unicode=" " horiz-adv-x="250" 
 />
    <glyph glyph-name="exclam" unicode="!" horiz-adv-x="281" 
d="M161 163h-43l-29 509v3q0 19 15.5 32.5t37.5 13.5q20 0 35.5 -14t15.5 -32v-3zM201 47q0 -25 -17.5 -42t-42.5 -17t-43 17.5t-18 41.5t18 41.5t43 17.5t42.5 -17t17.5 -42z" />
    <glyph glyph-name="quotedbl" unicode="&#x22;" horiz-adv-x="337" 
d="M115 469h-49q-22 207 -22 213q0 17 14 28.5t33 11.5t33 -12t14 -28zM270 469h-49q-22 207 -22 213q0 17 14 28.5t33 11.5t33 -12t14 -28z" />
    <glyph glyph-name="numbersign" unicode="#" horiz-adv-x="517" 
d="M129 0h-65l32 200h-65v60h75l24 147h-77v60h87l34 209h65l-34 -209h131l38 209h65l-38 -209h62v-60h-72l-26 -147h76v-60h-87l-35 -200h-65l35 200h-128zM195 407l-24 -147h129l26 147h-131z" />
    <glyph glyph-name="dollar" unicode="$" horiz-adv-x="528" 
d="M291 -61h-51v49q-108 1 -195 60l41 95q46 -52 73 -71q40 -28 81 -30v295l-22 14q-94 58 -128 103q-34 43 -34 97q0 87 64 132q48 35 121 39v50h50v-51q79 -6 172 -49l-36 -92q-80 75 -136 84q1 -122 1 -214q0 -30 1 -30q78 -47 98.5 -61.5t40.5 -36.5q50 -52 50 -126
q2 -87 -55 -144q-51 -51 -136 -62v-51zM291 314v-271q52 4 78 48q18 32 18 72q0 88 -96 151zM240 450l1 215q-42 -2 -67 -31q-22 -25 -22 -62q0 -73 88 -122z" />
    <glyph glyph-name="percent" unicode="%" horiz-adv-x="714" 
d="M180 0h-77l408 714h77zM185 385q-67 0 -103 59q-28 46 -28 110q0 68 37 118q36 50 94 50q67 0 105 -57q29 -46 29 -109q0 -68 -38 -120q-38 -51 -96 -51zM246 559q0 46 -12 80q-16 43 -49 43q-37 0 -53 -51q-9 -30 -9 -73q0 -47 13 -83q16 -45 49 -45q61 0 61 129z
M527 324q67 0 104 -57q29 -46 29 -109q0 -68 -38 -119q-38 -52 -95 -52q-68 0 -104 59q-28 46 -28 110q0 69 37 119q37 49 95 49zM587 160q0 123 -61 123q-37 0 -53 -51q-9 -30 -9 -73q0 -48 13 -83q16 -45 49 -45q61 0 61 129z" />
    <glyph glyph-name="ampersand" unicode="&#x26;" horiz-adv-x="617" 
d="M448 526h91q0 -26 -13 -47t-53 -61q49 -32 76 -90q23 -48 23 -98q0 -117 -84 -185q-72 -57 -179 -57q-131 0 -204 81q-60 66 -60 162q0 95 62 161q43 45 97 60q-21 9 -38 26q-38 38 -38 95q0 69 63 113q53 36 126 36q62 0 152 -50l-28 -76q-21 29 -55 48t-66 19
q-46 0 -72 -34q-21 -27 -21 -65q0 -34 21 -62t55 -39q-154 -66 -154 -232q0 -89 57 -141q47 -42 112 -42q73 0 116 55q38 49 38 124q0 91 -43 143q-29 -39 -38 -79l-85 1q0 27 16.5 54.5t59.5 73.5q37 38 51.5 61.5t14.5 44.5z" />
    <glyph glyph-name="quotesingle" unicode="'" horiz-adv-x="183" 
d="M109 469h-37l-22 213q0 18 11.5 29t29.5 11q17 0 29 -11.5t12 -28.5z" />
    <glyph glyph-name="parenleft" unicode="(" horiz-adv-x="336" 
d="M264 -212h-34q-152 197 -151 495q2 265 149 484h36q-100 -235 -100 -481q0 -238 100 -498z" />
    <glyph glyph-name="parenright" unicode=")" horiz-adv-x="336" 
d="M107 -212h-34q100 260 100 498q0 246 -100 481h36q147 -219 149 -484q1 -298 -151 -495z" />
    <glyph glyph-name="asterisk" unicode="*" horiz-adv-x="458" 
d="M159 635l35 -35q22 -21 29 -23q0 21 -10 50q-9 32 -9 50q0 16 7.5 26.5t18.5 10.5q27 0 27 -38q0 -11 -11 -49q-10 -30 -10 -50q14 5 32 23q19 21 32 34q20 17 38 17q11 0 18.5 -6.5t7.5 -15.5q0 -21 -22 -31q-13 -7 -50 -16q-33 -9 -50 -17q21 -11 64 -21q31 -7 44 -19
q13 -13 13 -25q0 -9 -7 -16t-16 -7q-18 0 -37 16q-12 8 -35 32q-23 22 -32 27q0 -17 9 -55q10 -34 10 -48t-8 -24.5t-19 -10.5q-10 0 -18 10t-8 23q0 20 10 51q11 38 11 54q-13 -7 -33 -27q-29 -29 -32 -31q-18 -15 -35 -15q-27 0 -27 22q0 21 25 33q13 5 52 15q34 9 44 16
q-10 6 -47 16q-39 11 -49 17q-23 12 -23 31q0 23 21 23q17 0 40 -17z" />
    <glyph glyph-name="plus" unicode="+" horiz-adv-x="607" 
d="M45 293h223v233h66v-233h228v-61h-228v-232h-66v232h-223v61z" />
    <glyph glyph-name="comma" unicode="," horiz-adv-x="224" 
d="M59 -148l-10 21q38 23 64 57t26 60q0 15 -15 15l-27 -4q-22 0 -42 14q-20 17 -20 45q0 25 19 42.5t46 17.5q41 0 63 -33q19 -29 19 -74q0 -31 -21.5 -68t-54.5 -63q-28 -22 -47 -30z" />
    <glyph glyph-name="hyphen" unicode="-" horiz-adv-x="346" 
d="M40 272v55h266v-55h-266z" />
    <glyph glyph-name="period" unicode="." horiz-adv-x="213" 
d="M107 -12q-24 0 -40.5 16.5t-16.5 39.5q0 24 16.5 39.5t40.5 15.5q23 0 39.5 -16t16.5 -39t-16.5 -39.5t-39.5 -16.5z" />
    <glyph glyph-name="slash" unicode="/" horiz-adv-x="352" 
d="M62 -215h-75l271 987h75z" />
    <glyph glyph-name="zero" unicode="0" horiz-adv-x="563" 
d="M282 -12q-104 0 -168 91q-70 100 -70 270q0 167 66 269q67 103 172 103q103 0 167 -91q70 -97 70 -281q0 -148 -70 -255q-69 -106 -167 -106zM281 40q46 0 84 65q49 89 49 259q0 152 -43 237q-34 73 -87 73q-54 0 -92 -75q-44 -90 -44 -241q0 -162 48 -252q38 -66 85 -66
z" />
    <glyph glyph-name="one" unicode="1" horiz-adv-x="406" 
d="M201 111v528l-114 -34l-32 70q55 0 108.5 11.5t131.5 40.5v-613q0 -73 24 -114h-103l-8 34q-7 35 -7 77z" />
    <glyph glyph-name="two" unicode="2" horiz-adv-x="513" 
d="M177 63h140q61 0 107 14q20 6 33 15v-92h-427q15 32 28 57q40 76 107 196l123 216q52 95 52 126q-2 79 -84 79q-97 0 -170 -95l-34 84q37 25 95.5 41.5t109.5 16.5q90 0 140 -41q43 -39 45 -101q0 -42 -45 -125l-63 -105q-119 -209 -157 -286z" />
    <glyph glyph-name="three" unicode="3" horiz-adv-x="482" 
d="M50 41l30 81q60 -83 143 -83h6q70 0 114 50q41 45 41 114q0 100 -95 161q-68 44 -167 59l161 231h-43q-95 0 -147 -28v88h314l-155 -206q98 -30 156 -103q55 -69 55 -157q0 -124 -79 -197q-68 -63 -170 -63q-44 0 -89 14.5t-75 38.5z" />
    <glyph glyph-name="four" unicode="4" horiz-adv-x="550" 
d="M324 0v197h-279l239 517h97l-210 -452h153v181h89v-181h93v-81q-33 16 -77 16h-16v-197h-89z" />
    <glyph glyph-name="five" unicode="5" horiz-adv-x="485" 
d="M45 41l31 80q59 -80 138 -80h7q67 3 111 50q40 43 40 107q0 111 -97 173q-74 48 -182 54v289h303v-91q-32 18 -65 24.5t-91 6.5h-82v-132q133 -9 216 -91q79 -77 79 -192q0 -111 -73 -184q-67 -67 -166 -67q-41 0 -88 15t-81 38z" />
    <glyph glyph-name="six" unicode="6" horiz-adv-x="569" 
d="M489 682l-34 -74q-67 67 -129 67q-77 0 -121 -95q-27 -60 -37 -146q60 75 144 75q99 0 155 -99q42 -74 42 -168q0 -107 -61 -181q-59 -73 -152 -73q-132 0 -193 116q-43 84 -43 214q0 88 24 173q28 101 82 160q64 71 157 71q80 0 166 -40zM409 243q0 208 -120 208
q-124 0 -124 -208q0 -87 35 -143q33 -53 89 -53q64 0 95 65q25 51 25 131z" />
    <glyph glyph-name="seven" unicode="7" horiz-adv-x="476" 
d="M197 0h-104q36 141 71 250q88 273 171 404h-128q-43 0 -84 -8t-63 -20v88h402q-145 -224 -265 -714z" />
    <glyph glyph-name="eight" unicode="8" horiz-adv-x="540" 
d="M263 -12q-111 0 -172 70q-46 53 -46 121q0 62 33 115.5t107 111.5q-44 29 -70.5 70.5t-26.5 82.5q0 93 76 136q48 27 112 27q76 0 121 -40q39 -35 39 -88q0 -51 -24.5 -88t-80.5 -72q164 -85 164 -244q0 -83 -65 -143q-65 -59 -167 -59zM225 379q-58 -45 -84 -86
q-30 -47 -30 -106q0 -77 53 -114q38 -26 97 -26q68 0 111 44q37 37 37 88q0 61 -63 122q-51 48 -121 78zM287 462q41 22 64.5 54.5t23.5 66.5q0 42 -30 67q-27 21 -66 21q-60 0 -89 -28q-23 -21 -23 -54q0 -34 34.5 -70.5t85.5 -56.5z" />
    <glyph glyph-name="nine" unicode="9" horiz-adv-x="532" 
d="M66 28l34 76q58 -67 129 -67q77 0 121 94q29 62 36 145q-55 -76 -143 -76q-99 0 -155 99q-43 74 -43 168q0 107 61 182q60 73 152 73q132 0 193 -117q43 -84 43 -214q0 -88 -24 -172q-28 -101 -82 -161q-64 -70 -156 -70q-80 0 -166 40zM145 466q0 -208 120 -208
q125 0 125 208q0 87 -36 143q-34 54 -89 54q-64 0 -95 -65q-25 -51 -25 -132z" />
    <glyph glyph-name="colon" unicode=":" horiz-adv-x="273" 
d="M137 -12q-24 0 -40.5 16.5t-16.5 39.5t16 39t41 16q23 0 39.5 -16t16.5 -39t-16.5 -39.5t-39.5 -16.5zM137 377q-24 0 -40.5 16.5t-16.5 39.5t16 39t41 16q23 0 39.5 -16t16.5 -39t-16.5 -39.5t-39.5 -16.5z" />
    <glyph glyph-name="semicolon" unicode=";" horiz-adv-x="307" 
d="M137 386q-24 0 -40.5 16.5t-16.5 39.5t16 39t41 16q23 0 39.5 -16t16.5 -39t-16.5 -39.5t-39.5 -16.5zM104 -148l-10 21q49 31 72 68q18 28 18 49q0 15 -15 15l-27 -4q-27 0 -44.5 16.5t-17.5 42.5q0 24 17.5 42t40.5 18q46 0 70 -35q19 -28 19 -72q0 -36 -25 -73
q-21 -34 -51 -58q-28 -22 -47 -30z" />
    <glyph glyph-name="less" unicode="&#x3c;" horiz-adv-x="596" 
d="M557 -12l-518 264l518 287v-72l-385 -215l385 -194v-70z" />
    <glyph glyph-name="equal" unicode="=" horiz-adv-x="606" 
d="M45 199h516v-60h-516v60zM45 389h516v-60h-516v60z" />
    <glyph glyph-name="greater" unicode="&#x3e;" horiz-adv-x="578" 
d="M548 252l-518 -264v70l385 194l-385 215v72z" />
    <glyph glyph-name="question" unicode="?" horiz-adv-x="442" 
d="M227 5q-17 -17 -42 -17q-24 0 -41 17t-17 40t17 40t41 17q25 0 42.5 -16.5t17.5 -40.5q0 -23 -18 -40zM209 175l-54 -1q-4 31 -4 58q0 40 9 70q8 33 26 57.5t65 66.5q34 31 48 57.5t14 60.5v8q-3 54 -39 86q-34 30 -88 30q-62 0 -128 -76l-36 81q48 28 85 38t89 10
q96 0 157 -67q52 -56 52 -132q0 -14 -1 -21q-5 -43 -30.5 -79.5t-84.5 -84.5q-46 -36 -63.5 -66t-17.5 -72q0 -16 1 -24z" />
    <glyph glyph-name="at" unicode="@" horiz-adv-x="900" 
d="M663 -52v-47q-126 -114 -278 -114q-155 0 -249 109q-91 103 -91 270q0 40 6 80q26 193 160 330q133 136 311 136q144 0 238 -108q95 -107 95 -266q0 -38 -6 -77q-24 -148 -103 -215q-52 -46 -115 -46q-102 0 -123 91q-11 -32 -50 -59q-47 -32 -100 -32q-130 0 -130 166
q0 120 75 216q77 102 183 102q71 0 97 -56l11 39h73l-79 -322q-6 -22 -6 -41q0 -66 51 -66q80 0 126 106q38 90 38 181q0 148 -77 249q-81 104 -204 104q-143 0 -262 -128q-118 -127 -141 -302q-6 -39 -6 -77q0 -153 76 -247q78 -101 216 -101q121 0 264 125zM485 144
q52 100 52 214q0 86 -55 86q-56 0 -109 -87q-54 -90 -54 -193q0 -119 59 -119q56 0 107 99z" />
    <glyph glyph-name="A" unicode="A" horiz-adv-x="627" 
d="M619 0h-113q-29 29 -55 98l-62 167h-222l-55 -171q-14 -44 -14 -74q0 -9 3 -20h-84q-1 7 -1 18q0 33 15 78l176 504q19 53 19 84q0 17 -6 30h89q32 -19 66 -108l182 -499q28 -73 62 -107zM372 331l-95 261l-91 -261h186z" />
    <glyph glyph-name="B" unicode="B" horiz-adv-x="587" 
d="M312 0h-203q-27 33 -27 115v490q-2 86 -29 109h255q78 0 137 -42q63 -45 63 -121q0 -56 -33 -101q-31 -43 -78 -50q150 -39 150 -176q0 -118 -72 -176q-60 -48 -163 -48zM182 427h121q47 0 78 44q25 36 25 80q0 107 -135 107h-99q10 -20 10 -69v-162zM192 58h75
q94 0 135 44q37 39 37 117q0 73 -48 116q-40 37 -101 37h-108v-244q0 -55 10 -70z" />
    <glyph glyph-name="C" unicode="C" horiz-adv-x="595" 
d="M546 114l20 -86q-27 -18 -75.5 -29t-104.5 -11q-98 0 -178 46q-78 45 -122 123q-46 81 -46 178q0 109 42 197q42 89 118 138q79 52 182 52q49 0 102 -14.5t86 -37.5l-32 -76q-56 62 -148 62q-127 0 -187 -110q-42 -76 -42 -184q0 -143 71 -229q65 -79 170 -79
q37 0 77 16.5t67 43.5z" />
    <glyph glyph-name="D" unicode="D" horiz-adv-x="657" 
d="M280 0h-172q-26 26 -26 114v491q-3 83 -29 109h228q166 0 259 -116q77 -97 77 -244q0 -92 -40 -172q-41 -82 -115 -130q-79 -52 -182 -52zM192 57h79q116 0 178 109q46 82 46 195q0 135 -69 218q-66 79 -176 79h-77q9 -37 9 -70v-454q0 -53 10 -77z" />
    <glyph glyph-name="E" unicode="E" horiz-adv-x="519" 
d="M185 65h168q63 0 93.5 4t52.5 14q-19 -83 -115 -83h-276q-27 28 -27 113v493q-1 85 -28 108h306q98 0 117 -83q-22 10 -52.5 14t-93.5 4h-152q3 -15 3 -42v-15v-134h130q53 0 81 -19.5t39 -64.5q-21 12 -49.5 15.5t-97.5 3.5h-103v-277q0 -34 4 -51z" />
    <glyph glyph-name="F" unicode="F" horiz-adv-x="497" 
d="M181 458h131q53 0 81 -19.5t39 -64.5q-21 12 -49.5 15.5t-97.5 3.5h-104v-278q0 -65 25 -115h-98q-27 28 -27 112v494q-1 85 -28 108h307q98 0 117 -83q-22 10 -52.5 14t-93.5 4h-157q7 -12 7 -57v-134z" />
    <glyph glyph-name="G" unicode="G" horiz-adv-x="630" 
d="M573 282v-167q0 -43 12 -78q1 -3 15 -37h-222q-159 3 -252 106q-86 95 -86 248q0 99 41 183q42 86 116 135q79 52 179 52q111 0 193 -52l-29 -76q-34 34 -70 48t-87 14q-118 0 -178 -105q-44 -78 -44 -190q0 -138 62 -222q64 -86 176 -84l76 1l1 84v136q0 47 -9 90
q-4 17 -9 27h115v-113z" />
    <glyph glyph-name="H" unicode="H" horiz-adv-x="661" 
d="M78 113v485q0 66 -25 116h98q27 -28 27 -113v-176h305v173q0 66 -25 116h98q27 -28 27 -112v-486q0 -66 25 -116h-98q-27 28 -27 113v240h-305v-236q0 -69 24 -117h-97q-27 28 -27 113z" />
    <glyph glyph-name="I" unicode="I" horiz-adv-x="256" 
d="M78 113v485q0 66 -25 116h98q27 -28 27 -112v-486q0 -66 25 -116h-98q-27 28 -27 113z" />
    <glyph glyph-name="J" unicode="J" horiz-adv-x="444" 
d="M281 191v407q0 66 -25 116h98q27 -28 27 -112v-423q0 -94 -60 -147q-51 -44 -128 -44q-92 0 -174 54l39 85q27 -34 64.5 -55t70.5 -21q52 0 71 36q17 32 17 104z" />
    <glyph glyph-name="K" unicode="K" horiz-adv-x="590" 
d="M78 113v485q0 66 -25 116h98q27 -28 27 -112v-321q15 97 48.5 167t109.5 168l75 98h116l-125 -143q-71 -81 -129 -174q72 -17 116 -83q14 -18 46 -85q55 -114 88 -164t63 -65h-109q-19 10 -35.5 30.5t-43.5 68.5q-51 94 -97 193q-25 54 -50 69q-73 -122 -73 -201v-44
q0 -66 25 -116h-98q-27 28 -27 113z" />
    <glyph glyph-name="L" unicode="L" horiz-adv-x="506" 
d="M78 113v485q0 66 -25 116h98q27 -28 27 -112v-486q0 -34 4 -51h168q63 0 93.5 4t52.5 14q-19 -83 -115 -83h-276q-27 28 -27 113z" />
    <glyph glyph-name="M" unicode="M" horiz-adv-x="783" 
d="M554 714h123q28 -26 28 -111v-487q0 -66 25 -116h-98q-27 28 -27 113v456q0 24 -3 45q-15 -147 -94 -327q-65 -147 -65 -209q0 -58 13 -78h-110l-162 539q-23 75 -39 73q18 -57 18 -172l-2 -324q0 -66 25 -116h-76q-27 28 -27 111v477q0 23 -4 51q-7 56 -26 75h142
q48 -19 69 -95l136 -468q33 155 102 329q40 105 53 161q4 21 4 42q0 19 -5 31z" />
    <glyph glyph-name="N" unicode="N" horiz-adv-x="627" 
d="M488 321v277q0 76 -25 116h76q25 -30 25 -96v-15v-478q0 -92 10 -117v-8h-109q-49 63 -91 153q-174 369 -205 428q-27 49 -30 52q20 -55 20 -180v-337q0 -66 25 -116h-76q-27 28 -27 111v479q0 97 -28 124h138q36 -16 73 -94l172 -362q52 -107 65 -126q-13 66 -13 189z
" />
    <glyph glyph-name="O" unicode="O" horiz-adv-x="719" 
d="M357 -12q-153 0 -242 121q-75 101 -75 245q0 97 39 181q39 85 109 134q75 53 169 53q93 0 168 -53q72 -49 113 -134t41 -181q0 -172 -93 -272q-86 -94 -229 -94zM557 347q0 132 -46 219q-52 97 -148 97q-114 0 -167 -122q-35 -81 -35 -188q0 -130 47 -213q53 -93 155 -93
q109 0 160 116q34 78 34 184z" />
    <glyph glyph-name="P" unicode="P" horiz-adv-x="542" 
d="M78 112v485q0 65 -25 117h249q87 0 145 -57q55 -53 55 -133q0 -86 -62 -142q-58 -52 -147 -52h-115v-215l1 1q0 -66 25 -116h-98q-27 28 -28 112zM178 387h82q75 0 106 51q21 34 21 86q0 61 -39 98q-37 36 -96 36h-84q10 -20 10 -68v-203z" />
    <glyph glyph-name="Q" unicode="Q" horiz-adv-x="719" 
d="M653 -212h-109q-38 19 -79 99q-35 65 -55 105q-20 -4 -52 -4q-153 0 -243 121q-75 100 -75 245q0 97 39 181q40 85 109 134q75 53 170 53q92 0 167 -53q71 -49 113 -134q41 -85 41 -181q0 -122 -54 -214q-47 -81 -126 -120q1 -1 2 -4q68 -130 85 -156q37 -58 67 -72z
M161 353q0 -130 47 -213q53 -94 155 -94q115 0 166 130q30 77 30 171q0 133 -46 219q-52 97 -150 97q-114 0 -167 -122q-35 -81 -35 -188z" />
    <glyph glyph-name="R" unicode="R" horiz-adv-x="596" 
d="M77 113v484q0 73 -24 117h230q96 0 159 -49q61 -48 63 -129q1 -142 -152 -184q67 -37 120 -172q29 -74 53 -114t55 -66h-109q-53 41 -99 174q-29 86 -42 107q-20 34 -43 49t-56 15h-55v-229q0 -66 25 -116h-98q-27 28 -27 113zM177 396h45q91 0 128 31q37 30 37 100
q0 68 -48 102q-43 29 -118 29h-54q10 -21 10 -66v-196z" />
    <glyph glyph-name="S" unicode="S" horiz-adv-x="493" 
d="M30 48l41 95q44 -49 75 -69q40 -26 83 -26q55 0 91 39q29 32 29 73q0 107 -146 195q-94 58 -128 101q-34 42 -34 95q0 89 67 135q53 36 128 36q92 0 202 -50l-36 -92q-86 81 -147 81q-48 0 -80 -28q-29 -25 -29 -61q0 -34 29 -67t94 -73q102 -62 139 -104q49 -57 49 -132
q2 -96 -67 -155q-63 -53 -163 -53q-106 0 -197 60z" />
    <glyph glyph-name="T" unicode="T" horiz-adv-x="559" 
d="M327 602v-486q0 -66 25 -116h-98q-27 28 -27 113v486q0 29 -3 50h-112q-54 0 -86 32q-14 14 -21 33h433q50 0 77 -20q28 -20 39 -63q-21 11 -50.5 15t-96.5 4h-82q2 -9 2 -28v-20z" />
    <glyph glyph-name="U" unicode="U" horiz-adv-x="626" 
d="M78 597v1q0 66 -25 116h98q27 -28 27 -114v-377q0 -94 53 -141q40 -35 96 -35q66 0 105 47q40 47 40 130v379q0 39 -4 57.5t-19 53.5h91q26 -31 26 -111v-388q0 -102 -68 -166q-66 -61 -176 -61q-125 0 -192 79q-52 61 -52 148v382z" />
    <glyph glyph-name="V" unicode="V" horiz-adv-x="606" 
d="M475 714h112q4 -13 4 -34q0 -47 -28 -127l-63 -161q-58 -144 -72 -186q-47 -145 -47 -206h-103q-38 31 -78 152q-45 132 -100 305l-85 257h120q14 -49 47 -150l108 -336q46 -143 46 -144q0 36 12 99.5t30 124.5l81 241q22 71 22 121q0 28 -6 44z" />
    <glyph glyph-name="W" unicode="W" horiz-adv-x="919" 
d="M778 714h118q8 -18 8 -51q0 -44 -20 -109q-25 -85 -52 -161q-53 -157 -73 -240q-21 -83 -21 -138q0 -12 1 -15h-102q-50 45 -81 152l-50 182l-36 137q-30 -113 -89 -323q-18 -64 -18 -121q0 -19 1 -27h-108q-22 24 -36.5 52.5t-41.5 99.5q-21 49 -91 304l-72 258h119
l64 -248q68 -264 69 -267q7 -24 27 -75q5 -13 17 -39q0 102 39 248q4 14 20 65q36 117 40 132q9 36 9 65q0 56 -29 119h110l71 -260q71 -264 77 -277q8 -27 23 -62l15 -30q0 118 35 259l25 93q21 76 29 113q13 51 13 101q0 41 -10 63z" />
    <glyph glyph-name="X" unicode="X" horiz-adv-x="591" 
d="M571 0h-118q-32 23 -63 85l-115 213l-42 -60q-73 -105 -94 -171q-7 -22 -10 -44l-2 -23h-107q4 45 35 101q35 64 125 193l55 78l-121 220q-39 74 -41 77q-22 38 -35 45h108q16 -10 24.5 -21t27.5 -45l106 -190l66 93q64 91 64 148v15h99q-3 -45 -26 -88
q-30 -59 -120 -181l-46 -60l150 -275q31 -55 45 -74.5t35 -35.5z" />
    <glyph glyph-name="Y" unicode="Y" horiz-adv-x="544" 
d="M296 0h-101q32 39 56 101l43 109q-19 -14 -51 -14q-64 0 -97 38q-32 36 -45 112l-50 259q-12 72 -41 109h93q27 -27 46 -109l42 -247q11 -54 27 -79q18 -27 46 -27q15 0 28.5 8.5t17.5 21.5l96 323q14 39 14 81q0 18 -3 28h105q2 -10 2 -22q0 -42 -14 -87
q-9 -26 -74.5 -240.5t-77.5 -254.5q-26 -79 -62 -110z" />
    <glyph glyph-name="Z" unicode="Z" horiz-adv-x="539" 
d="M166 65h198q63 0 93.5 4t52.5 14q-19 -83 -115 -83h-385v2q5 27 30 67l343 580h-187q-63 0 -93.5 -4t-52.5 -14q17 83 117 83h362v-2q0 -21 -35 -82z" />
    <glyph glyph-name="bracketleft" unicode="[" horiz-adv-x="392" 
d="M220 701h-36v-849h36q71 0 114 12q-26 -50 -52 -64t-94 -14h-88v981h88q68 0 93 -14q27 -15 53 -64q-43 12 -114 12z" />
    <glyph glyph-name="backslash" unicode="\" horiz-adv-x="380" 
d="M355 -208h-70l-276 977h69z" />
    <glyph glyph-name="bracketright" unicode="]" horiz-adv-x="392" 
d="M208 701h-36q-71 0 -114 -12q24 49 50.5 63.5t95.5 14.5h88v-981h-88q-69 0 -94 14q-29 15 -52 64q43 -12 114 -12h36v849z" />
    <glyph glyph-name="asciicircum" unicode="^" horiz-adv-x="531" 
d="M462 370h-78l-117 209l-118 -209h-79l196 353z" />
    <glyph glyph-name="underscore" unicode="_" horiz-adv-x="406" 
d="M401 -55h-396v55h396v-55z" />
    <glyph glyph-name="grave" unicode="`" horiz-adv-x="219" 
d="M175 614l9 -28h-24q-37 55 -62.5 77.5t-62.5 30.5v14l47 16q22 6 29 6q2 0 10 -2q5 -3 13 -18l14 -26q19 -45 27 -70z" />
    <glyph glyph-name="a" unicode="a" horiz-adv-x="464" 
d="M425 0h-96q-12 14 -18 61q-24 -30 -67 -51.5t-81 -21.5q-65 0 -101 41q-32 35 -32 93q0 68 57 115q27 23 101 61q65 33 87 52q32 28 32 63q0 33 -22.5 54t-57.5 21q-55 0 -118 -75l-29 67q68 56 156 56q89 0 128 -42q36 -38 36 -115v-273q0 -63 25 -106zM304 116v205
l-125 -90q-54 -41 -54 -103q0 -43 25 -68q21 -21 52 -21q58 0 102 77z" />
    <glyph glyph-name="b" unicode="b" horiz-adv-x="534" 
d="M159 597v-114q16 24 47.5 38.5t68.5 14.5q117 0 178 -97q46 -73 46 -173q0 -119 -69 -200q-67 -78 -170 -78q-66 0 -121 32q-46 27 -74 69v508q0 67 -27 117h94q26 -30 27 -117zM158 425v-331q13 -27 38.5 -43t54.5 -16q73 0 110 71q29 58 29 154q0 226 -127 226
q-34 0 -65 -18t-40 -43z" />
    <glyph glyph-name="c" unicode="c" horiz-adv-x="439" 
d="M384 99l30 -64q-25 -20 -61 -33t-71 -14q-120 -2 -187 79q-60 73 -60 194t69 200q66 75 170 75q80 0 133 -26l-23 -70q-52 46 -97 46q-80 0 -118 -88q-25 -59 -25 -135q0 -108 37 -168q36 -59 102 -59q26 0 53 17t48 46z" />
    <glyph glyph-name="d" unicode="d" horiz-adv-x="521" 
d="M461 598v-509q-67 -101 -184 -101q-120 0 -188 88q-54 71 -54 170q0 123 58 204q61 86 168 86q70 0 106 -53v115q0 68 -26 116h94q26 -32 26 -116zM368 90v335q-12 29 -38 46t-57 17q-129 0 -129 -248q0 -203 142 -203q60 0 82 53z" />
    <glyph glyph-name="e" unicode="e" horiz-adv-x="458" 
d="M380 99l30 -64q-58 -47 -148 -47q-111 0 -173 86q-54 74 -54 186q0 116 68 199q63 77 151 77q171 0 171 -130q0 -59 -41 -94q-21 -18 -84 -50q-150 -78 -150 -107q0 -37 25 -72q33 -47 96 -47q28 0 57.5 17t51.5 46zM142 250q0 -32 2 -39q33 35 91 74q56 38 72 54
q29 31 29 74q0 34 -21.5 54.5t-57.5 20.5q-58 0 -91 -89q-24 -66 -24 -149z" />
    <glyph glyph-name="f" unicode="f" horiz-adv-x="391" 
d="M225 0h-94q-26 31 -26 115v358h-26q-44 0 -67 53h93v67q0 131 159 129q30 0 66 -11t56 -26l-29 -65q-24 31 -43.5 44t-42.5 13q-72 0 -72 -78v-73h43q42 0 64 -15q22 -17 31 -53q-23 15 -77 15h-61v-358q0 -66 26 -115z" />
    <glyph glyph-name="g" unicode="g" horiz-adv-x="524" 
d="M87 -172l31 67q53 -69 132 -69q121 0 121 191q-27 -18 -45.5 -23.5t-47.5 -5.5q-120 0 -188 88q-55 71 -55 170q0 124 58 205q61 85 169 85q71 0 106 -51v41h97v-476q0 -204 -117 -255q-38 -17 -108 -17q-44 0 -85.5 13.5t-67.5 36.5zM368 102v323q-10 28 -36 45.5
t-58 17.5q-129 0 -129 -248q0 -202 142 -202q37 0 59 17.5t22 46.5z" />
    <glyph glyph-name="h" unicode="h" horiz-adv-x="512" 
d="M447 394v-279q0 -70 26 -115h-94q-26 29 -26 112v263q0 87 -90 87q-31 0 -59.5 -24t-44.5 -63v-260q0 -65 26 -115h-94q-26 29 -26 115v486q0 74 -25 113h91q26 -29 26 -113v-164q9 22 39 52q47 47 113 47q64 0 104 -46q34 -40 34 -96z" />
    <glyph glyph-name="i" unicode="i" horiz-adv-x="228" 
d="M116 614q-24 0 -40.5 15.5t-16.5 39.5q0 23 16.5 39t40.5 16q23 0 39.5 -16t16.5 -39q0 -22 -17 -38.5t-39 -16.5zM68 116v410h94v-410q0 -66 27 -116h-95q-26 29 -26 116z" />
    <glyph glyph-name="j" unicode="j" horiz-adv-x="283" 
d="M170 616q-23 0 -39 15.5t-16 38.5q0 22 16.5 38t38.5 16t38 -16t16 -38t-16 -38t-38 -16zM123 -76v602h94v-578q0 -28 -2 -46q-9 -66 -52 -97q-40 -27 -107 -27q-79 0 -146 48l30 62q51 -62 115 -62q37 0 52.5 22.5t15.5 75.5z" />
    <glyph glyph-name="k" unicode="k" horiz-adv-x="515" 
d="M529 0h-127q-37 35 -60 75q-14 22 -42 72q-18 30 -27 47q-32 57 -59 75q-55 -48 -55 -117v-42q0 -63 25 -110h-93q-26 33 -26 112v494q0 84 -27 108h93q28 -25 28 -108v-339q19 71 111 159l103 100h107l-230 -221q59 -2 114 -89q60 -94 91 -139q41 -63 74 -77z" />
    <glyph glyph-name="l" unicode="l" horiz-adv-x="225" 
d="M161 601v-486q0 -63 25 -115h-95q-26 29 -26 115v486q0 74 -25 113h95q26 -29 26 -113z" />
    <glyph glyph-name="m" unicode="m" horiz-adv-x="772" 
d="M612 116v255q0 91 -74 91q-66 0 -108 -88v-259q0 -71 26 -115h-93q-26 29 -26 115l-1 261q0 39 -22 64q-19 22 -50 22q-70 0 -105 -87v-260q0 -65 23 -115h-91q-26 29 -26 115v411h92v-88q21 44 59 72q36 26 77 26q112 0 135 -98q60 98 150 98q62 0 97 -44
q31 -38 31 -100v-276q0 -66 27 -116h-95q-26 29 -26 116z" />
    <glyph glyph-name="n" unicode="n" horiz-adv-x="512" 
d="M65 526h92v-89q9 22 39 52q47 47 113 47q64 0 104 -46q34 -40 34 -96v-279q0 -70 26 -115h-94q-26 29 -26 112v263q0 87 -90 87q-31 0 -59.5 -24t-44.5 -63v-260q0 -65 26 -115h-94q-26 29 -26 115v411z" />
    <glyph glyph-name="o" unicode="o" horiz-adv-x="533" 
d="M268 -12q-117 0 -181 90q-52 73 -52 182q0 132 70 208q62 68 161 68q113 0 178 -89q54 -75 54 -187q0 -124 -70 -201q-63 -71 -160 -71zM390 262v21q0 200 -120 204q-71 2 -104 -77q-23 -56 -23 -142q0 -93 29 -157q34 -74 96 -74q69 0 100 91q19 55 22 134z" />
    <glyph glyph-name="p" unicode="p" horiz-adv-x="542" 
d="M166 18v-118q0 -69 25 -115h-101q-9 12 -13 28q-12 33 -12 85v628h104v-42q16 23 47.5 37.5t67.5 14.5q116 0 177 -97q46 -73 46 -173q0 -118 -69 -200q-66 -78 -169 -78q-51 0 -103 30zM166 429l-1 -257v-76q33 -61 95 -61q72 0 108 71q30 58 30 154q0 226 -126 226
q-33 0 -63.5 -16.5t-42.5 -40.5z" />
    <glyph glyph-name="q" unicode="q" horiz-adv-x="533" 
d="M368 -102v116q-54 -26 -91 -26q-120 0 -188 88q-54 71 -54 170q0 123 58 204q61 86 168 86q71 0 106 -53v43h101v-628q0 -65 26 -113h-100q-14 14 -19.5 37t-6.5 76zM368 96v329q-12 29 -38 46t-57 17q-129 0 -129 -248q0 -201 142 -201q27 0 50.5 16.5t31.5 40.5z" />
    <glyph glyph-name="r" unicode="r" horiz-adv-x="349" 
d="M65 526h93v-94q20 55 49 79.5t74 24.5q43 0 73 -32l-31 -87q-43 41 -79 41q-34 0 -62 -34q-24 -30 -24 -69v-245q0 -60 26 -110h-93q-26 29 -26 112v414z" />
    <glyph glyph-name="s" unicode="s" horiz-adv-x="384" 
d="M35 35l30 64q43 -62 105 -62q39 0 67 29q23 24 23 55q0 73 -104 133q-112 65 -112 157q0 64 49 98q38 27 94 27q57 0 149 -43l-29 -66q-53 60 -107 60q-66 0 -66 -61q0 -48 82 -96q133 -80 133 -170q0 -82 -62 -133q-48 -39 -108 -39q-83 0 -144 47z" />
    <glyph glyph-name="t" unicode="t" horiz-adv-x="328" 
d="M181 466v-356q0 -64 25 -110h-93q-26 29 -26 112v354h-72v55q69 0 124 61q25 26 42 62v-118h42q79 0 96 -74q-29 14 -93 14h-45z" />
    <glyph glyph-name="u" unicode="u" horiz-adv-x="510" 
d="M471 0h-94q-20 22 -24 84q-34 -96 -141 -96q-73 0 -113 48q-34 40 -34 105v385h94v-384q0 -41 29 -68q25 -24 60 -24t64.5 25.5t38.5 63.5v387h94v-419q0 -61 26 -107z" />
    <glyph glyph-name="v" unicode="v" horiz-adv-x="457" 
d="M5 526h95q27 -93 54 -175q44 -145 59 -190q18 -57 31 -86q0 18 11 65.5t24 84.5q4 14 26 67q34 82 42 113q10 41 10 73t-8 48h83q5 -15 5 -38q0 -32 -14 -79q-14 -48 -58 -151q-45 -105 -56 -142q-17 -61 -17 -106v-10h-95q-30 25 -58 114l-73 224z" />
    <glyph glyph-name="w" unicode="w" horiz-adv-x="687" 
d="M579 526h83q5 -15 5 -38q0 -32 -14 -79l-87 -296q-16 -55 -16 -100q0 -10 1 -13h-88q-33 31 -52 112q-7 33 -38 141l-28 106q-42 -165 -67 -250q-15 -51 -15 -92q0 -14 1 -17h-93q-28 21 -53 112l-61 225l-52 189h95l48 -182q49 -189 52 -197l13 -49q2 -5 7 -23
q4 51 31 152q21 77 38 120q11 26 16 47q9 30 9 63q0 36 -12 69h86l49 -191q50 -199 52 -205q1 -3 9 -35q4 -13 5 -23q0 48 27 154q29 106 47 179q10 41 10 73t-8 48z" />
    <glyph glyph-name="x" unicode="x" horiz-adv-x="504" 
d="M369 0q-28 23 -65 81l-80 124q-117 -113 -117 -205h-92q0 65 73 149q23 26 107 104l-174 273h111l133 -210q111 116 111 210h89q0 -66 -71 -153q-21 -25 -99 -104l102 -160q52 -82 89 -109h-117z" />
    <glyph glyph-name="y" unicode="y" horiz-adv-x="513" 
d="M187 -215h-9q19 18 34 49.5t33 94.5l21 77q-26 -14 -44 -14q-107 0 -138 154l-49 270q-4 16 -16 76q-3 12 -7 34h103l6 -46q6 -54 9 -63l16 -104l24 -158q18 -119 68 -119q17 0 31 10q6 4 10 10l39 146q41 150 52 204q9 39 9 71q0 31 -7 49h101q5 -16 5 -39
q0 -26 -14 -82l-70 -271q-30 -120 -61 -233q-22 -87 -51 -116h-95z" />
    <glyph glyph-name="z" unicode="z" horiz-adv-x="459" 
d="M318 471h-159q-66 0 -96 -13q18 68 94 68h292v-3q0 -4 -3 -12q-7 -19 -32 -56l-146 -221l-119 -179h208q57 0 90 14q-15 -69 -98 -69h-339q0 1 7 19q25 47 40 68l156 229z" />
    <glyph glyph-name="braceleft" unicode="{" horiz-adv-x="262" 
d="M64 -59v230q0 77 -57 108q55 34 55 110v230q0 108 93 151h80q-43 -18 -67.5 -56t-24.5 -86v-233q0 -76 -74 -115q76 -39 76 -115v-233q0 -47 24.5 -84.5t67.5 -57.5h-80q-93 43 -93 151z" />
    <glyph glyph-name="bar" unicode="|" horiz-adv-x="210" 
d="M140 -211h-70v983h70v-983z" />
    <glyph glyph-name="braceright" unicode="}" horiz-adv-x="262" 
d="M200 619v-230q0 -76 55 -110q-57 -31 -57 -108v-230q0 -108 -93 -151h-80q44 21 68 59q24 37 24 83v233q0 76 76 115q-74 39 -74 115v233q0 49 -26 87q-24 37 -66 55h80q93 -43 93 -151z" />
    <glyph glyph-name="asciitilde" unicode="~" horiz-adv-x="437" 
d="M386 324l7 -28q-44 -49 -111 -47q-31 0 -68 13q-43 15 -81 15q-39 0 -81 -18l-8 25q46 46 116 46q30 0 63 -12q38 -15 78 -15q42 0 85 21z" />
    <glyph glyph-name="nonbreakingspace" unicode="&#xa0;" 
 />
    <glyph glyph-name="exclamdown" unicode="&#xa1;" horiz-adv-x="281" 
d="M118 357h43l32 -509v-3q0 -18 -15.5 -32t-35.5 -14q-22 0 -37.5 13.5t-15.5 32.5v3zM201 473q0 -25 -17.5 -42t-42.5 -17t-43 17.5t-18 41.5t18 41.5t43 17.5t42.5 -17t17.5 -42z" />
    <glyph glyph-name="cent" unicode="&#xa2;" horiz-adv-x="445" 
d="M317 -61h-53v50q-108 9 -166 88q-52 71 -52 184q0 116 63 193q60 72 156 81v45h52v-45q69 -6 112 -25l-23 -70q-37 33 -89 44v-445q55 12 89 60l30 -64q-37 -31 -119 -45v-51zM264 39l1 442q-62 -17 -90 -97q-20 -54 -20 -121q0 -94 29 -154q29 -57 80 -70z" />
    <glyph glyph-name="sterling" unicode="&#xa3;" horiz-adv-x="518" 
d="M209 61h145q63 0 93.5 4t52.5 14q-10 -42 -37 -60.5t-78 -18.5h-281q12 24 16 50t4 85v224h-27q-42 0 -67 57h93l1 105q0 108 60 160q46 40 117 40q103 0 185 -46l-40 -81q-57 75 -126 75q-102 0 -102 -141v-112h107q78 0 95 -72q-23 15 -77 15h-126l1 -1v-196
q0 -82 -9 -101z" />
    <glyph glyph-name="currency" unicode="&#xa4;" horiz-adv-x="662" 
d="M508 484l-2 1q34 -60 34 -135q0 -68 -30 -123l98 -95l-58 -58l-88 95q-59 -44 -141 -44q-78 0 -128 41l-84 -92l-57 58l93 91q-29 53 -29 127q0 75 34 133l-100 92l59 61l88 -101q52 43 131 43t132 -41v2l92 98l60 -61zM454 351v9q0 83 -30 128q-31 47 -92 47
q-68 0 -103 -63q-26 -47 -26 -115q0 -75 31 -128q33 -56 92 -56q65 0 102 71q26 51 26 107z" />
    <glyph glyph-name="yen" unicode="&#xa5;" horiz-adv-x="520" 
d="M322 193v-77q0 -66 25 -116h-98q-27 28 -27 113v80h-174v48h174v84h-174v49h174q-7 17 -26 42q-48 64 -84 123l-107 175h110l129 -210q33 -53 41 -80l106 199q15 28 42 91h82l-185 -340h170v-49h-178v-84h178v-48h-178z" />
    <glyph glyph-name="brokenbar" unicode="&#xa6;" horiz-adv-x="210" 
d="M140 450h-70v300h70v-300zM140 0h-70v300h70v-300z" />
    <glyph glyph-name="section" unicode="&#xa7;" horiz-adv-x="469" 
d="M38 -173l32 85q31 -31 75 -49.5t87 -18.5q47 0 80 26q34 27 32 70q-2 36 -39 66.5t-156 94.5q-78 43 -104 84q-20 32 -20 84q0 63 58 106q40 30 97 45q-141 69 -141 162q0 81 81 116q53 24 130 24q80 0 176 -44l-31 -80q-39 36 -72.5 51t-74.5 15q-42 0 -71 -13
q-38 -16 -38 -50q0 -46 48 -79l92 -52q94 -57 121 -87q43 -46 43 -111q0 -59 -53 -100q-46 -35 -108 -35h-6q167 -59 167 -177v-6q-2 -82 -78 -130q-63 -40 -153 -40q-99 -2 -174 43zM260 372l-28 14q-44 -3 -74 -32q-32 -31 -32 -79v-5q2 -56 92 -95q4 -1 13 -1q47 0 79 28
q30 26 30 64q0 35 -18.5 59.5t-61.5 46.5z" />
    <glyph glyph-name="dieresis" unicode="&#xa8;" horiz-adv-x="333" 
d="M320 596q-15 -15 -38 -15q-24 0 -39.5 15t-15.5 38t16 38q17 15 39 15t38 -15.5t16 -37.5q0 -23 -16 -38zM145 596q-17 -15 -39 -15q-23 0 -38.5 15t-15.5 38q0 22 16 37q16 16 38 16q24 0 39.5 -15t15.5 -38t-16 -38z" />
    <glyph glyph-name="copyright" unicode="&#xa9;" horiz-adv-x="813" 
d="M525 210v-57q-28 -21 -105 -21q-92 0 -154 65q-61 64 -61 157q0 99 58 169q62 74 158 74q52 0 81 -10q22 -7 24 -11v-53q-24 43 -88 43q-75 0 -118 -70q-36 -58 -36 -139q0 -79 39 -130q44 -57 120 -57q60 0 82 40zM408 0q-152 0 -258 105q-105 105 -105 257
q0 151 105 256q107 105 258 105q150 0 255 -105t105 -256t-105 -257q-103 -105 -255 -105zM630 136q91 94 91 226q0 134 -91 225q-91 94 -222 94q-130 0 -223 -94t-93 -225t92 -226q93 -94 224 -94t222 94z" />
    <glyph glyph-name="ordfeminine" unicode="&#xaa;" horiz-adv-x="368" 
d="M313 362h-66q-7 10 -10 37q-15 -18 -41.5 -29.5t-49.5 -11.5q-41 0 -67 24q-24 22 -24 56q0 48 43 76q19 13 77 35t58 62q0 41 -45 41q-34 0 -81 -39l-22 47q19 11 48.5 18.5t51.5 7.5q113 0 113 -95v-159q0 -47 15 -70zM232 446v104q-13 -25 -48 -40q-56 -22 -56 -64
q0 -20 11 -32.5t28 -12.5q18 0 36 12.5t29 32.5z" />
    <glyph glyph-name="guillemotleft" unicode="&#xab;" horiz-adv-x="396" 
d="M311 435l45 -23l-84 -152l84 -154l-45 -21l-144 175zM177 435l45 -23l-88 -152l88 -154l-45 -21l-144 175z" />
    <glyph glyph-name="logicalnot" unicode="&#xac;" horiz-adv-x="658" 
d="M527 144v196h-456v60h516v-256h-60z" />
    <glyph glyph-name="uni00AD" unicode="&#xad;" horiz-adv-x="410" 
 />
    <glyph glyph-name="registered" unicode="&#xae;" horiz-adv-x="813" 
d="M609 147h-78q-39 66 -69 123q-28 58 -45 73q-23 26 -58 26h-26v-222h-70l1 457h151q54 0 95 -26q46 -30 46 -78v-6q-5 -100 -102 -119q26 -3 67 -74zM332 400h46q103 0 103 91q0 87 -104 87h-45v-178zM408 0q-152 0 -258 105q-105 105 -105 257q0 151 106 256
q107 105 257 105t255 -105t105 -256t-105 -257q-103 -105 -255 -105zM630 136q91 94 91 226q0 134 -91 225q-91 94 -222 94q-130 0 -223 -94t-93 -225t92 -226q93 -94 224 -94t222 94z" />
    <glyph glyph-name="macron" unicode="&#xaf;" horiz-adv-x="361" 
d="M68 652h225v-57h-225v57z" />
    <glyph glyph-name="degree" unicode="&#xb0;" horiz-adv-x="400" 
d="M306 493q-43 -43 -106 -43q-64 0 -107 43t-43 108q0 61 44 105t106 44t106 -44t44 -107q0 -62 -44 -106zM263 537q25 25 25 63q0 39 -29 65q-26 23 -60 23q-36 0 -62 -26q-25 -25 -25 -62q0 -38 25 -63t64 -25q37 0 62 25z" />
    <glyph glyph-name="plusminus" unicode="&#xb1;" horiz-adv-x="597" 
d="M40 365h223v221h66v-221h228v-60h-228v-220h-66v220h-223v60zM40 59h516v-59h-516v59z" />
    <glyph glyph-name="twosuperior" unicode="&#xb2;" horiz-adv-x="331" 
d="M149 399h82q38 0 60 13v-58h-239v5q10 25 27 53l44 75q52 88 62 109.5t11 43.5t-10.5 35t-31.5 13q-44 0 -89 -57l-26 66q52 35 125 35q44 0 74 -19q32 -20 32 -55q0 -49 -39 -120z" />
    <glyph glyph-name="threesuperior" unicode="&#xb3;" horiz-adv-x="281" 
d="M36 365l28 55q28 -34 63 -34q60 0 60 68q0 51 -42 79q-30 22 -96 27q4 7 88 125h-19q-47 0 -76 -18v55h180q-15 -19 -81 -108q104 -34 104 -128q0 -63 -40 -103q-37 -36 -95 -36q-46 0 -74 18z" />
    <glyph glyph-name="acute" unicode="&#xb4;" horiz-adv-x="218" 
d="M34 586l9 28q8 25 27 70l15 30q7 12 12 14q8 2 10 2q7 0 29 -6l47 -16v-14q-37 -8 -62.5 -30.5t-62.5 -77.5h-24z" />
    <glyph glyph-name="mu" unicode="&#xb5;" horiz-adv-x="518" 
d="M65 -141v667h94v-370q0 -55 31 -83q24 -23 62 -23q34 0 69 25q28 19 38 42v409h94v-418q0 -64 26 -108h-92q-21 22 -26 80q-23 -40 -61.5 -66t-74.5 -26q-45 0 -66 21v-147q0 -74 26 -105v-10h-94q-26 29 -26 112z" />
    <glyph glyph-name="paragraph" unicode="&#xb6;" horiz-adv-x="521" 
d="M457 714v-599q0 -63 25 -115h-81q-26 29 -26 115v539h-71v-539q0 -63 25 -115h-81q-26 29 -26 115v260q-76 0 -126 46q-49 44 -51 116v7q0 76 50 122q51 48 145 48h217z" />
    <glyph glyph-name="periodcentered" unicode="&#xb7;" horiz-adv-x="264" 
d="M137 233q-24 0 -40.5 16.5t-16.5 39.5q0 24 16.5 39.5t40.5 15.5q23 0 39.5 -16t16.5 -39t-16.5 -39.5t-39.5 -16.5z" />
    <glyph glyph-name="cedilla" unicode="&#xb8;" horiz-adv-x="298" 
d="M124 0h47l-29 -40q23 3 30 3q37 0 59 -19.5t22 -52.5q0 -42 -32 -66q-31 -23 -82 -23q-47 0 -94 19l24 57q32 -27 66 -27q57 0 57 37q0 21 -16.5 34t-43.5 13q-18 0 -38 -13l-16 16z" />
    <glyph glyph-name="onesuperior" unicode="&#xb9;" horiz-adv-x="304" 
d="M170 424v214l-88 -28l-32 50q94 6 194 64v-276q0 -49 1.5 -63.5t8.5 -32.5h-72q-12 24 -12 72z" />
    <glyph glyph-name="ordmasculine" unicode="&#xba;" horiz-adv-x="389" 
d="M190 365q-67 0 -109 52q-36 45 -36 107q0 75 49 122q42 40 101 40q69 0 112 -52q37 -45 37 -110q0 -72 -49 -118q-44 -41 -105 -41zM270 525v11q0 117 -73 117h-4q-34 0 -53.5 -33t-19.5 -91q0 -53 17 -87q19 -38 55 -38q40 0 62 48q16 34 16 73z" />
    <glyph glyph-name="guillemotright" unicode="&#xbb;" horiz-adv-x="396" 
d="M85 435l144 -175l-144 -175l-45 21l88 154l-88 152zM219 435l144 -175l-144 -175l-45 21l88 154l-88 152z" />
    <glyph glyph-name="onequarter" unicode="&#xbc;" horiz-adv-x="798" 
d="M221 0h-75l452 706h75zM698 0h-58v104h-177l127 274h72l-104 -230h82v87h58v-87h58v-52q-14 8 -40 8h-18v-104zM162 424v214l-88 -28l-32 50q94 6 194 64v-276q0 -49 1.5 -63.5t8.5 -32.5h-72q-12 24 -12 72z" />
    <glyph glyph-name="onehalf" unicode="&#xbd;" horiz-adv-x="805" 
d="M221 0h-75l452 714h75zM621 45h82q38 0 60 13v-58h-239v5q10 25 27 53l44 75q54 92 63 111t10 40q2 42 -42 42q-47 0 -89 -53l-26 68q55 37 129 37q44 0 74 -19q32 -20 32 -55q0 -42 -41 -116zM162 424v214l-88 -28l-32 50q94 6 194 64v-276q0 -49 1.5 -63.5t8.5 -32.5
h-72q-12 24 -12 72z" />
    <glyph glyph-name="threequarters" unicode="&#xbe;" horiz-adv-x="741" 
d="M160 0h-79l473 740h78zM42 365l28 55q27 -30 63 -30q26 0 43 18t17 46q0 47 -44 77q-35 25 -90 29q15 25 81 118h-16q-47 0 -76 -18v62h180q-15 -19 -81 -108q104 -34 104 -128q0 -68 -40 -105q-36 -34 -95 -34q-46 0 -74 18zM651 0h-57v104h-178l127 274h65l-104 -230
h90v87h57v-87h58v-52q-14 8 -40 8h-18v-104z" />
    <glyph glyph-name="questiondown" unicode="&#xbf;" horiz-adv-x="392" 
d="M215 520q17 17 42 17q24 0 41 -17t17 -40t-17 -40t-41 -17q-25 0 -42.5 16.5t-17.5 40.5t18 40zM233 350l54 1q4 -31 4 -64q0 -47 -9 -82q-17 -70 -91 -137q-62 -56 -62 -128v-8q3 -54 39 -86q34 -30 88 -30q62 0 128 76l36 -81q-48 -28 -85 -38t-89 -10q-97 0 -158 67
q-51 56 -51 132q0 14 1 21q6 47 32.5 87.5t82.5 86.5q81 64 81 168q0 17 -1 25z" />
    <glyph glyph-name="Agrave" unicode="&#xc0;" horiz-adv-x="627" 
d="M619 0h-113q-29 29 -55 98l-62 167h-222l-55 -171q-14 -44 -14 -74q0 -9 3 -20h-84q-1 7 -1 18q0 33 15 78l176 504q19 53 19 84q0 17 -6 30h89q32 -19 66 -108l182 -499q28 -73 62 -107zM372 331l-95 261l-91 -261h186zM282 802l9 -28h-24q-37 55 -62.5 77.5t-62.5 30.5
v14l47 16q22 6 29 6q2 0 10 -2q5 -3 13 -18l14 -26q19 -45 27 -70z" />
    <glyph glyph-name="Aacute" unicode="&#xc1;" horiz-adv-x="627" 
d="M619 0h-113q-29 29 -55 98l-62 167h-222l-55 -171q-14 -44 -14 -74q0 -9 3 -20h-84q-1 7 -1 18q0 33 15 78l176 504q19 53 19 84q0 17 -6 30h89q32 -19 66 -108l182 -499q28 -73 62 -107zM372 331l-95 261l-91 -261h186zM252 774l9 28q8 25 27 70l15 30q7 12 12 14
q8 2 10 2q7 0 29 -6l47 -16v-14q-37 -8 -62.5 -30.5t-62.5 -77.5h-24z" />
    <glyph glyph-name="Acircumflex" unicode="&#xc2;" horiz-adv-x="627" 
d="M619 0h-113q-29 29 -55 98l-62 167h-222l-55 -171q-14 -44 -14 -74q0 -9 3 -20h-84q-1 7 -1 18q0 33 15 78l176 504q19 53 19 84q0 17 -6 30h89q32 -19 66 -108l182 -499q28 -73 62 -107zM372 331l-95 261l-91 -261h186zM380 774h-16q-9 13 -31 30q-40 30 -66 38
q-47 -15 -99 -68h-15q41 90 114 127q71 -38 113 -127z" />
    <glyph glyph-name="Atilde" unicode="&#xc3;" horiz-adv-x="627" 
d="M619 0h-113q-29 29 -55 98l-62 167h-222l-55 -171q-14 -44 -14 -74q0 -9 3 -20h-84q-1 7 -1 18q0 33 15 78l176 504q19 53 19 84q0 17 -6 30h89q32 -19 66 -108l182 -499q28 -73 62 -107zM372 331l-95 261l-91 -261h186zM409 846l10 -16q-45 -56 -106 -56q-16 0 -42 7
q-75 24 -84 24q-30 0 -64 -19l-9 15q44 48 101 48q16 0 61 -15q42 -12 62 -12q37 0 71 24z" />
    <glyph glyph-name="Adieresis" unicode="&#xc4;" horiz-adv-x="627" 
d="M619 0h-113q-29 29 -55 98l-62 167h-222l-55 -171q-14 -44 -14 -74q0 -9 3 -20h-84q-1 7 -1 18q0 33 15 78l176 504q19 53 19 84q0 17 -6 30h89q32 -19 66 -108l182 -499q28 -73 62 -107zM372 331l-95 261l-91 -261h186zM402 784q-15 -15 -38 -15q-24 0 -39.5 15
t-15.5 38t16 38q17 15 39 15t38 -15.5t16 -37.5q0 -23 -16 -38zM227 784q-16 -15 -39 -15t-38.5 15t-15.5 38q0 22 16 37q16 16 38 16q24 0 39.5 -15t15.5 -38t-16 -38z" />
    <glyph glyph-name="Aring" unicode="&#xc5;" horiz-adv-x="627" 
d="M619 0h-113q-29 29 -55 98l-62 167h-222l-55 -171q-14 -44 -14 -74q0 -9 3 -20h-84q-1 7 -1 18q0 33 15 78l176 504q19 53 19 84q0 17 -6 30h89q32 -19 66 -108l182 -499q28 -73 62 -107zM372 331l-95 261l-91 -261h186zM336 841q0 -29 -20.5 -48t-51.5 -19
q-30 0 -50.5 19.5t-20.5 47.5t20 46.5t51 18.5q32 0 52 -18t20 -47zM264 799q26 0 26 42q0 44 -26 44t-26 -44q0 -42 26 -42z" />
    <glyph glyph-name="AE" unicode="&#xc6;" horiz-adv-x="808" 
d="M469 65h168q63 0 93.5 4t52.5 14q-19 -83 -115 -83h-276q-27 28 -27 113l1 186v3h-164l-82 -208q-14 -34 -14 -74q0 -9 3 -20h-92q-1 7 -1 18q0 33 15 78l215 504l20 52q9 21 9 32q0 17 -6 30h374q98 0 117 -83q-22 10 -52.5 14t-93.5 4h-156q7 -19 7 -57v-218h130
q53 0 81 -19.5t39 -64.5q-21 12 -49.5 15.5t-97.5 3.5h-103v-193q0 -34 4 -51zM333 618l-105 -249l138 -1l-1 238q-2 46 -3 49q-11 -3 -17 -14z" />
    <glyph glyph-name="Ccedilla" unicode="&#xc7;" horiz-adv-x="595" 
d="M309 -62l38 52q-144 15 -231 123q-76 94 -76 222q0 109 42 197q42 89 118 138q79 52 182 52q49 0 102 -14.5t86 -37.5l-32 -76q-56 62 -148 62q-127 0 -187 -110q-42 -76 -42 -184q0 -143 71 -229q65 -79 170 -79q37 0 77 16.5t67 43.5l20 -86q-25 -17 -72 -28t-101 -12
l-20 -28q23 3 30 3q37 0 59 -19.5t22 -52.5q0 -42 -32 -66q-31 -23 -82 -23q-47 0 -94 19l24 57q32 -27 66 -27q57 0 57 37q0 21 -16.5 34t-43.5 13q-18 0 -38 -13z" />
    <glyph glyph-name="Egrave" unicode="&#xc8;" horiz-adv-x="519" 
d="M185 65h168q63 0 93.5 4t52.5 14q-19 -83 -115 -83h-276q-27 28 -27 113v493q-1 85 -28 108h306q98 0 117 -83q-22 10 -52.5 14t-93.5 4h-152q3 -15 3 -42v-15v-134h130q53 0 81 -19.5t39 -64.5q-21 12 -49.5 15.5t-97.5 3.5h-103v-277q0 -34 4 -51zM275 802l9 -28h-24
q-37 55 -62.5 77.5t-62.5 30.5v14l47 16q22 6 29 6q2 0 10 -2q5 -3 13 -18l14 -26q19 -45 27 -70z" />
    <glyph glyph-name="Eacute" unicode="&#xc9;" horiz-adv-x="519" 
d="M185 65h168q63 0 93.5 4t52.5 14q-19 -83 -115 -83h-276q-27 28 -27 113v493q-1 85 -28 108h306q98 0 117 -83q-22 10 -52.5 14t-93.5 4h-152q3 -15 3 -42v-15v-134h130q53 0 81 -19.5t39 -64.5q-21 12 -49.5 15.5t-97.5 3.5h-103v-277q0 -34 4 -51zM225 774l9 28
q8 25 27 70l15 30q7 12 12 14q8 2 10 2q7 0 29 -6l47 -16v-14q-37 -8 -62.5 -30.5t-62.5 -77.5h-24z" />
    <glyph glyph-name="Ecircumflex" unicode="&#xca;" horiz-adv-x="519" 
d="M185 65h168q63 0 93.5 4t52.5 14q-19 -83 -115 -83h-276q-27 28 -27 113v493q-1 85 -28 108h306q98 0 117 -83q-22 10 -52.5 14t-93.5 4h-152q3 -15 3 -42v-15v-134h130q53 0 81 -19.5t39 -64.5q-21 12 -49.5 15.5t-97.5 3.5h-103v-277q0 -34 4 -51zM373 774h-16
q-9 13 -31 30q-40 30 -66 38q-47 -15 -99 -68h-15q41 90 114 127q71 -38 113 -127z" />
    <glyph glyph-name="Edieresis" unicode="&#xcb;" horiz-adv-x="519" 
d="M185 65h168q63 0 93.5 4t52.5 14q-19 -83 -115 -83h-276q-27 28 -27 113v493q-1 85 -28 108h306q98 0 117 -83q-22 10 -52.5 14t-93.5 4h-152q3 -15 3 -42v-15v-134h130q53 0 81 -19.5t39 -64.5q-21 12 -49.5 15.5t-97.5 3.5h-103v-277q0 -34 4 -51zM375 788
q-15 -15 -38 -15q-24 0 -39.5 15t-15.5 38t16 38q17 15 39 15t38 -15.5t16 -37.5q0 -23 -16 -38zM200 788q-16 -15 -39 -15t-38.5 15t-15.5 38q0 22 16 37q16 16 38 16q24 0 39.5 -15t15.5 -38t-16 -38z" />
    <glyph glyph-name="Igrave" unicode="&#xcc;" horiz-adv-x="256" 
d="M78 113v485q0 66 -25 116h98q27 -28 27 -112v-486q0 -66 25 -116h-98q-27 28 -27 113zM129 800l9 -28h-24q-37 55 -62.5 77.5t-62.5 30.5v14l47 16q22 6 29 6q2 0 10 -2q5 -3 13 -18l14 -26q19 -45 27 -70z" />
    <glyph glyph-name="Iacute" unicode="&#xcd;" horiz-adv-x="256" 
d="M78 113v485q0 66 -25 116h98q27 -28 27 -112v-486q0 -66 25 -116h-98q-27 28 -27 113zM79 774l9 28q8 25 27 70l15 30q7 12 12 14q8 2 10 2q7 0 29 -6l47 -16v-14q-37 -8 -62.5 -30.5t-62.5 -77.5h-24z" />
    <glyph glyph-name="Icircumflex" unicode="&#xce;" horiz-adv-x="256" 
d="M78 113v485q0 66 -25 116h98q27 -28 27 -112v-486q0 -66 25 -116h-98q-27 28 -27 113zM223 774h-16q-9 13 -31 30q-40 30 -66 38q-47 -15 -99 -68h-15q41 90 114 127q71 -38 113 -127z" />
    <glyph glyph-name="Idieresis" unicode="&#xcf;" horiz-adv-x="256" 
d="M78 113v485q0 66 -25 116h98q27 -28 27 -112v-486q0 -66 25 -116h-98q-27 28 -27 113zM239 787q-15 -15 -38 -15q-24 0 -39.5 15t-15.5 38t16 38q17 15 39 15t38 -15.5t16 -37.5q0 -23 -16 -38zM64 787q-17 -15 -39 -15q-23 0 -38.5 15t-15.5 38q0 22 16 37q16 16 38 16
q24 0 39.5 -15t15.5 -38t-16 -38z" />
    <glyph glyph-name="Eth" unicode="&#xd0;" horiz-adv-x="657" 
d="M26 320v55h52v230q-3 83 -29 109h232q166 0 259 -116q77 -97 77 -244q0 -92 -40 -172q-41 -82 -115 -130q-79 -52 -182 -52h-176q-26 26 -26 114v206h-52zM192 57h79q116 0 178 109q46 82 46 195q0 135 -69 218q-66 79 -176 79h-77q9 -37 9 -70v-213h150v-55h-150v-186
q0 -53 10 -77z" />
    <glyph glyph-name="Ntilde" unicode="&#xd1;" horiz-adv-x="627" 
d="M488 321v277q0 76 -25 116h76q25 -30 25 -96v-15v-478q0 -92 10 -117v-8h-109q-49 63 -91 153q-174 369 -205 428q-27 49 -30 52q20 -55 20 -180v-337q0 -66 25 -116h-76q-27 28 -27 111v479q0 97 -28 124h138q36 -16 73 -94l172 -362q52 -107 65 -126q-13 66 -13 189z
M458 844l10 -16q-45 -56 -106 -56q-16 0 -42 7q-75 24 -84 24q-30 0 -64 -19l-9 15q44 48 101 48q16 0 61 -15q42 -12 62 -12q37 0 71 24z" />
    <glyph glyph-name="Ograve" unicode="&#xd2;" horiz-adv-x="719" 
d="M357 -12q-153 0 -242 121q-75 101 -75 245q0 97 39 181q39 85 109 134q75 53 169 53q93 0 168 -53q72 -49 113 -134t41 -181q0 -172 -93 -272q-86 -94 -229 -94zM557 347q0 132 -46 219q-52 97 -148 97q-114 0 -167 -122q-35 -81 -35 -188q0 -130 47 -213q53 -93 155 -93
q109 0 160 116q34 78 34 184zM375 801l9 -28h-24q-37 55 -62.5 77.5t-62.5 30.5v14l47 16q22 6 29 6q2 0 10 -2q5 -3 13 -18l14 -26q19 -45 27 -70z" />
    <glyph glyph-name="Oacute" unicode="&#xd3;" horiz-adv-x="719" 
d="M357 -12q-153 0 -242 121q-75 101 -75 245q0 97 39 181q39 85 109 134q75 53 169 53q93 0 168 -53q72 -49 113 -134t41 -181q0 -172 -93 -272q-86 -94 -229 -94zM557 347q0 132 -46 219q-52 97 -148 97q-114 0 -167 -122q-35 -81 -35 -188q0 -130 47 -213q53 -93 155 -93
q109 0 160 116q34 78 34 184zM295 772l9 28q8 25 27 70l15 30q7 12 12 14q8 2 10 2q7 0 29 -6l47 -16v-14q-37 -8 -62.5 -30.5t-62.5 -77.5h-24z" />
    <glyph glyph-name="Ocircumflex" unicode="&#xd4;" horiz-adv-x="719" 
d="M357 -12q-153 0 -242 121q-75 101 -75 245q0 97 39 181q39 85 109 134q75 53 169 53q93 0 168 -53q72 -49 113 -134t41 -181q0 -172 -93 -272q-86 -94 -229 -94zM557 347q0 132 -46 219q-52 97 -148 97q-114 0 -167 -122q-35 -81 -35 -188q0 -130 47 -213q53 -93 155 -93
q109 0 160 116q34 78 34 184zM473 773h-16q-9 13 -31 30q-40 30 -66 38q-47 -15 -99 -68h-15q41 90 114 127q71 -38 113 -127z" />
    <glyph glyph-name="Otilde" unicode="&#xd5;" horiz-adv-x="719" 
d="M357 -12q-153 0 -242 121q-75 101 -75 245q0 97 39 181q39 85 109 134q75 53 169 53q93 0 168 -53q72 -49 113 -134t41 -181q0 -172 -93 -272q-86 -94 -229 -94zM557 347q0 132 -46 219q-52 97 -148 97q-114 0 -167 -122q-35 -81 -35 -188q0 -130 47 -213q53 -93 155 -93
q109 0 160 116q34 78 34 184zM492 845l10 -16q-45 -56 -106 -56q-16 0 -42 7q-75 24 -84 24q-30 0 -64 -19l-9 15q44 48 101 48q16 0 61 -15q42 -12 62 -12q37 0 71 24z" />
    <glyph glyph-name="Odieresis" unicode="&#xd6;" horiz-adv-x="719" 
d="M357 -12q-153 0 -242 121q-75 101 -75 245q0 97 39 181q39 85 109 134q75 53 169 53q93 0 168 -53q72 -49 113 -134t41 -181q0 -172 -93 -272q-86 -94 -229 -94zM557 347q0 132 -46 219q-52 97 -148 97q-114 0 -167 -122q-35 -81 -35 -188q0 -130 47 -213q53 -93 155 -93
q109 0 160 116q34 78 34 184zM485 784q-15 -15 -38 -15q-24 0 -39.5 15t-15.5 38t16 38q17 15 39 15t38 -15.5t16 -37.5q0 -23 -16 -38zM310 784q-16 -15 -39 -15t-38.5 15t-15.5 38q0 22 16 37q16 16 38 16q24 0 39.5 -15t15.5 -38t-16 -38z" />
    <glyph glyph-name="multiply" unicode="&#xd7;" horiz-adv-x="566" 
d="M31 47l206 215l-212 215l44 47l214 -216l211 217l45 -42l-213 -219l215 -217l-44 -47l-215 217l-208 -217z" />
    <glyph glyph-name="Oslash" unicode="&#xd8;" horiz-adv-x="719" 
d="M197 -74h-78l59 119q-70 52 -107 140q-31 77 -31 169q0 97 39 181q39 85 109 134q75 53 169 53q75 0 143 -38l33 66h78l-54 -107q62 -55 94 -138q28 -72 28 -151q0 -172 -93 -272q-86 -94 -229 -94q-65 0 -118 22zM218 124l251 498q-44 41 -106 41q-114 0 -167 -122
q-35 -81 -35 -188q0 -144 57 -229zM515 558l-245 -486q38 -25 93 -25q109 0 160 116q34 78 34 184q0 124 -42 211z" />
    <glyph glyph-name="Ugrave" unicode="&#xd9;" horiz-adv-x="626" 
d="M78 597v1q0 66 -25 116h98q27 -28 27 -114v-377q0 -94 53 -141q40 -35 96 -35q66 0 105 47q40 47 40 130v379q0 39 -4 57.5t-19 53.5h91q26 -31 26 -111v-388q0 -102 -68 -166q-66 -61 -176 -61q-125 0 -192 79q-52 61 -52 148v382zM325 801l9 -28h-24q-37 55 -62.5 77.5
t-62.5 30.5v14l47 16q22 6 29 6q2 0 10 -2q5 -3 13 -18l14 -26q19 -45 27 -70z" />
    <glyph glyph-name="Uacute" unicode="&#xda;" horiz-adv-x="626" 
d="M78 597v1q0 66 -25 116h98q27 -28 27 -114v-377q0 -94 53 -141q40 -35 96 -35q66 0 105 47q40 47 40 130v379q0 39 -4 57.5t-19 53.5h91q26 -31 26 -111v-388q0 -102 -68 -166q-66 -61 -176 -61q-125 0 -192 79q-52 61 -52 148v382zM272 773l9 28q8 25 27 70l15 30
q7 12 12 14q8 2 10 2q7 0 29 -6l47 -16v-14q-37 -8 -62.5 -30.5t-62.5 -77.5h-24z" />
    <glyph glyph-name="Ucircumflex" unicode="&#xdb;" horiz-adv-x="626" 
d="M78 597v1q0 66 -25 116h98q27 -28 27 -114v-377q0 -94 53 -141q40 -35 96 -35q66 0 105 47q40 47 40 130v379q0 39 -4 57.5t-19 53.5h91q26 -31 26 -111v-388q0 -102 -68 -166q-66 -61 -176 -61q-125 0 -192 79q-52 61 -52 148v382zM430 773h-16q-9 13 -31 30
q-40 30 -66 38q-47 -15 -99 -68h-15q41 90 114 127q71 -38 113 -127z" />
    <glyph glyph-name="Udieresis" unicode="&#xdc;" horiz-adv-x="626" 
d="M78 597v1q0 66 -25 116h98q27 -28 27 -114v-377q0 -94 53 -141q40 -35 96 -35q66 0 105 47q40 47 40 130v379q0 39 -4 57.5t-19 53.5h91q26 -31 26 -111v-388q0 -102 -68 -166q-66 -61 -176 -61q-125 0 -192 79q-52 61 -52 148v382zM432 784q-15 -15 -38 -15
q-24 0 -39.5 15t-15.5 38t16 38q17 15 39 15t38 -15.5t16 -37.5q0 -23 -16 -38zM257 784q-16 -15 -39 -15t-38.5 15t-15.5 38q0 22 16 37q16 16 38 16q24 0 39.5 -15t15.5 -38t-16 -38z" />
    <glyph glyph-name="Yacute" unicode="&#xdd;" horiz-adv-x="544" 
d="M296 0h-101q32 39 56 101l43 109q-19 -14 -51 -14q-64 0 -97 38q-32 36 -45 112l-50 259q-12 72 -41 109h93q27 -27 46 -109l42 -247q11 -54 27 -79q18 -27 46 -27q15 0 28.5 8.5t17.5 21.5l96 323q14 39 14 81q0 18 -3 28h105q2 -10 2 -22q0 -42 -14 -87
q-9 -26 -74.5 -240.5t-77.5 -254.5q-26 -79 -62 -110zM228 772l9 28q8 25 27 70l15 30q7 12 12 14q8 2 10 2q7 0 29 -6l47 -16v-14q-37 -8 -62.5 -30.5t-62.5 -77.5h-24z" />
    <glyph glyph-name="Thorn" unicode="&#xde;" horiz-adv-x="570" 
d="M180 601v-15h123q110 0 168 -58q54 -55 54 -156q0 -96 -78 -157q-68 -53 -161 -53h-106v-49q0 -78 24 -113h-99q-27 30 -27 113v488q0 84 -25 113h99q28 -31 28 -113zM179 219h88q77 0 117 56q30 42 30 97q0 72 -38 115t-109 43h-88v-311z" />
    <glyph glyph-name="germandbls" unicode="&#xdf;" horiz-adv-x="586" 
d="M158 559v-444q0 -73 25 -115h-93q-26 30 -25 112v431q0 92 53 138q49 41 145 41h23q206 0 206 -127q0 -88 -137 -147q-38 -17 -38 -35q0 -16 44 -36q196 -87 196 -230q0 -87 -62 -134q-52 -39 -132 -39q-75 0 -144 44l30 70q26 -28 57.5 -45t58.5 -17q95 0 95 141
q0 121 -151 203q-46 25 -46 52q0 30 43 55q35 20 58.5 51t23.5 58v7q0 52 -25 74.5t-83 22.5h-4q-59 0 -90 -37q-28 -33 -28 -94z" />
    <glyph glyph-name="agrave" unicode="&#xe0;" horiz-adv-x="464" 
d="M254 614l9 -28h-24q-37 55 -62.5 77.5t-62.5 30.5v14l47 16q22 6 29 6q2 0 10 -2q5 -3 13 -18l14 -26q19 -45 27 -70zM425 0h-96q-12 14 -18 61q-24 -30 -67 -51.5t-81 -21.5q-65 0 -101 41q-32 35 -32 93q0 68 57 115q27 23 101 61q65 33 87 52q32 28 32 63
q0 33 -22.5 54t-57.5 21q-55 0 -118 -75l-29 67q68 56 156 56q89 0 128 -42q36 -38 36 -115v-273q0 -63 25 -106zM304 116v205l-125 -90q-54 -41 -54 -103q0 -43 25 -68q21 -21 52 -21q58 0 102 77z" />
    <glyph glyph-name="aacute" unicode="&#xe1;" horiz-adv-x="464" 
d="M204 586l9 28q8 25 27 70l15 30q7 12 12 14q8 2 10 2q7 0 29 -6l47 -16v-14q-37 -8 -62.5 -30.5t-62.5 -77.5h-24zM425 0h-96q-12 14 -18 61q-24 -30 -67 -51.5t-81 -21.5q-65 0 -101 41q-32 35 -32 93q0 68 57 115q27 23 101 61q65 33 87 52q32 28 32 63q0 33 -22.5 54
t-57.5 21q-55 0 -118 -75l-29 67q68 56 156 56q89 0 128 -42q36 -38 36 -115v-273q0 -63 25 -106zM304 116v205l-125 -90q-54 -41 -54 -103q0 -43 25 -68q21 -21 52 -21q58 0 102 77z" />
    <glyph glyph-name="acircumflex" unicode="&#xe2;" horiz-adv-x="464" 
d="M352 586h-16q-9 13 -31 30q-40 30 -66 38q-47 -15 -99 -68h-15q41 90 114 127q71 -38 113 -127zM425 0h-96q-12 14 -18 61q-24 -30 -67 -51.5t-81 -21.5q-65 0 -101 41q-32 35 -32 93q0 68 57 115q27 23 101 61q65 33 87 52q32 28 32 63q0 33 -22.5 54t-57.5 21
q-55 0 -118 -75l-29 67q68 56 156 56q89 0 128 -42q36 -38 36 -115v-273q0 -63 25 -106zM304 116v205l-125 -90q-54 -41 -54 -103q0 -43 25 -68q21 -21 52 -21q58 0 102 77z" />
    <glyph glyph-name="atilde" unicode="&#xe3;" horiz-adv-x="464" 
d="M381 659l10 -16q-45 -56 -106 -56q-16 0 -42 7q-75 24 -84 24q-30 0 -64 -19l-9 15q44 48 101 48q16 0 61 -15q42 -12 62 -12q37 0 71 24zM425 0h-96q-12 14 -18 61q-24 -30 -67 -51.5t-81 -21.5q-65 0 -101 41q-32 35 -32 93q0 68 57 115q27 23 101 61q65 33 87 52
q32 28 32 63q0 33 -22.5 54t-57.5 21q-55 0 -118 -75l-29 67q68 56 156 56q89 0 128 -42q36 -38 36 -115v-273q0 -63 25 -106zM304 116v205l-125 -90q-54 -41 -54 -103q0 -43 25 -68q21 -21 52 -21q58 0 102 77z" />
    <glyph glyph-name="adieresis" unicode="&#xe4;" horiz-adv-x="464" 
d="M363 596q-15 -15 -38 -15q-24 0 -39.5 15t-15.5 38t16 38q17 15 39 15t38 -15.5t16 -37.5q0 -23 -16 -38zM188 596q-16 -15 -39 -15t-38.5 15t-15.5 38q0 22 16 37q16 16 38 16q24 0 39.5 -15t15.5 -38t-16 -38zM425 0h-96q-12 14 -18 61q-24 -30 -67 -51.5t-81 -21.5
q-65 0 -101 41q-32 35 -32 93q0 68 57 115q27 23 101 61q65 33 87 52q32 28 32 63q0 33 -22.5 54t-57.5 21q-55 0 -118 -75l-29 67q68 56 156 56q89 0 128 -42q36 -38 36 -115v-273q0 -63 25 -106zM304 116v205l-125 -90q-54 -41 -54 -103q0 -43 25 -68q21 -21 52 -21
q58 0 102 77z" />
    <glyph glyph-name="aring" unicode="&#xe5;" horiz-adv-x="464" 
d="M315 653q0 -29 -20.5 -48t-51.5 -19q-30 0 -50.5 19.5t-20.5 47.5t20 46.5t51 18.5q32 0 52 -18t20 -47zM243 611q26 0 26 42q0 44 -26 44t-26 -44q0 -42 26 -42zM425 0h-96q-12 14 -18 61q-24 -30 -67 -51.5t-81 -21.5q-65 0 -101 41q-32 35 -32 93q0 68 57 115
q27 23 101 61q65 33 87 52q32 28 32 63q0 33 -22.5 54t-57.5 21q-55 0 -118 -75l-29 67q68 56 156 56q89 0 128 -42q36 -38 36 -115v-273q0 -63 25 -106zM304 116v205l-125 -90q-54 -41 -54 -103q0 -43 25 -68q21 -21 52 -21q58 0 102 77z" />
    <glyph glyph-name="ae" unicode="&#xe6;" horiz-adv-x="700" 
d="M109 416l-29 64q68 56 156 56q97 0 133 -52q57 52 129 52q169 0 169 -130q0 -59 -40 -94q-21 -19 -83 -50q-78 -41 -112 -67q-22 -17 -25 -20q-13 -13 -13 -23q0 -11 10 -39q27 -77 111 -77q28 0 57 17t51 46l30 -64q-57 -47 -147 -47q-117 0 -179 96q-8 -14 -16 -23
q-27 -34 -66.5 -53.5t-81.5 -19.5q-65 0 -101 41q-32 35 -32 93q0 68 57 115q29 25 101 61q67 35 87 52q32 28 32 63q0 75 -80 75q-60 0 -118 -72zM386 250q0 -32 1 -39q34 35 91 74q57 38 73 54q29 31 29 74q0 34 -22 54.5t-57 20.5q-58 0 -91 -89q-24 -66 -24 -149z
M304 116q-24 75 -25 147q0 11 2 37l-111 -76q-46 -38 -46 -96q0 -43 25 -68q21 -21 52 -21q59 0 103 77z" />
    <glyph glyph-name="ccedilla" unicode="&#xe7;" horiz-adv-x="439" 
d="M384 99l30 -64q-44 -37 -110 -45l-21 -30q23 3 30 3q37 0 59 -19.5t22 -52.5q0 -42 -32 -66q-31 -23 -82 -23q-47 0 -94 19l24 57q32 -27 66 -27q57 0 57 37q0 21 -16.5 34t-43.5 13q-18 0 -38 -13l-16 16l37 51q-110 7 -169 86q-52 71 -52 186q0 121 69 200
q66 75 170 75q80 0 133 -26l-23 -70q-52 46 -97 46q-80 0 -118 -88q-25 -59 -25 -135q0 -108 37 -168q36 -59 102 -59q26 0 53 17t48 46z" />
    <glyph glyph-name="egrave" unicode="&#xe8;" horiz-adv-x="456" 
d="M263 614l9 -28h-24q-38 55 -63.5 77.5t-61.5 30.5v14l47 16q22 6 29 6q2 0 10 -2q5 -3 13 -18l14 -26q19 -45 27 -70zM380 99l30 -64q-58 -47 -148 -47q-111 0 -173 86q-54 74 -54 186q0 116 68 199q63 77 151 77q171 0 171 -130q0 -59 -41 -94q-21 -18 -84 -50
q-150 -78 -150 -107q0 -37 25 -72q33 -47 96 -47q28 0 57.5 17t51.5 46zM142 250q0 -32 2 -39q33 35 91 74q56 38 72 54q29 31 29 74q0 34 -21.5 54.5t-57.5 20.5q-58 0 -91 -89q-24 -66 -24 -149z" />
    <glyph glyph-name="eacute" unicode="&#xe9;" horiz-adv-x="456" 
d="M227 586l9 28q8 25 27 70l15 30q7 12 12 14q8 2 10 2q7 0 29 -6l47 -16v-14q-37 -8 -62.5 -30.5t-62.5 -77.5h-24zM380 99l30 -64q-58 -47 -148 -47q-111 0 -173 86q-54 74 -54 186q0 116 68 199q63 77 151 77q171 0 171 -130q0 -59 -41 -94q-21 -18 -84 -50
q-150 -78 -150 -107q0 -37 25 -72q33 -47 96 -47q28 0 57.5 17t51.5 46zM142 250q0 -32 2 -39q33 35 91 74q56 38 72 54q29 31 29 74q0 34 -21.5 54.5t-57.5 20.5q-58 0 -91 -89q-24 -66 -24 -149z" />
    <glyph glyph-name="ecircumflex" unicode="&#xea;" horiz-adv-x="456" 
d="M366 586h-16q-10 13 -31 30q-40 30 -66 38q-48 -15 -99 -68h-15q41 90 114 127q70 -38 113 -127zM380 99l30 -64q-58 -47 -148 -47q-111 0 -173 86q-54 74 -54 186q0 116 68 199q63 77 151 77q171 0 171 -130q0 -59 -41 -94q-21 -18 -84 -50q-150 -78 -150 -107
q0 -37 25 -72q33 -47 96 -47q28 0 57.5 17t51.5 46zM142 250q0 -32 2 -39q33 35 91 74q56 38 72 54q29 31 29 74q0 34 -21.5 54.5t-57.5 20.5q-58 0 -91 -89q-24 -66 -24 -149z" />
    <glyph glyph-name="edieresis" unicode="&#xeb;" horiz-adv-x="456" 
d="M374 596q-15 -15 -39 -15q-23 0 -39 15t-16 38t16 38q17 15 39 15t38 -15.5t16 -37.5q0 -23 -15 -38zM199 596q-17 -15 -40 -15t-38.5 15t-15.5 38q0 22 16 37q16 16 38 16q24 0 39.5 -15t15.5 -38t-15 -38zM380 99l30 -64q-58 -47 -148 -47q-111 0 -173 86
q-54 74 -54 186q0 116 68 199q63 77 151 77q171 0 171 -130q0 -59 -41 -94q-21 -18 -84 -50q-150 -78 -150 -107q0 -37 25 -72q33 -47 96 -47q28 0 57.5 17t51.5 46zM142 250q0 -32 2 -39q33 35 91 74q56 38 72 54q29 31 29 74q0 34 -21.5 54.5t-57.5 20.5q-58 0 -91 -89
q-24 -66 -24 -149z" />
    <glyph glyph-name="igrave" unicode="&#xec;" horiz-adv-x="228" 
d="M68 112v414h94v-411q0 -73 25 -115h-93q-26 29 -26 112zM137 614l9 -28h-24q-37 55 -62.5 77.5t-62.5 30.5v14l47 16q22 6 29 6q2 0 10 -2q5 -3 13 -18l14 -26q19 -45 27 -70z" />
    <glyph glyph-name="iacute" unicode="&#xed;" horiz-adv-x="228" 
d="M71 586l9 28q8 25 27 70l15 30q7 12 12 14q8 2 10 2q7 0 29 -6l47 -16v-14q-37 -8 -62.5 -30.5t-62.5 -77.5h-24zM68 112v414h94v-411q0 -73 25 -115h-93q-26 29 -26 112z" />
    <glyph glyph-name="icircumflex" unicode="&#xee;" horiz-adv-x="228" 
d="M68 112v414h94v-411q0 -73 25 -115h-93q-26 29 -26 112zM238 586h-16q-9 13 -31 30q-40 30 -66 38q-47 -15 -99 -68h-15q41 90 114 127q71 -38 113 -127z" />
    <glyph glyph-name="idieresis" unicode="&#xef;" horiz-adv-x="228" 
d="M68 112v414h94v-411q0 -73 25 -115h-93q-26 29 -26 112zM248 596q-15 -15 -38 -15q-24 0 -39.5 15t-15.5 38t16 38q17 15 39 15t38 -15.5t16 -37.5q0 -23 -16 -38zM73 596q-17 -15 -39 -15q-23 0 -38.5 15t-15.5 38q0 22 16 37q16 16 38 16q24 0 39.5 -15t15.5 -38
t-16 -38z" />
    <glyph glyph-name="eth" unicode="&#xf0;" horiz-adv-x="529" 
d="M192 618l81 42q-25 20 -49 33q-25 13 -57 15v6q19 8 60 8q59 0 106 -29l113 54l22 -44l-93 -44q61 -63 92 -175q22 -82 22 -166q0 -152 -58 -239q-61 -91 -178 -91q-104 0 -166 103q-47 78 -47 171q0 111 56 192q56 82 142 82q97 0 144 -89q-8 106 -71 178l-100 -50z
M260 47q63 0 99 79q28 61 28 137q0 104 -32 159q-32 56 -95 56q-70 0 -101 -78q-21 -54 -21 -137q0 -97 33 -157q33 -59 89 -59z" />
    <glyph glyph-name="ntilde" unicode="&#xf1;" horiz-adv-x="512" 
d="M65 526h92v-89q9 22 39 52q47 47 113 47q64 0 104 -46q34 -40 34 -96v-279q0 -70 26 -115h-94q-26 29 -26 112v263q0 87 -90 87q-31 0 -59.5 -24t-44.5 -63v-260q0 -65 26 -115h-94q-26 29 -26 115v411zM411 658l10 -16q-45 -56 -106 -56q-16 0 -42 7q-75 24 -84 24
q-30 0 -64 -19l-9 15q44 48 101 48q16 0 61 -15q42 -12 62 -12q37 0 71 24z" />
    <glyph glyph-name="ograve" unicode="&#xf2;" horiz-adv-x="533" 
d="M268 -12q-117 0 -181 90q-52 73 -52 182q0 132 70 208q62 68 161 68q113 0 178 -89q54 -75 54 -187q0 -124 -70 -201q-63 -71 -160 -71zM390 262v21q0 200 -120 204q-71 2 -104 -77q-23 -56 -23 -142q0 -93 29 -157q34 -74 96 -74q69 0 100 91q19 55 22 134zM287 614
l9 -28h-24q-37 55 -62.5 77.5t-62.5 30.5v14l47 16q22 6 29 6q2 0 10 -2q5 -3 13 -18l14 -26q19 -45 27 -70z" />
    <glyph glyph-name="oacute" unicode="&#xf3;" horiz-adv-x="533" 
d="M268 -12q-117 0 -181 90q-52 73 -52 182q0 132 70 208q62 68 161 68q113 0 178 -89q54 -75 54 -187q0 -124 -70 -201q-63 -71 -160 -71zM390 262v21q0 200 -120 204q-71 2 -104 -77q-23 -56 -23 -142q0 -93 29 -157q34 -74 96 -74q69 0 100 91q19 55 22 134zM237 586
l9 28q8 25 27 70l15 30q7 12 12 14q8 2 10 2q7 0 29 -6l47 -16v-14q-37 -8 -62.5 -30.5t-62.5 -77.5h-24z" />
    <glyph glyph-name="ocircumflex" unicode="&#xf4;" horiz-adv-x="533" 
d="M268 -12q-117 0 -181 90q-52 73 -52 182q0 132 70 208q62 68 161 68q113 0 178 -89q54 -75 54 -187q0 -124 -70 -201q-63 -71 -160 -71zM390 262v21q0 200 -120 204q-71 2 -104 -77q-23 -56 -23 -142q0 -93 29 -157q34 -74 96 -74q69 0 100 91q19 55 22 134zM375 586h-16
q-9 13 -31 30q-40 30 -66 38q-47 -15 -99 -68h-15q41 90 114 127q71 -38 113 -127z" />
    <glyph glyph-name="otilde" unicode="&#xf5;" horiz-adv-x="533" 
d="M268 -12q-117 0 -181 90q-52 73 -52 182q0 132 70 208q62 68 161 68q113 0 178 -89q54 -75 54 -187q0 -124 -70 -201q-63 -71 -160 -71zM390 262v21q0 200 -120 204q-71 2 -104 -77q-23 -56 -23 -142q0 -93 29 -157q34 -74 96 -74q69 0 100 91q19 55 22 134zM392 659
l10 -16q-45 -56 -106 -56q-16 0 -42 7q-75 24 -84 24q-30 0 -64 -19l-9 15q44 48 101 48q16 0 61 -15q42 -12 62 -12q37 0 71 24z" />
    <glyph glyph-name="odieresis" unicode="&#xf6;" horiz-adv-x="533" 
d="M268 -12q-117 0 -181 90q-52 73 -52 182q0 132 70 208q62 68 161 68q113 0 178 -89q54 -75 54 -187q0 -124 -70 -201q-63 -71 -160 -71zM390 262v21q0 200 -120 204q-71 2 -104 -77q-23 -56 -23 -142q0 -93 29 -157q34 -74 96 -74q69 0 100 91q19 55 22 134zM387 596
q-15 -15 -38 -15q-24 0 -39.5 15t-15.5 38t16 38q17 15 39 15t38 -15.5t16 -37.5q0 -23 -16 -38zM212 596q-16 -15 -39 -15t-38.5 15t-15.5 38q0 22 16 37q16 16 38 16q24 0 39.5 -15t15.5 -38t-16 -38z" />
    <glyph glyph-name="divide" unicode="&#xf7;" horiz-adv-x="586" 
d="M293 -11q-24 0 -40.5 16.5t-16.5 39.5t16.5 39t40.5 16q23 0 39.5 -16t16.5 -39t-16.5 -39.5t-39.5 -16.5zM293 425q-24 0 -40.5 16.5t-16.5 39.5t16.5 39t40.5 16q23 0 39.5 -16t16.5 -39t-16.5 -39.5t-39.5 -16.5zM35 293h516v-60h-516v60z" />
    <glyph glyph-name="oslash" unicode="&#xf8;" horiz-adv-x="533" 
d="M164 -44h-62l31 74q-51 38 -76 105q-22 56 -22 125q0 132 70 208q62 68 161 68q40 0 76 -13l19 45h62l-30 -71q54 -37 81 -105q24 -59 24 -132q0 -124 -70 -201q-63 -71 -160 -71q-44 0 -84 14zM364 428l-156 -368q26 -23 60 -23q69 0 100 91q19 55 22 134v14
q0 100 -26 152zM170 116l151 358q-22 12 -51 13q-71 2 -104 -77q-23 -56 -23 -142q-2 -83 27 -152z" />
    <glyph glyph-name="ugrave" unicode="&#xf9;" horiz-adv-x="510" 
d="M471 0h-94q-20 22 -24 84q-34 -96 -141 -96q-73 0 -113 48q-34 40 -34 105v385h94v-384q0 -41 29 -68q25 -24 60 -24t64.5 25.5t38.5 63.5v387h94v-419q0 -61 26 -107zM265 614l9 -28h-24q-37 55 -62.5 77.5t-62.5 30.5v14l47 16q22 6 29 6q2 0 10 -2q5 -3 13 -18l14 -26
q19 -45 27 -70z" />
    <glyph glyph-name="uacute" unicode="&#xfa;" horiz-adv-x="510" 
d="M471 0h-94q-20 22 -24 84q-34 -96 -141 -96q-73 0 -113 48q-34 40 -34 105v385h94v-384q0 -41 29 -68q25 -24 60 -24t64.5 25.5t38.5 63.5v387h94v-419q0 -61 26 -107zM225 586l9 28q8 25 27 70l15 30q7 12 12 14q8 2 10 2q7 0 29 -6l47 -16v-14q-37 -8 -62.5 -30.5
t-62.5 -77.5h-24z" />
    <glyph glyph-name="ucircumflex" unicode="&#xfb;" horiz-adv-x="510" 
d="M471 0h-94q-20 22 -24 84q-34 -96 -141 -96q-73 0 -113 48q-34 40 -34 105v385h94v-384q0 -41 29 -68q25 -24 60 -24t64.5 25.5t38.5 63.5v387h94v-419q0 -61 26 -107zM363 586h-16q-9 13 -31 30q-40 30 -66 38q-47 -15 -99 -68h-15q41 90 114 127q71 -38 113 -127z" />
    <glyph glyph-name="udieresis" unicode="&#xfc;" horiz-adv-x="510" 
d="M471 0h-94q-20 22 -24 84q-34 -96 -141 -96q-73 0 -113 48q-34 40 -34 105v385h94v-384q0 -41 29 -68q25 -24 60 -24t64.5 25.5t38.5 63.5v387h94v-419q0 -61 26 -107zM383 596q-15 -15 -38 -15q-24 0 -39.5 15t-15.5 38t16 38q17 15 39 15t38 -15.5t16 -37.5
q0 -23 -16 -38zM208 596q-16 -15 -39 -15t-38.5 15t-15.5 38q0 22 16 37q16 16 38 16q24 0 39.5 -15t15.5 -38t-16 -38z" />
    <glyph glyph-name="yacute" unicode="&#xfd;" horiz-adv-x="513" 
d="M187 -215h-9q19 18 34 49.5t33 94.5l21 77q-26 -14 -44 -14q-107 0 -138 154l-49 270q-4 16 -16 76q-3 12 -7 34h103l6 -46q6 -54 9 -63l16 -104l24 -158q18 -119 68 -119q17 0 31 10q6 4 10 10l39 146q41 150 52 204q9 39 9 71q0 31 -7 49h101q5 -16 5 -39
q0 -26 -14 -82l-70 -271q-30 -120 -61 -233q-22 -87 -51 -116h-95zM222 586l9 28q8 25 27 70l15 30q7 12 12 14q8 2 10 2q7 0 29 -6l47 -16v-14q-37 -8 -62.5 -30.5t-62.5 -77.5h-24z" />
    <glyph glyph-name="thorn" unicode="&#xfe;" horiz-adv-x="496" 
d="M133 714v-201q44 23 96 23q116 0 179 -89q53 -74 53 -187q0 -123 -70 -201q-63 -71 -158 -71q-59 0 -98 33v-120q2 -92 26 -116h-95q-16 17 -23 68q-3 22 -3 48v813h93zM133 450v-363q33 -49 92 -48q69 0 107 92q24 60 27 131v17q0 97 -30 151q-32 57 -96 59
q-56 1 -100 -39z" />
    <glyph glyph-name="ydieresis" unicode="&#xff;" horiz-adv-x="513" 
d="M187 -215h-9q19 18 34 49.5t33 94.5l21 77q-26 -14 -44 -14q-107 0 -138 154l-49 270q-4 16 -16 76q-3 12 -7 34h103l6 -46q6 -54 9 -63l16 -104l24 -158q18 -119 68 -119q17 0 31 10q6 4 10 10l39 146q41 150 52 204q9 39 9 71q0 31 -7 49h101q5 -16 5 -39
q0 -26 -14 -82l-70 -271q-30 -120 -61 -233q-22 -87 -51 -116h-95zM382 596q-15 -15 -38 -15q-24 0 -39.5 15t-15.5 38t16 38q17 15 39 15t38 -15.5t16 -37.5q0 -23 -16 -38zM207 596q-16 -15 -39 -15t-38.5 15t-15.5 38q0 22 16 37q16 16 38 16q24 0 39.5 -15t15.5 -38
t-16 -38z" />
    <glyph glyph-name="Amacron" unicode="&#x100;" horiz-adv-x="627" 
d="M619 0h-113q-29 29 -55 98l-62 167h-222l-55 -171q-14 -44 -14 -74q0 -9 3 -20h-84q-1 7 -1 18q0 33 15 78l176 504q19 53 19 84q0 17 -6 30h89q32 -19 66 -108l182 -499q28 -73 62 -107zM372 331l-95 261l-91 -261h186zM164 830h225v-57h-225v57z" />
    <glyph glyph-name="amacron" unicode="&#x101;" horiz-adv-x="464" 
d="M124 644h225v-57h-225v57zM425 0h-96q-12 14 -18 61q-24 -30 -67 -51.5t-81 -21.5q-65 0 -101 41q-32 35 -32 93q0 68 57 115q27 23 101 61q65 33 87 52q32 28 32 63q0 33 -22.5 54t-57.5 21q-55 0 -118 -75l-29 67q68 56 156 56q89 0 128 -42q36 -38 36 -115v-273
q0 -63 25 -106zM304 116v205l-125 -90q-54 -41 -54 -103q0 -43 25 -68q21 -21 52 -21q58 0 102 77z" />
    <glyph glyph-name="Abreve" unicode="&#x102;" horiz-adv-x="627" 
d="M619 0h-113q-29 29 -55 98l-62 167h-222l-55 -171q-14 -44 -14 -74q0 -9 3 -20h-84q-1 7 -1 18q0 33 15 78l176 504q19 53 19 84q0 17 -6 30h89q32 -19 66 -108l182 -499q28 -73 62 -107zM372 331l-95 261l-91 -261h186zM150 898h32q4 -31 36 -54q28 -20 56 -20
q36 0 66 27q24 22 26 47h32q0 -61 -38 -95q-33 -30 -86 -30q-66 0 -99 43q-25 33 -25 82z" />
    <glyph glyph-name="abreve" unicode="&#x103;" horiz-adv-x="464" 
d="M110 712h32q4 -31 36 -54q28 -20 56 -20q36 0 66 27q24 22 26 47h32q0 -61 -38 -95q-33 -30 -86 -30q-66 0 -99 43q-25 33 -25 82zM425 0h-96q-12 14 -18 61q-24 -30 -67 -51.5t-81 -21.5q-65 0 -101 41q-32 35 -32 93q0 68 57 115q27 23 101 61q65 33 87 52q32 28 32 63
q0 33 -22.5 54t-57.5 21q-55 0 -118 -75l-29 67q68 56 156 56q89 0 128 -42q36 -38 36 -115v-273q0 -63 25 -106zM304 116v205l-125 -90q-54 -41 -54 -103q0 -43 25 -68q21 -21 52 -21q58 0 102 77z" />
    <glyph glyph-name="Aogonek" unicode="&#x104;" horiz-adv-x="638" 
d="M619 0h-59q-32 -44 -33 -46q-17 -28 -17 -50q0 -24 13 -39t33 -15q21 0 36 11l18 15l20 -56q-13 -9 -40.5 -17t-49.5 -8q-46 0 -71 25q-23 23 -23 61q0 58 58 121q-26 26 -53 96l-62 167h-222l-55 -171q-14 -44 -14 -74q0 -9 3 -20h-84q-1 7 -1 18q0 33 15 78l176 504
q19 53 19 84q0 17 -6 30h89q32 -19 66 -108l182 -499q29 -75 62 -107zM372 331l-95 261l-15 -43l-76 -218h186z" />
    <glyph glyph-name="aogonek" unicode="&#x105;" horiz-adv-x="481" 
d="M329 0q-12 14 -18 61q-24 -30 -67 -51.5t-81 -21.5q-65 0 -101 41q-32 35 -32 93q0 68 57 115q27 23 101 61q65 33 87 52q32 28 32 63q0 33 -22.5 54t-57.5 21q-55 0 -118 -75l-29 67q68 56 156 56q89 0 128 -42q36 -38 36 -115v-273q0 -63 25 -106h-32q-32 -44 -33 -46
q-17 -28 -17 -50q0 -24 13 -39t33 -15q21 0 36 11l18 15l20 -56q-13 -9 -40.5 -17t-49.5 -8q-46 0 -71 25q-23 23 -23 61q0 26 10 50t40 69zM304 116v205l-125 -90q-54 -41 -54 -103q0 -43 25 -68q21 -21 52 -21q58 0 102 77z" />
    <glyph glyph-name="Cacute" unicode="&#x106;" horiz-adv-x="595" 
d="M546 114l20 -86q-27 -18 -75.5 -29t-104.5 -11q-98 0 -178 46q-78 45 -122 123q-46 81 -46 178q0 109 42 197q42 89 118 138q79 52 182 52q49 0 102 -14.5t86 -37.5l-32 -76q-56 62 -148 62q-127 0 -187 -110q-42 -76 -42 -184q0 -143 71 -229q65 -79 170 -79
q37 0 77 16.5t67 43.5zM352 772l9 28q8 25 27 70l15 30q7 12 12 14q8 2 10 2q7 0 29 -6l47 -16v-14q-37 -8 -62.5 -30.5t-62.5 -77.5h-24z" />
    <glyph glyph-name="cacute" unicode="&#x107;" horiz-adv-x="439" 
d="M384 99l30 -64q-25 -20 -61 -33t-71 -14q-120 -2 -187 79q-60 73 -60 194t69 200q66 75 170 75q80 0 133 -26l-23 -70q-52 46 -97 46q-80 0 -118 -88q-25 -59 -25 -135q0 -108 37 -168q36 -59 102 -59q26 0 53 17t48 46zM246 586l9 28q8 25 27 70l15 30q7 12 12 14
q8 2 10 2q7 0 29 -6l47 -16v-14q-37 -8 -62.5 -30.5t-62.5 -77.5h-24z" />
    <glyph glyph-name="Ccircumflex" unicode="&#x108;" horiz-adv-x="595" 
d="M546 114l20 -86q-27 -18 -75.5 -29t-104.5 -11q-98 0 -178 46q-78 45 -122 123q-46 81 -46 178q0 109 42 197q42 89 118 138q79 52 182 52q49 0 102 -14.5t86 -37.5l-32 -76q-56 62 -148 62q-127 0 -187 -110q-42 -76 -42 -184q0 -143 71 -229q65 -79 170 -79
q37 0 77 16.5t67 43.5zM483 774h-16q-9 13 -31 30q-40 30 -66 38q-47 -15 -99 -68h-15q41 90 114 127q71 -38 113 -127z" />
    <glyph glyph-name="ccircumflex" unicode="&#x109;" horiz-adv-x="439" 
d="M384 99l30 -64q-25 -20 -61 -33t-71 -14q-120 -2 -187 79q-60 73 -60 194t69 200q66 75 170 75q80 0 133 -26l-23 -70q-52 46 -97 46q-80 0 -118 -88q-25 -59 -25 -135q0 -108 37 -168q36 -59 102 -59q26 0 53 17t48 46zM374 586h-16q-9 13 -31 30q-40 30 -66 38
q-47 -15 -99 -68h-15q41 90 114 127q71 -38 113 -127z" />
    <glyph glyph-name="Cdotaccent" unicode="&#x10a;" horiz-adv-x="595" 
d="M546 114l20 -86q-27 -18 -75.5 -29t-104.5 -11q-98 0 -178 46q-78 45 -122 123q-46 81 -46 178q0 109 42 197q42 89 118 138q79 52 182 52q49 0 102 -14.5t86 -37.5l-32 -76q-56 62 -148 62q-127 0 -187 -110q-42 -76 -42 -184q0 -143 71 -229q65 -79 170 -79
q37 0 77 16.5t67 43.5zM401 784q-16 -15 -39 -15t-38.5 15t-15.5 38q0 22 16 37q16 16 38 16q24 0 39.5 -15t15.5 -38t-16 -38z" />
    <glyph glyph-name="cdotaccent" unicode="&#x10b;" horiz-adv-x="439" 
d="M384 99l30 -64q-25 -20 -61 -33t-71 -14q-120 -2 -187 79q-60 73 -60 194t69 200q66 75 170 75q80 0 133 -26l-23 -70q-52 46 -97 46q-80 0 -118 -88q-25 -59 -25 -135q0 -108 37 -168q36 -59 102 -59q26 0 53 17t48 46zM322 596q-16 -15 -39 -15t-38.5 15t-15.5 38
q0 22 16 37q16 16 38 16q24 0 39.5 -15t15.5 -38t-16 -38z" />
    <glyph glyph-name="Ccaron" unicode="&#x10c;" horiz-adv-x="595" 
d="M546 114l20 -86q-27 -18 -75.5 -29t-104.5 -11q-98 0 -178 46q-78 45 -122 123q-46 81 -46 178q0 109 42 197q42 89 118 138q79 52 182 52q49 0 102 -14.5t86 -37.5l-32 -76q-56 62 -148 62q-127 0 -187 -110q-42 -76 -42 -184q0 -143 71 -229q65 -79 170 -79
q37 0 77 16.5t67 43.5zM465 900h16q-42 -89 -113 -127q-73 37 -114 127h15q52 -53 99 -68q26 8 66 38q22 17 31 30z" />
    <glyph glyph-name="ccaron" unicode="&#x10d;" horiz-adv-x="439" 
d="M384 99l30 -64q-25 -20 -61 -33t-71 -14q-120 -2 -187 79q-60 73 -60 194t69 200q66 75 170 75q80 0 133 -26l-23 -70q-52 46 -97 46q-80 0 -118 -88q-25 -59 -25 -135q0 -108 37 -168q36 -59 102 -59q26 0 53 17t48 46zM374 713h16q-42 -89 -113 -127q-73 37 -114 127
h15q52 -53 99 -68q26 8 66 38q22 17 31 30z" />
    <glyph glyph-name="Dcaron" unicode="&#x10e;" horiz-adv-x="657" 
d="M280 0h-172q-26 26 -26 114v491q-3 83 -29 109h228q166 0 259 -116q77 -97 77 -244q0 -92 -40 -172q-41 -82 -115 -130q-79 -52 -182 -52zM192 57h79q116 0 178 109q46 82 46 195q0 135 -69 218q-66 79 -176 79h-77q9 -37 9 -70v-454q0 -53 10 -77zM353 897h16
q-42 -89 -113 -127q-73 37 -114 127h15q52 -53 99 -68q26 8 66 38q22 17 31 30z" />
    <glyph glyph-name="dcaron" unicode="&#x10f;" horiz-adv-x="571" 
d="M471 598v-509q-67 -101 -184 -101q-120 0 -188 88q-54 71 -54 170q0 123 58 204q61 86 168 86q70 0 106 -53v115q0 68 -26 116h94q26 -32 26 -116zM378 90v335q-12 29 -38 46t-57 17q-129 0 -129 -248q0 -203 142 -203q60 0 82 53zM555 488l-9 18q41 27 62 59
q17 25 17 40t-14 15l-24 -4q-22 0 -37.5 15t-15.5 36q0 20 15 36t35 16q28 0 47 -16q30 -24 30 -76q0 -32 -22 -63q-16 -25 -40.5 -47t-43.5 -29z" />
    <glyph glyph-name="Dcroat" unicode="&#x110;" horiz-adv-x="657" 
d="M26 320v55h52v230q-3 83 -29 109h232q166 0 259 -116q77 -97 77 -244q0 -92 -40 -172q-41 -82 -115 -130q-79 -52 -182 -52h-176q-26 26 -26 114v206h-52zM192 57h79q116 0 178 109q46 82 46 195q0 135 -69 218q-66 79 -176 79h-77q9 -37 9 -70v-213h150v-55h-150v-186
q0 -53 10 -77z" />
    <glyph glyph-name="dcroat" unicode="&#x111;" horiz-adv-x="539" 
d="M461 586v-497q-67 -101 -184 -101q-120 0 -188 88q-54 71 -54 170q0 123 58 204q61 86 168 86q70 0 106 -53v103h-117v55h114q-4 33 -23 73h94q18 -22 24 -73h47v-55h-45zM368 90v335q-12 29 -38 46t-57 17q-129 0 -129 -248q0 -203 142 -203q60 0 82 53z" />
    <glyph glyph-name="Emacron" unicode="&#x112;" horiz-adv-x="519" 
d="M185 65h168q63 0 93.5 4t52.5 14q-19 -83 -115 -83h-276q-27 28 -27 113v493q-1 85 -28 108h306q98 0 117 -83q-22 10 -52.5 14t-93.5 4h-152q3 -15 3 -42v-15v-134h130q53 0 81 -19.5t39 -64.5q-21 12 -49.5 15.5t-97.5 3.5h-103v-277q0 -34 4 -51zM127 840h225v-57
h-225v57z" />
    <glyph glyph-name="emacron" unicode="&#x113;" horiz-adv-x="456" 
d="M139 643h225v-57h-225v57zM380 99l30 -64q-58 -47 -148 -47q-111 0 -173 86q-54 74 -54 186q0 116 68 199q63 77 151 77q171 0 171 -130q0 -59 -41 -94q-21 -18 -84 -50q-150 -78 -150 -107q0 -37 25 -72q33 -47 96 -47q28 0 57.5 17t51.5 46zM142 250q0 -32 2 -39
q33 35 91 74q56 38 72 54q29 31 29 74q0 34 -21.5 54.5t-57.5 20.5q-58 0 -91 -89q-24 -66 -24 -149z" />
    <glyph glyph-name="Ebreve" unicode="&#x114;" horiz-adv-x="519" 
d="M185 65h168q63 0 93.5 4t52.5 14q-19 -83 -115 -83h-276q-27 28 -27 113v493q-1 85 -28 108h306q98 0 117 -83q-22 10 -52.5 14t-93.5 4h-152q3 -15 3 -42v-15v-134h130q53 0 81 -19.5t39 -64.5q-21 12 -49.5 15.5t-97.5 3.5h-103v-277q0 -34 4 -51zM121 898h32
q4 -31 36 -54q28 -20 56 -20q36 0 66 27q24 22 26 47h32q0 -61 -38 -95q-33 -30 -86 -30q-66 0 -99 43q-25 33 -25 82z" />
    <glyph glyph-name="ebreve" unicode="&#x115;" horiz-adv-x="456" 
d="M134 711h32q3 -31 36 -54q27 -20 56 -20q36 0 65 27q24 22 27 47h32q0 -61 -38 -95q-33 -30 -86 -30q-66 0 -99 43q-25 33 -25 82zM380 99l30 -64q-58 -47 -148 -47q-111 0 -173 86q-54 74 -54 186q0 116 68 199q63 77 151 77q171 0 171 -130q0 -59 -41 -94
q-21 -18 -84 -50q-150 -78 -150 -107q0 -37 25 -72q33 -47 96 -47q28 0 57.5 17t51.5 46zM142 250q0 -32 2 -39q33 35 91 74q56 38 72 54q29 31 29 74q0 34 -21.5 54.5t-57.5 20.5q-58 0 -91 -89q-24 -66 -24 -149z" />
    <glyph glyph-name="Edotaccent" unicode="&#x116;" horiz-adv-x="519" 
d="M185 65h168q63 0 93.5 4t52.5 14q-19 -83 -115 -83h-276q-27 28 -27 113v493q-1 85 -28 108h306q98 0 117 -83q-22 10 -52.5 14t-93.5 4h-152q3 -15 3 -42v-15v-134h130q53 0 81 -19.5t39 -64.5q-21 12 -49.5 15.5t-97.5 3.5h-103v-277q0 -34 4 -51zM293 784
q-16 -15 -39 -15t-38.5 15t-15.5 38q0 22 16 37q16 16 38 16q24 0 39.5 -15t15.5 -38t-16 -38z" />
    <glyph glyph-name="edotaccent" unicode="&#x117;" horiz-adv-x="456" 
d="M296 596q-17 -15 -40 -15t-38.5 15t-15.5 38q0 22 16 37q16 16 38 16q24 0 39.5 -15t15.5 -38t-15 -38zM380 99l30 -64q-58 -47 -148 -47q-111 0 -173 86q-54 74 -54 186q0 116 68 199q63 77 151 77q171 0 171 -130q0 -59 -41 -94q-21 -18 -84 -50q-150 -78 -150 -107
q0 -37 25 -72q33 -47 96 -47q28 0 57.5 17t51.5 46zM142 250q0 -32 2 -39q33 35 91 74q56 38 72 54q29 31 29 74q0 34 -21.5 54.5t-57.5 20.5q-58 0 -91 -89q-24 -66 -24 -149z" />
    <glyph glyph-name="Eogonek" unicode="&#x118;" horiz-adv-x="519" 
d="M185 65h168q63 0 93.5 4t52.5 14q-8 -37 -29 -56.5t-60 -25.5q-51 -61 -51 -97q0 -24 13 -39t33 -15q21 0 36 11l18 15l20 -56q-13 -9 -40.5 -17t-49.5 -8q-46 0 -71 25q-23 23 -23 61q0 56 56 119h-243q-27 28 -27 113v493q-1 85 -28 108h306q98 0 117 -83
q-22 10 -52.5 14t-93.5 4h-152q3 -15 3 -42v-15v-134h130q53 0 81 -19.5t39 -64.5q-21 12 -49.5 15.5t-97.5 3.5h-103v-277q0 -34 4 -51z" />
    <glyph glyph-name="eogonek" unicode="&#x119;" horiz-adv-x="456" 
d="M410 35q-23 -18 -53 -31q-54 -60 -54 -100q0 -24 13 -39t33 -15q21 0 37 11l18 15l20 -56q-13 -9 -41 -17t-50 -8q-46 0 -71 25q-23 23 -23 61q0 53 48 108h-1q-9 -1 -23 -1q-112 0 -174 86q-54 74 -54 186q0 116 68 199q63 77 151 77q171 0 171 -130q0 -59 -41 -94
q-21 -18 -84 -50q-150 -78 -150 -107q0 -37 25 -72q33 -47 96 -47q28 0 57.5 17t51.5 46zM142 250q0 -32 2 -39q33 35 91 74q56 38 72 54q29 31 29 74q0 34 -21.5 54.5t-57.5 20.5q-58 0 -91 -89q-24 -66 -24 -149z" />
    <glyph glyph-name="Ecaron" unicode="&#x11a;" horiz-adv-x="519" 
d="M185 65h168q63 0 93.5 4t52.5 14q-19 -83 -115 -83h-276q-27 28 -27 113v493q-1 85 -28 108h306q98 0 117 -83q-22 10 -52.5 14t-93.5 4h-152q3 -15 3 -42v-15v-134h130q53 0 81 -19.5t39 -64.5q-21 12 -49.5 15.5t-97.5 3.5h-103v-277q0 -34 4 -51zM338 900h16
q-42 -89 -113 -127q-73 37 -114 127h15q52 -53 99 -68q26 8 66 38q22 17 31 30z" />
    <glyph glyph-name="ecaron" unicode="&#x11b;" horiz-adv-x="456" 
d="M355 713h16q-43 -89 -113 -127q-73 37 -114 127h15q51 -53 99 -68q26 8 66 38q21 17 31 30zM380 99l30 -64q-58 -47 -148 -47q-111 0 -173 86q-54 74 -54 186q0 116 68 199q63 77 151 77q171 0 171 -130q0 -59 -41 -94q-21 -18 -84 -50q-150 -78 -150 -107q0 -37 25 -72
q33 -47 96 -47q28 0 57.5 17t51.5 46zM142 250q0 -32 2 -39q33 35 91 74q56 38 72 54q29 31 29 74q0 34 -21.5 54.5t-57.5 20.5q-58 0 -91 -89q-24 -66 -24 -149z" />
    <glyph glyph-name="Gcircumflex" unicode="&#x11c;" horiz-adv-x="630" 
d="M573 282v-167q0 -43 12 -78q1 -3 15 -37h-222q-159 3 -252 106q-86 95 -86 248q0 99 41 183q42 86 116 135q79 52 179 52q111 0 193 -52l-29 -76q-34 34 -70 48t-87 14q-118 0 -178 -105q-44 -78 -44 -190q0 -138 62 -222q64 -86 176 -84l76 1l1 84v136q0 47 -9 90
q-4 17 -9 27h115v-113zM481 773h-16q-9 13 -31 30q-40 30 -66 38q-47 -15 -99 -68h-15q41 90 114 127q71 -38 113 -127z" />
    <glyph glyph-name="gcircumflex" unicode="&#x11d;" horiz-adv-x="524" 
d="M87 -172l31 67q53 -69 132 -69q121 0 121 191q-27 -18 -45.5 -23.5t-47.5 -5.5q-120 0 -188 88q-55 71 -55 170q0 124 58 205q61 85 169 85q71 0 106 -51v41h97v-476q0 -204 -117 -255q-38 -17 -108 -17q-44 0 -85.5 13.5t-67.5 36.5zM368 102v323q-10 28 -36 45.5
t-58 17.5q-129 0 -129 -248q0 -202 142 -202q37 0 59 17.5t22 46.5zM370 586h-16q-9 13 -31 30q-40 30 -66 38q-47 -15 -99 -68h-15q41 90 114 127q71 -38 113 -127z" />
    <glyph glyph-name="Gbreve" unicode="&#x11e;" horiz-adv-x="630" 
d="M573 282v-167q0 -43 12 -78q1 -3 15 -37h-222q-159 3 -252 106q-86 95 -86 248q0 99 41 183q42 86 116 135q79 52 179 52q111 0 193 -52l-29 -76q-34 34 -70 48t-87 14q-118 0 -178 -105q-44 -78 -44 -190q0 -138 62 -222q64 -86 176 -84l76 1l1 84v136q0 47 -9 90
q-4 17 -9 27h115v-113zM231 898h32q4 -31 36 -54q28 -20 56 -20q36 0 66 27q24 22 26 47h32q0 -61 -38 -95q-33 -30 -86 -30q-66 0 -99 43q-25 33 -25 82z" />
    <glyph glyph-name="gbreve" unicode="&#x11f;" horiz-adv-x="524" 
d="M87 -172l31 67q53 -69 132 -69q121 0 121 191q-27 -18 -45.5 -23.5t-47.5 -5.5q-120 0 -188 88q-55 71 -55 170q0 124 58 205q61 85 169 85q71 0 106 -51v41h97v-476q0 -204 -117 -255q-38 -17 -108 -17q-44 0 -85.5 13.5t-67.5 36.5zM368 102v323q-10 28 -36 45.5
t-58 17.5q-129 0 -129 -248q0 -202 142 -202q37 0 59 17.5t22 46.5zM133 711h32q4 -31 36 -54q28 -20 56 -20q36 0 66 27q24 22 26 47h32q0 -61 -38 -95q-33 -30 -86 -30q-66 0 -99 43q-25 33 -25 82z" />
    <glyph glyph-name="Gdotaccent" unicode="&#x120;" horiz-adv-x="630" 
d="M573 282v-167q0 -43 12 -78q1 -3 15 -37h-222q-159 3 -252 106q-86 95 -86 248q0 99 41 183q42 86 116 135q79 52 179 52q111 0 193 -52l-29 -76q-34 34 -70 48t-87 14q-118 0 -178 -105q-44 -78 -44 -190q0 -138 62 -222q64 -86 176 -84l76 1l1 84v136q0 47 -9 90
q-4 17 -9 27h115v-113zM414 784q-16 -15 -39 -15t-38.5 15t-15.5 38q0 22 16 37q16 16 38 16q24 0 39.5 -15t15.5 -38t-16 -38z" />
    <glyph glyph-name="gdotaccent" unicode="&#x121;" horiz-adv-x="524" 
d="M87 -172l31 67q53 -69 132 -69q121 0 121 191q-27 -18 -45.5 -23.5t-47.5 -5.5q-120 0 -188 88q-55 71 -55 170q0 124 58 205q61 85 169 85q71 0 106 -51v41h97v-476q0 -204 -117 -255q-38 -17 -108 -17q-44 0 -85.5 13.5t-67.5 36.5zM368 102v323q-10 28 -36 45.5
t-58 17.5q-129 0 -129 -248q0 -202 142 -202q37 0 59 17.5t22 46.5zM295 601q-16 -15 -39 -15t-38.5 15t-15.5 38q0 22 16 37q16 16 38 16q24 0 39.5 -15t15.5 -38t-16 -38z" />
    <glyph glyph-name="Gcommaaccent" unicode="&#x122;" horiz-adv-x="630" 
d="M573 282v-167q0 -43 12 -78q1 -3 15 -37h-222q-159 3 -252 106q-86 95 -86 248q0 99 41 183q42 86 116 135q79 52 179 52q111 0 193 -52l-29 -76q-34 34 -70 48t-87 14q-118 0 -178 -105q-44 -78 -44 -190q0 -138 62 -222q64 -86 176 -84l76 1l1 84v136q0 47 -9 90
q-4 17 -9 27h115v-113zM395 -319l-10 21q38 23 64 57t26 60q0 15 -15 15l-27 -4q-22 0 -42 14q-20 17 -20 45q0 25 19 42.5t46 17.5q41 0 63 -33q19 -29 19 -74q0 -31 -21.5 -68t-54.5 -63q-28 -22 -47 -30z" />
    <glyph glyph-name="gcommaaccent" unicode="&#x123;" horiz-adv-x="524" 
d="M87 -172l31 67q53 -69 132 -69q121 0 121 191q-27 -18 -45.5 -23.5t-47.5 -5.5q-120 0 -188 88q-55 71 -55 170q0 124 58 205q61 85 169 85q71 0 106 -51v41h97v-476q0 -204 -117 -255q-38 -17 -108 -17q-44 0 -85.5 13.5t-67.5 36.5zM368 102v323q-10 28 -36 45.5
t-58 17.5q-129 0 -129 -248q0 -202 142 -202q37 0 59 17.5t22 46.5zM299 817l9 -18q-41 -27 -62 -59q-17 -25 -17 -40t14 -15l24 4q22 0 37.5 -15t15.5 -36q0 -20 -15 -36t-35 -16q-28 0 -47 16q-30 24 -30 76q0 32 22 63q16 25 40.5 47t43.5 29z" />
    <glyph glyph-name="Hcircumflex" unicode="&#x124;" horiz-adv-x="661" 
d="M78 113v485q0 66 -25 116h98q27 -28 27 -113v-176h305v173q0 66 -25 116h98q27 -28 27 -112v-486q0 -66 25 -116h-98q-27 28 -27 113v240h-305v-236q0 -69 24 -117h-97q-27 28 -27 113zM425 773h-16q-9 13 -31 30q-40 30 -66 38q-47 -15 -99 -68h-15q41 90 114 127
q71 -38 113 -127z" />
    <glyph glyph-name="hcircumflex" unicode="&#x125;" horiz-adv-x="507" 
d="M442 394v-279q0 -70 26 -115h-94q-26 29 -26 112v263q0 87 -90 87q-31 0 -59.5 -24t-44.5 -63v-260q0 -65 26 -115h-94q-26 29 -26 115v486q0 74 -25 113h91q26 -29 26 -113v-164q9 22 39 52q47 47 113 47q64 0 104 -46q34 -40 34 -96zM197 751h-16q-9 13 -31 30
q-40 30 -66 38q-47 -15 -99 -68h-15q41 90 114 127q71 -38 113 -127z" />
    <glyph glyph-name="Hbar" unicode="&#x126;" horiz-adv-x="661" 
d="M77 113v406h-63v66h63v13q0 66 -25 116h98q27 -28 27 -113v-16h305v13q0 66 -25 116h98q27 -28 27 -112v-17h48v-66h-48v-403q0 -66 25 -116h-98q-27 28 -27 113v240h-305v-236q0 -69 24 -117h-97q-27 28 -27 113zM177 425h305v94h-305v-94z" />
    <glyph glyph-name="hbar" unicode="&#x127;" horiz-adv-x="531" 
d="M466 394v-279q0 -70 26 -115h-94q-26 29 -26 112v263q0 87 -90 87q-31 0 -59.5 -24t-44.5 -63v-260q0 -65 26 -115h-94q-26 29 -26 115v471h-50v57h47q-6 41 -22 71h91q18 -21 24 -71h185v-57h-183v-149q9 22 39 52q47 47 113 47q64 0 104 -46q34 -40 34 -96z" />
    <glyph glyph-name="Itilde" unicode="&#x128;" horiz-adv-x="256" 
d="M78 113v485q0 66 -25 116h98q27 -28 27 -112v-486q0 -66 25 -116h-98q-27 28 -27 113zM261 844l10 -16q-45 -56 -106 -56q-16 0 -42 7q-75 24 -84 24q-30 0 -64 -19l-9 15q44 48 101 48q16 0 61 -15q42 -12 62 -12q37 0 71 24z" />
    <glyph glyph-name="itilde" unicode="&#x129;" horiz-adv-x="228" 
d="M68 112v414h94v-411q0 -73 25 -115h-93q-26 29 -26 112zM253 657l10 -16q-45 -56 -106 -56q-16 0 -42 7q-75 24 -84 24q-30 0 -64 -19l-9 15q44 48 101 48q16 0 61 -15q42 -12 62 -12q37 0 71 24z" />
    <glyph glyph-name="Imacron" unicode="&#x12a;" horiz-adv-x="256" 
d="M78 113v485q0 66 -25 116h98q27 -30 27 -112v-486q0 -66 25 -116h-98q-27 30 -27 113zM-1 830h225v-57h-225v57z" />
    <glyph glyph-name="imacron" unicode="&#x12b;" horiz-adv-x="228" 
d="M68 112v414h94v-411q0 -73 25 -115h-93q-26 29 -26 112zM3 643h225v-57h-225v57z" />
    <glyph glyph-name="Ibreve" unicode="&#x12c;" horiz-adv-x="256" 
d="M78 113v485q0 66 -25 116h98q27 -28 27 -112v-486q0 -66 25 -116h-98q-27 28 -27 113zM-10 897h32q4 -31 36 -54q28 -20 56 -20q36 0 66 27q24 22 26 47h32q0 -61 -38 -95q-33 -30 -86 -30q-66 0 -99 43q-25 33 -25 82z" />
    <glyph glyph-name="ibreve" unicode="&#x12d;" horiz-adv-x="228" 
d="M68 112v414h94v-411q0 -70 25 -115h-93q-26 29 -26 112zM-12 711h32q5 -31 36 -54q27 -20 56 -20q37 0 66 27q24 22 26 47h32q0 -60 -38 -95q-34 -30 -86 -30q-66 0 -99 44q-25 33 -25 81z" />
    <glyph glyph-name="Iogonek" unicode="&#x12e;" horiz-adv-x="256" 
d="M78 113v485q0 66 -25 116h98q27 -28 27 -112v-486q0 -66 25 -116h-39q-32 -44 -33 -46q-17 -28 -17 -50q0 -24 13 -39t33 -15q21 0 36 11l18 15l20 -56q-13 -9 -40.5 -17t-49.5 -8q-46 0 -71 25q-23 23 -23 61q0 56 56 119h-1q-27 28 -27 113z" />
    <glyph glyph-name="iogonek" unicode="&#x12f;" horiz-adv-x="228" 
d="M68 112v414h94v-411q0 -73 25 -115h-36q-32 -44 -33 -46q-17 -28 -17 -50q0 -24 13 -39t33 -15q21 0 36 11l18 15l20 -56q-13 -9 -40.5 -17t-49.5 -8q-46 0 -71 25q-23 23 -23 61q0 56 56 119q-25 30 -25 112zM115 614q-24 0 -40.5 15.5t-16.5 39.5t16 39q16 16 41 16
q23 0 39.5 -16t16.5 -39q0 -22 -17 -39q-16 -16 -39 -16z" />
    <glyph glyph-name="Idotaccent" unicode="&#x130;" horiz-adv-x="256" 
d="M78 113v485q0 66 -25 116h98q27 -28 27 -112v-486q0 -66 25 -116h-98q-27 28 -27 113zM141 784q-17 -15 -39 -15q-23 0 -38.5 15t-15.5 38q0 22 16 37q16 16 38 16q24 0 39.5 -15t15.5 -38t-16 -38z" />
    <glyph glyph-name="dotlessi" unicode="&#x131;" horiz-adv-x="228" 
d="M68 112v414h94v-411q0 -73 25 -115h-93q-26 29 -26 112z" />
    <glyph glyph-name="IJ" unicode="&#x132;" horiz-adv-x="668" 
d="M78 113v485q0 66 -25 116h98q27 -28 27 -112v-486q0 -66 25 -116h-98q-27 28 -27 113zM505 191v407q0 66 -25 116h98q27 -28 27 -112v-423q0 -94 -60 -147q-51 -44 -128 -44q-91 0 -174 54l39 85q27 -34 64.5 -55t70.5 -21q52 0 71 36q17 32 17 104z" />
    <glyph glyph-name="ij" unicode="&#x133;" horiz-adv-x="494" 
d="M116 614q-24 0 -40.5 15.5t-16.5 39.5t16 39q16 16 41 16q23 0 39.5 -16t16.5 -39q0 -22 -17 -39q-16 -16 -39 -16zM69 112v414h94v-411q0 -73 25 -115h-93q-26 29 -26 112zM381 616q-23 0 -39 15.5t-16 38.5q0 22 16.5 38t38.5 16t38 -16t16 -38t-16 -38t-38 -16z
M334 -76v602h94v-578q0 -28 -2 -46q-9 -66 -52 -97q-40 -27 -107 -27q-79 0 -146 48l30 62q51 -62 115 -62q37 0 52.5 22.5t15.5 75.5z" />
    <glyph glyph-name="Jcircumflex" unicode="&#x134;" horiz-adv-x="439" 
d="M281 191v407q0 66 -25 116h98q27 -28 27 -112v-423q0 -94 -60 -147q-51 -44 -128 -44q-92 0 -174 54l39 85q27 -34 64.5 -55t70.5 -21q52 0 71 36q17 32 17 104zM423 773h-16q-9 13 -31 30q-40 30 -66 38q-47 -15 -99 -68h-15q41 90 114 127q71 -38 113 -127z" />
    <glyph glyph-name="jcircumflex" unicode="&#x135;" horiz-adv-x="285" 
d="M123 -76v602h94v-578q0 -28 -2 -46q-9 -66 -52 -97q-40 -27 -107 -27q-79 0 -146 48l30 62q51 -62 115 -62q37 0 52.5 22.5t15.5 75.5zM290 586h-16q-9 13 -31 30q-40 30 -66 38q-47 -15 -99 -68h-15q41 90 114 127q71 -38 113 -127z" />
    <glyph glyph-name="Kcommaaccent" unicode="&#x136;" horiz-adv-x="590" 
d="M78 113v485q0 66 -25 116h98q27 -28 27 -112v-321q15 97 48.5 167t109.5 168l75 98h116l-125 -143q-71 -81 -129 -174q72 -17 116 -83q14 -18 46 -85q55 -114 88 -164t63 -65h-109q-19 10 -35.5 30.5t-43.5 68.5q-51 94 -97 193q-25 54 -50 69q-73 -122 -73 -201v-44
q0 -66 25 -116h-98q-27 28 -27 113zM278 -275l-8 18q30 17 52.5 46t22.5 51q0 13 -13 13l-22 -3q-18 0 -35 11q-17 14 -17 38q0 21 16 35.5t38 14.5q31 0 50 -24.5t19 -64.5q0 -26 -17.5 -56t-46.5 -54q-28 -21 -39 -25z" />
    <glyph glyph-name="kcommaaccent" unicode="&#x137;" horiz-adv-x="515" 
d="M529 0h-127q-37 35 -60 75q-14 22 -42 72q-18 30 -27 47q-32 57 -59 75q-55 -48 -55 -117v-42q0 -63 25 -110h-93q-26 33 -26 112v494q0 84 -27 108h93q28 -25 28 -108v-339q19 71 111 159l103 100h107l-230 -221q59 -2 114 -89q60 -94 91 -139q41 -63 74 -77zM235 -275
l-8 18q30 17 52.5 46t22.5 51q0 13 -13 13l-22 -3q-18 0 -35 11q-17 14 -17 38q0 21 16 35.5t38 14.5q31 0 50 -24.5t19 -64.5q0 -26 -17.5 -56t-46.5 -54q-28 -21 -39 -25z" />
    <glyph glyph-name="kgreenlandic" unicode="&#x138;" horiz-adv-x="555" 
d="M569 0h-127q-37 35 -60 75q-14 22 -42 72q-18 30 -27 47q-32 57 -59 75q-55 -48 -55 -117v-42q0 -63 25 -110h-93q-26 33 -26 112v306q0 84 -27 108h93q28 -25 28 -108v-151q19 71 111 159l103 100h107l-230 -221q59 -2 114 -89q60 -94 91 -139q41 -63 74 -77z" />
    <glyph glyph-name="Lacute" unicode="&#x139;" horiz-adv-x="506" 
d="M78 113v485q0 66 -25 116h98q27 -28 27 -112v-486q0 -34 4 -51h168q63 0 93.5 4t52.5 14q-19 -83 -115 -83h-276q-27 28 -27 113zM71 773l9 28q8 25 27 70l15 30q7 12 12 14q8 2 10 2q7 0 29 -6l47 -16v-14q-37 -8 -62.5 -30.5t-62.5 -77.5h-24z" />
    <glyph glyph-name="lacute" unicode="&#x13a;" horiz-adv-x="225" 
d="M161 601v-486q0 -63 25 -115h-95q-26 29 -26 115v486q0 74 -25 113h95q26 -29 26 -113zM52 772l9 28q8 25 27 70l15 30q7 12 12 14q8 2 10 2q7 0 29 -6l47 -16v-14q-37 -8 -62.5 -30.5t-62.5 -77.5h-24z" />
    <glyph glyph-name="Lcommaaccent" unicode="&#x13b;" horiz-adv-x="506" 
d="M78 113v485q0 66 -25 116h98q27 -28 27 -112v-486q0 -34 4 -51h168q63 0 93.5 4t52.5 14q-19 -83 -115 -83h-276q-27 28 -27 113zM237 -275l-8 18q30 17 52.5 46t22.5 51q0 13 -13 13l-22 -3q-18 0 -35 11q-17 14 -17 38q0 21 16 35.5t38 14.5q31 0 50 -24.5t19 -64.5
q0 -26 -17.5 -56t-46.5 -54q-28 -21 -39 -25z" />
    <glyph glyph-name="lcommaaccent" unicode="&#x13c;" horiz-adv-x="225" 
d="M161 602v-487q0 -63 25 -115h-95q-26 29 -26 115v487q0 73 -25 112h95q26 -29 26 -112zM95 -275l-8 18q30 17 52.5 46t22.5 51q0 13 -13 13l-22 -3q-18 0 -35 11q-17 14 -17 38q0 21 16 35.5t38 14.5q31 0 50 -24.5t19 -64.5q0 -26 -17.5 -56t-46.5 -54q-28 -21 -39 -25z
" />
    <glyph glyph-name="Lcaron" unicode="&#x13d;" horiz-adv-x="506" 
d="M78 113v485q0 66 -25 116h98q27 -28 27 -112v-486q0 -34 4 -51h168q63 0 93.5 4t52.5 14q-19 -83 -115 -83h-276q-27 28 -27 113zM302 586l-9 18q41 27 62 59q17 25 17 40t-14 15l-24 -4q-22 0 -37.5 15t-15.5 36q0 20 15 36t35 16q28 0 47 -16q30 -24 30 -76
q0 -32 -22 -63q-16 -25 -40.5 -47t-43.5 -29z" />
    <glyph glyph-name="lcaron" unicode="&#x13e;" horiz-adv-x="347" 
d="M161 601v-486q0 -63 25 -115h-95q-26 29 -26 115v486q0 74 -25 113h95q26 -29 26 -113zM252 488l-9 18q41 27 62 59q17 25 17 40t-14 15l-24 -4q-22 0 -37.5 15t-15.5 36q0 20 15 36t35 16q28 0 47 -16q30 -24 30 -76q0 -32 -22 -63q-16 -25 -40.5 -47t-43.5 -29z" />
    <glyph glyph-name="Ldot" unicode="&#x13f;" horiz-adv-x="506" 
d="M78 113v485q0 66 -25 116h98q27 -28 27 -112v-486q0 -34 4 -51h168q63 0 93.5 4t52.5 14q-19 -83 -115 -83h-276q-27 28 -27 113zM355 327q-24 0 -40.5 16.5t-16.5 39.5q0 24 16.5 39.5t40.5 15.5q23 0 39.5 -16t16.5 -39t-16.5 -39.5t-39.5 -16.5z" />
    <glyph glyph-name="ldot" unicode="&#x140;" horiz-adv-x="339" 
d="M161 602v-487q0 -63 25 -115h-95q-26 29 -26 115v487q0 73 -25 112h95q26 -29 26 -112zM269 287q-24 0 -40.5 16.5t-16.5 39.5q0 24 16.5 39.5t40.5 15.5q23 0 39.5 -16t16.5 -39t-16.5 -39.5t-39.5 -16.5z" />
    <glyph glyph-name="Lslash" unicode="&#x141;" horiz-adv-x="537" 
d="M7 161v77l102 76v284q0 66 -25 116h98q27 -28 27 -112v-214l144 108v-92l-144 -101v-187q0 -34 4 -51h168q63 0 93.5 4t52.5 14q-19 -83 -115 -83h-276q-27 28 -27 113v119z" />
    <glyph glyph-name="lslash" unicode="&#x142;" horiz-adv-x="320" 
d="M200 305v-190q0 -63 25 -115h-95q-26 29 -26 115v128l-94 -65v69l94 70v284q0 74 -25 113h95q26 -29 26 -113v-218l110 82v-84z" />
    <glyph glyph-name="Nacute" unicode="&#x143;" horiz-adv-x="627" 
d="M488 321v277q0 76 -25 116h76q25 -30 25 -96v-15v-478q0 -92 10 -117v-8h-109q-49 63 -91 153q-174 369 -205 428q-27 49 -30 52q20 -55 20 -180v-337q0 -66 25 -116h-76q-27 28 -27 111v479q0 97 -28 124h138q36 -16 73 -94l172 -362q52 -107 65 -126q-13 66 -13 189z
M308 773l9 28q8 25 27 70l15 30q7 12 12 14q8 2 10 2q7 0 29 -6l47 -16v-14q-37 -8 -62.5 -30.5t-62.5 -77.5h-24z" />
    <glyph glyph-name="nacute" unicode="&#x144;" horiz-adv-x="512" 
d="M65 526h92v-89q9 22 39 52q47 47 113 47q64 0 104 -46q34 -40 34 -96v-279q0 -70 26 -115h-94q-26 29 -26 112v263q0 87 -90 87q-31 0 -59.5 -24t-44.5 -63v-260q0 -65 26 -115h-94q-26 29 -26 115v411zM204 586l9 28q8 25 27 70l15 30q7 12 12 14q8 2 10 2q7 0 29 -6
l47 -16v-14q-37 -8 -62.5 -30.5t-62.5 -77.5h-24z" />
    <glyph glyph-name="Ncommaaccent" unicode="&#x145;" horiz-adv-x="627" 
d="M488 321v277q0 76 -25 116h76q25 -30 25 -96v-15v-478q0 -92 10 -117v-8h-109q-49 63 -91 153q-174 369 -205 428q-27 49 -30 52q20 -55 20 -180v-337q0 -66 25 -116h-76q-27 28 -27 111v479q0 97 -28 124h138q36 -16 73 -94l172 -362q52 -107 65 -126q-13 66 -13 189z
M284 -275l-8 18q30 17 52.5 46t22.5 51q0 13 -13 13l-22 -3q-18 0 -35 11q-17 14 -17 38q0 21 16 35.5t38 14.5q31 0 50 -24.5t19 -64.5q0 -26 -17.5 -56t-46.5 -54q-28 -21 -39 -25z" />
    <glyph glyph-name="ncommaaccent" unicode="&#x146;" horiz-adv-x="512" 
d="M65 526h92v-89q9 22 39 52q47 47 113 47q64 0 104 -46q34 -40 34 -96v-279q0 -70 26 -115h-94q-26 29 -26 112v263q0 87 -90 87q-31 0 -59.5 -24t-44.5 -63v-260q0 -65 26 -115h-94q-26 29 -26 115v411zM235 -275l-8 18q30 17 52.5 46t22.5 51q0 13 -13 13l-22 -3
q-18 0 -35 11q-17 14 -17 38q0 21 16 35.5t38 14.5q31 0 50 -24.5t19 -64.5q0 -26 -17.5 -56t-46.5 -54q-28 -21 -39 -25z" />
    </font>
</defs>
</svg>
