<?xml version="1.0" standalone="no"?>
<!DOCTYPE svg PUBLIC "-//W3C//DTD SVG 1.1//EN" "http://www.w3.org/Graphics/SVG/1.1/DTD/svg11.dtd" >
<svg xmlns="http://www.w3.org/2000/svg" xmlns:xlink="http://www.w3.org/1999/xlink" version="1.1">
<metadata>
Created by FontForge 20170910 at Thu May 26 13:49:43 2016
 By Jimmy Wärting
Copyright (c) Emirates, 2003 - 2016.
</metadata>
<defs>
<font id="Emirates-Light" horiz-adv-x="0" >
  <font-face 
    font-family="Emirates Light"
    font-weight="300"
    font-stretch="normal"
    units-per-em="1000"
    panose-1="0 0 0 0 0 0 0 0 0 0"
    ascent="800"
    descent="-200"
    x-height="526"
    cap-height="714"
    bbox="-148 -477 1389 1084"
    underline-thickness="50"
    underline-position="-100"
    unicode-range="U+0020-FEFC"
  />
<missing-glyph horiz-adv-x="250" 
d="M25 0v714h200v-714h-200zM200 25v664h-150v-664h150z" />
    <glyph glyph-name="uniE002" unicode="&#xfedf;&#xfb51;" horiz-adv-x="504" 
d="M144 648q-21 1 -59 15q-35 13 -52 13q-7 0 -13 -1q-17 -3 -35 -13l-4 7q34 34 56 35h5q10 0 40 -8q4 -1 7 -1q6 0 10 6q11 14 13 17q26 35 56 34q19 -1 30 -13.5t11 -32.5v-5q-2 -22 -20 -37.5t-41 -15.5h-4zM122 682l4 -1h10q16 0 26.5 9t10.5 22q0 12 -11 12
q-6 0 -21 -18zM392 681h64q-10 -17 -13.5 -36.5t-3.5 -59.5v-389q0 -95 -73 -154q-66 -53 -166 -53q-91 0 -153 51l23 52q47 -58 122 -58q80 0 80 88q0 40 -42 107l-67 99l-66 99q-30 43 -30 79q0 5 1 11l54 34v-10q0 -30 30 -84q80 -141 104 -178q52 -84 52 -159
q0 -32 -9 -59q34 17 54.5 52t20.5 76v398q0 70 18 94z" />
    <glyph glyph-name="uniE003" unicode="&#xfee0;&#xfb51;" horiz-adv-x="569" 
d="M209 701q-2 -22 -20 -37.5t-41 -15.5h-4q-21 1 -59 15q-35 13 -52 13q-7 0 -13 -1q-17 -3 -35 -13l-4 7q34 34 56 35h5q10 0 40 -8q4 -1 7 -1q6 0 10 6q11 14 13 17q26 35 56 34q19 -1 30 -13.5t11 -32.5v-5zM122 682l4 -1h10q16 0 26.5 9t10.5 22q0 12 -11 12
q-6 0 -21 -18zM588 65v-65h-37q-113 0 -154 74q-68 -85 -197 -85q-91 0 -153 51l23 52q47 -58 122 -58q80 0 80 88q0 40 -42 107l-67 99l-66 99q-30 43 -30 79q0 5 1 11l54 34v-10q0 -30 30 -84q79 -140 104 -178q52 -84 52 -159q0 -31 -9 -59q34 17 54.5 52t20.5 76v398
q0 70 18 94h64q-10 -17 -13.5 -36.5t-3.5 -59.5v-426q0 -50 35 -75q27 -19 68 -19h46z" />
    <glyph glyph-name="uniE041" unicode="&#xfb58;&#xfef0;" horiz-adv-x="1029" 
d="M931 445h64q-10 -17 -13.5 -36.5t-3.5 -59.5v-176q0 -82 -42 -126q-45 -47 -134 -47h-146q-12 -137 -119 -208q-80 -54 -184 -54q-131 0 -217 80t-88 216q0 55 19 103q19 47 55 80l45 -24q-43 -21 -64 -59q-21 -40 -21 -97q0 -99 76 -165q79 -71 193 -71q103 0 173 61
q62 55 68 138h-109q-70 0 -94 18v64q17 -10 36.5 -13.5t59.5 -3.5h325q47 0 75 25t28 69v192q0 70 18 94zM831 -177q0 -18 -12.5 -30.5t-30.5 -12.5t-30.5 12.5t-12.5 30.5t12.5 30.5t30.5 12.5t30.5 -12.5t12.5 -30.5zM916 -134q18 0 30.5 -12.5t12.5 -30.5t-12.5 -30.5
t-30.5 -12.5t-30.5 12.5t-12.5 30.5t12.5 30.5t30.5 12.5zM846 -229q17 0 28.5 -11t11.5 -28t-11.5 -28t-28.5 -11t-28.5 11t-11.5 28t11.5 28t28.5 11z" />
    <glyph glyph-name="uniE042" unicode="&#xfb59;&#xfef0;" horiz-adv-x="1077" 
d="M901 445h64q-10 -17 -13.5 -36.5t-3.5 -59.5v-190q0 -50 35 -75q27 -19 67 -19h46v-65h-37q-100 0 -143 58q-45 -58 -145 -58h-115q-12 -137 -119 -208q-80 -54 -184 -54q-131 0 -217 80t-88 216q0 55 19 103q19 47 55 80l45 -24q-43 -21 -64 -59q-21 -40 -21 -97
q0 -99 76 -165q79 -71 193 -71q104 0 173 61q62 55 68 138h-109q-70 0 -94 18v64q17 -10 36.5 -13.5t59.5 -3.5h295q47 0 75 25t28 69v192q0 70 18 94zM788 -134q18 0 30.5 -12.5t12.5 -30.5t-12.5 -30.5t-30.5 -12.5t-30.5 12.5t-12.5 30.5t12.5 30.5t30.5 12.5zM916 -134
q18 0 30.5 -12.5t12.5 -30.5t-12.5 -30.5t-30.5 -12.5t-30.5 12.5t-12.5 30.5t12.5 30.5t30.5 12.5zM852 -236q18 0 30.5 -12.5t12.5 -30.5t-12.5 -30.5t-30.5 -12.5t-30.5 12.5t-12.5 30.5t12.5 30.5t30.5 12.5z" />
    <glyph glyph-name="uniE043" unicode="&#xfb58;&#xfef2;" horiz-adv-x="1029" 
d="M931 445h64q-10 -17 -13.5 -36.5t-3.5 -59.5v-176q0 -82 -42 -126q-45 -47 -134 -47h-146q-12 -137 -119 -208q-80 -54 -184 -54q-131 0 -217 80t-88 216q0 55 19 103q19 47 55 80l45 -24q-43 -21 -64 -59q-21 -40 -21 -97q0 -99 76 -165q79 -71 193 -71q103 0 173 61
q62 55 68 138h-109q-70 0 -94 18v64q17 -10 36.5 -13.5t59.5 -3.5h325q47 0 75 25t28 69v192q0 70 18 94zM831 -177q0 -18 -12.5 -30.5t-30.5 -12.5t-30.5 12.5t-12.5 30.5t12.5 30.5t30.5 12.5t30.5 -12.5t12.5 -30.5zM916 -134q18 0 30.5 -12.5t12.5 -30.5t-12.5 -30.5
t-30.5 -12.5t-30.5 12.5t-12.5 30.5t12.5 30.5t30.5 12.5zM852 -236q18 0 30.5 -12.5t12.5 -30.5t-12.5 -30.5t-30.5 -12.5t-30.5 12.5t-12.5 30.5t12.5 30.5t30.5 12.5zM287 -379q18 0 30.5 -12.5t12.5 -30.5t-12.5 -30.5t-30.5 -12.5t-30.5 12.5t-12.5 30.5t12.5 30.5
t30.5 12.5zM416 -379q18 0 30.5 -12.5t12.5 -30.5t-12.5 -30.5t-30.5 -12.5t-30.5 12.5t-12.5 30.5t12.5 30.5t30.5 12.5z" />
    <glyph glyph-name="uniE044" unicode="&#xfb59;&#xfef2;" horiz-adv-x="1077" 
d="M901 445h64q-10 -17 -13.5 -36.5t-3.5 -59.5v-190q0 -50 35 -75q27 -19 67 -19h46v-65h-37q-100 0 -143 58q-45 -58 -145 -58h-115q-12 -137 -119 -208q-80 -54 -184 -54q-131 0 -217 80t-88 216q0 55 19 103q19 47 55 80l45 -24q-43 -21 -64 -59q-21 -40 -21 -97
q0 -99 76 -165q79 -71 193 -71q104 0 173 61q62 55 68 138h-109q-70 0 -94 18v64q17 -10 36.5 -13.5t59.5 -3.5h295q47 0 75 25t28 69v192q0 70 18 94zM788 -134q18 0 30.5 -12.5t12.5 -30.5t-12.5 -30.5t-30.5 -12.5t-30.5 12.5t-12.5 30.5t12.5 30.5t30.5 12.5zM916 -134
q18 0 30.5 -12.5t12.5 -30.5t-12.5 -30.5t-30.5 -12.5t-30.5 12.5t-12.5 30.5t12.5 30.5t30.5 12.5zM852 -236q18 0 30.5 -12.5t12.5 -30.5t-12.5 -30.5t-30.5 -12.5t-30.5 12.5t-12.5 30.5t12.5 30.5t30.5 12.5zM287 -379q18 0 30.5 -12.5t12.5 -30.5t-12.5 -30.5
t-30.5 -12.5t-30.5 12.5t-12.5 30.5t12.5 30.5t30.5 12.5zM416 -379q18 0 30.5 -12.5t12.5 -30.5t-12.5 -30.5t-30.5 -12.5t-30.5 12.5t-12.5 30.5t12.5 30.5t30.5 12.5z" />
    <glyph glyph-name="uniE045" unicode="&#xfb58;&#xfe8a;" horiz-adv-x="1029" 
d="M173 338h-88q-28 0 -41 9v33q15 -9 44 -9q-13 17 -13 41q0 32 21 52t54 20q30 0 53 -14l-6 -21q-23 18 -41 18q-20 0 -33.5 -14t-13.5 -35q0 -22 13 -34.5t35 -12.5h17q34 0 47 -8v-34q-14 9 -48 9zM931 445h64q-10 -17 -13.5 -36.5t-3.5 -59.5v-176q0 -82 -42 -126
q-45 -47 -134 -47h-146q-12 -137 -119 -208q-80 -54 -184 -54q-131 0 -217 80t-88 216q0 55 19 103q19 47 55 80l45 -24q-43 -21 -64 -59q-21 -40 -21 -97q0 -99 76 -165q79 -71 193 -71q103 0 173 61q62 55 68 138h-109q-70 0 -94 18v64q17 -10 36.5 -13.5t59.5 -3.5h325
q47 0 75 25t28 69v192q0 70 18 94zM831 -177q0 -18 -12.5 -30.5t-30.5 -12.5t-30.5 12.5t-12.5 30.5t12.5 30.5t30.5 12.5t30.5 -12.5t12.5 -30.5zM916 -134q18 0 30.5 -12.5t12.5 -30.5t-12.5 -30.5t-30.5 -12.5t-30.5 12.5t-12.5 30.5t12.5 30.5t30.5 12.5zM851 -236
q18 0 30.5 -12.5t12.5 -30.5t-12.5 -30.5t-30.5 -12.5t-30.5 12.5t-12.5 30.5t12.5 30.5t30.5 12.5z" />
    <glyph glyph-name="uniE046" unicode="&#xfb59;&#xfe8a;" horiz-adv-x="1077" 
d="M150 484q30 0 53 -14l-6 -21q-23 18 -41 18q-20 0 -33.5 -14t-13.5 -35q0 -22 13 -34.5t35 -12.5h17q34 0 47 -8v-34q-14 9 -48 9h-88q-28 0 -41 9v33q15 -9 44 -9q-13 17 -13 41q0 32 21 52t54 20zM901 445h64q-10 -17 -13.5 -36.5t-3.5 -59.5v-190q0 -50 35 -75
q27 -19 67 -19h46v-65h-37q-100 0 -143 58q-45 -58 -145 -58h-115q-12 -137 -119 -208q-80 -54 -184 -54q-131 0 -217 80t-88 216q0 55 19 103q19 47 55 80l45 -24q-43 -21 -64 -59q-21 -40 -21 -97q0 -99 76 -165q79 -71 193 -71q104 0 173 61q62 55 68 138h-109
q-70 0 -94 18v64q17 -10 36.5 -13.5t59.5 -3.5h295q47 0 75 25t28 69v192q0 70 18 94zM788 -134q18 0 30.5 -12.5t12.5 -30.5t-12.5 -30.5t-30.5 -12.5t-30.5 12.5t-12.5 30.5t12.5 30.5t30.5 12.5zM916 -134q18 0 30.5 -12.5t12.5 -30.5t-12.5 -30.5t-30.5 -12.5
t-30.5 12.5t-12.5 30.5t12.5 30.5t30.5 12.5zM851 -236q18 0 30.5 -12.5t12.5 -30.5t-12.5 -30.5t-30.5 -12.5t-30.5 12.5t-12.5 30.5t12.5 30.5t30.5 12.5z" />
    <glyph glyph-name="uniE051" unicode="&#xfef3;&#xfe8a;" horiz-adv-x="1029" 
d="M173 338h-88q-28 0 -41 9v33q15 -9 44 -9q-13 17 -13 41q0 32 21 52t54 20q30 0 53 -14l-6 -21q-23 18 -41 18q-20 0 -33.5 -14t-13.5 -35q0 -22 13 -34.5t35 -12.5h17q34 0 47 -8v-34q-14 9 -48 9zM931 445h64q-10 -17 -13.5 -36.5t-3.5 -59.5v-176q0 -82 -42 -126
q-45 -47 -134 -47h-146q-12 -137 -119 -208q-80 -54 -184 -54q-131 0 -217 80t-88 216q0 55 19 103q19 47 55 80l45 -24q-43 -21 -64 -59q-21 -40 -21 -97q0 -99 76 -165q79 -71 193 -71q103 0 173 61q62 55 68 138h-109q-70 0 -94 18v64q17 -10 36.5 -13.5t59.5 -3.5h325
q47 0 75 25t28 69v192q0 70 18 94zM788 -134q18 0 30.5 -12.5t12.5 -30.5t-12.5 -30.5t-30.5 -12.5t-30.5 12.5t-12.5 30.5t12.5 30.5t30.5 12.5zM916 -134q18 0 30.5 -12.5t12.5 -30.5t-12.5 -30.5t-30.5 -12.5t-30.5 12.5t-12.5 30.5t12.5 30.5t30.5 12.5z" />
    <glyph glyph-name="uniE052" unicode="&#xfef4;&#xfe8a;" horiz-adv-x="1077" 
d="M150 484q30 0 53 -14l-6 -21q-23 18 -41 18q-20 0 -33.5 -14t-13.5 -35q0 -22 13 -34.5t35 -12.5h17q34 0 47 -8v-34q-14 9 -48 9h-88q-28 0 -41 9v33q15 -9 44 -9q-13 17 -13 41q0 32 21 52t54 20zM901 445h64q-10 -17 -13.5 -36.5t-3.5 -59.5v-190q0 -50 35 -75
q27 -19 67 -19h46v-65h-37q-100 0 -143 58q-45 -58 -145 -58h-115q-12 -137 -119 -208q-80 -54 -184 -54q-131 0 -217 80t-88 216q0 55 19 103q19 47 55 80l45 -24q-43 -21 -64 -59q-21 -40 -21 -97q0 -99 76 -165q79 -71 193 -71q104 0 173 61q62 55 68 138h-109
q-70 0 -94 18v64q17 -10 36.5 -13.5t59.5 -3.5h295q47 0 75 25t28 69v192q0 70 18 94zM788 -134q18 0 30.5 -12.5t12.5 -30.5t-12.5 -30.5t-30.5 -12.5t-30.5 12.5t-12.5 30.5t12.5 30.5t30.5 12.5zM916 -134q18 0 30.5 -12.5t12.5 -30.5t-12.5 -30.5t-30.5 -12.5
t-30.5 12.5t-12.5 30.5t12.5 30.5t30.5 12.5z" />
    <glyph glyph-name="uniE0A2" unicode="Th" horiz-adv-x="992" 
d="M566 114v496q0 31 -11 40t-48 9h-197q2 -14 2 -48v-495q0 -62 26 -116h-70q-26 29 -26 113v495q0 29 -3 50h-117q-54 0 -85 31q-13 13 -17 25h507q58 0 82 -23.5t24 -78.5v-176q29 45 73.5 72t90.5 27q130 0 130 -141v-280q0 -46 4 -70t16 -44h-66q-12 20 -16.5 43
t-4.5 68v264q0 105 -87 105q-49 0 -93 -42q-31 -29 -47 -64v-260q0 -64 27 -114h-67q-27 31 -27 114z" />
    <glyph glyph-name="uniE0A3" unicode="ft" horiz-adv-x="616" 
d="M473 480v-366q0 -73 27 -114h-65q-29 33 -29 111v369h-232v-366q0 -67 27 -114h-72q-22 25 -22 114v366h-28q-42 0 -65 46h93v68q0 70 37 101q33 27 100 27q58 0 113 -29l-26 -52q-38 44 -85 44q-38 0 -55 -20t-17 -65v-74h181q40 0 77 49q12 16 42 69v-118h53
q35 0 53 -12t26 -40q-22 6 -76 6h-57z" />
    <glyph glyph-name="uniE0A4" unicode="fj" horiz-adv-x="528" 
d="M405 -78v558h-231v-366q0 -67 27 -114h-72q-22 25 -22 114v366h-28q-42 0 -65 46h93v68q0 66 64 101q50 27 123 27q32 0 77 -9.5t67 -21.5l-26 -48q-13 15 -50 28.5t-66 13.5q-49 0 -85 -22q-37 -23 -37 -63v-74h299v-580q0 -27 -2 -47q-16 -121 -147 -121q-70 0 -134 44
l25 52q57 -59 108 -59q44 0 63 25t19 82z" />
    <glyph glyph-name="uniE0A5" unicode="tt" horiz-adv-x="609" 
d="M399 480h-229v-371q0 -64 27 -109h-66q-16 27 -22 50t-6 61v369h-73v41q43 0 76 29t64 94v-118h163q52 0 90 48q29 38 43 70v-118h54q36 0 55 -13.5t27 -46.5q-22 14 -89 14h-47v-371q0 -64 27 -109h-66q-16 27 -22 50t-6 61v369z" />
    <glyph glyph-name="ff" unicode="ff" horiz-adv-x="703" 
d="M448 677h3q48 47 149 45q40 0 81 -9.5t66 -23.5l-24 -45q-17 16 -52 28.5t-63 12.5q-54 0 -90 -24q-36 -23 -36 -63v-72h57q32 0 49.5 -12t26.5 -39q-19 5 -58 5h-75v-368q0 -65 25 -112h-71q-21 24 -21 112v368h-241v-368q0 -65 25 -112h-70q-22 24 -22 112v368h-31
q-20 0 -37 12.5t-25 33.5h93v66q0 130 196 130q78 0 145 -45zM415 526v66q0 18 6 40q-44 53 -122 53q-52 0 -88 -24q-37 -23 -37 -63v-72h241z" />
    <glyph glyph-name="fi" unicode="fi" horiz-adv-x="542" 
d="M408 111v369h-234v-366q0 -67 27 -114h-72q-22 25 -22 114v366h-28q-42 0 -65 46h93v68q0 66 64 101q50 27 123 27q32 0 77 -9.5t67 -21.5l-26 -48q-13 15 -50 28.5t-66 13.5q-49 0 -85 -22q-37 -23 -37 -63v-74l301 -1v-411q0 -68 27 -114h-73q-21 24 -21 111z" />
    <glyph glyph-name="fl" unicode="fl" horiz-adv-x="571" 
d="M107 526v68q0 128 195 128q39 0 113 -12q33 -6 66 -9q21 -24 21 -111v-476q0 -64 24 -114h-70q-21 24 -21 114v476q0 53 -48 78q-32 17 -77 17q-57 0 -96 -22q-40 -24 -40 -63v-74h59q32 0 50 -12t26 -39q-19 5 -58 5h-77v-366q0 -64 27 -114h-72q-22 25 -22 114v366h-31
q-41 0 -62 46h93z" />
    <glyph glyph-name="ffi" unicode="ffi" horiz-adv-x="854" 
d="M715 111v369h-234v-368q0 -65 25 -112h-70q-21 24 -21 112v368h-244v-368q0 -66 26 -112h-69q-21 24 -21 112v368h-30q-44 0 -63 46h93v67q0 67 57 100q49 29 138 29q84 0 146 -45h3q50 45 145 45q92 0 151 -33l-24 -45q-19 17 -52 29t-61 12q-55 0 -91 -23
q-38 -23 -38 -63v-73h301v-412q0 -68 27 -114h-73q-21 24 -21 111zM415 526v67q0 21 7 40h-1q-28 28 -56 40t-65 12q-54 0 -92 -24q-37 -24 -37 -62v-73h244z" />
    <glyph glyph-name="ffl" unicode="ffl" horiz-adv-x="879" 
d="M448 677v-1q48 46 162 46q37 0 78 -6q62 -10 85 -13l16 -2q21 -24 21 -111v-476q0 -64 24 -114h-70q-21 24 -21 114v483q0 39 -38 64q-34 24 -87 24q-57 0 -96 -22q-40 -24 -40 -63v-74h59q32 0 50 -12t26 -39q-19 5 -58 5h-77v-366q0 -64 27 -114h-72q-22 25 -22 114
v366h-241v-368q0 -65 25 -112h-70q-22 24 -22 112v368h-31q-20 0 -37 12.5t-25 33.5h93v66q0 130 196 130q78 0 145 -45zM174 598v-72h241v66v7q0 16 5 33q-44 53 -121 53q-52 0 -88 -24q-37 -23 -37 -63z" />
    <glyph glyph-name="uniFC32" unicode="&#xfed3;&#xfe8a;" horiz-adv-x="1124" arabic-form="isolated" 
d="M896 566q-18 0 -30.5 12.5t-12.5 30.5t12.5 30.5t30.5 12.5t30.5 -12.5t12.5 -30.5t-12.5 -30.5t-30.5 -12.5zM899 445h177q-10 -17 -13.5 -36.5t-3.5 -60.5v-176q0 -81 -42 -125q-45 -47 -134 -47h-227q-12 -137 -119 -208q-80 -54 -184 -54q-131 0 -217 80t-88 216
q0 55 19 103q19 47 55 80l45 -25q-44 -20 -64 -58q-21 -40 -21 -97q0 -99 76 -165q79 -71 193 -71q103 0 173 61q62 55 68 138h-109q-70 0 -94 18v64q17 -10 36.5 -13.5t59.5 -3.5h243q-59 61 -59 157q0 112 75 173q62 50 155 50zM994 159v190q0 41 6 65h-87q-95 0 -141 -59
q-38 -49 -38 -129q0 -79 48 -122q42 -39 109 -39q47 0 75 25t28 69zM287 -379q18 0 30.5 -12.5t12.5 -30.5t-12.5 -30.5t-30.5 -12.5t-30.5 12.5t-12.5 30.5t12.5 30.5t30.5 12.5zM416 -379q18 0 30.5 -12.5t12.5 -30.5t-12.5 -30.5t-30.5 -12.5t-30.5 12.5t-12.5 30.5
t12.5 30.5t30.5 12.5z" />
    <glyph glyph-name="uniFC59" unicode="&#xfef3;&#xfef0;" horiz-adv-x="1043" arabic-form="isolated" 
d="M931 445h64q-10 -17 -13.5 -36.5t-3.5 -59.5v-176q0 -82 -42 -126q-45 -47 -134 -47h-146q-12 -137 -119 -208q-80 -54 -184 -54q-131 0 -217 80t-88 216q0 55 19 103q19 47 55 80l45 -24q-43 -21 -64 -59q-21 -40 -21 -97q0 -99 76 -165q79 -71 193 -71q103 0 173 61
q62 55 68 138h-109q-70 0 -94 18v64q17 -10 36.5 -13.5t59.5 -3.5h325q47 0 75 25t28 69v192q0 70 18 94zM788 -134q18 0 30.5 -12.5t12.5 -30.5t-12.5 -30.5t-30.5 -12.5t-30.5 12.5t-12.5 30.5t12.5 30.5t30.5 12.5zM916 -134q18 0 30.5 -12.5t12.5 -30.5t-12.5 -30.5
t-30.5 -12.5t-30.5 12.5t-12.5 30.5t12.5 30.5t30.5 12.5z" />
    <glyph glyph-name="uniFC5A" unicode="&#xfef3;&#xfef2;" horiz-adv-x="1043" arabic-form="isolated" 
d="M931 445h64q-10 -17 -13.5 -36.5t-3.5 -59.5v-176q0 -82 -42 -126q-45 -47 -134 -47h-146q-12 -137 -119 -208q-80 -54 -184 -54q-131 0 -217 80t-88 216q0 55 19 103q19 47 55 80l45 -24q-43 -21 -64 -59q-21 -40 -21 -97q0 -99 76 -165q79 -71 193 -71q103 0 173 61
q62 55 68 138h-109q-70 0 -94 18v64q17 -10 36.5 -13.5t59.5 -3.5h325q47 0 75 25t28 69v192q0 70 18 94zM788 -134q18 0 30.5 -12.5t12.5 -30.5t-12.5 -30.5t-30.5 -12.5t-30.5 12.5t-12.5 30.5t12.5 30.5t30.5 12.5zM916 -134q18 0 30.5 -12.5t12.5 -30.5t-12.5 -30.5
t-30.5 -12.5t-30.5 12.5t-12.5 30.5t12.5 30.5t30.5 12.5zM287 -379q18 0 30.5 -12.5t12.5 -30.5t-12.5 -30.5t-30.5 -12.5t-30.5 12.5t-12.5 30.5t12.5 30.5t30.5 12.5zM416 -379q18 0 30.5 -12.5t12.5 -30.5t-12.5 -30.5t-30.5 -12.5t-30.5 12.5t-12.5 30.5t12.5 30.5
t30.5 12.5z" />
    <glyph glyph-name="uniFC63" unicode="&#x651;&#x670;" arabic-form="isolated" 
d="M149 907h34q-9 -14 -9 -48v-51q0 -36 -8 -48h-34q9 14 9 49v51q0 35 8 47zM279 690h34q-9 -15 -9 -49v-15q0 -35 -25 -59q-23 -22 -59 -22q-41 0 -67 32q-23 -32 -67 -32q-41 0 -65 28q-19 23 -19 53v16q0 35 9 48h33q-9 -15 -9 -49v-14q0 -20 15 -34.5t36 -14.5
t35.5 14.5t14.5 34.5v15q0 35 9 48h33q-8 -15 -8 -49v-14q0 -20 15 -34.5t35 -14.5q21 0 36 14.5t15 34.5v15q0 35 8 48z" />
    <glyph glyph-name="uniFC95" unicode="&#xfef4;&#xfef0;" horiz-adv-x="1077" arabic-form="final" 
d="M901 445h64q-10 -17 -13.5 -36.5t-3.5 -59.5v-190q0 -50 35 -75q27 -19 67 -19h46v-65h-37q-100 0 -143 58q-45 -58 -145 -58h-115q-12 -137 -119 -208q-80 -54 -184 -54q-131 0 -217 80t-88 216q0 55 19 103q19 47 55 80l45 -24q-43 -21 -64 -59q-21 -40 -21 -97
q0 -99 76 -165q79 -71 193 -71q104 0 173 61q62 55 68 138h-109q-70 0 -94 18v64q17 -10 36.5 -13.5t59.5 -3.5h295q47 0 75 25t28 69v192q0 70 18 94zM788 -134q18 0 30.5 -12.5t12.5 -30.5t-12.5 -30.5t-30.5 -12.5t-30.5 12.5t-12.5 30.5t12.5 30.5t30.5 12.5zM916 -134
q18 0 30.5 -12.5t12.5 -30.5t-12.5 -30.5t-30.5 -12.5t-30.5 12.5t-12.5 30.5t12.5 30.5t30.5 12.5z" />
    <glyph glyph-name="uniFC96" unicode="&#xfef4;&#xfef2;" horiz-adv-x="1077" arabic-form="final" 
d="M901 445h64q-10 -17 -13.5 -36.5t-3.5 -59.5v-190q0 -50 35 -75q27 -19 67 -19h46v-65h-37q-100 0 -143 58q-45 -58 -145 -58h-115q-12 -137 -119 -208q-80 -54 -184 -54q-131 0 -217 80t-88 216q0 55 19 103q19 47 55 80l45 -24q-43 -21 -64 -59q-21 -40 -21 -97
q0 -99 76 -165q79 -71 193 -71q104 0 173 61q62 55 68 138h-109q-70 0 -94 18v64q17 -10 36.5 -13.5t59.5 -3.5h295q47 0 75 25t28 69v192q0 70 18 94zM788 -134q18 0 30.5 -12.5t12.5 -30.5t-12.5 -30.5t-30.5 -12.5t-30.5 12.5t-12.5 30.5t12.5 30.5t30.5 12.5zM916 -134
q18 0 30.5 -12.5t12.5 -30.5t-12.5 -30.5t-30.5 -12.5t-30.5 12.5t-12.5 30.5t12.5 30.5t30.5 12.5zM287 -379q18 0 30.5 -12.5t12.5 -30.5t-12.5 -30.5t-30.5 -12.5t-30.5 12.5t-12.5 30.5t12.5 30.5t30.5 12.5zM416 -379q18 0 30.5 -12.5t12.5 -30.5t-12.5 -30.5
t-30.5 -12.5t-30.5 12.5t-12.5 30.5t12.5 30.5t30.5 12.5z" />
    <glyph glyph-name="uniFDF2" unicode="&#x627;&#xfedf;&#xfee0;&#x650;&#xfeea;" horiz-adv-x="1189" arabic-form="isolated" 
d="M778 852v-50q0 -36 -8 -49h-34q9 15 9 50v50q0 35 9 48h33q-9 -15 -9 -49zM689 539q-40 0 -64 28q-19 22 -19 52v16q0 35 8 48h34q-9 -15 -9 -48v-15q0 -20 15 -34t35 -14q21 0 36 14t15 34v15q0 35 9 48h33q-9 -15 -9 -48v-15q0 -20 15 -34t36 -14t35.5 14t14.5 34v15
q0 35 9 48h33q-8 -15 -8 -48v-16q0 -35 -25 -58q-23 -22 -59 -22q-41 0 -67 30q-28 -30 -68 -30zM1077 681h64q-10 -17 -13.5 -36.5t-3.5 -60.5v-411q0 -82 -42 -126q-45 -47 -134 -47h-56q-100 0 -143 58q-44 -58 -144 -58h-56q-98 0 -142 56q-45 -61 -145 -61
q-93 0 -153 65q-61 63 -61 163q0 108 71 173q58 54 142 54q34 0 65.5 -11.5t50.5 -31.5q4 25 14 38h64q-10 -17 -13.5 -36.5t-3.5 -59.5v-190q0 -50 35 -75q27 -19 68 -19h72q48 0 75 25q28 25 28 69v192q0 70 18 94h64q-10 -17 -13.5 -36.5t-3.5 -59.5v-190q0 -50 35 -75
q27 -19 68 -19h72q48 0 75 25q28 25 28 69v427q0 71 18 95zM373 155v168q0 39 -32 68q-30 28 -76 28q-69 0 -113 -58q-39 -52 -39 -130q0 -83 48 -130q42 -41 109 -41q48 0 75 25q28 25 28 70z" />
    <glyph glyph-name="uniFEF5" unicode="&#xfedf;&#xfe82;" horiz-adv-x="504" arabic-form="isolated" 
d="M22 680q-17 -4 -35 -14l-4 7q34 34 56 35q19 1 51 -11q40 -15 70 -15q15 0 43 14l4 -6q-36 -39 -60 -38q-22 1 -60 16q-36 13 -53 13q-6 0 -12 -1zM393 681h64q-10 -17 -13.5 -36.5t-3.5 -59.5v-389q0 -95 -73 -154q-66 -53 -166 -53q-91 0 -153 51l23 52q47 -58 122 -58
q80 0 80 88q0 40 -42 107l-67 99l-66 99q-29 43 -29 79v11l54 34v-11q0 -29 30 -83q79 -140 104 -178q52 -84 52 -159q0 -32 -9 -59q34 17 54.5 52t20.5 76v398q0 70 18 94z" />
    <glyph glyph-name="uniFEF6" unicode="&#xfee0;&#xfe82;" horiz-adv-x="569" arabic-form="final" 
d="M203 696l4 -6q-36 -39 -60 -38q-22 1 -60 16q-36 13 -53 13q-6 0 -12 -1q-17 -4 -35 -14l-4 7q34 34 56 35q19 1 51 -11q40 -15 70 -15q15 0 43 14zM588 65v-65h-37q-112 0 -153 74q-68 -85 -197 -85q-91 0 -153 51l23 52q47 -58 122 -58q80 0 80 88q0 40 -42 107l-67 99
l-66 99q-29 43 -29 79v11l54 34v-11q0 -29 30 -83q79 -139 104 -178q52 -84 52 -159q0 -31 -9 -59q34 17 54.5 52t20.5 76v398q0 70 18 94h64q-10 -17 -13.5 -36.5t-3.5 -59.5v-426q0 -50 35 -75q27 -19 67 -19h46z" />
    <glyph glyph-name="uniFEF7" unicode="&#xfedf;&#xfe84;" horiz-adv-x="504" arabic-form="isolated" 
d="M116 802q30 0 53 -14l-6 -21q-23 18 -41 18q-20 0 -33.5 -14t-13.5 -35q0 -22 13 -34.5t35 -12.5h17q34 0 47 -8v-34q-14 9 -48 9h-88q-28 0 -41 9v33q15 -9 44 -9q-13 17 -13 41q0 32 21 52t54 20zM393 681h64q-10 -17 -13.5 -36.5t-3.5 -59.5v-389q0 -95 -73 -154
q-66 -53 -166 -53q-91 0 -153 51l23 52q47 -58 122 -58q80 0 80 88q0 40 -42 107l-67 99l-66 99q-30 43 -30 79q0 5 1 11l54 34v-10q0 -30 30 -84q79 -140 104 -178q52 -84 52 -159q0 -32 -9 -59q34 17 54.5 52t20.5 76v398q0 70 18 94z" />
    <glyph glyph-name="uniFEF8" unicode="&#xfee0;&#xfe84;" horiz-adv-x="569" arabic-form="final" 
d="M139 656h-88q-28 0 -41 9v33q15 -9 44 -9q-13 17 -13 41q0 32 21 52t54 20q30 0 53 -14l-6 -21q-23 18 -41 18q-20 0 -33.5 -14t-13.5 -35q0 -22 13 -34.5t35 -12.5h17q34 0 47 -8v-34q-14 9 -48 9zM589 65v-65h-37q-112 0 -154 74q-68 -85 -197 -85q-91 0 -153 51l23 52
q47 -58 122 -58q80 0 80 88q0 40 -42 107l-67 99l-66 99q-30 43 -30 79q0 5 1 11l54 34v-10q0 -30 30 -84q79 -139 104 -178q52 -84 52 -159q0 -31 -9 -59q34 17 54.5 52t20.5 76v398q0 70 18 94h64q-10 -17 -13.5 -36.5t-3.5 -59.5v-426q0 -50 35 -75q27 -19 68 -19h46z
" />
    <glyph glyph-name="uniFEF9" unicode="&#xfedf;&#xfe88;" horiz-adv-x="504" arabic-form="isolated" 
d="M393 681h64q-10 -17 -13.5 -36.5t-3.5 -59.5v-389q0 -95 -73 -154q-66 -53 -166 -53q-91 0 -153 51l23 52q47 -58 122 -58q80 0 80 88q0 40 -42 107l-67 99l-66 99q-29 43 -29 79v11l54 34v-10q0 -30 30 -84q79 -140 104 -178q52 -84 52 -159q0 -32 -9 -59q34 17 54.5 52
t20.5 76v398q0 70 18 94zM207 -124q31 0 54 -14l-7 -21q-22 18 -41 18q-20 0 -33.5 -14t-13.5 -35q0 -22 13 -34.5t36 -12.5h16q35 0 48 -8v-34q-15 9 -49 9h-87q-29 0 -41 9v33q14 -9 43 -9q-13 17 -13 41q0 32 21 52t54 20z" />
    <glyph glyph-name="uniFEFA" unicode="&#xfee0;&#xfe88;" horiz-adv-x="569" arabic-form="final" 
d="M588 65v-65h-37q-112 0 -153 74q-68 -85 -197 -85q-91 0 -153 51l23 52q47 -58 122 -58q80 0 80 88q0 40 -42 107l-67 99l-66 99q-29 43 -29 79v11l54 34v-10q0 -30 30 -84q79 -139 104 -178q52 -84 52 -159q0 -31 -9 -59q34 17 54.5 52t20.5 76v398q0 70 18 94h64
q-10 -17 -13.5 -36.5t-3.5 -59.5v-426q0 -50 35 -75q27 -19 67 -19h46zM215 -237h16q35 0 48 -8v-34q-15 9 -49 9h-87q-29 0 -41 9v33q14 -9 43 -9q-13 17 -13 41q0 32 21 52t54 20q31 0 54 -14l-7 -21q-22 18 -41 18q-20 0 -33.5 -14t-13.5 -35q0 -22 13 -34.5t36 -12.5z
" />
    <glyph glyph-name="uniFEFB" unicode="&#xfedf;&#xfe8e;" horiz-adv-x="504" arabic-form="isolated" 
d="M393 681h64q-10 -17 -13.5 -36.5t-3.5 -59.5v-389q0 -95 -73 -154q-66 -53 -166 -53q-91 0 -153 51l23 52q47 -58 122 -58q80 0 80 88q0 40 -42 107l-67 99l-66 99q-29 43 -29 79v11l54 34v-10q0 -30 30 -84q79 -140 104 -178q52 -84 52 -159q0 -32 -9 -59q34 17 54.5 52
t20.5 76v398q0 70 18 94z" />
    <glyph glyph-name="uniFEFC" unicode="&#xfee0;&#xfe8e;" horiz-adv-x="569" arabic-form="final" 
d="M588 65v-65h-37q-112 0 -153 74q-68 -85 -197 -85q-91 0 -153 51l23 52q47 -58 122 -58q80 0 80 88q0 40 -42 107l-67 99l-66 99q-29 43 -29 79v11l54 34v-10q0 -30 30 -84q79 -139 104 -178q52 -84 52 -159q0 -31 -9 -59q34 17 54.5 52t20.5 76v398q0 70 18 94h64
q-10 -17 -13.5 -36.5t-3.5 -59.5v-426q0 -50 35 -75q27 -19 67 -19h46z" />
    <glyph glyph-name="uniFB51" unicode="&#x671;" horiz-adv-x="266" arabic-form="final" 
d="M159 798q-22 1 -59 15q-35 13 -52 13q-7 0 -13 -1q-17 -4 -35 -13l-4 7q34 34 56 35h4q11 0 41 -9q4 -1 7 -1q6 0 10 6q11 14 13 17q26 36 56 35q19 -1 30 -13.5t11 -32.5v-5q-2 -22 -20 -37.5t-41 -15.5h-4zM137 832l4 -1h10q16 0 26.5 9t10.5 22q0 12 -11 12
q-6 0 -21 -18zM89 681h64q-10 -17 -13.5 -36.5t-3.5 -59.5v-426q0 -50 35 -75q27 -19 68 -19h46v-65h-37q-101 0 -145 60q-32 43 -32 113v414q0 70 18 94z" />
    <glyph glyph-name="uniFB53" unicode="&#x67b;" horiz-adv-x="1091" arabic-form="final" 
d="M1111 65v-64h-37q-101 0 -144 57q-44 -58 -145 -58h-441q-131 0 -214 72q-82 71 -82 190q0 111 71 183l46 -25q-41 -20 -63 -59q-20 -37 -20 -81q0 -12 1 -23q15 -106 109 -156q66 -35 150 -36h452q47 0 75 25q28 24 28 69v191q0 71 18 95h64q-10 -17 -13.5 -36.5
t-3.5 -59.5v-177v-1v-11q0 -51 35 -76q27 -19 68 -19h46zM535 -220q-18 0 -30.5 12.5t-12.5 30.5t12.5 30.5t30.5 12.5t30.5 -12.5t12.5 -30.5t-12.5 -30.5t-30.5 -12.5zM537 -263q18 0 30.5 -12.5t12.5 -30.5t-12.5 -30.5t-30.5 -12.5t-30.5 12.5t-12.5 30.5t12.5 30.5
t30.5 12.5z" />
    <glyph glyph-name="uniFB54" unicode="&#x67b;" horiz-adv-x="278" arabic-form="initial" 
d="M167 445h64q-10 -17 -13.5 -36.5t-3.5 -59.5v-176q0 -82 -42 -126q-45 -47 -135 -47h-37v65h46q47 0 75 25t28 69v192q0 70 18 94zM151 -134q18 0 30.5 -12.5t12.5 -30.5t-12.5 -30.5t-30.5 -12.5t-30.5 12.5t-12.5 30.5t12.5 30.5t30.5 12.5zM151 -263q18 0 30.5 -12.5
t12.5 -30.5t-12.5 -30.5t-30.5 -12.5t-30.5 12.5t-12.5 30.5t12.5 30.5t30.5 12.5z" />
    <glyph glyph-name="uniFB55" unicode="&#x67b;" horiz-adv-x="343" arabic-form="medial" 
d="M362 65v-65h-37q-100 0 -144 58q-44 -58 -144 -58h-37v65h46q47 0 75 25t28 69v192q0 70 18 94h64q-10 -17 -13.5 -36.5t-3.5 -59.5v-176v-7v-7q0 -50 35 -75q27 -19 67 -19h46zM181 -134q18 0 30.5 -12.5t12.5 -30.5t-12.5 -30.5t-30.5 -12.5t-30.5 12.5t-12.5 30.5
t12.5 30.5t30.5 12.5zM181 -263q18 0 30.5 -12.5t12.5 -30.5t-12.5 -30.5t-30.5 -12.5t-30.5 12.5t-12.5 30.5t12.5 30.5t30.5 12.5z" />
    <glyph glyph-name="uniFB57" unicode="&#x67e;" horiz-adv-x="1091" arabic-form="final" 
d="M1111 65v-64h-37q-101 0 -144 57q-44 -58 -145 -58h-441q-131 0 -214 72q-82 71 -82 190q0 111 71 183l46 -25q-41 -20 -63 -59q-20 -37 -20 -81q0 -12 1 -23q15 -106 109 -156q66 -35 150 -36h452q47 0 75 25q28 24 28 69v191q0 71 18 95h64q-10 -17 -13.5 -36.5
t-3.5 -59.5v-177v-1v-11q0 -51 35 -76q27 -19 68 -19h46zM515 -177q0 -18 -12.5 -30.5t-30.5 -12.5t-30.5 12.5t-12.5 30.5t12.5 30.5t30.5 12.5t30.5 -12.5t12.5 -30.5zM601 -134q18 0 30.5 -12.5t12.5 -30.5t-12.5 -30.5t-30.5 -12.5t-30.5 12.5t-12.5 30.5t12.5 30.5
t30.5 12.5zM536 -236q18 0 30.5 -12.5t12.5 -30.5t-12.5 -30.5t-30.5 -12.5t-30.5 12.5t-12.5 30.5t12.5 30.5t30.5 12.5z" />
    <glyph glyph-name="uniFB58" unicode="&#x67e;" horiz-adv-x="278" arabic-form="initial" 
d="M167 445h64q-10 -17 -13.5 -36.5t-3.5 -59.5v-176q0 -82 -42 -126q-45 -47 -135 -47h-37v65h46q47 0 75 25t28 69v192q0 70 18 94zM23 -134q18 0 30.5 -12.5t12.5 -30.5t-12.5 -30.5t-30.5 -12.5t-30.5 12.5t-12.5 30.5t12.5 30.5t30.5 12.5zM152 -134q18 0 30.5 -12.5
t12.5 -30.5t-12.5 -30.5t-30.5 -12.5t-30.5 12.5t-12.5 30.5t12.5 30.5t30.5 12.5zM87 -236q18 0 30.5 -12.5t12.5 -30.5t-12.5 -30.5t-30.5 -12.5t-30.5 12.5t-12.5 30.5t12.5 30.5t30.5 12.5z" />
    <glyph glyph-name="uniFB59" unicode="&#x67e;" horiz-adv-x="343" arabic-form="medial" 
d="M362 65v-65h-37q-100 0 -144 58q-44 -58 -144 -58h-37v65h46q47 0 75 25t28 69v192q0 70 18 94h64q-10 -17 -13.5 -36.5t-3.5 -59.5v-176v-7v-7q0 -50 35 -75q27 -19 67 -19h46zM96 -177q0 -18 -12.5 -30.5t-30.5 -12.5t-30.5 12.5t-12.5 30.5t12.5 30.5t30.5 12.5
t30.5 -12.5t12.5 -30.5zM182 -134q18 0 30.5 -12.5t12.5 -30.5t-12.5 -30.5t-30.5 -12.5t-30.5 12.5t-12.5 30.5t12.5 30.5t30.5 12.5zM117 -236q18 0 30.5 -12.5t12.5 -30.5t-12.5 -30.5t-30.5 -12.5t-30.5 12.5t-12.5 30.5t12.5 30.5t30.5 12.5z" />
    <glyph glyph-name="uniFB5A" unicode="&#x680;" horiz-adv-x="1027" arabic-form="isolated" 
d="M915 445h64q-10 -17 -13.5 -36.5t-3.5 -59.5v-176q0 -82 -42 -126q-45 -47 -135 -47h-441q-131 0 -214 72q-82 71 -82 190q0 112 71 183l46 -25q-41 -20 -63 -59q-20 -36 -20 -81q0 -12 1 -23q15 -106 109 -156q66 -35 150 -36h452q47 0 75 25t28 69v192q0 70 18 94z
M472 -134q18 0 30.5 -12.5t12.5 -30.5t-12.5 -30.5t-30.5 -12.5t-30.5 12.5t-12.5 30.5t12.5 30.5t30.5 12.5zM601 -134q18 0 30.5 -12.5t12.5 -30.5t-12.5 -30.5t-30.5 -12.5t-30.5 12.5t-12.5 30.5t12.5 30.5t30.5 12.5zM472 -263q18 0 30.5 -12.5t12.5 -30.5t-12.5 -30.5
t-30.5 -12.5t-30.5 12.5t-12.5 30.5t12.5 30.5t30.5 12.5zM601 -263q18 0 30.5 -12.5t12.5 -30.5t-12.5 -30.5t-30.5 -12.5t-30.5 12.5t-12.5 30.5t12.5 30.5t30.5 12.5z" />
    <glyph glyph-name="uniFB5B" unicode="&#x680;" horiz-adv-x="1091" arabic-form="final" 
d="M1111 65v-64h-37q-101 0 -144 57q-44 -58 -145 -58h-441q-131 0 -214 72q-82 71 -82 190q0 111 71 183l46 -25q-41 -20 -63 -59q-20 -37 -20 -81q0 -12 1 -23q15 -106 109 -156q66 -35 150 -36h452q47 0 75 25q28 24 28 69v191q0 71 18 95h64q-10 -17 -13.5 -36.5
t-3.5 -59.5v-177v-1v-11q0 -51 35 -76q27 -19 68 -19h46zM472 -134q18 0 30.5 -12.5t12.5 -30.5t-12.5 -30.5t-30.5 -12.5t-30.5 12.5t-12.5 30.5t12.5 30.5t30.5 12.5zM601 -134q18 0 30.5 -12.5t12.5 -30.5t-12.5 -30.5t-30.5 -12.5t-30.5 12.5t-12.5 30.5t12.5 30.5
t30.5 12.5zM472 -263q18 0 30.5 -12.5t12.5 -30.5t-12.5 -30.5t-30.5 -12.5t-30.5 12.5t-12.5 30.5t12.5 30.5t30.5 12.5zM601 -263q18 0 30.5 -12.5t12.5 -30.5t-12.5 -30.5t-30.5 -12.5t-30.5 12.5t-12.5 30.5t12.5 30.5t30.5 12.5z" />
    <glyph glyph-name="uniFB5C" unicode="&#x680;" horiz-adv-x="278" arabic-form="initial" 
d="M167 445h64q-10 -17 -13.5 -36.5t-3.5 -59.5v-176q0 -82 -42 -126q-45 -47 -135 -47h-37v65h46q47 0 75 25t28 69v192q0 70 18 94zM23 -134q18 0 30.5 -12.5t12.5 -30.5t-12.5 -30.5t-30.5 -12.5t-30.5 12.5t-12.5 30.5t12.5 30.5t30.5 12.5zM152 -134q18 0 30.5 -12.5
t12.5 -30.5t-12.5 -30.5t-30.5 -12.5t-30.5 12.5t-12.5 30.5t12.5 30.5t30.5 12.5zM23 -263q18 0 30.5 -12.5t12.5 -30.5t-12.5 -30.5t-30.5 -12.5t-30.5 12.5t-12.5 30.5t12.5 30.5t30.5 12.5zM152 -263q18 0 30.5 -12.5t12.5 -30.5t-12.5 -30.5t-30.5 -12.5t-30.5 12.5
t-12.5 30.5t12.5 30.5t30.5 12.5z" />
    <glyph glyph-name="uniFB5D" unicode="&#x680;" horiz-adv-x="343" arabic-form="medial" 
d="M362 65v-65h-37q-100 0 -144 58q-44 -58 -144 -58h-37v65h46q47 0 75 25t28 69v192q0 70 18 94h64q-10 -17 -13.5 -36.5t-3.5 -59.5v-176v-7v-7q0 -50 35 -75q27 -19 67 -19h46zM53 -134q18 0 30.5 -12.5t12.5 -30.5t-12.5 -30.5t-30.5 -12.5t-30.5 12.5t-12.5 30.5
t12.5 30.5t30.5 12.5zM182 -134q18 0 30.5 -12.5t12.5 -30.5t-12.5 -30.5t-30.5 -12.5t-30.5 12.5t-12.5 30.5t12.5 30.5t30.5 12.5zM53 -263q18 0 30.5 -12.5t12.5 -30.5t-12.5 -30.5t-30.5 -12.5t-30.5 12.5t-12.5 30.5t12.5 30.5t30.5 12.5zM182 -263q18 0 30.5 -12.5
t12.5 -30.5t-12.5 -30.5t-30.5 -12.5t-30.5 12.5t-12.5 30.5t12.5 30.5t30.5 12.5z" />
    <glyph glyph-name="uniFB5F" unicode="&#x67a;" horiz-adv-x="1091" arabic-form="final" 
d="M528 531q-18 0 -30.5 12.5t-12.5 30.5t12.5 30.5t30.5 12.5t30.5 -12.5t12.5 -30.5t-12.5 -30.5t-30.5 -12.5zM529 402q-18 0 -30.5 12.5t-13.5 30.5q0 18 12.5 30.5t30.5 12.5q19 0 31.5 -12.5t11.5 -30.5q0 -18 -12.5 -30.5t-29.5 -12.5zM1111 65v-64h-37
q-101 0 -144 57q-44 -58 -145 -58h-441q-131 0 -214 72q-82 71 -82 190q0 111 71 183l46 -25q-41 -20 -63 -59q-20 -37 -20 -81q0 -12 1 -23q15 -106 109 -156q66 -35 150 -36h452q47 0 75 25q28 24 28 69v191q0 71 18 95h64q-10 -17 -13.5 -36.5t-3.5 -59.5v-177v-1v-11
q0 -51 35 -76q27 -19 68 -19h46z" />
    <glyph glyph-name="uniFB60" unicode="&#x67a;" horiz-adv-x="278" arabic-form="initial" 
d="M191 781q18 0 30.5 -12.5t12.5 -30.5t-12.5 -30.5t-30.5 -12.5t-30.5 12.5t-12.5 30.5t12.5 30.5t30.5 12.5zM191 652q18 0 30.5 -12.5t12.5 -30.5t-12.5 -30.5t-30.5 -12.5t-30.5 12.5t-12.5 30.5t12.5 30.5t30.5 12.5zM167 445h64q-10 -17 -13.5 -36.5t-3.5 -59.5v-176
q0 -82 -42 -126q-45 -47 -135 -47h-37v65h46q47 0 75 25t28 69v192q0 70 18 94z" />
    <glyph glyph-name="uniFB61" unicode="&#x67a;" horiz-adv-x="343" arabic-form="medial" 
d="M194 695q-18 0 -30.5 12.5t-12.5 30.5t12.5 30.5t30.5 12.5t30.5 -12.5t12.5 -30.5t-12.5 -30.5t-30.5 -12.5zM194 648q17 0 28.5 -11t11.5 -28t-11.5 -28t-28.5 -11t-28.5 11t-11.5 28t11.5 28t28.5 11zM362 65v-65h-37q-100 0 -144 58q-44 -58 -144 -58h-37v65h46
q47 0 75 25t28 69v192q0 70 18 94h64q-10 -17 -13.5 -36.5t-3.5 -59.5v-176v-7v-7q0 -50 35 -75q27 -19 67 -19h46z" />
    <glyph glyph-name="uniFB62" unicode="&#x67f;" horiz-adv-x="1027" arabic-form="isolated" 
d="M465 617q18 0 30.5 -12.5t12.5 -30.5t-12.5 -30.5t-30.5 -12.5t-30.5 12.5t-12.5 30.5t12.5 30.5t30.5 12.5zM593 617q18 0 30.5 -12.5t12.5 -30.5t-12.5 -30.5t-30.5 -12.5t-30.5 12.5t-12.5 30.5t12.5 30.5t30.5 12.5zM465 488q18 0 30.5 -12.5t12.5 -30.5t-12.5 -30.5
t-30.5 -12.5t-30.5 12.5t-12.5 30.5t12.5 30.5t30.5 12.5zM593 488q18 0 30.5 -12.5t12.5 -30.5t-12.5 -30.5t-30.5 -12.5t-30.5 12.5t-12.5 30.5t12.5 30.5t30.5 12.5zM915 445h64q-10 -17 -13.5 -36.5t-3.5 -59.5v-176q0 -82 -42 -126q-45 -47 -135 -47h-441
q-131 0 -214 72q-82 71 -82 190q0 112 71 183l46 -25q-41 -20 -63 -59q-20 -36 -20 -81q0 -12 1 -23q15 -106 109 -156q66 -35 150 -36h452q47 0 75 25t28 69v192q0 70 18 94z" />
    <glyph glyph-name="uniFB63" unicode="&#x67f;" horiz-adv-x="1091" arabic-form="final" 
d="M465 531q-18 0 -30.5 12.5t-12.5 30.5t12.5 30.5t30.5 12.5t30.5 -12.5t12.5 -30.5t-12.5 -30.5t-30.5 -12.5zM593 531q-18 0 -30.5 12.5t-12.5 30.5t12.5 30.5t30.5 12.5t30.5 -12.5t12.5 -30.5t-12.5 -30.5t-30.5 -12.5zM465 402q-18 0 -30.5 12.5t-12.5 30.5
t12.5 30.5t30.5 12.5t30.5 -12.5t12.5 -30.5t-12.5 -30.5t-30.5 -12.5zM593 402q-18 0 -30.5 12.5t-12.5 30.5t12.5 30.5t30.5 12.5t30.5 -12.5t12.5 -30.5t-12.5 -30.5t-30.5 -12.5zM1111 65v-64h-37q-101 0 -144 57q-44 -58 -145 -58h-441q-131 0 -214 72q-82 71 -82 190
q0 111 71 183l46 -25q-41 -20 -63 -59q-20 -37 -20 -81q0 -12 1 -23q15 -106 109 -156q66 -35 150 -36h452q47 0 75 25q28 24 28 69v191q0 71 18 95h64q-10 -17 -13.5 -36.5t-3.5 -59.5v-177v-1v-11q0 -51 35 -76q27 -19 68 -19h46z" />
    <glyph glyph-name="uniFB64" unicode="&#x67f;" horiz-adv-x="278" arabic-form="initial" 
d="M62 781q18 0 30.5 -12.5t12.5 -30.5t-12.5 -30.5t-30.5 -12.5t-30.5 12.5t-12.5 30.5t12.5 30.5t30.5 12.5zM191 781q18 0 30.5 -12.5t12.5 -30.5t-12.5 -30.5t-30.5 -12.5t-30.5 12.5t-12.5 30.5t12.5 30.5t30.5 12.5zM62 652q18 0 30.5 -12.5t12.5 -30.5t-12.5 -30.5
t-30.5 -12.5t-30.5 12.5t-12.5 30.5t12.5 30.5t30.5 12.5zM191 652q18 0 30.5 -12.5t12.5 -30.5t-12.5 -30.5t-30.5 -12.5t-30.5 12.5t-12.5 30.5t12.5 30.5t30.5 12.5zM167 445h64q-10 -17 -13.5 -36.5t-3.5 -59.5v-176q0 -82 -42 -126q-45 -47 -135 -47h-37v65h46
q47 0 75 25t28 69v192q0 70 18 94z" />
    <glyph glyph-name="uniFB65" unicode="&#x67f;" horiz-adv-x="343" arabic-form="medial" 
d="M65 695q-18 0 -30.5 12.5t-12.5 30.5t12.5 30.5t30.5 12.5t30.5 -12.5t12.5 -30.5t-12.5 -30.5t-30.5 -12.5zM194 695q-18 0 -30.5 12.5t-12.5 30.5t12.5 30.5t30.5 12.5t30.5 -12.5t12.5 -30.5t-12.5 -30.5t-30.5 -12.5zM65 566q-18 0 -30.5 12.5t-12.5 30.5t12.5 30.5
t30.5 12.5t30.5 -12.5t12.5 -30.5t-12.5 -30.5t-30.5 -12.5zM194 566q-18 0 -30.5 12.5t-12.5 30.5t12.5 30.5t30.5 12.5t30.5 -12.5t12.5 -30.5t-12.5 -30.5t-30.5 -12.5zM362 65v-65h-37q-100 0 -144 58q-44 -58 -144 -58h-37v65h46q47 0 75 25t28 69v192q0 70 18 94h64
q-10 -17 -13.5 -36.5t-3.5 -59.5v-176v-7v-7q0 -50 35 -75q27 -19 67 -19h46z" />
    <glyph glyph-name="uniFB67" unicode="&#x679;" horiz-adv-x="1091" arabic-form="final" 
d="M597 375h-143q-34 0 -49 -9v33q13 9 48 9v140q0 35 8 48h34q-9 -15 -9 -49v-74q33 54 91 54q37 0 63 -23q25 -24 25 -61q0 -31 -18.5 -49.5t-49.5 -18.5zM576 510q-36 0 -64 -36q-22 -30 -27 -66h109q16 0 26 10.5t10 27.5q0 29 -15 46.5t-39 17.5zM1111 65v-64h-37
q-101 0 -144 57q-44 -58 -145 -58h-441q-131 0 -214 72q-82 71 -82 190q0 111 71 183l46 -25q-41 -20 -63 -59q-20 -37 -20 -81q0 -12 1 -23q15 -106 109 -156q66 -35 150 -36h452q47 0 75 25q28 24 28 69v191q0 71 18 95h64q-10 -17 -13.5 -36.5t-3.5 -59.5v-177v-1v-11
q0 -51 35 -76q27 -19 68 -19h46z" />
    <glyph glyph-name="uniFB68" unicode="&#x679;" horiz-adv-x="278" arabic-form="initial" 
d="M44 791h33q-8 -15 -8 -49v-74q32 54 91 54q37 0 62 -23q26 -24 26 -61q0 -31 -18.5 -49.5t-50.5 -18.5h-142q-34 0 -49 -9v33q13 9 48 9v140q0 35 8 48zM158 705q-35 0 -63 -36q-22 -30 -27 -66h108q17 0 27 10.5t10 27.5q0 29 -15 46.5t-40 17.5zM167 445h64
q-10 -17 -13.5 -36.5t-3.5 -59.5v-176q0 -82 -43 -126q-45 -47 -134 -47h-37v65h46q47 0 75 25t28 69v192q0 70 18 94z" />
    <glyph glyph-name="uniFB69" unicode="&#x679;" horiz-adv-x="343" arabic-form="medial" 
d="M187 570h-142q-34 0 -49 -9v33q13 9 48 9v140q0 35 8 48h33q-8 -15 -8 -49v-74q32 54 91 54q37 0 62 -23q26 -24 26 -61q0 -31 -18.5 -49.5t-50.5 -18.5zM166 705q-35 0 -63 -36q-22 -30 -27 -66h108q17 0 27 10.5t10 27.5q0 29 -15 46.5t-40 17.5zM363 65v-65h-38
q-100 0 -144 58q-44 -58 -143 -58h-37v65h45q47 0 75 25t28 69v192q0 70 18 94h64q-10 -17 -13.5 -36.5t-3.5 -59.5v-176v-7v-7q0 -50 35 -75q27 -19 68 -19h46z" />
    <glyph glyph-name="uniFB6B" unicode="&#x6a4;" horiz-adv-x="1090" arabic-form="final" 
d="M787 672q-18 0 -30.5 12.5t-12.5 30.5t12.5 30.5t30.5 12.5t30.5 -12.5t12.5 -30.5t-12.5 -30.5t-30.5 -12.5zM723 570q-18 0 -30.5 12.5t-12.5 30.5t12.5 30.5t30.5 12.5t30.5 -12.5t12.5 -30.5t-12.5 -30.5t-30.5 -12.5zM809 613q0 18 12.5 30.5t30.5 12.5t30.5 -12.5
t12.5 -30.5t-12.5 -30.5t-30.5 -12.5t-30.5 12.5t-12.5 30.5zM1110 65v-65h-187l-54 -1q-52 0 -82 19q-29 -18 -86 -18h-50h-306q-132 0 -215 72q-82 71 -82 190q0 112 72 183l45 -24q-41 -20 -62 -60q-21 -36 -21 -81q0 -11 1 -22q15 -106 109 -157q66 -35 151 -36h330
q-35 22 -58.5 68t-23.5 93q0 87 40 145q55 79 156 79q97 0 152 -75q43 -60 43 -149q0 -50 -26 -98q-22 -42 -56 -63h210zM787 71q75 20 109 83q21 38 21 88q0 64 -29 112q-38 65 -101 65q-66 0 -105 -70q-26 -47 -26 -107q0 -51 21 -88q34 -63 110 -83z" />
    <glyph glyph-name="uniFB6C" unicode="&#x6a4;" horiz-adv-x="582" arabic-form="initial" 
d="M351 754q18 0 30.5 -12.5t12.5 -30.5t-12.5 -30.5t-30.5 -12.5t-30.5 12.5t-12.5 30.5t12.5 30.5t30.5 12.5zM287 652q18 0 30.5 -12.5t12.5 -30.5t-12.5 -30.5t-30.5 -12.5t-30.5 12.5t-12.5 30.5t12.5 30.5t30.5 12.5zM416 652q18 0 30.5 -12.5t12.5 -30.5t-12.5 -30.5
t-30.5 -12.5t-30.5 12.5t-12.5 30.5t12.5 30.5t30.5 12.5zM358 445h177q-10 -17 -13.5 -36.5t-3.5 -60.5v-176q0 -81 -42 -125q-45 -47 -135 -47h-341v65h187q-59 57 -59 157q0 112 75 173q62 50 155 50zM459 414h-87q-95 0 -141 -59q-38 -49 -38 -129q0 -79 48 -122
q42 -39 109 -39q48 0 75 25q28 25 28 69v190q0 41 6 65z" />
    <glyph glyph-name="uniFB6D" unicode="&#x6a4;" horiz-adv-x="627" arabic-form="medial" 
d="M323 668q-18 0 -30.5 12.5t-12.5 30.5t12.5 30.5t30.5 12.5t30.5 -12.5t12.5 -30.5t-12.5 -30.5t-30.5 -12.5zM259 566q-18 0 -30.5 12.5t-12.5 30.5t12.5 30.5t30.5 12.5t30.5 -12.5t12.5 -30.5t-12.5 -30.5t-30.5 -12.5zM345 609q0 18 12.5 30.5t30.5 12.5t30.5 -12.5
t12.5 -30.5t-12.5 -30.5t-30.5 -12.5t-30.5 12.5t-12.5 30.5zM646 65v-65h-187l-54 -1q-52 0 -82 19q-29 -18 -86 -18h-50h-187v65h210q-35 22 -58.5 68t-23.5 93q0 87 40 145q55 79 155 79q98 0 152 -75q43 -60 43 -149q0 -50 -26 -98q-22 -42 -56 -63h210zM323 71
q75 20 109 83q21 38 21 88q0 64 -28 112q-39 65 -102 65q-65 0 -104 -70q-26 -47 -26 -107q0 -50 21 -88q34 -63 109 -83z" />
    <glyph glyph-name="uniFB6E" unicode="&#x6a6;" horiz-adv-x="1045" arabic-form="isolated" 
d="M751 781q18 0 30.5 -12.5t12.5 -30.5t-12.5 -30.5t-30.5 -12.5t-30.5 12.5t-12.5 30.5t12.5 30.5t30.5 12.5zM879 781q18 0 30.5 -12.5t12.5 -30.5t-12.5 -30.5t-30.5 -12.5t-30.5 12.5t-12.5 30.5t12.5 30.5t30.5 12.5zM751 652q18 0 30.5 -12.5t12.5 -30.5t-12.5 -30.5
t-30.5 -12.5t-30.5 12.5t-12.5 30.5t12.5 30.5t30.5 12.5zM879 652q18 0 30.5 -12.5t12.5 -30.5t-12.5 -30.5t-30.5 -12.5t-30.5 12.5t-12.5 30.5t12.5 30.5t30.5 12.5zM820 445h177q-10 -17 -13.5 -36.5t-3.5 -60.5v-176q0 -81 -42 -125q-45 -47 -135 -47h-459
q-132 0 -214 72q-82 71 -82 190q0 112 71 183l46 -25q-41 -20 -63 -59q-20 -37 -20 -81q0 -12 1 -23q15 -106 109 -156q65 -35 150 -36h470q47 0 75 25t28 69v190q0 41 6 65h-87q-95 0 -141 -59q-38 -49 -38 -129q0 -59 19 -85l-58 -20q-26 27 -26 101q0 112 75 173
q62 50 155 50z" />
    <glyph glyph-name="uniFB6F" unicode="&#x6a6;" horiz-adv-x="1090" arabic-form="final" 
d="M723 695q-18 0 -30.5 12.5t-12.5 30.5t12.5 30.5t30.5 12.5t30.5 -12.5t12.5 -30.5t-12.5 -30.5t-30.5 -12.5zM852 695q-18 0 -30.5 12.5t-12.5 30.5t12.5 30.5t30.5 12.5t30.5 -12.5t12.5 -30.5t-12.5 -30.5t-30.5 -12.5zM723 566q-18 0 -30.5 12.5t-12.5 30.5
t12.5 30.5t30.5 12.5t30.5 -12.5t12.5 -30.5t-12.5 -30.5t-30.5 -12.5zM852 566q-18 0 -30.5 12.5t-12.5 30.5t12.5 30.5t30.5 12.5t30.5 -12.5t12.5 -30.5t-12.5 -30.5t-30.5 -12.5zM1110 65v-65h-187l-54 -1q-52 0 -82 19q-29 -18 -86 -18h-50h-306q-132 0 -215 72
q-82 71 -82 190q0 112 72 183l45 -24q-41 -20 -62 -60q-21 -36 -21 -81q0 -11 1 -22q15 -106 109 -157q66 -35 151 -36h330q-35 22 -58.5 68t-23.5 93q0 87 40 145q55 79 156 79q97 0 152 -75q43 -60 43 -149q0 -50 -26 -98q-22 -42 -56 -63h210zM787 71q75 20 109 83
q21 38 21 88q0 64 -29 112q-38 65 -101 65q-66 0 -105 -70q-26 -47 -26 -107q0 -51 21 -88q34 -63 110 -83z" />
    <glyph glyph-name="uniFB70" unicode="&#x6a6;" horiz-adv-x="582" arabic-form="initial" 
d="M288 781q18 0 30.5 -12.5t12.5 -30.5t-12.5 -30.5t-30.5 -12.5t-30.5 12.5t-12.5 30.5t12.5 30.5t30.5 12.5zM417 781q18 0 30.5 -12.5t12.5 -30.5t-12.5 -30.5t-30.5 -12.5t-30.5 12.5t-12.5 30.5t12.5 30.5t30.5 12.5zM288 652q18 0 30.5 -12.5t12.5 -30.5t-12.5 -30.5
t-30.5 -12.5t-30.5 12.5t-12.5 30.5t12.5 30.5t30.5 12.5zM417 652q18 0 30.5 -12.5t12.5 -30.5t-12.5 -30.5t-30.5 -12.5t-30.5 12.5t-12.5 30.5t12.5 30.5t30.5 12.5zM358 445h177q-10 -17 -13.5 -36.5t-3.5 -60.5v-176q0 -81 -42 -125q-45 -47 -135 -47h-341v65h350
q47 0 75 25t28 69v190q0 41 6 65h-87q-95 0 -141 -59q-38 -49 -38 -129q0 -59 19 -85l-58 -20q-26 27 -26 101q0 112 75 173q62 50 155 50z" />
    <glyph glyph-name="uniFB71" unicode="&#x6a6;" horiz-adv-x="627" arabic-form="medial" 
d="M259 695q-18 0 -30.5 12.5t-12.5 30.5t12.5 30.5t30.5 12.5t30.5 -12.5t12.5 -30.5t-12.5 -30.5t-30.5 -12.5zM388 695q-18 0 -30.5 12.5t-12.5 30.5t12.5 30.5t30.5 12.5t30.5 -12.5t12.5 -30.5t-12.5 -30.5t-30.5 -12.5zM259 566q-18 0 -30.5 12.5t-12.5 30.5
t12.5 30.5t30.5 12.5t30.5 -12.5t12.5 -30.5t-12.5 -30.5t-30.5 -12.5zM388 566q-18 0 -30.5 12.5t-12.5 30.5t12.5 30.5t30.5 12.5t30.5 -12.5t12.5 -30.5t-12.5 -30.5t-30.5 -12.5zM646 65v-65h-187l-54 -1q-52 0 -82 19q-29 -18 -86 -18h-50h-187v65h210q-35 22 -58.5 68
t-23.5 93q0 87 40 145q55 79 155 79q98 0 152 -75q43 -60 43 -149q0 -50 -26 -98q-22 -42 -56 -63h210zM323 71q75 20 109 83q21 38 21 88q0 64 -28 112q-39 65 -102 65q-65 0 -104 -70q-26 -47 -26 -107q0 -50 21 -88q34 -63 109 -83z" />
    <glyph glyph-name="uniFB72" unicode="&#x684;" horiz-adv-x="741" arabic-form="isolated" 
d="M289 450q137 0 210 -82q54 -60 71 -161q20 -104 57 -142q52 0 77 -18v-64q-17 10 -36.5 13.5t-59.5 3.5h-298q-78 0 -134 -40q-64 -45 -64 -128q0 -89 74 -149q65 -52 152 -52q125 0 200 81l20 -47q-47 -32 -109 -51q-48 -14 -112 -14q-133 0 -216 74q-71 64 -72 157
q-1 123 100 188q72 46 160 46h247q-17 24 -28 54t-24 88q-23 107 -71 158q-52 54 -141 54q-42 0 -85 -20q-62 -29 -93 -78l-20 48q38 37 91.5 59t103.5 22zM346 -80q16 0 27.5 -11t11.5 -27t-11.5 -27.5t-27.5 -11.5t-27 11.5t-11 27.5t11 27t27 11zM346 -200
q16 0 27.5 -11.5t11.5 -27.5t-11.5 -27t-27.5 -11t-27 11t-11 27t11 27.5t27 11.5z" />
    <glyph glyph-name="uniFB73" unicode="&#x684;" horiz-adv-x="673" arabic-form="final" 
d="M289 450q137 0 210 -82q54 -60 70 -161q17 -100 50 -128q16 -14 42 -14h32v-65h-32q-34 0 -48.5 4t-34.5 19q-21 -15 -36 -19t-46 -4h-39h-147q-78 0 -134 -40q-64 -45 -64 -128q0 -89 74 -149q65 -52 152 -52q124 0 200 81l20 -47q-47 -32 -109 -51q-49 -14 -112 -14
q-133 0 -216 74q-71 64 -72 157q-1 123 100 188q72 46 160 46h247q-18 24 -29.5 54.5t-23.5 87.5q-22 107 -70 158q-52 54 -141 54q-42 0 -85 -20q-62 -29 -94 -78l-20 48q38 37 91.5 59t104.5 22zM346 -80q16 0 27.5 -11t11.5 -27t-11.5 -27.5t-27.5 -11.5t-27 11.5
t-11 27.5t11 27t27 11zM346 -200q16 0 27.5 -11.5t11.5 -27.5t-11.5 -27t-27.5 -11t-27 11t-11 27t11 27.5t27 11.5z" />
    <glyph glyph-name="uniFB74" unicode="&#x684;" horiz-adv-x="762" arabic-form="initial" 
d="M0 65h575q-17 24 -28 54t-24 88q-23 107 -71 158q-52 54 -141 54q-42 0 -85 -20q-61 -29 -93 -78l-20 48q38 37 91.5 59t103.5 22q138 0 211 -82q53 -60 70 -161q20 -104 57 -142h-17q70 0 94 -18v-64q-17 10 -36.5 13.5t-59.5 3.5h-626zM337 -134q18 0 30.5 -12.5
t12.5 -30.5t-12.5 -30.5t-30.5 -12.5t-30.5 12.5t-12.5 30.5t12.5 30.5t30.5 12.5zM337 -263q18 0 30.5 -12.5t12.5 -30.5t-12.5 -30.5t-30.5 -12.5t-30.5 12.5t-12.5 30.5t12.5 30.5t30.5 12.5z" />
    <glyph glyph-name="uniFB75" unicode="&#x684;" horiz-adv-x="694" arabic-form="medial" 
d="M0 65h576q-18 24 -29.5 54.5t-23.5 87.5q-22 107 -70 158q-52 54 -141 54q-42 0 -85 -20q-62 -29 -94 -78l-20 48q38 37 91.5 59t104.5 22q137 0 210 -82q54 -60 70 -161q17 -100 50 -128q16 -14 42 -14h32v-65h-32q-34 0 -48.5 4t-34.5 19q-21 -15 -36 -19t-46 -4h-39
h-476zM337 -134q18 0 30.5 -12.5t12.5 -30.5t-12.5 -30.5t-30.5 -12.5t-30.5 12.5t-12.5 30.5t12.5 30.5t30.5 12.5zM337 -263q18 0 30.5 -12.5t12.5 -30.5t-12.5 -30.5t-30.5 -12.5t-30.5 12.5t-12.5 30.5t12.5 30.5t30.5 12.5z" />
    <glyph glyph-name="uniFB77" unicode="&#x683;" horiz-adv-x="673" arabic-form="final" 
d="M289 450q137 0 210 -82q54 -60 70 -161q17 -100 50 -128q16 -14 42 -14h32v-65h-32q-34 0 -48.5 4t-34.5 19q-21 -15 -36 -19t-46 -4h-39h-147q-78 0 -134 -40q-64 -45 -64 -128q0 -89 74 -149q65 -52 152 -52q124 0 200 81l20 -47q-47 -32 -109 -51q-49 -14 -112 -14
q-133 0 -216 74q-71 64 -72 157q-1 123 100 188q72 46 160 46h247q-18 24 -29.5 54.5t-23.5 87.5q-22 107 -70 158q-52 54 -141 54q-42 0 -85 -20q-62 -29 -94 -78l-20 48q38 37 91.5 59t104.5 22zM292 -134q18 0 30.5 -12.5t12.5 -30.5t-12.5 -30.5t-30.5 -12.5t-30.5 12.5
t-12.5 30.5t12.5 30.5t30.5 12.5zM421 -134q18 0 30.5 -12.5t12.5 -30.5t-12.5 -30.5t-30.5 -12.5t-30.5 12.5t-12.5 30.5t12.5 30.5t30.5 12.5z" />
    <glyph glyph-name="uniFB78" unicode="&#x683;" horiz-adv-x="762" arabic-form="initial" 
d="M0 65h575q-17 24 -28 54t-24 88q-23 107 -71 158q-52 54 -141 54q-42 0 -85 -20q-61 -29 -93 -78l-20 48q38 37 91.5 59t103.5 22q138 0 211 -82q53 -60 70 -161q20 -104 57 -142h-17q70 0 94 -18v-64q-17 10 -36.5 13.5t-59.5 3.5h-626zM274 -134q18 0 30.5 -12.5
t12.5 -30.5t-12.5 -30.5t-30.5 -12.5t-30.5 12.5t-12.5 30.5t12.5 30.5t30.5 12.5zM402 -134q18 0 30.5 -12.5t12.5 -30.5t-12.5 -30.5t-30.5 -12.5t-30.5 12.5t-12.5 30.5t12.5 30.5t30.5 12.5z" />
    <glyph glyph-name="uniFB79" unicode="&#x683;" horiz-adv-x="694" arabic-form="medial" 
d="M0 65h576q-18 24 -29.5 54.5t-23.5 87.5q-22 107 -70 158q-52 54 -141 54q-42 0 -85 -20q-62 -29 -94 -78l-20 48q38 37 91.5 59t104.5 22q137 0 210 -82q54 -60 70 -161q17 -100 50 -128q16 -14 42 -14h32v-65h-32q-34 0 -48.5 4t-34.5 19q-21 -15 -36 -19t-46 -4h-39
h-476zM274 -134q18 0 30.5 -12.5t12.5 -30.5t-12.5 -30.5t-30.5 -12.5t-30.5 12.5t-12.5 30.5t12.5 30.5t30.5 12.5zM402 -134q18 0 30.5 -12.5t12.5 -30.5t-12.5 -30.5t-30.5 -12.5t-30.5 12.5t-12.5 30.5t12.5 30.5t30.5 12.5z" />
    <glyph glyph-name="uniFB7B" unicode="&#x686;" horiz-adv-x="673" arabic-form="final" 
d="M287 450q137 0 210 -82q54 -60 70 -161q17 -100 50 -128q16 -14 42 -14h32v-65h-32q-34 0 -48.5 4t-34.5 19q-21 -15 -36 -19t-46 -4h-39h-147q-78 0 -134 -40q-64 -45 -64 -128q0 -89 74 -149q65 -52 152 -52q124 0 200 81l20 -47q-47 -32 -109 -51q-49 -14 -112 -14
q-133 0 -216 74q-71 64 -72 157q-1 123 100 188q72 46 160 46h247q-18 24 -29.5 54.5t-23.5 87.5q-22 107 -70 158q-52 54 -141 54q-42 0 -85 -20q-62 -29 -94 -78l-20 48q38 37 91.5 59t104.5 22zM293 -100q16 0 27.5 -11.5t11.5 -27.5t-11.5 -27t-27.5 -11t-27 11t-11 27
t11 27.5t27 11.5zM414 -100q16 0 27 -11.5t11 -27.5t-11 -27t-27 -11t-27.5 11t-11.5 27t11 27.5t28 11.5zM353 -193q16 0 27.5 -11.5t11.5 -27.5t-11.5 -27t-27.5 -11t-27.5 11t-11.5 27t11.5 27.5t27.5 11.5z" />
    <glyph glyph-name="uniFB7C" unicode="&#x686;" horiz-adv-x="762" arabic-form="initial" 
d="M0 65h575q-17 24 -28 54t-24 88q-23 107 -71 158q-52 54 -141 54q-42 0 -85 -20q-61 -29 -93 -78l-20 48q38 37 91.5 59t103.5 22q138 0 211 -82q53 -60 70 -161q20 -104 57 -142h-17q70 0 94 -18v-64q-17 10 -36.5 13.5t-59.5 3.5h-626zM277 -134q18 0 30.5 -12.5
t12.5 -30.5t-12.5 -30.5t-30.5 -12.5t-30.5 12.5t-12.5 30.5t12.5 30.5t30.5 12.5zM405 -134q18 0 30.5 -12.5t12.5 -30.5t-12.5 -30.5t-30.5 -12.5t-30.5 12.5t-12.5 30.5t12.5 30.5t30.5 12.5zM340 -236q18 0 30.5 -12.5t12.5 -30.5t-12.5 -30.5t-30.5 -12.5t-30.5 12.5
t-12.5 30.5t12.5 30.5t30.5 12.5z" />
    <glyph glyph-name="uniFB7D" unicode="&#x686;" horiz-adv-x="694" arabic-form="medial" 
d="M0 65h576q-18 24 -29.5 54.5t-23.5 87.5q-22 107 -70 158q-52 54 -141 54q-42 0 -85 -20q-62 -29 -94 -78l-20 48q38 37 91.5 59t104.5 22q137 0 210 -82q54 -60 70 -161q17 -100 50 -128q16 -14 42 -14h32v-65h-32q-34 0 -48.5 4t-34.5 19q-21 -15 -36 -19t-46 -4h-39
h-476zM277 -134q18 0 30.5 -12.5t12.5 -30.5t-12.5 -30.5t-30.5 -12.5t-30.5 12.5t-12.5 30.5t12.5 30.5t30.5 12.5zM405 -134q18 0 30.5 -12.5t12.5 -30.5t-12.5 -30.5t-30.5 -12.5t-30.5 12.5t-12.5 30.5t12.5 30.5t30.5 12.5zM340 -236q18 0 30.5 -12.5t12.5 -30.5
t-12.5 -30.5t-30.5 -12.5t-30.5 12.5t-12.5 30.5t12.5 30.5t30.5 12.5z" />
    <glyph glyph-name="uniFB7F" unicode="&#x687;" horiz-adv-x="673" arabic-form="final" 
d="M289 450q137 0 210 -82q54 -60 70 -161q17 -100 50 -128q16 -14 42 -14h32v-65h-32q-34 0 -48.5 4t-34.5 19q-21 -15 -36 -19t-46 -4h-39h-147q-78 0 -134 -40q-64 -45 -64 -128q0 -89 74 -149q65 -52 152 -52q124 0 200 81l20 -47q-47 -32 -109 -51q-49 -14 -112 -14
q-133 0 -216 74q-71 64 -72 157q-1 123 100 188q72 46 160 46h247q-18 24 -29.5 54.5t-23.5 87.5q-22 107 -70 158q-52 54 -141 54q-42 0 -85 -20q-62 -29 -94 -78l-20 48q38 37 91.5 59t104.5 22zM423 -75q16 0 27.5 -11.5t11.5 -27.5t-11.5 -28t-27.5 -12q-17 0 -28.5 12
t-11.5 28t12 27.5t28 11.5zM304 -94q16 0 27.5 -11.5t11.5 -27.5t-11.5 -27.5t-27.5 -11.5t-27.5 11.5t-11.5 27.5t11.5 27.5t27.5 11.5zM423 -194q16 0 27.5 -11.5t11.5 -27.5t-11.5 -27.5t-27.5 -11.5q-17 0 -28.5 11.5t-11.5 27.5t11.5 27.5t28.5 11.5zM304 -211
q16 0 27.5 -11.5t11.5 -27.5t-11.5 -27.5t-27.5 -11.5t-27.5 11.5t-11.5 27.5t11.5 27.5t27.5 11.5z" />
    <glyph glyph-name="uniFB80" unicode="&#x687;" horiz-adv-x="762" arabic-form="initial" 
d="M0 65h575q-17 24 -28 54t-24 88q-23 107 -71 158q-52 54 -141 54q-42 0 -85 -20q-61 -29 -93 -78l-20 48q38 37 91.5 59t103.5 22q138 0 211 -82q53 -60 70 -161q20 -104 57 -142h-17q70 0 94 -18v-64q-17 10 -36.5 13.5t-59.5 3.5h-626zM274 -134q18 0 30.5 -12.5
t12.5 -30.5t-12.5 -30.5t-30.5 -12.5t-30.5 12.5t-12.5 30.5t12.5 30.5t30.5 12.5zM402 -134q18 0 30.5 -12.5t12.5 -30.5t-12.5 -30.5t-30.5 -12.5t-30.5 12.5t-12.5 30.5t12.5 30.5t30.5 12.5zM274 -263q18 0 30.5 -12.5t12.5 -30.5t-12.5 -30.5t-30.5 -12.5t-30.5 12.5
t-12.5 30.5t12.5 30.5t30.5 12.5zM402 -263q18 0 30.5 -12.5t12.5 -30.5t-12.5 -30.5t-30.5 -12.5t-30.5 12.5t-12.5 30.5t12.5 30.5t30.5 12.5z" />
    <glyph glyph-name="uniFB81" unicode="&#x687;" horiz-adv-x="694" arabic-form="medial" 
d="M0 65h576q-18 24 -29.5 54.5t-23.5 87.5q-22 107 -70 158q-52 54 -141 54q-42 0 -85 -20q-62 -29 -94 -78l-20 48q38 37 91.5 59t104.5 22q137 0 210 -82q54 -60 70 -161q17 -100 50 -128q16 -14 42 -14h32v-65h-32q-34 0 -48.5 4t-34.5 19q-21 -15 -36 -19t-46 -4h-39
h-476zM274 -134q18 0 30.5 -12.5t12.5 -30.5t-12.5 -30.5t-30.5 -12.5t-30.5 12.5t-12.5 30.5t12.5 30.5t30.5 12.5zM402 -134q18 0 30.5 -12.5t12.5 -30.5t-12.5 -30.5t-30.5 -12.5t-30.5 12.5t-12.5 30.5t12.5 30.5t30.5 12.5zM274 -263q18 0 30.5 -12.5t12.5 -30.5
t-12.5 -30.5t-30.5 -12.5t-30.5 12.5t-12.5 30.5t12.5 30.5t30.5 12.5zM402 -263q18 0 30.5 -12.5t12.5 -30.5t-12.5 -30.5t-30.5 -12.5t-30.5 12.5t-12.5 30.5t12.5 30.5t30.5 12.5z" />
    <glyph glyph-name="uniFB85" unicode="&#x68c;" horiz-adv-x="636" arabic-form="final" 
d="M156 566q-18 0 -30.5 12.5t-12.5 30.5t12.5 30.5t30.5 12.5t30.5 -12.5t12.5 -30.5t-12.5 -30.5t-30.5 -12.5zM285 566q-18 0 -30.5 12.5t-12.5 30.5t12.5 30.5t30.5 12.5t30.5 -12.5t12.5 -30.5t-12.5 -30.5t-30.5 -12.5zM655 65v-65h-17q-107 0 -151 68
q-49 -68 -151 -68h-202q-40 0 -59.5 -3.5t-36.5 -13.5v64q24 18 94 18h199q69 0 104 47q26 35 26 87q0 111 -64 171q-51 48 -125 49q-84 2 -141 -59l-21 48q76 42 159 42q126 0 199 -86q58 -69 58 -163v-4v-38q0 -50 35 -75q27 -19 68 -19h26z" />
    <glyph glyph-name="uniFB87" unicode="&#x68e;" horiz-adv-x="636" arabic-form="final" 
d="M220 668q-18 0 -30.5 12.5t-12.5 30.5t12.5 30.5t30.5 12.5t30.5 -12.5t12.5 -30.5t-12.5 -30.5t-30.5 -12.5zM156 566q-18 0 -30.5 12.5t-12.5 30.5t12.5 30.5t30.5 12.5t30.5 -12.5t12.5 -30.5t-12.5 -30.5t-30.5 -12.5zM242 609q0 18 12.5 30.5t30.5 12.5t30.5 -12.5
t12.5 -30.5t-12.5 -30.5t-30.5 -12.5t-30.5 12.5t-12.5 30.5zM655 65v-65h-17q-107 0 -151 68q-49 -68 -151 -68h-202q-40 0 -59.5 -3.5t-36.5 -13.5v64q24 18 94 18h199q69 0 104 47q26 35 26 87q0 111 -64 171q-51 48 -125 49q-84 2 -141 -59l-21 48q76 42 159 42
q126 0 199 -86q58 -69 58 -163v-4v-38q0 -50 35 -75q27 -19 68 -19h26z" />
    <glyph glyph-name="uniFB89" unicode="&#x688;" horiz-adv-x="636" arabic-form="final" 
d="M302 570h-143q-34 0 -49 -9v33q13 9 48 9v140q0 35 8 48h34q-9 -15 -9 -49v-74q33 54 91 54q37 0 63 -23q25 -24 25 -61q0 -31 -18.5 -49.5t-49.5 -18.5zM281 705q-36 0 -64 -36q-22 -30 -27 -66h109q16 0 26 10.5t10 27.5q0 29 -15 46.5t-39 17.5zM655 65v-65h-17
q-107 0 -151 68q-49 -68 -151 -68h-202q-40 0 -59.5 -3.5t-36.5 -13.5v64q24 18 94 18h199q69 0 104 47q26 35 26 87q0 111 -64 171q-51 48 -125 49q-84 2 -141 -59l-21 48q76 42 159 42q126 0 199 -86q58 -69 58 -163v-4v-38q0 -50 35 -75q27 -19 68 -19h26z" />
    <glyph glyph-name="uniFB8B" unicode="&#x698;" horiz-adv-x="417" arabic-form="final" 
d="M200 668q-18 0 -30.5 12.5t-12.5 30.5t12.5 30.5t30.5 12.5t30.5 -12.5t12.5 -30.5t-12.5 -30.5t-30.5 -12.5zM136 566q-18 0 -30.5 12.5t-12.5 30.5t12.5 30.5t30.5 12.5t30.5 -12.5t12.5 -30.5t-12.5 -30.5t-30.5 -12.5zM222 609q0 18 12.5 30.5t30.5 12.5t30.5 -12.5
t12.5 -30.5t-12.5 -30.5t-30.5 -12.5t-30.5 12.5t-12.5 30.5zM436 65v-65h-37q-69 0 -111 28v-68v-33q0 -51 -16 -88q-43 -101 -173 -101q-78 0 -146 43l21 47q50 -59 123 -59q61 0 100 54q26 37 26 136v392q0 70 18 94h64q-10 -17 -13.5 -36.5t-3.5 -59.5v-190
q0 -50 35 -75q27 -19 67 -19h46z" />
    <glyph glyph-name="uniFB8D" unicode="&#x691;" horiz-adv-x="417" arabic-form="final" 
d="M244 567h-142q-34 0 -49 -9v34q13 8 48 8v140q0 34 8 47h33q-8 -14 -8 -48v-74q32 54 91 54q37 0 62 -23q26 -23 26 -61q0 -31 -18.5 -49.5t-50.5 -18.5zM223 702q-35 0 -63 -36q-22 -30 -27 -66h108q17 0 27 10.5t10 27.5q0 29 -15 46.5t-40 17.5zM436 65v-65h-37
q-69 0 -111 28v-68v-33q0 -51 -16 -88q-43 -101 -173 -101q-78 0 -146 43l21 47q50 -59 123 -59q61 0 100 54q26 37 26 136v392q0 70 18 94h64q-10 -17 -13.5 -36.5t-3.5 -59.5v-190q0 -50 35 -75q27 -19 67 -19h46z" />
    <glyph glyph-name="uniFB8F" unicode="&#x6a9;" horiz-adv-x="1067" arabic-form="final" 
d="M1086 65v-65h-17q-107 0 -151 68q-49 -68 -151 -68h-423q-131 0 -214 72q-82 71 -82 190q0 112 71 183l46 -24q-41 -20 -63 -60q-20 -36 -20 -81q0 -11 1 -22q15 -106 109 -157q66 -35 150 -36h420q69 0 104 47q26 35 26 86q0 112 -64 173q-51 48 -125 48h-13
q-28 0 -61 -8q-29 -9 -31 -9q-29 -10 -59.5 -33.5t-47.5 -48.5l-20 47l188 249q40 56 69 65l52 -38q-29 -11 -73 -67l-105 -136q45 10 99 10q125 0 198 -86q58 -69 58 -163v-4v-38q0 -50 35 -75q27 -19 68 -19h26z" />
    <glyph glyph-name="uniFB90" unicode="&#x6a9;" horiz-adv-x="647" arabic-form="initial" 
d="M343 450q126 0 199 -86q58 -69 58 -163q0 -92 -50 -147q-50 -54 -140 -54h-409l-1 65h404q70 0 105 47q26 35 26 86q0 112 -64 173q-51 48 -125 48h-12q-21 0 -43 -4q-29 -6 -51 -13q-29 -10 -59.5 -33.5t-47.5 -48.5l-20 47l188 249q41 56 70 65l51 -38q-29 -11 -72 -67
l-105 -136q45 10 98 10z" />
    <glyph glyph-name="uniFB91" unicode="&#x6a9;" horiz-adv-x="709" arabic-form="medial" 
d="M728 65v-65h-18q-107 0 -151 68q-48 -68 -150 -68h-409l-1 65h404q70 0 105 47q26 35 26 86q0 112 -65 173q-51 48 -124 48h-13q-20 0 -42 -4q-29 -6 -51 -13q-29 -10 -59.5 -33.5t-47.5 -48.5l-20 47l188 249q41 56 70 65l51 -38q-29 -11 -72 -67l-105 -136q45 10 98 10
q126 0 199 -86q58 -69 58 -163v-4v-38q0 -50 35 -75q27 -19 68 -19h26z" />
    <glyph glyph-name="uniFB93" unicode="&#x6af;" horiz-adv-x="1067" arabic-form="final" 
d="M411 507l-16 35l159 211q22 28 34 33l28 -20q-16 -7 -36 -34zM1086 65v-65h-17q-107 0 -151 68q-49 -68 -151 -68h-423q-131 0 -214 72q-82 71 -82 190q0 112 71 183l46 -24q-41 -20 -63 -60q-20 -36 -20 -81q0 -11 1 -22q15 -106 109 -157q66 -35 150 -36h420
q69 0 104 47q26 35 26 86q0 112 -64 173q-51 48 -125 48h-13q-28 0 -61 -8q-29 -9 -31 -9q-29 -10 -59.5 -33.5t-47.5 -48.5l-20 47l188 249q40 56 69 65l52 -38q-29 -11 -73 -67l-105 -136q45 10 99 10q125 0 198 -86q58 -69 58 -163v-4v-38q0 -50 35 -75q27 -19 68 -19h26
z" />
    <glyph glyph-name="uniFB94" unicode="&#x6af;" horiz-adv-x="647" arabic-form="initial" 
d="M52 507l-16 35l159 211q22 28 35 33l27 -20q-16 -7 -36 -34zM343 450q126 0 199 -86q58 -69 58 -163q0 -92 -50 -147q-50 -54 -140 -54h-409l-1 65h404q70 0 105 47q26 35 26 86q0 112 -64 173q-51 48 -125 48h-12q-21 0 -43 -4q-29 -6 -51 -13q-29 -10 -59.5 -33.5
t-47.5 -48.5l-20 47l188 249q41 56 70 65l51 -38q-29 -11 -72 -67l-105 -136q45 10 98 10z" />
    <glyph glyph-name="uniFB95" unicode="&#x6af;" horiz-adv-x="709" arabic-form="medial" 
d="M54 507l-16 35l159 211q22 28 34 33l28 -20q-17 -7 -36 -34zM728 65v-65h-18q-107 0 -151 68q-48 -68 -150 -68h-409l-1 65h404q70 0 105 47q26 35 26 86q0 112 -65 173q-51 48 -124 48h-13q-20 0 -42 -4q-29 -6 -51 -13q-29 -10 -59.5 -33.5t-47.5 -48.5l-20 47l188 249
q41 56 70 65l51 -38q-29 -11 -72 -67l-105 -136q45 10 98 10q126 0 199 -86q58 -69 58 -163v-4v-38q0 -50 35 -75q27 -19 68 -19h26z" />
    <glyph glyph-name="uniFB96" unicode="&#x6b3;" horiz-adv-x="1005" arabic-form="isolated" 
d="M411 507l-16 35l159 211q22 28 34 33l28 -20q-16 -7 -36 -34zM701 450q126 0 198 -86q58 -69 58 -163q0 -92 -50 -147q-49 -54 -139 -54h-424q-131 0 -214 72q-82 71 -82 190q0 112 71 183l46 -24q-41 -20 -63 -60q-20 -36 -20 -81q0 -11 1 -22q15 -106 109 -157
q66 -35 151 -36h419q70 0 104 47q26 35 26 86q0 112 -64 173q-51 48 -125 48h-13q-28 0 -61 -8q-29 -9 -31 -9q-29 -10 -59.5 -33.5t-47.5 -48.5l-20 47l188 249q40 56 70 65l51 -38q-29 -11 -72 -67l-105 -136q44 10 98 10zM537 -134q18 0 30.5 -12.5t12.5 -30.5
t-12.5 -30.5t-30.5 -12.5t-30.5 12.5t-12.5 30.5t12.5 30.5t30.5 12.5zM537 -263q18 0 30.5 -12.5t12.5 -30.5t-12.5 -30.5t-30.5 -12.5t-30.5 12.5t-12.5 30.5t12.5 30.5t30.5 12.5z" />
    <glyph glyph-name="uniFB97" unicode="&#x6b3;" horiz-adv-x="1067" arabic-form="final" 
d="M411 507l-16 35l159 211q22 28 34 33l28 -20q-16 -7 -36 -34zM1086 65v-65h-17q-107 0 -151 68q-49 -68 -151 -68h-423q-131 0 -214 72q-82 71 -82 190q0 112 71 183l46 -24q-41 -20 -63 -60q-20 -36 -20 -81q0 -11 1 -22q15 -106 109 -157q66 -35 150 -36h420
q69 0 104 47q26 35 26 86q0 112 -64 173q-51 48 -125 48h-13q-28 0 -61 -8q-29 -9 -31 -9q-29 -10 -59.5 -33.5t-47.5 -48.5l-20 47l188 249q40 56 69 65l52 -38q-29 -11 -73 -67l-105 -136q45 10 99 10q125 0 198 -86q58 -69 58 -163v-4v-38q0 -50 35 -75q27 -19 68 -19h26
zM537 -134q18 0 30.5 -12.5t12.5 -30.5t-12.5 -30.5t-30.5 -12.5t-30.5 12.5t-12.5 30.5t12.5 30.5t30.5 12.5zM537 -263q18 0 30.5 -12.5t12.5 -30.5t-12.5 -30.5t-30.5 -12.5t-30.5 12.5t-12.5 30.5t12.5 30.5t30.5 12.5z" />
    <glyph glyph-name="uniFB98" unicode="&#x6b3;" horiz-adv-x="647" arabic-form="initial" 
d="M52 507l-16 35l159 211q22 28 35 33l27 -20q-16 -7 -36 -34zM343 450q126 0 199 -86q58 -69 58 -163q0 -92 -50 -147q-50 -54 -140 -54h-409l-1 65h404q70 0 105 47q26 35 26 86q0 112 -64 173q-51 48 -125 48h-12q-21 0 -43 -4q-29 -6 -51 -13q-29 -10 -59.5 -33.5
t-47.5 -48.5l-20 47l188 249q41 56 70 65l51 -38q-29 -11 -72 -67l-105 -136q45 10 98 10zM298 -134q18 0 30.5 -12.5t12.5 -30.5t-12.5 -30.5t-30.5 -12.5t-30.5 12.5t-12.5 30.5t12.5 30.5t30.5 12.5zM298 -263q18 0 30.5 -12.5t12.5 -30.5t-12.5 -30.5t-30.5 -12.5
t-30.5 12.5t-12.5 30.5t12.5 30.5t30.5 12.5z" />
    <glyph glyph-name="uniFB99" unicode="&#x6b3;" horiz-adv-x="709" arabic-form="medial" 
d="M54 507l-16 35l159 211q22 28 34 33l28 -20q-17 -7 -36 -34zM728 65v-65h-18q-107 0 -151 68q-48 -68 -150 -68h-409l-1 65h404q70 0 105 47q26 35 26 86q0 112 -65 173q-51 48 -124 48h-13q-20 0 -42 -4q-29 -6 -51 -13q-29 -10 -59.5 -33.5t-47.5 -48.5l-20 47l188 249
q41 56 70 65l51 -38q-29 -11 -72 -67l-105 -136q45 10 98 10q126 0 199 -86q58 -69 58 -163v-4v-38q0 -50 35 -75q27 -19 68 -19h26zM298 -134q17 0 30 -12.5t13 -30.5t-13 -30.5t-30 -12.5q-18 0 -30.5 12.5t-12.5 30.5t12.5 30.5t30.5 12.5zM298 -263q17 0 30 -12.5
t13 -30.5t-13 -30.5t-30 -12.5q-18 0 -30.5 12.5t-12.5 30.5t12.5 30.5t30.5 12.5z" />
    <glyph glyph-name="uniFB9A" unicode="&#x6b1;" horiz-adv-x="1005" arabic-form="isolated" 
d="M439 886q-18 0 -30.5 12.5t-12.5 30.5t12.5 30.5t30.5 12.5t30.5 -12.5t12.5 -30.5t-12.5 -30.5t-30.5 -12.5zM568 886q-18 0 -30.5 12.5t-12.5 30.5t12.5 30.5t30.5 12.5t30.5 -12.5t12.5 -30.5t-12.5 -30.5t-30.5 -12.5zM411 507l-16 35l159 211q22 28 34 33l28 -20
q-16 -7 -36 -34zM701 450q126 0 198 -86q58 -69 58 -163q0 -92 -50 -147q-49 -54 -139 -54h-424q-131 0 -214 72q-82 71 -82 190q0 112 71 183l46 -24q-41 -20 -63 -60q-20 -36 -20 -81q0 -11 1 -22q15 -106 109 -157q66 -35 151 -36h419q70 0 104 47q26 35 26 86
q0 112 -64 173q-51 48 -125 48h-13q-28 0 -61 -8q-29 -9 -31 -9q-29 -10 -59.5 -33.5t-47.5 -48.5l-20 47l188 249q40 56 70 65l51 -38q-29 -11 -72 -67l-105 -136q44 10 98 10z" />
    <glyph glyph-name="uniFB9B" unicode="&#x6b1;" horiz-adv-x="1067" arabic-form="final" 
d="M439 886q-18 0 -30.5 12.5t-12.5 30.5t12.5 30.5t30.5 12.5t30.5 -12.5t12.5 -30.5t-12.5 -30.5t-30.5 -12.5zM568 886q-18 0 -30.5 12.5t-12.5 30.5t12.5 30.5t30.5 12.5t30.5 -12.5t12.5 -30.5t-12.5 -30.5t-30.5 -12.5zM411 507l-16 35l159 211q22 28 34 33l28 -20
q-16 -7 -36 -34zM1086 65v-65h-17q-107 0 -151 68q-49 -68 -151 -68h-423q-131 0 -214 72q-82 71 -82 190q0 112 71 183l46 -24q-41 -20 -63 -60q-20 -36 -20 -81q0 -11 1 -22q15 -106 109 -157q66 -35 150 -36h420q69 0 104 47q26 35 26 86q0 112 -64 173q-51 48 -125 48
h-13q-28 0 -61 -8q-29 -9 -31 -9q-29 -10 -59.5 -33.5t-47.5 -48.5l-20 47l188 249q40 56 69 65l52 -38q-29 -11 -73 -67l-105 -136q45 10 99 10q125 0 198 -86q58 -69 58 -163v-4v-38q0 -50 35 -75q27 -19 68 -19h26z" />
    <glyph glyph-name="uniFB9C" unicode="&#x6b1;" horiz-adv-x="647" arabic-form="initial" 
d="M82 886q-18 0 -30.5 12.5t-12.5 30.5t12.5 30.5t30.5 12.5t30.5 -12.5t12.5 -30.5t-12.5 -30.5t-30.5 -12.5zM211 886q-18 0 -30.5 12.5t-12.5 30.5t12.5 30.5t30.5 12.5t30.5 -12.5t12.5 -30.5t-12.5 -30.5t-30.5 -12.5zM52 507l-16 35l159 211q22 28 35 33l27 -20
q-16 -7 -36 -34zM343 450q126 0 199 -86q58 -69 58 -163q0 -92 -50 -147q-50 -54 -140 -54h-409l-1 65h404q70 0 105 47q26 35 26 86q0 112 -64 173q-51 48 -125 48h-12q-21 0 -43 -4q-29 -6 -51 -13q-29 -10 -59.5 -33.5t-47.5 -48.5l-20 47l188 249q41 56 70 65l51 -38
q-29 -11 -72 -67l-105 -136q45 10 98 10z" />
    <glyph glyph-name="uniFB9D" unicode="&#x6b1;" horiz-adv-x="709" arabic-form="medial" 
d="M82 886q-18 0 -30.5 12.5t-12.5 30.5t12.5 30.5t30.5 12.5q17 0 30 -12.5t13 -30.5t-13 -30.5t-30 -12.5zM211 886q-18 0 -30.5 12.5t-12.5 30.5t12.5 30.5t30.5 12.5q17 0 30 -12.5t13 -30.5t-13 -30.5t-30 -12.5zM54 507l-16 35l159 211q22 28 34 33l28 -20
q-17 -7 -36 -34zM728 65v-65h-18q-107 0 -151 68q-48 -68 -150 -68h-409l-1 65h404q70 0 105 47q26 35 26 86q0 112 -65 173q-51 48 -124 48h-13q-20 0 -42 -4q-29 -6 -51 -13q-29 -10 -59.5 -33.5t-47.5 -48.5l-20 47l188 249q41 56 70 65l51 -38q-29 -11 -72 -67
l-105 -136q45 10 98 10q126 0 199 -86q58 -69 58 -163v-4v-38q0 -50 35 -75q27 -19 68 -19h26z" />
    <glyph glyph-name="uniFB9F" unicode="&#x6ba;" horiz-adv-x="735" arabic-form="final" 
d="M559 445h64q-10 -17 -13.5 -36.5t-3.5 -59.5v-190q0 -50 35 -75q27 -19 67 -19h46v-65h-37q-68 0 -111 28q-2 -112 -60 -188q-79 -102 -218 -102q-135 0 -214 98q-66 81 -66 198q0 55 19 103q20 48 55 80l45 -24q-43 -21 -64 -59q-21 -40 -21 -97q0 -109 87 -179
q70 -57 160 -57q128 0 183 106q29 54 29 141v303q0 70 18 94z" />
    <glyph glyph-name="uniFBA1" unicode="&#x6bb;" horiz-adv-x="735" arabic-form="final" 
d="M248 666h34q-9 -15 -9 -49v-74q33 54 91 54q37 0 63 -23q25 -24 25 -61q0 -31 -18.5 -49.5t-49.5 -18.5h-143q-34 0 -49 -9v33q13 9 48 9v140q0 35 8 48zM363 580q-36 0 -64 -36q-22 -30 -27 -66h109q16 0 26 10.5t10 27.5q0 29 -15 46.5t-39 17.5zM559 445h64
q-10 -17 -13.5 -36.5t-3.5 -59.5v-190q0 -50 35 -75q27 -19 67 -19h46v-65h-37q-68 0 -111 28q-2 -112 -60 -188q-79 -102 -218 -102q-135 0 -214 98q-66 81 -66 198q0 55 19 103q20 48 55 80l45 -24q-43 -21 -64 -59q-21 -40 -21 -97q0 -109 87 -179q70 -57 160 -57
q128 0 183 106q29 54 29 141v303q0 70 18 94z" />
    <glyph glyph-name="uniFBA5" unicode="&#x6c0;" horiz-adv-x="567" arabic-form="final" 
d="M289 570h-88q-28 0 -41 9v33q15 -9 44 -9q-14 17 -14 41q0 32 21 52t55 20q30 0 53 -14l-7 -21q-22 18 -41 18q-20 0 -33.5 -14t-13.5 -35q0 -22 13 -34.5t36 -12.5h17q34 0 47 -8v-34q-15 9 -48 9zM587 65v-65h-37q-95 0 -139 52q-43 -66 -149 -66q-94 0 -155 67
q-59 64 -59 168q0 108 71 174q59 55 142 55q34 0 65.5 -11.5t50.5 -31.5q4 25 14 38h64q-10 -17 -13.5 -36.5t-3.5 -59.5v-190q0 -50 35 -75q27 -19 68 -19h46zM373 145v178q0 39 -32 68q-30 28 -76 28q-69 0 -113 -60q-39 -53 -39 -131q0 -87 48 -135q41 -42 109 -42
q48 0 75 25q28 25 28 69z" />
    <glyph glyph-name="uniFBA7" unicode="&#x6c1;" horiz-adv-x="567" arabic-form="final" 
d="M587 65v-65h-37q-95 0 -139 52q-43 -66 -149 -66q-94 0 -155 67q-59 64 -59 168q0 108 71 174q59 55 142 55q34 0 65.5 -11.5t50.5 -31.5q4 25 14 38h64q-10 -17 -13.5 -36.5t-3.5 -59.5v-190q0 -50 35 -75q27 -19 68 -19h46zM373 145v178q0 39 -32 68q-30 28 -76 28
q-69 0 -113 -60q-39 -53 -39 -131q0 -87 48 -135q41 -42 109 -42q48 0 75 25q28 25 28 69z" />
    <glyph glyph-name="uniFBA8" unicode="&#x6c1;" horiz-adv-x="356" arabic-form="initial" 
d="M244 445h64q-10 -17 -13.5 -36.5t-3.5 -59.5v-176q0 -81 -41 -126q-44 -46 -132 -47q-46 -26 -74.5 -57.5t-28.5 -55.5q0 -15 14 -15l26 5q19 0 30 -12t11 -33q0 -19 -12.5 -32t-31.5 -13q-27 0 -43.5 20t-16.5 53q0 84 87 140h-80v65h124q48 0 75 25q28 25 28 69v192
q0 70 18 94z" />
    <glyph glyph-name="uniFBA9" unicode="&#x6c1;" horiz-adv-x="486" arabic-form="medial" 
d="M505 0h-15q-40 0 -61.5 -20t-37.5 -73q-14 -40 -30 -82q-34 -87 -116 -87q-70 0 -113 53q-50 60 -52 183q0 20 2 43q-25 -17 -82 -17l1 65h36q51 0 86 20q-11 -34 -11 -77q0 -71 19 -118q15 -39 43.5 -63t58.5 -24q39 0 59 34q11 19 38 97q31 78 57 102q34 29 100 29h18
v-65z" />
    <glyph glyph-name="uniFBAB" unicode="&#x6be;" horiz-adv-x="830" arabic-form="final" 
d="M849 65v-65h-17q-108 0 -151 68q-49 -68 -151 -68h-116l-55 -1q-54 0 -85 19q-30 -19 -84 -19l-56 1q-40 0 -59.5 -3.5t-36.5 -13.5v64q24 18 94 18h49q-51 45 -51 117q0 56 36 98q33 40 84 49l-16 38q46 43 111 66q30 10 69 15q35 2 50 2q125 0 198 -86q58 -69 58 -163
v-4v-38q0 -50 35 -75q27 -19 68 -19h26zM372 65h153q70 0 104 47q26 35 26 86q0 112 -64 173q-51 48 -124 48h-13q-19 0 -41 -4q-19 -3 -52 -13q-26 -9 -53.5 -29t-45.5 -43l14 1q70 0 112 -53q34 -43 34 -96q0 -71 -50 -117zM276 71q40 13 64 51q20 32 20 68q0 49 -26 82
q-23 30 -58 30q-40 0 -64 -39q-20 -31 -20 -73q0 -41 26 -76q23 -32 58 -43z" />
    <glyph glyph-name="uniFBAC" unicode="&#x6be;" horiz-adv-x="767" arabic-form="initial" 
d="M463 450q126 0 199 -86q58 -69 58 -163q0 -92 -50 -147q-50 -54 -140 -54h-116l-56 -1q-54 0 -84 19q-31 -19 -185 -19l-89 1v65h180q-50 45 -50 117q0 56 36 98q33 40 84 49l-16 38q45 43 110 66q31 10 70 15q34 2 49 2zM372 65h152q70 0 105 47q26 35 26 86
q0 112 -64 173q-51 48 -125 48h-12q-19 0 -41 -4q-20 -3 -53 -13q-26 -9 -53.5 -29t-45.5 -43l14 1q70 0 112 -53q34 -43 34 -96q0 -71 -49 -117zM275 71q40 13 64 51q20 32 20 68q0 49 -26 82q-23 30 -57 30q-40 0 -64 -39q-20 -31 -20 -73q0 -41 26 -76q23 -32 57 -43z
" />
    <glyph glyph-name="uniFBAD" unicode="&#x6be;" horiz-adv-x="829" arabic-form="medial" 
d="M848 65v-65h-17q-107 0 -150 68q-49 -68 -151 -68h-116l-56 -1q-54 0 -84 19q-31 -19 -185 -19l-89 1v65h180q-50 45 -50 117q0 56 36 98q33 40 84 49l-16 38q45 43 110 66q31 10 70 15q34 2 49 2q126 0 199 -86q58 -69 58 -163v-4v-38q0 -50 35 -75q27 -19 67 -19h26z
M372 65h152q70 0 105 47q26 35 26 86q0 112 -64 173q-51 48 -125 48h-12q-19 0 -41 -4q-20 -3 -53 -13q-26 -9 -53.5 -29t-45.5 -43l15 1q69 0 112 -53q34 -43 34 -96q0 -71 -50 -117zM276 71q40 13 64 51q20 32 20 68q0 49 -26 82q-23 30 -58 30q-40 0 -64 -39
q-20 -31 -20 -73q0 -41 26 -76q23 -32 58 -43z" />
    <glyph glyph-name="uniFBAF" unicode="&#x6d2;" horiz-adv-x="852" arabic-form="final" 
d="M872 0h-570q-84 0 -144 -45q-34 -25 -54 -62.5t-20 -74.5q0 -15 16 -15h561q70 0 94 -18v-64q-17 10 -36.5 13.5t-59.5 3.5l-534 1q-35 0 -55.5 19t-20.5 51q0 125 86 198q69 58 162 58h575v-65z" />
    <glyph glyph-name="uniFBB1" unicode="&#x6d3;" horiz-adv-x="852" arabic-form="final" 
d="M364 336q30 0 54 -14l-7 -21q-22 18 -41 18q-20 0 -33.5 -14t-13.5 -35q0 -22 13 -34.5t36 -12.5h16q35 0 48 -8v-34q-15 9 -49 9h-87q-28 0 -41 9v33q14 -9 44 -9q-14 17 -14 41q0 32 21 52t54 20zM872 0h-570q-84 0 -144 -45q-34 -25 -54 -62.5t-20 -74.5q0 -15 16 -15
h561q70 0 94 -18v-64q-17 10 -36.5 13.5t-59.5 3.5l-534 1q-35 0 -55.5 19t-20.5 51q0 125 86 198q69 58 162 58h575v-65z" />
    <glyph glyph-name="uniFE82" unicode="&#x622;" horiz-adv-x="266" arabic-form="final" 
d="M42 824q-17 -3 -35 -13l-4 7q34 34 56 35q19 1 51 -11q40 -15 70 -15q15 0 43 14l4 -6q-36 -39 -60 -38q-22 1 -60 16q-35 13 -53 13q-6 0 -12 -2zM90 681h64q-10 -17 -13.5 -36.5t-3.5 -59.5v-426q0 -50 35 -75q27 -19 67 -19h46v-65h-37q-101 0 -145 60q-31 43 -31 113
v414q0 70 18 94z" />
    <glyph glyph-name="uniFE84" unicode="&#x623;" horiz-adv-x="266" arabic-form="final" 
d="M125 947q30 0 53 -14l-6 -21q-23 18 -41 18q-20 0 -33.5 -14t-13.5 -35q0 -22 13 -34.5t35 -12.5h17q34 0 47 -8v-34q-14 9 -48 9h-88q-28 0 -41 9v33q15 -9 44 -9q-13 17 -13 41q0 32 21 52t54 20zM89 681h64q-10 -17 -13.5 -36.5t-3.5 -59.5v-426q0 -50 35 -75
q27 -19 68 -19h46v-65h-37q-101 0 -145 60q-32 43 -32 113v414q0 70 18 94z" />
    <glyph glyph-name="uniFE86" unicode="&#x624;" horiz-adv-x="567" arabic-form="final" 
d="M310 570h-88q-28 0 -41 9v33q15 -9 44 -9q-14 17 -14 41q0 32 21 52t55 20q30 0 53 -14l-7 -21q-22 18 -41 18q-20 0 -33.5 -14t-13.5 -35q0 -22 13 -34.5t36 -12.5h17q34 0 47 -8v-34q-15 9 -48 9zM438 0v-40v-34q0 -51 -16 -87q-43 -101 -173 -101q-77 0 -146 43l21 47
q50 -59 123 -59q62 0 100 54q26 37 26 136v41h-95q-107 0 -171 65q-59 60 -59 157q0 112 75 173q62 50 155 50h177q-10 -17 -13.5 -36.5t-3.5 -60.5v-283h149v-65h-149zM373 65v284q0 41 6 65h-87q-95 0 -141 -59q-38 -49 -38 -129q0 -79 48 -122q42 -39 109 -39h103z" />
    <glyph glyph-name="uniFE88" unicode="&#x625;" horiz-adv-x="266" arabic-form="final" 
d="M90 681h64q-10 -17 -13.5 -36.5t-3.5 -59.5v-426q0 -50 35 -75q27 -19 67 -19h46v-65h-37q-101 0 -145 60q-31 43 -31 113v414q0 70 18 94zM108 -124q31 0 54 -14l-7 -21q-22 18 -41 18q-20 0 -33.5 -14t-13.5 -35q0 -22 13 -34.5t36 -12.5h16q35 0 48 -8v-34
q-15 9 -49 9h-87q-28 0 -41 9v33q15 -9 44 -9q-14 17 -14 41q0 32 21 52t54 20z" />
    <glyph glyph-name="uniFE89" unicode="&#x626;" horiz-adv-x="705" arabic-form="isolated" 
d="M123 484q30 0 53 -14l-6 -21q-23 18 -41 18q-20 0 -33.5 -14t-13.5 -35q0 -22 13 -34.5t35 -12.5h17q34 0 47 -8v-34q-14 9 -48 9h-88q-28 0 -41 9v33q15 -9 44 -9q-13 17 -13 41q0 32 21 52t54 20zM497 450q35 0 64 -8q49 -13 80 -34l-21 -48q-49 59 -127 59
q-72 0 -119 -61q-41 -54 -41 -132t48 -122q41 -39 109 -39h168v-31q0 -154 -112 -236q-82 -60 -193 -60q-131 0 -217 80t-88 216q0 55 19 103q19 47 55 81l45 -25q-44 -21 -64 -59q-21 -40 -21 -97q0 -99 76 -165q79 -71 193 -71q103 0 173 61q62 55 68 138h-95
q-106 0 -170 65q-59 60 -59 157q0 113 76 176q62 52 153 52z" />
    <glyph glyph-name="uniFE8A" unicode="&#x626;" horiz-adv-x="637" arabic-form="final" 
d="M173 338h-88q-28 0 -41 9v33q15 -9 44 -9q-13 17 -13 41q0 32 21 52t54 20q30 0 53 -14l-6 -21q-23 18 -41 18q-20 0 -33.5 -14t-13.5 -35q0 -22 13 -34.5t35 -12.5h17q34 0 47 -8v-34q-14 9 -48 9zM661 0h-4q-13 -137 -120 -208q-80 -54 -184 -54q-131 0 -217 80
t-88 216q0 55 19 103q19 47 55 81l45 -25q-44 -21 -64 -59q-21 -40 -21 -97q0 -99 76 -165q79 -71 193 -71q104 0 173 61q62 55 68 138h-108q-71 0 -95 18v64q17 -10 36.5 -13.5t59.5 -3.5h176v-65z" />
    <glyph glyph-name="uniFE8B" unicode="&#x626;" horiz-adv-x="278" arabic-form="initial" 
d="M158 716q30 0 53 -14l-6 -21q-23 18 -41 18q-20 0 -33.5 -14t-13.5 -35q0 -22 13 -34.5t35 -12.5h17q34 0 47 -8v-34q-14 9 -48 9h-88q-28 0 -41 9v33q15 -9 44 -9q-13 17 -13 41q0 32 21 52t54 20zM167 445h64q-10 -17 -13.5 -36.5t-3.5 -59.5v-176q0 -82 -42 -126
q-45 -47 -135 -47h-37v65h46q47 0 75 25t28 69v192q0 70 18 94z" />
    <glyph glyph-name="uniFE8C" unicode="&#x626;" horiz-adv-x="343" arabic-form="medial" 
d="M181 570h-88q-28 0 -41 9v33q15 -9 44 -9q-13 17 -13 41q0 32 21 52t54 20q30 0 53 -14l-6 -21q-23 18 -41 18q-20 0 -33.5 -14t-13.5 -35q0 -22 13 -34.5t35 -12.5h17q34 0 47 -8v-34q-14 9 -48 9zM362 65v-65h-37q-100 0 -144 58q-44 -58 -144 -58h-37v65h46
q47 0 75 25t28 69v192q0 70 18 94h64q-10 -17 -13.5 -36.5t-3.5 -59.5v-176v-7v-7q0 -50 35 -75q27 -19 67 -19h46z" />
    <glyph glyph-name="uniFE8E" unicode="&#x627;" horiz-adv-x="266" arabic-form="final" 
d="M89 681h64q-10 -17 -13.5 -36.5t-3.5 -59.5v-426q0 -50 35 -75q27 -19 68 -19h46v-65h-37q-101 0 -145 60q-32 43 -32 113v414q0 70 18 94z" />
    <glyph glyph-name="uniFE90" unicode="&#x628;" horiz-adv-x="1091" arabic-form="final" 
d="M1111 65v-64h-37q-101 0 -144 57q-44 -58 -145 -58h-441q-131 0 -214 72q-82 71 -82 190q0 111 71 183l46 -25q-41 -20 -63 -59q-20 -37 -20 -81q0 -12 1 -23q15 -106 109 -156q66 -35 150 -36h452q47 0 75 25q28 24 28 69v191q0 71 18 95h64q-10 -17 -13.5 -36.5
t-3.5 -59.5v-177v-1v-11q0 -51 35 -76q27 -19 68 -19h46zM535 -134q18 0 30.5 -12.5t12.5 -30.5t-12.5 -30.5t-30.5 -12.5t-30.5 12.5t-12.5 30.5t12.5 30.5t30.5 12.5z" />
    <glyph glyph-name="uniFE91" unicode="&#x628;" horiz-adv-x="278" arabic-form="initial" 
d="M167 445h64q-10 -17 -13.5 -36.5t-3.5 -59.5v-176q0 -82 -42 -126q-45 -47 -135 -47h-37v65h46q47 0 75 25t28 69v192q0 70 18 94zM151 -134q18 0 30.5 -12.5t12.5 -30.5t-12.5 -30.5t-30.5 -12.5t-30.5 12.5t-12.5 30.5t12.5 30.5t30.5 12.5z" />
    <glyph glyph-name="uniFE92" unicode="&#x628;" horiz-adv-x="343" arabic-form="medial" 
d="M362 65v-65h-37q-100 0 -144 58q-44 -58 -144 -58h-37v65h46q47 0 75 25t28 69v192q0 70 18 94h64q-10 -17 -13.5 -36.5t-3.5 -59.5v-176v-7v-7q0 -50 35 -75q27 -19 67 -19h46zM181 -134q18 0 30.5 -12.5t12.5 -30.5t-12.5 -30.5t-30.5 -12.5t-30.5 12.5t-12.5 30.5
t12.5 30.5t30.5 12.5z" />
    <glyph glyph-name="uniFE94" unicode="&#x629;" horiz-adv-x="567" arabic-form="final" 
d="M201 570q-18 0 -30.5 12.5t-12.5 30.5t12.5 30.5t30.5 12.5t30.5 -12.5t12.5 -30.5t-12.5 -30.5t-30.5 -12.5zM329 570q-18 0 -30.5 12.5t-12.5 30.5t12.5 30.5t30.5 12.5t30.5 -12.5t12.5 -30.5t-12.5 -30.5t-30.5 -12.5zM587 65v-65h-37q-95 0 -139 52
q-43 -66 -149 -66q-94 0 -155 67q-59 64 -59 168q0 108 71 174q59 55 142 55q34 0 65.5 -11.5t50.5 -31.5q4 25 14 38h64q-10 -17 -13.5 -36.5t-3.5 -59.5v-190q0 -50 35 -75q27 -19 68 -19h46zM373 145v178q0 39 -32 68q-30 28 -76 28q-69 0 -113 -60q-39 -53 -39 -131
q0 -87 48 -135q41 -42 109 -42q48 0 75 25q28 25 28 69z" />
    <glyph glyph-name="uniFE96" unicode="&#x62a;" horiz-adv-x="1091" arabic-form="final" 
d="M465 402q-18 0 -30.5 12.5t-12.5 30.5t12.5 30.5t30.5 12.5t30.5 -12.5t12.5 -30.5t-12.5 -30.5t-30.5 -12.5zM593 402q-18 0 -30.5 12.5t-12.5 30.5t12.5 30.5t30.5 12.5t30.5 -12.5t12.5 -30.5t-12.5 -30.5t-30.5 -12.5zM1111 65v-64h-37q-101 0 -144 57
q-44 -58 -145 -58h-441q-131 0 -214 72q-82 71 -82 190q0 111 71 183l46 -25q-41 -20 -63 -59q-20 -37 -20 -81q0 -12 1 -23q15 -106 109 -156q66 -35 150 -36h452q47 0 75 25q28 24 28 69v191q0 71 18 95h64q-10 -17 -13.5 -36.5t-3.5 -59.5v-177v-1v-11q0 -51 35 -76
q27 -19 68 -19h46z" />
    <glyph glyph-name="uniFE97" unicode="&#x62a;" horiz-adv-x="278" arabic-form="initial" 
d="M62 652q18 0 30.5 -12.5t12.5 -30.5t-12.5 -30.5t-30.5 -12.5t-30.5 12.5t-12.5 30.5t12.5 30.5t30.5 12.5zM191 652q18 0 30.5 -12.5t12.5 -30.5t-12.5 -30.5t-30.5 -12.5t-30.5 12.5t-12.5 30.5t12.5 30.5t30.5 12.5zM167 445h64q-10 -17 -13.5 -36.5t-3.5 -59.5v-176
q0 -82 -42 -126q-45 -47 -135 -47h-37v65h46q47 0 75 25t28 69v192q0 70 18 94z" />
    <glyph glyph-name="uniFE98" unicode="&#x62a;" horiz-adv-x="343" arabic-form="medial" 
d="M65 566q-18 0 -30.5 12.5t-12.5 30.5t12.5 30.5t30.5 12.5t30.5 -12.5t12.5 -30.5t-12.5 -30.5t-30.5 -12.5zM194 566q-18 0 -30.5 12.5t-12.5 30.5t12.5 30.5t30.5 12.5t30.5 -12.5t12.5 -30.5t-12.5 -30.5t-30.5 -12.5zM362 65v-65h-37q-100 0 -144 58
q-44 -58 -144 -58h-37v65h46q47 0 75 25t28 69v192q0 70 18 94h64q-10 -17 -13.5 -36.5t-3.5 -59.5v-176v-7v-7q0 -50 35 -75q27 -19 67 -19h46z" />
    <glyph glyph-name="uniFE9A" unicode="&#x62b;" horiz-adv-x="1091" arabic-form="final" 
d="M528 504q-18 0 -30.5 12.5t-12.5 30.5t12.5 30.5t30.5 12.5t30.5 -12.5t12.5 -30.5t-12.5 -30.5t-30.5 -12.5zM465 402q-18 0 -30.5 12.5t-12.5 30.5t12.5 30.5t30.5 12.5t30.5 -12.5t12.5 -30.5t-12.5 -30.5t-30.5 -12.5zM550 445q0 18 12.5 30.5t30.5 12.5t30.5 -12.5
t12.5 -30.5t-12.5 -30.5t-30.5 -12.5t-30.5 12.5t-12.5 30.5zM1111 65v-64h-37q-101 0 -144 57q-44 -58 -145 -58h-441q-131 0 -214 72q-82 71 -82 190q0 111 71 183l46 -25q-41 -20 -63 -59q-20 -37 -20 -81q0 -12 1 -23q15 -106 109 -156q66 -35 150 -36h452q47 0 75 25
q28 24 28 69v191q0 71 18 95h64q-10 -17 -13.5 -36.5t-3.5 -59.5v-177v-1v-11q0 -51 35 -76q27 -19 68 -19h46z" />
    <glyph glyph-name="uniFE9B" unicode="&#x62b;" horiz-adv-x="278" arabic-form="initial" 
d="M126 754q18 0 30.5 -12.5t12.5 -30.5t-12.5 -30.5t-30.5 -12.5t-30.5 12.5t-12.5 30.5t12.5 30.5t30.5 12.5zM62 652q18 0 30.5 -12.5t12.5 -30.5t-12.5 -30.5t-30.5 -12.5t-30.5 12.5t-12.5 30.5t12.5 30.5t30.5 12.5zM191 652q18 0 30.5 -12.5t12.5 -30.5t-12.5 -30.5
t-30.5 -12.5t-30.5 12.5t-12.5 30.5t12.5 30.5t30.5 12.5zM167 445h64q-10 -17 -13.5 -36.5t-3.5 -59.5v-176q0 -82 -42 -126q-45 -47 -135 -47h-37v65h46q47 0 75 25t28 69v192q0 70 18 94z" />
    <glyph glyph-name="uniFE9C" unicode="&#x62b;" horiz-adv-x="343" arabic-form="medial" 
d="M129 668q-18 0 -30.5 12.5t-12.5 30.5t12.5 30.5t30.5 12.5t30.5 -12.5t12.5 -30.5t-12.5 -30.5t-30.5 -12.5zM65 566q-18 0 -30.5 12.5t-12.5 30.5t12.5 30.5t30.5 12.5t30.5 -12.5t12.5 -30.5t-12.5 -30.5t-30.5 -12.5zM151 609q0 18 12.5 30.5t30.5 12.5t30.5 -12.5
t12.5 -30.5t-12.5 -30.5t-30.5 -12.5t-30.5 12.5t-12.5 30.5zM362 65v-65h-37q-100 0 -144 58q-44 -58 -144 -58h-37v65h46q47 0 75 25t28 69v192q0 70 18 94h64q-10 -17 -13.5 -36.5t-3.5 -59.5v-176v-7v-7q0 -50 35 -75q27 -19 67 -19h46z" />
    <glyph glyph-name="uniFE9E" unicode="&#x62c;" horiz-adv-x="673" arabic-form="final" 
d="M287 450q137 0 210 -82q54 -60 70 -161q17 -100 50 -128q16 -14 42 -14h32v-65h-32q-34 0 -48.5 4t-34.5 19q-21 -15 -36 -19t-46 -4h-39h-147q-78 0 -134 -40q-64 -45 -64 -128q0 -89 74 -149q65 -52 152 -52q124 0 200 81l20 -47q-47 -32 -109 -51q-49 -14 -112 -14
q-133 0 -216 74q-71 64 -72 157q-1 123 100 188q72 46 160 46h247q-18 24 -29.5 54.5t-23.5 87.5q-22 107 -70 158q-52 54 -141 54q-42 0 -85 -20q-62 -29 -94 -78l-20 48q38 37 91.5 59t104.5 22zM343 -134q18 0 30.5 -12.5t12.5 -30.5t-12.5 -30.5t-30.5 -12.5t-30.5 12.5
t-12.5 30.5t12.5 30.5t30.5 12.5z" />
    <glyph glyph-name="uniFE9F" unicode="&#x62c;" horiz-adv-x="762" arabic-form="initial" 
d="M0 65h575q-17 24 -28 54t-24 88q-23 107 -71 158q-52 54 -141 54q-42 0 -85 -20q-61 -29 -93 -78l-20 48q38 37 91.5 59t103.5 22q138 0 211 -82q53 -60 70 -161q20 -104 57 -142q57 -3 77 -18v-64q-17 10 -36.5 13.5t-59.5 3.5h-626zM337 -134q18 0 30.5 -12.5
t12.5 -30.5t-12.5 -30.5t-30.5 -12.5t-30.5 12.5t-12.5 30.5t12.5 30.5t30.5 12.5z" />
    <glyph glyph-name="uniFEA0" unicode="&#x62c;" horiz-adv-x="694" arabic-form="medial" 
d="M0 65h576q-18 24 -29.5 54.5t-23.5 87.5q-22 107 -70 158q-52 54 -141 54q-42 0 -85 -20q-62 -29 -94 -78l-20 48q38 37 91.5 59t104.5 22q137 0 210 -82q54 -60 70 -161q17 -100 50 -128q16 -14 42 -14h32v-65h-32q-34 0 -48.5 4t-34.5 19q-21 -15 -36 -19t-46 -4h-39
h-476zM337 -134q18 0 30.5 -12.5t12.5 -30.5t-12.5 -30.5t-30.5 -12.5t-30.5 12.5t-12.5 30.5t12.5 30.5t30.5 12.5z" />
    <glyph glyph-name="uniFEA2" unicode="&#x62d;" horiz-adv-x="673" arabic-form="final" 
d="M287 450q137 0 210 -82q54 -60 70 -161q17 -100 50 -128q16 -14 42 -14h32v-65h-32q-34 0 -48.5 4t-34.5 19q-21 -15 -36 -19t-46 -4h-39h-147q-78 0 -134 -40q-64 -45 -64 -128q0 -89 74 -149q65 -52 152 -52q124 0 200 81l20 -47q-47 -32 -109 -51q-49 -14 -112 -14
q-133 0 -216 74q-71 64 -72 157q-1 123 100 188q72 46 160 46h247q-18 24 -29.5 54.5t-23.5 87.5q-22 107 -70 158q-52 54 -141 54q-42 0 -85 -20q-62 -29 -94 -78l-20 48q38 37 91.5 59t104.5 22z" />
    <glyph glyph-name="uniFEA3" unicode="&#x62d;" horiz-adv-x="762" arabic-form="initial" 
d="M0 65h575q-17 24 -28 54t-24 88q-23 107 -71 158q-52 54 -141 54q-42 0 -85 -20q-61 -29 -93 -78l-20 48q38 37 91.5 59t103.5 22q138 0 211 -82q53 -60 70 -161q20 -104 57 -142h-17q70 0 94 -18v-64q-17 10 -36.5 13.5t-59.5 3.5h-626z" />
    <glyph glyph-name="uniFEA4" unicode="&#x62d;" horiz-adv-x="694" arabic-form="medial" 
d="M0 65h576q-18 24 -29.5 54.5t-23.5 87.5q-22 107 -70 158q-52 54 -141 54q-42 0 -85 -20q-62 -29 -94 -78l-20 48q38 37 91.5 59t104.5 22q137 0 210 -82q54 -60 70 -161q17 -100 50 -128q16 -14 42 -14h32v-65h-32q-34 0 -48.5 4t-34.5 19q-21 -15 -36 -19t-46 -4h-39
h-476z" />
    <glyph glyph-name="uniFEA6" unicode="&#x62e;" horiz-adv-x="673" arabic-form="final" 
d="M297 656q18 0 30.5 -12.5t12.5 -30.5t-12.5 -30.5t-30.5 -12.5t-30.5 12.5t-12.5 30.5t12.5 30.5t30.5 12.5zM287 450q137 0 210 -82q54 -60 70 -161q17 -100 50 -128q16 -14 42 -14h32v-65h-32q-34 0 -48.5 4t-34.5 19q-21 -15 -36 -19t-46 -4h-39h-147q-78 0 -134 -40
q-64 -45 -64 -128q0 -89 74 -149q65 -52 152 -52q124 0 200 81l20 -47q-47 -32 -109 -51q-49 -14 -112 -14q-133 0 -216 74q-71 64 -72 157q-1 123 100 188q72 46 160 46h247q-18 24 -29.5 54.5t-23.5 87.5q-22 107 -70 158q-52 54 -141 54q-42 0 -85 -20q-62 -29 -94 -78
l-20 48q38 37 91.5 59t104.5 22z" />
    <glyph glyph-name="uniFEA7" unicode="&#x62e;" horiz-adv-x="762" arabic-form="initial" 
d="M318 656q18 0 30.5 -12.5t12.5 -30.5t-12.5 -30.5t-30.5 -12.5t-30.5 12.5t-12.5 30.5t12.5 30.5t30.5 12.5zM0 65h575q-17 24 -28 54t-24 88q-23 107 -71 158q-52 54 -141 54q-42 0 -85 -20q-61 -29 -93 -78l-20 48q38 37 91.5 59t103.5 22q138 0 211 -82
q53 -60 70 -161q20 -104 57 -142h-17q70 0 94 -18v-64q-17 10 -36.5 13.5t-59.5 3.5h-626z" />
    <glyph glyph-name="uniFEA8" unicode="&#x62e;" horiz-adv-x="694" arabic-form="medial" 
d="M318 656q18 0 30.5 -12.5t12.5 -30.5t-12.5 -30.5t-30.5 -12.5t-30.5 12.5t-12.5 30.5t12.5 30.5t30.5 12.5zM0 65h576q-18 24 -29.5 54.5t-23.5 87.5q-22 107 -70 158q-52 54 -141 54q-42 0 -85 -20q-62 -29 -94 -78l-20 48q38 37 91.5 59t104.5 22q137 0 210 -82
q54 -60 70 -161q17 -100 50 -128q16 -14 42 -14h32v-65h-32q-34 0 -48.5 4t-34.5 19q-21 -15 -36 -19t-46 -4h-39h-476z" />
    <glyph glyph-name="uniFEAA" unicode="&#x62f;" horiz-adv-x="636" arabic-form="final" 
d="M655 65v-65h-17q-107 0 -151 68q-49 -68 -151 -68h-202q-40 0 -59.5 -3.5t-36.5 -13.5v64q24 18 94 18h199q69 0 104 47q26 35 26 87q0 111 -64 171q-51 48 -125 49q-84 2 -141 -59l-21 48q76 42 159 42q126 0 199 -86q58 -69 58 -163v-4v-38q0 -50 35 -75q27 -19 68 -19
h26z" />
    <glyph glyph-name="uniFEAC" unicode="&#x630;" horiz-adv-x="636" arabic-form="final" 
d="M155 556q-18 0 -30.5 12.5t-12.5 30.5t12.5 30.5t30.5 12.5t30.5 -12.5t12.5 -30.5t-12.5 -30.5t-30.5 -12.5zM655 65v-65h-17q-107 0 -151 68q-49 -68 -151 -68h-202q-40 0 -59.5 -3.5t-36.5 -13.5v64q24 18 94 18h199q69 0 104 47q26 35 26 87q0 111 -64 171
q-51 48 -125 49q-84 2 -141 -59l-21 48q76 42 159 42q126 0 199 -86q58 -69 58 -163v-4v-38q0 -50 35 -75q27 -19 68 -19h26z" />
    <glyph glyph-name="uniFEAE" unicode="&#x631;" horiz-adv-x="417" arabic-form="final" 
d="M436 65v-65h-37q-69 0 -111 28v-68v-33q0 -51 -16 -88q-43 -101 -173 -101q-78 0 -146 43l21 47q50 -59 123 -59q61 0 100 54q26 37 26 136v392q0 70 18 94h64q-10 -17 -13.5 -36.5t-3.5 -59.5v-190q0 -50 35 -75q27 -19 67 -19h46z" />
    <glyph glyph-name="uniFEB0" unicode="&#x632;" horiz-adv-x="407" arabic-form="final" 
d="M255 566q-18 0 -30.5 12.5t-12.5 30.5t12.5 30.5t30.5 12.5t30.5 -12.5t12.5 -30.5t-12.5 -30.5t-30.5 -12.5zM426 65v-65h-37q-69 0 -111 28v-68v-33q0 -51 -16 -88q-43 -101 -173 -101q-78 0 -146 43l21 47q50 -59 123 -59q61 0 100 54q26 37 26 136v392q0 70 18 94h64
q-10 -17 -13.5 -36.5t-3.5 -59.5v-190q0 -50 35 -75q27 -19 67 -19h46z" />
    <glyph glyph-name="uniFEB2" unicode="&#x633;" horiz-adv-x="1370" arabic-form="final" 
d="M1193 445h64q-10 -17 -13.5 -36.5t-3.5 -59.5v-190q0 -50 35 -75q27 -19 68 -19h46v-65h-37q-100 0 -144 58q-44 -58 -144 -58h-30q-99 0 -144 58q-43 -58 -143 -58h-30q-68 0 -111 28q-2 -112 -60 -188q-79 -102 -218 -102q-135 0 -214 98q-66 81 -66 198q0 55 19 103
q20 49 55 80l45 -24q-43 -21 -64 -59q-21 -40 -21 -97q0 -109 87 -179q70 -57 160 -57q128 0 183 106q29 54 29 141v261q0 70 18 94h64q-10 -17 -13.5 -36.5t-3.5 -59.5v-148q0 -50 35 -75q27 -19 68 -19h35q49 0 81 25q33 25 33 69v171q0 70 18 94h64q-10 -17 -13.5 -36.5
t-3.5 -59.5v-169q0 -50 35 -75q27 -19 68 -19h46q48 0 75 25q28 25 28 69v192q0 70 18 94z" />
    <glyph glyph-name="uniFEB3" unicode="&#x633;" horiz-adv-x="983" arabic-form="initial" 
d="M871 445h64q-10 -17 -13.5 -36.5t-3.5 -59.5v-176q0 -82 -42 -126q-45 -47 -135 -47h-29q-101 0 -144 58q-44 -58 -144 -58h-30q-100 0 -143 58q-44 -58 -144 -58h-107v65h115q48 0 75 25q28 25 28 69v150q0 70 18 94h64q-10 -17 -13.5 -36.5t-3.5 -59.5v-148
q0 -50 36 -75q27 -19 67 -19h46q48 0 75 25q28 25 28 69v171q0 70 18 94h64q-10 -17 -13.5 -36.5t-3.5 -59.5v-169q0 -50 35 -75q27 -19 68 -19h47q47 0 75 25t28 69v192q0 70 18 94z" />
    <glyph glyph-name="uniFEB4" unicode="&#x633;" horiz-adv-x="1047" arabic-form="medial" 
d="M1067 0h-37q-101 0 -144 58q-45 -58 -145 -58h-29q-101 0 -144 58q-44 -58 -144 -58h-30q-100 0 -143 58q-44 -58 -144 -58h-107v65h115q48 0 75 25q28 25 28 69v150q0 70 18 94h64q-10 -17 -13.5 -36.5t-3.5 -59.5v-148q0 -50 36 -75q27 -19 67 -19h46q48 0 75 25
q28 25 28 69v171q0 70 18 94h64q-10 -17 -13.5 -36.5t-3.5 -59.5v-169q0 -50 35 -75q27 -19 68 -19h47q47 0 75 25t28 69v192q0 70 18 94h64q-10 -17 -13.5 -36.5t-3.5 -59.5v-190q0 -50 35 -75q27 -19 68 -19h46v-65z" />
    <glyph glyph-name="uniFEB6" unicode="&#x634;" horiz-adv-x="1370" arabic-form="final" 
d="M895 732q18 0 30.5 -12.5t12.5 -30.5t-12.5 -30.5t-30.5 -12.5t-30.5 12.5t-12.5 30.5t12.5 30.5t30.5 12.5zM832 630q18 0 30.5 -12.5t12.5 -30.5t-12.5 -30.5t-30.5 -12.5t-30.5 12.5t-12.5 30.5t12.5 30.5t30.5 12.5zM960 630q18 0 30.5 -12.5t12.5 -30.5t-12.5 -30.5
t-30.5 -12.5t-30.5 12.5t-12.5 30.5t12.5 30.5t30.5 12.5zM1193 445h64q-10 -17 -13.5 -36.5t-3.5 -59.5v-190q0 -50 35 -75q27 -19 68 -19h46v-65h-37q-100 0 -144 58q-44 -58 -144 -58h-30q-99 0 -144 58q-43 -58 -143 -58h-30q-68 0 -111 28q-2 -112 -60 -188
q-79 -102 -218 -102q-135 0 -214 98q-66 81 -66 198q0 55 19 103q20 49 55 80l45 -24q-43 -21 -64 -59q-21 -40 -21 -97q0 -109 87 -179q70 -57 160 -57q128 0 183 106q29 54 29 141v261q0 70 18 94h64q-10 -17 -13.5 -36.5t-3.5 -59.5v-148q0 -50 35 -75q27 -19 68 -19h35
q49 0 81 25q33 25 33 69v171q0 70 18 94h64q-10 -17 -13.5 -36.5t-3.5 -59.5v-169q0 -50 35 -75q27 -19 68 -19h46q48 0 75 25q28 25 28 69v192q0 70 18 94z" />
    <glyph glyph-name="uniFEB7" unicode="&#x634;" horiz-adv-x="983" arabic-form="initial" 
d="M577 732q18 0 30.5 -12.5t12.5 -30.5t-12.5 -30.5t-30.5 -12.5t-30.5 12.5t-12.5 30.5t12.5 30.5t30.5 12.5zM513 630q18 0 30.5 -12.5t12.5 -30.5t-12.5 -30.5t-30.5 -12.5t-30.5 12.5t-12.5 30.5t12.5 30.5t30.5 12.5zM642 630q18 0 30.5 -12.5t12.5 -30.5t-12.5 -30.5
t-30.5 -12.5t-30.5 12.5t-12.5 30.5t12.5 30.5t30.5 12.5zM871 445h64q-10 -17 -13.5 -36.5t-3.5 -59.5v-176q0 -82 -42 -126q-45 -47 -135 -47h-29q-101 0 -144 58q-44 -58 -144 -58h-30q-100 0 -143 58q-44 -58 -144 -58h-107v65h115q48 0 75 25q28 25 28 69v150
q0 70 18 94h64q-10 -17 -13.5 -36.5t-3.5 -59.5v-148q0 -50 36 -75q27 -19 67 -19h46q48 0 75 25q28 25 28 69v171q0 70 18 94h64q-10 -17 -13.5 -36.5t-3.5 -59.5v-169q0 -50 35 -75q27 -19 68 -19h47q47 0 75 25t28 69v192q0 70 18 94z" />
    <glyph glyph-name="uniFEB8" unicode="&#x634;" horiz-adv-x="1047" arabic-form="medial" 
d="M577 732q18 0 30.5 -12.5t12.5 -30.5t-12.5 -30.5t-30.5 -12.5t-30.5 12.5t-12.5 30.5t12.5 30.5t30.5 12.5zM513 630q18 0 30.5 -12.5t12.5 -30.5t-12.5 -30.5t-30.5 -12.5t-30.5 12.5t-12.5 30.5t12.5 30.5t30.5 12.5zM642 630q18 0 30.5 -12.5t12.5 -30.5t-12.5 -30.5
t-30.5 -12.5t-30.5 12.5t-12.5 30.5t12.5 30.5t30.5 12.5zM1067 0h-37q-101 0 -144 58q-45 -58 -145 -58h-29q-101 0 -144 58q-44 -58 -144 -58h-30q-100 0 -143 58q-44 -58 -144 -58h-107v65h115q48 0 75 25q28 25 28 69v150q0 70 18 94h64q-10 -17 -13.5 -36.5t-3.5 -59.5
v-148q0 -50 36 -75q27 -19 67 -19h46q48 0 75 25q28 25 28 69v171q0 70 18 94h64q-10 -17 -13.5 -36.5t-3.5 -59.5v-169q0 -50 35 -75q27 -19 68 -19h47q47 0 75 25t28 69v192q0 70 18 94h64q-10 -17 -13.5 -36.5t-3.5 -59.5v-190q0 -50 35 -75q27 -19 68 -19h46v-65z" />
    <glyph glyph-name="uniFEBA" unicode="&#x635;" horiz-adv-x="1311" arabic-form="final" 
d="M944 450q125 0 199 -87q58 -69 58 -162v-42q0 -50 35 -75q27 -19 68 -19h26v-65h-17q-108 0 -151 68q-49 -68 -151 -68h-406q-9 -96 -59 -160q-79 -102 -218 -102q-135 0 -214 98q-66 81 -66 198q0 55 19 103q20 49 55 80l45 -24q-43 -21 -64 -59q-21 -40 -21 -97
q0 -109 87 -179q70 -57 160 -57q128 0 183 106q29 54 29 141v261q0 70 18 94h64q-10 -17 -13.5 -36.5t-3.5 -59.5v-84q48 108 147 171q89 56 191 56zM948 419q-87 0 -164 -52q-63 -43 -107 -114q-51 -80 -71 -183v-5h400q69 0 104 47q26 35 26 87q0 111 -64 172
q-51 48 -124 48z" />
    <glyph glyph-name="uniFEBB" unicode="&#x635;" horiz-adv-x="856" arabic-form="initial" 
d="M552 450q125 0 199 -87q58 -69 58 -162q0 -92 -50 -147q-50 -54 -140 -54h-619v65h148v244q0 70 18 94h64q-11 -18 -14 -34t-3 -55v-91q48 108 148 171q88 56 191 56zM555 419q-87 0 -163 -52q-64 -43 -108 -114q-28 -46 -43.5 -86.5t-28.5 -101.5h401q70 0 105 47
q26 35 26 87q0 111 -64 172q-51 48 -125 48z" />
    <glyph glyph-name="uniFEBC" unicode="&#x635;" horiz-adv-x="918" arabic-form="medial" 
d="M937 0h-17q-108 0 -151 68q-49 -68 -151 -68h-618v65h148v244q0 70 18 94h64q-11 -18 -14 -34t-3 -55v-91q48 108 147 171q89 56 191 56q125 0 199 -87q58 -69 58 -162v-42q0 -50 35 -75q27 -19 68 -19h26v-65zM212 65h401q69 0 104 47q26 35 26 87q0 111 -64 172
q-51 48 -124 48q-87 0 -164 -52q-63 -43 -107 -114q-28 -46 -43.5 -86t-28.5 -102z" />
    <glyph glyph-name="uniFEBE" unicode="&#x636;" horiz-adv-x="1311" arabic-form="final" 
d="M900 656q18 0 30.5 -12.5t12.5 -30.5t-12.5 -30.5t-30.5 -12.5t-30.5 12.5t-12.5 30.5t12.5 30.5t30.5 12.5zM944 450q125 0 199 -87q58 -69 58 -162v-42q0 -50 35 -75q27 -19 68 -19h26v-65h-17q-108 0 -151 68q-49 -68 -151 -68h-406q-9 -96 -59 -160
q-79 -102 -218 -102q-135 0 -214 98q-66 81 -66 198q0 55 19 103q20 49 55 80l45 -24q-43 -21 -64 -59q-21 -40 -21 -97q0 -109 87 -179q70 -57 160 -57q128 0 183 106q29 54 29 141v261q0 70 18 94h64q-10 -17 -13.5 -36.5t-3.5 -59.5v-84q48 108 147 171q89 56 191 56z
M948 419q-87 0 -164 -52q-63 -43 -107 -114q-51 -80 -71 -183v-5h400q69 0 104 47q26 35 26 87q0 111 -64 172q-51 48 -124 48z" />
    <glyph glyph-name="uniFEBF" unicode="&#x636;" horiz-adv-x="856" arabic-form="initial" 
d="M506 656q18 0 30.5 -12.5t12.5 -30.5t-12.5 -30.5t-30.5 -12.5t-30.5 12.5t-12.5 30.5t12.5 30.5t30.5 12.5zM552 450q125 0 199 -87q58 -69 58 -162q0 -92 -50 -147q-50 -54 -140 -54h-619v65h148v244q0 70 18 94h64q-11 -18 -14 -34t-3 -55v-91q48 108 148 171
q88 56 191 56zM555 419q-87 0 -163 -52q-64 -43 -108 -114q-28 -46 -43.5 -86.5t-28.5 -101.5h401q70 0 105 47q26 35 26 87q0 111 -64 172q-51 48 -125 48z" />
    <glyph glyph-name="uniFEC0" unicode="&#x636;" horiz-adv-x="918" arabic-form="medial" 
d="M506 656q18 0 30.5 -12.5t12.5 -30.5t-12.5 -30.5t-30.5 -12.5t-30.5 12.5t-12.5 30.5t12.5 30.5t30.5 12.5zM937 0h-17q-108 0 -151 68q-49 -68 -151 -68h-618v65h148v244q0 70 18 94h64q-11 -18 -14 -34t-3 -55v-91q48 108 147 171q89 56 191 56q125 0 199 -87
q58 -69 58 -162v-42q0 -50 35 -75q27 -19 68 -19h26v-65zM212 65h401q69 0 104 47q26 35 26 87q0 111 -64 172q-51 48 -124 48q-87 0 -164 -52q-63 -43 -107 -114q-28 -46 -43.5 -86t-28.5 -102z" />
    <glyph glyph-name="uniFEC2" unicode="&#x637;" horiz-adv-x="906" arabic-form="final" 
d="M154 681h64q-10 -17 -13 -33t-4 -56l-1 -369q48 106 149 171q91 57 190 56q127 -1 200 -87q58 -69 58 -162v-42q0 -50 35 -75q27 -19 67 -19h26v-65h-17q-107 0 -150 68q-49 -68 -151 -68h-473q-40 0 -59.5 -3.5t-36.5 -13.5v64q24 18 94 18h4v522q0 70 18 94zM543 419
q-87 0 -163 -52q-64 -43 -108 -114q-28 -46 -43.5 -86t-28.5 -102h401q70 0 105 47q26 35 26 87q0 111 -64 172q-52 48 -125 48z" />
    <glyph glyph-name="uniFEC3" unicode="&#x637;" horiz-adv-x="857" arabic-form="initial" 
d="M167 681h64q-10 -17 -13 -33t-4 -56l-1 -369q48 106 149 171q91 57 190 56q127 -1 200 -87q58 -69 58 -162q0 -92 -50 -147q-50 -54 -140 -54h-620v65h149v522q0 70 18 94zM556 419q-87 0 -163 -52q-64 -43 -108 -114q-28 -46 -43.5 -86t-28.5 -102h401q70 0 105 47
q26 35 26 87q0 111 -64 172q-51 48 -125 48z" />
    <glyph glyph-name="uniFEC4" unicode="&#x637;" horiz-adv-x="919" arabic-form="medial" 
d="M938 0h-17q-108 0 -151 68q-49 -68 -151 -68h-619v65h149v522q0 70 18 94h64q-10 -17 -13.5 -33t-3.5 -56l-1 -369q48 106 148 171q91 57 191 56q126 -1 199 -87q58 -69 58 -162v-42q0 -50 35 -75q27 -19 68 -19h26v-65zM213 65h401q69 0 104 47q26 35 26 87
q0 111 -64 172q-51 48 -125 48q-86 0 -163 -52q-63 -43 -107 -114q-29 -46 -44 -86t-28 -102z" />
    <glyph glyph-name="uniFEC6" unicode="&#x638;" horiz-adv-x="906" arabic-form="final" 
d="M154 681h64q-10 -17 -13 -33t-4 -56l-1 -369q48 106 149 171q91 57 190 56q127 -1 200 -87q58 -69 58 -162v-42q0 -50 35 -75q27 -19 67 -19h26v-65h-17q-107 0 -150 68q-49 -68 -151 -68h-473q-40 0 -59.5 -3.5t-36.5 -13.5v64q24 18 94 18h4v522q0 70 18 94zM543 419
q-87 0 -163 -52q-64 -43 -108 -114q-28 -46 -43.5 -86t-28.5 -102h401q70 0 105 47q26 35 26 87q0 111 -64 172q-52 48 -125 48zM506 656q18 0 30.5 -12.5t12.5 -30.5t-12.5 -30.5t-30.5 -12.5t-30.5 12.5t-12.5 30.5t12.5 30.5t30.5 12.5z" />
    <glyph glyph-name="uniFEC7" unicode="&#x638;" horiz-adv-x="857" arabic-form="initial" 
d="M167 681h64q-10 -17 -13 -33t-4 -56l-1 -369q48 106 149 171q91 57 190 56q127 -1 200 -87q58 -69 58 -162q0 -92 -50 -147q-50 -54 -140 -54h-620v65h149v522q0 70 18 94zM556 419q-87 0 -163 -52q-64 -43 -108 -114q-28 -46 -43.5 -86t-28.5 -102h401q70 0 105 47
q26 35 26 87q0 111 -64 172q-51 48 -125 48zM506 656q18 0 30.5 -12.5t12.5 -30.5t-12.5 -30.5t-30.5 -12.5t-30.5 12.5t-12.5 30.5t12.5 30.5t30.5 12.5z" />
    <glyph glyph-name="uniFEC8" unicode="&#x638;" horiz-adv-x="919" arabic-form="medial" 
d="M938 0h-17q-108 0 -151 68q-49 -68 -151 -68h-619v65h149v522q0 70 18 94h64q-10 -17 -13.5 -33t-3.5 -56l-1 -369q48 106 148 171q91 57 191 56q126 -1 199 -87q58 -69 58 -162v-42q0 -50 35 -75q27 -19 68 -19h26v-65zM213 65h401q69 0 104 47q26 35 26 87
q0 111 -64 172q-51 48 -125 48q-86 0 -163 -52q-63 -43 -107 -114q-29 -46 -44 -86t-28 -102zM506 656q18 0 30.5 -12.5t12.5 -30.5t-12.5 -30.5t-30.5 -12.5t-30.5 12.5t-12.5 30.5t12.5 30.5t30.5 12.5z" />
    <glyph glyph-name="uniFECA" unicode="&#x639;" horiz-adv-x="706" arabic-form="final" 
d="M358 450q114 0 185 -66q59 -56 59 -134q0 -116 -122 -185h246v-65h-206h-42q-38 0 -57.5 4.5t-38.5 18.5q-23 -23 -74 -23q-76 0 -132 -40q-65 -45 -65 -128q0 -89 75 -149q64 -52 151 -52q125 0 200 81l20 -47q-46 -32 -108 -51q-49 -14 -113 -14q-133 0 -215 74
q-72 64 -73 157q0 113 87 178q63 46 150 54l40 2q-2 11 -2 18q-6 97 -75 150q-48 38 -99 38q-6 0 -11 -1q-18 -3 -25 -17l-34 38q104 159 279 159zM358 419q-55 0 -107 -26q-57 -29 -104 -89q15 3 31 3q89 0 150 -65q60 -64 60 -166l54 34q96 66 96 143q0 82 -56 128
q-48 38 -124 38z" />
    <glyph glyph-name="uniFECB" unicode="&#x639;" horiz-adv-x="604" arabic-form="initial" 
d="M385 450q83 0 158 -42l-21 -48q-57 61 -141 59q-53 -1 -99 -30q-40 -25 -63 -67q-26 -46 -26 -107q0 -59 37 -104q38 -46 100 -46h142q70 0 94 -18v-64q-17 10 -36.5 13.5t-59.5 3.5h-470v65h181q-53 68 -53 149q0 101 76 170q72 66 181 66z" />
    <glyph glyph-name="uniFECC" unicode="&#x639;" horiz-adv-x="732" arabic-form="medial" 
d="M383 450q114 0 185 -66q59 -56 59 -134q0 -116 -122 -185h246v-65h-206h-42q-38 0 -57.5 4.5t-38.5 18.5q-19 -14 -38 -18.5t-57 -4.5h-43h-269v65h351q-3 9 -3 18q-6 97 -75 150q-48 38 -99 38q-5 0 -11 -1q-18 -3 -25 -17l-34 38q104 159 279 159zM383 419
q-55 0 -107 -26q-57 -29 -103 -89q15 3 30 3q89 0 150 -65q60 -64 60 -166l54 34q96 66 96 143q0 82 -56 128q-48 38 -124 38z" />
    <glyph glyph-name="uniFECE" unicode="&#x63a;" horiz-adv-x="706" arabic-form="final" 
d="M358 656q18 0 30.5 -12.5t12.5 -30.5t-12.5 -30.5t-30.5 -12.5t-30.5 12.5t-12.5 30.5t12.5 30.5t30.5 12.5zM358 450q114 0 185 -66q59 -56 59 -134q0 -116 -122 -185h246v-65h-206h-42q-38 0 -57.5 4.5t-38.5 18.5q-23 -23 -74 -23q-76 0 -132 -40q-65 -45 -65 -128
q0 -89 75 -149q64 -52 151 -52q125 0 200 81l20 -47q-46 -32 -108 -51q-49 -14 -113 -14q-133 0 -215 74q-72 64 -73 157q0 113 87 178q63 46 150 54l40 2q-2 11 -2 18q-6 97 -75 150q-48 38 -99 38q-6 0 -11 -1q-18 -3 -25 -17l-34 38q104 159 279 159zM358 419
q-55 0 -107 -26q-57 -29 -104 -89q15 3 31 3q89 0 150 -65q60 -64 60 -166l54 34q96 66 96 143q0 82 -56 128q-48 38 -124 38z" />
    <glyph glyph-name="uniFECF" unicode="&#x63a;" horiz-adv-x="604" arabic-form="initial" 
d="M379 656q18 0 30.5 -12.5t12.5 -30.5t-12.5 -30.5t-30.5 -12.5t-30.5 12.5t-12.5 30.5t12.5 30.5t30.5 12.5zM385 450q83 0 158 -42l-21 -48q-57 61 -141 59q-53 -1 -99 -30q-40 -25 -63 -67q-26 -46 -26 -107q0 -59 37 -104q38 -46 100 -46h142q70 0 94 -18v-64
q-17 10 -36.5 13.5t-59.5 3.5h-470v65h181q-53 68 -53 149q0 101 76 170q72 66 181 66z" />
    <glyph glyph-name="uniFED0" unicode="&#x63a;" horiz-adv-x="732" arabic-form="medial" 
d="M383 656q18 0 30.5 -12.5t12.5 -30.5t-12.5 -30.5t-30.5 -12.5t-30.5 12.5t-12.5 30.5t12.5 30.5t30.5 12.5zM383 450q114 0 185 -66q59 -56 59 -134q0 -116 -122 -185h246v-65h-206h-42q-38 0 -57.5 4.5t-38.5 18.5q-19 -14 -38 -18.5t-57 -4.5h-43h-269v65h351
q-3 9 -3 18q-6 97 -75 150q-48 38 -99 38q-5 0 -11 -1q-18 -3 -25 -17l-34 38q104 159 279 159zM383 419q-55 0 -107 -26q-57 -29 -103 -89q15 3 30 3q89 0 150 -65q60 -64 60 -166l54 34q96 66 96 143q0 82 -56 128q-48 38 -124 38z" />
    <glyph glyph-name="uniFED2" unicode="&#x641;" horiz-adv-x="1090" arabic-form="final" 
d="M787 570q-18 0 -30.5 12.5t-12.5 30.5t12.5 30.5t30.5 12.5t30.5 -12.5t12.5 -30.5t-12.5 -30.5t-30.5 -12.5zM1110 65v-65h-187l-54 -1q-52 0 -82 19q-29 -18 -86 -18h-50h-306q-132 0 -215 72q-82 71 -82 190q0 112 72 183l45 -24q-41 -20 -62 -60q-21 -36 -21 -81
q0 -11 1 -22q15 -106 109 -157q66 -35 151 -36h330q-35 22 -58.5 68t-23.5 93q0 87 40 145q55 79 156 79q97 0 152 -75q43 -60 43 -149q0 -50 -26 -98q-22 -42 -56 -63h210zM787 71q75 20 109 83q21 38 21 88q0 64 -29 112q-38 65 -101 65q-66 0 -105 -70q-26 -47 -26 -107
q0 -51 21 -88q34 -63 110 -83z" />
    <glyph glyph-name="uniFED3" unicode="&#x641;" horiz-adv-x="582" arabic-form="initial" 
d="M355 656q18 0 30.5 -12.5t12.5 -30.5t-12.5 -30.5t-30.5 -12.5t-30.5 12.5t-12.5 30.5t12.5 30.5t30.5 12.5zM358 445h177q-10 -17 -13.5 -36.5t-3.5 -60.5v-176q0 -81 -42 -125q-45 -47 -135 -47h-341v65h187q-59 57 -59 157q0 112 75 173q62 50 155 50zM459 414h-87
q-95 0 -141 -59q-38 -49 -38 -129q0 -79 48 -122q42 -39 109 -39q48 0 75 25q28 25 28 69v190q0 41 6 65z" />
    <glyph glyph-name="uniFED4" unicode="&#x641;" horiz-adv-x="627" arabic-form="medial" 
d="M323 570q-18 0 -30.5 12.5t-12.5 30.5t12.5 30.5t30.5 12.5t30.5 -12.5t12.5 -30.5t-12.5 -30.5t-30.5 -12.5zM646 65v-65h-187l-54 -1q-52 0 -82 19q-29 -18 -86 -18h-50h-187v65h210q-35 22 -58.5 68t-23.5 93q0 87 40 145q55 79 155 79q98 0 152 -75q43 -60 43 -149
q0 -50 -26 -98q-22 -42 -56 -63h210zM323 71q75 20 109 83q21 38 21 88q0 64 -28 112q-39 65 -102 65q-65 0 -104 -70q-26 -47 -26 -107q0 -50 21 -88q34 -63 109 -83z" />
    <glyph glyph-name="uniFED6" unicode="&#x642;" horiz-adv-x="787" arabic-form="final" 
d="M427 566q-18 0 -30.5 12.5t-12.5 30.5t12.5 30.5t30.5 12.5t30.5 -12.5t12.5 -30.5t-12.5 -30.5t-30.5 -12.5zM556 566q-18 0 -30.5 12.5t-12.5 30.5t12.5 30.5t30.5 12.5t30.5 -12.5t12.5 -30.5t-12.5 -30.5t-30.5 -12.5zM807 0h-151q-12 -137 -119 -208
q-80 -54 -184 -54q-131 0 -217 80t-88 216q0 55 19 103q19 47 55 80l45 -25q-42 -20 -64 -58q-21 -38 -21 -97q0 -99 76 -165q79 -71 193 -71q103 0 173 61q62 55 68 138h-94q-107 0 -171 65q-59 60 -59 157q0 112 75 173q62 50 155 50h177q-10 -17 -13.5 -36.5t-3.5 -60.5
v-283h149v-65zM591 65v284q0 41 6 65h-87q-95 0 -141 -59q-38 -49 -38 -129q0 -79 48 -122q42 -39 109 -39h103z" />
    <glyph glyph-name="uniFED7" unicode="&#x642;" horiz-adv-x="582" arabic-form="initial" 
d="M287 652q18 0 30.5 -12.5t12.5 -30.5t-12.5 -30.5t-30.5 -12.5t-30.5 12.5t-12.5 30.5t12.5 30.5t30.5 12.5zM416 652q18 0 30.5 -12.5t12.5 -30.5t-12.5 -30.5t-30.5 -12.5t-30.5 12.5t-12.5 30.5t12.5 30.5t30.5 12.5zM358 445h177q-10 -17 -13.5 -36.5t-3.5 -60.5
v-176q0 -81 -42 -125q-45 -47 -135 -47h-341v65h187q-59 61 -59 157q0 112 75 173q62 50 155 50zM459 414h-87q-95 0 -141 -59q-38 -49 -38 -129q0 -79 48 -122q42 -39 109 -39q48 0 75 25q28 25 28 69v190q0 41 6 65z" />
    <glyph glyph-name="uniFED8" unicode="&#x642;" horiz-adv-x="627" arabic-form="medial" 
d="M259 566q-18 0 -30.5 12.5t-12.5 30.5t12.5 30.5t30.5 12.5t30.5 -12.5t12.5 -30.5t-12.5 -30.5t-30.5 -12.5zM388 566q-18 0 -30.5 12.5t-12.5 30.5t12.5 30.5t30.5 12.5t30.5 -12.5t12.5 -30.5t-12.5 -30.5t-30.5 -12.5zM646 65v-65h-187l-54 -1q-52 0 -82 19
q-29 -18 -86 -18h-50h-187v65h210q-35 22 -58.5 68t-23.5 93q0 87 40 145q55 79 155 79q98 0 152 -75q43 -60 43 -149q0 -50 -26 -98q-22 -42 -56 -63h210zM323 71q75 20 109 83q21 38 21 88q0 64 -28 112q-39 65 -102 65q-65 0 -104 -70q-26 -47 -26 -107q0 -50 21 -88
q34 -63 109 -83z" />
    <glyph glyph-name="uniFEDA" unicode="&#x643;" horiz-adv-x="1091" arabic-form="final" 
d="M1111 65v-64h-37q-101 0 -144 57q-44 -58 -145 -58h-441q-131 0 -214 72q-82 71 -82 190q0 112 71 183l46 -25q-41 -20 -63 -59q-20 -37 -20 -81q0 -12 1 -23q15 -106 109 -156q66 -35 150 -36h452q47 0 75 25q28 24 28 69v427q0 71 18 95h64q-10 -17 -13.5 -36.5
t-3.5 -59.5v-413v-13v1q0 -51 35 -76q27 -19 68 -19h46zM461 313q-15 -2 -26 -2q-14 0 -22 3v31q5 -3 16 -3q14 0 35 4l17 4q-45 27 -43 82q2 51 35 82q30 28 76 28q40 0 76 -23l-9 -21q-30 27 -65 27q-33 0 -56 -26t-23 -64q0 -35 26 -57q13 -11 34 -11q17 0 61 11
q21 5 35 5q11 0 20 -3v-30q-12 2 -20 2q-14 0 -36 -6q-104 -30 -131 -33z" />
    <glyph glyph-name="uniFEDB" unicode="&#x643;" horiz-adv-x="647" arabic-form="initial" 
d="M343 450q126 0 199 -86q58 -69 58 -163q0 -92 -50 -147q-50 -54 -140 -54h-409l-1 65h404q70 0 105 47q26 35 26 86q0 112 -64 173q-51 48 -125 48h-12q-21 0 -43 -4q-29 -6 -51 -13q-29 -10 -59.5 -33.5t-47.5 -48.5l-20 47l188 249q41 56 70 65l51 -38q-29 -11 -72 -67
l-105 -136q45 10 98 10z" />
    <glyph glyph-name="uniFEDC" unicode="&#x643;" horiz-adv-x="709" arabic-form="medial" 
d="M728 65v-65h-18q-107 0 -151 68q-48 -68 -150 -68h-409l-1 65h404q70 0 105 47q26 35 26 86q0 112 -65 173q-51 48 -124 48h-13q-20 0 -42 -4q-29 -6 -51 -13q-29 -10 -59.5 -33.5t-47.5 -48.5l-20 47l188 249q41 56 70 65l51 -38q-29 -11 -72 -67l-105 -136q45 10 98 10
q126 0 199 -86q58 -69 58 -163v-4v-38q0 -50 35 -75q27 -19 68 -19h26z" />
    <glyph glyph-name="uniFEDE" unicode="&#x644;" horiz-adv-x="735" arabic-form="final" 
d="M559 681h64q-10 -17 -13.5 -36.5t-3.5 -59.5v-426q0 -50 35 -75q27 -19 67 -19h46v-65h-37q-68 0 -111 28q-2 -112 -60 -188q-79 -102 -218 -102q-135 0 -214 98q-66 81 -66 198q0 55 19 104q20 48 55 80l45 -25q-43 -21 -64 -59q-21 -40 -21 -97q0 -109 87 -179
q70 -57 160 -57q128 0 183 106q29 54 29 141v539q0 70 18 94z" />
    <glyph glyph-name="uniFEDF" unicode="&#x644;" horiz-adv-x="278" arabic-form="initial" 
d="M167 681h64q-10 -17 -13.5 -36.5t-3.5 -59.5v-412q0 -82 -42 -126q-45 -47 -135 -47h-37v65h46q47 0 75 25t28 69v428q0 70 18 94z" />
    <glyph glyph-name="uniFEE0" unicode="&#x644;" horiz-adv-x="343" arabic-form="medial" 
d="M362 0h-37q-100 0 -144 58q-44 -58 -144 -58h-37v65h46q47 0 75 25t28 69v428q0 70 18 94h64q-10 -17 -13.5 -36.5t-3.5 -59.5v-426q0 -50 35 -75q27 -19 67 -19h46v-65z" />
    <glyph glyph-name="uniFEE2" unicode="&#x645;" horiz-adv-x="662" arabic-form="final" 
d="M682 64v-64h-17q-111 0 -152 70q-55 -81 -157 -81q-54 0 -96 24h-82q-37 0 -44 -29q-3 -10 -4 -62v-118q0 -70 -18 -94h-64q10 17 13.5 36.5t3.5 59.5v145v14q0 52 20 79q24 29 69 33q8 1 40 1q-35 57 -35 142q0 112 62 176q53 54 135 54q94 0 149 -70q48 -62 48 -160v-7
v-54q0 -51 35 -76q27 -19 68 -19h26zM356 54q68 0 103 54q29 45 29 120q0 91 -43 145q-37 46 -89 46q-61 0 -98 -59q-34 -53 -34 -132q0 -86 38 -132q34 -42 94 -42z" />
    <glyph glyph-name="uniFEE3" unicode="&#x645;" horiz-adv-x="571" arabic-form="initial" 
d="M327 450q94 0 149 -70q48 -62 48 -160q0 -112 -62 -176q-53 -55 -135 -55q-103 0 -158 82q-41 -71 -152 -71h-17v65h26q48 0 75 24q28 24 28 70v60v1q0 112 62 176q53 54 136 54zM327 54q68 0 103 54q29 45 29 120q0 91 -43 145q-37 46 -89 46q-61 0 -99 -59
q-34 -53 -34 -132q0 -86 38 -132q34 -42 95 -42z" />
    <glyph glyph-name="uniFEE4" unicode="&#x645;" horiz-adv-x="633" arabic-form="medial" 
d="M652 65v-65h-17q-111 0 -152 71q-55 -82 -157 -82t-157 82q-41 -71 -152 -71h-17v65h26q48 0 75 24q28 24 28 70v60v1q0 112 62 176q53 54 135 54q94 0 149 -70q48 -62 48 -160v-6v-55q0 -50 35 -75q27 -19 68 -19h26zM326 54q69 0 103 54q29 45 29 120q0 91 -43 145
q-37 46 -89 46q-61 0 -98 -59q-34 -53 -34 -132q0 -86 38 -132q34 -42 94 -42z" />
    <glyph glyph-name="uniFEE6" unicode="&#x646;" horiz-adv-x="735" arabic-form="final" 
d="M321 450q18 0 30.5 -12.5t12.5 -30.5t-12.5 -30.5t-30.5 -12.5t-30.5 12.5t-12.5 30.5t12.5 30.5t30.5 12.5zM559 445h64q-10 -17 -13.5 -36.5t-3.5 -59.5v-190q0 -50 35 -75q27 -19 67 -19h46v-65h-37q-68 0 -111 28q-2 -112 -60 -188q-79 -102 -218 -102
q-135 0 -214 98q-66 81 -66 198q0 55 19 103q20 48 55 80l45 -24q-43 -21 -64 -59q-21 -40 -21 -97q0 -109 87 -179q70 -57 160 -57q128 0 183 106q29 54 29 141v303q0 70 18 94z" />
    <glyph glyph-name="uniFEE7" unicode="&#x646;" horiz-adv-x="278" arabic-form="initial" 
d="M167 445h64q-10 -17 -13.5 -36.5t-3.5 -59.5v-176q0 -82 -42 -126q-45 -47 -135 -47h-37v65h46q47 0 75 25t28 69v192q0 70 18 94zM191 652q18 0 30.5 -12.5t12.5 -30.5t-12.5 -30.5t-30.5 -12.5t-30.5 12.5t-12.5 30.5t12.5 30.5t30.5 12.5z" />
    <glyph glyph-name="uniFEE8" unicode="&#x646;" horiz-adv-x="343" arabic-form="medial" 
d="M362 65v-65h-37q-100 0 -144 58q-44 -58 -144 -58h-37v65h46q47 0 75 25t28 69v192q0 70 18 94h64q-10 -17 -13.5 -36.5t-3.5 -59.5v-176v-7v-7q0 -50 35 -75q27 -19 67 -19h46zM194 652q18 0 30.5 -12.5t12.5 -30.5t-12.5 -30.5t-30.5 -12.5t-30.5 12.5t-12.5 30.5
t12.5 30.5t30.5 12.5z" />
    <glyph glyph-name="uniFEEA" unicode="&#x647;" horiz-adv-x="567" arabic-form="final" 
d="M587 65v-65h-37q-95 0 -139 52q-43 -66 -149 -66q-94 0 -155 67q-59 64 -59 168q0 108 71 174q59 55 142 55q34 0 65.5 -11.5t50.5 -31.5q4 25 14 38h64q-10 -17 -13.5 -36.5t-3.5 -59.5v-190q0 -50 35 -75q27 -19 68 -19h46zM373 145v178q0 39 -32 68q-30 28 -76 28
q-69 0 -113 -60q-39 -53 -39 -131q0 -87 48 -135q41 -42 109 -42q48 0 75 25q28 25 28 69z" />
    <glyph glyph-name="uniFEEB" unicode="&#x647;" horiz-adv-x="767" arabic-form="initial" 
d="M463 450q126 0 199 -86q58 -69 58 -163q0 -92 -50 -147q-50 -54 -140 -54h-116l-56 -1q-54 0 -84 19q-31 -19 -185 -19l-89 1v65h180q-50 45 -50 117q0 56 36 98q33 40 84 49l-16 38q45 43 110 66q31 10 70 15q34 2 49 2zM372 65h152q70 0 105 47q26 35 26 86
q0 112 -64 173q-51 48 -125 48h-12q-19 0 -41 -4q-20 -3 -53 -13q-26 -9 -53.5 -29t-45.5 -43l14 1q70 0 112 -53q34 -43 34 -96q0 -71 -49 -117zM275 71q40 13 64 51q20 32 20 68q0 49 -26 82q-23 30 -57 30q-40 0 -64 -39q-20 -31 -20 -73q0 -41 26 -76q23 -32 57 -43z
" />
    <glyph glyph-name="uniFEEC" unicode="&#x647;" horiz-adv-x="829" arabic-form="medial" 
d="M848 65v-65h-17q-107 0 -150 68q-49 -68 -151 -68h-116l-56 -1q-54 0 -84 19q-31 -19 -185 -19l-89 1v65h180q-50 45 -50 117q0 56 36 98q33 40 84 49l-16 38q45 43 110 66q31 10 70 15q34 2 49 2q126 0 199 -86q58 -69 58 -163v-4v-38q0 -50 35 -75q27 -19 67 -19h26z
M372 65h152q70 0 105 47q26 35 26 86q0 112 -64 173q-51 48 -125 48h-12q-19 0 -41 -4q-20 -3 -53 -13q-26 -9 -53.5 -29t-45.5 -43l15 1q69 0 112 -53q34 -43 34 -96q0 -71 -50 -117zM276 71q40 13 64 51q20 32 20 68q0 49 -26 82q-23 30 -58 30q-40 0 -64 -39
q-20 -31 -20 -73q0 -41 26 -76q23 -32 58 -43z" />
    <glyph glyph-name="uniFEEE" unicode="&#x648;" horiz-adv-x="567" arabic-form="final" 
d="M438 0v-40v-34q0 -51 -16 -87q-43 -101 -173 -101q-77 0 -146 43l21 47q50 -59 123 -59q62 0 100 54q26 37 26 136v41h-95q-107 0 -171 65q-59 60 -59 157q0 112 75 173q62 50 155 50h177q-10 -17 -13.5 -36.5t-3.5 -60.5v-283h149v-65h-149zM373 65v284q0 41 6 65h-87
q-95 0 -141 -59q-38 -49 -38 -129q0 -79 48 -122q42 -39 109 -39h103z" />
    <glyph glyph-name="uniFEEF" unicode="&#x649;" horiz-adv-x="705" arabic-form="isolated" 
d="M497 450q36 0 65 -8q49 -13 80 -34l-21 -48q-50 59 -128 59q-72 0 -119 -61q-41 -54 -41 -132t48 -122q42 -39 109 -39h168v-31q0 -154 -111 -236q-83 -60 -194 -60q-131 0 -217 80t-88 216q0 55 19 103q19 47 55 81l45 -25q-44 -21 -64 -59q-21 -40 -21 -97
q0 -99 76 -165q79 -71 193 -71q104 0 173 61q62 55 68 138h-94q-107 0 -171 65q-59 60 -59 157q0 113 76 176q62 52 153 52z" />
    <glyph glyph-name="uniFEF0" unicode="&#x649;" horiz-adv-x="637" arabic-form="final" 
d="M661 0h-4q-13 -137 -120 -208q-80 -54 -184 -54q-131 0 -217 80t-88 216q0 55 19 103q19 47 55 81l45 -25q-44 -21 -64 -59q-21 -40 -21 -97q0 -99 76 -165q79 -71 193 -71q104 0 173 61q62 55 68 138h-108q-71 0 -95 18v64q17 -10 36.5 -13.5t59.5 -3.5h176v-65z" />
    <glyph glyph-name="uniFEF2" unicode="&#x64a;" horiz-adv-x="637" arabic-form="final" 
d="M661 0h-4q-13 -137 -120 -208q-80 -54 -184 -54q-131 0 -217 80t-88 216q0 55 19 103q19 47 55 81l45 -25q-44 -21 -64 -59q-21 -40 -21 -97q0 -99 76 -165q79 -71 193 -71q104 0 173 61q62 55 68 138h-108q-71 0 -95 18v64q17 -10 36.5 -13.5t59.5 -3.5h176v-65z
M287 -379q18 0 30.5 -12.5t12.5 -30.5t-12.5 -30.5t-30.5 -12.5t-30.5 12.5t-12.5 30.5t12.5 30.5t30.5 12.5zM416 -379q18 0 30.5 -12.5t12.5 -30.5t-12.5 -30.5t-30.5 -12.5t-30.5 12.5t-12.5 30.5t12.5 30.5t30.5 12.5z" />
    <glyph glyph-name="uniFEF3" unicode="&#x64a;" horiz-adv-x="278" arabic-form="initial" 
d="M167 445h64q-10 -17 -13.5 -36.5t-3.5 -59.5v-176q0 -82 -42 -126q-45 -47 -135 -47h-37v65h46q47 0 75 25t28 69v192q0 70 18 94zM23 -134q18 0 30.5 -12.5t12.5 -30.5t-12.5 -30.5t-30.5 -12.5t-30.5 12.5t-12.5 30.5t12.5 30.5t30.5 12.5zM152 -134q18 0 30.5 -12.5
t12.5 -30.5t-12.5 -30.5t-30.5 -12.5t-30.5 12.5t-12.5 30.5t12.5 30.5t30.5 12.5z" />
    <glyph glyph-name="uniFEF4" unicode="&#x64a;" horiz-adv-x="343" arabic-form="medial" 
d="M362 65v-65h-37q-100 0 -144 58q-44 -58 -144 -58h-37v65h46q47 0 75 25t28 69v192q0 70 18 94h64q-10 -17 -13.5 -36.5t-3.5 -59.5v-176v-7v-7q0 -50 35 -75q27 -19 67 -19h46zM53 -134q18 0 30.5 -12.5t12.5 -30.5t-12.5 -30.5t-30.5 -12.5t-30.5 12.5t-12.5 30.5
t12.5 30.5t30.5 12.5zM182 -134q18 0 30.5 -12.5t12.5 -30.5t-12.5 -30.5t-30.5 -12.5t-30.5 12.5t-12.5 30.5t12.5 30.5t30.5 12.5z" />
    <glyph glyph-name=".notdef" horiz-adv-x="250" 
d="M25 0v714h200v-714h-200zM200 25v664h-150v-664h150z" />
    <glyph glyph-name="space" unicode=" " horiz-adv-x="250" 
 />
    <glyph glyph-name="exclam" unicode="!" horiz-adv-x="267" 
d="M143 163h-21l-31 511q1 18 14 32.5t29 14.5t28 -13t12 -31v-3l-20 -255q-4 -69 -6 -140q-1 -38 -5 -116zM85 36q0 20 14 34.5t34 14.5t34.5 -14.5t14.5 -34.5t-14.5 -34t-34.5 -14t-34 14t-14 34z" />
    <glyph glyph-name="quotedbl" unicode="&#x22;" horiz-adv-x="337" 
d="M105 472h-30q-22 207 -22 212q0 16 11 27t27 11q14 0 25 -11.5t12 -26.5q-3 -39 -11 -106q-8 -70 -12 -106zM260 472h-30q-22 207 -22 212q0 16 11 27t27 11q14 0 25 -11.5t12 -26.5q-3 -39 -11 -106q-8 -70 -12 -106z" />
    <glyph glyph-name="numbersign" unicode="#" horiz-adv-x="498" 
d="M105 0h-49l36 206h-64v43h71l28 164h-76l-1 42h84l37 221h45l-36 -221h179l40 221h46l-41 -221h65v-42h-71l-26 -164h78v-43h-86l-34 -206h-46l34 206h-178zM173 413l-26 -164h179l26 164h-179z" />
    <glyph glyph-name="dollar" unicode="$" horiz-adv-x="540" 
d="M287 -61h-28v49h-5q-106 1 -192 56l33 66q69 -79 159 -81h5v311h-2q-183 102 -183 212q0 86 62 132q47 35 119 38h5v50h27v-50h5q78 -8 169 -46l-29 -64q-64 58 -139 68h-6l1 -262q102 -59 141 -101q51 -55 50 -122q2 -87 -55 -144q-50 -52 -133 -62h-4v-50zM287 29h5
q66 4 99 55q23 36 23 78q0 90 -127 166v-299zM260 680h-5q-53 -3 -87 -38q-28 -30 -28 -69t31 -76.5t88 -66.5z" />
    <glyph glyph-name="percent" unicode="%" horiz-adv-x="716" 
d="M183 0h-66l407 714h66zM184 388q-62 0 -96 55q-28 45 -28 112q0 76 33 122t91 46q66 0 99 -58q25 -44 25 -109q0 -78 -36 -125q-33 -43 -88 -43zM184 681q-35 0 -50 -29t-15 -96q0 -127 65 -127t65 127q0 57 -10 84q-16 41 -55 41zM532 -12q-62 0 -96 55q-28 45 -28 112
q0 76 33 122t91 46q66 0 99 -58q25 -44 25 -109q0 -78 -36 -125q-33 -43 -88 -43zM532 281q-35 0 -50 -29t-15 -96q0 -127 65 -127t65 127q0 57 -10 84q-16 41 -55 41z" />
    <glyph glyph-name="ampersand" unicode="&#x26;" horiz-adv-x="620" 
d="M473 526h45q-9 -51 -67 -112q58 -33 90 -88q27 -48 27 -97q0 -115 -85 -184q-71 -57 -173 -57q-124 0 -194 81q-56 66 -56 161q0 93 65 161q45 45 98 62q-28 12 -47 33q-33 36 -33 88q0 70 58 112q49 35 117 35q72 0 152 -49l-20 -55q-67 67 -129 67q-52 0 -86 -44
q-28 -35 -28 -75q0 -34 21 -63.5t55 -42.5q-81 -36 -115 -97q-29 -52 -29 -132q0 -91 60 -152q52 -51 120 -51q79 0 128 66q42 56 42 133q0 46 -16.5 91.5t-42.5 69.5q-47 -49 -47 -91v-4h-41q1 60 64 128q37 40 51.5 63t15.5 43z" />
    <glyph glyph-name="quotesingle" unicode="'" horiz-adv-x="183" 
d="M105 472h-30q-22 207 -22 212q0 16 11 27t27 11q14 0 25 -11.5t12 -26.5q-3 -39 -11 -106q-8 -70 -12 -106z" />
    <glyph glyph-name="parenleft" unicode="(" horiz-adv-x="336" 
d="M254 -213h-17q-80 106 -118 222q-41 124 -40 274q1 144 46 270q36 103 109 214h20q-100 -239 -100 -481q0 -241 100 -499z" />
    <glyph glyph-name="parenright" unicode=")" horiz-adv-x="272" 
d="M71 -213h-17q100 258 100 499q0 242 -100 481h20q83 -127 120 -245q34 -113 35 -239q1 -169 -52 -307q-37 -97 -106 -189z" />
    <glyph glyph-name="asterisk" unicode="*" horiz-adv-x="392" 
d="M237 529l-40 33q0 -25 9 -63q10 -36 10 -48q0 -14 -6.5 -23.5t-16.5 -9.5q-9 0 -15.5 9.5t-6.5 21.5q0 16 10 49q11 36 11 64q-15 -9 -39 -33q-29 -29 -33 -32q-15 -12 -32 -12q-23 0 -23 18t23 29q3 2 52 15q31 8 50 20q-14 9 -53 20q-38 11 -49 17q-21 12 -21 29
q0 19 17 19q22 0 41 -19l32 -33q18 -17 35 -28q0 25 -10 60q-9 36 -9 49q0 14 6 23.5t16 9.5q23 0 23 -34q0 -8 -11 -47q-10 -37 -10 -61q25 15 45 35l31 33q14 11 32 11q22 0 22 -18t-20 -29q-14 -8 -48 -16q-40 -9 -61 -21q22 -12 75 -25q29 -8 42 -19q11 -11 11 -21
q0 -8 -5.5 -13.5t-13.5 -5.5q-16 0 -38 19z" />
    <glyph glyph-name="plus" unicode="+" horiz-adv-x="567" 
d="M40 284h218v242h51v-242h218v-42h-218v-242h-51v242h-218v42z" />
    <glyph glyph-name="comma" unicode="," horiz-adv-x="201" 
d="M56 -140l-10 21q84 51 84 98q0 16 -15 16l-27 -5q-19 0 -31 14t-12 36q0 20 13.5 35t32.5 15q29 0 47 -22t18 -57q0 -92 -100 -151z" />
    <glyph glyph-name="hyphen" unicode="-" horiz-adv-x="328" 
d="M45 274v40h238v-40h-238z" />
    <glyph glyph-name="period" unicode="." horiz-adv-x="187" 
d="M45 36q0 20 14 34.5t34 14.5t34.5 -14.5t14.5 -34.5t-14.5 -34t-34.5 -14t-34 14t-14 34z" />
    <glyph glyph-name="slash" unicode="/" horiz-adv-x="352" 
d="M49 -216h-54l278 987h53z" />
    <glyph glyph-name="zero" unicode="0" horiz-adv-x="579" 
d="M298 -12q-118 0 -179 134q-45 98 -45 227q0 155 55 260q61 113 169 113q121 0 181 -139q42 -98 42 -232q0 -84 -25 -165q-28 -87 -75 -139q-54 -59 -123 -59zM297 26q66 0 108 109q37 95 37 229q0 135 -27 216q-36 105 -115 105q-147 0 -147 -327q0 -168 52 -261
q40 -71 92 -71z" />
    <glyph glyph-name="one" unicode="1" horiz-adv-x="406" 
d="M216 641l-116 -36q-18 41 -31 70q88 2 214 48v-610q0 -80 20 -113h-66q-21 35 -21 110v531z" />
    <glyph glyph-name="two" unicode="2" horiz-adv-x="513" 
d="M152 45h165q88 0 126 18v-63h-389q5 23 79 157q48 88 51 94q165 270 165 345q-1 43 -30 67q-26 21 -69 21q-79 0 -159 -82l-26 64q37 24 91.5 39.5t100.5 15.5q83 0 128 -37q43 -37 43 -104q0 -34 -22.5 -83.5t-79.5 -142.5q-64 -105 -117.5 -200t-56.5 -109z" />
    <glyph glyph-name="three" unicode="3" horiz-adv-x="482" 
d="M405 714l-168 -222q225 -72 225 -258q0 -125 -77 -191q-63 -55 -164 -55q-37 0 -82.5 15.5t-75.5 37.5l25 62q29 -34 70.5 -55t81.5 -21q79 0 122 55q37 47 37 120q0 102 -90 174q-73 57 -169 69l167 220h-81q-74 0 -133 -19v68h312z" />
    <glyph glyph-name="four" unicode="4" horiz-adv-x="540" 
d="M322 0v197h-291l239 517h76l-215 -472h191v201h63v-201h97v-56q-27 11 -69 11h-28v-197h-63z" />
    <glyph glyph-name="five" unicode="5" horiz-adv-x="500" 
d="M167 502h5q135 -10 215 -80t80 -184q0 -117 -76 -188q-66 -62 -162 -62q-43 0 -88 14.5t-78 38.5l26 63q30 -36 70 -57t80 -21q76 0 122 56q38 47 38 115q0 117 -90 188q-77 60 -192 61v268h280v-68q-33 19 -142 19h-88v-163z" />
    <glyph glyph-name="six" unicode="6" horiz-adv-x="560" 
d="M477 686l-28 -60q-66 58 -123 58q-86 0 -132 -106q-29 -65 -39 -163h1q24 50 61 72t95 22q97 0 150 -95q41 -73 41 -173q0 -105 -61 -181q-59 -72 -146 -72q-125 0 -182 113q-41 84 -41 217q0 88 23 172q27 101 78 161q61 70 149 70q74 0 154 -35zM425 242q0 102 -31 162
q-35 67 -105 67q-67 0 -104 -66q-34 -58 -33 -153q1 -93 39 -159q38 -67 98 -67q72 0 109 75q27 57 27 141z" />
    <glyph glyph-name="seven" unicode="7" horiz-adv-x="476" 
d="M180 0h-73q33 132 71 248q94 293 171 417h-142q-78 0 -133 -19v68h372q-151 -240 -266 -714z" />
    <glyph glyph-name="eight" unicode="8" horiz-adv-x="537" 
d="M278 -12q-106 0 -164 66q-45 52 -45 124q0 119 151 230q-103 68 -103 152q0 93 68 135q44 27 102 27q74 0 118 -40q37 -34 37 -87q0 -42 -25.5 -77t-91.5 -80q104 -54 143 -128q28 -51 28 -121q0 -83 -61 -142t-157 -59zM255 388q-131 -95 -131 -202q0 -76 53 -118
q42 -33 99 -33q77 0 123 45q41 39 41 98q0 72 -63 133q-48 47 -122 77zM294 460q46 25 73.5 60.5t27.5 68.5q0 44 -31 71q-29 23 -74 23q-65 0 -99 -33q-25 -25 -25 -60q0 -33 37 -70.5t91 -59.5z" />
    <glyph glyph-name="nine" unicode="9" horiz-adv-x="560" 
d="M101 24l28 60q66 -58 123 -58q86 0 132 106q29 65 39 163h-1q-30 -51 -63 -72q-35 -22 -85 -22q-96 0 -153 92q-46 75 -46 176q0 105 61 181q59 72 146 72q125 0 182 -113q41 -84 41 -217q0 -88 -23 -172q-27 -101 -78 -161q-61 -70 -149 -70q-74 0 -154 35zM153 468
q0 -102 31 -162q35 -67 105 -67q69 0 107 72q31 60 30 147q-1 93 -39 159q-38 67 -98 67q-72 0 -109 -75q-27 -57 -27 -141z" />
    <glyph glyph-name="colon" unicode=":" horiz-adv-x="268" 
d="M86 36q0 20 14 34.5t34 14.5t34.5 -14.5t14.5 -34.5t-14.5 -34t-34.5 -14t-34 14t-14 34zM85 439q0 20 14 34.5t34 14.5t34.5 -14.5t14.5 -34.5t-14.5 -34t-34.5 -14t-34 14t-14 34z" />
    <glyph glyph-name="semicolon" unicode=";" horiz-adv-x="282" 
d="M85 448q0 20 14 34.5t34 14.5t34.5 -14.5t14.5 -34.5t-14.5 -34t-34.5 -14t-34 14t-14 34zM97 -140l-10 21q84 51 84 98q0 16 -15 16l-27 -5q-19 0 -31 14t-12 36q0 20 13.5 35t32.5 15q29 0 47 -22t18 -57q0 -92 -100 -151z" />
    <glyph glyph-name="less" unicode="&#x3c;" horiz-adv-x="534" 
d="M494 -12l-474 262q75 39 237 145q158 104 237 145v-59l-363 -231l363 -204v-58z" />
    <glyph glyph-name="equal" unicode="=" horiz-adv-x="567" 
d="M40 190h487v-42h-487v42zM40 380h487v-42h-487v42z" />
    <glyph glyph-name="greater" unicode="&#x3e;" horiz-adv-x="534" 
d="M514 250l-474 -262v58l363 204l-363 231v59q75 -39 237 -145q158 -104 237 -145z" />
    <glyph glyph-name="question" unicode="?" horiz-adv-x="442" 
d="M191 176l-32 -1q-4 31 -4 40q0 42 10 73q12 38 43 72l55 52q67 62 67 132v7q-2 58 -39 96q-37 37 -96 37q-65 0 -132 -71l-28 61q55 29 86.5 38t75.5 9q95 0 150 -67q45 -55 45 -133q0 -94 -115 -188q-50 -40 -68.5 -69.5t-18.5 -68.5q0 -12 1 -19zM131 36q0 20 14 34.5
t34 14.5t34.5 -14.5t14.5 -34.5t-14.5 -34t-34.5 -14t-34 14t-14 34z" />
    <glyph glyph-name="at" unicode="@" horiz-adv-x="918" 
d="M666 -67l4 -40q-59 -58 -138 -89q-67 -26 -134 -26q-144 0 -241 111q-97 113 -97 276q0 142 57 268q59 130 161 207q111 82 249 82q163 0 256 -133q75 -106 75 -251q0 -39 -6 -78q-20 -115 -74 -192q-57 -80 -133 -80q-49 0 -74 35q-22 30 -22 81q0 13 1 20h-2
q-65 -136 -169 -136q-62 0 -95 53q-29 47 -29 124q0 69 31 142q33 76 85 123q59 53 128 53q39 0 66 -22.5t34 -60.5h1q3 12 14 66h52q-79 -291 -79 -363q0 -37 16.5 -59.5t43.5 -22.5q81 0 133 129q38 92 38 175q0 155 -73 251q-84 107 -224 107q-125 0 -225 -79
q-90 -72 -142 -194q-49 -116 -49 -240q0 -151 78 -247q85 -109 229 -109q130 0 254 119zM526 142q53 113 53 216q0 45 -27 71q-23 21 -57 21q-83 0 -136 -120q-38 -86 -38 -167q0 -70 19 -107q18 -37 51 -37q42 0 81 40q30 32 54 83z" />
    <glyph glyph-name="A" unicode="A" horiz-adv-x="599" 
d="M591 0h-85q-23 21 -51 98l-66 182h-233l-63 -186q-15 -45 -15 -76q0 -8 2 -18h-63q-1 6 -1 20q0 32 14 74l175 506q23 65 23 86q0 17 -5 28h67q27 -18 60 -108l181 -501q30 -73 60 -105zM370 329l-98 289l-100 -289h198z" />
    <glyph glyph-name="B" unicode="B" horiz-adv-x="574" 
d="M303 0h-197q-23 30 -23 114v492q-1 44 -7 67.5t-21 40.5h244q73 0 127 -41q59 -45 59 -121q0 -54 -33 -98q-29 -38 -74 -54q64 -13 104 -60q42 -48 42 -117q0 -117 -67 -175q-57 -48 -154 -48zM167 45h88q188 0 188 173q0 75 -53 120q-45 39 -112 39h-124v-259
q0 -51 13 -73zM154 421h137q54 0 90 48q29 38 29 83q0 59 -44 90q-39 27 -107 27h-115q10 -21 10 -72v-176z" />
    <glyph glyph-name="C" unicode="C" horiz-adv-x="583" 
d="M525 93l21 -67q-26 -17 -72 -27.5t-97 -10.5q-163 0 -256 118q-76 98 -76 242q0 101 42 187q42 85 116 135q76 52 170 52q98 0 175 -45l-27 -63q-56 56 -140 56q-135 0 -202 -119q-49 -86 -49 -203q0 -136 73 -224q69 -84 178 -84q87 0 144 53z" />
    <glyph glyph-name="D" unicode="D" horiz-adv-x="632" 
d="M263 0h-155q-21 24 -21 113v493q-3 79 -32 108h209q160 0 249 -114q74 -96 74 -243q0 -85 -38 -165q-41 -85 -110 -136q-78 -56 -176 -56zM170 45h94q123 0 191 118q50 88 50 198q0 144 -74 228q-69 80 -188 80h-95q11 -53 11 -72v-472q0 -54 11 -80z" />
    <glyph glyph-name="E" unicode="E" horiz-adv-x="506" 
d="M158 55h184q102 0 129 9q-9 -34 -32 -49t-65 -15h-268q-23 26 -23 112v495q-1 41 -7 64.5t-21 42.5h283q89 0 110 -64q-24 8 -129 8h-171q6 -40 6 -54v-150h146q45 0 68 -15t34 -51q-27 9 -129 9h-119v-288q0 -35 4 -54z" />
    <glyph glyph-name="F" unicode="F" horiz-adv-x="484" 
d="M154 454h147q45 0 68 -15t34 -51q-27 9 -129 9h-120v-282q0 -69 22 -115h-71q-22 29 -22 112v495q-2 76 -28 107h292q81 0 102 -64q-24 8 -129 8h-173q7 -12 7 -60v-144z" />
    <glyph glyph-name="G" unicode="G" horiz-adv-x="625" 
d="M551 393v-279q0 -54 27 -111l2 -3h-210q-154 2 -242 104q-83 94 -83 252q0 92 40 174q42 87 117 137q82 55 187 55q37 0 80.5 -12.5t78.5 -32.5l-27 -63q-31 30 -65 43t-81 13q-65 0 -121 -39t-89 -108q-35 -74 -35 -167q0 -158 74 -239q68 -74 187 -72h89v233
q0 78 -17 115h88z" />
    <glyph glyph-name="H" unicode="H" horiz-adv-x="635" 
d="M80 112v487q0 76 -25 115h73q23 -26 23 -112v-181h335v178q0 65 -24 115h73q22 -25 22 -111v-488q0 -72 23 -115h-72q-22 25 -22 112v252h-335v-248q0 -73 23 -116h-72q-22 25 -22 112z" />
    <glyph glyph-name="I" unicode="I" horiz-adv-x="227" 
d="M79 112v487q0 65 -24 115h73q22 -25 22 -111v-488q0 -69 22 -115h-71q-22 25 -22 112z" />
    <glyph glyph-name="J" unicode="J" horiz-adv-x="436" 
d="M300 190v409q0 65 -24 115h73q22 -25 22 -111v-425q0 -94 -56 -146q-47 -44 -119 -44q-83 0 -161 51l29 64q28 -28 64 -45.5t68 -17.5q60 0 84 41q20 35 20 109z" />
    <glyph glyph-name="K" unicode="K" horiz-adv-x="551" 
d="M79 112v487q0 65 -24 115h73q22 -25 22 -111v-322q9 56 43 124q50 103 161 250l48 59h99l-65 -74q-60 -65 -117 -136.5t-71 -99.5h3q61 -13 113 -91q20 -29 59 -109q44 -90 72.5 -134t60.5 -70h-84q-15 9 -37 37t-40 62q-30 56 -97 194q-29 59 -66 76h-3
q-79 -128 -79 -210v-44q0 -69 22 -115h-71q-22 25 -22 112z" />
    <glyph glyph-name="L" unicode="L" horiz-adv-x="467" 
d="M79 112v487q0 65 -24 115h73q22 -25 22 -111v-494q0 -31 5 -54h183q102 0 129 9q-9 -34 -32 -49t-65 -15h-269q-22 25 -22 112z" />
    <glyph glyph-name="M" unicode="M" horiz-adv-x="728" 
d="M55 714h113q38 -21 60 -94q29 -100 86 -277q33 -100 62 -195q7 74 45 181q5 13 51 133l48 120q21 59 23 103q0 20 -4 29h89q23 -25 23 -110v-489q0 -69 22 -115h-72q-22 25 -22 112v504q-10 -86 -47 -183q-10 -27 -62 -145q-57 -130 -57 -212q0 -51 12 -76h-76l-170 530
q-17 53 -25.5 70.5t-20.5 22.5q10 -31 10 -121v-61v-326q0 -69 22 -115h-62q-22 25 -22 110v479q0 91 -26 125z" />
    <glyph glyph-name="N" unicode="N" horiz-adv-x="576" 
d="M446 321v278q0 63 -25 115h66q21 -24 21 -110v-480q0 -92 13 -124h-81q-16 21 -26.5 42.5t-51.5 115.5q-91 208 -202 425q-18 32 -29 40q11 -31 11 -115v-54v-339q0 -67 23 -115h-63q-22 25 -22 110v481q0 75 -25 123h105q29 -13 67 -93l233 -491q-14 70 -14 191z" />
    <glyph glyph-name="O" unicode="O" horiz-adv-x="703" 
d="M349 -12q-146 0 -232 121q-72 101 -72 245q0 95 39 180q40 85 108 135q71 53 157 53q89 0 161 -53q69 -50 109 -135q39 -84 39 -180q0 -171 -89 -272q-83 -94 -220 -94zM577 347q0 130 -58 223q-61 99 -169 99q-121 0 -182 -125q-41 -85 -41 -191q0 -129 56 -217
q62 -96 172 -96q120 0 180 115q42 82 42 192z" />
    <glyph glyph-name="P" unicode="P" horiz-adv-x="517" 
d="M79 111v487q0 64 -24 116h231q81 0 135 -56q51 -53 51 -133q0 -85 -57 -141q-54 -52 -138 -52h-127v-218q1 -76 22 -114h-71q-21 22 -22 111zM150 377h94q86 0 123 53q26 37 26 95q0 67 -47 108q-43 36 -110 36h-96q10 -21 10 -71v-221z" />
    <glyph glyph-name="Q" unicode="Q" horiz-adv-x="703" 
d="M479 18l13 -26q56 -107 84 -148t56 -59h-86q-25 15 -72 100l-62 112q-32 -9 -62 -9q-147 0 -233 121q-72 100 -72 245q0 97 37 180q38 86 105 135q72 53 163 53q89 0 162 -53q68 -50 107 -135q39 -84 39 -180q0 -122 -54 -214q-45 -77 -123 -122h-2zM127 353
q0 -138 60 -225q62 -88 168 -88q124 0 184 132q37 83 37 175q0 131 -57 223q-61 99 -168 99q-124 0 -183 -124q-41 -85 -41 -192z" />
    <glyph glyph-name="R" unicode="R" horiz-adv-x="571" 
d="M79 112v486q0 71 -24 116h187q109 0 171 -48q60 -47 61 -129q1 -70 -35 -111.5t-120 -65.5h-1q35 -10 61.5 -47t68.5 -135q49 -124 108 -178h-86q-24 18 -59 79t-54 120q-26 82 -61 115q-37 36 -96 36h-50v-235q0 -69 22 -115h-71q-22 25 -22 112zM150 392h48
q101 0 147 32q46 33 46 104q0 141 -153 141h-98q10 -21 10 -69v-208z" />
    <glyph glyph-name="S" unicode="S" horiz-adv-x="490" 
d="M45 44l33 77q39 -43 74.5 -62t78.5 -19q64 0 103 40q33 34 33 86q0 57 -35 99q-32 38 -117 95q-89 60 -121 99q-37 47 -37 106q0 77 62 122q50 35 119 35q86 0 189 -46l-29 -74q-70 67 -141 67q-57 0 -92 -27q-33 -26 -33 -69q0 -36 27.5 -67.5t101.5 -80.5
q100 -66 134 -107q50 -61 50 -140q0 -81 -63 -137q-61 -53 -153 -53q-89 0 -184 56z" />
    <glyph glyph-name="T" unicode="T" horiz-adv-x="543" 
d="M305 608v-493q0 -69 22 -115h-72q-22 25 -22 112v498q0 25 -5 48h-126q-66 0 -92 56h420q41 0 63.5 -14.5t34.5 -49.5q-27 9 -129 9h-97q3 -21 3 -51z" />
    <glyph glyph-name="U" unicode="U" horiz-adv-x="614" 
d="M79 214v385q0 65 -24 115h74q22 -25 22 -113v-379q0 -95 59 -145q45 -37 106 -37q73 0 117 50q44 49 44 133v381q0 64 -22 110h72q22 -31 22 -110v-390q0 -100 -68 -165q-65 -61 -170 -61q-118 0 -182 78q-50 62 -50 148z" />
    <glyph glyph-name="V" unicode="V" horiz-adv-x="593" 
d="M25 714h91q84 -240 157 -488l29 -102q12 -39 21 -59q4 92 53 231l89 253q22 70 22 123q0 25 -5 42h82q4 -20 4 -29q0 -54 -28 -130l-100 -242q-85 -210 -85 -298q0 -10 1 -15h-68q-33 29 -73 152z" />
    <glyph glyph-name="W" unicode="W" horiz-adv-x="872" 
d="M751 714h89q7 -22 7 -49q0 -45 -20 -109l-69 -215q-35 -110 -56 -189q-25 -109 -25 -142v-10h-67q-39 35 -74 152q-21 73 -91 331q-14 -70 -63 -220q-24 -70 -37 -115q-20 -70 -20 -123q0 -18 1 -25h-68q-40 41 -74 143q-18 52 -82 288l-77 283h89q128 -492 140 -542
q13 -53 31 -91q0 31 13.5 95.5t32.5 123.5q21 65 43 120q22 60 30 92q10 42 10 88q0 63 -29 114h81q125 -504 135 -539q11 -41 34 -92q3 56 59 261q43 155 54 207q13 61 13 102q0 31 -10 61z" />
    <glyph glyph-name="X" unicode="X" horiz-adv-x="569" 
d="M544 0h-92q-20 17 -59 84l-122 233h-2l-56 -79q-56 -82 -80.5 -133t-28.5 -95q0 -6 -1 -10h-78q6 47 36 104q35 65 122 189l60 80q-77 138 -136 250q-38 71 -61 91h84q15 -8 46 -65l110 -207l82 109q68 97 68 153v5v5h69q0 -39 -30 -94.5t-114 -172.5l-47 -63l151 -276
q28 -50 42.5 -70.5t36.5 -37.5z" />
    <glyph glyph-name="Y" unicode="Y" horiz-adv-x="538" 
d="M285 0h-77q19 22 28 38.5t27 60.5l51 129q-9 -13 -28.5 -22t-40.5 -9q-55 0 -86 39q-29 36 -42 110l-50 260q-13 70 -42 108h72q24 -24 41 -108l43 -248q19 -113 85 -113q21 0 37 9t20 23q56 182 93 328q13 57 13 91q0 8 -2 18h80q1 -4 1 -14q0 -46 -14 -93
q-18 -61 -81 -266t-72 -231q-27 -86 -56 -110z" />
    <glyph glyph-name="Z" unicode="Z" horiz-adv-x="534" 
d="M141 55h225q101 0 128 9q-9 -34 -32 -49t-65 -15h-372q1 13 28 60l347 597h-203q-105 0 -129 -8q21 65 99 65h342q-1 -17 -36 -77z" />
    <glyph glyph-name="bracketleft" unicode="[" horiz-adv-x="365" 
d="M193 721h-51v-891h51q61 0 97 7q-26 -39 -69 -48q-20 -4 -80 -4h-66v982h76q66 0 85 -6q32 -11 54 -47q-36 7 -97 7z" />
    <glyph glyph-name="backslash" unicode="\" horiz-adv-x="380" 
d="M359 -215h-54l-281 986h53z" />
    <glyph glyph-name="bracketright" unicode="]" horiz-adv-x="365" 
d="M223 721h-51q-61 0 -97 -7q25 40 62 49q18 4 77 4h76v-982h-66q-68 0 -90 7q-36 10 -59 45q36 -7 97 -7h51v891z" />
    <glyph glyph-name="asciicircum" unicode="^" horiz-adv-x="534" 
d="M449 390h-51l-131 227l-130 -227h-52q62 114 182 331q75 -135 182 -331z" />
    <glyph glyph-name="underscore" unicode="_" horiz-adv-x="405" 
d="M387 -42h-368v42h368v-42z" />
    <glyph glyph-name="grave" unicode="`" horiz-adv-x="219" 
d="M176 586h-10q-53 92 -116 115v12q51 17 58 17h2q10 -1 29.5 -44.5t36.5 -99.5z" />
    <glyph glyph-name="a" unicode="a" horiz-adv-x="452" 
d="M417 0h-67q-16 26 -22 73q-26 -38 -71 -61.5t-91 -23.5q-61 0 -100 40q-36 37 -36 93q0 68 62 115q26 20 104 57q68 32 94 56q35 31 35 70t-31 61q-25 18 -60 18q-27 0 -60 -19t-63 -51l-25 55q71 53 153 53q151 0 151 -148v-289q0 -47 27 -99zM323 118v214
q-16 -17 -30.5 -26.5t-79.5 -46.5q-56 -34 -76 -58q-27 -31 -27 -74q0 -46 23 -74q23 -27 61 -27q32 0 68.5 26t60.5 66z" />
    <glyph glyph-name="b" unicode="b" horiz-adv-x="518" 
d="M131 598v-127q24 30 60.5 47.5t76.5 17.5q111 0 169 -94q46 -72 46 -176q0 -124 -68 -203q-63 -75 -162 -75q-119 0 -189 98v512q0 81 -19 116h68q16 -24 18 -116zM131 421v-329q39 -66 113 -66q76 0 121 74q38 64 38 159q0 128 -52 191q-39 48 -95 48q-68 0 -125 -77z
" />
    <glyph glyph-name="c" unicode="c" horiz-adv-x="433" 
d="M279 498h-2q-86 0 -131 -93q-31 -63 -31 -135q0 -109 50 -180q44 -64 109 -64q56 0 109 55l25 -53q-53 -40 -140 -40q-111 0 -175 80q-58 72 -58 192q0 123 68 201q65 75 168 75q73 1 127 -29l-19 -58q-51 49 -100 49z" />
    <glyph glyph-name="d" unicode="d" horiz-adv-x="497" 
d="M442 599v-513q-21 -42 -74 -71q-49 -27 -101 -27q-118 0 -181 84q-51 69 -51 178q0 122 54 202q57 84 158 84q37 0 71 -17t57 -48v128q0 73 -25 115h71q21 -36 21 -115zM375 102v318q-54 78 -116 78q-67 0 -107 -68q-37 -63 -37 -170q0 -113 46 -176q41 -58 111 -58
q74 0 103 65v11z" />
    <glyph glyph-name="e" unicode="e" horiz-adv-x="437" 
d="M247 26q62 0 109 58l24 -53q-57 -43 -133 -43q-100 0 -161 86q-51 73 -51 174q0 135 68 216q61 72 155 72q76 0 113 -38q31 -32 31 -86t-41 -95q-32 -31 -93 -58q-148 -67 -148 -102q0 -18 11 -42t29 -44q39 -45 87 -45zM329 418q0 34 -20.5 57t-50.5 23q-74 0 -115 -91
q-31 -71 -31 -169q0 -24 1 -35q17 22 32 32.5t89 54.5q54 32 74.5 59.5t20.5 68.5z" />
    <glyph glyph-name="f" unicode="f" horiz-adv-x="353" 
d="M201 0h-69q-24 27 -24 114v366h-27q-45 0 -66 46h93v68q0 68 35 99q33 29 99 29q64 0 116 -29l-26 -52q-16 20 -39.5 32t-45.5 12q-38 0 -55 -20t-17 -65v-74h55q33 0 51 -12t26 -39q-19 5 -59 5h-73v-366q0 -73 26 -114z" />
    <glyph glyph-name="g" unicode="g" horiz-adv-x="492" 
d="M85 -176l26 52q60 -62 125 -62q134 0 134 215q-35 -41 -106 -41q-114 0 -178 88q-51 70 -51 169q0 124 55 205q57 86 158 86q79 0 122 -64v54h67v-482q0 -144 -52 -207q-49 -59 -152 -59q-84 0 -148 46zM370 101v313q0 9 -11 24.5t-27 28.5q-37 31 -72 31q-68 0 -108 -74
q-37 -70 -37 -185q0 -108 47 -164q41 -49 111 -49q39 0 68 21t29 54z" />
    <glyph glyph-name="h" unicode="h" horiz-adv-x="488" 
d="M428 395v-281q0 -46 4 -70t16 -44h-66q-12 20 -16.5 43t-4.5 68v265q0 105 -87 105q-49 0 -93 -39q-31 -27 -47 -61v-267q0 -64 27 -114h-67q-27 31 -27 114v498q0 60 -22 102h68q21 -24 21 -102v-171q26 43 70 69t94 26q130 0 130 -141z" />
    <glyph glyph-name="i" unicode="i" horiz-adv-x="206" 
d="M67 526h67v-408q0 -69 27 -118h-65q-29 32 -29 115v411zM57 680q0 18 12 30.5t30 12.5t30.5 -12.5t12.5 -30.5t-12.5 -30t-30.5 -12t-30 12t-12 30z" />
    <glyph glyph-name="j" unicode="j" horiz-adv-x="225" 
d="M96 -78v604h67v-580q0 -27 -2 -47q-16 -121 -147 -121q-70 0 -134 44l25 52q57 -59 108 -59q44 0 63.5 25t19.5 82zM85 680q0 18 12 30.5t30 12.5t30.5 -12.5t12.5 -30.5t-12.5 -30t-30.5 -12t-30 12t-12 30z" />
    <glyph glyph-name="k" unicode="k" horiz-adv-x="487" 
d="M487 0h-98q-27 23 -58 74q-20 34 -64 120q-25 43 -35 56q-21 24 -45 28h-3q-25 -25 -32.5 -44.5t-7.5 -58.5v-66q0 -63 25 -109h-70q-22 31 -22 111v496q0 65 -22 107h68q21 -22 21 -107v-341h4q-2 0 -4 -1h-2h1q30 79 113 160l103 101h84l-232 -221h3q36 -7 61.5 -27
t52.5 -64l89 -140q33 -47 70 -74z" />
    <glyph glyph-name="l" unicode="l" horiz-adv-x="206" 
d="M134 602v-488q0 -58 27 -114h-67q-27 31 -27 114v488q0 70 -22 112h68q12 -13 16.5 -37.5t4.5 -74.5z" />
    <glyph glyph-name="m" unicode="m" horiz-adv-x="756" 
d="M696 387v-273q0 -74 20 -114h-66q-21 24 -21 114v263q0 103 -89 103q-73 0 -131 -92v-274q0 -43 4 -66t17 -48h-66q-22 25 -22 114v264q0 53 -20 78t-62 25q-36 0 -74 -28t-59 -69v-270q0 -83 20 -114h-66q-12 19 -16.5 43t-4.5 71v412h67v-84q28 44 75 71q42 23 83 23
q98 0 120 -93q24 39 69.5 66t88.5 27q78 0 110 -47q23 -35 23 -102z" />
    <glyph glyph-name="n" unicode="n" horiz-adv-x="481" 
d="M421 394v-280q0 -46 4 -70t16 -44h-66q-12 20 -16.5 43t-4.5 68v264q0 106 -87 106q-49 0 -93 -43q-31 -29 -47 -65v-259q0 -64 27 -114h-67q-27 31 -27 114v310v102h67v-89q29 45 73.5 72t90.5 27q130 0 130 -142z" />
    <glyph glyph-name="o" unicode="o" horiz-adv-x="505" 
d="M254 -12q-110 0 -170 90q-49 73 -49 181q0 132 65 208q59 69 152 69q117 0 173 -89q45 -71 45 -188q0 -124 -65 -201q-59 -70 -151 -70zM255 26q78 0 113 96q21 58 23 139v19q0 216 -135 218q-80 1 -116 -83q-25 -58 -26 -147q-1 -95 33 -164q38 -78 108 -78z" />
    <glyph glyph-name="p" unicode="p" horiz-adv-x="514" 
d="M127 27v-129q0 -80 20 -113h-66q-12 19 -16.5 42.5t-4.5 68.5v630h67v-55q51 65 140 65q107 0 166 -93q46 -73 46 -176q0 -124 -66 -204q-62 -75 -161 -75q-66 0 -125 39zM127 421v-328q19 -29 51.5 -48t64.5 -19q75 0 119 75q37 64 37 159q0 124 -50 189q-39 49 -94 49
q-71 0 -128 -77z" />
    <glyph glyph-name="q" unicode="q" horiz-adv-x="506" 
d="M379 471v55h67v-631q1 -76 20 -110h-66q-21 25 -21 110v131q-51 -38 -108 -38q-119 0 -183 84q-53 69 -53 178q0 121 55 202q57 84 156 84q38 0 73.5 -17t59.5 -48zM379 91v329q-57 78 -121 78q-65 0 -105 -68q-38 -64 -38 -170q0 -112 48 -176q43 -58 113 -58
q29 0 59.5 19t43.5 46z" />
    <glyph glyph-name="r" unicode="r" horiz-adv-x="327" 
d="M60 526h67v-87q23 51 53.5 74t75.5 23q19 0 41 -9t34 -22l-22 -62q-14 14 -37.5 23t-46.5 9q-39 0 -71 -43q-27 -37 -27 -77v-246q0 -76 20 -109h-66q-12 19 -16.5 43t-4.5 68v415z" />
    <glyph glyph-name="s" unicode="s" horiz-adv-x="392" 
d="M40 27l26 54q55 -55 119 -55q49 0 76 33q20 26 20 61t-25 67t-86 74q-68 47 -93 77q-30 35 -30 73q0 64 54 99q41 26 93 26q63 0 138 -34l-23 -55q-56 51 -113 51q-37 0 -58.5 -18t-21.5 -49q0 -24 19.5 -46t75.5 -62q89 -63 115 -95.5t26 -78.5q0 -79 -57 -124
q-47 -37 -115 -37q-76 0 -140 39z" />
    <glyph glyph-name="t" unicode="t" horiz-adv-x="313" 
d="M170 480v-371q0 -64 27 -109h-66q-16 27 -22 50t-6 61v369h-73v41q26 0 52 14t45 39q29 38 43 70v-118h54q36 0 55 -13.5t27 -46.5q-22 14 -89 14h-47z" />
    <glyph glyph-name="u" unicode="u" horiz-adv-x="481" 
d="M421 526v-412q0 -83 20 -114h-66q-18 27 -21 79q-27 -41 -71.5 -66t-92.5 -25q-130 0 -130 143v395h67v-376q0 -107 87 -107q49 0 93 38q31 27 47 60v385h67z" />
    <glyph glyph-name="v" unicode="v" horiz-adv-x="444" 
d="M243 62h1q0 63 40 161q61 153 70 182q12 39 12 74q0 20 -8 47h65q6 -20 6 -37q0 -43 -14 -79q-21 -55 -57 -132q-48 -109 -65 -162q-18 -51 -18 -103q0 -9 1 -13h-62q-10 11 -19 29.5t-37 84.5q-38 87 -94 261q-12 37 -49 151h71l103 -310q29 -86 54 -154z" />
    <glyph glyph-name="w" unicode="w" horiz-adv-x="685" 
d="M549 0h-58q-25 27 -53 112q-18 54 -75 271q-11 -51 -45 -145q-38 -101 -49 -160q-7 -35 -7 -68v-10h-62q-21 26 -49 112q-125 375 -136 414h71l143 -464q4 49 36 163q17 58 45 127q31 76 31 106q0 29 -12 68h60l105 -397q10 -38 22 -67q1 37 11.5 88.5t24.5 90.5
q26 74 47 164q8 33 8 74q0 15 -8 47h65q6 -20 6 -37q0 -43 -11 -79q-18 -60 -59 -170q-52 -138 -52 -219q0 -15 1 -21z" />
    <glyph glyph-name="x" unicode="x" horiz-adv-x="479" 
d="M375 526h64q-3 -58 -48 -119q-35 -48 -128 -140l125 -193q38 -59 67 -74h-86q-25 16 -65 80l-91 143q-130 -141 -132 -223h-65q0 68 70 151q21 25 105 107l-171 268h80l142 -225q131 135 133 225z" />
    <glyph glyph-name="y" unicode="y" horiz-adv-x="472" 
d="M260 -215h-72q37 41 61 121l25 111q-10 -12 -28 -20.5t-35 -8.5q-50 0 -77 34.5t-47 122.5q-60 321 -72 381h73q12 -86 15 -109q12 -82 41 -263q18 -122 83 -122q32 0 56 26l92 348q9 35 9 68v10q0 24 -6 42h69q5 -16 5 -38q0 -27 -13 -86q-14 -50 -133 -504
q-21 -84 -46 -113z" />
    <glyph glyph-name="z" unicode="z" horiz-adv-x="463" 
d="M344 480h-189q-61 0 -79 -5q17 51 80 51h282q-2 -19 -35 -68q-41 -64 -277 -413h227q51 0 73 6q-13 -51 -88 -51h-313q6 26 46 84q69 102 273 396z" />
    <glyph glyph-name="braceleft" unicode="{" horiz-adv-x="270" 
d="M87 -61v231q0 72 -62 109q60 39 60 110v232q0 105 84 149h58q-43 -20 -67 -57t-24 -83v-235q0 -75 -70 -115q72 -38 72 -116v-234q0 -45 24 -82t68 -59h-59q-84 44 -84 150z" />
    <glyph glyph-name="bar" unicode="|" horiz-adv-x="208" 
d="M128 -212h-48v984h48v-984z" />
    <glyph glyph-name="braceright" unicode="}" horiz-adv-x="278" 
d="M185 621v-232q0 -71 60 -110q-62 -37 -62 -109v-231q0 -106 -84 -150h-59q44 22 68 59t24 82v234q0 78 72 116q-70 40 -70 115v235q0 46 -24 83t-67 57h58q84 -44 84 -149zM246 277h5l-5 -5v5zM252 279q1 0 1 -1t-2 -1q1 1 1 2z" />
    <glyph glyph-name="asciitilde" unicode="~" horiz-adv-x="432" 
d="M383 313l4 -14q-16 -20 -47 -33t-61 -12q-30 0 -63 14q-45 15 -86 15q-28 0 -80 -19l-5 16q37 40 112 40q22 0 58 -12q41 -15 83 -15q38 0 85 20z" />
    <glyph glyph-name="nonbreakingspace" unicode="&#xa0;" 
 />
    <glyph glyph-name="exclamdown" unicode="&#xa1;" horiz-adv-x="281" 
d="M130 357h21q4 -78 5 -116q2 -71 6 -140l20 -255v-3q0 -18 -12 -31t-28 -13t-29 14.5t-14 32.5zM93 484q0 20 14 34t34 14t34.5 -14t14.5 -34t-14.5 -34.5t-34.5 -14.5t-34 14.5t-14 34.5z" />
    <glyph glyph-name="cent" unicode="&#xa2;" horiz-adv-x="445" 
d="M316 -61h-37v49q-110 9 -168 89q-52 70 -52 183q0 115 63 193q59 74 153 82h5v45h36v-45h5q52 -3 102 -28l-20 -58q-37 39 -87 49v-471q43 7 91 55l25 -53q-41 -33 -116 -40v-50zM139 263q0 -92 42 -162q40 -67 98 -74v471q-79 -13 -116 -105q-24 -60 -24 -130z" />
    <glyph glyph-name="sterling" unicode="&#xa3;" horiz-adv-x="518" 
d="M194 47h161q104 0 128 8q-18 -55 -117 -55h-248q13 26 16.5 50t3.5 84v234h-38q-17 0 -35.5 13.5t-26.5 32.5h99l-1 108q0 108 56 161q43 39 109 39q93 0 173 -43l-31 -63q-57 69 -123 69q-59 0 -90 -48q-27 -41 -27 -108v-115h118q39 0 60 -12t29 -39q-17 5 -61 5h-146
v-217q0 -86 -9 -104z" />
    <glyph glyph-name="currency" unicode="&#xa4;" horiz-adv-x="662" 
d="M608 576l-101 -90q28 -67 28 -136q0 -65 -29 -123h1l97 -95l-54 -54l-85 94q-67 -47 -144 -47q-65 0 -129 43l-83 -90l-53 54l92 91h1q-28 51 -28 127q0 78 33 133h-1l-99 92l55 57l84 -97h7q52 43 128 43t129 -39h7l88 94zM329 169q68 1 105 74q24 49 25 108
q2 85 -31 135q-33 51 -99 51q-71 0 -105 -64q-25 -47 -26 -116q0 -75 34 -130q36 -59 97 -58z" />
    <glyph glyph-name="yen" unicode="&#xa5;" horiz-adv-x="520" 
d="M313 194v-79q0 -68 28 -115h-66q-29 33 -29 112v82h-177v44h177v89h-177v45h168q-13 31 -25 48l-193 294h83l126 -210q35 -56 55 -104h3q34 66 59 110q67 124 103 204h53l-186 -342h178v-45h-180v-89h180v-44h-180z" />
    <glyph glyph-name="brokenbar" unicode="&#xa6;" horiz-adv-x="210" 
d="M129 0h-48v300h48v-300zM129 450h-48v300h48v-300z" />
    <glyph glyph-name="section" unicode="&#xa7;" horiz-adv-x="469" 
d="M64 -177l27 69q82 -69 151 -69q57 0 88 35q27 29 27 74v6q-2 43 -40.5 78t-148.5 94q-72 41 -101 78q-28 36 -28 81q0 63 59 109q40 31 97 47v1q-70 37 -101 68q-41 41 -41 89q0 80 73 115q48 24 119 24q72 0 164 -40l-25 -57q-74 59 -151 59q-41 0 -75 -22
q-35 -23 -35 -60q0 -47 54 -84q3 -2 89 -51q92 -52 123 -88q40 -44 40 -107q1 -61 -53 -101q-47 -35 -110 -34v-2q163 -77 163 -183q0 -83 -60 -128q-51 -38 -136 -41h-8q-39 0 -84.5 11t-76.5 29zM224 166h1q5 -1 15 -1q53 0 89 32q32 28 32 69q0 43 -42 84q-34 33 -80 51
q-49 -3 -91 -39q-38 -34 -38 -75q0 -71 114 -121z" />
    <glyph glyph-name="dieresis" unicode="&#xa8;" horiz-adv-x="320" 
d="M25 631q0 19 13 32t32 13t32 -13t13 -32t-13 -32t-32 -13q-20 0 -32.5 12.5t-12.5 32.5zM205 631q0 19 13 32t32 13t32 -13t13 -32t-13 -32t-32 -13q-20 0 -32.5 12.5t-12.5 32.5z" />
    <glyph glyph-name="copyright" unicode="&#xa9;" horiz-adv-x="782" 
d="M407 563h-1q-77 0 -118 -76q-29 -54 -29 -121q0 -93 49 -151q43 -50 101 -50q48 0 96 48l22 -46q-47 -36 -123 -36q-46 0 -91 24q-50 27 -80 75q-34 55 -34 127q0 103 65 175q57 64 136 64q67 0 112 -26l-17 -51q-44 44 -88 44zM30 362q0 98 49 182q48 82 130 130
q84 49 182 49t182 -49q82 -48 130 -130q49 -84 49 -182t-49 -182q-48 -82 -130 -130q-84 -49 -182 -49t-182 49q-82 48 -130 130q-49 84 -49 182zM55 361q0 -91 46 -169q45 -76 121 -121q79 -46 170 -46t169 46q75 45 120 121q46 78 46 169t-46 169q-45 76 -120 121
q-78 46 -169 46t-170 -46q-76 -45 -121 -121q-46 -78 -46 -169z" />
    <glyph glyph-name="ordfeminine" unicode="&#xaa;" horiz-adv-x="368" 
d="M238 409q-46 -49 -92 -49q-34 0 -55.5 22t-21.5 57q0 39 24.5 63.5t86.5 45.5q58 23 58 67q0 41 -50 41q-34 0 -73 -25l-18 32q48 23 88 23q99 0 99 -94v-160q0 -44 12 -68h-49q-9 14 -9 38v7zM238 438v114q-4 -7 -22 -19t-38 -20q-65 -27 -65 -67q0 -20 15.5 -33.5
t38.5 -13.5q21 0 41 11t30 28z" />
    <glyph glyph-name="guillemotleft" unicode="&#xab;" horiz-adv-x="361" 
d="M302 435l22 -23l-87 -152l87 -154l-22 -21l-143 175zM174 435l21 -23l-87 -152l88 -154l-22 -21l-144 175z" />
    <glyph glyph-name="logicalnot" unicode="&#xac;" horiz-adv-x="658" 
d="M543 145v197h-458v56h488v-253h-30z" />
    <glyph glyph-name="uni00AD" unicode="&#xad;" horiz-adv-x="410" 
 />
    <glyph glyph-name="registered" unicode="&#xae;" horiz-adv-x="783" 
d="M580 148h-52q-45 77 -69 123q-29 56 -44 69q-28 31 -72 31h-41v-223h-41l1 456h137q56 -3 91 -30q36 -27 36 -73v-6q-4 -100 -94 -118h-4l1 -4h4q19 -3 60 -73q58 -102 87 -152zM301 396h61q118 0 118 96q0 89 -119 89h-60v-185zM30 363q0 98 49 182q48 82 130 130
q84 49 182 49t182 -49q82 -48 130 -130q49 -84 49 -182t-49 -182q-48 -82 -130 -130q-84 -49 -182 -49t-182 49q-82 48 -130 130q-49 84 -49 182zM55 362q0 -91 46 -169q45 -76 121 -121q79 -46 170 -46t169 46q75 45 120 121q46 78 46 169t-46 169q-45 76 -120 121
q-78 46 -169 46t-170 -46q-76 -45 -121 -121q-46 -78 -46 -169z" />
    <glyph glyph-name="macron" unicode="&#xaf;" horiz-adv-x="361" 
d="M82 652h197v-42h-197v42z" />
    <glyph glyph-name="degree" unicode="&#xb0;" horiz-adv-x="400" 
d="M200 750q65 0 111 -50q40 -44 40 -100q0 -67 -47 -111q-42 -40 -104 -40q-68 0 -112 49q-39 44 -39 104q0 65 48 109q43 39 103 39zM199 708q-48 0 -79 -39q-24 -30 -24 -68q0 -46 32 -80q30 -31 73 -31q38 0 68 26q35 30 35 85q0 43 -35 77q-31 30 -70 30z" />
    <glyph glyph-name="plusminus" unicode="&#xb1;" horiz-adv-x="577" 
d="M40 362h218v224h51v-224h218v-42h-218v-234h-51v234h-218v42zM50 42h487v-42h-487v42z" />
    <glyph glyph-name="twosuperior" unicode="&#xb2;" horiz-adv-x="331" 
d="M131 388h100q34 0 45 4v-38h-211q10 33 69 130q43 71 58 102.5t15 51.5q0 32 -12.5 46t-41.5 14q-36 0 -82 -49q-4 11 -9 19q-8 19 -9 23q58 41 114 41q38 0 65 -21t27 -56t-16 -72t-66 -120z" />
    <glyph glyph-name="threesuperior" unicode="&#xb3;" horiz-adv-x="281" 
d="M43 364l21 40q29 -21 58 -21q36 0 57 26q16 20 16 46q0 53 -44 85q-33 25 -85 34l73 114h-26q-42 0 -62 -6v39h155q-20 -24 -44 -65q-24 -38 -36 -54h2q51 -17 78 -53q25 -32 25 -74q0 -58 -37 -94q-35 -32 -89 -32q-34 0 -62 15z" />
    <glyph glyph-name="acute" unicode="&#xb4;" horiz-adv-x="219" 
d="M60 586h-10q17 56 36.5 99.5t29.5 44.5h2q7 0 58 -17v-12q-63 -23 -116 -115z" />
    <glyph glyph-name="mu" unicode="&#xb5;" horiz-adv-x="491" 
d="M150 -215h-69q-21 24 -21 110v631h64v-371q0 -55 34 -85q29 -25 70 -25q47 0 88 37q33 30 40 63v381h64v-419q0 -63 26 -107h-67q-18 24 -23 98q-16 -50 -57 -81q-39 -29 -87 -29q-55 0 -88 36v-122q0 -70 26 -117z" />
    <glyph glyph-name="paragraph" unicode="&#xb6;" horiz-adv-x="525" 
d="M456 714v-600q0 -64 24 -114h-55q-21 24 -21 114v555h-102v-555q0 -64 24 -114h-55q-21 24 -21 114v263h-5q-61 0 -109 45q-48 46 -50 116q-2 76 44 126q45 50 123 50h203z" />
    <glyph glyph-name="periodcentered" unicode="&#xb7;" horiz-adv-x="264" 
d="M92 281q0 20 14 34.5t34 14.5t34.5 -14.5t14.5 -34.5t-14.5 -34t-34.5 -14t-34 14t-14 34z" />
    <glyph glyph-name="cedilla" unicode="&#xb8;" horiz-adv-x="298" 
d="M139 0h31l-36 -45q21 8 38 8q35 0 56.5 -20.5t21.5 -54.5q0 -39 -35 -64q-31 -22 -76 -22q-36 0 -82 15l20 41q37 -23 70 -23q59 0 59 50q0 24 -19.5 38.5t-50.5 14.5q-20 0 -36 -9l-10 10z" />
    <glyph glyph-name="onesuperior" unicode="&#xb9;" horiz-adv-x="304" 
d="M176 424v229h-2l-100 -35l-21 42q79 11 172 61v-283q0 -56 10 -84h-49q-10 21 -10 70z" />
    <glyph glyph-name="ordmasculine" unicode="&#xba;" horiz-adv-x="422" 
d="M231 367q-60 0 -98 51q-33 45 -33 107q0 75 45 121q38 40 91 40q62 0 101 -51q34 -45 34 -110q0 -72 -45 -118q-39 -40 -95 -40zM233 402q49 1 75 49q17 34 18 75v13q0 117 -88 118q-43 1 -67 -32t-25 -95q0 -54 20 -89q23 -40 67 -39z" />
    <glyph glyph-name="guillemotright" unicode="&#xbb;" horiz-adv-x="361" 
d="M59 435l144 -175l-144 -175l-22 21l88 154l-88 152zM188 435l143 -175l-143 -175l-22 21l87 154l-87 152z" />
    <glyph glyph-name="onequarter" unicode="&#xbc;" horiz-adv-x="798" 
d="M647 0h-36v105h-177q1 2 11 25l120 248h44l-113 -242h115v99h36v-99h51v-32q-3 1 -25 1h-26v-105zM176 424v229h-2l-100 -35l-21 42q79 11 172 61v-283q0 -56 10 -84h-49q-10 21 -10 70zM187 0h-54l473 740h52z" />
    <glyph glyph-name="onehalf" unicode="&#xbd;" horiz-adv-x="805" 
d="M603 34h100q34 0 45 4v-38h-211q10 33 69 130q43 71 58 102.5t15 51.5q0 32 -12.5 46t-41.5 14q-36 0 -82 -49q-4 11 -9 19q-8 19 -9 23q58 41 114 41q38 0 65 -21t27 -56t-16 -72t-66 -120zM176 424v229h-2l-100 -35l-21 42q79 11 172 61v-283q0 -56 10 -84h-49
q-10 21 -10 70zM187 0h-54l473 740h52z" />
    <glyph glyph-name="threequarters" unicode="&#xbe;" horiz-adv-x="741" 
d="M53 364l21 40q29 -21 58 -21q36 0 57 26q16 20 16 46q0 46 -32.5 77t-92.5 42l73 114h-30q-42 0 -62 -6v39h155q-20 -24 -44 -65q-24 -38 -36 -54h2q51 -17 78 -53q25 -32 25 -74q0 -58 -37 -94q-35 -32 -89 -32q-34 0 -62 15zM647 0h-36v105h-177q1 2 11 25l120 248h44
l-113 -242h115v99h36v-99h51v-32q-3 1 -25 1h-26v-105zM177 0h-54l473 740h52z" />
    <glyph glyph-name="questiondown" unicode="&#xbf;" horiz-adv-x="377" 
d="M266 349l32 1q4 -31 4 -62q0 -37 -10 -81q-9 -33 -30 -63t-68 -74q-67 -62 -67 -132v-7q2 -58 39 -96q37 -37 96 -37q65 0 132 71l28 -61q-55 -29 -86.5 -38t-75.5 -9q-95 0 -150 67q-45 55 -45 133q0 100 115 194q87 70 87 172q0 15 -1 22zM326 489q0 -20 -14 -34.5
t-34 -14.5t-34.5 14.5t-14.5 34.5t14.5 34t34.5 14t34 -14t14 -34z" />
    <glyph glyph-name="Agrave" unicode="&#xc0;" horiz-adv-x="599" 
d="M591 0h-85q-23 21 -51 98l-66 182h-233l-63 -186q-15 -45 -15 -76q0 -8 2 -18h-63q-1 6 -1 20q0 32 14 74l175 506q23 65 23 86q0 17 -5 28h67q27 -18 60 -108l181 -501q30 -73 60 -105zM370 329l-98 289l-100 -289h198zM270 774h-10q-53 92 -116 115v12q52 17 58 17h2
q10 -1 29.5 -44.5t36.5 -99.5z" />
    <glyph glyph-name="Aacute" unicode="&#xc1;" horiz-adv-x="599" 
d="M591 0h-85q-23 21 -51 98l-66 182h-233l-63 -186q-15 -45 -15 -76q0 -8 2 -18h-63q-1 6 -1 20q0 32 14 74l175 506q23 65 23 86q0 17 -5 28h67q27 -18 60 -108l181 -501q30 -73 60 -105zM370 329l-98 289l-100 -289h198zM265 774h-10q17 56 36.5 99.5t29.5 44.5h3
q6 0 57 -17v-12q-63 -23 -116 -115z" />
    <glyph glyph-name="Acircumflex" unicode="&#xc2;" horiz-adv-x="599" 
d="M591 0h-85q-23 21 -51 98l-66 182h-233l-63 -186q-15 -45 -15 -76q0 -8 2 -18h-63q-1 6 -1 20q0 32 14 74l175 506q23 65 23 86q0 17 -5 28h67q27 -18 60 -108l181 -501q30 -73 60 -105zM370 329l-98 289l-100 -289h198zM377 774h-23q-14 21 -43 45.5t-47 30.5
q-38 -12 -92 -76h-22q41 89 114 127q71 -38 113 -127z" />
    <glyph glyph-name="Atilde" unicode="&#xc3;" horiz-adv-x="599" 
d="M591 0h-85q-23 21 -51 98l-66 182h-233l-63 -186q-15 -45 -15 -76q0 -8 2 -18h-63q-1 6 -1 20q0 32 14 74l175 506q23 65 23 86q0 17 -5 28h67q27 -18 60 -108l181 -501q30 -73 60 -105zM370 329l-98 289l-100 -289h198zM419 844l4 -9q-19 -23 -46.5 -39t-49.5 -16
q-20 0 -56 11l-44 15q-18 5 -33 5q-21 0 -66 -21l-4 10q43 46 98 46q16 0 56 -15q34 -13 67 -13q34 0 74 26z" />
    <glyph glyph-name="Adieresis" unicode="&#xc4;" horiz-adv-x="599" 
d="M591 0h-85q-23 21 -51 98l-66 182h-233l-63 -186q-15 -45 -15 -76q0 -8 2 -18h-63q-1 6 -1 20q0 32 14 74l175 506q23 65 23 86q0 17 -5 28h67q27 -18 60 -108l181 -501q30 -73 60 -105zM370 329l-98 289l-100 -289h198zM132 819q0 19 13 32t32 13t32 -13t13 -32t-13 -32
t-32 -13q-20 0 -32.5 12.5t-12.5 32.5zM312 819q0 19 13 32t32 13t32 -13t13 -32t-13 -32t-32 -13q-20 0 -32.5 12.5t-12.5 32.5z" />
    <glyph glyph-name="Aring" unicode="&#xc5;" horiz-adv-x="599" 
d="M591 0h-85q-23 21 -51 98l-66 182h-233l-63 -186q-15 -45 -15 -76q0 -8 2 -18h-63q-1 6 -1 20q0 32 14 74l175 506q23 65 23 86q0 17 -5 28h67q27 -18 60 -108l181 -501q30 -73 60 -105zM370 329l-98 289l-100 -289h198zM334 843q0 -30 -19 -50t-48 -20q-30 0 -48 19
t-18 51q0 27 19 45t47 18q29 0 48 -17.5t19 -45.5zM267 794q15 0 21 11t6 38q0 45 -27 45t-27 -45q0 -49 27 -49z" />
    <glyph glyph-name="AE" unicode="&#xc6;" horiz-adv-x="801" 
d="M453 55h184q102 0 129 9q-9 -34 -32 -49t-65 -15h-269q-22 25 -22 112v203h-173q-37 -81 -91 -221q-15 -42 -15 -76q0 -8 2 -18h-66q-1 5 -1 17q0 26 14 77q159 371 197 467.5t38 124.5q0 17 -5 28h365q79 0 100 -65q-24 8 -129 8h-172q7 -18 7 -60v-225h146
q45 0 68.5 -15t33.5 -51q-27 9 -129 9h-119v-206q0 -35 4 -54zM329 621l-107 -252h156v293q-19 1 -28.5 -7t-20.5 -34z" />
    <glyph glyph-name="Ccedilla" unicode="&#xc7;" horiz-adv-x="583" 
d="M525 93l21 -67q-55 -36 -166 -38l-26 -33q21 8 38 8q35 0 56.5 -20.5t21.5 -54.5q0 -39 -35 -64q-31 -22 -76 -22q-36 0 -82 15l20 41q37 -23 70 -23q59 0 59 50q0 24 -19.5 38.5t-50.5 14.5q-20 0 -36 -9l-10 10l40 50q-151 10 -235 125q-70 96 -70 234q0 101 42 187
q42 85 116 135q76 52 170 52q98 0 175 -45l-27 -63q-56 56 -140 56q-135 0 -202 -119q-49 -86 -49 -203q0 -136 73 -224q69 -84 178 -84q87 0 144 53z" />
    <glyph glyph-name="Egrave" unicode="&#xc8;" horiz-adv-x="506" 
d="M158 55h184q102 0 129 9q-9 -34 -32 -49t-65 -15h-268q-23 26 -23 112v495q-1 41 -7 64.5t-21 42.5h283q89 0 110 -64q-24 8 -129 8h-171q6 -40 6 -54v-150h146q45 0 68 -15t34 -51q-27 9 -129 9h-119v-288q0 -35 4 -54zM265 774h-10q-53 92 -116 115v12q51 17 58 17h2
q10 -1 29.5 -44.5t36.5 -99.5z" />
    <glyph glyph-name="Eacute" unicode="&#xc9;" horiz-adv-x="506" 
d="M158 55h184q102 0 129 9q-9 -34 -32 -49t-65 -15h-268q-23 26 -23 112v495q-1 41 -7 64.5t-21 42.5h283q89 0 110 -64q-24 8 -129 8h-171q6 -40 6 -54v-150h146q45 0 68 -15t34 -51q-27 9 -129 9h-119v-288q0 -35 4 -54zM240 774h-10q17 56 36.5 99.5t29.5 44.5h2
q7 0 58 -17v-12q-63 -23 -116 -115z" />
    <glyph glyph-name="Ecircumflex" unicode="&#xca;" horiz-adv-x="506" 
d="M158 55h184q102 0 129 9q-9 -34 -32 -49t-65 -15h-268q-23 26 -23 112v495q-1 41 -7 64.5t-21 42.5h283q89 0 110 -64q-24 8 -129 8h-171q6 -40 6 -54v-150h146q45 0 68 -15t34 -51q-27 9 -129 9h-119v-288q0 -35 4 -54zM357 774h-23q-14 21 -43 45.5t-47 30.5
q-38 -12 -92 -76h-22q41 89 114 127q71 -38 113 -127z" />
    <glyph glyph-name="Edieresis" unicode="&#xcb;" horiz-adv-x="506" 
d="M158 55h184q102 0 129 9q-9 -34 -32 -49t-65 -15h-268q-23 26 -23 112v495q-1 41 -7 64.5t-21 42.5h283q89 0 110 -64q-24 8 -129 8h-171q6 -40 6 -54v-150h146q45 0 68 -15t34 -51q-27 9 -129 9h-119v-288q0 -35 4 -54zM107 823q0 19 13 32t32 13t32 -13t13 -32t-13 -32
t-32 -13q-20 0 -32.5 12.5t-12.5 32.5zM287 823q0 19 13 32t32 13t32 -13t13 -32t-13 -32t-32 -13q-20 0 -32.5 12.5t-12.5 32.5z" />
    <glyph glyph-name="Igrave" unicode="&#xcc;" horiz-adv-x="227" 
d="M79 112v487q0 65 -24 115h73q22 -25 22 -111v-488q0 -69 22 -115h-71q-22 25 -22 112zM116 772h-10q-53 92 -116 115v12q51 17 58 17h2q10 -1 29.5 -44.5t36.5 -99.5z" />
    <glyph glyph-name="Iacute" unicode="&#xcd;" horiz-adv-x="227" 
d="M79 112v487q0 65 -24 115h73q22 -25 22 -111v-488q0 -69 22 -115h-71q-22 25 -22 112zM91 774h-10q17 56 36.5 99.5t29.5 44.5h2q7 0 58 -17v-12q-63 -23 -116 -115z" />
    <glyph glyph-name="Icircumflex" unicode="&#xce;" horiz-adv-x="227" 
d="M79 112v487q0 65 -24 115h73q22 -25 22 -111v-488q0 -69 22 -115h-71q-22 25 -22 112zM209 774h-23q-14 21 -43 45.5t-47 30.5q-38 -12 -92 -76h-22q41 89 114 127q71 -38 113 -127z" />
    <glyph glyph-name="Idieresis" unicode="&#xcf;" horiz-adv-x="227" 
d="M79 112v487q0 65 -24 115h73q22 -25 22 -111v-488q0 -69 22 -115h-71q-22 25 -22 112zM-32 822q0 19 13 32t32 13t32 -13t13 -32t-13 -32t-32 -13q-20 0 -32.5 12.5t-12.5 32.5zM148 822q0 19 13 32t32 13t32 -13t13 -32t-13 -32t-32 -13q-20 0 -32.5 12.5t-12.5 32.5z
" />
    <glyph glyph-name="Eth" unicode="&#xd0;" horiz-adv-x="632" 
d="M87 322h-53v51h53v233q-3 79 -32 108h209q160 0 249 -114q74 -96 74 -243q0 -85 -38 -165q-41 -85 -110 -136q-78 -56 -176 -56h-155q-21 24 -21 113v209zM159 322v-197q0 -54 11 -80h94q123 0 191 118q50 88 50 198q0 144 -74 228q-69 80 -188 80h-95q11 -53 11 -72
v-224h153v-51h-153z" />
    <glyph glyph-name="Ntilde" unicode="&#xd1;" horiz-adv-x="576" 
d="M446 321v278q0 63 -25 115h66q21 -24 21 -110v-480q0 -92 13 -124h-81q-16 21 -26.5 42.5t-51.5 115.5q-91 208 -202 425q-18 32 -29 40q11 -31 11 -115v-54v-339q0 -67 23 -115h-63q-22 25 -22 110v481q0 75 -25 123h105q29 -13 67 -93l233 -491q-14 70 -14 191z
M454 842l4 -9q-19 -23 -46.5 -39t-49.5 -16q-20 0 -56 11l-44 15q-18 5 -33 5q-21 0 -66 -21l-4 10q43 46 98 46q16 0 56 -15q34 -13 67 -13q34 0 74 26z" />
    <glyph glyph-name="Ograve" unicode="&#xd2;" horiz-adv-x="703" 
d="M349 -12q-146 0 -232 121q-72 101 -72 245q0 95 39 180q40 85 108 135q71 53 157 53q89 0 161 -53q69 -50 109 -135q39 -84 39 -180q0 -171 -89 -272q-83 -94 -220 -94zM577 347q0 130 -58 223q-61 99 -169 99q-121 0 -182 -125q-41 -85 -41 -191q0 -129 56 -217
q62 -96 172 -96q120 0 180 115q42 82 42 192zM368 773h-10q-53 92 -116 115v12q51 17 58 17h2q10 -1 29.5 -44.5t36.5 -99.5z" />
    <glyph glyph-name="Oacute" unicode="&#xd3;" horiz-adv-x="703" 
d="M349 -12q-146 0 -232 121q-72 101 -72 245q0 95 39 180q40 85 108 135q71 53 157 53q89 0 161 -53q69 -50 109 -135q39 -84 39 -180q0 -171 -89 -272q-83 -94 -220 -94zM577 347q0 130 -58 223q-61 99 -169 99q-121 0 -182 -125q-41 -85 -41 -191q0 -129 56 -217
q62 -96 172 -96q120 0 180 115q42 82 42 192zM313 772h-10q17 56 36.5 99.5t29.5 44.5h2q7 0 58 -17v-12q-63 -23 -116 -115z" />
    <glyph glyph-name="Ocircumflex" unicode="&#xd4;" horiz-adv-x="703" 
d="M349 -12q-146 0 -232 121q-72 101 -72 245q0 95 39 180q40 85 108 135q71 53 157 53q89 0 161 -53q69 -50 109 -135q39 -84 39 -180q0 -171 -89 -272q-83 -94 -220 -94zM577 347q0 130 -58 223q-61 99 -169 99q-121 0 -182 -125q-41 -85 -41 -191q0 -129 56 -217
q62 -96 172 -96q120 0 180 115q42 82 42 192zM467 774h-23q-14 21 -43 45.5t-47 30.5q-38 -12 -92 -76h-22q41 89 114 127q71 -38 113 -127z" />
    <glyph glyph-name="Otilde" unicode="&#xd5;" horiz-adv-x="703" 
d="M349 -12q-146 0 -232 121q-72 101 -72 245q0 95 39 180q40 85 108 135q71 53 157 53q89 0 161 -53q69 -50 109 -135q39 -84 39 -180q0 -171 -89 -272q-83 -94 -220 -94zM577 347q0 130 -58 223q-61 99 -169 99q-121 0 -182 -125q-41 -85 -41 -191q0 -129 56 -217
q62 -96 172 -96q120 0 180 115q42 82 42 192zM497 843l4 -9q-19 -23 -46.5 -39t-49.5 -16q-20 0 -56 11l-44 15q-18 5 -33 5q-21 0 -66 -21l-4 10q43 46 98 46q16 0 56 -15q34 -13 67 -13q34 0 74 26z" />
    <glyph glyph-name="Odieresis" unicode="&#xd6;" horiz-adv-x="703" 
d="M349 -12q-146 0 -232 121q-72 101 -72 245q0 95 39 180q40 85 108 135q71 53 157 53q89 0 161 -53q69 -50 109 -135q39 -84 39 -180q0 -171 -89 -272q-83 -94 -220 -94zM577 347q0 130 -58 223q-61 99 -169 99q-121 0 -182 -125q-41 -85 -41 -191q0 -129 56 -217
q62 -96 172 -96q120 0 180 115q42 82 42 192zM220 819q0 19 13 32t32 13t32 -13t13 -32t-13 -32t-32 -13q-20 0 -32.5 12.5t-12.5 32.5zM400 819q0 19 13 32t32 13t32 -13t13 -32t-13 -32t-32 -13q-20 0 -32.5 12.5t-12.5 32.5z" />
    <glyph glyph-name="multiply" unicode="&#xd7;" horiz-adv-x="554" 
d="M40 36l203 230l-203 224l35 36l202 -221l201 221l36 -36l-205 -224l205 -230l-36 -36l-201 227l-203 -227z" />
    <glyph glyph-name="Oslash" unicode="&#xd8;" horiz-adv-x="695" 
d="M590 751l-54 -107q59 -55 91 -139q27 -72 27 -151q0 -171 -89 -272q-83 -94 -220 -94q-67 0 -125 28l-46 -92l-60 2l59 119q-67 52 -102 141q-30 77 -30 168q0 97 37 180q38 86 105 135q72 53 162 53q76 0 144 -42l37 73zM204 108l260 521q-48 40 -113 40
q-123 0 -178 -125q-36 -81 -36 -191q0 -161 67 -245zM504 581l-257 -512q44 -29 104 -29q119 0 173 119q37 80 37 188q0 143 -57 234z" />
    <glyph glyph-name="Ugrave" unicode="&#xd9;" horiz-adv-x="614" 
d="M79 214v385q0 65 -24 115h74q22 -25 22 -113v-379q0 -95 59 -145q45 -37 106 -37q73 0 117 50q44 49 44 133v381q0 64 -22 110h72q22 -31 22 -110v-390q0 -100 -68 -165q-65 -61 -170 -61q-118 0 -182 78q-50 62 -50 148zM319 773h-10q-53 92 -116 115v12q51 17 58 17h2
q10 -1 29.5 -44.5t36.5 -99.5z" />
    <glyph glyph-name="Uacute" unicode="&#xda;" horiz-adv-x="614" 
d="M79 214v385q0 65 -24 115h74q22 -25 22 -113v-379q0 -95 59 -145q45 -37 106 -37q73 0 117 50q44 49 44 133v381q0 64 -22 110h72q22 -31 22 -110v-390q0 -100 -68 -165q-65 -61 -170 -61q-118 0 -182 78q-50 62 -50 148zM291 773h-10q17 56 36.5 99.5t29.5 44.5h2
q7 0 58 -17v-12q-63 -23 -116 -115z" />
    <glyph glyph-name="Ucircumflex" unicode="&#xdb;" horiz-adv-x="614" 
d="M79 214v385q0 65 -24 115h74q22 -25 22 -113v-379q0 -95 59 -145q45 -37 106 -37q73 0 117 50q44 49 44 133v381q0 64 -22 110h72q22 -31 22 -110v-390q0 -100 -68 -165q-65 -61 -170 -61q-118 0 -182 78q-50 62 -50 148zM412 774h-23q-14 21 -43 45.5t-47 30.5
q-38 -12 -92 -76h-22q41 89 114 127q71 -38 113 -127z" />
    <glyph glyph-name="Udieresis" unicode="&#xdc;" horiz-adv-x="614" 
d="M79 214v385q0 65 -24 115h74q22 -25 22 -113v-379q0 -95 59 -145q45 -37 106 -37q73 0 117 50q44 49 44 133v381q0 64 -22 110h72q22 -31 22 -110v-390q0 -100 -68 -165q-65 -61 -170 -61q-118 0 -182 78q-50 62 -50 148zM168 819q0 19 13 32t32 13t32 -13t13 -32
t-13 -32t-32 -13q-20 0 -32.5 12.5t-12.5 32.5zM348 819q0 19 13 32t32 13t32 -13t13 -32t-13 -32t-32 -13q-20 0 -32.5 12.5t-12.5 32.5z" />
    <glyph glyph-name="Yacute" unicode="&#xdd;" horiz-adv-x="538" 
d="M285 0h-77q19 22 28 38.5t27 60.5l51 129q-9 -13 -28.5 -22t-40.5 -9q-55 0 -86 39q-29 36 -42 110l-50 260q-13 70 -42 108h72q24 -24 41 -108l43 -248q19 -113 85 -113q21 0 37 9t20 23q56 182 93 328q13 57 13 91q0 8 -2 18h80q1 -4 1 -14q0 -46 -14 -93
q-18 -61 -81 -266t-72 -231q-27 -86 -56 -110zM252 772h-10q17 56 36.5 99.5t29.5 44.5h2q7 0 58 -17v-12q-63 -23 -116 -115z" />
    <glyph glyph-name="Thorn" unicode="&#xde;" horiz-adv-x="545" 
d="M153 602v-17h139q104 0 157 -57q51 -55 51 -156q0 -96 -74 -157q-63 -52 -151 -52h-122v-51q0 -74 25 -112h-75q-22 25 -22 112v490q0 76 -26 112h75q23 -26 23 -112zM152 216h104q86 0 130 58q33 42 33 98q0 75 -42 117q-42 44 -121 44h-104v-317z" />
    <glyph glyph-name="germandbls" unicode="&#xdf;" horiz-adv-x="537" 
d="M125 560v-446q0 -67 26 -114h-69q-21 24 -20 111v433q0 96 47 137q28 23 58 32t81 9q88 0 139 -35q46 -32 46 -84q0 -89 -143 -157q-26 -12 -26 -25q0 -11 12 -19.5t68 -37.5q76 -39 118 -97q41 -56 41 -121q0 -86 -60 -133q-50 -39 -125 -39q-28 0 -64.5 11.5
t-65.5 28.5l23 55q62 -58 109 -58q49 0 79 44q27 41 27 111q0 61 -44 111q-36 42 -107 82q-49 29 -49 60t42 55q48 27 68 54.5t20 65.5v7q-2 43 -34 69q-30 24 -76 24q-121 0 -121 -134z" />
    <glyph glyph-name="agrave" unicode="&#xe0;" horiz-adv-x="452" 
d="M253 586h-10q-53 92 -116 115v12q51 17 58 17h2q10 -1 29.5 -44.5t36.5 -99.5zM417 0h-67q-16 26 -22 73q-26 -38 -71 -61.5t-91 -23.5q-61 0 -100 40q-36 37 -36 93q0 68 62 115q26 20 104 57q68 32 94 56q35 31 35 70t-31 61q-25 18 -60 18q-27 0 -60 -19t-63 -51
l-25 55q71 53 153 53q151 0 151 -148v-289q0 -47 27 -99zM323 118v214q-16 -17 -30.5 -26.5t-79.5 -46.5q-56 -34 -76 -58q-27 -31 -27 -74q0 -46 23 -74q23 -27 61 -27q32 0 68.5 26t60.5 66z" />
    <glyph glyph-name="aacute" unicode="&#xe1;" horiz-adv-x="452" 
d="M228 586h-10q17 56 36.5 99.5t29.5 44.5h2q7 0 58 -17v-12q-63 -23 -116 -115zM417 0h-67q-16 26 -22 73q-26 -38 -71 -61.5t-91 -23.5q-61 0 -100 40q-36 37 -36 93q0 68 62 115q26 20 104 57q68 32 94 56q35 31 35 70t-31 61q-25 18 -60 18q-27 0 -60 -19t-63 -51
l-25 55q71 53 153 53q151 0 151 -148v-289q0 -47 27 -99zM323 118v214q-16 -17 -30.5 -26.5t-79.5 -46.5q-56 -34 -76 -58q-27 -31 -27 -74q0 -46 23 -74q23 -27 61 -27q32 0 68.5 26t60.5 66z" />
    <glyph glyph-name="acircumflex" unicode="&#xe2;" horiz-adv-x="452" 
d="M353 586h-23q-14 21 -43 45.5t-47 30.5q-38 -12 -92 -76h-22q41 89 114 127q71 -38 113 -127zM417 0h-67q-16 26 -22 73q-26 -38 -71 -61.5t-91 -23.5q-61 0 -100 40q-36 37 -36 93q0 68 62 115q26 20 104 57q68 32 94 56q35 31 35 70t-31 61q-25 18 -60 18
q-27 0 -60 -19t-63 -51l-25 55q71 53 153 53q151 0 151 -148v-289q0 -47 27 -99zM323 118v214q-16 -17 -30.5 -26.5t-79.5 -46.5q-56 -34 -76 -58q-27 -31 -27 -74q0 -46 23 -74q23 -27 61 -27q32 0 68.5 26t60.5 66z" />
    <glyph glyph-name="atilde" unicode="&#xe3;" horiz-adv-x="452" 
d="M382 657l4 -9q-19 -23 -46.5 -39t-49.5 -16q-20 0 -56 11l-44 15q-18 5 -33 5q-21 0 -66 -21l-4 10q43 46 98 46q16 0 56 -15q34 -13 67 -13q34 0 74 26zM417 0h-67q-16 26 -22 73q-26 -38 -71 -61.5t-91 -23.5q-61 0 -100 40q-36 37 -36 93q0 68 62 115q26 20 104 57
q68 32 94 56q35 31 35 70t-31 61q-25 18 -60 18q-27 0 -60 -19t-63 -51l-25 55q71 53 153 53q151 0 151 -148v-289q0 -47 27 -99zM323 118v214q-16 -17 -30.5 -26.5t-79.5 -46.5q-56 -34 -76 -58q-27 -31 -27 -74q0 -46 23 -74q23 -27 61 -27q32 0 68.5 26t60.5 66z" />
    <glyph glyph-name="adieresis" unicode="&#xe4;" horiz-adv-x="452" 
d="M106 631q0 19 13 32t32 13t32 -13t13 -32t-13 -32t-32 -13q-20 0 -32.5 12.5t-12.5 32.5zM286 631q0 19 13 32t32 13t32 -13t13 -32t-13 -32t-32 -13q-20 0 -32.5 12.5t-12.5 32.5zM417 0h-67q-16 26 -22 73q-26 -38 -71 -61.5t-91 -23.5q-61 0 -100 40q-36 37 -36 93
q0 68 62 115q26 20 104 57q68 32 94 56q35 31 35 70t-31 61q-25 18 -60 18q-27 0 -60 -19t-63 -51l-25 55q71 53 153 53q151 0 151 -148v-289q0 -47 27 -99zM323 118v214q-16 -17 -30.5 -26.5t-79.5 -46.5q-56 -34 -76 -58q-27 -31 -27 -74q0 -46 23 -74q23 -27 61 -27
q32 0 68.5 26t60.5 66z" />
    <glyph glyph-name="aring" unicode="&#xe5;" horiz-adv-x="452" 
d="M308 655q0 -30 -19 -50t-48 -20q-30 0 -48 19t-18 51q0 27 19 45t47 18q29 0 48 -17.5t19 -45.5zM241 606q15 0 21 11t6 38q0 45 -27 45t-27 -45q0 -49 27 -49zM417 0h-67q-16 26 -22 73q-26 -38 -71 -61.5t-91 -23.5q-61 0 -100 40q-36 37 -36 93q0 68 62 115
q26 20 104 57q68 32 94 56q35 31 35 70t-31 61q-25 18 -60 18q-27 0 -60 -19t-63 -51l-25 55q71 53 153 53q151 0 151 -148v-289q0 -47 27 -99zM323 118v214q-16 -17 -30.5 -26.5t-79.5 -46.5q-56 -34 -76 -58q-27 -31 -27 -74q0 -46 23 -74q23 -27 61 -27q32 0 68.5 26
t60.5 66z" />
    <glyph glyph-name="ae" unicode="&#xe6;" horiz-adv-x="676" 
d="M609 78l20 -47q-57 -43 -135 -43q-110 0 -177 103q-64 -103 -168 -103q-58 0 -91 40q-28 36 -28 93q0 69 54 116q27 25 95 59q67 34 94 58q35 31 35 67q0 37 -35 56q-26 15 -60 15q-70 0 -113 -55l-20 46q65 53 142 53q91 0 133 -62q62 62 131 62q155 0 155 -130
q0 -59 -38 -94q-19 -18 -77 -48q-160 -85 -159 -119q1 -23 22 -57q36 -56 114 -56q62 0 106 46zM95 127q0 -44 28 -70q25 -22 60 -22q68 0 121 90q-23 76 -23 138q0 24 3 54q-28 -23 -89 -60q-57 -36 -74 -57q-26 -30 -26 -73zM489 492q-66 0 -103 -92q-28 -68 -28 -153
q0 -29 4 -53q29 40 112 88q59 34 80 56q29 32 29 75q0 37 -29 59q-26 20 -65 20z" />
    <glyph glyph-name="ccedilla" unicode="&#xe7;" horiz-adv-x="433" 
d="M279 498h-2q-86 0 -131 -93q-31 -63 -31 -135q0 -109 50 -180q44 -64 109 -64q56 0 109 55l25 -53q-45 -35 -121 -39l-27 -34q21 8 38 8q35 0 56.5 -20.5t21.5 -54.5q0 -39 -35 -64q-31 -22 -76 -22q-35 0 -82 15l20 41q37 -23 70 -23q59 0 59 50q0 24 -19.5 38.5
t-50.5 14.5q-20 0 -36 -9l-10 10l39 49q-106 5 -166 84q-54 72 -54 188q0 123 68 201q65 75 168 75q73 1 127 -29l-19 -58q-51 49 -100 49z" />
    <glyph glyph-name="egrave" unicode="&#xe8;" horiz-adv-x="437" 
d="M243 586h-10q-53 92 -116 115v12q51 17 58 17h2q10 -1 29.5 -44.5t36.5 -99.5zM247 26q62 0 109 58l24 -53q-57 -43 -133 -43q-100 0 -161 86q-51 73 -51 174q0 135 68 216q61 72 155 72q76 0 113 -38q31 -32 31 -86t-41 -95q-32 -31 -93 -58q-148 -67 -148 -102
q0 -18 11 -42t29 -44q39 -45 87 -45zM329 418q0 34 -20.5 57t-50.5 23q-74 0 -115 -91q-31 -71 -31 -169q0 -24 1 -35q17 22 32 32.5t89 54.5q54 32 74.5 59.5t20.5 68.5z" />
    <glyph glyph-name="eacute" unicode="&#xe9;" horiz-adv-x="437" 
d="M232 586h-10q17 56 36.5 99.5t29.5 44.5h2q7 0 58 -17v-12q-63 -23 -116 -115zM247 26q62 0 109 58l24 -53q-57 -43 -133 -43q-100 0 -161 86q-51 73 -51 174q0 135 68 216q61 72 155 72q76 0 113 -38q31 -32 31 -86t-41 -95q-32 -31 -93 -58q-148 -67 -148 -102
q0 -18 11 -42t29 -44q39 -45 87 -45zM329 418q0 34 -20.5 57t-50.5 23q-74 0 -115 -91q-31 -71 -31 -169q0 -24 1 -35q17 22 32 32.5t89 54.5q54 32 74.5 59.5t20.5 68.5z" />
    <glyph glyph-name="ecircumflex" unicode="&#xea;" horiz-adv-x="437" 
d="M358 586h-23q-14 21 -43 45.5t-47 30.5q-38 -12 -92 -76h-22q41 89 114 127q71 -38 113 -127zM247 26q62 0 109 58l24 -53q-57 -43 -133 -43q-100 0 -161 86q-51 73 -51 174q0 135 68 216q61 72 155 72q76 0 113 -38q31 -32 31 -86t-41 -95q-32 -31 -93 -58
q-148 -67 -148 -102q0 -18 11 -42t29 -44q39 -45 87 -45zM329 418q0 34 -20.5 57t-50.5 23q-74 0 -115 -91q-31 -71 -31 -169q0 -24 1 -35q17 22 32 32.5t89 54.5q54 32 74.5 59.5t20.5 68.5z" />
    <glyph glyph-name="edieresis" unicode="&#xeb;" horiz-adv-x="437" 
d="M110 631q0 19 13 32t32 13t32 -13t13 -32t-13 -32t-32 -13q-20 0 -32.5 12.5t-12.5 32.5zM290 631q0 19 13 32t32 13t32 -13t13 -32t-13 -32t-32 -13q-20 0 -32.5 12.5t-12.5 32.5zM247 26q62 0 109 58l24 -53q-57 -43 -133 -43q-100 0 -161 86q-51 73 -51 174
q0 135 68 216q61 72 155 72q76 0 113 -38q31 -32 31 -86t-41 -95q-32 -31 -93 -58q-148 -67 -148 -102q0 -18 11 -42t29 -44q39 -45 87 -45zM329 418q0 34 -20.5 57t-50.5 23q-74 0 -115 -91q-31 -71 -31 -169q0 -24 1 -35q17 22 32 32.5t89 54.5q54 32 74.5 59.5t20.5 68.5
z" />
    <glyph glyph-name="igrave" unicode="&#xec;" horiz-adv-x="190" 
d="M60 111v415h64v-412q0 -67 26 -114h-69q-21 24 -21 111zM115 586h-10q-53 92 -116 115v12q51 17 58 17h2q10 -1 29.5 -44.5t36.5 -99.5z" />
    <glyph glyph-name="iacute" unicode="&#xed;" horiz-adv-x="190" 
d="M60 111v415h64v-412q0 -67 26 -114h-69q-21 24 -21 111zM90 586h-10q17 56 36.5 99.5t29.5 44.5h2q7 0 58 -17v-12q-63 -23 -116 -115z" />
    <glyph glyph-name="icircumflex" unicode="&#xee;" horiz-adv-x="190" 
d="M60 111v415h64v-412q0 -67 26 -114h-69q-21 24 -21 111zM215 586h-23q-14 21 -43 45.5t-47 30.5q-38 -12 -92 -76h-22q41 89 114 127q71 -38 113 -127z" />
    <glyph glyph-name="idieresis" unicode="&#xef;" horiz-adv-x="190" 
d="M60 111v415h64v-412q0 -67 26 -114h-69q-21 24 -21 111zM-38 631q0 19 13 32t32 13t32 -13t13 -32t-13 -32t-32 -13q-20 0 -32.5 12.5t-12.5 32.5zM142 631q0 19 13 32t32 13t32 -13t13 -32t-13 -32t-32 -13q-20 0 -32.5 12.5t-12.5 32.5z" />
    <glyph glyph-name="eth" unicode="&#xf0;" horiz-adv-x="508" 
d="M194 619l84 43q-45 43 -116 45q4 5 22.5 10t33.5 5q58 0 107 -31l104 49l18 -36l-90 -43q59 -61 89 -175q22 -84 22 -168q0 -330 -224 -330q-102 0 -161 90q-48 75 -48 183q0 122 60 200q57 75 150 75q95 0 142 -68q-25 105 -80 165l-95 -47zM251 26q71 0 109 78
q31 63 31 159q0 116 -32 173q-34 62 -108 62q-78 0 -114 -89q-24 -60 -24 -146q0 -101 38 -169t100 -68z" />
    <glyph glyph-name="ntilde" unicode="&#xf1;" horiz-adv-x="481" 
d="M421 394v-280q0 -46 4 -70t16 -44h-66q-12 20 -16.5 43t-4.5 68v264q0 106 -87 106q-49 0 -93 -43q-31 -29 -47 -65v-259q0 -64 27 -114h-67q-27 31 -27 114v310v102h67v-89q29 45 73.5 72t90.5 27q130 0 130 -142zM400 656l4 -9q-19 -23 -46.5 -39t-49.5 -16
q-20 0 -56 11l-44 15q-18 5 -33 5q-21 0 -66 -21l-4 10q43 46 98 46q16 0 56 -15q34 -13 67 -13q34 0 74 26z" />
    <glyph glyph-name="ograve" unicode="&#xf2;" horiz-adv-x="505" 
d="M254 -12q-110 0 -170 90q-49 73 -49 181q0 132 65 208q59 69 152 69q117 0 173 -89q45 -71 45 -188q0 -124 -65 -201q-59 -70 -151 -70zM255 26q78 0 113 96q21 58 23 139v19q0 216 -135 218q-80 1 -116 -83q-25 -58 -26 -147q-1 -95 33 -164q38 -78 108 -78zM274 586
h-10q-53 92 -116 115v12q51 17 58 17h2q10 -1 29.5 -44.5t36.5 -99.5z" />
    <glyph glyph-name="oacute" unicode="&#xf3;" horiz-adv-x="505" 
d="M254 -12q-110 0 -170 90q-49 73 -49 181q0 132 65 208q59 69 152 69q117 0 173 -89q45 -71 45 -188q0 -124 -65 -201q-59 -70 -151 -70zM255 26q78 0 113 96q21 58 23 139v19q0 216 -135 218q-80 1 -116 -83q-25 -58 -26 -147q-1 -95 33 -164q38 -78 108 -78zM249 586
h-10q17 56 36.5 99.5t29.5 44.5h2q7 0 58 -17v-12q-63 -23 -116 -115z" />
    <glyph glyph-name="ocircumflex" unicode="&#xf4;" horiz-adv-x="505" 
d="M254 -12q-110 0 -170 90q-49 73 -49 181q0 132 65 208q59 69 152 69q117 0 173 -89q45 -71 45 -188q0 -124 -65 -201q-59 -70 -151 -70zM255 26q78 0 113 96q21 58 23 139v19q0 216 -135 218q-80 1 -116 -83q-25 -58 -26 -147q-1 -95 33 -164q38 -78 108 -78zM366 586
h-23q-14 21 -43 45.5t-47 30.5q-38 -12 -92 -76h-22q41 89 114 127q71 -38 113 -127z" />
    <glyph glyph-name="otilde" unicode="&#xf5;" horiz-adv-x="505" 
d="M254 -12q-110 0 -170 90q-49 73 -49 181q0 132 65 208q59 69 152 69q117 0 173 -89q45 -71 45 -188q0 -124 -65 -201q-59 -70 -151 -70zM255 26q78 0 113 96q21 58 23 139v19q0 216 -135 218q-80 1 -116 -83q-25 -58 -26 -147q-1 -95 33 -164q38 -78 108 -78zM402 657
l4 -9q-19 -23 -46.5 -39t-49.5 -16q-20 0 -56 11l-44 15q-18 5 -33 5q-21 0 -66 -21l-4 10q43 46 98 46q16 0 56 -15q34 -13 67 -13q34 0 74 26z" />
    <glyph glyph-name="odieresis" unicode="&#xf6;" horiz-adv-x="505" 
d="M254 -12q-110 0 -170 90q-49 73 -49 181q0 132 65 208q59 69 152 69q117 0 173 -89q45 -71 45 -188q0 -124 -65 -201q-59 -70 -151 -70zM255 26q78 0 113 96q21 58 23 139v19q0 216 -135 218q-80 1 -116 -83q-25 -58 -26 -147q-1 -95 33 -164q38 -78 108 -78zM117 631
q0 19 13 32t32 13t32 -13t13 -32t-13 -32t-32 -13q-20 0 -32.5 12.5t-12.5 32.5zM297 631q0 19 13 32t32 13t32 -13t13 -32t-13 -32t-32 -13q-20 0 -32.5 12.5t-12.5 32.5z" />
    <glyph glyph-name="divide" unicode="&#xf7;" horiz-adv-x="567" 
d="M40 284h487v-42h-487v42zM231 36q0 20 14 34.5t34 14.5t34.5 -14.5t14.5 -34.5t-14.5 -34t-34.5 -14t-34 14t-14 34zM230 487q0 20 14 34.5t34 14.5t34.5 -14.5t14.5 -34.5t-14.5 -34t-34.5 -14t-34 14t-14 34z" />
    <glyph glyph-name="oslash" unicode="&#xf8;" horiz-adv-x="535" 
d="M405 568l-25 -59q59 -33 87 -107q23 -61 23 -143q0 -124 -65 -201q-59 -70 -151 -70q-60 0 -104 26l-24 -58h-46l35 84q-80 74 -80 219q0 132 65 208q59 69 152 69q33 0 68 -10l18 43zM361 464l-169 -399q33 -39 83 -39q78 0 113 96q21 58 23 139v19q0 131 -50 184z
M164 109l160 380q-20 8 -48 10q-80 1 -116 -83q-25 -59 -26 -148q-2 -90 30 -159z" />
    <glyph glyph-name="ugrave" unicode="&#xf9;" horiz-adv-x="481" 
d="M254 586h-10q-53 92 -116 115v12q51 17 58 17h2q10 -1 29.5 -44.5t36.5 -99.5zM421 526v-412q0 -83 20 -114h-66q-18 27 -21 79q-27 -41 -71.5 -66t-92.5 -25q-130 0 -130 143v395h67v-376q0 -107 87 -107q49 0 93 38q31 27 47 60v385h67z" />
    <glyph glyph-name="uacute" unicode="&#xfa;" horiz-adv-x="481" 
d="M228 586h-10q17 56 36.5 99.5t29.5 44.5h2q7 0 58 -17v-12q-63 -23 -116 -115zM421 526v-412q0 -83 20 -114h-66q-18 27 -21 79q-27 -41 -71.5 -66t-92.5 -25q-130 0 -130 143v395h67v-376q0 -107 87 -107q49 0 93 38q31 27 47 60v385h67z" />
    <glyph glyph-name="ucircumflex" unicode="&#xfb;" horiz-adv-x="481" 
d="M421 526v-412q0 -83 20 -114h-66q-18 27 -21 79q-27 -41 -71.5 -66t-92.5 -25q-130 0 -130 143v395h67v-376q0 -107 87 -107q49 0 93 38q31 27 47 60v385h67zM356 586h-23q-14 21 -43 45.5t-47 30.5q-38 -12 -92 -76h-22q41 89 114 127q71 -38 113 -127z" />
    <glyph glyph-name="udieresis" unicode="&#xfc;" horiz-adv-x="481" 
d="M108 631q0 19 13 32t32 13t32 -13t13 -32t-13 -32t-32 -13q-20 0 -32.5 12.5t-12.5 32.5zM288 631q0 19 13 32t32 13t32 -13t13 -32t-13 -32t-32 -13q-20 0 -32.5 12.5t-12.5 32.5zM421 526v-412q0 -83 20 -114h-66q-18 27 -21 79q-27 -41 -71.5 -66t-92.5 -25
q-130 0 -130 143v395h67v-376q0 -107 87 -107q49 0 93 38q31 27 47 60v385h67z" />
    <glyph glyph-name="yacute" unicode="&#xfd;" horiz-adv-x="472" 
d="M260 -215h-72q37 41 61 121l25 111q-10 -12 -28 -20.5t-35 -8.5q-50 0 -77 34.5t-47 122.5q-60 321 -72 381h73q12 -86 15 -109q12 -82 41 -263q18 -122 83 -122q32 0 56 26l92 348q9 35 9 68v10q0 24 -6 42h69q5 -16 5 -38q0 -27 -13 -86q-14 -50 -133 -504
q-21 -84 -46 -113zM237 586h-10q17 56 36.5 99.5t29.5 44.5h2q7 0 58 -17v-12q-63 -23 -116 -115z" />
    <glyph glyph-name="thorn" unicode="&#xfe;" horiz-adv-x="488" 
d="M123 714v-210q51 32 112 32q110 0 169 -89q49 -74 49 -188q0 -124 -65 -201q-58 -70 -149 -70q-33 0 -64.5 12.5t-49.5 33.5v-136q2 -81 27 -114h-71q-10 11 -18 66q-3 21 -3 48v816h63zM123 88h1q37 -54 107 -53q78 1 120 93q28 62 30 133v16q0 100 -34 156
q-36 59 -108 60q-71 1 -116 -34v-371z" />
    <glyph glyph-name="ydieresis" unicode="&#xff;" horiz-adv-x="472" 
d="M260 -215h-72q37 41 61 121l25 111q-10 -12 -28 -20.5t-35 -8.5q-50 0 -77 34.5t-47 122.5q-60 321 -72 381h73q12 -86 15 -109q12 -82 41 -263q18 -122 83 -122q32 0 56 26l92 348q9 35 9 68v10q0 24 -6 42h69q5 -16 5 -38q0 -27 -13 -86q-14 -50 -133 -504
q-21 -84 -46 -113zM104 631q0 19 13 32t32 13t32 -13t13 -32t-13 -32t-32 -13q-20 0 -32.5 12.5t-12.5 32.5zM284 631q0 19 13 32t32 13t32 -13t13 -32t-13 -32t-32 -13q-20 0 -32.5 12.5t-12.5 32.5z" />
    <glyph glyph-name="Amacron" unicode="&#x100;" horiz-adv-x="599" 
d="M591 0h-85q-23 21 -51 98l-66 182h-233l-63 -186q-15 -45 -15 -76q0 -8 2 -18h-63q-1 6 -1 20q0 32 14 74l175 506q23 65 23 86q0 17 -5 28h67q27 -18 60 -108l181 -501q30 -73 60 -105zM370 329l-98 289l-100 -289h198zM165 830h197v-42h-197v42z" />
    <glyph glyph-name="amacron" unicode="&#x101;" horiz-adv-x="452" 
d="M138 644h197v-42h-197v42zM417 0h-67q-16 26 -22 73q-26 -38 -71 -61.5t-91 -23.5q-61 0 -100 40q-36 37 -36 93q0 68 62 115q26 20 104 57q68 32 94 56q35 31 35 70t-31 61q-25 18 -60 18q-27 0 -60 -19t-63 -51l-25 55q71 53 153 53q151 0 151 -148v-289q0 -47 27 -99z
M323 118v214q-16 -17 -30.5 -26.5t-79.5 -46.5q-56 -34 -76 -58q-27 -31 -27 -74q0 -46 23 -74q23 -27 61 -27q32 0 68.5 26t60.5 66z" />
    <glyph glyph-name="Abreve" unicode="&#x102;" horiz-adv-x="599" 
d="M591 0h-85q-23 21 -51 98l-66 182h-233l-63 -186q-15 -45 -15 -76q0 -8 2 -18h-63q-1 6 -1 20q0 32 14 74l175 506q23 65 23 86q0 17 -5 28h67q27 -18 60 -108l181 -501q30 -73 60 -105zM370 329l-98 289l-100 -289h198zM143 898h22q6 -37 32 -59t64 -22q49 0 75 31
q18 21 21 50h24q0 -61 -36 -95q-32 -30 -84 -30q-65 0 -96 44q-22 32 -22 81z" />
    <glyph glyph-name="abreve" unicode="&#x103;" horiz-adv-x="452" 
d="M119 712h22q6 -37 32 -59t64 -22q49 0 75 31q18 21 21 50h24q0 -61 -36 -95q-32 -30 -84 -30q-65 0 -96 44q-22 32 -22 81zM417 0h-67q-16 26 -22 73q-26 -38 -71 -61.5t-91 -23.5q-61 0 -100 40q-36 37 -36 93q0 68 62 115q26 20 104 57q68 32 94 56q35 31 35 70t-31 61
q-25 18 -60 18q-27 0 -60 -19t-63 -51l-25 55q71 53 153 53q151 0 151 -148v-289q0 -47 27 -99zM323 118v214q-16 -17 -30.5 -26.5t-79.5 -46.5q-56 -34 -76 -58q-27 -31 -27 -74q0 -46 23 -74q23 -27 61 -27q32 0 68.5 26t60.5 66z" />
    <glyph glyph-name="Aogonek" unicode="&#x104;" horiz-adv-x="599" 
d="M532 0h1q-74 -66 -74 -107q0 -42 42 -42q25 0 55 23l14 -39q-42 -32 -78 -32q-32 0 -52.5 22t-20.5 56q0 56 84 122q-21 21 -48 95l-66 182h-233l-63 -186q-15 -45 -15 -76q0 -8 2 -18h-63q-1 6 -1 20q0 32 14 74l175 506q23 65 23 86q0 17 -5 28h67q27 -18 60 -108
l181 -501q30 -73 60 -105h-59zM370 329l-98 289l-100 -289h198z" />
    <glyph glyph-name="aogonek" unicode="&#x105;" horiz-adv-x="447" 
d="M328 73q-26 -38 -71 -61.5t-91 -23.5q-61 0 -100 40q-36 37 -36 93q0 68 62 115q26 20 104 57q68 32 94 56q35 31 35 70t-31 61q-25 18 -60 18q-27 0 -60 -19t-63 -51l-25 55q71 53 153 53q151 0 151 -148v-289q0 -47 27 -99h-36q-74 -68 -74 -108q0 -42 42 -42
q25 0 55 23l14 -39q-42 -32 -78 -32q-32 0 -52.5 22t-20.5 56q0 56 82 120q-15 26 -21 73zM323 118v214q-16 -17 -30.5 -26.5t-79.5 -46.5q-56 -34 -76 -58q-27 -31 -27 -74q0 -46 23 -74q23 -27 61 -27q32 0 68.5 26t60.5 66z" />
    <glyph glyph-name="Cacute" unicode="&#x106;" horiz-adv-x="583" 
d="M525 93l21 -67q-26 -17 -72 -27.5t-97 -10.5q-163 0 -256 118q-76 98 -76 242q0 101 42 187q42 85 116 135q76 52 170 52q98 0 175 -45l-27 -63q-56 56 -140 56q-135 0 -202 -119q-49 -86 -49 -203q0 -136 73 -224q69 -84 178 -84q87 0 144 53zM369 772h-10
q17 56 36.5 99.5t29.5 44.5h2q7 0 58 -17v-12q-63 -23 -116 -115z" />
    <glyph glyph-name="cacute" unicode="&#x107;" horiz-adv-x="433" 
d="M279 498h-2q-86 0 -131 -93q-31 -63 -31 -135q0 -109 50 -180q44 -64 109 -64q56 0 109 55l25 -53q-53 -40 -140 -40q-111 0 -175 80q-58 72 -58 192q0 123 68 201q65 75 168 75q73 1 127 -29l-19 -58q-51 49 -100 49zM258 586h-10q17 56 36.5 99.5t29.5 44.5h2
q7 0 58 -17v-12q-63 -23 -116 -115z" />
    <glyph glyph-name="Ccircumflex" unicode="&#x108;" horiz-adv-x="583" 
d="M525 93l21 -67q-26 -17 -72 -27.5t-97 -10.5q-163 0 -256 118q-76 98 -76 242q0 101 42 187q42 85 116 135q76 52 170 52q98 0 175 -45l-27 -63q-56 56 -140 56q-135 0 -202 -119q-49 -86 -49 -203q0 -136 73 -224q69 -84 178 -84q87 0 144 53zM480 774h-20
q-13 20 -44 45t-49 31q-38 -12 -92 -76h-22q41 89 114 127q71 -38 113 -127z" />
    <glyph glyph-name="ccircumflex" unicode="&#x109;" horiz-adv-x="433" 
d="M279 498h-2q-86 0 -131 -93q-31 -63 -31 -135q0 -109 50 -180q44 -64 109 -64q56 0 109 55l25 -53q-53 -40 -140 -40q-111 0 -175 80q-58 72 -58 192q0 123 68 201q65 75 168 75q73 1 127 -29l-19 -58q-51 49 -100 49zM360 586h-23q-14 21 -43 45.5t-47 30.5
q-38 -12 -92 -76h-22q41 89 114 127q71 -38 113 -127z" />
    <glyph glyph-name="Cdotaccent" unicode="&#x10a;" horiz-adv-x="583" 
d="M525 93l21 -67q-26 -17 -72 -27.5t-97 -10.5q-163 0 -256 118q-76 98 -76 242q0 101 42 187q42 85 116 135q76 52 170 52q98 0 175 -45l-27 -63q-56 56 -140 56q-135 0 -202 -119q-49 -86 -49 -203q0 -136 73 -224q69 -84 178 -84q87 0 144 53zM322 819q0 19 13 32t32 13
t32 -13t13 -32t-13 -32t-32 -13q-20 0 -32.5 12.5t-12.5 32.5z" />
    <glyph glyph-name="cdotaccent" unicode="&#x10b;" horiz-adv-x="433" 
d="M279 498h-2q-86 0 -131 -93q-31 -63 -31 -135q0 -109 50 -180q44 -64 109 -64q56 0 109 55l25 -53q-53 -40 -140 -40q-111 0 -175 80q-58 72 -58 192q0 123 68 201q65 75 168 75q73 1 127 -29l-19 -58q-51 49 -100 49zM218 631q0 19 13 32t32 13t32 -13t13 -32t-13 -32
t-32 -13q-20 0 -32.5 12.5t-12.5 32.5z" />
    <glyph glyph-name="Ccaron" unicode="&#x10c;" horiz-adv-x="583" 
d="M525 93l21 -67q-26 -17 -72 -27.5t-97 -10.5q-163 0 -256 118q-76 98 -76 242q0 101 42 187q42 85 116 135q76 52 170 52q98 0 175 -45l-27 -63q-56 56 -140 56q-135 0 -202 -119q-49 -86 -49 -203q0 -136 73 -224q69 -84 178 -84q87 0 144 53zM467 900h25
q-32 -84 -113 -127q-81 42 -114 127h22q41 -60 92 -76q18 4 47.5 29.5t40.5 46.5z" />
    <glyph glyph-name="ccaron" unicode="&#x10d;" horiz-adv-x="433" 
d="M279 498h-2q-86 0 -131 -93q-31 -63 -31 -135q0 -109 50 -180q44 -64 109 -64q56 0 109 55l25 -53q-53 -40 -140 -40q-111 0 -175 80q-58 72 -58 192q0 123 68 201q65 75 168 75q73 1 127 -29l-19 -58q-51 49 -100 49zM351 713h25q-32 -84 -113 -127q-81 42 -114 127h22
q41 -60 92 -76q18 4 47.5 29.5t40.5 46.5z" />
    <glyph glyph-name="Dcaron" unicode="&#x10e;" horiz-adv-x="632" 
d="M263 0h-155q-21 24 -21 113v493q-3 79 -32 108h209q160 0 249 -114q74 -96 74 -243q0 -85 -38 -165q-41 -85 -110 -136q-78 -56 -176 -56zM170 45h94q123 0 191 118q50 88 50 198q0 144 -74 228q-69 80 -188 80h-95q11 -53 11 -72v-472q0 -54 11 -80zM307 897h25
q-32 -84 -113 -127q-81 42 -114 127h22q41 -60 92 -76q18 4 47.5 29.5t40.5 46.5z" />
    <glyph glyph-name="dcaron" unicode="&#x10f;" horiz-adv-x="513" 
d="M442 599v-513q-21 -42 -74 -71q-49 -27 -101 -27q-118 0 -181 84q-51 69 -51 178q0 122 54 202q57 84 158 84q37 0 71 -17t57 -48v128q0 73 -25 115h71q21 -36 21 -115zM375 102v318q-54 78 -116 78q-67 0 -107 -68q-37 -63 -37 -170q0 -113 46 -176q41 -58 111 -58
q74 0 103 65v11zM495 516l-10 20q81 47 81 86q0 15 -15 15l-25 -5q-19 0 -30.5 12t-11.5 33q0 20 13 34t31 14q26 0 43 -21.5t17 -54.5q0 -41 -22 -72.5t-71 -60.5z" />
    <glyph glyph-name="Dcroat" unicode="&#x110;" horiz-adv-x="632" 
d="M87 322h-53v51h53v233q-3 79 -32 108h209q160 0 249 -114q74 -96 74 -243q0 -85 -38 -165q-41 -85 -110 -136q-78 -56 -176 -56h-155q-21 24 -21 113v209zM159 322v-197q0 -54 11 -80h94q123 0 191 118q50 88 50 198q0 144 -74 228q-69 80 -188 80h-95q11 -53 11 -72
v-224h153v-51h-153z" />
    <glyph glyph-name="dcroat" unicode="&#x111;" horiz-adv-x="497" 
d="M442 585v-499q-21 -42 -74 -71q-49 -27 -101 -27q-118 0 -181 84q-51 69 -51 178q0 122 54 202q57 84 158 84q83 0 128 -63v112h-112v56h110q-6 44 -23 73h71q15 -26 19 -73h76v-56h-74zM375 91v338q-43 70 -116 70q-67 0 -107 -68q-37 -64 -37 -171q0 -113 46 -176
q41 -58 111 -58q74 0 103 65z" />
    <glyph glyph-name="Emacron" unicode="&#x112;" horiz-adv-x="506" 
d="M158 55h184q102 0 129 9q-9 -34 -32 -49t-65 -15h-268q-23 26 -23 112v495q-1 41 -7 64.5t-21 42.5h283q89 0 110 -64q-24 8 -129 8h-171q6 -40 6 -54v-150h146q45 0 68 -15t34 -51q-27 9 -129 9h-119v-288q0 -35 4 -54zM130 840h197v-42h-197v42z" />
    <glyph glyph-name="emacron" unicode="&#x113;" horiz-adv-x="437" 
d="M153 643h197v-42h-197v42zM247 26q62 0 109 58l24 -53q-57 -43 -133 -43q-100 0 -161 86q-51 73 -51 174q0 135 68 216q61 72 155 72q76 0 113 -38q31 -32 31 -86t-41 -95q-32 -31 -93 -58q-148 -67 -148 -102q0 -18 11 -42t29 -44q39 -45 87 -45zM329 418q0 34 -20.5 57
t-50.5 23q-74 0 -115 -91q-31 -71 -31 -169q0 -24 1 -35q17 22 32 32.5t89 54.5q54 32 74.5 59.5t20.5 68.5z" />
    <glyph glyph-name="Ebreve" unicode="&#x114;" horiz-adv-x="506" 
d="M158 55h184q102 0 129 9q-9 -34 -32 -49t-65 -15h-268q-23 26 -23 112v495q-1 41 -7 64.5t-21 42.5h283q89 0 110 -64q-24 8 -129 8h-171q6 -40 6 -54v-150h146q45 0 68 -15t34 -51q-27 9 -129 9h-119v-288q0 -35 4 -54zM116 898h22q6 -37 32 -59t64 -22q49 0 75 31
q18 21 21 50h24q0 -61 -36 -95q-32 -30 -84 -30q-65 0 -96 44q-22 32 -22 81z" />
    <glyph glyph-name="ebreve" unicode="&#x115;" horiz-adv-x="437" 
d="M128 711h22q6 -37 32 -59t64 -22q49 0 75 31q18 21 21 50h24q0 -61 -36 -95q-32 -30 -84 -30q-65 0 -96 44q-22 32 -22 81zM247 26q62 0 109 58l24 -53q-57 -43 -133 -43q-100 0 -161 86q-51 73 -51 174q0 135 68 216q61 72 155 72q76 0 113 -38q31 -32 31 -86t-41 -95
q-32 -31 -93 -58q-148 -67 -148 -102q0 -18 11 -42t29 -44q39 -45 87 -45zM329 418q0 34 -20.5 57t-50.5 23q-74 0 -115 -91q-31 -71 -31 -169q0 -24 1 -35q17 22 32 32.5t89 54.5q54 32 74.5 59.5t20.5 68.5z" />
    <glyph glyph-name="Edotaccent" unicode="&#x116;" horiz-adv-x="506" 
d="M158 55h184q102 0 129 9q-9 -34 -32 -49t-65 -15h-268q-23 26 -23 112v495q-1 41 -7 64.5t-21 42.5h283q89 0 110 -64q-24 8 -129 8h-171q6 -40 6 -54v-150h146q45 0 68 -15t34 -51q-27 9 -129 9h-119v-288q0 -35 4 -54zM192 819q0 19 13 32t32 13t32 -13t13 -32t-13 -32
t-32 -13q-20 0 -32.5 12.5t-12.5 32.5z" />
    <glyph glyph-name="edotaccent" unicode="&#x117;" horiz-adv-x="437" 
d="M212 631q0 19 13 32t32 13t32 -13t13 -32t-13 -32t-32 -13q-20 0 -32.5 12.5t-12.5 32.5zM247 26q62 0 109 58l24 -53q-57 -43 -133 -43q-100 0 -161 86q-51 73 -51 174q0 135 68 216q61 72 155 72q76 0 113 -38q31 -32 31 -86t-41 -95q-32 -31 -93 -58
q-148 -67 -148 -102q0 -18 11 -42t29 -44q39 -45 87 -45zM329 418q0 34 -20.5 57t-50.5 23q-74 0 -115 -91q-31 -71 -31 -169q0 -24 1 -35q17 22 32 32.5t89 54.5q54 32 74.5 59.5t20.5 68.5z" />
    <glyph glyph-name="Eogonek" unicode="&#x118;" horiz-adv-x="506" 
d="M383 0q-74 -66 -74 -107q0 -42 42 -42q25 0 55 23l14 -39q-42 -32 -78 -32q-32 0 -52.5 22t-20.5 56q0 57 82 119h-245q-23 26 -23 112v495q-1 41 -7 64.5t-21 42.5h283q89 0 110 -64q-24 8 -129 8h-171q6 -40 6 -54v-150h146q45 0 68 -15t34 -51q-27 9 -129 9h-119v-288
q0 -35 4 -54h184q102 0 129 9q-17 -62 -88 -64z" />
    <glyph glyph-name="eogonek" unicode="&#x119;" horiz-adv-x="437" 
d="M380 31q-30 -22 -70 -34q-80 -72 -80 -113q0 -42 42 -42q25 0 55 23l14 -39q-42 -32 -78 -32q-32 0 -52.5 22t-20.5 56q2 59 80 117q-12 -1 -23 -1q-100 0 -161 86q-51 73 -51 174q0 135 68 216q61 72 155 72q76 0 113 -38q31 -32 31 -86t-41 -95q-32 -31 -93 -58
q-148 -67 -148 -102q0 -18 11 -42t29 -44q39 -45 87 -45q62 0 109 58zM329 418q0 34 -20.5 57t-50.5 23q-74 0 -115 -91q-31 -71 -31 -169q0 -24 1 -35q17 22 32 32.5t89 54.5q54 32 74.5 59.5t20.5 68.5z" />
    <glyph glyph-name="Ecaron" unicode="&#x11a;" horiz-adv-x="506" 
d="M158 55h184q102 0 129 9q-9 -34 -32 -49t-65 -15h-268q-23 26 -23 112v495q-1 41 -7 64.5t-21 42.5h283q89 0 110 -64q-24 8 -129 8h-171q6 -40 6 -54v-150h146q45 0 68 -15t34 -51q-27 9 -129 9h-119v-288q0 -35 4 -54zM318 900h25q-32 -84 -113 -127q-81 42 -114 127
h22q41 -60 92 -76q18 4 47.5 29.5t40.5 46.5z" />
    <glyph glyph-name="ecaron" unicode="&#x11b;" horiz-adv-x="437" 
d="M251 26q56 0 105 58l24 -53q-57 -43 -133 -43q-100 0 -161 86q-51 73 -51 174q0 135 68 216q61 72 155 72q76 0 113 -38q31 -32 31 -86t-41 -95q-32 -31 -93 -58q-71 -32 -99.5 -50.5t-45.5 -43.5q-3 -6 -3 -8v-2q15 -63 50 -96q34 -33 81 -33zM329 418q0 34 -20.5 57
t-50.5 23q-74 0 -115 -91q-31 -71 -31 -169q0 -24 1 -35q17 22 32 32.5t89 54.5q54 32 74.5 59.5t20.5 68.5zM340 713h25q-32 -84 -113 -127q-81 42 -114 127h22q41 -60 92 -76q18 4 47.5 29.5t40.5 46.5z" />
    <glyph glyph-name="Gcircumflex" unicode="&#x11c;" horiz-adv-x="625" 
d="M551 393v-279q0 -54 27 -111l2 -3h-210q-154 2 -242 104q-83 94 -83 252q0 92 40 174q42 87 117 137q82 55 187 55q37 0 80.5 -12.5t78.5 -32.5l-27 -63q-31 30 -65 43t-81 13q-65 0 -121 -39t-89 -108q-35 -74 -35 -167q0 -158 74 -239q68 -74 187 -72h89v233
q0 78 -17 115h88zM473 773h-23q-14 21 -43 45.5t-47 30.5q-38 -12 -92 -76h-22q41 89 114 127q71 -38 113 -127z" />
    <glyph glyph-name="gcircumflex" unicode="&#x11d;" horiz-adv-x="492" 
d="M85 -176l26 52q60 -62 125 -62q134 0 134 215q-35 -41 -106 -41q-114 0 -178 88q-51 70 -51 169q0 124 55 205q57 86 158 86q79 0 122 -64v54h67v-482q0 -144 -52 -207q-49 -59 -152 -59q-84 0 -148 46zM370 101v313q0 9 -11 24.5t-27 28.5q-37 31 -72 31q-68 0 -108 -74
q-37 -70 -37 -185q0 -108 47 -164q41 -49 111 -49q39 0 68 21t29 54zM356 586h-23q-14 21 -43 45.5t-47 30.5q-38 -12 -92 -76h-22q41 89 114 127q71 -38 113 -127z" />
    <glyph glyph-name="Gbreve" unicode="&#x11e;" horiz-adv-x="625" 
d="M551 393v-279q0 -54 27 -111l2 -3h-210q-154 2 -242 104q-83 94 -83 252q0 92 40 174q42 87 117 137q82 55 187 55q37 0 80.5 -12.5t78.5 -32.5l-27 -63q-31 30 -65 43t-81 13q-65 0 -121 -39t-89 -108q-35 -74 -35 -167q0 -158 74 -239q68 -74 187 -72h89v233
q0 78 -17 115h88zM249 898h22q6 -37 32 -59t64 -22q49 0 75 31q18 21 21 50h24q0 -61 -36 -95q-32 -30 -84 -30q-65 0 -96 44q-22 32 -22 81z" />
    <glyph glyph-name="gbreve" unicode="&#x11f;" horiz-adv-x="492" 
d="M85 -176l26 52q60 -62 125 -62q134 0 134 215q-35 -41 -106 -41q-114 0 -178 88q-51 70 -51 169q0 124 55 205q57 86 158 86q79 0 122 -64v54h67v-482q0 -144 -52 -207q-49 -59 -152 -59q-84 0 -148 46zM370 101v313q0 9 -11 24.5t-27 28.5q-37 31 -72 31q-68 0 -108 -74
q-37 -70 -37 -185q0 -108 47 -164q41 -49 111 -49q39 0 68 21t29 54zM135 711h22q6 -37 32 -59t64 -22q49 0 75 31q18 21 21 50h24q0 -61 -36 -95q-32 -30 -84 -30q-65 0 -96 44q-22 32 -22 81z" />
    <glyph glyph-name="Gdotaccent" unicode="&#x120;" horiz-adv-x="625" 
d="M551 393v-279q0 -54 27 -111l2 -3h-210q-154 2 -242 104q-83 94 -83 252q0 92 40 174q42 87 117 137q82 55 187 55q37 0 80.5 -12.5t78.5 -32.5l-27 -63q-31 30 -65 43t-81 13q-65 0 -121 -39t-89 -108q-35 -74 -35 -167q0 -158 74 -239q68 -74 187 -72h89v233
q0 78 -17 115h88zM336 819q0 19 13 32t32 13t32 -13t13 -32t-13 -32t-32 -13q-20 0 -32.5 12.5t-12.5 32.5z" />
    <glyph glyph-name="gdotaccent" unicode="&#x121;" horiz-adv-x="492" 
d="M85 -176l26 52q60 -62 125 -62q134 0 134 215q-35 -41 -106 -41q-114 0 -178 88q-51 70 -51 169q0 124 55 205q57 86 158 86q79 0 122 -64v54h67v-482q0 -144 -52 -207q-49 -59 -152 -59q-84 0 -148 46zM370 101v313q0 9 -11 24.5t-27 28.5q-37 31 -72 31q-68 0 -108 -74
q-37 -70 -37 -185q0 -108 47 -164q41 -49 111 -49q39 0 68 21t29 54zM211 628q0 19 13 32t32 13t32 -13t13 -32t-13 -32t-32 -13q-20 0 -32.5 12.5t-12.5 32.5z" />
    <glyph glyph-name="Gcommaaccent" unicode="&#x122;" horiz-adv-x="625" 
d="M551 393v-279q0 -54 27 -111l2 -3h-210q-154 2 -242 104q-83 94 -83 252q0 92 40 174q42 87 117 137q82 55 187 55q37 0 80.5 -12.5t78.5 -32.5l-27 -63q-31 30 -65 43t-81 13q-65 0 -121 -39t-89 -108q-35 -74 -35 -167q0 -158 74 -239q68 -74 187 -72h89v233
q0 78 -17 115h88zM414 -259l-10 20q81 47 81 86q0 15 -15 15l-25 -5q-19 0 -30.5 12t-11.5 33q0 20 13 34t31 14q26 0 43 -21.5t17 -54.5q0 -41 -22 -72.5t-71 -60.5z" />
    <glyph glyph-name="gcommaaccent" unicode="&#x123;" horiz-adv-x="492" 
d="M85 -176l26 52q60 -62 125 -62q134 0 134 215q-35 -41 -106 -41q-114 0 -178 88q-51 70 -51 169q0 124 55 205q57 86 158 86q79 0 122 -64v54h67v-482q0 -144 -52 -207q-49 -59 -152 -59q-84 0 -148 46zM370 101v313q0 9 -11 24.5t-27 28.5q-37 31 -72 31q-68 0 -108 -74
q-37 -70 -37 -185q0 -108 47 -164q41 -49 111 -49q39 0 68 21t29 54zM297 816l10 -21q-34 -21 -59 -50.5t-25 -50.5q0 -16 15 -16l27 5q20 0 31.5 -12.5t11.5 -34.5q0 -20 -13.5 -35t-32.5 -15q-27 0 -45 22.5t-18 56.5q0 93 98 151z" />
    <glyph glyph-name="Hcircumflex" unicode="&#x124;" horiz-adv-x="635" 
d="M80 112v487q0 76 -25 115h73q23 -26 23 -112v-181h335v178q0 65 -24 115h73q22 -25 22 -111v-488q0 -72 23 -115h-72q-22 25 -22 112v252h-335v-248q0 -73 23 -116h-72q-22 25 -22 112zM413 773h-23q-14 21 -43 45.5t-47 30.5q-38 -12 -92 -76h-22q41 89 114 127
q71 -38 113 -127z" />
    <glyph glyph-name="hcircumflex" unicode="&#x125;" horiz-adv-x="478" 
d="M428 395v-281q0 -46 4 -70t16 -44h-66q-12 20 -16.5 43t-4.5 68v265q0 105 -87 105q-49 0 -93 -39q-31 -27 -47 -61v-267q0 -64 27 -114h-67q-27 31 -27 114v498q0 60 -22 102h68q21 -24 21 -102v-171q26 43 70 69t94 26q130 0 130 -141zM193 751h-23q-14 21 -43 45.5
t-47 30.5q-38 -12 -92 -76h-22q41 89 114 127q71 -38 113 -127z" />
    <glyph glyph-name="Hbar" unicode="&#x126;" horiz-adv-x="635" 
d="M25 538v56h55v5q0 76 -25 115h73q23 -26 23 -112v-8h335v5q0 65 -24 115h73q22 -25 22 -111v-9h60v-56h-60v-423q0 -72 23 -115h-72q-22 25 -22 112v252h-335v-248q0 -73 23 -116h-72q-22 25 -22 112v426h-55zM151 421h335v117h-335v-117z" />
    <glyph glyph-name="hbar" unicode="&#x127;" horiz-adv-x="478" 
d="M428 395v-281q0 -46 4 -70t16 -44h-66q-12 20 -16.5 43t-4.5 68v265q0 105 -87 105q-49 0 -93 -42q-31 -29 -47 -64v-261q0 -64 27 -114h-67q-27 31 -27 114v461h-53v56h52q-2 48 -21 83h68q18 -21 21 -83h133v-56h-133v-138q29 45 73.5 72t90.5 27q130 0 130 -141z" />
    <glyph glyph-name="Itilde" unicode="&#x128;" horiz-adv-x="227" 
d="M79 112v487q0 65 -24 115h73q22 -25 22 -111v-488q0 -69 22 -115h-71q-22 25 -22 112zM248 842l4 -9q-19 -23 -46.5 -39t-49.5 -16q-20 0 -56 11l-44 15q-18 5 -33 5q-21 0 -66 -21l-4 10q43 46 98 46q16 0 56 -15q34 -13 67 -13q34 0 74 26z" />
    <glyph glyph-name="itilde" unicode="&#x129;" horiz-adv-x="190" 
d="M60 111v415h64v-412q0 -67 26 -114h-69q-21 24 -21 111zM236 655l4 -9q-19 -23 -46.5 -39t-49.5 -16q-20 0 -56 11l-44 15q-18 5 -33 5q-21 0 -66 -21l-4 10q43 46 98 46q16 0 56 -15q34 -13 67 -13q34 0 74 26z" />
    <glyph glyph-name="Imacron" unicode="&#x12a;" horiz-adv-x="227" 
d="M79 112v487q0 65 -24 115h73q22 -25 22 -111v-488q0 -69 22 -115h-71q-22 25 -22 112zM-1 830h197v-42h-197v42z" />
    <glyph glyph-name="imacron" unicode="&#x12b;" horiz-adv-x="190" 
d="M60 111v415h64v-412q0 -67 26 -114h-69q-21 24 -21 111zM-6 643h197v-42h-197v42z" />
    <glyph glyph-name="Ibreve" unicode="&#x12c;" horiz-adv-x="227" 
d="M79 112v487q0 65 -24 115h73q22 -25 22 -111v-488q0 -69 22 -115h-71q-22 25 -22 112zM-18 897h22q6 -37 32 -59t64 -22q49 0 75 31q18 21 21 50h24q0 -61 -36 -95q-32 -30 -84 -30q-65 0 -96 44q-22 32 -22 81z" />
    <glyph glyph-name="ibreve" unicode="&#x12d;" horiz-adv-x="190" 
d="M60 111v415h64v-412q0 -67 26 -114h-69q-21 24 -21 111zM-29 711h22q6 -37 32 -59t64 -22q49 0 75 31q18 21 21 50h24q0 -61 -36 -95q-32 -30 -84 -30q-65 0 -96 44q-22 32 -22 81z" />
    <glyph glyph-name="Iogonek" unicode="&#x12e;" horiz-adv-x="227" 
d="M172 0h-39q-74 -66 -74 -107q0 -42 42 -42q25 0 55 23l14 -39q-42 -32 -78 -32q-32 0 -52.5 22t-20.5 56q0 57 82 119q-22 25 -22 112v487q0 65 -24 115h73q22 -25 22 -111v-488q0 -69 22 -115z" />
    <glyph glyph-name="iogonek" unicode="&#x12f;" horiz-adv-x="203" 
d="M163 0h-33q-74 -66 -74 -107q0 -42 42 -42q25 0 55 23l14 -39q-42 -32 -78 -32q-32 0 -52.5 22t-20.5 56q0 57 82 119q-29 32 -29 115v411h67v-408q0 -69 27 -118zM60 680q0 18 12 30.5t30 12.5t30.5 -12.5t12.5 -30.5t-12.5 -30t-30.5 -12t-30 12t-12 30z" />
    <glyph glyph-name="Idotaccent" unicode="&#x130;" horiz-adv-x="227" 
d="M79 112v487q0 65 -24 115h73q22 -25 22 -111v-488q0 -69 22 -115h-71q-22 25 -22 112zM47 819q0 19 13 32t32 13t32 -13t13 -32t-13 -32t-32 -13q-20 0 -32.5 12.5t-12.5 32.5z" />
    <glyph glyph-name="dotlessi" unicode="&#x131;" horiz-adv-x="190" 
d="M60 111v415h64v-412q0 -67 26 -114h-69q-21 24 -21 111z" />
    <glyph glyph-name="IJ" unicode="&#x132;" horiz-adv-x="647" 
d="M79 112v487q0 65 -24 115h73q22 -25 22 -111v-488q0 -69 22 -115h-71q-22 25 -22 112zM512 190v409q0 65 -24 115h73q22 -25 22 -111v-425q0 -94 -56 -146q-47 -44 -119 -44q-83 0 -161 51l29 64q28 -28 64 -45.5t68 -17.5q60 0 84 41q20 35 20 109z" />
    <glyph glyph-name="ij" unicode="&#x133;" horiz-adv-x="476" 
d="M66 526h67v-408q0 -69 27 -118h-65q-29 32 -29 115v411zM57 680q0 18 12 30.5t30 12.5t30.5 -12.5t12.5 -30.5t-12.5 -30t-30.5 -12t-30 12t-12 30zM347 -78v604h67v-580q0 -27 -2 -47q-16 -121 -147 -121q-70 0 -134 44l25 52q57 -59 108 -59q44 0 63.5 25t19.5 82z
M336 680q0 18 12 30.5t30 12.5t30.5 -12.5t12.5 -30.5t-12.5 -30t-30.5 -12t-30 12t-12 30z" />
    <glyph glyph-name="Jcircumflex" unicode="&#x134;" horiz-adv-x="426" 
d="M300 190v409q0 65 -24 115h73q22 -25 22 -111v-425q0 -94 -56 -146q-47 -44 -119 -44q-83 0 -161 51l29 64q28 -28 64 -45.5t68 -17.5q60 0 84 41q20 35 20 109zM426 773h-23q-14 21 -43 45.5t-47 30.5q-38 -12 -92 -76h-22q41 89 114 127q71 -38 113 -127z" />
    <glyph glyph-name="jcircumflex" unicode="&#x135;" horiz-adv-x="218" 
d="M96 -78v604h67v-580q0 -27 -2 -47q-16 -121 -147 -121q-70 0 -134 44l25 52q57 -59 108 -59q44 0 63.5 25t19.5 82zM238 586h-23q-14 21 -43 45.5t-47 30.5q-38 -12 -92 -76h-22q41 89 114 127q71 -38 113 -127z" />
    <glyph glyph-name="Kcommaaccent" unicode="&#x136;" horiz-adv-x="551" 
d="M79 112v487q0 65 -24 115h73q22 -25 22 -111v-322q9 56 43 124q50 103 161 250l48 59h99l-65 -74q-60 -65 -117 -136.5t-71 -99.5h3q61 -13 113 -91q20 -29 59 -109q44 -90 72.5 -134t60.5 -70h-84q-15 9 -37 37t-40 62q-30 56 -97 194q-29 59 -66 76h-3
q-79 -128 -79 -210v-44q0 -69 22 -115h-71q-22 25 -22 112zM260 -258l-10 20q81 47 81 86q0 15 -15 15l-25 -5q-19 0 -30.5 12t-11.5 33q0 20 13 34t31 14q26 0 43 -21.5t17 -54.5q0 -41 -22 -72.5t-71 -60.5z" />
    <glyph glyph-name="kcommaaccent" unicode="&#x137;" horiz-adv-x="487" 
d="M487 0h-98q-27 23 -58 74q-20 34 -64 120q-25 43 -35 56q-21 24 -45 28h-3q-25 -25 -32.5 -44.5t-7.5 -58.5v-66q0 -63 25 -109h-70q-22 31 -22 111v496q0 65 -22 107h68q21 -22 21 -107v-341h4q-2 0 -4 -1h-2h1q30 79 113 160l103 101h84l-232 -221h3q36 -7 61.5 -27
t52.5 -64l89 -140q33 -47 70 -74zM244 -259l-10 20q81 47 81 86q0 15 -15 15l-25 -5q-19 0 -30.5 12t-11.5 33q0 20 13 34t31 14q26 0 43 -21.5t17 -54.5q0 -41 -22 -72.5t-71 -60.5z" />
    <glyph glyph-name="kgreenlandic" unicode="&#x138;" horiz-adv-x="510" 
d="M509 0h-101q-21 18 -58 74q-19 35 -69 120q-28 49 -70 83h-6q-67 -60 -67 -126v-42q0 -63 25 -109h-67q-22 31 -22 111v308q0 79 -29 107h70q23 -25 23 -107v-163q12 28 50 75t87 95l103 100h84l-230 -222h3q58 -2 112 -90q30 -47 92 -140q33 -47 70 -74z" />
    <glyph glyph-name="Lacute" unicode="&#x139;" horiz-adv-x="467" 
d="M79 112v487q0 65 -24 115h73q22 -25 22 -111v-494q0 -31 5 -54h183q102 0 129 9q-9 -34 -32 -49t-65 -15h-269q-22 25 -22 112zM85 773h-10q17 56 36.5 99.5t29.5 44.5h2q7 0 58 -17v-12q-63 -23 -116 -115z" />
    <glyph glyph-name="lacute" unicode="&#x13a;" horiz-adv-x="206" 
d="M134 602v-488q0 -58 27 -114h-67q-27 31 -27 114v488q0 70 -22 112h68q12 -13 16.5 -37.5t4.5 -74.5zM65 772h-10q17 56 36.5 99.5t29.5 44.5h2q7 0 58 -17v-12q-63 -23 -116 -115z" />
    <glyph glyph-name="Lcommaaccent" unicode="&#x13b;" horiz-adv-x="467" 
d="M79 112v487q0 65 -24 115h73q22 -25 22 -111v-494q0 -31 5 -54h183q102 0 129 9q-9 -34 -32 -49t-65 -15h-269q-22 25 -22 112zM228 -257l-10 20q81 47 81 86q0 15 -15 15l-25 -5q-19 0 -30.5 12t-11.5 33q0 20 13 34t31 14q26 0 43 -21.5t17 -54.5q0 -41 -22 -72.5
t-71 -60.5z" />
    <glyph glyph-name="lcommaaccent" unicode="&#x13c;" horiz-adv-x="206" 
d="M134 602v-488q0 -58 27 -114h-67q-27 31 -27 114v488q0 70 -22 112h68q12 -13 16.5 -37.5t4.5 -74.5zM89 -258l-10 20q81 47 81 86q0 15 -15 15l-25 -5q-19 0 -30.5 12t-11.5 33q0 20 13 34t31 14q26 0 43 -21.5t17 -54.5q0 -41 -22 -72.5t-71 -60.5z" />
    <glyph glyph-name="Lcaron" unicode="&#x13d;" horiz-adv-x="467" 
d="M79 112v487q0 65 -24 115h73q22 -25 22 -111v-494q0 -31 5 -54h183q102 0 129 9q-9 -34 -32 -49t-65 -15h-269q-22 25 -22 112zM335 585l-10 20q81 47 81 86q0 15 -15 15l-25 -5q-19 0 -30.5 12t-11.5 33q0 20 13 34t31 14q26 0 43 -21.5t17 -54.5q0 -41 -22 -72.5
t-71 -60.5z" />
    <glyph glyph-name="lcaron" unicode="&#x13e;" horiz-adv-x="295" 
d="M134 602v-488q0 -58 27 -114h-67q-27 31 -27 114v488q0 70 -22 112h68q12 -13 16.5 -37.5t4.5 -74.5zM207 491l-10 21q35 21 59.5 50.5t24.5 50.5q0 16 -15 16l-27 -5q-20 0 -31.5 12.5t-11.5 34.5q0 20 13.5 35t32.5 15q27 0 45 -22.5t18 -56.5q0 -93 -98 -151z" />
    <glyph glyph-name="Ldot" unicode="&#x13f;" horiz-adv-x="467" 
d="M79 112v487q0 65 -24 115h73q22 -25 22 -111v-494q0 -31 5 -54h183q102 0 129 9q-9 -34 -32 -49t-65 -15h-269q-22 25 -22 112zM298 375q0 20 14 34.5t34 14.5t34.5 -14.5t14.5 -34.5t-14.5 -34t-34.5 -14t-34 14t-14 34z" />
    <glyph glyph-name="ldot" unicode="&#x140;" horiz-adv-x="318" 
d="M134 603v-489q0 -58 27 -114h-67q-27 31 -27 114v489q0 69 -22 111h68q12 -13 16.5 -37t4.5 -74zM204 335q0 20 14 34.5t34 14.5t34.5 -14.5t14.5 -34.5t-14.5 -34t-34.5 -14t-34 14t-14 34z" />
    <glyph glyph-name="Lslash" unicode="&#x141;" horiz-adv-x="496" 
d="M7 188v71l102 66v274q0 65 -24 115h72q23 -24 23 -111v-229q36 22 92 65l52 37v-73l-144 -101v-187q0 -35 4 -54h184q101 0 128 9q-18 -70 -97 -70h-268q-22 25 -22 112v142z" />
    <glyph glyph-name="lslash" unicode="&#x142;" horiz-adv-x="301" 
d="M171 304v-190q0 -64 24 -114h-69q-21 24 -21 114v147l-95 -69v65l95 71v274q0 65 -25 112h70q21 -24 21 -112v-233l120 87v-65z" />
    <glyph glyph-name="Nacute" unicode="&#x143;" horiz-adv-x="576" 
d="M446 321v278q0 63 -25 115h66q21 -24 21 -110v-480q0 -92 13 -124h-81q-16 21 -26.5 42.5t-51.5 115.5q-91 208 -202 425q-18 32 -29 40q11 -31 11 -115v-54v-339q0 -67 23 -115h-63q-22 25 -22 110v481q0 75 -25 123h105q29 -13 67 -93l233 -491q-14 70 -14 191z
M297 773h-10q17 56 36.5 99.5t29.5 44.5h2q7 0 58 -17v-12q-63 -23 -116 -115z" />
    <glyph glyph-name="nacute" unicode="&#x144;" horiz-adv-x="481" 
d="M421 394v-280q0 -46 4 -70t16 -44h-66q-12 20 -16.5 43t-4.5 68v264q0 106 -87 106q-49 0 -93 -43q-31 -29 -47 -65v-259q0 -64 27 -114h-67q-27 31 -27 114v310v102h67v-89q29 45 73.5 72t90.5 27q130 0 130 -142zM216 586h-10q17 56 36.5 99.5t29.5 44.5h2q7 0 58 -17
v-12q-63 -23 -116 -115z" />
    <glyph glyph-name="Ncommaaccent" unicode="&#x145;" horiz-adv-x="576" 
d="M446 321v278q0 63 -25 115h66q21 -24 21 -110v-480q0 -92 13 -124h-81q-16 21 -26.5 42.5t-51.5 115.5q-91 208 -202 425q-18 32 -29 40q11 -31 11 -115v-54v-339q0 -67 23 -115h-63q-22 25 -22 110v481q0 75 -25 123h105q29 -13 67 -93l233 -491q-14 70 -14 191z
M260 -257l-10 20q81 47 81 86q0 15 -15 15l-25 -5q-19 0 -30.5 12t-11.5 33q0 20 13 34t31 14q26 0 43 -21.5t17 -54.5q0 -41 -22 -72.5t-71 -60.5z" />
    <glyph glyph-name="ncommaaccent" unicode="&#x146;" horiz-adv-x="481" 
d="M421 394v-280q0 -46 4 -70t16 -44h-66q-12 20 -16.5 43t-4.5 68v264q0 106 -87 106q-49 0 -93 -43q-31 -29 -47 -65v-259q0 -64 27 -114h-67q-27 31 -27 114v310v102h67v-89q29 45 73.5 72t90.5 27q130 0 130 -142zM224 -257l-10 20q81 47 81 86q0 15 -15 15l-25 -5
q-19 0 -30.5 12t-11.5 33q0 20 13 34t31 14q26 0 43 -21.5t17 -54.5q0 -41 -22 -72.5t-71 -60.5z" />
    <glyph glyph-name="Ncaron" unicode="&#x147;" horiz-adv-x="576" 
d="M446 321v278q0 63 -25 115h66q21 -24 21 -110v-480q0 -92 13 -124h-81q-16 21 -26.5 42.5t-51.5 115.5q-91 208 -202 425q-18 32 -29 40q11 -31 11 -115v-54v-339q0 -67 23 -115h-63q-22 25 -22 110v481q0 75 -25 123h105q29 -13 67 -93l233 -491q-14 70 -14 191z
M379 899h25q-32 -84 -113 -127q-81 42 -114 127h22q41 -60 92 -76q18 4 47.5 29.5t40.5 46.5z" />
    <glyph glyph-name="ncaron" unicode="&#x148;" horiz-adv-x="481" 
d="M421 394v-280q0 -46 4 -70t16 -44h-66q-12 20 -16.5 43t-4.5 68v264q0 106 -87 106q-49 0 -93 -43q-31 -29 -47 -65v-259q0 -64 27 -114h-67q-27 31 -27 114v310v102h67v-89q29 45 73.5 72t90.5 27q130 0 130 -142zM333 713h25q-32 -84 -113 -127q-81 42 -114 127h22
q41 -60 92 -76q18 4 47.5 29.5t40.5 46.5z" />
    <glyph glyph-name="napostrophe" unicode="&#x149;" horiz-adv-x="481" 
d="M421 394v-280q0 -46 4 -70t16 -44h-66q-12 20 -16.5 43t-4.5 68v264q0 106 -87 106q-49 0 -93 -43q-31 -29 -47 -65v-259q0 -64 27 -114h-67q-27 31 -27 114v310v102h67v-89q29 45 73.5 72t90.5 27q130 0 130 -142zM-6 566l-10 20q81 47 81 86q0 15 -15 15l-25 -5
q-19 0 -30.5 12t-11.5 33q0 20 13 34t31 14q26 0 43 -21.5t17 -54.5q0 -41 -22 -72.5t-71 -60.5z" />
    <glyph glyph-name="Eng" unicode="&#x14a;" horiz-adv-x="555" 
d="M493 604v-480q5 -141 7 -170q0 -94 -55 -146q-47 -44 -119 -44q-83 0 -161 51l29 64q28 -28 64 -45.5t68 -17.5q59 0 84 38q20 32 20 96q0 39 -29 110l-44 98q-72 164 -144 305l-64 120q-18 32 -29 40q11 -31 11 -115v-54v-339q0 -67 23 -115h-52q-22 25 -22 110v481
q0 75 -25 123h105q29 -13 67 -93l234 -491q-14 70 -14 191v278q0 63 -25 115h50q21 -24 21 -110z" />
    <glyph glyph-name="eng" unicode="&#x14b;" horiz-adv-x="461" 
d="M354 -71v447q0 105 -87 105q-49 0 -93 -42q-31 -29 -47 -64v-261q0 -64 27 -114h-67q-27 31 -27 114v412h67v-89q29 45 73.5 72t90.5 27q130 0 130 -141v-442q0 -27 -2 -47q-16 -121 -147 -121q-70 0 -134 44l25 52q57 -59 108 -59q44 0 63.5 25t19.5 82z" />
    <glyph glyph-name="Omacron" unicode="&#x14c;" horiz-adv-x="703" 
d="M349 -12q-146 0 -232 121q-72 101 -72 245q0 95 39 180q40 85 108 135q71 53 157 53q89 0 161 -53q69 -50 109 -135q39 -84 39 -180q0 -171 -89 -272q-83 -94 -220 -94zM577 347q0 130 -58 223q-61 99 -169 99q-121 0 -182 -125q-41 -85 -41 -191q0 -129 56 -217
q62 -96 172 -96q120 0 180 115q42 82 42 192zM259 830h197v-42h-197v42z" />
    <glyph glyph-name="omacron" unicode="&#x14d;" horiz-adv-x="505" 
d="M254 -12q-110 0 -170 90q-49 73 -49 181q0 132 65 208q59 69 152 69q117 0 173 -89q45 -71 45 -188q0 -124 -65 -201q-59 -70 -151 -70zM255 26q78 0 113 96q21 58 23 139v19q0 216 -135 218q-80 1 -116 -83q-25 -58 -26 -147q-1 -95 33 -164q38 -78 108 -78zM158 643
h197v-42h-197v42z" />
    <glyph glyph-name="Obreve" unicode="&#x14e;" horiz-adv-x="703" 
d="M349 -12q-146 0 -232 121q-72 101 -72 245q0 95 39 180q40 85 108 135q71 53 157 53q89 0 161 -53q69 -50 109 -135q39 -84 39 -180q0 -171 -89 -272q-83 -94 -220 -94zM577 347q0 130 -58 223q-61 99 -169 99q-121 0 -182 -125q-41 -85 -41 -191q0 -129 56 -217
q62 -96 172 -96q120 0 180 115q42 82 42 192zM233 897h22q6 -37 32 -59t64 -22q49 0 75 31q18 21 21 50h24q0 -61 -36 -95q-32 -30 -84 -30q-65 0 -96 44q-22 32 -22 81z" />
    <glyph glyph-name="obreve" unicode="&#x14f;" horiz-adv-x="505" 
d="M254 -12q-110 0 -170 90q-49 73 -49 181q0 132 65 208q59 69 152 69q117 0 173 -89q45 -71 45 -188q0 -124 -65 -201q-59 -70 -151 -70zM255 26q78 0 113 96q21 58 23 139v19q0 216 -135 218q-80 1 -116 -83q-25 -58 -26 -147q-1 -95 33 -164q38 -78 108 -78zM136 711h22
q6 -37 32 -59t64 -22q49 0 75 31q18 21 21 50h24q0 -61 -36 -95q-32 -30 -84 -30q-65 0 -96 44q-22 32 -22 81z" />
    <glyph glyph-name="Ohungarumlaut" unicode="&#x150;" horiz-adv-x="703" 
d="M349 -12q-146 0 -232 121q-72 101 -72 245q0 95 39 180q40 85 108 135q71 53 157 53q89 0 161 -53q69 -50 109 -135q39 -84 39 -180q0 -171 -89 -272q-83 -94 -220 -94zM577 347q0 130 -58 223q-61 99 -169 99q-121 0 -182 -125q-41 -85 -41 -191q0 -129 56 -217
q62 -96 172 -96q120 0 180 115q42 82 42 192zM280 772h-10q17 56 36.5 99.5t29.5 44.5h2q7 0 58 -17v-12q-63 -23 -116 -115zM400 772h-10q17 56 36.5 99.5t29.5 44.5h2q7 0 58 -17v-12q-63 -23 -116 -115z" />
    <glyph glyph-name="ohungarumlaut" unicode="&#x151;" horiz-adv-x="505" 
d="M254 -12q-110 0 -170 90q-49 73 -49 181q0 132 65 208q59 69 152 69q117 0 173 -89q45 -71 45 -188q0 -124 -65 -201q-59 -70 -151 -70zM255 26q78 0 113 96q21 58 23 139v19q0 216 -135 218q-80 1 -116 -83q-25 -58 -26 -147q-1 -95 33 -164q38 -78 108 -78zM186 586
h-10q17 56 36.5 99.5t29.5 44.5h2q7 0 58 -17v-12q-63 -23 -116 -115zM306 586h-10q17 56 36.5 99.5t29.5 44.5h2q7 0 58 -17v-12q-63 -23 -116 -115z" />
    <glyph glyph-name="OE" unicode="&#x152;" horiz-adv-x="901" 
d="M554 61h184q101 0 128 9q-18 -70 -97 -70l-321 2h-1q-54 -14 -104 -14q-146 0 -232 121q-71 100 -71 245q0 97 37 180q38 86 106 135q73 53 166 53q54 0 104 -8h291q76 0 99 -69q-24 8 -129 8h-171q7 -19 7 -60v-136h145q43 0 66.5 -16.5t35.5 -54.5q-27 9 -129 9h-118
v-280q0 -39 4 -54zM479 112v522h-2q-48 33 -128 33q-123 0 -180 -124q-38 -82 -38 -190q0 -132 51 -216q57 -94 167 -94q53 0 79 6t46 23h2q3 17 3 40z" />
    </font>
</defs>
</svg>
